<svg fill="none" viewBox="0 0 45 24" xmlns="http://www.w3.org/2000/svg">
<path d="m42.922 12.33c-1.4585 0-11.562-0.8932-13.023-0.9439-1.1186-0.0388-12.218 0.2363-13.338 0.2363-0.9127 0-5.6797 0.491-6.5889 0.62-2.171 0.3081-6.1691-0.2106-8.366-0.2106m0 0c0.72027 0.792 1.9798 1.6015 2.6776 2.4099 0.97619 1.1308 2.0529 2.1768 3.033 3.2958 0.20572 0.2349 0.85785 0.7804 1.1426 0.9867 0.48001 0.3476 3.236 2.9712 3.4674 3.3605m-10.321-10.053c0.79195-0.7203 1.6015-1.4193 2.4099-2.1172 1.1308-0.9762 2.1767-2.0529 3.2958-3.033 0.23488-0.20571 0.78045-0.85785 0.98668-1.1426 0.34762-0.48001 2.9712-3.236 3.3606-3.4674" stroke="#111010" stroke-linecap="round" stroke-linejoin="round" stroke-width="3"/>
</svg>
