<svg fill="none" viewBox="0 0 103 66" xmlns="http://www.w3.org/2000/svg">
<path d="m53 8-0.187 0.34014c0.0573 0.03151 0.1216 0.04803 0.187 0.04803v-0.38817zm-12.731-7 0.1871-0.34014c-0.1496-0.082229-0.3353-0.057133-0.4577 0.061839l0.2706 0.27831zm-4.4745 4.3506-0.2706-0.2783c-0.0985 0.09579-0.1391 0.23654-0.1066 0.37006s0.1332 0.23992 0.2647 0.27975l0.1125-0.37151zm5.877 1.7798 0.3861 0.04027c0.0193-0.18509-0.0955-0.35784-0.2736-0.41177l-0.1125 0.3715zm-0.4675 4.4825v0.3882c0.1988 0 0.3655-0.1502 0.3861-0.3479l-0.3861-0.0403zm-2.8717 0-0.3776 0.09c0.0417 0.1748 0.1979 0.2982 0.3776 0.2982v-0.3882zm-1.0686-4.4825 0.3776-0.09001c-0.0385-0.1617-0.1757-0.28091-0.3413-0.29646-0.1655-0.01554-0.3225 0.07603-0.3905 0.22774l0.3542 0.15873zm-4.6081 10.283-0.3542-0.1587c-0.0429 0.0958-0.0452 0.2049-0.0064 0.3024s0.1155 0.1751 0.2125 0.2151l0.1481-0.3588zm10.218 4.2188-0.1481 0.3588c0.1378 0.0569 0.296 0.0299 0.4071-0.0696l-0.259-0.2892zm3.6064-3.23h0.3881c0-0.1531-0.09-0.2919-0.2298-0.3544-0.1398-0.0624-0.3032-0.0369-0.4173 0.0653l0.259 0.2891zm0 6.9874h-0.3882c0 0.1575 0.0951 0.2994 0.2408 0.3591 0.1457 0.0598 0.3131 0.0256 0.4237-0.0865l-0.2763-0.2726zm7.413-7.5147 0.2764 0.2726c0.1213-0.123 0.1467-0.3115 0.0623-0.4623l-0.3387 0.1897zm-4.2074-7.5148 0.3387-0.1896c-0.0088-0.0157-0.0187-0.0308-0.0296-0.0452l-0.3091 0.2348zm-3.2056-4.2188 0.309-0.23484c-0.0826-0.10872-0.2162-0.16604-0.3519-0.15095-0.1358 0.0151-0.2535 0.10039-0.3103 0.22461l0.3532 0.16118zm-2.7382 5.9986-0.3531-0.1612c-0.0568 0.1243-0.0439 0.2693 0.0337 0.3817 0.0777 0.1125 0.2088 0.1758 0.3451 0.1668l-0.0257-0.3873zm7.9473-0.5274h0.3882c0-0.1074-0.0445-0.21-0.1229-0.2834s-0.1838-0.111-0.291-0.1039l0.0257 0.3873zm0 4.021v0.3882c0.2144 0 0.3882-0.1738 0.3882-0.3882h-0.3882zm-12.689 0v-0.3881c-0.1178 0-0.2292 0.0535-0.3029 0.1454-0.0737 0.092-0.1016 0.2124-0.0759 0.3274l0.3788-0.0847zm3.1389 14.041-0.3788 0.0847c0.0243 0.1086 0.094 0.2016 0.1914 0.2553 0.0975 0.0537 0.2134 0.063 0.3181 0.0255l-0.1307-0.3655zm9.9509-3.5596 0.3857 0.0434c0.015-0.1331-0.0398-0.2646-0.1448-0.3477-0.105-0.0832-0.2455-0.1063-0.3717-0.0612l0.1308 0.3655zm-0.4008 3.5596 0.2601 0.2882c0.0704-0.0635 0.1151-0.1506 0.1257-0.2448l-0.3858-0.0434zm-10.886 9.8219-0.3758 0.097c0.0339 0.1314 0.134 0.2356 0.264 0.2747 0.1301 0.0391 0.271 0.0074 0.3718-0.0835l-0.26-0.2882zm-1.8032-6.9874h-0.3881c0 0.0327 0.0041 0.0653 0.0123 0.097l0.3758-0.097zm0-14.634h0.3882c0-0.1404-0.0758-0.2699-0.1983-0.3386-0.1224-0.0687-0.2724-0.0659-0.3923 0.0073l0.2024 0.3313zm-7.0123 4.2847-0.2024-0.3312c-0.1789 0.1093-0.2387 0.3409-0.135 0.5231l0.3374-0.1919zm4.2742 7.5147v0.3882c0.1382 0 0.266-0.0735 0.3355-0.193s0.0702-0.2669 0.0019-0.3871l-0.3374 0.1919zm-8.1477 0-0.382 0.0691c0.0334 0.1847 0.1943 0.3191 0.382 0.3191v-0.3882zm-2.5378-14.041 0.382-0.069c-0.027-0.1493-0.1385-0.2692-0.2855-0.307-0.147-0.0377-0.3025 0.0137-0.3981 0.1316l0.3016 0.2444zm-3.7399 4.6143-0.3016-0.2444c-0.1023 0.1263-0.1152 0.3029-0.0322 0.4427l0.3338-0.1983zm1.1353 1.9117 0.1391 0.3624c0.1068-0.041 0.1901-0.127 0.2276-0.2351s0.0255-0.2272-0.0329-0.3255l-0.3338 0.1982zm-3.6063 1.3843-0.1391-0.3624c-0.1779 0.0682-0.2799 0.2555-0.2409 0.4419l0.38-0.0795zm1.6696 7.9761-0.38 0.0796c0.0283 0.135 0.1262 0.2449 0.2571 0.2886s0.2751 0.0146 0.3789-0.0764l-0.256-0.2918zm8.4148-7.3829 0.3809-0.0746c-0.0267-0.1363-0.1242-0.248-0.2557-0.2928-0.1314-0.0448-0.2768-0.0159-0.3812 0.0757l0.256 0.2917zm1.2021 6.1305 0.1971 0.3344c0.1418-0.0836 0.2155-0.2476 0.1838-0.4091l-0.3809 0.0747zm-9.6169 5.669-0.1971-0.3344c-0.1333 0.0785-0.2072 0.2287-0.1881 0.3822l0.3852-0.0478zm0.8014 6.46-0.3852 0.0478c0.0151 0.122 0.0872 0.2297 0.1942 0.2901 0.107 0.0605 0.2364 0.0668 0.3487 0.0168l-0.1577-0.3547zm10.819-4.812 0.3852-0.0482c-0.0152-0.1219-0.0873-0.2294-0.1943-0.2899-0.107-0.0604-0.2363-0.0666-0.3486-0.0166l0.1577 0.3547zm0.6011 4.812-0.3852 0.0481c0.0145 0.1162 0.0806 0.2196 0.18 0.2814 0.0994 0.0619 0.2213 0.0756 0.3319 0.0374l-0.1267-0.3669zm4.007-1.3843 0.1268 0.3669c0.1565-0.054 0.2614-0.2013 0.2614-0.3669h-0.3882zm0-6.9214h0.3882c0-0.1937-0.1427-0.3577-0.3345-0.3845l-0.0537 0.3845zm-6.6116-0.9229 0.0537-0.3844c-0.1229-0.0172-0.2465 0.0254-0.3327 0.1145-0.0862 0.0892-0.1247 0.2141-0.1034 0.3363l0.3824-0.0664zm2.0035 11.536-0.3824 0.0664c0.0323 0.186 0.1937 0.3217 0.3824 0.3217v-0.3881zm7.6134 0 0.2869 0.2615c0.1036-0.1136 0.1303-0.2776 0.0682-0.4183s-0.2013-0.2314-0.3551-0.2314v0.3882zm-3.0053 3.2959-0.048 0.3852c0.1251 0.0156 0.25-0.0305 0.3349-0.1237l-0.2869-0.2615zm-12.155-1.5161-0.3272 0.2087c0.0621 0.0975 0.1645 0.1622 0.2792 0.1765l0.048-0.3852zm-1.1353-1.7798-0.0161-0.3879c-0.1388 0.0058-0.2639 0.0852-0.3281 0.2084-0.0642 0.1231-0.0578 0.2711 0.0169 0.3882l0.3273-0.2087zm6.3445-0.2637 0.0161 0.3878c0.1656-0.0069 0.3085-0.1181 0.3559-0.2769 0.0473-0.1588-0.0114-0.3302-0.1462-0.4266l-0.2258 0.3157zm-11.888-8.5035-0.2512-0.2959c-0.0912 0.0774-0.1416 0.1925-0.1366 0.312 0.0049 0.1195 0.0647 0.23 0.162 0.2996l0.2258-0.3157zm6.2109-5.2735 0.2513 0.2959c0.124-0.1053 0.1692-0.2769 0.1131-0.4297l-0.3644 0.1338zm-1.6696-4.5484 0.3644-0.1338c-0.0705-0.1919-0.2778-0.2963-0.474-0.2386l0.1096 0.3724zm-7.6134 2.2412v0.3882c0.0371 0 0.074-0.0053 0.1096-0.0158l-0.1096-0.3724zm57.141-19.968c0.2144 0 0.3882-0.17379 0.3882-0.38817s-0.1738-0.38817-0.3882-0.38817v0.77634zm-71.5 19.58c-0.21438 0-0.38817 0.1738-0.38817 0.3881 0 0.2144 0.17379 0.3882 0.38817 0.3882v-0.7763zm71.514-20.356c-0.2144 7.1e-4 -0.3876 0.17508-0.3869 0.38946s0.1751 0.38759 0.3895 0.38688l-0.0026-0.77634zm11.811 6.8872-0.3682-0.1229 0.3682 0.1229zm-2.4338 1.6678-0.113 0.3713 0.113-0.3713zm-0.2174-3.7153-0.2823-0.2665 0.2823 0.2665zm8.1863 1.3626-0.3099 0.2336 0.3099-0.2336zm-0.29 4.7392 0.2819 0.2669-0.2819-0.2669zm-3.676-0.891 0.3857-0.0441-0.3857 0.0441zm4.3974-4.9841 0.0086 0.3881-0.0086-0.3881zm3.8032 3.5649 0.3866-0.0343-0.3866 0.0343zm-1.1123 7.0644-0.3548 0.1574 0.3548-0.1574zm2.2693-1.0319 0.3641-0.1345-0.3641 0.1345zm-6.5113 1.2688 0.3695 0.1189-0.3695-0.1189zm2.762 5.1442 0.0596-0.3836-0.0596 0.3836zm1.2993-1.4077-0.3703 0.1163 0.3703-0.1163zm-2.6306-0.0168-0.2952-0.252 0.2952 0.252zm2.1545 4.2814-0.0094-0.3881 0.0094 0.3881zm1.7923-0.8676-0.3365-0.1935 0.3365 0.1935zm-1.277-0.9539 0.2718 0.2771-0.2718-0.2771zm0.9061 3.5362 0.1893-0.3389-0.1893 0.3389zm3.9308-2.5854 0.1104-0.3722-0.1104 0.3722zm1.6183 6.2458 0.3511 0.1655-0.3511-0.1655zm-3.1739-0.1681-0.3882 0.0015 0.3882-0.0015zm5.3038-2.3009 0.3-0.2461-0.3 0.2461zm-0.661 7.3207 0.347 0.1736-0.347-0.1736zm-3.6488 0.8735 0.31-0.2336-0.31 0.2336zm-3.4026-1.3455 0.1692-0.3494-0.1692 0.3494zm-4.5251-5.7105 0.1312-0.3653-0.1312 0.3653zm-3.461 3.5997 0.3842-0.0556-0.3842 0.0556zm2.1711 2.3676-0.0763 0.3806 0.0763-0.3806zm0.0633-2.4779 0.0428-0.3858-0.0428 0.3858zm-3.5476 1.7843 0.305 0.2401-0.305-0.2401zm-1.9081 5.3207-0.3794-0.0816 0.3794 0.0816zm-2.6195 0.2307-0.3658 0.1298 0.3658-0.1298zm-2.8494-7.7651-0.3613-0.142 0.3613 0.142zm5.4599-3.1191 0.1288-0.3662-0.1288 0.3662zm5.4713-5.1534 0.3728 0.1081-0.3728-0.1081zm-3.8498-5.107-0.0499-0.385 0.0499 0.385zm-3.4409 5.1142-0.3099 0.2337 0.3099-0.2337zm5.3038-1.9597-0.3386-0.1897 0.3386 0.1897zm-3.1426-10.147-0.1267 0.3669 0.1267-0.3669zm-8.8165 3.278-0.3161-0.2255 0.3161 0.2255zm3.5109 1.526-0.2869-0.2615 0.2869 0.2615zm-3.7884-5.0254 0.0536 0.3844-0.0536-0.3844zm-4.9749 2.986-0.3387-0.1896 0.3387 0.1896zm-4.0992 6.042-0.3752-0.0996 0.3752 0.0996zm6.333 1.3982-0.3314-0.202 0.3314 0.202zm-0.5621-6.6097 0.2978-0.249-0.2978 0.249zm-7.2741 5.1532-0.3756 0.098 0.3756-0.098zm10.213 2.5601-0.285-0.2635 0.285 0.2635zm3.0573-3.9719-0.1913-0.3377 0.1913 0.3377zm1.455 0.5637-0.3805 0.0767 0.3805-0.0767zm-1.3355 4.0356-0.3853 0.0471 0.3853-0.0471zm2.5949 2.1327 0.35-0.1678-0.35 0.1678zm-0.3574 2.828 0.3625-0.1389-0.3625 0.1389zm4.3337 6.8304-0.3882 0.0033 0.3882-0.0033zm-2.9955 3.5416 0.3799 0.0798-0.3799-0.0798zm0.367-6.4589 0.3493-0.1694-0.3493 0.1694zm-10.894-5.2856 0.1541 0.3562-0.1541-0.3562zm11.043 17.753 0.054-0.3844-0.054 0.3844zm12.654-4.4242 0.3675 0.1251-0.3675-0.1251zm-3.6454-2.0728 0.3339 0.1981-0.3339-0.1981zm2.4492 7.0563-0.065 0.3827 0.065-0.3827zm8.8135 5.6648-0.387 0.0302 0.387-0.0302zm-8.2134 6.8338c-0.2136 0.018-0.3722 0.2058-0.3541 0.4194 0.018 0.2137 0.2058 0.3722 0.4194 0.3542l-0.0653-0.7736zm-39.521-56.953-12.731-7-0.3741 0.68028 12.731 7 0.374-0.68028zm-13.188-6.9382-4.4745 4.3506 0.5412 0.55661 4.4745-4.3506-0.5412-0.55662zm-4.3164 5.0004 5.877 1.7798 0.225-0.74301-5.877-1.7798-0.225 0.74302zm5.6034 1.368-0.4675 4.4824 0.7722 0.0806 0.4675-4.4825-0.7722-0.08053zm-0.0814 4.1345h-2.8717v0.7764h2.8717v-0.7764zm-2.4941 0.2982-1.0686-4.4825-0.7551 0.18003 1.0685 4.4824 0.7552-0.18zm-1.8004-4.5512-4.6081 10.283 0.7085 0.3175 4.6081-10.283-0.7085-0.31747zm-4.402 10.801 4.2368 1.7493 0.2963-0.7176-4.2368-1.7492-0.2963 0.7175zm4.2368 1.7493 2.1077 0.8702 0.2963-0.7175-2.1077-0.8703-0.2963 0.7176zm2.1077 0.8702 1.0835 0.4474 0.2963-0.7176-1.0835-0.4473-0.2963 0.7175zm1.0835 0.4474 2.79 1.1519 0.2963-0.7176-2.79-1.1519-0.2963 0.7176zm3.1971 1.0823 3.6063-3.23-0.5179-0.5783-3.6064 3.23 0.518 0.5783zm2.9592-3.5192v6.9874h0.7763v-6.9874h-0.7763zm0.6645 7.26 7.4131-7.5147-0.5527-0.5452-7.4131 7.5147 0.5527 0.5452zm7.4754-7.977-2.2039-3.9362-0.6774 0.3792 2.2039 3.9363 0.6774-0.3793zm-2.2039-3.9362-1.2556-2.2427-0.6774 0.3793 1.2556 2.2426 0.6774-0.3792zm-1.2556-2.2427-0.7479-1.3358-0.6774 0.3793 0.7479 1.3358 0.6774-0.3793zm-0.7775-1.381-3.2057-4.2188-0.6181 0.46969 3.2056 4.2188 0.6182-0.4697zm-3.8679-4.1451-2.7381 5.9986 0.7062 0.3223 2.7382-5.9986-0.7063-0.32237zm-2.3593 6.5471 6.6917-0.4441-0.0514-0.7746-6.6917 0.444 0.0514 0.7747zm6.6917-0.4441 1.2556-0.0833-0.0514-0.7746-1.2556 0.0833 0.0514 0.7746zm0.8418-0.4706v2.326h0.7763v-2.326h-0.7763zm0 2.326v1.695h0.7763v-1.695h-0.7763zm0.3881 1.3069h-12.689v0.7763h12.689v-0.7763zm-13.068 0.4728 1.0835 4.8467 0.7577-0.1694-1.0835-4.8466-0.7577 0.1693zm1.0835 4.8467 2.0554 9.194 0.7576-0.1694-2.0553-9.194-0.7577 0.1694zm2.5649 9.4748 9.9509-3.5596-0.2615-0.731-9.9508 3.5596 0.2614 0.731zm9.4344-3.9685-0.4007 3.5596 0.7715 0.0868 0.4007-3.5596-0.7715-0.0868zm-0.275 3.3148-10.886 9.8219 0.52 0.5764 10.886-9.8219-0.5201-0.5764zm-10.25 10.013-1.8032-6.9874-0.7517 0.194 1.8032 6.9874 0.7517-0.194zm-1.7909-6.8904v-12.476h-0.7763v12.476h0.7763zm0-12.476v-2.1581h-0.7763v2.1581h0.7763zm-0.5906-2.4894-2.1077 1.2879 0.4048 0.6625 2.1077-1.2879-0.4048-0.6625zm-2.1077 1.2879-4.9046 2.9969 0.4048 0.6624 4.9046-2.9968-0.4048-0.6625zm-5.0396 3.52 4.2742 7.5147 0.6748-0.3838-4.2742-7.5147-0.6748 0.3838zm4.6116 6.9346h-5.7262v0.7764h5.7262v-0.7764zm-5.7262 0h-2.4215v0.7764h2.4215v-0.7764zm-2.0395 0.3192-0.681-3.7678-0.764 0.1381 0.681 3.7678 0.764-0.1381zm-0.681-3.7678-1.8568-10.273-0.764 0.1381 1.8568 10.273 0.764-0.1381zm-2.5404-10.448-3.7399 4.6143 0.6031 0.4889 3.74-4.6143-0.6032-0.4889zm-3.7721 5.057 1.1354 1.9116 0.6675-0.3964-1.1354-1.9117-0.6675 0.3965zm1.33 1.351-3.6063 1.3843 0.2782 0.7248 3.6063-1.3843-0.2782-0.7248zm-3.8472 1.8262 0.7163 3.4216 0.7598-0.159-0.7162-3.4217-0.7599 0.1591zm0.7163 3.4216 0.9533 4.5546 0.7599-0.1591-0.9534-4.5545-0.7598 0.159zm1.5893 4.7668 2.9657-2.602-0.512-0.5836-2.9657 2.602 0.512 0.5836zm2.9657-2.602 3.4324-3.0115-0.512-0.5836-3.4324 3.0115 0.512 0.5836zm3.4324-3.0115 2.0167-1.7694-0.512-0.5835-2.0167 1.7693 0.512 0.5836zm1.3798-1.9865 1.0858 5.5372 0.7618-0.1494-1.0858-5.5371-0.7618 0.1493zm1.0858 5.5372 0.1163 0.5933 0.7618-0.1494-0.1163-0.5933-0.7618 0.1494zm0.3001 0.1842-9.6169 5.669 0.3942 0.6688 9.6169-5.669-0.3942-0.6688zm-9.805 6.0512 0.2536 2.0445 0.7704-0.0955-0.2536-2.0446-0.7704 0.0956zm0.2536 2.0445 0.5478 4.4155 0.7704-0.0956-0.5478-4.4154-0.7704 0.0955zm1.0907 4.7224 3.4684-1.5426-0.3155-0.7094-3.4684 1.5426 0.3155 0.7094zm3.4684-1.5426 6.2029-2.759-0.3155-0.7093-6.2029 2.7589 0.3155 0.7094zm6.2029-2.759 1.1478-0.5105-0.3155-0.7093-1.1478 0.5105 0.3155 0.7093zm0.6049-0.817 0.601 4.812 0.7704-0.0962-0.6011-4.8121-0.7703 0.0963zm1.1129 5.1308 4.0071-1.3843-0.2535-0.7338-4.0071 1.3843 0.2535 0.7338zm4.2685-1.7512v-6.9214h-0.7763v6.9214h0.7763zm-0.3345-7.3059-6.6116-0.9228-0.1074 0.7688 6.6117 0.9229 0.1073-0.7689zm-7.0477-0.472 0.8557 4.9271 0.7649-0.1329-0.8557-4.927-0.7649 0.1328zm0.8557 4.9271 1.1478 6.6087 0.7649-0.1329-1.1478-6.6087-0.7649 0.1329zm1.5302 6.9304h7.6134v-0.7763h-7.6134v0.7763zm7.3266-0.6497-3.0053 3.296 0.5737 0.523 3.0053-3.2959-0.5737-0.5231zm-2.6704 3.1723-12.155-1.5161-0.0961 0.7704 12.155 1.5161 0.0961-0.7704zm-11.876-1.3397-1.1354-1.7798-0.6545 0.4175 1.1354 1.7798 0.6545-0.4175zm-1.4465-1.1832 6.3445-0.2637-0.0322-0.7756-6.3445 0.2636 0.0322 0.7757zm6.5542-0.9672-5.0132-3.5861-0.4517 0.6314 5.0132 3.5861 0.4517-0.6314zm-5.0132-3.5861-4.0161-2.8729-0.4517 0.6315 4.0161 2.8728 0.4517-0.6314zm-4.0161-2.8729-2.8583-2.0445-0.4516 0.6314 2.8582 2.0446 0.4517-0.6315zm-2.8329-1.4329 6.211-5.2735-0.5025-0.5918-6.2109 5.2735 0.5024 0.5918zm6.3241-5.7032-0.6406-1.7451-0.7288 0.2675 0.6406 1.7452 0.7288-0.2676zm-0.6406-1.7451-1.029-2.8033-0.7288 0.2676 1.029 2.8032 0.7288-0.2675zm-1.503-3.0419-2.8901 0.8508 0.2192 0.7448 2.8901-0.8508-0.2192-0.7448zm-2.8901 0.8508-4.7233 1.3905 0.2192 0.7447 4.7233-1.3904-0.2192-0.7448zm33.028-18.205h19.5v-0.77634h-19.5v0.77634zm-37.641 19.58h-14.359v0.7763h14.359v-0.7763zm57.158-19.58c3.3242-0.011 5.7988 0.35539 7.5897 0.94105 1.7921 0.58605 2.8749 1.383 3.4568 2.2164l0.6365-0.4445c-0.7087-1.0149-1.9588-1.8907-3.852-2.5098-1.8944-0.61952-4.4575-0.99068-7.8336-0.9795l0.0026 0.77634zm11.046 3.1575c0.6327 0.906 0.7048 1.8992 0.394 2.8305l0.7364 0.2458c0.38-1.1387 0.2941-2.3924-0.4939-3.5208l-0.6365 0.4445zm0.394 2.8305c-0.0895 0.268-0.3902 0.7049-0.8005 1.0383-0.4175 0.3393-0.8302 0.479-1.1521 0.381l-0.226 0.7427c0.6966 0.2121 1.3823-0.1268 1.8677-0.5212 0.4927-0.4004 0.8996-0.9524 1.0473-1.395l-0.7364-0.2458zm-2.0008-1.6581c0.4927-0.5217 1.1883-0.8684 1.9935-1.0126l-0.1368-0.7642c-0.9379 0.1679-1.7945 0.5802-2.4212 1.2438l0.5645 0.533zm1.9935-1.0126c1.5294-0.2738 3.401 0.195 4.8271 1.493l0.5225-0.5742c-1.6007-1.457-3.7148-2.0001-5.4864-1.683l0.1368 0.7642zm4.8271 1.493c0.2766 0.2517 0.5364 0.5346 0.7736 0.8493l0.6199-0.4673c-0.2666-0.3537-0.5591-0.6723-0.871-0.9562l-0.5225 0.5742zm0.7736 0.8493c1.0187 1.3514 0.7978 3.1193-0.262 4.2387l0.5638 0.5338c1.2969-1.3699 1.585-3.5592 0.3181-5.2398l-0.6199 0.4673zm-0.262 4.2387c-0.5468 0.5777-1.2843 0.9056-1.8632 0.8522-0.277-0.0255-0.52-0.1367-0.7128-0.3559-0.1974-0.2244-0.3667-0.5906-0.4324-1.1645l-0.7713 0.0882c0.078 0.6814 0.2898 1.2128 0.6208 1.5891 0.3357 0.3816 0.7684 0.5742 1.2244 0.6162 0.8869 0.0818 1.8437-0.4001 2.4983-1.0915l-0.5638-0.5338zm-3.0084-0.6682c-0.2167-1.8938 1.139-3.7268 2.8867-4.3407l-0.2573-0.7324c-2.034 0.7144-3.665 2.8521-3.4007 5.1613l0.7713-0.0882zm2.8867-4.3407c0.3683-0.1293 0.7501-0.2026 1.1336-0.2112l-0.0172-0.7761c-0.4712 0.0105-0.9338 0.1003-1.3737 0.2549l0.2573 0.7324zm1.1336-0.2112c0.7118-0.0158 1.5109 0.177 2.1528 0.6684 0.6315 0.4836 1.1432 1.2802 1.2551 2.5427l0.7733-0.0686c-0.1295-1.4604-0.7377-2.4636-1.5565-3.0905-0.8085-0.619-1.7902-0.8471-2.6419-0.8281l0.0172 0.7761zm3.4079 3.2111c0.0495 0.5576-0.0993 1.2224-0.3343 1.9787-0.2243 0.722-0.5412 1.5642-0.7474 2.336l0.75 0.2004c0.2042-0.7644 0.4906-1.5072 0.7388-2.306 0.2375-0.7645 0.4302-1.5562 0.3662-2.2777l-0.7733 0.0686zm-1.0817 4.3147c-0.2562 0.9592-0.3953 1.9789 0.0013 2.8728l0.7096-0.3148c-0.2823-0.6363-0.2087-1.4298 0.0391-2.3576l-0.75-0.2004zm0.0013 2.8728c0.2281 0.5142 0.5727 0.8545 0.9867 1.0024 0.4108 0.1467 0.8364 0.0845 1.1882-0.1022 0.6964-0.3697 1.1682-1.2629 0.8133-2.224l-0.7282 0.269c0.2084 0.5644-0.0649 1.0653-0.4491 1.2692-0.1885 0.1001-0.3872 0.1197-0.563 0.0569-0.1726-0.0617-0.3768-0.2221-0.5383-0.5861l-0.7096 0.3148zm2.9882-1.3238c-0.4254-1.1522-1.4611-1.7384-2.581-1.8355l-0.067 0.7734c0.898 0.0779 1.623 0.5273 1.9198 1.3311l0.7282-0.269zm-2.581-1.8355c-1.7963-0.1558-3.9582 0.9258-4.664 3.12l0.7391 0.2377c0.5813-1.8073 2.3762-2.7127 3.8579-2.5843l0.067-0.7734zm-4.664 3.12c-0.542 1.685 0.3093 3.4384 1.2877 4.5031l0.5717-0.5253c-0.8893-0.9677-1.5395-2.4367-1.1203-3.7401l-0.7391-0.2377zm1.2877 4.5031c0.5451 0.593 1.2009 1.0528 1.7843 1.1435l0.1192-0.7672c-0.3244-0.0504-0.8302-0.3558-1.3318-0.9016l-0.5717 0.5253zm1.7843 1.1435c0.6626 0.1029 1.16-0.2198 1.4479-0.6215 0.1418-0.1978 0.2384-0.4202 0.2881-0.6354 0.0484-0.21 0.0586-0.4427-0.0067-0.6508l-0.7407 0.2327c0.0113 0.0359 0.0193 0.1202-0.0091 0.2436-0.0273 0.1181-0.0823 0.2455-0.1626 0.3576-0.1563 0.218-0.3852 0.3552-0.6977 0.3066l-0.1192 0.7672zm1.7293-1.9077c-0.2176-0.6925-0.8966-0.9624-1.5134-0.9605-0.626 0.0019-1.3232 0.27-1.7828 0.8081l0.5904 0.5041c0.2954-0.3459 0.7673-0.5346 1.1948-0.5359 0.4367-0.0013 0.6956 0.1791 0.7703 0.4169l0.7407-0.2327zm-3.2962-0.1524c-0.1335 0.1562-0.2306 0.3351-0.2976 0.5247l0.7321 0.2584c0.0394-0.1117 0.0921-0.2043 0.1559-0.279l-0.5904-0.5041zm-0.2976 0.5247c-0.2916 0.8259-0.0396 1.9277 0.4456 2.7827 0.482 0.8495 1.3025 1.6385 2.3111 1.614l-0.0188-0.7761c-0.576 0.014-1.1852-0.4598-1.6171-1.2211-0.4289-0.7558-0.5752-1.613-0.3887-2.1411l-0.7321-0.2584zm2.7567 4.3967c0.0464-0.0011 0.0926-0.0026 0.1385-0.0046l-0.034-0.7756c-0.0403 0.0017-0.0813 0.0031-0.1233 0.0041l0.0188 0.7761zm0.1385-0.0046c0.3727-0.0164 0.7493-0.0658 1.0947-0.2238 0.3564-0.1629 0.6536-0.4293 0.8862-0.8338l-0.673-0.3869c-0.1574 0.2737-0.3364 0.4234-0.5361 0.5147-0.2106 0.0964-0.4696 0.1394-0.8058 0.1542l0.034 0.7756zm1.9809-1.0576c0.2177-0.3785 0.3228-0.7388 0.2903-1.0625-0.0344-0.3418-0.2207-0.6071-0.4973-0.7512-0.5152-0.2684-1.2073-0.0726-1.6783 0.3892l0.5436 0.5543c0.3186-0.3125 0.655-0.318 0.7759-0.255 0.0414 0.0215 0.0751 0.0552 0.0836 0.1404 0.0104 0.1033-0.0185 0.2982-0.1908 0.5979l0.673 0.3869zm-1.8853-1.4245c-0.6554 0.6427-0.6989 1.4843-0.4847 2.2049l0.7442-0.2213c-0.1616-0.5433-0.1017-1.051 0.2841-1.4293l-0.5436-0.5543zm-0.4847 2.2049c0.2474 0.8318 0.8624 1.606 1.4732 1.9473l0.3787-0.6777c-0.4147-0.2317-0.9114-0.8305-1.1077-1.4909l-0.7442 0.2213zm1.4732 1.9473c0.2327 0.13 0.4792 0.1457 0.7112 0.0541 0.207-0.0817 0.373-0.2373 0.5044-0.3885 0.1351-0.1554 0.2645-0.3432 0.3883-0.5306 0.1292-0.1958 0.2492-0.3864 0.3857-0.586 0.2717-0.3972 0.5528-0.7432 0.8801-0.9551 0.3065-0.1985 0.6642-0.2871 1.1402-0.1459l0.2207-0.7444c-0.7067-0.2095-1.2979-0.0754-1.7829 0.2386-0.4642 0.3006-0.8173 0.7569-1.0988 1.1685-0.1401 0.2047-0.2765 0.4202-0.3929 0.5966-0.122 0.1847-0.2276 0.3353-0.3264 0.449-0.1025 0.1179-0.1693 0.1622-0.2035 0.1757-0.0092 0.0036-0.0124 0.0099-0.0474-0.0097l-0.3787 0.6777zm4.0099-2.552c0.8353 0.2476 1.5644 1.1112 1.8279 2.347l0.7596-0.1619c-0.3032-1.4203-1.1779-2.577-2.3668-2.9295l-0.2207 0.7444zm1.8279 2.347c0.209 0.98 0.114 2.1636-0.4504 3.3611l0.7022 0.331c0.6348-1.3469 0.7528-2.7033 0.5078-3.854l-0.7596 0.1619zm-0.4504 3.3611c-0.4108 0.8715-1.0722 1.1937-1.5553 1.1632-0.2412-0.0153-0.4517-0.1155-0.605-0.2926-0.154-0.1779-0.2728-0.4604-0.2744-0.8747l-0.7763 3e-3c0.0022 0.5636 0.1664 1.0364 0.4638 1.3798 0.298 0.3443 0.7072 0.5317 1.143 0.5593 0.8708 0.055 1.7926-0.5168 2.3064-1.607l-0.7022-0.331zm-2.4347-0.0041c-8e-3 -2.0899 1.6625-3.4637 3.1647-3.0629l0.2001-0.7501c-2.1411-0.5713-4.1505 1.3756-4.1411 3.816l0.7763-3e-3zm3.1647-3.0629c0.482 0.1285 0.984 0.4403 1.451 1.0095l0.6-0.4921c-0.553-0.6756-1.19-1.0911-1.8509-1.2675l-0.2001 0.7501zm1.451 1.0095c0.271 0.331 0.427 0.833 0.472 1.4696 0.045 0.6306-0.022 1.3496-0.151 2.069-0.258 1.4429-0.757 2.8175-1.029 3.3626l0.694 0.3471c0.309-0.619 0.829-2.0657 1.1-3.5726 0.135-0.7555 0.211-1.5436 0.16-2.2611-0.05-0.7114-0.229-1.3986-0.646-1.9067l-0.6 0.4921zm-0.708 6.9012c-0.063 0.126-0.221 0.3473-0.4561 0.5847-0.2317 0.234-0.5171 0.4615-0.8205 0.6158-0.3043 0.1547-0.602 0.2238-0.8749 0.1827-0.2622-0.0395-0.5526-0.1881-0.8403-0.5698l-0.62 0.4673c0.3896 0.5168 0.8503 0.7957 1.3446 0.8702 0.4836 0.0728 0.9478-0.0576 1.3426-0.2584 0.3957-0.2013 0.7466-0.4854 1.0206-0.7615 0.27-0.2728 0.486-0.5602 0.598-0.7839l-0.694-0.3471zm-2.9918 0.8134c-0.3145-0.4171-0.6405-0.6963-0.9806-0.8811-0.3393-0.1843-0.6728-0.2639-0.9842-0.3071-0.1541-0.0213-0.3057-0.0341-0.4473-0.0454-0.1448-0.0116-0.2774-0.0215-0.4096-0.037-0.2608-0.0307-0.4949-0.0809-0.7217-0.1907l-0.3384 0.6987c0.3359 0.1627 0.6655 0.2273 0.9695 0.263 0.1502 0.0177 0.3003 0.0288 0.4384 0.0399 0.1413 0.0112 0.2729 0.0226 0.4024 0.0405 0.2557 0.0355 0.4903 0.0953 0.7203 0.2203 0.2293 0.1246 0.4738 0.3247 0.7312 0.6662l0.62-0.4673zm-3.5434-1.4613c-0.3915-0.1896-0.6856-0.5245-0.9519-0.9878-0.2718-0.4731-0.4847-1.0222-0.7533-1.6331-0.5222-1.1871-1.219-2.517-2.8579-3.1055l-0.2623 0.7306c1.3113 0.4709 1.8967 1.5216 2.4095 2.6875 0.2488 0.5656 0.4915 1.1861 0.7909 1.7073 0.305 0.5308 0.6979 1.0146 1.2866 1.2997l0.3384-0.6987zm-4.5631-5.7264c-0.9512-0.3416-2.0551-0.0074-2.8481 0.7165-0.8059 0.7357-1.3311 1.9025-1.1283 3.3041l0.7684-0.1112c-0.1643-1.1348 0.2583-2.049 0.8833-2.6196 0.6379-0.5823 1.4481-0.7798 2.0624-0.5592l0.2623-0.7306zm-3.9764 4.0206c0.017 0.117 0.044 0.2408 0.0807 0.3681l0.746-0.2149c-0.0279-0.0967-0.0469-0.1858-0.0583-0.2644l-0.7684 0.1112zm0.0807 0.3681c0.2454 0.8519 0.9873 2.0418 2.3983 2.3245l0.1525-0.7612c-1.0214-0.2047-1.6048-1.0841-1.8048-1.7782l-0.746 0.2149zm2.3983 2.3245c0.4988 0.1 0.9313-0.038 1.2402-0.3301 0.2975-0.2811 0.4549-0.6794 0.4838-1.0741 0.029-0.3967-0.069-0.8233-0.3256-1.1722-0.2624-0.3566-0.6733-0.6078-1.216-0.6679l-0.0855 0.7716c0.3374 0.0374 0.5483 0.1826 0.6761 0.3563 0.1335 0.1815 0.194 0.4191 0.1767 0.6556-0.0174 0.2384-0.1111 0.4421-0.2428 0.5666-0.1202 0.1136-0.2948 0.185-0.5544 0.133l-0.1525 0.7612zm0.1824-3.2443c-1.0143-0.1123-1.7887 0.0992-2.411 0.4816l0.4065 0.6615c0.4695-0.2886 1.0698-0.4655 1.919-0.3715l0.0855-0.7716zm-2.411 0.4816c-0.645 0.3964-1.1028 0.9637-1.4844 1.4484l0.61 0.4802c0.3858-0.49 0.7679-0.9519 1.2809-1.2671l-0.4065-0.6615zm-1.4844 1.4484c-0.5664 0.7193-0.9782 1.7232-1.2877 2.7094-0.3116 0.9933-0.5311 2.0087-0.6948 2.7698l0.7589 0.1633c0.1644-0.7639 0.3772-1.7462 0.6767-2.7007 0.3017-0.9616 0.6798-1.8556 1.1569-2.4616l-0.61-0.4802zm-1.9825 5.4792c-0.0316 0.1466-0.129 0.4255-0.2798 0.7137-0.1532 0.2928-0.335 0.5435-0.5122 0.6773-0.0847 0.0641-0.1498 0.0871-0.1953 0.0919-0.038 0.0041-0.0896-1e-3 -0.1648-0.0508-0.1759-0.1164-0.4389-0.4513-0.7221-1.2496l-0.7317 0.2596c0.2943 0.8296 0.6273 1.3741 1.0255 1.6375 0.2118 0.1402 0.4419 0.2001 0.675 0.1754 0.2255-0.024 0.4211-0.1234 0.5814-0.2446 0.3131-0.2365 0.5594-0.6068 0.7321-0.9367 0.175-0.3345 0.3013-0.6799 0.3508-0.9104l-0.7589-0.1633zm-1.8742 0.1825c-0.8478-2.3895-2.1264-3.2036-2.8324-3.9281-0.3383-0.3471-0.5385-0.6587-0.5794-1.1336-0.0436-0.5058 0.0896-1.2403 0.5578-2.4317l-0.7226-0.2839c-0.4804 1.2225-0.6681 2.0939-0.6087 2.7822 0.062 0.7192 0.3885 1.1898 0.7969 1.6089 0.7874 0.808 1.8822 1.4626 2.6567 3.6458l0.7317-0.2596zm-2.854-7.4934c0.2155-0.5484 0.772-1.4481 1.5815-2.1366l-0.503-0.5914c-0.9123 0.7759-1.5414 1.7835-1.8011 2.4441l0.7226 0.2839zm1.5815-2.1366c0.1685-0.1433 0.3467-0.2764 0.5337-0.3948l-0.4153-0.6559c-0.2206 0.1397-0.428 0.2948-0.6214 0.4593l0.503 0.5914zm0.5337-0.3948c0.8018-0.5075 1.7637-0.7472 2.8546-0.3634l0.2576-0.7324c-1.3607-0.4787-2.5697-0.1664-3.5275 0.4399l0.4153 0.6559zm2.8546-0.3634c0.6138 0.2159 1.2648 0.0915 1.8671-0.198 0.6037-0.2902 1.1984-0.7639 1.7379-1.3206 1.0758-1.1103 1.9992-2.6218 2.3679-3.8929l-0.7456-0.2163c-0.3274 1.1288-1.1759 2.5329-2.1798 3.569-0.5005 0.5164-1.0225 0.9235-1.5167 1.1611-0.4955 0.2381-0.9232 0.2884-1.2732 0.1653l-0.2576 0.7324zm5.9729-5.4115c0.3513-1.211 0.3647-2.2355 0.1162-3.0742-0.2496-0.8428-0.7561-1.4713-1.394-1.8942l-0.429 0.6471c0.4942 0.3276 0.8835 0.8089 1.0787 1.4676 0.1963 0.6628 0.2034 1.5314-0.1175 2.6374l0.7456 0.2163zm-1.2778-4.9684c-0.8712-0.5775-1.9727-0.764-2.9947-0.6317l0.0997 0.7699c0.8722-0.1129 1.778 0.0527 2.466 0.5089l0.429-0.6471zm-2.9947-0.6317c-2.1064 0.2728-3.3992 1.2086-3.9781 2.3673-0.5733 1.1476-0.4105 2.4533 0.2772 3.3656l0.6199-0.4674c-0.5122-0.6794-0.6428-1.67-0.2026-2.5513 0.4347-0.8701 1.4622-1.6955 3.3833-1.9443l-0.0997-0.7699zm-3.7009 5.7329c0.4295 0.5698 0.9932 0.8355 1.6004 0.8681 0.5897 0.0316 1.1966-0.1567 1.7506-0.4415 1.1024-0.5667 2.1277-1.5845 2.6014-2.4303l-0.6773-0.3794c-0.3953 0.7058-1.3052 1.6186-2.279 2.1192-0.4842 0.2489-0.9507 0.3784-1.3541 0.3568-0.3859-0.0207-0.7349-0.1793-1.0221-0.5603l-0.6199 0.4674zm5.9524-2.0037c0.3173-0.5666 0.696-1.5502 0.9103-2.703l-0.7632-0.1419c-0.2011 1.081-0.5539 1.9825-0.8244 2.4655l0.6773 0.3794zm0.9103-2.703c0.2493-1.3405 0.285-2.9559-0.299-4.4357-0.5908-1.4973-1.8022-2.8179-3.966-3.5647l-0.2533 0.7338c1.9573 0.6756 2.9925 1.8371 3.4972 3.1159 0.5116 1.2964 0.4918 2.751 0.2579 4.0088l0.7632 0.1419zm-4.265-8.0004c-2.1296-0.7351-4.112-0.2803-5.6826 0.5077l0.3482 0.6939c1.4463-0.7256 3.2068-1.1147 5.0811-0.4678l0.2533-0.7338zm-5.6826 0.5077c-1.8327 0.9195-3.1496 2.3131-3.5766 2.9117l0.6321 0.4509c0.3621-0.5077 1.5855-1.8122 3.2927-2.6687l-0.3482-0.6939zm-3.5766 2.9117c-0.4512 0.6326-0.7005 1.3435-0.7497 1.993-0.0484 0.6387 0.0952 1.2772 0.5102 1.6924 0.4411 0.4412 1.0892 0.5359 1.8237 0.2677 0.7195-0.2628 1.5652-0.882 2.5297-1.9401l-0.5738-0.523c-0.9265 1.0165-1.6714 1.5327-2.2222 1.7338-0.536 0.1958-0.8383 0.0829-1.0083-0.0872-0.196-0.1961-0.324-0.5726-0.2852-1.085 0.038-0.5015 0.2347-1.0778 0.6077-1.6007l-0.6321-0.4509zm4.1139 2.013c1.2768-1.4006 1.421-3.6215-0.1176-4.8784l-0.4912 0.6013c1.1103 0.9069 1.0898 2.597 0.035 3.7541l0.5738 0.523zm-0.1176-4.8784c-0.8673-0.7084-2.2056-1.0449-4.0114-0.793l0.1073 0.7689c1.6695-0.2329 2.7656 0.0966 3.4129 0.6254l0.4912-0.6013zm-4.0114-0.793c-0.7652 0.1068-3.6102 0.5415-5.1167 2.9396l0.6574 0.413c1.2994-2.0684 3.7966-2.4763 4.5666-2.5837l-0.1073-0.7689zm-5.1167 2.9396c-0.0492 0.0784-0.097 0.1588-0.1432 0.2413l0.6775 0.3791c0.0397-0.071 0.0808-0.1401 0.1231-0.2074l-0.6574-0.413zm-0.1432 0.2413c-0.7222 1.2905-1.6168 2.3701-2.4083 3.3545-0.7704 0.9581-1.4873 1.8735-1.7274 2.7775l0.7503 0.1993c0.1893-0.7128 0.7808-1.4938 1.5821-2.4903 0.7801-0.9702 1.7205-2.1033 2.4808-3.4619l-0.6775-0.3791zm-4.1357 6.132c-0.4889 1.8409 0.6716 3.3389 2.2227 3.8212 1.571 0.4885 3.5478-0.0395 4.8169-2.1213l-0.6628-0.4041c-1.0912 1.7899-2.7058 2.1627-3.9236 1.7841-1.2378-0.3849-2.0637-1.5219-1.7029-2.8806l-0.7503-0.1993zm7.0396 1.6999c1.0659-1.7484 1.2283-3.1799 0.9399-4.3676-0.2835-1.167-0.9915-2.0423-1.5356-2.6932l-0.5956 0.498c0.545 0.6519 1.1403 1.4047 1.3767 2.3784 0.2315 0.953 0.1304 2.1749-0.8482 3.7803l0.6628 0.4041zm-0.5957-7.0608c-0.4894-0.5853-1.0792-0.9707-1.7177-1.1755l-0.2372 0.7392c0.4963 0.1592 0.9626 0.4598 1.3593 0.9343l0.5956-0.498zm-1.7177-1.1755c-1.6106-0.5168-3.4448 0.1308-4.7197 1.3781-1.2865 1.2585-2.0626 3.1797-1.5101 5.2976l0.7512-0.196c-0.4717-1.8081 0.1829-3.4521 1.3018-4.5467 1.1304-1.1058 2.676-1.5992 3.9396-1.1938l0.2372-0.7392zm-6.2298 6.6757c0.4504 1.7266 1.2242 2.9265 2.1907 3.7026 0.9661 0.7757 2.0941 1.1036 3.2105 1.1397 2.2069 0.0715 4.4358-0.995 5.4726-2.1167l-0.57-0.527c-0.8808 0.9528-2.891 1.9321-4.8775 1.8678-0.9803-0.0318-1.9376-0.3172-2.7495-0.9692-0.8115-0.6516-1.5085-1.694-1.9256-3.2932l-0.7512 0.196zm10.874 2.7256c0.2314-0.2503 0.4741-0.5965 0.716-0.9641 0.2297-0.3492 0.5159-0.8077 0.76-1.1811 0.2608-0.399 0.522-0.7778 0.7804-1.0917 0.2626-0.3191 0.5002-0.5435 0.7072-0.6607l-0.3826-0.6755c-0.3319 0.188-0.6421 0.5003-0.924 0.8428-0.2861 0.3476-0.566 0.7551-0.8309 1.1604-0.2816 0.4309-0.5058 0.7947-0.7587 1.1791-0.2408 0.366-0.4533 0.6647-0.6374 0.8638l0.57 0.527zm2.9636-3.8976c0.2964-0.1678 0.4958-0.1482 0.6096-0.0962 0.1192 0.0547 0.2302 0.1837 0.2736 0.3988l0.761-0.1534c-0.0821-0.4075-0.3226-0.7732-0.7115-0.9512-0.3943-0.1806-0.8597-0.1315-1.3153 0.1265l0.3826 0.6755zm0.8832 0.3026c0.0106 0.0528-0.0061 0.1799-0.141 0.4505-0.1311 0.2628-0.3048 0.5368-0.5104 0.9047-0.3873 0.693-0.817 1.6023-0.6889 2.6508l0.7706-0.0942c-0.096-0.7859 0.2204-1.5059 0.596-2.1778 0.1758-0.3146 0.3878-0.657 0.5275-0.937 0.1357-0.2723 0.2749-0.6146 0.2072-0.9504l-0.761 0.1534zm-1.3403 4.006c0.0463 0.3791 0.2863 0.6575 0.5355 0.8608 0.2501 0.204 0.5647 0.3765 0.8535 0.5293 0.3026 0.1601 0.58 0.3001 0.8137 0.4541 0.2374 0.1564 0.3708 0.291 0.4275 0.4093l0.7-0.3357c-0.1502-0.3133-0.4303-0.5439-0.7004-0.7219-0.2738-0.1804-0.5978-0.3439-0.8778-0.4921-0.2939-0.1554-0.5433-0.2957-0.7258-0.4446-0.1833-0.1495-0.2446-0.264-0.2556-0.3534l-0.7706 0.0942zm2.6302 2.2535c0.0431 0.0898 0.0537 0.2027 0.0166 0.3757-0.0391 0.1822-0.1182 0.3786-0.2165 0.631-0.1798 0.4619-0.4308 1.1113-0.17 1.7922l0.725-0.2777c-0.1396-0.3643-0.0243-0.7377 0.1685-1.2328 0.088-0.2262 0.1968-0.4919 0.2521-0.7499 0.0573-0.2673 0.0689-0.5728-0.0757-0.8742l-0.7 0.3357zm-0.3699 2.7989c0.0491 0.1284 0.1329 0.2664 0.2243 0.4 0.0947 0.1385 0.2127 0.2939 0.3454 0.4607l0.6076-0.4833c-0.1277-0.1605-0.2327-0.2993-0.3122-0.4156-0.0828-0.121-0.1244-0.1984-0.1401-0.2395l-0.725 0.2777zm0.5697 0.8607c0.6056 0.7615 1.5255 1.7806 2.3316 2.8835 0.3977 0.5443 0.7521 1.0891 1.0067 1.6026 0.2571 0.5186 0.3969 0.9745 0.4 1.3481l0.7763-0.0065c-0.0045-0.5435-0.2013-1.1227-0.4808-1.6865-0.2821-0.5689-0.6647-1.1537-1.0755-1.7158-0.811-1.1097-1.7948-2.2097-2.3507-2.9087l-0.6076 0.4833zm3.7383 5.8342c-2e-4 -0.0229 0.0041-0.0147-0.0153 0.0418-0.0169 0.0494-0.0448 0.1156-0.0856 0.1989-0.0812 0.1661-0.2014 0.3756-0.3505 0.612-0.2975 0.4717-0.694 1.0259-1.0813 1.512-0.3945 0.4952-0.7545 0.8878-0.9799 1.062-0.0551 0.0425-0.0847 0.058-0.0916 0.0609-0.0223 0.0096 0.0667-0.0388 0.1889 0.015 0.1516 0.0666 0.1724 0.2019 0.1734 0.2101 0.0013 0.0105-0.0026-0.0136 0.0145-0.0946l-0.7598-0.1597c-0.0235 0.1121-0.0395 0.2346-0.0251 0.3501 0.0141 0.1131 0.0731 0.3117 0.2845 0.4047 0.1821 0.0801 0.3526 0.021 0.4301-0.0123 0.093-0.0399 0.1816-0.0996 0.2596-0.1598 0.3067-0.2368 0.7169-0.6961 1.1126-1.1927 0.4029-0.5056 0.8164-1.0831 1.1308-1.5816 0.1568-0.2488 0.293-0.4842 0.3912-0.6849 0.049-0.1002 0.0916-0.1979 0.1226-0.2883 0.0285-0.0832 0.0581-0.1906 0.0572-0.3001l-0.7763 0.0065zm-2.2274 3.6181c0.1111-0.5289 0.2754-1.0014 0.4455-1.4763 0.1677-0.4683 0.3451-0.949 0.4591-1.4575 0.2354-1.0499 0.197-2.1966-0.5682-3.7743l-0.6985 0.3388c0.692 1.4268 0.7044 2.3947 0.5091 3.2656-0.1013 0.4519-0.2596 0.8832-0.4324 1.3656-0.1703 0.4757-0.3512 0.9924-0.4744 1.5784l0.7598 0.1597zm0.3364-6.7081c-0.348-0.7174-0.9583-1.7722-1.8232-2.8076l-0.5958 0.4976c0.8169 0.9781 1.3947 1.977 1.7205 2.6488l0.6985-0.3388zm-1.8232-2.8076c-0.9573-1.1461-2.2439-2.2894-3.8519-2.9076-1.6204-0.6229-3.5402-0.7017-5.7228 0.2427l0.3083 0.7125c1.9969-0.864 3.706-0.7803 5.1359-0.2305 1.4423 0.5545 2.6273 1.5942 3.5347 2.6805l0.5958-0.4976zm2.9777-20.315c-0.6168-0.1878-0.9526-0.5688-1.0125-1.0315-0.0631-0.4869 0.1602-1.1944 0.9643-2.0459l-0.5645-0.533c-0.8829 0.935-1.2751 1.8646-1.1697 2.6786 0.1085 0.838 0.725 1.4214 1.5564 1.6745l0.226-0.7427zm-12.552 17.65c-1.6986 0.735-2.5486 2.2233-2.6899 4.0025-0.1401 1.7629 0.4085 3.826 1.4951 5.8233 2.1739 3.9959 6.5729 7.8574 12.338 8.6679l0.108-0.7688c-5.4817-0.7706-9.6872-4.4518-11.764-8.2701-1.0391-1.9099-1.5278-3.8219-1.4031-5.3908 0.1233-1.5525 0.8402-2.7526 2.2243-3.3515l-0.3083-0.7125zm11.144 18.494c4.5092 0.6339 7.4685 0.2534 9.4431-0.6365l-0.319-0.7078c-1.788 0.8058-4.5814 1.1989-9.0161 0.5755l-0.108 0.7688zm9.4431-0.6365c2.2421-1.0104 3.1572-2.6508 3.6327-4.047l-0.7349-0.2503c-0.4308 1.265-1.2309 2.6945-3.2168 3.5895l0.319 0.7078zm3.6327-4.047c0.526-1.5447-0.0575-2.9016-1.073-3.4938-0.5052-0.2946-1.1117-0.393-1.708-0.2189-0.5974 0.1743-1.1469 0.6106-1.5657 1.3168l0.6677 0.3961c0.3374-0.569 0.7399-0.8581 1.1155-0.9677 0.3768-0.11 0.7643-0.0511 1.0994 0.1443 0.6653 0.388 1.1482 1.3426 0.7292 2.5729l0.7349 0.2503zm-4.3467-2.3959c-0.3897 0.6569-0.7204 1.7673-0.7659 2.9303-0.0455 1.1637 0.1924 2.4546 1.0277 3.4137l0.5854-0.5099c-0.6553-0.7524-0.8787-1.8153-0.8373-2.8735 0.0413-1.0587 0.3455-2.0381 0.6578-2.5645l-0.6677-0.3961zm0.2618 6.344c0.5583 0.641 1.3616 1.107 2.4562 1.293l0.13-0.7654c-0.936-0.159-1.5717-0.5449-2.0008-1.0375l-0.5854 0.5099zm2.4562 1.293c2.6121 0.4437 4.7073 1.1652 6.1648 2.0907 1.457 0.925 2.2337 2.0226 2.3267 3.2216l0.774-0.0603c-0.119-1.5296-1.108-2.8158-2.6846-3.8167-1.5759-1.0006-3.7814-1.7473-6.4509-2.2007l-0.13 0.7654zm8.4915 5.3123c0.162 2.0783-0.461 3.6389-1.7489 4.7476-1.3068 1.1254-3.3435 1.8254-6.0775 2.056l0.0653 0.7736c2.8126-0.2373 5.0366-0.9648 6.5188-2.2413 1.5013-1.2931 2.1953-3.1089 2.0163-5.3962l-0.774 0.0603z" fill="#111010"/>
</svg>
