<svg width="267" height="42" viewBox="0 0 267 42" fill="none" xmlns="http://www.w3.org/2000/svg">
<g opacity="0.5">
<path d="M103.064 3.02694H81.969V5.05202H103.064V3.02694Z" fill="#26B7A6"/>
<path d="M191.056 18.7222H212.151V20.7473H191.056V18.7222Z" fill="#26B7A6"/>
<path d="M75.9438 37.4445H54.8489V39.4696H75.9438V37.4445Z" fill="#26B7A6"/>
<path d="M150.676 3.02694H143.443V5.05202H150.676V3.02694Z" fill="#26B7A6"/>
<path d="M143.45 18.7222H150.682V20.7473H143.45V18.7222Z" fill="#26B7A6"/>
<path d="M123.55 37.4445H116.318V39.4696H123.55V37.4445Z" fill="#26B7A6"/>
<path d="M180.813 6.56898V1H232.647V6.56898H180.813Z" fill="#26B7A6"/>
<path d="M113.312 22.2598V16.6908H61.4789V22.2598H113.312Z" fill="#26B7A6"/>
<path d="M153.688 41V35.431H205.521V41H153.688Z" fill="#26B7A6"/>
<path d="M120.546 6.56898V1H133.806V6.56898H120.546Z" fill="#26B7A6"/>
<path d="M173.585 22.2598V16.6908H160.325V22.2598H173.585Z" fill="#26B7A6"/>
<path d="M93.4257 41V35.431H106.685V41H93.4257Z" fill="#26B7A6"/>
<path d="M27.1207 4.04095H72.324M267 19.7312H221.797M0 38.4669H45.2033M166.944 4.04041H173.574M127.171 19.7312H120.541M139.829 38.4669H146.459M81.969 3.02694H103.064V5.05202H81.969V3.02694ZM212.151 18.7222H191.056V20.7473H212.151V18.7222ZM54.8489 37.4445H75.9438V39.4696H54.8489V37.4445ZM143.443 3.02694H150.676V5.05202H143.443V3.02694ZM150.682 18.7222H143.45V20.7473H150.682V18.7222ZM116.318 37.4445H123.55V39.4696H116.318V37.4445ZM180.813 1V6.56898H232.647V1H180.813ZM113.312 16.6908V22.2598H61.4789V16.6908H113.312ZM153.688 35.431V41H205.521V35.431H153.688ZM120.546 1V6.56898H133.806V1H120.546ZM173.585 16.6908V22.2598H160.325V16.6908H173.585ZM93.4257 35.431V41H106.685V35.431H93.4257Z" stroke="#26B7A6"/>
</g>
</svg>
