<svg width="257" height="40" viewBox="0 0 257 40" fill="none" xmlns="http://www.w3.org/2000/svg">
<g opacity="0.5">
<path d="M93.2065 19.3019C94.3585 19.3019 95.526 19.721 96.6455 19.721C95.9127 19.721 92.2681 20.1906 91.5394 20.3886C90.8202 20.5842 90.0787 20.5589 89.3661 20.8389C88.0027 21.3745 86.4755 21.1416 85.075 21.4676C83.6812 21.7921 82.2229 21.6772 80.8087 21.6772H74.1405C73.6488 21.9292 72.4817 22.0964 71.4053 22.0964C69.6587 22.0964 67.9615 22.697 66.2004 22.6552C64.0189 22.6035 61.8233 22.3758 59.6434 22.3758C57.7576 22.3758 56.0108 21.5375 54.1113 21.5375C51.2845 21.5375 48.5084 22.5155 45.6835 22.5155C43.7434 22.5155 41.8822 23.4595 39.96 23.4936C38.6192 23.5173 37.2972 23.4692 35.9715 23.3616C32.922 23.1143 29.8881 23.0744 26.8213 23.0744C25.5548 23.0744 24.2987 22.9347 23.0241 22.9347C22.222 22.9347 21.3937 22.8163 20.6224 22.5854C18.2556 21.8769 15.7861 21.8169 13.3492 21.8169H5.14979C4.10489 21.8169 3.04934 21.6772 2.01947 21.6772C1.51946 21.6772 0.607086 21.3648 1.18594 20.637C1.29983 20.4938 1.98751 20.2872 2.14912 20.28C2.60546 20.2595 3.06337 20.2968 3.5198 20.28C4.37886 20.2482 5.25035 19.7761 6.12532 19.7211C7.48423 19.6356 9.06458 19.0021 10.4102 19.3097C11.4912 19.5567 12.5893 19.3436 13.6826 19.4494C14.4277 19.5214 15.1399 19.5813 15.8929 19.5813C16.9718 19.5813 18.2909 19.3244 19.3505 19.6124C20.6767 19.9729 22.0629 20.1519 23.4131 20.2877C24.0843 20.3552 24.7688 20.5293 25.4383 20.5594C25.8722 20.5789 26.2761 20.8103 26.6855 20.8388C27.8302 20.9188 28.9706 21.3583 30.1307 21.3977C30.8422 21.4219 31.5214 21.6772 32.2423 21.6772H33.6932C35.3732 21.6772 37.0881 21.8169 38.7869 21.8169C39.5363 21.8169 40.4429 21.959 41.1331 21.5685C41.9137 21.1269 43.1413 21.3089 43.6616 21.1702C44.3489 20.8029 46.0352 21.1875 47.0542 21.1183C47.4058 21.0944 47.7425 20.9786 48.0915 20.9786C49.2504 20.9786 50.3973 20.9129 51.5458 20.8471L51.6911 20.8388C53.7397 20.7218 55.8017 20.6991 57.8529 20.6991C58.0453 20.6991 58.1892 20.5457 58.3592 20.4507C58.6021 20.315 59.0174 20.4197 59.273 20.4197C60.0584 20.4197 60.828 20.5594 61.6069 20.5594C62.8328 20.5594 64.0667 20.6991 65.3052 20.6991C66.3849 20.6991 67.3319 20.9945 68.38 21.258C69.389 21.5117 70.3069 21.258 71.3004 21.258C72.5796 21.258 74.057 21.4039 75.1901 20.4973C75.6091 20.1621 76.5706 20.4197 77.03 20.4197H87.2052C88.3643 20.4197 89.4448 19.8996 90.5886 19.8608C91.4748 19.8307 92.3171 19.3019 93.2065 19.3019Z" fill="#3C8BD5"/>
<path d="M138.017 36.3717C135.965 36.3717 134.128 36.9671 132.098 36.9671C130.097 36.9671 141.856 37.5453 143.7 38.5215C145.804 39.6354 148.862 38.4554 151.053 38.4554C156.124 38.4554 159.583 37.5624 164.666 37.5624C168.551 37.5624 173.927 38.4554 177.748 38.4554C181.106 38.4554 184.311 37.5624 187.62 37.5624C188.547 37.5624 189.444 37.6059 190.343 37.2647C191.024 37.0062 194.183 37.5354 194.784 37.1159C196.148 36.1633 199.852 36.6902 201.317 36.3552C202.193 36.1551 206.262 35.7215 207.131 35.4787C208.139 35.1972 214.08 35.3287 214.966 34.5857C212.076 34.5857 209.051 34.2881 206.101 34.2881C204.297 34.2881 202.628 33.395 200.747 33.395C198.004 33.395 195.333 33.9904 192.566 33.9904C190.168 33.9904 187.861 34.2881 185.489 34.2881C183.765 34.2881 181.618 34.9811 180.03 35.5515C178.621 36.0576 176.518 35.568 175.058 35.568C173.011 35.568 171.162 34.8834 169.165 34.8834H163.588C161.538 34.8834 159.72 35.4787 157.616 35.4787C155.851 35.4787 153.624 35.0565 151.934 35.7102C149.73 36.5629 147.073 35.1464 144.884 36.3056C144.056 36.7437 142.587 36.3717 141.7 36.3717H138.017Z" fill="#3C8BD5"/>
<path d="M163.794 20.7029C162.641 20.7029 161.474 20.2837 160.354 20.2837C161.087 20.2837 164.732 19.8142 165.461 19.6161C166.18 19.4206 166.921 19.4458 167.634 19.1659C168.997 18.6302 170.525 18.8632 171.925 18.5371C173.319 18.2126 174.777 18.3275 176.191 18.3275H182.86C183.351 18.0755 184.518 17.9084 185.595 17.9084C187.341 17.9084 189.039 17.3077 190.8 17.3495C192.981 17.4013 195.177 17.6289 197.357 17.6289C199.242 17.6289 200.989 18.4673 202.889 18.4673C205.716 18.4673 208.492 17.4892 211.316 17.4892C213.257 17.4892 215.118 16.5452 217.04 16.5112C218.381 16.4874 219.703 16.5356 221.029 16.6431C224.078 16.8905 227.112 16.9303 230.179 16.9303C231.445 16.9303 232.701 17.0701 233.976 17.0701C234.778 17.0701 235.606 17.1885 236.378 17.4194C238.744 18.1278 241.214 18.1878 243.651 18.1878H251.85C252.895 18.1878 253.951 18.3276 254.981 18.3276C255.481 18.3276 256.393 18.64 255.814 19.3677C255.7 19.5109 255.013 19.7175 254.851 19.7248C254.395 19.7453 253.937 19.7079 253.48 19.7248C252.621 19.7566 251.75 20.2287 250.875 20.2837C249.516 20.3691 247.935 21.0027 246.59 20.6951C245.509 20.448 244.411 20.6611 243.317 20.5554C242.572 20.4833 241.86 20.4234 241.107 20.4234C240.028 20.4234 238.709 20.6804 237.65 20.3924C236.323 20.0319 234.937 19.8528 233.587 19.717C232.916 19.6495 232.231 19.4754 231.562 19.4453C231.128 19.4259 230.724 19.1945 230.315 19.1659C229.17 19.0859 228.029 18.6464 226.869 18.607C226.158 18.5828 225.479 18.3276 224.758 18.3276H223.307C221.627 18.3276 219.912 18.1878 218.213 18.1878C217.464 18.1878 216.557 18.0458 215.867 18.4362C215.086 18.8779 213.859 18.6958 213.338 18.8346C212.651 19.2019 210.965 18.8172 209.946 18.8865C209.594 18.9104 209.257 19.0262 208.909 19.0262C207.75 19.0262 206.603 19.0919 205.454 19.1576L205.309 19.1659C203.26 19.283 201.198 19.3056 199.147 19.3056C198.955 19.3056 198.811 19.459 198.641 19.554C198.398 19.6897 197.983 19.5851 197.727 19.5851C196.942 19.5851 196.172 19.4454 195.393 19.4454C194.167 19.4454 192.933 19.3056 191.695 19.3056C190.615 19.3056 189.668 19.0103 188.62 18.7467C187.611 18.493 186.693 18.7467 185.7 18.7467C184.42 18.7467 182.943 18.6009 181.81 19.5075C181.391 19.8427 180.429 19.5851 179.97 19.5851H169.795C168.636 19.5851 167.555 20.1051 166.411 20.144C165.525 20.1741 164.683 20.7029 163.794 20.7029Z" fill="#3C8BD5"/>
<path d="M118.983 3.62827C121.035 3.62827 122.872 3.03294 124.902 3.03294C126.903 3.03294 115.144 2.45469 113.3 1.47845C111.196 0.364614 108.138 1.5446 105.947 1.5446C100.876 1.5446 97.417 2.43761 92.3337 2.43761C88.4491 2.43761 83.0735 1.5446 79.252 1.5446C75.8935 1.5446 72.6889 2.43761 69.3802 2.43761C68.453 2.43761 67.5563 2.39411 66.6574 2.73527C65.9762 2.99384 62.8166 2.46457 62.216 2.8841C60.8521 3.83674 57.1481 3.30978 55.6825 3.64481C54.807 3.84493 50.7376 4.2785 49.8686 4.52127C48.8609 4.80282 42.9202 4.67132 42.0338 5.41428C44.9236 5.41428 47.9486 5.71195 50.8994 5.71195C52.7026 5.71195 54.3716 6.60495 56.2529 6.60495C58.9961 6.60495 61.6673 6.00961 64.4345 6.00961C66.8324 6.00961 69.1394 5.71195 71.5111 5.71195C73.2352 5.71195 75.3819 5.01894 76.9699 4.44853C78.3789 3.94238 80.4821 4.43199 81.9419 4.43199C83.9895 4.43199 85.8385 5.11661 87.8348 5.11661H93.4119C95.4624 5.11661 97.28 4.52127 99.3837 4.52127C101.149 4.52127 103.376 4.94353 105.066 4.28976C107.27 3.43709 109.927 4.85355 112.116 3.69442C112.944 3.2563 114.413 3.62827 115.3 3.62827H118.983Z" fill="#3C8BD5"/>
<path d="M112.496 36.9333C113.018 36.8038 113.539 36.6043 114.059 36.4047C114.787 36.1255 115.52 36.181 116.245 35.9301C116.397 35.8774 116.811 36.0698 116.98 36.2117C117.266 36.4508 119.124 36.6899 119.338 36.4047M15.4916 37.7757C16.1577 37.7757 16.7884 37.7583 17.4411 38.0642C18.4243 38.525 19.3303 38.2103 20.3142 38.1604C22.8224 38.0333 25.3066 37.7321 27.8161 37.5727C30.4238 37.4069 32.9848 36.6216 35.5972 36.6216C37.7156 36.6216 39.8429 36.9422 41.9647 36.8139C43.5894 36.7157 45.207 36.4292 46.8329 36.4292C48.1586 36.4292 49.3887 37.2996 50.7093 37.6261C53.8623 38.4055 57.0669 38.9298 60.2576 38.9298C62.7648 38.9298 65.2934 39.074 67.7937 38.7268C68.7172 38.5985 69.6385 38.4009 70.5584 38.2032C71.8452 37.9265 73.1414 37.9816 74.4234 37.733C74.6924 37.6808 75.4239 37.8714 75.7238 38.012C76.2292 38.2488 79.5146 38.4857 79.8936 38.2032M121.59 20.5947C121.342 20.5947 121.107 20.59 120.864 20.6722C120.498 20.7961 120.161 20.7115 119.794 20.6981C118.86 20.6639 117.935 20.5829 117 20.5401C116.029 20.4955 115.075 20.2844 114.102 20.2844C113.313 20.2844 112.521 20.3706 111.731 20.3361C111.125 20.3097 110.523 20.2327 109.917 20.2327M89.1511 37.6565C89.4762 37.6565 89.784 37.6472 90.1025 37.8117C90.5824 38.0594 91.0245 37.8902 91.5047 37.8634C92.7287 37.795 93.9411 37.6331 95.1658 37.5474C96.4385 37.4583 97.6883 37.036 98.9632 37.036C99.9971 37.036 101.035 37.2084 102.071 37.1394C102.864 37.0866 103.653 36.9326 104.447 36.9326M103.48 19.721C103.129 19.721 102.774 19.603 102.48 19.5813C102.04 19.5488 101.635 19.721 101.208 19.721H96.6455M96.6455 19.721C95.526 19.721 94.3585 19.3019 93.2065 19.3019C92.3171 19.3019 91.4748 19.8307 90.5886 19.8608C89.4448 19.8996 88.3643 20.4197 87.2052 20.4197H77.03C76.5706 20.4197 75.6091 20.1621 75.1901 20.4973C74.057 21.4039 72.5796 21.258 71.3004 21.258C70.3069 21.258 69.389 21.5117 68.38 21.258C67.3319 20.9945 66.3849 20.6991 65.3052 20.6991C64.0667 20.6991 62.8328 20.5594 61.6069 20.5594C60.828 20.5594 60.0584 20.4197 59.273 20.4197C59.0174 20.4197 58.6021 20.315 58.3592 20.4507C58.1892 20.5457 58.0453 20.6991 57.8529 20.6991C55.8017 20.6991 53.7397 20.7218 51.6911 20.8388L51.5458 20.8471C50.3973 20.9129 49.2504 20.9786 48.0915 20.9786C47.7425 20.9786 47.4058 21.0944 47.0542 21.1183C46.0352 21.1875 44.3489 20.8029 43.6616 21.1702C43.1413 21.3089 41.9137 21.1269 41.1331 21.5685C40.4429 21.959 39.5363 21.8169 38.7869 21.8169C37.0881 21.8169 35.3732 21.6772 33.6932 21.6772H32.2423C31.5214 21.6772 30.8422 21.4219 30.1307 21.3977C28.9706 21.3583 27.8302 20.9188 26.6855 20.8388C26.2761 20.8103 25.8722 20.5789 25.4383 20.5594C24.7688 20.5293 24.0843 20.3552 23.4131 20.2877C22.0629 20.1519 20.6767 19.9729 19.3505 19.6124C18.2909 19.3244 16.9718 19.5813 15.8929 19.5813C15.1399 19.5813 14.4277 19.5214 13.6826 19.4494C12.5893 19.3436 11.4912 19.5567 10.4102 19.3097C9.06458 19.0021 7.48423 19.6356 6.12532 19.7211C5.25035 19.7761 4.37886 20.2482 3.5198 20.28C3.06337 20.2968 2.60546 20.2595 2.14912 20.28C1.98751 20.2872 1.29983 20.4938 1.18594 20.637C0.607086 21.3648 1.51946 21.6772 2.01947 21.6772C3.04934 21.6772 4.10489 21.8169 5.14979 21.8169H13.3492C15.7861 21.8169 18.2556 21.8769 20.6224 22.5854C21.3937 22.8163 22.222 22.9347 23.0241 22.9347C24.2987 22.9347 25.5548 23.0744 26.8213 23.0744C29.8881 23.0744 32.922 23.1143 35.9715 23.3616C37.2972 23.4692 38.6192 23.5173 39.96 23.4936C41.8822 23.4595 43.7434 22.5155 45.6835 22.5155C48.5084 22.5155 51.2845 21.5375 54.1113 21.5375C56.0108 21.5375 57.7576 22.3758 59.6434 22.3758C61.8233 22.3758 64.0189 22.6035 66.2004 22.6552C67.9615 22.697 69.6587 22.0964 71.4053 22.0964C72.4817 22.0964 73.6488 21.9292 74.1405 21.6772H80.8087C82.2229 21.6772 83.6812 21.7921 85.075 21.4676C86.4755 21.1416 88.0027 21.3745 89.3661 20.8389C90.0787 20.5589 90.8202 20.5842 91.5394 20.3886C92.2681 20.1906 95.9127 19.721 96.6455 19.721ZM126.179 36.3717C128.225 36.3717 130.078 36.9671 132.098 36.9671M132.098 36.9671C134.128 36.9671 135.965 36.3717 138.017 36.3717H141.7C142.587 36.3717 144.056 36.7437 144.884 36.3056C147.073 35.1464 149.73 36.5629 151.934 35.7102C153.624 35.0565 155.851 35.4787 157.616 35.4787C159.72 35.4787 161.538 34.8834 163.588 34.8834H169.165C171.162 34.8834 173.011 35.568 175.058 35.568C176.518 35.568 178.621 36.0576 180.03 35.5515C181.618 34.9811 183.765 34.2881 185.489 34.2881C187.861 34.2881 190.168 33.9904 192.566 33.9904C195.333 33.9904 198.004 33.395 200.747 33.395C202.628 33.395 204.297 34.2881 206.101 34.2881C209.051 34.2881 212.076 34.5857 214.966 34.5857M132.098 36.9671C130.097 36.9671 141.856 37.5453 143.7 38.5215C145.804 39.6354 148.862 38.4554 151.053 38.4554C156.124 38.4554 159.583 37.5624 164.666 37.5624C168.551 37.5624 173.927 38.4554 177.748 38.4554C181.106 38.4554 184.311 37.5624 187.62 37.5624C188.547 37.5624 189.444 37.6059 190.343 37.2647C191.024 37.0062 194.183 37.5354 194.784 37.1159C196.148 36.1633 199.852 36.6902 201.317 36.3552C202.193 36.1551 206.262 35.7215 207.131 35.4787C208.139 35.1972 214.08 35.3287 214.966 34.5857M214.966 34.5857C217.331 34.5857 219.659 35.1811 222.082 35.1811C224.146 35.1811 226.225 35.4787 228.225 35.4787M144.508 3.07148C143.986 3.20094 143.465 3.40043 142.945 3.60005C142.217 3.87929 141.484 3.82374 140.759 4.07469C140.607 4.12736 140.193 3.93491 140.024 3.79306C139.738 3.55394 137.88 3.31483 137.665 3.60005M241.508 2.23379C240.842 2.23379 240.212 2.25119 239.559 1.94527C238.576 1.48449 237.67 1.79924 236.686 1.84909C234.178 1.97617 231.693 2.27737 229.184 2.43683C226.576 2.60255 224.015 3.38791 221.403 3.38791C219.284 3.38791 217.157 3.06725 215.035 3.19556C213.411 3.29381 211.793 3.58026 210.167 3.58026C208.841 3.58026 207.611 2.70986 206.291 2.3834C203.138 1.60396 199.933 1.07968 196.742 1.07968C194.235 1.07968 191.707 0.935527 189.206 1.28272C188.283 1.41096 187.361 1.60859 186.442 1.80634C185.155 2.08297 183.859 2.02794 182.577 2.27654C182.308 2.32872 181.576 2.13807 181.276 1.99754C180.771 1.76066 177.485 1.52379 177.106 1.80634M135.41 19.4053C135.658 19.4053 135.893 19.41 136.136 19.3278C136.502 19.2039 136.839 19.2885 137.206 19.3019C138.14 19.3361 139.065 19.4171 140 19.4599C140.971 19.5045 141.925 19.7156 142.898 19.7156C143.687 19.7156 144.479 19.6294 145.269 19.6639C145.875 19.6903 146.477 19.7673 147.083 19.7673M167.853 2.34823C167.528 2.34823 167.22 2.35758 166.901 2.19309C166.421 1.94534 165.979 2.11458 165.499 2.14138C164.275 2.20971 163.063 2.37166 161.838 2.4574C160.565 2.5465 159.315 2.96877 158.041 2.96877C157.007 2.96877 155.969 2.79635 154.933 2.86534C154.14 2.91817 153.351 3.07219 152.557 3.07219M153.52 20.2837C153.871 20.2837 154.226 20.4017 154.52 20.4234C154.96 20.456 155.365 20.2837 155.792 20.2837H160.354M160.354 20.2837C161.474 20.2837 162.641 20.7029 163.794 20.7029C164.683 20.7029 165.525 20.1741 166.411 20.144C167.555 20.1051 168.636 19.5851 169.795 19.5851H179.97C180.429 19.5851 181.391 19.8427 181.81 19.5075C182.943 18.6009 184.42 18.7467 185.7 18.7467C186.693 18.7467 187.611 18.493 188.62 18.7467C189.668 19.0103 190.615 19.3056 191.695 19.3056C192.933 19.3056 194.167 19.4454 195.393 19.4454C196.172 19.4454 196.942 19.5851 197.727 19.5851C197.983 19.5851 198.398 19.6897 198.641 19.554C198.811 19.459 198.955 19.3056 199.147 19.3056C201.198 19.3056 203.26 19.283 205.309 19.1659L205.454 19.1576C206.603 19.0919 207.75 19.0262 208.909 19.0262C209.257 19.0262 209.594 18.9104 209.946 18.8865C210.965 18.8172 212.651 19.2019 213.338 18.8346C213.859 18.6958 215.086 18.8779 215.867 18.4362C216.557 18.0458 217.464 18.1878 218.213 18.1878C219.912 18.1878 221.627 18.3276 223.307 18.3276H224.758C225.479 18.3276 226.158 18.5828 226.869 18.607C228.029 18.6464 229.17 19.0859 230.315 19.1659C230.724 19.1945 231.128 19.4259 231.562 19.4453C232.231 19.4754 232.916 19.6495 233.587 19.717C234.937 19.8528 236.323 20.0319 237.65 20.3924C238.709 20.6804 240.028 20.4234 241.107 20.4234C241.86 20.4234 242.572 20.4833 243.317 20.5554C244.411 20.6611 245.509 20.448 246.59 20.6951C247.935 21.0027 249.516 20.3691 250.875 20.2837C251.75 20.2287 252.621 19.7566 253.48 19.7248C253.937 19.7079 254.395 19.7453 254.851 19.7248C255.013 19.7175 255.7 19.5109 255.814 19.3677C256.393 18.64 255.481 18.3276 254.981 18.3276C253.951 18.3276 252.895 18.1878 251.85 18.1878H243.651C241.214 18.1878 238.744 18.1278 236.378 17.4194C235.606 17.1885 234.778 17.0701 233.976 17.0701C232.701 17.0701 231.445 16.9303 230.179 16.9303C227.112 16.9303 224.078 16.8905 221.029 16.6431C219.703 16.5356 218.381 16.4874 217.04 16.5112C215.118 16.5452 213.257 17.4892 211.316 17.4892C208.492 17.4892 205.716 18.4673 202.889 18.4673C200.989 18.4673 199.242 17.6289 197.357 17.6289C195.177 17.6289 192.981 17.4013 190.8 17.3495C189.039 17.3077 187.341 17.9084 185.595 17.9084C184.518 17.9084 183.351 18.0755 182.86 18.3275H176.191C174.777 18.3275 173.319 18.2126 171.925 18.5371C170.525 18.8632 168.997 18.6302 167.634 19.1659C166.921 19.4458 166.18 19.4206 165.461 19.6161C164.732 19.8142 161.087 20.2837 160.354 20.2837ZM130.821 3.62827C128.775 3.62827 126.922 3.03294 124.902 3.03294M124.902 3.03294C122.872 3.03294 121.035 3.62827 118.983 3.62827H115.3C114.413 3.62827 112.944 3.2563 112.116 3.69442C109.927 4.85355 107.27 3.43709 105.066 4.28976C103.376 4.94353 101.149 4.52127 99.3837 4.52127C97.28 4.52127 95.4624 5.11661 93.4119 5.11661H87.8348C85.8385 5.11661 83.9895 4.43199 81.9419 4.43199C80.4821 4.43199 78.3789 3.94238 76.9699 4.44853C75.3819 5.01894 73.2352 5.71195 71.5111 5.71195C69.1394 5.71195 66.8324 6.00961 64.4345 6.00961C61.6673 6.00961 58.9961 6.60495 56.2529 6.60495C54.3716 6.60495 52.7026 5.71195 50.8994 5.71195C47.9486 5.71195 44.9236 5.41428 42.0338 5.41428M124.902 3.03294C126.903 3.03294 115.144 2.45469 113.3 1.47845C111.196 0.364614 108.138 1.5446 105.947 1.5446C100.876 1.5446 97.417 2.43761 92.3337 2.43761C88.4491 2.43761 83.0735 1.5446 79.252 1.5446C75.8935 1.5446 72.6889 2.43761 69.3802 2.43761C68.453 2.43761 67.5563 2.39411 66.6574 2.73527C65.9762 2.99384 62.8166 2.46457 62.216 2.8841C60.8521 3.83674 57.1481 3.30978 55.6825 3.64481C54.807 3.84493 50.7376 4.2785 49.8686 4.52127C48.8609 4.80282 42.9202 4.67132 42.0338 5.41428M42.0338 5.41428C39.6694 5.41428 37.341 4.81894 34.9177 4.81894C32.8542 4.81894 30.775 4.52127 28.7749 4.52127" stroke="#3C8BD5" stroke-linecap="round"/>
</g>
</svg>
