<svg fill="none" viewBox="0 0 267 42" xmlns="http://www.w3.org/2000/svg">
<g opacity=".5">
<path d="m103.06 3.0269h-21.095v2.0251h21.095v-2.0251z" fill="#26B7A6"/>
<path d="m191.06 18.722h21.095v2.0251h-21.095v-2.0251z" fill="#26B7A6"/>
<path d="m75.944 37.444h-21.095v2.0251h21.095v-2.0251z" fill="#26B7A6"/>
<path d="m150.68 3.0269h-7.233v2.0251h7.233v-2.0251z" fill="#26B7A6"/>
<path d="m143.45 18.722h7.232v2.0251h-7.232v-2.0251z" fill="#26B7A6"/>
<path d="m123.55 37.444h-7.232v2.0251h7.232v-2.0251z" fill="#26B7A6"/>
<path d="m180.81 6.569v-5.569h51.834v5.569h-51.834z" fill="#26B7A6"/>
<path d="m113.31 22.26v-5.569h-51.833v5.569h51.833z" fill="#26B7A6"/>
<path d="M153.688 41V35.431H205.521V41H153.688Z" fill="#26B7A6"/>
<path d="m120.55 6.569v-5.569h13.26v5.569h-13.26z" fill="#26B7A6"/>
<path d="m173.58 22.26v-5.569h-13.26v5.569h13.26z" fill="#26B7A6"/>
<path d="M93.4257 41V35.431H106.685V41H93.4257Z" fill="#26B7A6"/>
<path d="m27.121 4.041h45.203m194.68 15.69h-45.203m-221.8 18.736h45.203m121.74-34.426h6.63m-46.403 15.691h-6.63m19.288 18.736h6.63m-64.49-35.44h21.095v2.0251h-21.095v-2.0251zm130.18 15.695h-21.095v2.0251h21.095v-2.0251zm-157.3 18.722h21.095v2.0251h-21.095v-2.0251zm88.594-34.418h7.233v2.0251h-7.233v-2.0251zm7.239 15.695h-7.232v2.0251h7.232v-2.0251zm-34.364 18.722h7.232v2.0251h-7.232v-2.0251zm64.495-36.444v5.569h51.834v-5.569h-51.834zm-67.501 15.691v5.569h-51.833v-5.569h51.833zm40.376 18.74v5.569h51.833v-5.569h-51.833zm-33.142-34.431v5.569h13.26v-5.569h-13.26zm53.039 15.691v5.569h-13.26v-5.569h13.26zm-80.159 18.74v5.569h13.259v-5.569h-13.259z" stroke="#26B7A6"/>
</g>
</svg>
