<svg width="163" height="146" viewBox="0 0 163 146" fill="none" xmlns="http://www.w3.org/2000/svg">
<path opacity="0.5" d="M116.309 62.6443L118.197 63.803C118.993 64.4881 119.717 65.2107 120.371 65.9659M116.309 62.6443L115.863 62.3702M116.309 62.6443C115.713 63.6798 115.104 64.6219 114.539 65.4152M116.309 62.6443C116.437 62.4222 116.565 62.1958 116.691 61.9656M115.863 62.3702L113.143 60.7005M115.863 62.3702C115.438 63.3717 114.96 64.3535 114.46 65.3079M115.863 62.3702C115.968 62.123 116.069 61.8745 116.168 61.625M113.143 60.7005L110.487 59.0701C109.51 58.4701 108.722 57.9581 107.937 57.4998M113.143 60.7005C113.399 60.5578 113.655 60.4174 113.913 60.2792M113.143 60.7005C112.552 61.0302 111.964 61.3718 111.381 61.7253M107.937 57.4998C107.878 57.4654 107.819 57.4313 107.761 57.3975M107.937 57.4998C107.915 57.872 107.89 58.2441 107.863 58.6159M107.937 57.4998C107.938 57.4891 107.938 57.4784 107.939 57.4677M107.761 57.3975C107.692 57.3579 107.622 57.3186 107.553 57.2798M107.761 57.3975C107.693 57.3709 107.625 57.3445 107.557 57.3181M107.761 57.3975C107.82 57.4208 107.88 57.4442 107.939 57.4677M107.553 57.2798C106.58 56.7344 105.566 56.2621 104.162 55.7982C103.671 55.6359 103.177 55.4884 102.68 55.3552M107.553 57.2798C107.554 57.2925 107.555 57.3053 107.557 57.3181M107.553 57.2798C107.345 55.1025 107.082 52.9991 106.78 51.0116M102.68 55.3552C101.23 54.9665 99.7567 54.6987 98.2709 54.5364M102.68 55.3552C103.162 55.5965 103.629 55.8434 104.079 56.0958M102.68 55.3552C100.49 54.2589 97.9934 53.281 95.4258 52.4595M98.2709 54.5364C97.6112 54.4644 96.9491 54.4131 96.2855 54.3813M98.2709 54.5364C97.5741 54.3814 96.8731 54.2362 96.1686 54.1007M98.2709 54.5364C100.247 54.9762 102.189 55.4952 104.079 56.0958M96.2855 54.3813C94.9284 54.3163 93.5653 54.3326 92.2046 54.4186M96.2855 54.3813C96.7816 55.5863 97.2186 56.8345 97.6002 58.1252C97.8925 59.1137 98.1918 60.3425 98.4733 61.6939M96.2855 54.3813C96.2469 54.2875 96.2079 54.194 96.1686 54.1007M92.2046 54.4186C90.8963 54.5014 89.5901 54.6487 88.2937 54.8502M92.2046 54.4186C93.2251 56.4515 94.103 58.6665 94.8084 60.9787M92.2046 54.4186C92.0702 54.1509 91.9333 53.8863 91.794 53.625C91.7488 53.5402 91.7032 53.4554 91.6572 53.3708M88.2937 54.8502C88.2344 54.8594 88.1752 54.8688 88.1159 54.8782M88.2937 54.8502C89.706 56.1972 91.0376 57.649 92.2927 59.1943M88.2937 54.8502C88.0955 54.6611 87.8956 54.4741 87.6941 54.2891M88.1159 54.8782C87.7062 54.9435 87.2976 55.0142 86.8902 55.0899M88.1159 54.8782C88.5682 55.5229 89.0009 56.1824 89.413 56.8566M88.1159 54.8782C87.9772 54.6804 87.8366 54.4841 87.6941 54.2891M86.8902 55.0899C86.0156 55.2525 85.1467 55.4383 84.2859 55.6442C82.5222 56.0661 80.7741 56.5662 79.0456 57.1389M86.8902 55.0899C87.7513 55.644 88.5922 56.2368 89.413 56.8566M86.8902 55.0899C85.4354 54.1539 83.9229 53.3281 82.3519 52.669M79.0456 57.1389C76.026 58.1394 73.0662 59.3614 70.1878 60.775M79.0456 57.1389C79.9799 55.6047 80.9827 54.1108 82.0566 52.6636M79.0456 57.1389C78.216 58.5012 77.4403 59.8952 76.7168 61.3165M70.1878 60.775C67.3998 62.1443 64.688 63.6932 62.072 65.3948M70.1878 60.775C68.5278 58.7789 67.0113 56.6679 65.7014 54.4234M70.1878 60.775C70.6471 61.3274 71.1174 61.8709 71.5974 62.406M62.072 65.3948C62.0673 65.3978 62.0626 65.4009 62.0579 65.4039M62.072 65.3948C65.1948 64.227 68.3766 63.2115 71.5974 62.406M62.072 65.3948C62.0603 65.3991 62.0487 65.4035 62.0371 65.4078M62.0579 65.4039C59.4137 67.1245 56.8674 69.001 54.439 71.0053M62.0579 65.4039C65.9793 64.6681 69.9392 64.3665 73.7608 64.7011M62.0579 65.4039C62.051 65.4052 62.044 65.4065 62.0371 65.4078M54.439 71.0053C54.3659 71.0656 54.2928 71.1261 54.2199 71.1867M54.439 71.0053C54.7633 70.0721 55.1335 69.167 55.5374 68.3046C55.5695 68.236 55.603 68.1659 55.6379 68.0943M54.439 71.0053C53.4253 73.9221 52.8604 77.1128 53.1192 80.1289C53.209 81.1762 53.3653 82.2072 53.5819 83.2198M54.2199 71.1867C51.1017 73.7777 48.1801 76.5792 45.4979 79.5313C44.9203 80.167 44.3316 80.8103 43.7554 81.4694M54.2199 71.1867C52.4161 76.0648 49.6328 80.4928 46.0064 84.0576M54.2199 71.1867C54.4439 70.5808 54.6529 69.968 54.8464 69.349C54.9502 69.0172 55.0518 68.6749 55.1501 68.3236M43.7554 81.4694C43.1599 82.1506 42.5778 82.8487 42.0352 83.573M43.7554 81.4694C42.5766 79.9633 41.5266 78.3535 40.626 76.6618M43.7554 81.4694C44.461 82.3709 45.2128 83.2352 46.0064 84.0576M42.0352 83.573C41.8304 83.8464 41.6313 84.1235 41.4392 84.4048M42.0352 83.573C41.3495 82.5546 40.7119 81.4954 40.1252 80.3985M42.0352 83.573C42.6011 84.4133 43.1997 85.2259 43.8297 86.009M41.4392 84.4048C40.4574 85.8423 39.6593 87.3901 39.2323 89.1141M41.4392 84.4048C40.7401 83.1571 40.2605 81.812 40.1252 80.3985M41.4392 84.4048C41.8835 85.1978 42.4165 85.9514 43.006 86.6583M39.2323 89.1141C39.1142 89.5906 39.0246 90.0806 38.9672 90.5855C38.894 91.2299 38.8719 91.8667 38.8966 92.4953M39.2323 89.1141C38.5917 89.4661 37.9357 89.7962 37.2646 90.1031M39.2323 89.1141C40.5574 88.3859 41.8164 87.5638 43.006 86.6583M38.8966 92.4953C38.8974 92.5167 38.8983 92.5381 38.8993 92.5595M38.8966 92.4953C38.7512 92.3318 38.6065 92.1682 38.4627 92.0044C38.2259 91.7348 37.9863 91.4581 37.7443 91.1749M38.8966 92.4953C39.0376 92.6539 39.1794 92.8123 39.3218 92.9705M38.8993 92.5595C38.9068 92.7287 38.9176 92.8973 38.9318 93.0652M38.8993 92.5595C38.5983 92.2635 38.3009 91.9639 38.0074 91.6607M38.8993 92.5595C39.0394 92.6973 39.1802 92.8343 39.3218 92.9705M38.9318 93.0652C39.0402 94.3515 39.3414 95.6018 39.796 96.8099M38.9318 93.0652C38.5938 92.6121 38.2835 92.1441 38.0074 91.6607M38.9318 93.0652C40.3815 95.0086 42.3405 96.6779 44.2976 98.1183M39.796 96.8099C40.8496 99.6097 42.7269 102.183 44.9368 104.453M39.796 96.8099C37.145 95.6825 34.2366 94.2033 31.3411 92.4382M39.796 96.8099C41.3708 97.4795 42.8547 98.025 44.1913 98.4325C44.4028 98.497 44.6148 98.5606 44.8272 98.6235M44.9368 104.453C46.3061 105.859 47.8031 107.149 49.3109 108.304M44.9368 104.453C44.3519 104.426 43.7669 104.386 43.1823 104.332M44.9368 104.453C46.2362 104.512 47.5354 104.503 48.8296 104.43M49.3109 108.304C49.7253 108.621 50.1405 108.929 50.5542 109.225M49.3109 108.304C47.2417 107.059 45.1838 105.736 43.1823 104.332M49.3109 108.304C49.837 108.621 50.3639 108.932 50.8907 109.239C50.9554 109.276 51.0199 109.314 51.0841 109.351M50.5542 109.225C51.3991 109.831 52.2373 110.393 53.0482 110.908M50.5542 109.225C47.7114 108.525 44.9388 107.443 42.3117 106.169C40.5893 105.333 38.6992 104.324 36.8328 103.15M50.5542 109.225C50.7306 109.269 50.9072 109.311 51.0841 109.351M53.0482 110.908C53.3589 111.105 53.6656 111.295 53.9672 111.478C54.9904 112.1 56.1022 112.717 57.2799 113.318M53.0482 110.908C47.2762 110.297 41.5765 108.613 36.2701 106.151C36.2074 106.122 36.1448 106.092 36.0823 106.063M53.0482 110.908C53.369 110.942 53.6901 110.972 54.0113 111M57.2799 113.318C58.3071 113.842 59.3843 114.353 60.4966 114.844M57.2799 113.318C54.7683 113.784 52.1896 113.918 49.5499 113.614C45.3241 113.128 41.324 110.77 38.0504 108.023C37.4298 107.503 36.7685 106.839 36.0823 106.063M57.2799 113.318C57.5244 113.272 57.7682 113.224 58.0114 113.172M60.4966 114.844C63.5494 116.192 66.866 117.383 70.135 118.248M60.4966 114.844C55.3916 116.786 50.0444 118.054 44.52 118.442C44.2551 118.46 43.9887 118.477 43.7208 118.49M60.4966 114.844C60.6486 114.787 60.8004 114.728 60.952 114.669M70.135 118.248C70.9032 118.452 71.6689 118.637 72.4279 118.802M70.135 118.248C70.0932 118.036 70.0525 117.824 70.0126 117.612M70.135 118.248C70.2601 118.884 70.3938 119.519 70.537 120.154M72.4279 118.802C74.6914 119.295 76.8956 119.608 78.933 119.682C79.8549 119.716 80.7645 119.71 81.6618 119.666M72.4279 118.802C71.8085 119.267 71.1779 119.718 70.537 120.154M72.4279 118.802C72.7001 118.598 72.9702 118.391 73.2381 118.181M81.6618 119.666C84.6096 119.52 87.4239 118.965 90.0999 118.069M81.6618 119.666C78.9066 122.179 75.8316 124.465 72.3571 126.529M81.6618 119.666C82.0137 119.345 82.3604 119.02 82.702 118.692M90.0999 118.069C95.0854 116.399 99.5909 113.547 103.586 109.962M90.0999 118.069C87.6494 118.408 85.176 118.623 82.702 118.692M90.0999 118.069C92.7359 117.704 95.3454 117.196 97.9009 116.575C102.271 115.513 106.457 114.273 110.296 112.354M103.586 109.962C103.72 109.843 103.852 109.722 103.985 109.601M103.586 109.962C103.491 109.915 103.396 109.868 103.301 109.82M103.586 109.962C105.703 110.999 107.968 111.81 110.296 112.354M103.985 109.601C104.163 109.437 104.34 109.272 104.517 109.106M103.985 109.601C104.312 109.491 104.637 109.375 104.96 109.252M103.985 109.601C103.758 109.677 103.53 109.75 103.301 109.82M104.517 109.106C106.085 107.625 107.57 106.033 108.972 104.357C111.082 101.836 112.914 99.4124 114.426 96.8836M104.517 109.106C103.839 108.875 103.2 108.627 102.622 108.387C101.043 107.732 99.6333 107.042 98.2958 106.225M104.517 109.106C104.663 109.155 104.81 109.204 104.96 109.252M114.426 96.8836C114.947 96.0137 115.429 95.1313 115.872 94.2281M114.426 96.8836C110.206 101.547 104.426 104.649 98.2958 106.225M114.426 96.8836C115.035 96.2107 115.612 95.5054 116.152 94.7674M115.872 94.2281C115.902 94.1677 115.931 94.1072 115.961 94.0467M115.872 94.2281C114.79 93.6623 113.725 93.0866 112.671 92.5004M115.872 94.2281C115.926 94.256 115.979 94.284 116.033 94.3119M115.961 94.0467C116.891 92.1204 117.643 90.0975 118.2 87.8981M115.961 94.0467C115.985 94.135 116.009 94.2234 116.033 94.3119M115.961 94.0467C115.666 92.9783 115.325 91.9153 114.945 90.8608M118.2 87.8981C118.524 86.6184 118.781 85.2789 118.97 83.864C119.031 83.4024 119.085 82.9376 119.13 82.4707M118.2 87.8981C117.196 88.9647 116.1 89.9533 114.945 90.8608M118.2 87.8981C118.854 87.2023 119.469 86.4732 120.035 85.7118M119.13 82.4707C119.242 81.3056 119.298 80.1273 119.279 78.9527M119.13 82.4707C117.626 84.8139 116.034 87.1034 114.362 89.3237M119.13 82.4707C119.383 82.0768 119.633 81.6815 119.881 81.2846M119.279 78.9527C119.253 77.3144 119.082 75.6832 118.712 74.1048M119.279 78.9527C119.539 79.7121 119.74 80.4924 119.881 81.2846M119.279 78.9527C118.942 77.9656 118.508 77.0136 117.98 76.1159M118.712 74.1048C118.661 73.8869 118.606 73.6699 118.548 73.4541C117.775 70.6134 116.352 67.8897 114.539 65.4152M118.712 74.1048C118.487 74.7814 118.242 75.4517 117.98 76.1159M118.712 74.1048C119.581 71.4931 120.163 68.7865 120.371 65.9659M114.539 65.4152C114.513 65.3794 114.487 65.3436 114.46 65.3079M114.539 65.4152C114.471 65.511 114.403 65.6048 114.337 65.6962C114.24 65.828 114.141 65.9614 114.04 66.0964M114.46 65.3079C113.524 64.0416 112.486 62.8415 111.381 61.7253M114.46 65.3079C114.322 65.5729 114.181 65.8358 114.04 66.0964M111.381 61.7253C110.264 60.5969 109.08 59.5542 107.863 58.6159M111.381 61.7253C110.229 62.4243 109.096 63.1697 107.993 63.9608M107.863 58.6159C107.795 58.5637 107.727 58.5119 107.66 58.4605M107.863 58.6159C107.834 59.0168 107.802 59.4175 107.767 59.8179M107.66 58.4605C106.875 57.8645 106.078 57.3121 105.278 56.8081C104.895 56.5663 104.494 56.3288 104.079 56.0958M107.66 58.4605C107.698 58.9103 107.734 59.3629 107.767 59.8179M107.66 58.4605C107.627 58.0776 107.593 57.6968 107.557 57.3181M104.079 56.0958C105.26 56.4711 106.421 56.8784 107.557 57.3181M95.4258 52.4595C93.7202 51.9138 91.9834 51.4371 90.2846 51.0405M95.4258 52.4595C95.6865 52.9972 95.9339 53.5443 96.1686 54.1007M95.4258 52.4595C94.3694 50.2803 93.0963 48.2557 91.5816 46.3902M90.2846 51.0405C88.1518 50.5427 86.0788 50.1713 84.2027 49.9483M90.2846 51.0405C90.771 51.805 91.2292 52.5825 91.6572 53.3708M90.2846 51.0405C89.3362 49.5501 88.2805 48.1091 87.1321 46.7343M84.2027 49.9483C84.1291 49.9395 84.0559 49.931 83.9829 49.9227M84.2027 49.9483C85.0473 48.9418 86.0354 47.8136 87.1321 46.7343M84.2027 49.9483C84.1726 49.9842 84.1426 50.02 84.1128 50.0556M83.9829 49.9227C83.8972 49.913 83.8119 49.9036 83.7271 49.8945C83.051 49.8219 82.3768 49.7675 81.7046 49.7307M83.9829 49.9227C84.0263 49.9669 84.0696 50.0112 84.1128 50.0556M83.9829 49.9227C82.7627 48.6803 81.461 47.5138 80.0895 46.4256M81.7046 49.7307C75.8179 49.408 70.0896 50.4337 64.6316 52.4664M81.7046 49.7307C82.2944 50.0963 82.8732 50.4772 83.4412 50.8731M81.7046 49.7307C80.0326 48.6942 78.2722 47.7814 76.4196 47.0038M64.6316 52.4664C62.979 53.0819 61.3512 53.7896 59.7512 54.5802C58.5831 55.1574 57.4229 55.7706 56.2753 56.4188M64.6316 52.4664C64.4384 52.0842 64.2465 51.6832 64.0565 51.2656M64.6316 52.4664C64.6906 52.5832 64.7498 52.6982 64.8091 52.8114C65.034 53.241 65.2667 53.6658 65.5066 54.086M56.2753 56.4188C56.2374 56.4402 56.1996 56.4616 56.1617 56.4831M56.2753 56.4188C56.3785 56.3363 56.482 56.254 56.5858 56.1721C57.3293 55.5849 58.064 55.0173 58.7926 54.4687M56.2753 56.4188C56.1326 56.5329 55.9903 56.6476 55.8485 56.7629M56.1617 56.4831C56.0497 56.5467 55.9377 56.6106 55.8259 56.6748M56.1617 56.4831C57.008 55.7841 57.8753 55.1169 58.7926 54.4687M56.1617 56.4831C56.0557 56.5707 55.95 56.6588 55.8446 56.7474M55.8259 56.6748C55.2839 56.9862 54.745 57.3054 54.2094 57.6323M55.8259 56.6748C55.8322 56.699 55.8384 56.7232 55.8446 56.7474M55.8259 56.6748C55.616 55.8709 55.3295 55.1027 54.953 54.3875M54.2094 57.6323C52.4654 58.697 50.758 59.844 49.104 61.0701M54.2094 57.6323C52.6785 58.3427 51.2724 59.1245 50.0139 59.9748M54.2094 57.6323C54.6136 57.4448 55.0264 57.2622 55.4475 57.0846M49.104 61.0701C45.1322 64.0147 41.469 67.4159 38.3504 71.2311M49.104 61.0701C49.4035 60.7058 49.7065 60.3409 50.0139 59.9748M49.104 61.0701C45.7611 65.1376 42.8712 69.1376 39.6193 73.9187M38.3504 71.2311C37.8733 71.8147 37.409 72.408 36.9583 73.0108M38.3504 71.2311C38.1148 70.4771 37.9079 69.7131 37.7312 68.9406C36.7454 64.633 37.2766 60.5495 38.5338 56.5806M38.3504 71.2311C38.6503 72.1911 38.9967 73.1349 39.3868 74.0594M36.9583 73.0108C35.6397 74.7744 34.4373 76.6195 33.3724 78.5424M36.9583 73.0108C35.5478 68.8418 34.6636 64.4272 34.5571 60.0334M36.9583 73.0108C37.1993 73.7234 37.4558 74.4289 37.7264 75.1258M33.3724 78.5424C33.3342 78.6114 33.2961 78.6806 33.2583 78.7498C32.6408 79.8784 32.0906 81.0569 31.6501 82.2666M33.3724 78.5424C34.806 77.2531 36.2286 76.14 37.7264 75.1258M33.3724 78.5424C32.663 79.1804 31.9509 79.8615 31.2256 80.5952C31.0069 80.8165 30.7875 81.0444 30.5695 81.2785M31.6501 82.2666C31.5793 82.461 31.5113 82.6562 31.4464 82.8521M31.6501 82.2666C32.4728 81.6587 33.2952 81.0685 34.1123 80.4958C34.7485 80.0499 35.4169 79.5934 36.1123 79.1295M31.6501 82.2666C31.518 82.3642 31.386 82.4622 31.2539 82.5607M31.4464 82.8521C31.4383 82.8765 31.4303 82.9008 31.4223 82.9251M31.4464 82.8521C31.3819 82.755 31.3177 82.6579 31.2539 82.5607M31.4464 82.8521C31.8299 83.43 32.2235 84.0055 32.624 84.5754M31.4223 82.9251C30.8692 84.6145 30.541 86.357 30.5505 88.1024M31.4223 82.9251C31.3581 82.8095 31.2946 82.6935 31.2317 82.5772M31.4223 82.9251C31.7672 83.5463 32.1311 84.1573 32.5124 84.7582M30.5505 88.1024C30.5572 89.3292 30.7307 90.5574 31.1101 91.7697M30.5505 88.1024C31.1839 86.9749 31.8407 85.8599 32.5124 84.7582M30.5505 88.1024C30.021 89.0448 29.5079 89.996 29.016 90.9553M31.1101 91.7697C31.18 91.9931 31.2569 92.216 31.3411 92.4382M31.1101 91.7697C30.852 91.7904 30.5936 91.805 30.3355 91.8132M31.1101 91.7697C32.9629 91.6214 34.8037 91.1579 36.4792 90.4488C36.5741 90.4087 36.6687 90.3681 36.7631 90.327M31.3411 92.4382C31.4766 92.7959 31.6308 93.152 31.8049 93.5059C32.7394 95.4063 34.5731 97.3727 36.0927 98.7375C38.3121 100.731 40.7039 102.594 43.1823 104.332M31.3411 92.4382C31.0056 92.2337 30.6702 92.0253 30.3355 91.8132M43.1823 104.332C42.872 104.303 42.5618 104.271 42.2518 104.234C40.4786 104.025 38.6457 103.668 36.8328 103.15M51.0841 109.351C52.1024 109.943 53.0642 110.493 54.0113 111M51.0841 109.351C51.8073 109.517 52.5345 109.657 53.2648 109.768M54.0113 111C54.8272 111.436 55.6323 111.84 56.4534 112.209M54.0113 111C54.2868 111.023 54.5624 111.044 54.8381 111.062M56.4534 112.209C57.1324 112.515 57.8222 112.797 58.5383 113.056M56.4534 112.209C55.906 111.848 55.3659 111.465 54.8381 111.062M56.4534 112.209C56.9674 112.549 57.488 112.87 58.0114 113.172M58.5383 113.056C59.5653 113.426 60.6461 113.747 61.8254 114.015C61.9883 114.052 62.1514 114.087 62.3146 114.12M58.5383 113.056C58.363 113.096 58.1874 113.135 58.0114 113.172M58.5383 113.056C60.25 112.661 61.9296 112.117 63.575 111.459M62.3146 114.12C64.6876 114.605 67.0952 114.701 69.4927 114.523M62.3146 114.12C61.8624 114.309 61.4082 114.492 60.952 114.669M62.3146 114.12C63.5924 113.589 64.8542 113.016 66.0989 112.404M69.4927 114.523C70.7136 114.432 71.9319 114.27 73.1416 114.052M69.4927 114.523C69.4334 114.127 69.377 113.733 69.323 113.34M69.4927 114.523C69.6464 115.548 69.8185 116.58 70.0126 117.612M73.1416 114.052C75.2362 113.675 77.3051 113.13 79.3176 112.496M73.1416 114.052C71.8622 113.887 70.5879 113.648 69.323 113.34M73.1416 114.052C74.6222 114.243 76.1095 114.335 77.5965 114.319M79.3176 112.496C79.3686 112.48 79.4196 112.464 79.4706 112.448C82.1476 111.598 84.7016 110.571 87.1398 109.379M79.3176 112.496C79.0905 112.753 78.86 113.006 78.6263 113.255C78.2888 113.615 77.9455 113.97 77.5965 114.319M79.3176 112.496C80.3913 111.283 81.3897 109.986 82.3011 108.623M87.1398 109.379C88.4091 108.759 89.6471 108.094 90.8546 107.386M87.1398 109.379C88.0772 109.712 89.0093 109.989 89.9347 110.212M87.1398 109.379C86.1691 109.034 85.1928 108.628 84.2125 108.159M90.8546 107.386C91.3729 107.082 91.8857 106.771 92.3928 106.451M90.8546 107.386C90.2992 107.418 89.7448 107.439 89.1924 107.447C88.3377 107.46 87.4803 107.444 86.6251 107.396M90.8546 107.386C91.1891 107.367 91.524 107.343 91.859 107.315M92.3928 106.451C93.4762 105.769 94.5344 105.052 95.5681 104.301M92.3928 106.451C92.2165 106.741 92.0386 107.029 91.859 107.315M92.3928 106.451C92.992 105.468 93.5727 104.462 94.1372 103.434M95.5681 104.301C95.7453 104.172 95.9218 104.042 96.0975 103.912M95.5681 104.301C95.252 104.046 94.9362 103.779 94.6191 103.5C94.5324 103.424 94.4462 103.347 94.3604 103.269M95.5681 104.301C96.2614 104.861 96.9557 105.365 97.6664 105.828M96.0975 103.912C98.9395 101.798 101.595 99.4261 104.08 96.8264M96.0975 103.912C95.7934 103.48 95.5095 103.035 95.2453 102.579M96.0975 103.912C96.5709 104.584 97.0932 105.225 97.6664 105.828M104.08 96.8264C105.94 94.8799 107.705 92.8056 109.381 90.6161M104.08 96.8264C102.545 97.4259 101.046 97.9307 99.5443 98.3528M104.08 96.8264C105.324 96.3403 106.591 95.7919 107.903 95.1749C108.946 94.6842 109.997 94.1325 111.035 93.5216M109.381 90.6161C109.726 90.1657 110.067 89.7104 110.405 89.2504C111.239 88.1135 112.046 86.9632 112.816 85.7972M109.381 90.6161C108.175 89.9055 106.979 89.1801 105.787 88.4397M109.381 90.6161C110.289 91.1505 111.202 91.6766 112.124 92.1947M112.816 85.7972C114.864 82.6958 116.651 79.4833 117.98 76.1159M112.816 85.7972C113.37 86.9566 113.889 88.1337 114.362 89.3237M112.816 85.7972C112.076 84.2491 111.274 82.7323 110.435 81.2578M117.98 76.1159C116.614 73.7898 114.626 71.8285 112.108 70.5665C112.087 70.5559 112.065 70.5454 112.044 70.535M120.371 65.9659C120.4 65.5769 120.422 65.1858 120.436 64.7925M120.371 65.9659C121.067 66.7679 121.685 67.6067 122.227 68.4763M120.436 64.7925C120.446 64.5298 120.452 64.2662 120.455 64.0016M120.436 64.7925C119.268 63.7837 118.015 62.8419 116.691 61.9656M120.436 64.7925C120.632 64.9612 120.825 65.1319 121.016 65.3045M120.455 64.0016C120.455 63.9914 120.455 63.9812 120.455 63.9709M120.455 64.0016C120.472 64.0301 120.489 64.0586 120.505 64.0871M120.455 64.0016C119.638 62.6156 118.701 61.2851 117.679 60.029M120.455 63.9709C120.463 63.2032 120.443 62.4271 120.393 61.6421C120.365 61.1936 120.328 60.7483 120.284 60.3062M120.455 63.9709C120.472 64.0097 120.489 64.0484 120.505 64.0871M120.455 63.9709C119.752 62.3365 118.974 60.6694 118.142 59.0017M120.284 60.3062C120.189 59.3559 120.058 58.4206 119.891 57.5008M120.284 60.3062C122.509 63.2065 124.551 66.2624 126.34 69.4433M120.284 60.3062C119.707 59.5546 119.118 58.8134 118.518 58.0833M119.891 57.5008C119.755 56.7551 119.596 56.0197 119.412 55.2947M119.891 57.5008C122.031 56.6455 124.403 55.8207 126.856 55.0981M119.891 57.5008C119.424 57.6871 118.969 57.8749 118.526 58.0635M119.412 55.2947C118.585 52.026 117.272 48.9705 115.465 46.1556M119.412 55.2947C119.188 56.2116 118.883 57.1431 118.526 58.0635M119.412 55.2947C119.755 53.8958 119.913 52.5311 119.793 51.2923C119.709 50.4253 119.535 49.5637 119.287 48.7197M115.465 46.1556C114.25 44.2634 112.813 42.4799 111.15 40.8134C109.769 39.4296 108.359 38.1344 106.902 36.9409M115.465 46.1556C116.777 46.9712 118.048 47.8237 119.287 48.7197M115.465 46.1556C113.06 44.6601 110.515 43.2885 107.774 41.9994M106.902 36.9409C105.4 35.711 103.847 34.5891 102.224 33.5895M106.902 36.9409C107.151 38.5328 107.361 40.1119 107.533 41.6802M106.902 36.9409C106.762 36.0506 106.611 35.1564 106.447 34.2577M102.224 33.5895C101.149 32.9277 100.044 32.3195 98.9014 31.7691M102.224 33.5895C102.589 34.5922 102.937 35.5868 103.265 36.5672M102.224 33.5895C102.094 33.2319 101.961 32.8732 101.827 32.5139M98.9014 31.7691C98.5523 31.6009 98.1997 31.4381 97.8435 31.2808M98.9014 31.7691C99.919 31.9933 100.893 32.2399 101.827 32.5139M98.9014 31.7691C98.6832 31.7211 98.463 31.674 98.2407 31.628M97.8435 31.2808C96.0369 30.4828 94.1375 29.8268 92.1237 29.3282C91.5541 29.1871 90.9854 29.061 90.4178 28.9493M97.8435 31.2808C97.9764 31.3959 98.1088 31.5117 98.2407 31.628M97.8435 31.2808C96.4517 30.0746 95.008 28.9323 93.5146 27.8658M90.4178 28.9493C80.8745 27.0714 71.6172 29.2624 62.6863 32.8538M90.4178 28.9493C91.4415 28.5615 92.4739 28.1998 93.5146 27.8658M90.4178 28.9493C89.3536 29.3524 88.2987 29.7837 87.2535 30.2413M62.6863 32.8538C62.4377 32.9538 62.1893 33.0549 61.9412 33.157M62.6863 32.8538C62.7929 32.8646 62.8994 32.876 63.0059 32.888M62.6863 32.8538C61.4565 32.7295 60.22 32.6848 58.9821 32.7256M61.9412 33.157C61.0249 33.534 60.112 33.9251 59.2027 34.3272M61.9412 33.157C62.2966 33.0655 62.6515 32.9758 63.0059 32.888M61.9412 33.157C61.0113 33.3963 60.078 33.6478 59.1404 33.9107M59.2027 34.3272C59.1356 34.3569 59.0684 34.3867 59.0013 34.4165C58.2256 34.7612 57.4528 35.1157 56.6838 35.4803M59.2027 34.3272C59.1813 34.1876 59.1605 34.0488 59.1404 33.9107M59.2027 34.3272C59.2373 34.553 59.2736 34.7806 59.3115 35.0099M56.6838 35.4803C55.086 36.2378 53.5045 37.0388 51.946 37.8853M56.6838 35.4803C57.555 35.3072 58.4311 35.1505 59.3115 35.0099M56.6838 35.4803C55.7386 35.6681 54.7993 35.8752 53.8666 36.1023M51.946 37.8853C51.7551 37.9889 51.5646 38.0933 51.3745 38.1983M51.946 37.8853C52.5813 37.2857 53.2215 36.6913 53.8666 36.1023M51.946 37.8853C51.8565 37.9697 51.7672 38.0542 51.678 38.1388M51.3745 38.1983C49.4053 39.2859 47.4744 40.4472 45.5954 41.6863M51.3745 38.1983C51.4756 38.178 51.5767 38.1582 51.678 38.1388M51.3745 38.1983C49.9021 38.494 48.4472 38.8902 47.0194 39.3784M45.5954 41.6863C42.2419 43.8979 39.0537 46.3574 36.1091 49.0889M45.5954 41.6863C46.0585 40.9097 46.5332 40.1398 47.0194 39.3784M45.5954 41.6863C44.7077 43.1751 43.8631 44.689 43.0638 46.2168M36.1091 49.0889C35.5714 49.5876 35.0418 50.0954 34.5209 50.6125M36.1091 49.0889C36.2509 48.6633 36.4032 48.2403 36.566 47.8201C36.5872 47.7653 36.6086 47.7107 36.63 47.6563M36.1091 49.0889C36.0482 49.2715 35.9892 49.4547 35.9321 49.6382M34.5209 50.6125C33.039 52.0831 31.6266 53.6284 30.2946 55.2515C27.9905 58.0593 25.7964 61.1695 24.0542 64.4938M34.5209 50.6125C34.9886 50.2709 35.4576 49.9469 35.9321 49.6382M34.5209 50.6125C33.1495 51.6137 31.7888 52.7649 30.3324 54.1179C29.7173 54.6893 29.1057 55.2683 28.5048 55.8591M24.0542 64.4938C22.9673 66.5679 22.0563 68.7254 21.4043 70.9448M24.0542 64.4938C23.9715 63.8924 23.9052 63.2901 23.856 62.6872M24.0542 64.4938C24.2522 65.9334 24.5443 67.368 24.9212 68.795M21.4043 70.9448C21.2437 71.4914 21.0989 72.0418 20.9709 72.5956M21.4043 70.9448C21.511 69.4815 21.7426 68.0504 22.121 66.6879C22.5106 65.2853 23.1359 63.9623 23.856 62.6872M21.4043 70.9448C21.3732 71.3709 21.3527 71.7997 21.3423 72.2303M20.9709 72.5956C20.32 75.4139 20.1082 78.3213 20.4989 81.2754C20.5108 81.3655 20.523 81.4551 20.5355 81.5444M20.9709 72.5956C21.0947 72.4736 21.2184 72.3518 21.3423 72.2303M20.9709 72.5956C20.8126 72.7518 20.6543 72.9084 20.4962 73.0654M20.5355 81.5444C20.6876 82.6311 20.8827 83.6609 21.12 84.6561M20.5355 81.5444C20.9543 80.5455 21.3911 79.5516 21.8447 78.5632M20.5355 81.5444C20.3578 81.9684 20.1833 82.3932 20.0121 82.819M21.12 84.6561C21.5168 86.3211 22.0315 87.8894 22.6596 89.4654M21.12 84.6561C20.766 84.3126 20.4193 83.9648 20.0807 83.6129M21.12 84.6561C22.2672 85.7695 23.4913 86.8381 24.7641 87.855M22.6596 89.4654C22.6944 89.5528 22.7295 89.6402 22.7651 89.7277M22.6596 89.4654C21.9431 88.881 21.2903 88.2043 20.7078 87.4633M22.6596 89.4654C22.7277 89.521 22.7965 89.5758 22.8658 89.6297M22.7651 89.7277C23.2897 91.0194 23.8902 92.3202 24.564 93.6877C25.1101 94.7958 25.6844 95.8988 26.2856 96.9931M22.7651 89.7277C22.7986 89.695 22.8322 89.6623 22.8658 89.6297M22.7651 89.7277C22.4151 90.0687 22.0691 90.4135 21.7275 90.762M26.2856 96.9931C26.4738 97.3356 26.6646 97.6773 26.8581 98.018M26.2856 96.9931C26.6498 96.0518 27.0423 95.1171 27.4588 94.1892M26.2856 96.9931C26.2369 97.1192 26.1886 97.2453 26.1408 97.3716M26.8581 98.018C27.6429 99.4006 28.4706 100.767 29.3387 102.112M26.8581 98.018C26.6135 97.8082 26.3743 97.5927 26.1408 97.3716M26.8581 98.018C28.5802 99.4958 30.5671 100.695 32.6753 101.641M29.3387 102.112C32.4183 106.88 36.0057 111.363 39.9883 115.244C41.1286 116.355 42.388 117.448 43.7208 118.49M29.3387 102.112C28.0119 101.159 26.7449 100.129 25.5479 99.0261M29.3387 102.112C31.4493 103.628 33.711 104.949 36.0823 106.063M43.7208 118.49C46.6151 120.754 49.8554 122.779 52.9722 124.228C54.5905 124.981 56.2395 125.678 57.9136 126.316M43.7208 118.49C37.5651 118.81 30.6685 117.873 25.0059 115.024M57.9136 126.316C59.2198 126.813 60.5412 127.276 61.8752 127.701M57.9136 126.316C56.0908 126.898 54.2369 127.369 52.3654 127.72M57.9136 126.316C62.3725 124.891 66.6457 122.798 70.537 120.154M61.8752 127.701C63.6759 128.275 65.4996 128.781 67.3394 129.218M61.8752 127.701C59.0697 127.844 56.2436 127.87 53.3953 127.763C53.0545 127.75 52.7111 127.736 52.3654 127.72M61.8752 127.701C65.3212 127.525 68.7362 127.171 72.1237 126.667M67.3394 129.218C69.5318 129.737 71.7473 130.157 73.9744 130.472M67.3394 129.218C66.7489 129.503 66.1481 129.782 65.5369 130.057C58.5212 133.21 50.5374 134.303 42.8621 134.138C32.9172 133.924 17.0679 127.693 9.28653 120.752C4.42561 116.416 -0.0147317 107.636 1.2039 100.688C1.88121 96.826 4.02207 93.3178 6.14449 90.0352C8.54866 86.3168 11.5276 82.6216 14.7557 79.0555M67.3394 129.218C69.0142 128.409 70.6068 127.559 72.1237 126.667M73.9744 130.472C77.4813 130.967 81.0173 131.202 84.5383 131.155C91.6431 131.061 96.6846 130.098 103.156 127.326C107.63 125.41 111.745 122.694 115.514 119.527M73.9744 130.472C73.3846 129.222 72.8598 127.937 72.3919 126.627M73.9744 130.472C74.8928 132.418 75.969 134.276 77.2343 136.003C80.9783 141.114 86.8194 145.806 93.5194 144.883C95.5014 144.61 97.5144 143.96 99.159 142.808C103.841 139.53 109.377 130.949 111.81 126.609C113.017 124.455 114.266 122.061 115.514 119.527M115.514 119.527C118.078 117.371 120.482 115.005 122.728 112.539M115.514 119.527C116.529 117.463 117.544 115.307 118.534 113.114M122.728 112.539C123.703 111.469 124.648 110.379 125.564 109.28M122.728 112.539C121.356 112.849 119.952 113.038 118.534 113.114M122.728 112.539C122.921 112.496 123.113 112.45 123.304 112.402C129.102 110.938 134.757 107.258 138.604 102.306M125.564 109.28C125.672 109.151 125.779 109.021 125.886 108.892C127.969 106.367 129.98 103.715 131.887 100.955M125.564 109.28C124.737 109.678 123.922 110.039 123.167 110.381C121.761 111.018 120.349 111.63 118.933 112.225M125.564 109.28C128.153 108.035 130.865 106.437 132.267 103.997C132.729 103.193 133.094 102.282 133.375 101.324M131.887 100.955C132.624 99.8874 133.346 98.804 134.049 97.7056M131.887 100.955C131.657 100.892 131.443 100.831 131.247 100.772C128.985 100.086 126.76 99.2703 124.575 98.3587M131.887 100.955C132.33 101.075 132.831 101.199 133.375 101.324M134.049 97.7056C137.517 92.2943 140.556 86.5178 142.936 80.5085M134.049 97.7056C133.935 98.9122 133.718 100.154 133.375 101.324M134.049 97.7056C134.138 96.7692 134.164 95.8538 134.139 95.0092C133.971 89.3007 132.537 83.4961 130.442 78.1102M142.936 80.5085C146.363 71.855 148.423 62.7188 148.425 53.4947M142.936 80.5085C143.905 85.2369 143.947 90.313 142.638 94.6376C141.8 97.4067 140.399 99.9947 138.604 102.306M142.936 80.5085C142.378 77.7858 141.512 75.1784 140.419 72.8962C138.488 68.8638 135.878 65.1564 133.007 61.7318M148.425 53.4947C148.425 51.4681 148.326 49.4373 148.121 47.4064C147.369 39.9769 145.977 35.863 141.297 30.2982C139.63 28.3162 137.579 26.6848 135.532 25.1085C134.843 24.5777 125.049 18.3706 123.983 17.7586C122.459 16.8839 120.943 16.0911 119.414 15.3937M148.425 53.4947C152.514 54.731 155.962 57.233 158.348 61.2624C159.928 63.9293 160.596 67.0858 161.182 70.1374C162.516 77.0747 162.226 82.5036 160.253 89.2445C158.257 96.0658 154.378 101.97 146.843 102.834C144.889 103.058 141.698 102.773 138.604 102.306M148.425 53.4947C146.633 52.9532 144.719 52.6545 142.718 52.5767C139.95 52.4691 136.736 52.8247 133.43 53.474M119.414 15.3937C115.165 13.4555 110.811 12.2542 105.88 12.0784C102.684 11.9645 99.4575 12.1602 96.2608 12.6288M119.414 15.3937C127.837 22.0251 131.923 32.1663 132.999 43.1402C133.336 46.5726 133.471 50.022 133.43 53.474M119.414 15.3937C118.167 14.4118 116.825 13.5069 115.384 12.6876C108.59 8.82597 101.65 8.81826 94.4591 10.9682M96.2608 12.6288C95.0321 12.809 93.8079 13.0294 92.5915 13.2881M96.2608 12.6288C98.0095 14.3394 99.4552 16.0718 100.31 17.5489C101.784 20.0945 103.056 22.7875 104.087 25.5696M96.2608 12.6288C95.6893 12.0697 95.0854 11.513 94.4591 10.9682M92.5915 13.2881C88.7068 14.1141 84.9024 15.33 81.2899 16.8677C79.4348 17.6574 77.4108 18.7033 75.3913 19.864M92.5915 13.2881C94.9622 17.051 97.2789 21.6094 99.3245 26.3202M92.5915 13.2881C92.2903 12.8101 91.9883 12.3449 91.6858 11.8939M75.3913 19.864C72.2899 21.6466 69.1994 23.7001 66.7477 25.5122C64.0644 27.4955 61.436 29.5663 58.8717 31.7195M75.3913 19.864C78.4691 20.2251 81.311 21.2817 84.6513 22.7653C87.7686 24.15 90.728 25.8759 93.5146 27.8658M75.3913 19.864C75.3056 19.854 75.2197 19.8444 75.1336 19.8355M58.8717 31.7195C58.4424 32.08 58.0148 32.4428 57.5891 32.808M58.8717 31.7195C58.825 31.2404 58.7885 30.7761 58.7629 30.3293M58.8717 31.7195C58.9038 32.0482 58.9406 32.3838 58.9821 32.7256M57.5891 32.808C56.6858 33.5827 55.7908 34.3678 54.9045 35.1629M57.5891 32.808C58.0535 32.7683 58.5179 32.7409 58.9821 32.7256M57.5891 32.808C56.6057 32.892 55.6226 33.0316 54.6425 33.2295M54.9045 35.1629C54.5572 35.4745 54.2112 35.7877 53.8666 36.1023M54.9045 35.1629C56.3284 34.7219 57.7393 34.3035 59.1404 33.9107M54.9045 35.1629C54.0942 35.4139 53.2796 35.6723 52.4602 35.9376C51.5616 36.2285 50.6628 36.5242 49.765 36.8263M53.8666 36.1023C52.1551 36.519 50.4661 37.0029 48.805 37.5575M51.678 38.1388C49.0485 40.6322 46.5044 43.2161 44.0574 45.8843M51.678 38.1388C54.3512 37.628 57.0797 37.4494 59.8058 37.6542M44.0574 45.8843C43.4171 46.5825 42.7834 47.2865 42.1565 47.9961M44.0574 45.8843C44.0861 45.875 44.1148 45.8658 44.1436 45.8565C47.7562 44.6972 51.6802 44.0086 55.6604 43.7775M44.0574 45.8843C43.7189 45.9936 43.3879 46.1043 43.0638 46.2168M42.1565 47.9961C41.5629 48.6681 40.9754 49.3453 40.3943 50.0273C40.2344 50.215 40.0747 50.4034 39.9154 50.5924M42.1565 47.9961C42.4521 47.4013 42.7546 46.808 43.0638 46.2168M42.1565 47.9961C41.796 48.7217 41.4458 49.4495 41.1062 50.1783M39.9154 50.5924C38.0953 52.7511 36.3143 54.9936 34.5933 57.3084M39.9154 50.5924C40.3057 50.4389 40.7033 50.3007 41.1062 50.1783M39.9154 50.5924C38.608 51.1063 37.3821 51.7917 36.3138 52.6301C35.8437 52.999 35.3941 53.382 34.9648 53.7779M34.5933 57.3084C32.8773 59.6166 31.221 61.9966 29.6452 64.4373M34.5933 57.3084C34.6546 56.1242 34.7768 54.9457 34.9648 53.7779M34.5933 57.3084C34.5464 58.2143 34.5351 59.1234 34.5571 60.0334M29.6452 64.4373C29.1683 65.1758 28.6989 65.9199 28.2374 66.6692M29.6452 64.4373C30.067 64.0544 30.485 63.6764 30.8983 63.3033C32.1123 62.2077 33.331 61.1164 34.5571 60.0334M29.6452 64.4373C29.2432 64.8022 28.8376 65.1714 28.4291 65.5448M28.2374 66.6692C27.3319 68.1395 26.457 69.6299 25.617 71.1381M28.2374 66.6692C28.2921 66.2925 28.356 65.9176 28.4291 65.5448M28.2374 66.6692C27.536 71.498 28.3438 76.6138 30.5695 81.2785M25.617 71.1381C24.2625 73.5702 22.999 76.0486 21.8447 78.5632M25.617 71.1381C25.3606 70.3596 25.1281 69.5784 24.9212 68.795M25.617 71.1381C26.1414 72.7303 26.7662 74.3112 27.4778 75.877C28.2783 77.6385 29.3166 79.5021 30.4872 81.3671M21.8447 78.5632C21.4797 76.4791 21.2912 74.3331 21.3423 72.2303M21.8447 78.5632C22.2478 80.8645 22.866 83.0902 23.6145 85.0986C23.9137 85.9015 24.3062 86.8303 24.7734 87.8466M20.0121 82.819C19.9439 82.9885 19.8763 83.1582 19.8092 83.328M20.0121 82.819C19.7673 79.5394 19.9882 76.1857 20.4962 73.0654M20.0121 82.819C20.0319 83.0841 20.0547 83.3489 20.0807 83.6129M19.8092 83.328C19.5853 83.8946 19.3673 84.4626 19.1554 85.032M19.8092 83.328C19.0664 82.5409 18.3648 81.734 17.7134 80.9095M19.8092 83.328C19.8991 83.4232 19.9896 83.5182 20.0807 83.6129M19.1554 85.032C18.6696 86.338 18.2159 87.6511 17.7969 88.9702M19.1554 85.032C18.4768 83.7101 17.9877 82.3 17.7134 80.9095M19.1554 85.032C19.5955 85.8893 20.1153 86.7096 20.7078 87.4633M17.7969 88.9702C17.7123 89.2365 17.6291 89.5032 17.5473 89.77C16.7757 92.2882 16.1661 95.0274 15.9374 97.765M17.7969 88.9702C17.4669 88.3374 17.155 87.6926 16.8622 87.036C15.6777 84.3804 14.9786 81.7222 14.7557 79.0555M17.7969 88.9702C18.4563 90.2344 19.1881 91.4506 19.9857 92.6164M15.9374 97.765C15.446 103.647 16.7137 109.522 21.9131 113.18C22.8899 113.868 23.9254 114.481 25.0059 115.024M15.9374 97.765C17.1476 95.9724 18.5125 94.2561 19.9857 92.6164M15.9374 97.765C15.3708 98.6042 14.8382 99.4601 14.3442 100.333C12.2918 103.958 11.0487 106.722 12.4995 110.859C13.1537 112.724 14.2744 114.44 15.5844 115.911C18.2671 118.922 24.6556 123.259 28.1726 124.912C35.8426 128.517 44.2688 129.238 52.3654 127.72M25.0059 115.024C23.5151 111.445 23.4283 107.333 24.3212 103.364C24.6496 101.905 25.0632 100.458 25.5479 99.0261M25.0059 115.024C25.7714 116.862 26.9071 118.56 28.4704 120.026C34.6983 125.866 44.177 127.332 52.3654 127.72M60.952 114.669C60.5742 114.498 60.1981 114.321 59.8241 114.138C59.22 113.842 58.6139 113.52 58.0114 113.172M60.952 114.669C63.8786 115.994 66.9145 116.958 70.0126 117.612M66.0989 112.404C67.0804 111.922 68.0512 111.416 69.0109 110.888M66.0989 112.404C65.2509 112.118 64.4091 111.802 63.575 111.459M66.0989 112.404C67.1648 112.764 68.2404 113.077 69.323 113.34M69.0109 110.888C69.9971 110.345 70.9715 109.779 71.9336 109.191M69.0109 110.888C68.9616 110.47 68.9149 110.058 68.8708 109.65M69.0109 110.888C69.0828 111.496 69.1602 112.114 69.2432 112.746C69.2691 112.944 69.2958 113.142 69.323 113.34M71.9336 109.191C72.7977 108.663 73.6519 108.118 74.4957 107.557M71.9336 109.191C71.5368 109.154 71.1405 109.111 70.7449 109.062M71.9336 109.191C75.3621 109.509 78.8342 109.357 82.3011 108.623M74.4957 107.557C74.8751 107.304 75.2525 107.048 75.6278 106.79M74.4957 107.557C74.0048 107.781 73.5039 107.999 72.9924 108.211C72.2485 108.521 71.499 108.804 70.7449 109.062M74.4957 107.557C74.9993 107.327 75.4923 107.091 75.9752 106.849M75.6278 106.79C75.7477 106.707 75.8674 106.624 75.9869 106.54C76.1404 106.433 76.2924 106.327 76.443 106.22M75.6278 106.79C75.2353 106.717 74.8407 106.625 74.4439 106.514M75.6278 106.79C75.7438 106.811 75.8596 106.831 75.9752 106.849M76.443 106.22C76.8537 105.93 77.2539 105.642 77.6449 105.356M76.443 106.22C75.78 106.331 75.1132 106.429 74.4439 106.514M76.443 106.22C76.8068 106.159 77.1694 106.095 77.5307 106.026M77.6449 105.356C79.9752 103.651 81.9742 102.004 83.8629 100.252M77.6449 105.356C77.0503 105.089 76.4679 104.792 75.9 104.464M77.6449 105.356C77.8447 105.446 78.0459 105.533 78.2484 105.616M83.8629 100.252C85.1045 99.1007 86.2985 97.9038 87.5075 96.6155M83.8629 100.252C83.1017 100.258 82.3536 100.254 81.6166 100.24M83.8629 100.252C84.3125 100.249 84.7668 100.243 85.226 100.233M87.5075 96.6155C87.9857 96.106 88.4662 95.5822 88.953 95.0412M87.5075 96.6155C87.3899 97.1348 87.2599 97.6517 87.1178 98.1656M87.5075 96.6155C87.5976 96.2179 87.6803 95.8188 87.7555 95.4186M88.953 95.0412C89.5991 94.3231 90.2563 93.5747 90.9335 92.7894L90.9416 92.7801M88.953 95.0412C88.9057 94.8746 88.8615 94.707 88.8206 94.5383M88.953 95.0412C89.004 95.2211 89.0588 95.3998 89.117 95.5773M90.9416 92.7801C90.9834 92.7315 91.0252 92.683 91.0669 92.6344M90.9416 92.7801C90.3523 93.7585 89.7453 94.6899 89.117 95.5773M90.9416 92.7801C90.9572 92.7541 90.9728 92.7281 90.9885 92.702M91.0669 92.6344C91.3496 92.3052 91.6288 91.9754 91.904 91.6448M91.0669 92.6344C91.0407 92.657 91.0146 92.6795 90.9885 92.702M91.0669 92.6344C91.5158 92.2473 91.9651 91.8555 92.4145 91.4595M91.904 91.6448C92.0752 91.4391 92.2448 91.2331 92.4127 91.0267M91.904 91.6448C91.7485 91.7445 91.5927 91.8429 91.4366 91.94M91.904 91.6448C92.0741 91.5356 92.2439 91.4249 92.4131 91.3125M92.4127 91.0267C94.4628 88.5065 96.263 85.9206 97.5821 83.1074M92.4127 91.0267C92.4137 90.7323 92.4194 90.4377 92.4295 90.1431M92.4127 91.0267C92.4123 91.122 92.4125 91.2173 92.4131 91.3125M97.5821 83.1074C97.7421 82.7661 97.895 82.4216 98.0404 82.0733M97.5821 83.1074C97.4232 83.0004 97.264 82.8932 97.1047 82.7857M97.5821 83.1074C98.3073 83.5954 99.0286 84.0774 99.7474 84.5537M98.0404 82.0733C99.0924 79.5546 99.7525 76.8459 99.8646 73.838C99.8784 73.4679 99.8809 73.0701 99.8732 72.6495M98.0404 82.0733C97.72 82.3233 97.4076 82.5611 97.1047 82.7857M98.0404 82.0733C99.1175 81.2335 100.286 80.2576 101.495 79.1937M99.8732 72.6495C99.8687 72.4032 99.8607 72.1491 99.8495 71.8883M99.8732 72.6495C99.9398 72.6001 100.006 72.5511 100.073 72.5025M99.8732 72.6495C98.9889 73.3063 98.14 74.0359 97.336 74.8062M99.8495 71.8883C99.8432 71.7439 99.836 71.5974 99.8278 71.4491M99.8495 71.8883C99.9264 72.0926 100.001 72.2973 100.073 72.5025M99.8495 71.8883C99.8094 71.7819 99.7688 71.6757 99.7275 71.5696M99.8278 71.4491C99.7327 69.7309 99.5078 67.7584 99.2104 65.8037M99.8278 71.4491C100.537 70.6002 101.285 69.7809 102.066 68.9914M99.8278 71.4491C99.7943 71.4892 99.7608 71.5294 99.7275 71.5696M99.2104 65.8037C98.9954 64.3902 98.7425 62.986 98.4733 61.6939M99.2104 65.8037C100.223 66.8649 101.159 67.9068 102.066 68.9914M99.2104 65.8037C98.1352 64.6764 96.9742 63.5274 95.6709 62.2825C95.4521 62.0735 95.2314 61.8641 95.0089 61.6546M98.4733 61.6939C98.7845 61.7674 99.0956 61.8443 99.4066 61.9245C100.761 62.274 102.192 62.6764 103.594 63.1925M98.4733 61.6939C97.2535 61.4057 96.0315 61.1682 94.8084 60.9787M96.1686 54.1007C94.6779 53.8141 93.1716 53.5711 91.6572 53.3708M91.5816 46.3902C91.0299 45.7108 90.4462 45.0524 89.8291 44.4154M91.5816 46.3902C96.9303 47.0074 102.129 48.5292 106.78 51.0116M91.5816 46.3902C90.3249 46.2452 89.0598 46.1502 87.7917 46.1043M89.8291 44.4154C88.9872 43.5462 88.0833 42.7168 87.1144 41.9277M89.8291 44.4154C91.4868 43.2086 93.2897 42.3213 95.1544 42.1581C97.6878 41.9364 99.8323 43.1183 102.001 44.217C103.38 44.9151 104.708 45.6749 105.99 46.4963M89.8291 44.4154C89.1213 44.9306 88.44 45.5041 87.7917 46.1043M87.1144 41.9277C87.0697 41.8913 87.0248 41.8549 86.9799 41.8187C83.5373 39.0453 80.825 37.3102 76.3268 36.8515C76.0096 36.8191 75.6906 36.7905 75.3705 36.7668M87.1144 41.9277C91.1176 41.1754 95.2004 40.7459 99.227 41.1101C100.859 41.2578 102.889 41.637 104.997 42.2788M87.1144 41.9277C85.9022 42.1555 84.6972 42.4129 83.5034 42.6868C83.4423 42.7008 83.3814 42.7149 83.3205 42.729M75.3705 36.7668C75.2356 36.7569 75.1006 36.7478 74.9654 36.7396M75.3705 36.7668C76.752 35.8534 78.1563 34.9794 79.5824 34.1501M75.3705 36.7668C75.3172 36.8021 75.2639 36.8374 75.2107 36.8727M74.9654 36.7396C73.1136 36.6284 71.2337 36.6988 69.4582 37.1838C68.1331 37.5458 66.756 38.036 65.3542 38.6222M74.9654 36.7396C75.0473 36.7837 75.1291 36.828 75.2107 36.8727M74.9654 36.7396C72.9398 35.6506 70.8316 34.7538 68.6723 34.085M65.3542 38.6222C63.7744 39.2829 62.1633 40.0656 60.5598 40.9244M65.3542 38.6222C66.4071 38.9153 67.4536 39.2722 68.4904 39.6959C69.0682 39.9321 69.6411 40.1785 70.2085 40.4353M65.3542 38.6222C63.5179 38.111 61.6624 37.7937 59.8058 37.6542M60.5598 40.9244C58.9042 41.8112 57.2568 42.7791 55.6604 43.7775M60.5598 40.9244C60.2823 39.8296 60.0293 38.733 59.8058 37.6542M60.5598 40.9244C60.8006 41.874 61.0597 42.8223 61.3342 43.7562M55.6604 43.7775C52.5554 45.7196 49.6437 47.7773 47.241 49.5788M55.6604 43.7775C57.5481 43.6679 59.4484 43.6613 61.3342 43.7562M47.241 49.5788C46.9854 49.7704 46.7356 49.9591 46.4919 50.1445C43.7777 52.2094 41.1332 54.3672 38.5338 56.5806M47.241 49.5788C47.5119 49.6094 47.7806 49.6482 48.0466 49.6952C51.5835 50.3208 53.7372 52.078 54.953 54.3875M47.241 49.5788C45.2318 49.3514 43.1045 49.571 41.1062 50.1783M38.5338 56.5806C37.1975 57.7186 35.873 58.8712 34.5571 60.0334M38.5338 56.5806C39.1148 54.7467 39.8507 52.9373 40.6637 51.1415C40.8091 50.8203 40.9566 50.4992 41.1062 50.1783M28.4291 65.5448C27.2785 66.5966 26.1046 67.6815 24.9212 68.795M28.4291 65.5448C29.2938 61.1364 31.4484 57.021 34.9648 53.7779M24.9212 68.795C23.7332 69.9128 22.5356 71.0594 21.3423 72.2303M20.4962 73.0654C19.5322 74.0227 18.5732 74.9952 17.6266 75.9804M20.4962 73.0654C20.6866 71.8957 20.9174 70.7587 21.1791 69.6708C21.7418 67.3317 22.6539 64.6371 23.8036 61.9334M17.6266 75.9804C16.9767 76.6569 16.3326 77.3393 15.6967 78.0271M17.6266 75.9804C18.3413 70.8561 21.1767 65.0867 23.7748 61.3332M17.6266 75.9804C17.4847 76.9977 17.4264 77.9895 17.4701 78.9351C17.4999 79.5808 17.582 80.2429 17.7134 80.9095M15.6967 78.0271C15.3809 78.3686 15.0672 78.7115 14.7557 79.0555M15.6967 78.0271C15.3338 77.4317 14.9998 76.8291 14.6976 76.2201M15.6967 78.0271C16.2949 79.0086 16.9716 79.9705 17.7134 80.9095M14.7557 79.0555C14.6768 78.1115 14.6576 77.1665 14.6976 76.2201M72.1237 126.667C72.2017 126.621 72.2795 126.575 72.3571 126.529M72.1237 126.667C72.2131 126.654 72.3025 126.64 72.3919 126.627M72.3571 126.529C71.619 124.449 71.0234 122.308 70.537 120.154M72.3571 126.529C72.3686 126.562 72.3802 126.594 72.3919 126.627M82.702 118.692C84.8504 116.626 86.799 114.415 88.5891 112.055M82.702 118.692C79.5329 118.779 76.3627 118.625 73.2381 118.181M88.5891 112.055C89.0478 111.45 89.4961 110.836 89.9347 110.212M88.5891 112.055C84.9987 113.57 81.2985 114.279 77.5965 114.319M88.5891 112.055C89.5462 111.651 90.4955 111.19 91.4349 110.669C91.499 110.634 91.5632 110.598 91.6275 110.561M89.9347 110.212C90.5975 109.268 91.2382 108.303 91.859 107.315M89.9347 110.212C90.5017 110.348 91.066 110.465 91.6275 110.561M91.859 107.315C93.8644 107.146 95.8768 106.82 97.8558 106.336M94.1372 103.434C94.1822 103.352 94.2272 103.27 94.2721 103.188M94.1372 103.434C92.5178 104.626 90.7919 105.644 88.9977 106.444C88.2086 106.795 87.4175 107.112 86.6251 107.396M94.1372 103.434C94.2118 103.38 94.2862 103.324 94.3604 103.269M94.2721 103.188C94.489 102.79 94.7035 102.389 94.9158 101.984M94.2721 103.188C93.4643 102.447 92.6983 101.639 92.0034 100.771M94.2721 103.188C94.3014 103.215 94.3309 103.242 94.3604 103.269M94.9158 101.984C95.4069 101.049 95.8859 100.096 96.3545 99.1253M94.9158 101.984C94.5155 101.23 94.1662 100.447 93.8658 99.6422M94.9158 101.984C95.0221 102.185 95.1319 102.383 95.2453 102.579M96.3545 99.1253C96.6499 98.5135 96.9412 97.8947 97.2287 97.269M96.3545 99.1253C95.587 99.2821 94.8118 99.42 94.0241 99.5406M96.3545 99.1253C97.4282 98.9061 98.487 98.65 99.5443 98.3528M97.2287 97.269C98.6428 94.1915 99.9665 90.9454 101.248 87.5283C101.449 86.9932 101.645 86.4591 101.837 85.9261M97.2287 97.269C96.1946 98.0717 95.1246 98.8302 94.0241 99.5406M97.2287 97.269C98.6952 96.1306 100.09 94.9033 101.396 93.5979C102.497 92.4991 103.528 91.3288 104.503 90.1105M101.837 85.9261C102.508 84.065 103.125 82.2162 103.689 80.3762M101.837 85.9261C101.55 85.7395 101.263 85.552 100.976 85.3635M101.837 85.9261C102.974 86.6653 104.107 87.3902 105.244 88.1011M103.689 80.3762C104.134 78.9273 104.545 77.4839 104.923 76.0442M103.689 80.3762C102.946 81.2038 102.188 82.0234 101.417 82.8335M103.689 80.3762C104.94 78.9832 106.146 77.5674 107.292 76.1351M104.923 76.0442C105.141 75.2128 105.348 74.3826 105.544 73.5534M104.923 76.0442C104.493 76.4551 104.063 76.8608 103.634 77.2593M104.923 76.0442C105.391 75.5957 105.859 75.1411 106.323 74.6828M105.544 73.5534C105.85 72.2579 106.129 70.9647 106.381 69.6724M105.544 73.5534C105.801 73.9196 106.06 74.2956 106.323 74.6828M105.544 73.5534C105.21 73.0768 104.88 72.6168 104.552 72.1702M106.381 69.6724C106.692 68.0747 106.961 66.4786 107.189 64.8815M106.381 69.6724C106.93 69.5867 107.484 69.5454 108.041 69.5539M106.381 69.6724C105.781 69.766 105.186 69.9125 104.599 70.1049M107.189 64.8815C107.206 64.7581 107.223 64.6346 107.24 64.5112M107.189 64.8815C107.478 65.0567 107.761 65.2405 108.036 65.4339M107.189 64.8815C107.107 64.8321 107.025 64.7834 106.942 64.7353M107.24 64.5112C107.456 62.9485 107.632 61.3848 107.767 59.8179M107.24 64.5112C107.49 64.3253 107.741 64.1419 107.993 63.9608M107.24 64.5112C107.141 64.5855 107.041 64.6602 106.942 64.7353M107.767 59.8179C107.867 61.1805 107.943 62.5647 107.993 63.9608M107.939 57.4677C108.053 55.5703 108.108 53.6666 108.103 51.7527M107.939 57.4677C110.026 58.2929 112.026 59.2289 113.913 60.2792M108.103 51.7527C108.099 50.4635 108.069 49.1696 108.011 47.8699M108.103 51.7527C108.344 51.8946 108.584 52.0392 108.823 52.1866C111.544 53.8697 114.305 56.1715 116.702 58.8772M108.103 51.7527C107.667 51.4968 107.226 51.2497 106.78 51.0116M108.011 47.8699C107.942 46.3343 107.835 44.7905 107.69 43.2366M108.011 47.8699C110.551 49.6996 112.899 51.7907 115.077 54.1414C115.502 54.6005 115.923 55.0649 116.34 55.5344M108.011 47.8699C107.35 47.3944 106.677 46.9365 105.99 46.4963M107.69 43.2366C107.649 42.791 107.604 42.3445 107.556 41.8972M107.69 43.2366C108.182 43.4383 108.67 43.6549 109.152 43.8867M107.69 43.2366C106.795 42.8688 105.889 42.5503 104.997 42.2788M107.556 41.8972C107.548 41.8249 107.541 41.7525 107.533 41.6802M107.556 41.8972C107.629 41.9312 107.702 41.9653 107.774 41.9994M107.556 41.8972C106.568 41.4355 105.553 40.9844 104.511 40.5419M107.533 41.6802C107.614 41.7864 107.694 41.8928 107.774 41.9994M107.533 41.6802C106.193 39.9203 104.769 38.209 103.265 36.5672M106.447 34.2577C106.404 34.0245 106.361 33.791 106.317 33.5572C105.805 30.8487 105.051 28.1702 104.087 25.5696M106.447 34.2577C110.678 36.2854 114.024 39.3067 117.094 44.0338C118.025 45.4662 118.798 47.059 119.287 48.7197M106.447 34.2577C105.016 33.572 103.484 32.9998 101.827 32.5139M104.087 25.5696C109.251 25.017 114.526 25.3095 119.501 26.7045C122.698 27.6009 125.166 28.6347 127.522 31.0046C131.158 34.6626 132.222 40.3724 132.272 45.3582C132.301 48.2449 132.032 51.0864 131.524 53.878M104.087 25.5696C102.485 25.741 100.893 25.9938 99.3245 26.3202M94.4591 10.9682C91.7587 8.61899 88.6431 6.49287 85.9177 5.36545M94.4591 10.9682C93.7836 11.1702 93.1059 11.3912 92.4258 11.6298C92.1787 11.7166 91.932 11.8046 91.6858 11.8939M85.9177 5.36545C85.3561 5.13314 84.8111 4.94323 84.2897 4.80251C79.0273 3.38229 72.0905 5.67592 67.5897 7.96331C66.0866 8.72724 64.6317 9.58342 63.2081 10.4938M85.9177 5.36545C87.647 6.79985 89.2118 8.44617 90.5319 10.2462C90.9166 10.7708 91.3016 11.3209 91.6858 11.8939M85.9177 5.36545C84.8431 4.47408 83.7049 3.66454 82.5225 2.95081C77.1981 -0.263062 73.6256 0.721963 69.0007 4.24159C66.5407 6.11368 64.6613 8.16522 63.2081 10.4938M63.2081 10.4938C61.2767 11.7289 59.4029 13.0638 57.5442 14.4034C49.7999 19.9851 44.3836 24.8513 37.9236 31.8745C33.3055 36.8952 29.1122 41.8509 26.3418 48.1169M63.2081 10.4938C61.6502 12.9903 60.582 15.8052 59.8135 19.0588C59.3374 21.0742 59.0052 23.1378 58.8365 25.2125M26.3418 48.1169C26.2137 48.4066 26.0887 48.6991 25.9668 48.9945C25.1865 50.8854 24.6261 52.7836 24.2642 54.6833M26.3418 48.1169C27.7396 47.0753 29.1014 46.1647 30.3442 45.4043C33.9607 43.1916 37.7984 41.3644 41.7377 39.7692M26.3418 48.1169C19.1343 53.487 10.9663 62.3382 13.1793 72.0381C13.5036 73.4592 14.0208 74.8559 14.6976 76.2201M24.2642 54.6833C23.8418 56.901 23.6899 59.1208 23.7748 61.3332M24.2642 54.6833C25.4172 53.1057 26.5396 51.7213 27.518 50.7136C31.3956 46.7201 35.7683 43.542 40.4849 41.0776M24.2642 54.6833C21.2983 58.7413 18.1298 64.077 16.6872 67.5631C15.486 70.4656 14.8191 73.3489 14.6976 76.2201M23.7748 61.3332C23.7824 61.5333 23.792 61.7334 23.8036 61.9334M23.7748 61.3332C23.8169 61.2723 23.859 61.212 23.901 61.1522C24.1058 60.8605 24.3162 60.5731 24.5318 60.2895M23.8036 61.9334C23.8181 62.1848 23.8356 62.436 23.856 62.6872M23.8036 61.9334C24.0368 61.3849 24.2799 60.8359 24.5318 60.2895M23.856 62.6872C24.3803 61.7588 24.9549 60.8558 25.5252 59.9658C26.4758 58.4826 27.4673 57.1298 28.5048 55.8591M30.4872 81.3671C30.6824 81.678 30.8812 81.989 31.0832 82.2995M30.4872 81.3671C30.5146 81.3375 30.542 81.3079 30.5695 81.2785M30.4872 81.3671C29.3388 82.6099 28.2322 84.0234 27.4369 85.5511M31.0832 82.2995C31.1399 82.3866 31.1968 82.4736 31.2539 82.5607M31.0832 82.2995C31.0701 82.2748 31.0571 82.2501 31.0441 82.2254C30.8793 81.912 30.7211 81.5963 30.5695 81.2785M31.0832 82.2995C31.1323 82.3923 31.1818 82.4849 31.2317 82.5772M31.2539 82.5607C31.2465 82.5662 31.2391 82.5717 31.2317 82.5772M32.624 84.5754C34.0293 86.5752 35.5196 88.5074 36.9583 90.2411M32.624 84.5754C33.759 82.7209 34.9351 80.9043 36.1123 79.1295M32.624 84.5754C32.5868 84.6363 32.5495 84.6972 32.5124 84.7582M36.9583 90.2411C37.2223 90.5594 37.4846 90.8709 37.7443 91.1749M36.9583 90.2411C36.8933 90.27 36.8283 90.2986 36.7631 90.327M36.9583 90.2411C37.0607 90.1957 37.1628 90.1496 37.2646 90.1031M37.7443 91.1749C37.5655 90.8256 37.4048 90.4683 37.2646 90.1031M37.7443 91.1749C37.8281 91.3386 37.9159 91.5005 38.0074 91.6607M39.3218 92.9705C40.8975 94.7205 42.5608 96.4486 44.2976 98.1183M39.3218 92.9705C41.4926 95.0587 43.839 96.9639 46.2511 98.6832C46.4928 98.8555 46.7358 99.0266 46.98 99.1964M44.2976 98.1183C44.4734 98.2873 44.6499 98.4557 44.8272 98.6235M44.2976 98.1183C44.5708 98.3194 44.8439 98.516 45.1156 98.7082M44.8272 98.6235C45.651 99.4031 46.4907 100.169 47.3448 100.917M44.8272 98.6235C44.9233 98.6519 45.0194 98.6802 45.1156 98.7082M47.3448 100.917C48.6477 102.059 49.9842 103.159 51.3491 104.206M47.3448 100.917C47.269 100.646 47.2012 100.372 47.1418 100.095M47.3448 100.917C47.6877 102.144 48.1943 103.318 48.8296 104.43M51.3491 104.206C53.2322 105.65 55.1693 106.99 57.1468 108.192C58.1382 108.795 59.1477 109.361 60.1725 109.887M51.3491 104.206C50.5122 104.307 49.672 104.382 48.8296 104.43M51.3491 104.206C52.0733 104.118 52.7949 104.01 53.5132 103.883M60.1725 109.887C60.8827 110.252 61.6002 110.597 62.3242 110.921M60.1725 109.887C57.8659 110.189 55.5508 110.118 53.2648 109.768M60.1725 109.887C61.4957 109.714 62.8161 109.418 64.1266 108.981C64.763 108.769 65.4135 108.505 66.0696 108.198M62.3242 110.921C62.739 111.107 63.156 111.287 63.575 111.459M62.3242 110.921C59.8387 111.19 57.3348 111.229 54.8381 111.062M62.3242 110.921C63.6157 110.782 64.9022 110.58 66.1801 110.313M63.575 111.459C64.4532 111.108 65.3217 110.724 66.1801 110.313M77.5965 114.319C76.2263 115.691 74.7689 116.981 73.2381 118.181M91.6275 110.561C93.6071 109.446 95.7486 107.968 97.8558 106.336M91.6275 110.561C95.7163 111.267 99.6519 110.936 103.301 109.82M97.8558 106.336C97.9141 106.291 97.9724 106.245 98.0306 106.2M97.8558 106.336C97.9392 106.315 98.0224 106.295 98.1056 106.274M98.0306 106.2C98.0635 106.174 98.0965 106.149 98.1294 106.123M98.0306 106.2C97.907 106.078 97.7856 105.954 97.6664 105.828M98.0306 106.2C98.0555 106.225 98.0805 106.249 98.1056 106.274M98.1294 106.123C101.363 103.595 104.495 100.727 106.814 98.2752C108.264 96.7423 109.672 95.1554 111.035 93.5216M98.1294 106.123C97.9742 106.027 97.8199 105.928 97.6664 105.828M98.1294 106.123C98.1847 106.157 98.2402 106.191 98.2958 106.225M111.035 93.5216C111.401 93.0826 111.764 92.6403 112.124 92.1947M111.035 93.5216C111.585 93.1978 112.131 92.8573 112.671 92.5004M112.124 92.1947C112.885 91.2518 113.631 90.2943 114.362 89.3237M112.124 92.1947C112.306 92.2969 112.488 92.3988 112.671 92.5004M114.362 89.3237C114.565 89.8338 114.76 90.3463 114.945 90.8608M119.881 81.2846C121.254 79.0863 122.551 76.8437 123.766 74.5695M119.881 81.2846C120.14 82.7379 120.196 84.2316 120.035 85.7118M123.766 74.5695C123.819 74.4701 123.872 74.3706 123.925 74.271M123.766 74.5695C123.816 76.359 123.589 78.1618 123.029 79.9482C122.374 82.0345 121.336 83.959 120.035 85.7118M123.766 74.5695C123.754 74.1458 123.727 73.7228 123.684 73.3009M123.925 74.271C124.091 73.9581 124.255 73.6445 124.418 73.3304M123.925 74.271C124.492 76.6378 124.97 79.2072 125.281 81.8212M123.925 74.271C123.846 73.9436 123.766 73.6202 123.684 73.3009M124.418 73.3304C124.869 72.4599 125.309 71.5851 125.736 70.7067M124.418 73.3304C124.06 72.1415 123.596 70.9838 123.02 69.8687M124.418 73.3304C125.234 76.0424 125.498 78.917 125.281 81.8212M125.736 70.7067C125.843 70.486 125.949 70.2651 126.055 70.0439C126.151 69.8441 126.246 69.6439 126.34 69.4433M125.736 70.7067C124.483 68.8468 123 67.1418 121.324 65.5865M125.736 70.7067C127.74 73.6842 129.152 77.0585 129.813 80.8504M126.34 69.4433C127.963 65.9816 129.362 62.4129 130.392 58.749M126.34 69.4433C127.122 70.8341 127.855 72.2487 128.535 73.6847C129.214 75.1193 129.854 76.5982 130.442 78.1102M130.392 58.749C130.844 57.1433 131.225 55.5193 131.524 53.878M130.392 58.749C131.001 59.4148 131.608 60.0994 132.217 60.8037C132.482 61.1107 132.746 61.4201 133.007 61.7318M130.392 58.749C129.219 57.4649 128.044 56.2504 126.856 55.0981M131.524 53.878C132.161 53.7334 132.797 53.5983 133.43 53.474M131.524 53.878C129.961 54.2329 128.393 54.6455 126.856 55.0981M99.3245 26.3202C98.8126 26.4268 98.3031 26.5411 97.7965 26.6631C96.3545 27.0103 94.9269 27.4125 93.5146 27.8658M99.3245 26.3202C100.216 28.3736 101.056 30.4558 101.827 32.5139M87.2535 30.2413C84.6339 31.3883 82.0749 32.7008 79.5824 34.1501M87.2535 30.2413C90.2239 30.3888 93.2518 30.724 96.3679 31.2708C97.0082 31.3831 97.6322 31.5019 98.2407 31.628M87.2535 30.2413C78.9452 29.8288 71.0865 30.885 63.0059 32.888M79.5824 34.1501C87.5828 34.7239 94.9107 36.5731 103.559 40.1435C103.879 40.2756 104.196 40.4083 104.511 40.5419M79.5824 34.1501C76.125 33.9022 72.5419 33.8925 68.6723 34.085M75.2107 36.8727C73.5077 38.0039 71.8396 39.1948 70.2085 40.4353M75.2107 36.8727C78.1201 38.4645 80.855 40.4524 83.3205 42.729M70.2085 40.4353C68.6374 41.6301 67.1006 42.8708 65.5999 44.1485M70.2085 40.4353C72.7009 41.563 75.0883 42.8885 77.3286 44.4029M65.5999 44.1485C64.5043 45.0813 63.428 46.0338 62.3716 47.0024M65.5999 44.1485C67.6717 44.4273 69.6991 44.8324 71.6438 45.3619C72.2283 45.5211 72.8046 45.6925 73.373 45.8759M65.5999 44.1485C64.1944 43.9594 62.7685 43.8284 61.3342 43.7562M62.3716 47.0024C59.7744 49.384 57.298 51.8632 54.953 54.3875M62.3716 47.0024C62.0078 45.9549 61.6602 44.8656 61.3342 43.7562M62.3716 47.0024C62.8533 48.3894 63.3635 49.7031 63.8898 50.8937M54.953 54.3875C54.6985 54.6615 54.4456 54.9359 54.1943 55.2109C52.6952 56.8505 51.3166 58.423 50.0139 59.9748M38.1263 76.1249C38.3688 75.7656 38.6105 75.4082 38.8508 75.0528L39.0147 74.8104C39.157 74.5999 39.2985 74.3909 39.4394 74.1834M38.1263 76.1249C37.4596 77.1122 36.7858 78.114 36.1123 79.1295M38.1263 76.1249C37.9898 75.7939 37.8564 75.4608 37.7264 75.1258M38.1263 76.1249C38.3102 76.5709 38.4998 77.0132 38.6947 77.4512M36.1123 79.1295C36.9379 78.5786 37.8016 78.0174 38.6947 77.4512M32.5124 84.7582C33.76 86.7241 35.1943 88.5809 36.7631 90.327M29.016 90.9553C28.8769 91.2266 28.7395 91.4986 28.6038 91.7712M29.016 90.9553C28.0989 90.3436 27.1906 89.7045 26.2998 89.0402M29.016 90.9553C29.4541 91.2476 29.8943 91.5337 30.3355 91.8132M28.6038 91.7712C28.2998 92.3824 28.0049 92.9968 27.7203 93.6144M28.6038 91.7712C27.9282 91.7155 27.2604 91.6127 26.608 91.4593C26.5887 91.4547 26.5694 91.4501 26.5502 91.4455M28.6038 91.7712C29.177 91.8184 29.7558 91.8317 30.3355 91.8132M27.7203 93.6144C27.6321 93.8057 27.5449 93.9973 27.4588 94.1892M27.7203 93.6144C27.3129 92.8804 26.9215 92.1545 26.5502 91.4455M27.7203 93.6144C28.5033 95.0253 29.3453 96.466 30.2159 97.8743M27.4588 94.1892C27.2855 93.8788 27.1242 93.564 26.9758 93.2447C26.6883 92.626 26.4923 92.0107 26.3758 91.4013M27.4588 94.1892C28.1891 95.4976 29.1324 96.7269 30.2159 97.8743M26.1408 97.3716C25.9331 97.9209 25.7352 98.4725 25.5479 99.0261M26.1408 97.3716C25.0732 96.3603 24.1259 95.2303 23.338 93.9748C22.704 92.9644 22.1705 91.8877 21.7275 90.762M25.5479 99.0261C23.4635 97.1057 21.5913 94.963 19.9857 92.6164M72.3919 126.627C84.6508 124.773 96.5491 120.958 108.246 116.467C111.082 115.377 113.899 114.29 116.697 113.15M116.697 113.15C117.444 112.846 118.189 112.538 118.933 112.225M116.697 113.15C114.555 113.121 112.4 112.846 110.296 112.354M116.697 113.15C117.311 113.158 117.924 113.146 118.534 113.114M118.933 112.225C118.8 112.522 118.667 112.818 118.534 113.114M118.933 112.225C121.012 107.567 122.966 102.772 124.575 98.3587M133.375 101.324C134.883 101.67 136.725 102.022 138.604 102.306M130.442 78.1102C130.241 79.026 130.031 79.9395 129.813 80.8504M130.442 78.1102C131.629 72.7112 132.517 67.2325 133.007 61.7318M118.518 58.0833C118.515 58.0792 118.512 58.0751 118.508 58.071M118.518 58.0833C118.399 58.391 118.273 58.6974 118.142 59.0017M118.518 58.0833C118.521 58.0767 118.524 58.0701 118.526 58.0635M118.508 58.071C118.164 57.6521 117.816 57.2368 117.464 56.8253M118.508 58.071C118.514 58.0685 118.52 58.066 118.526 58.0635M118.508 58.071C118.277 58.1697 118.048 58.2686 117.824 58.3676M117.464 56.8253C117.093 56.3908 116.719 55.9605 116.34 55.5344M117.464 56.8253C117.436 57.0418 117.404 57.2581 117.367 57.474M117.464 56.8253C117.592 55.8388 117.625 54.8472 117.535 53.8569C117.11 49.1684 113.403 45.9338 109.152 43.8867M116.34 55.5344C116.689 56.1783 117.031 56.8255 117.367 57.474M116.34 55.5344C114.071 51.3387 111.557 47.282 109.152 43.8867M105.99 46.4963C106.272 47.9133 106.538 49.4255 106.78 51.0116M105.99 46.4963C105.975 46.4221 105.96 46.348 105.945 46.2743C105.693 45.0246 105.374 43.6848 104.997 42.2788M87.7917 46.1043C87.5678 46.3116 87.3479 46.522 87.1321 46.7343M87.7917 46.1043C87.3848 46.0896 86.9776 46.0799 86.5702 46.0753M87.1321 46.7343C86.9472 46.5129 86.7599 46.2932 86.5702 46.0753M84.1128 50.0556C84.0892 50.0838 84.0657 50.112 84.0423 50.14C83.8398 50.3828 83.6394 50.6272 83.4412 50.8731M84.1128 50.0556C84.9849 50.9517 85.8148 51.8869 86.5981 52.8602M83.4412 50.8731C82.9905 51.4325 82.5511 51.9997 82.123 52.5743M83.4412 50.8731C84.3223 51.4872 85.1774 52.137 86.0071 52.8208M82.123 52.5743C82.1008 52.6041 82.0787 52.6338 82.0566 52.6636M82.123 52.5743C82.1994 52.6055 82.2757 52.637 82.3519 52.669M82.123 52.5743C81.3838 52.2729 80.6317 52.0088 79.8668 51.7876C75.5475 50.539 70.7153 50.7598 66.9668 53.4341C66.7416 53.5948 66.52 53.761 66.3021 53.9321M82.0566 52.6636C76.5891 52.5731 71.2207 53.0112 66.3021 53.9321M82.0566 52.6636C82.155 52.6652 82.2534 52.667 82.3519 52.669M76.7168 61.3165C76.1269 62.4752 75.5717 63.652 75.05 64.8445M76.7168 61.3165C81.5704 60.4699 86.4871 60.1578 91.4006 60.5722M76.7168 61.3165C75.0015 61.6157 73.294 61.9817 71.5974 62.406M75.05 64.8445C74.9341 65.1094 74.8199 65.3751 74.7073 65.6416M75.05 64.8445C78.4678 65.3401 82.5682 67.0077 84.204 70.3845C84.829 71.6748 85.1081 73.0459 85.1289 74.4454M75.05 64.8445C74.8529 64.8159 74.658 64.7912 74.4661 64.7703C74.2315 64.7448 73.9964 64.7218 73.7608 64.7011M74.7073 65.6416C73.9375 67.4635 73.2447 69.3205 72.6252 71.204M74.7073 65.6416C74.3891 65.331 74.0735 65.0176 73.7608 64.7011M74.7073 65.6416C76.8882 67.7696 79.1927 69.7615 81.5187 71.6473C82.7019 72.6065 83.9075 73.5364 85.1289 74.4454M72.6252 71.204C70.6467 77.2204 69.4171 83.5076 68.82 89.789M72.6252 71.204C76.163 70.4321 79.3766 71.0661 82.2039 73.616M72.6252 71.204C72.1039 71.3178 71.5756 71.462 71.0404 71.6352C67.3713 72.8225 62.0474 75.9099 59.131 78.2049C57.2851 79.6575 55.3531 81.3404 53.5819 83.2198M68.82 89.789C68.8008 89.9914 68.7822 90.1938 68.7643 90.3962C68.6636 91.5323 68.5795 92.6256 68.5121 93.6878M68.82 89.789C70.058 85.5376 73.0166 81.4007 75.7248 78.1761C76.8375 76.8511 79.2569 74.3271 81.1991 73.7646C81.556 73.6612 81.8905 73.6139 82.2039 73.616M68.82 89.789C68.6625 90.33 68.5328 90.8728 68.4351 91.4158C68.2978 92.1786 68.2593 92.9367 68.3068 93.6827M68.5121 93.6878C68.4879 94.0694 68.4658 94.4469 68.4459 94.821M68.5121 93.6878C68.4438 93.6863 68.3753 93.6846 68.3068 93.6827M68.5121 93.6878C70.7891 93.7377 72.9162 93.5679 75.0233 93.1799M68.4459 94.821C68.3839 95.9867 68.3429 97.1186 68.3232 98.2329M68.4459 94.821C68.3781 94.4454 68.3311 94.0656 68.3068 93.6827M68.4459 94.821C68.6187 95.7781 68.927 96.7084 69.3417 97.5956M68.3232 98.2329C68.3204 98.3905 68.318 98.5477 68.3161 98.7047M68.3232 98.2329C68.2518 98.2764 68.1801 98.3199 68.1081 98.3634C67.989 98.4352 67.8696 98.5065 67.7499 98.5772M68.3232 98.2329C68.6705 98.0211 69.0098 97.8089 69.3417 97.5956M68.3161 98.7047C68.3157 98.7389 68.3153 98.7731 68.3149 98.8073M68.3161 98.7047C68.1275 98.6631 67.9388 98.6206 67.7499 98.5772M68.3161 98.7047C68.5364 98.7533 68.7565 98.8007 68.9764 98.8469M68.3149 98.8073C68.3059 99.6088 68.3081 100.403 68.3215 101.195M68.3149 98.8073C68.0722 98.7873 67.8011 98.7603 67.4974 98.7252M68.3149 98.8073C68.5637 98.8277 68.7827 98.8406 68.9764 98.8469M68.3215 101.195C68.3357 102.039 68.3627 102.881 68.4026 103.729M68.3215 101.195C67.3069 101.305 66.2873 101.381 65.2646 101.425M68.3215 101.195C69.0134 101.12 69.7031 101.029 70.3898 100.921C70.7279 100.868 71.063 100.812 71.3949 100.755M68.4026 103.729C68.4506 104.751 68.5173 105.781 68.6028 106.832M68.4026 103.729C67.3134 103.041 66.2765 102.273 65.2646 101.425M68.4026 103.729C69.2519 104.266 70.1329 104.755 71.0585 105.196M68.6028 106.832C68.6047 106.855 68.6066 106.879 68.6085 106.902M68.6028 106.832C68.564 106.856 68.5251 106.879 68.4863 106.902M68.6028 106.832C69.4351 106.327 70.2594 105.775 71.0585 105.196M68.6085 106.902C68.6589 107.516 68.7156 108.136 68.7789 108.767M68.6085 106.902C68.5677 106.902 68.527 106.902 68.4863 106.902M68.6085 106.902C69.9231 106.896 71.2432 106.833 72.5585 106.716M68.7789 108.767C68.7854 108.832 68.792 108.898 68.7987 108.963M68.7789 108.767C67.8713 108.608 66.9679 108.417 66.0696 108.198M68.7789 108.767C68.8739 108.784 68.9691 108.8 69.0643 108.816M68.7987 108.963C68.8219 109.191 68.846 109.42 68.8708 109.65M68.7987 108.963C67.9367 109.439 67.0637 109.89 66.1801 110.313M68.7987 108.963C68.8873 108.915 68.9759 108.866 69.0643 108.816M68.8708 109.65C67.979 109.904 67.0817 110.125 66.1801 110.313M68.8708 109.65C69.4984 109.471 70.1232 109.275 70.7449 109.062M70.0126 117.612C71.081 117.838 72.1568 118.027 73.2381 118.181M124.575 98.3587C125.273 96.4416 125.907 94.5965 126.456 92.8659C127.707 88.9288 128.84 84.9152 129.813 80.8504M124.575 98.3587C124.407 98.2888 124.239 98.2182 124.072 98.1471M129.813 80.8504C130.399 84.2129 130.393 87.9038 129.686 91.9374M133.007 61.7318C133.252 58.9823 133.397 56.2273 133.43 53.474M91.6858 11.8939C85.9357 13.979 80.444 16.7496 75.1336 19.8355M75.1336 19.8355C71.6759 21.8448 68.295 23.9878 64.9698 26.1623C62.8885 27.5233 60.8176 28.9115 58.7629 30.3293M75.1336 19.8355C73.3486 19.6495 71.4781 19.6978 69.3808 20.0323C65.3767 20.6707 61.8955 22.6504 58.8365 25.2125M58.7629 30.3293C57.3815 31.2825 56.0074 32.249 54.6425 33.2295M58.7629 30.3293C58.7546 30.1853 58.7475 30.0432 58.7415 29.903C58.6749 28.3438 58.7094 26.775 58.8365 25.2125M54.6425 33.2295C53.0023 34.4078 51.3754 35.6063 49.765 36.8263M54.6425 33.2295C53.221 33.5166 51.806 33.9267 50.4054 34.469M49.765 36.8263C49.4443 37.0691 49.1243 37.3129 48.805 37.5575M49.765 36.8263C49.3076 36.9802 48.8504 37.1357 48.3938 37.2932M48.805 37.5575C48.3996 37.8681 47.9952 38.18 47.592 38.4934M48.805 37.5575C48.5489 37.643 48.2935 37.7301 48.0388 37.819M47.592 38.4934C47.0581 38.9083 46.5262 39.3257 45.9964 39.7456M47.592 38.4934C47.7399 38.2678 47.8889 38.043 48.0388 37.819M47.592 38.4934C47.3994 38.787 47.2085 39.0821 47.0194 39.3784M45.9964 39.7456C43.1259 42.0206 40.3176 44.3691 37.5903 46.7983C37.2666 47.0867 36.9465 47.3724 36.63 47.6563M45.9964 39.7456C46.3357 39.618 46.6768 39.4955 47.0194 39.3784M45.9964 39.7456C43.4691 40.696 41.0358 41.9337 38.7518 43.4096M36.63 47.6563C33.6242 50.3519 30.9379 52.8795 28.5048 55.8591M36.63 47.6563C37.2568 46.0645 37.9568 44.6627 38.7518 43.4096M28.5048 55.8591C27.0882 57.2521 25.7315 58.7109 24.5318 60.2895M24.7734 87.8466C24.7773 87.855 24.7811 87.8633 24.785 87.8717M24.7734 87.8466C25.6464 87.0598 26.5365 86.2946 27.4369 85.5511M24.7734 87.8466L24.7641 87.855M24.785 87.8717C25.2304 88.8395 25.7432 89.8862 26.3073 90.9784M24.785 87.8717C24.778 87.8661 24.7711 87.8606 24.7641 87.855M24.785 87.8717C25.283 88.2692 25.7885 88.6588 26.2998 89.0402M26.3073 90.9784C26.3873 91.1332 26.4682 91.2889 26.5502 91.4455M26.3073 90.9784C26.2206 90.3238 26.2231 89.6766 26.2998 89.0402M26.3073 90.9784C26.326 91.119 26.3487 91.26 26.3758 91.4013M26.5502 91.4455C26.4918 91.4313 26.4337 91.4166 26.3758 91.4013M30.2159 97.8743C31.0192 99.1737 31.8469 100.446 32.6753 101.641M30.2159 97.8743C32.12 99.8909 34.4573 101.655 36.8328 103.15M32.6753 101.641C33.8312 103.308 34.9884 104.827 36.0823 106.063M32.6753 101.641C34.024 102.245 35.4224 102.746 36.8328 103.15M69.0643 108.816C70.2502 108.154 71.4153 107.449 72.5585 106.716M69.0643 108.816C69.623 108.91 70.1833 108.992 70.7449 109.062M72.5585 106.716C72.8383 106.537 73.1168 106.356 73.394 106.174M72.5585 106.716C73.1884 106.661 73.8172 106.593 74.4439 106.514M73.394 106.174C74.2418 105.615 75.0772 105.043 75.9 104.464M73.394 106.174C72.582 105.878 71.8057 105.553 71.0585 105.196M73.394 106.174C73.4324 106.187 73.4708 106.201 73.5093 106.215C73.8221 106.327 74.1336 106.427 74.4439 106.514M75.9 104.464C77.8807 103.069 79.7879 101.632 81.6166 100.24M75.9 104.464C75.171 104.043 74.4659 103.569 73.7895 103.039M81.6166 100.24C81.9437 99.9904 82.2684 99.7427 82.5906 99.4969L82.828 99.3158C84.4241 98.0982 86.0765 96.7951 87.7555 95.4186M81.6166 100.24C80.0172 100.209 78.4696 100.133 76.9525 100.008M87.7555 95.4186C88.1094 95.1284 88.4646 94.835 88.8206 94.5383M87.7555 95.4186C87.8534 94.8977 87.9386 94.3747 88.0107 93.8503M88.8206 94.5383C89.5403 93.9388 90.2637 93.3264 90.9885 92.702M88.8206 94.5383C88.7409 94.2095 88.6735 93.8768 88.6193 93.5406M90.9885 92.702C91.139 92.4511 91.2883 92.1971 91.4366 91.94M92.4145 91.4595C92.6542 91.2482 92.8938 91.0357 93.1334 90.822M92.4145 91.4595C92.4139 91.4105 92.4135 91.3615 92.4131 91.3125M92.4145 91.4595C92.4415 93.7382 92.7469 95.9981 93.3672 98.1345M93.1334 90.822C95.3687 88.8281 97.5957 86.7296 99.7474 84.5537M93.1334 90.822C92.8945 90.9889 92.6542 91.1524 92.4131 91.3125M93.1334 90.822C95.5796 89.1138 97.8979 87.0506 99.8018 84.5898M99.7474 84.5537C99.8658 84.434 99.984 84.314 100.102 84.1938M99.7474 84.5537C99.7655 84.5657 99.7836 84.5778 99.8018 84.5898M100.102 84.1938C100.544 83.7435 100.982 83.29 101.417 82.8335M100.102 84.1938C100.003 84.3269 99.903 84.4589 99.8018 84.5898M100.102 84.1938C100.594 83.5311 101.056 82.8404 101.483 82.121M101.417 82.8335C101.324 83.6719 101.179 84.5154 100.976 85.3635M101.417 82.8335C101.443 82.5956 101.465 82.3581 101.483 82.121M107.292 76.1351C107.432 75.9589 107.573 75.7824 107.712 75.6057M107.292 76.1351C107.398 76.2977 107.505 76.4612 107.611 76.6253M107.292 76.1351C107.147 75.9154 107.003 75.6971 106.859 75.4803C106.678 75.2092 106.5 74.9435 106.323 74.6828M107.712 75.6057C109.088 73.8571 110.373 72.0853 111.536 70.3018M107.712 75.6057C107.68 75.9465 107.647 76.2864 107.611 76.6253M107.712 75.6057C107.788 74.7729 107.851 73.9348 107.901 73.0934M111.536 70.3018C111.623 70.1688 111.709 70.0357 111.795 69.9025M111.536 70.3018C111.706 70.374 111.875 70.4516 112.044 70.535M111.536 70.3018C111.285 70.1947 111.033 70.0999 110.782 70.0168M111.795 69.9025C112.412 68.9411 112.993 67.9766 113.535 67.0106C113.704 66.7093 113.872 66.4044 114.04 66.0964M111.795 69.9025C111.884 70.1079 111.967 70.3187 112.044 70.535M111.795 69.9025C111.695 69.673 111.588 69.4502 111.474 69.2339M114.04 66.0964C113.303 67.0752 112.434 68.1341 111.474 69.2339M116.168 61.625C116.482 60.8255 116.758 60.0148 116.981 59.1968M116.168 61.625C115.436 61.1571 114.684 60.7086 113.913 60.2792M116.168 61.625C116.343 61.7374 116.518 61.851 116.691 61.9656M116.981 59.1968C117.028 59.027 117.072 58.8569 117.114 58.6865M116.981 59.1968C117.218 59.4703 117.451 59.7478 117.679 60.029M116.981 59.1968C116.889 59.0897 116.796 58.9831 116.702 58.8772M117.114 58.6865C117.212 58.2838 117.297 57.8795 117.367 57.474M117.114 58.6865C117.346 58.5802 117.583 58.4738 117.824 58.3676M117.114 58.6865C116.975 58.7501 116.837 58.8137 116.702 58.8772M117.367 57.474C117.521 57.7716 117.673 58.0695 117.824 58.3676M109.152 43.8867C108.865 43.4815 108.579 43.0858 108.296 42.7003C108.123 42.4659 107.95 42.2322 107.774 41.9994M104.997 42.2788C104.844 41.7101 104.682 41.1306 104.511 40.5419M83.3205 42.729C81.2043 43.22 79.2185 43.7756 77.3286 44.4029M83.3205 42.729C84.465 43.7858 85.5514 44.9048 86.5702 46.0753M77.3286 44.4029C75.9645 44.8557 74.6503 45.3457 73.373 45.8759M77.3286 44.4029C78.2763 45.0436 79.1976 45.718 80.0895 46.4256M73.373 45.8759C70.0382 47.2598 66.9546 48.9166 63.8898 50.8937M73.373 45.8759C74.4152 46.2121 75.4306 46.5887 76.4196 47.0038M63.8898 50.8937C62.198 51.9851 60.5119 53.1741 58.7926 54.4687M63.8898 50.8937C63.9452 51.019 64.0008 51.143 64.0565 51.2656M58.7926 54.4687C59.9617 53.6425 61.2119 52.8469 62.603 52.0549C63.081 51.7828 63.5657 51.5197 64.0565 51.2656M55.8485 56.7629C55.72 56.8673 55.5919 56.9722 55.4642 57.0776M55.8485 56.7629C55.8604 56.8097 55.872 56.8568 55.8834 56.9039M55.8485 56.7629C55.8472 56.7577 55.8459 56.7525 55.8446 56.7474M55.4642 57.0776C55.3915 57.1376 55.3189 57.1978 55.2465 57.2581M55.4642 57.0776C55.4586 57.08 55.4531 57.0823 55.4475 57.0846M55.4642 57.0776C55.603 57.0192 55.7428 56.9613 55.8834 56.9039M55.2465 57.2581C52.5786 59.4792 50.0748 61.9173 47.7984 64.5414C47.6394 64.7247 47.4658 64.9335 47.2804 65.1648M55.2465 57.2581C55.3134 57.2001 55.3804 57.1422 55.4475 57.0846M55.2465 57.2581C53.7611 58.5462 52.3092 59.9503 50.728 61.5439C49.5737 62.7071 48.4141 63.9137 47.2804 65.1648M47.2804 65.1648C45.9868 66.7788 44.1176 69.4878 42.6094 72.2621M47.2804 65.1648C45.0607 67.6144 42.9404 70.2349 41.1552 73.0353M42.6094 72.2621C41.896 73.5745 41.2633 74.9015 40.8106 76.1341M42.6094 72.2621C43.4425 71.8343 44.3129 71.411 45.2302 70.9838C48.4286 69.4945 51.8961 68.1204 55.4859 67.0289M42.6094 72.2621C42.112 72.5176 41.628 72.7747 41.1552 73.0353M40.8106 76.1341C40.7452 76.3121 40.6836 76.4881 40.626 76.6618M40.8106 76.1341C45.3847 73.3372 50.5041 70.5212 55.1501 68.3236M40.8106 76.1341C40.6938 76.2055 40.5773 76.2769 40.4613 76.3483M40.626 76.6618C40.3281 77.5605 40.1386 78.3977 40.0988 79.128C40.0754 79.557 40.0853 79.9807 40.1252 80.3985M40.626 76.6618C40.5705 76.5576 40.5156 76.4531 40.4613 76.3483M40.1252 80.3985C39.923 80.0204 39.7268 79.6378 39.5367 79.2509C39.2511 78.6693 38.9744 78.0788 38.7078 77.4805M43.006 86.6583C44.4562 88.397 46.2488 89.8524 47.9066 90.9136C48.0004 90.9736 48.0944 91.0332 48.1887 91.0922M43.006 86.6583C43.2844 86.4464 43.559 86.2299 43.8297 86.009M48.1887 91.0922C49.0607 91.6384 49.9567 92.1453 50.8709 92.6192M48.1887 91.0922C48.2473 90.9548 48.3075 90.8179 48.3694 90.6816M48.1887 91.0922C47.5115 92.6808 47.0544 94.3418 46.8973 96.0646C46.7993 97.1381 46.8328 98.1832 46.98 99.1964M50.8709 92.6192C53.3967 93.9286 56.061 94.9863 58.7384 95.9256C59.2722 96.1129 59.8 96.2935 60.3225 96.4676M50.8709 92.6192C50.0068 92.0119 49.1723 91.3653 48.3694 90.6816M50.8709 92.6192C52.987 94.1066 55.2814 95.3586 57.7284 96.3453C58.8897 96.8136 60.0774 97.2308 61.2843 97.5743M60.3225 96.4676C62.8951 97.3249 65.3404 98.0238 67.7499 98.5772M60.3225 96.4676C59.0041 94.8914 57.8091 93.2052 56.7856 91.4241M60.3225 96.4676C60.6363 96.8428 60.9571 97.2117 61.2843 97.5743M67.7499 98.5772C67.6659 98.6268 67.5817 98.6761 67.4974 98.7252M68.9764 98.8469C69.3713 98.9299 69.7656 99.009 70.1597 99.0842M68.9764 98.8469C69.4309 98.8617 69.7461 98.84 69.9802 98.7934M70.1597 99.0842C71.9327 99.4227 73.7028 99.6837 75.5072 99.8725M70.1597 99.0842C70.0987 98.988 70.0388 98.891 69.9802 98.7934M70.1597 99.0842C70.5306 99.6688 70.9457 100.227 71.3949 100.755M75.5072 99.8725C75.9863 99.9226 76.4679 99.9677 76.9525 100.008M75.5072 99.8725C74.1953 100.212 72.8238 100.506 71.3949 100.755M75.5072 99.8725C76.2373 99.6834 76.949 99.48 77.6418 99.2618M76.9525 100.008C76.6689 100.309 76.3845 100.603 76.1001 100.891C75.4116 101.588 74.6321 102.315 73.7895 103.039M76.9525 100.008C77.183 99.7632 77.4129 99.5145 77.6418 99.2618M85.226 100.233C85.5307 100.227 85.8375 100.219 86.1467 100.209C86.2608 100.206 86.3744 100.202 86.4876 100.199M85.226 100.233C83.161 102.313 80.8639 104.083 78.2484 105.616M85.226 100.233C85.8789 99.5756 86.5086 98.8871 87.1178 98.1656M86.4876 100.199C88.1872 100.141 89.7911 100.039 91.3315 99.8819M86.4876 100.199C86.0379 101.507 85.5106 102.791 84.9129 104.04M86.4876 100.199C86.7184 99.5271 86.9287 98.849 87.1178 98.1656M91.3315 99.8819C91.4719 99.8675 91.6118 99.8528 91.7512 99.8375M91.3315 99.8819C90.3902 98.558 89.6215 97.1142 89.117 95.5773M91.3315 99.8819C91.3834 99.9548 91.4358 100.027 91.4887 100.1M91.7512 99.8375C92.4589 99.7602 93.1536 99.6709 93.8385 99.5686M91.7512 99.8375C91.6636 99.9257 91.576 100.013 91.4887 100.1M91.7512 99.8375C92.2885 99.297 92.8304 98.7262 93.3672 98.1345M93.8385 99.5686C93.9005 99.5594 93.9623 99.55 94.0241 99.5406M93.8385 99.5686C93.6649 99.0978 93.5079 98.6193 93.3672 98.1345M93.8385 99.5686C93.8476 99.5932 93.8567 99.6177 93.8658 99.6422M94.0241 99.5406C93.9714 99.5746 93.9187 99.6085 93.8658 99.6422M99.5443 98.3528C98.2505 99.8924 96.805 101.316 95.2453 102.579M99.5443 98.3528C100.937 96.6959 102.154 94.9046 103.148 93.0353C103.642 92.1055 104.093 91.1283 104.503 90.1105M112.671 92.5004C113.446 91.9875 114.207 91.4407 114.945 90.8608M120.035 85.7118C119.865 87.2655 119.456 88.8042 118.791 90.2654C118.105 91.7708 117.288 93.1759 116.359 94.4812M123.684 73.3009C123.569 72.1455 123.342 70.9987 123.02 69.8687M123.684 73.3009C123.38 72.1109 123.054 70.9805 122.717 69.9314C122.564 69.4534 122.401 68.9681 122.227 68.4763M123.02 69.8687C122.603 68.4074 122.027 66.9741 121.324 65.5865M123.02 69.8687C122.776 69.3967 122.512 68.9323 122.227 68.4763M121.324 65.5865C121.067 65.0804 120.794 64.5803 120.505 64.0871M121.324 65.5865C121.222 65.4919 121.119 65.3979 121.016 65.3045M120.505 64.0871C120.68 64.4951 120.85 64.9011 121.016 65.3045M117.679 60.029C117.365 60.6947 117.032 61.3439 116.691 61.9656M117.679 60.029C117.839 59.6904 117.994 59.3475 118.142 59.0017M116.702 58.8772C116.62 58.9156 116.538 58.9539 116.458 58.9923C115.606 59.3969 114.756 59.826 113.913 60.2792M86.5702 46.0753C84.4057 46.0509 82.2369 46.1688 80.0895 46.4256M80.0895 46.4256C78.8575 46.5729 77.6326 46.7659 76.4196 47.0038M76.4196 47.0038C72.072 47.8567 67.8768 49.2877 64.0565 51.2656M55.8446 56.7474C55.7118 56.859 55.5795 56.9714 55.4475 57.0846M41.1552 73.0353C40.7084 73.7362 40.2826 74.4484 39.8815 75.1719M41.1552 73.0353C40.6302 73.3247 40.1192 73.6183 39.6193 73.9187M39.8815 75.1719C39.4713 75.9118 39.087 76.6635 38.7324 77.4273M39.8815 75.1719C39.7286 74.8451 39.5812 74.5155 39.4394 74.1834M39.8815 75.1719C40.0667 75.5681 40.2601 75.9603 40.4613 76.3483M38.7324 77.4273C38.7242 77.4451 38.716 77.4628 38.7078 77.4805M38.7324 77.4273C39.2977 77.0692 39.8747 76.709 40.4613 76.3483M38.7324 77.4273C38.7198 77.4353 38.7073 77.4432 38.6947 77.4512M38.7078 77.4805C38.3416 78.2729 38.0075 79.0784 37.7099 79.897C36.7787 82.4578 36.1923 86.5169 36.9881 89.2796C37.0685 89.5585 37.1609 89.833 37.2646 90.1031M38.7078 77.4805C38.7034 77.4707 38.699 77.461 38.6947 77.4512M38.0074 91.6607C37.5842 91.2235 37.1691 90.779 36.7631 90.327M45.1156 98.7082C45.808 99.1981 46.491 99.6598 47.1418 100.095M45.1156 98.7082C45.7351 98.889 46.3583 99.0626 46.9847 99.2286M47.1418 100.095C47.1747 100.117 47.2075 100.139 47.2402 100.161C49.4907 101.666 51.4195 102.891 53.5132 103.883M47.1418 100.095C47.0803 99.8092 47.0278 99.5202 46.9847 99.2286M53.5132 103.883C55.0901 104.631 56.7605 105.246 58.7323 105.751M53.5132 103.883C53.8129 103.83 54.112 103.774 54.4104 103.714M58.7323 105.751C58.8306 105.777 58.9297 105.801 59.0295 105.826C62.0475 106.57 65.2496 106.909 68.4863 106.902M58.7323 105.751C57.268 105.135 55.8259 104.452 54.4104 103.714M58.7323 105.751C61.1255 106.759 63.5779 107.59 66.0696 108.198M68.4863 106.902C67.6824 107.385 66.8718 107.823 66.0696 108.198M77.5307 106.026C77.9193 105.952 78.3065 105.874 78.6917 105.792M77.5307 106.026C77.0241 106.308 76.5058 106.583 75.9752 106.849M77.5307 106.026C77.7726 105.891 78.0118 105.755 78.2484 105.616M78.6917 105.792C80.7519 105.352 82.7589 104.791 84.6707 104.125C84.7515 104.097 84.8322 104.069 84.9129 104.04M78.6917 105.792C78.5433 105.735 78.3955 105.676 78.2484 105.616M78.6917 105.792C79.5105 106.107 80.3491 106.371 81.2017 106.589M84.9129 104.04C86.3237 103.539 87.7123 102.961 89.0706 102.311M84.9129 104.04C84.6759 104.535 84.4279 105.025 84.1693 105.509M89.0706 102.311C90.0655 101.835 91.0442 101.321 92.0034 100.771M89.0706 102.311C88.9374 102.422 88.8058 102.529 88.6759 102.633C87.2369 103.783 85.732 104.767 84.1693 105.509M89.0706 102.311C89.837 101.674 90.6553 100.925 91.4887 100.1M92.0034 100.771C92.6329 100.41 93.254 100.034 93.8658 99.6422M92.0034 100.771C91.8271 100.551 91.6553 100.327 91.4887 100.1M104.503 90.1105C104.942 89.5626 105.369 89.0049 105.787 88.4397M104.503 90.1105C104.767 89.4569 105.013 88.7864 105.244 88.1011M105.787 88.4397C106.455 87.5352 107.097 86.6114 107.717 85.6771C108.613 84.3297 109.591 82.8416 110.435 81.2578M105.787 88.4397C105.606 88.3272 105.425 88.2143 105.244 88.1011M110.435 81.2578C112.14 78.0612 113.304 74.475 112.157 70.8697C112.121 70.7567 112.084 70.6451 112.044 70.535M110.435 81.2578C109.526 79.6593 108.574 78.1105 107.611 76.6253M111.474 69.2339C110.642 67.6558 109.44 66.4213 108.036 65.4339M111.474 69.2339C111.248 69.4927 111.017 69.7539 110.782 70.0168M108.036 65.4339C108.065 66.8021 108.068 68.1784 108.041 69.5539M108.036 65.4339C108.025 64.9417 108.011 64.4505 107.993 63.9608M106.942 64.7353C105.886 64.1211 104.75 63.6182 103.594 63.1925M106.942 64.7353C106.049 65.4116 105.179 66.1187 104.336 66.8565M103.594 63.1925C103.926 64.4548 104.171 65.6758 104.336 66.8565M103.594 63.1925C103.389 62.4131 103.151 61.6179 102.879 60.8067M94.8084 60.9787C94.6005 60.9465 94.3924 60.9156 94.1844 60.8861M94.8084 60.9787C94.8769 61.2031 94.9437 61.4284 95.0089 61.6546M94.1844 60.8861C93.971 60.8559 93.7577 60.8271 93.5443 60.7998M94.1844 60.8861C94.462 61.142 94.7369 61.3984 95.0089 61.6546M94.1844 60.8861C93.5677 60.3177 92.9371 59.7515 92.2927 59.1943M93.5443 60.7998C92.8299 60.7082 92.1153 60.6325 91.4006 60.5722M93.5443 60.7998C94.2011 61.6772 94.8355 62.5813 95.448 63.5104C95.4766 63.5537 95.505 63.597 95.5335 63.6404M93.5443 60.7998C93.1358 60.2541 92.7186 59.7188 92.2927 59.1943M91.4006 60.5722C92.9111 63.8368 93.9646 67.39 94.4635 71.211C94.7553 73.4467 94.8713 75.5409 94.8183 77.4999M91.4006 60.5722C90.8067 59.2886 90.1422 58.0497 89.413 56.8566M71.5974 62.406C72.2993 63.1886 73.0218 63.9532 73.7608 64.7011M62.0371 65.4078C61.3849 65.652 60.7353 65.9027 60.0885 66.1596C58.6888 66.7154 57.1923 67.3685 55.6379 68.0943M62.0371 65.4078C60.1197 65.7684 58.2117 66.2327 56.3336 66.7772M55.6379 68.0943C55.4759 68.17 55.3133 68.2464 55.1501 68.3236M55.6379 68.0943C55.8315 67.6965 56.0666 67.2529 56.3336 66.7772M55.1501 68.3236C55.2675 67.9039 55.3802 67.4714 55.4859 67.0289M31.2317 82.5772C29.9593 83.5265 28.6882 84.5179 27.4369 85.5511M27.4369 85.5511C26.8591 86.6611 26.4456 87.8313 26.2998 89.0402M24.7641 87.855C24.1211 88.4349 23.4874 89.0264 22.8658 89.6297M22.8658 89.6297C23.9122 90.4437 25.0887 91.0618 26.3758 91.4013M21.7275 90.762C21.1327 91.3688 20.5512 91.987 19.9857 92.6164M21.7275 90.762C21.31 89.7011 20.9729 88.5967 20.7078 87.4633M82.3011 108.623C82.5386 108.268 82.7703 107.908 82.9958 107.544M82.3011 108.623C82.9385 108.488 83.5757 108.334 84.2125 108.159M82.9958 107.544C83.1011 107.374 83.2051 107.203 83.3077 107.032M82.9958 107.544C83.4019 107.76 83.8075 107.965 84.2125 108.159M82.9958 107.544C82.463 107.261 81.9293 106.959 81.3949 106.637M83.3077 107.032C83.6066 106.531 83.8939 106.023 84.1693 105.509M83.3077 107.032C82.6642 106.924 82.0258 106.793 81.3949 106.637M83.3077 107.032C84.4023 107.215 85.5118 107.334 86.6251 107.396M84.1693 105.509C83.2016 105.968 82.2118 106.334 81.2017 106.589M87.1178 98.1656C87.8092 97.3467 88.4743 96.485 89.117 95.5773M88.0107 93.8503C88.0207 93.7773 88.0305 93.7043 88.04 93.6313M88.0107 93.8503C87.8419 93.9345 87.6735 94.0172 87.5055 94.0985M88.0107 93.8503C88.2131 93.7492 88.4161 93.646 88.6193 93.5406M88.04 93.6313C88.2704 91.864 88.3517 90.081 88.2684 88.3034M88.04 93.6313C87.865 93.7895 87.6868 93.9452 87.5055 94.0985M88.04 93.6313C88.2171 93.4711 88.391 93.3083 88.5617 93.1429M88.2684 88.3034C88.1626 86.0462 87.7916 83.7974 87.1241 81.5999C86.8116 80.5714 86.4733 79.6495 86.0798 78.7965M88.2684 88.3034C87.2595 88.8283 86.2373 89.3251 85.2026 89.7912C84.781 89.9811 84.3651 90.1641 83.9544 90.3402M88.2684 88.3034C88.4995 88.1831 88.7299 88.0614 88.9596 87.9382M86.0798 78.7965C85.7471 78.0752 85.3749 77.4032 84.9455 76.7579M86.0798 78.7965C86.4813 80.9454 86.451 83.1899 86.2063 84.2857C85.7461 86.3462 84.9594 88.3805 83.9544 90.3402M86.0798 78.7965C85.8722 77.6848 85.549 76.5988 85.0802 75.7106M84.9455 76.7579C84.2753 75.7505 83.4658 74.8078 82.4496 73.8434C82.368 73.766 82.2861 73.6902 82.2039 73.616M84.9455 76.7579C84.2731 80.7961 81.8861 84.8317 79.8217 87.6445C78.2577 89.7754 76.7126 91.5719 75.0233 93.1799M84.9455 76.7579C85.0037 76.4085 85.049 76.0592 85.0802 75.7106M82.2039 73.616C83.4972 73.6249 84.4291 74.477 85.0802 75.7106M53.5819 83.2198C52.2925 84.588 51.0883 86.0603 50.0646 87.6236M53.5819 83.2198C54.2022 86.1196 55.3174 88.8694 56.7856 91.4241M50.0646 87.6236C49.4201 88.6079 48.8471 89.6283 48.3694 90.6816M50.0646 87.6236C48.619 86.552 47.2605 85.3571 46.0064 84.0576M50.0646 87.6236C52.142 89.1635 54.3993 90.4488 56.7856 91.4241M48.3694 90.6816C46.718 89.2753 45.1997 87.7119 43.8297 86.009M46.98 99.1964C46.9816 99.2071 46.9831 99.2179 46.9847 99.2286M46.98 99.1964C47.004 99.2131 47.028 99.2297 47.052 99.2464M46.9847 99.2286C47.0071 99.2345 47.0295 99.2405 47.052 99.2464M48.8296 104.43C49.9647 106.418 51.5103 108.211 53.2648 109.768M53.2648 109.768C53.7734 110.22 54.2994 110.651 54.8381 111.062M110.296 112.354C113.588 110.708 116.624 108.563 119.301 105.603C121.268 103.428 122.991 100.897 124.072 98.1471M124.072 98.1471C124.273 97.6357 124.452 97.1167 124.606 96.5911C125.865 92.3008 125.895 86.9743 125.281 81.8212M124.072 98.1471C123.135 97.7489 122.205 97.3335 121.283 96.9036C120.934 96.7406 120.586 96.5766 120.241 96.4118M125.281 81.8212C124.907 86.8249 123.106 91.916 120.241 96.4118M122.227 68.4763C121.864 67.4439 121.458 66.3834 121.016 65.3045M118.142 59.0017C118.037 58.7903 117.931 58.5789 117.824 58.3676M103.265 36.5672C101.678 34.8352 100.002 33.1806 98.2407 31.628M103.265 36.5672C103.72 37.925 104.137 39.2555 104.511 40.5419M58.8365 25.2125C56.5615 27.1179 54.5201 29.3453 52.6706 31.5828C51.8961 32.5198 51.1407 33.4832 50.4054 34.469M50.4054 34.469C49.7171 35.3919 49.0463 36.3344 48.3938 37.2932M50.4054 34.469C49.6459 34.7631 48.8906 35.0961 48.1409 35.4695C45.5894 36.7401 43.491 38.1051 41.7377 39.7692M48.3938 37.2932C48.2748 37.4679 48.1565 37.6432 48.0388 37.819M48.3938 37.2932C46.1573 38.0643 43.9318 38.8808 41.7377 39.7692M48.0388 37.819C45.4431 38.7246 42.9183 39.8061 40.4849 41.0776M43.0638 46.2168C40.3183 47.1696 38.0698 48.2476 35.9321 49.6382M39.3868 74.0594C39.4042 74.1008 39.4218 74.1421 39.4394 74.1834M39.3868 74.0594C39.464 74.0123 39.5415 73.9654 39.6193 73.9187M39.3868 74.0594C38.8207 74.4044 38.2686 74.7586 37.7264 75.1258M39.4394 74.1834C39.4995 74.0949 39.5594 74.0067 39.6193 73.9187M46.0064 84.0576C45.3115 84.7407 44.5856 85.3921 43.8297 86.009M56.7856 91.4241C59.0187 92.3369 61.3647 92.9783 63.7817 93.303C65.3723 93.5167 66.8699 93.6431 68.3068 93.6827M75.0233 93.1799C77.925 92.6456 80.7889 91.6976 83.9544 90.3402M75.0233 93.1799C73.3291 94.7925 71.4901 96.2153 69.3417 97.5956M83.9544 90.3402C82.7319 92.7241 81.1866 94.9977 79.5131 97.0742M88.9596 87.9382C90.3108 87.2137 91.6372 86.4392 92.9363 85.6217M88.9596 87.9382C89.6381 85.3674 90.9251 82.8651 92.3088 80.8187C92.5035 80.5309 92.7076 80.2375 92.9207 79.9403M88.9596 87.9382C88.6646 89.0558 88.4847 90.1864 88.4618 91.298C88.4489 91.9231 88.4838 92.5385 88.5617 93.1429M92.9363 85.6217C93.1319 85.4986 93.3268 85.3745 93.5212 85.2495M92.9363 85.6217C93.2478 83.9793 93.6929 82.3753 94.2571 80.8515M92.9363 85.6217C92.8236 86.2157 92.7284 86.8148 92.6514 87.4169M93.5212 85.2495C94.0294 84.9225 94.5334 84.5891 95.0329 84.2495M93.5212 85.2495C93.2671 86.0005 92.9769 86.7228 92.6514 87.4169M93.5212 85.2495C93.9666 83.9329 94.301 82.5278 94.5203 81.0309M95.0329 84.2495C95.5834 83.8752 96.1285 83.4935 96.668 83.1049C96.8112 83.0018 96.9568 82.8953 97.1047 82.7857M95.0329 84.2495C94.3267 86.2772 93.4317 88.2477 92.4295 90.1431M95.0329 84.2495C95.3055 83.4666 95.55 82.6751 95.7617 81.8762M97.1047 82.7857C96.6587 82.4848 96.2112 82.1816 95.7617 81.8762M101.495 79.1937C102.198 78.5754 102.914 77.9275 103.634 77.2593M101.495 79.1937C101.558 80.1619 101.556 81.1379 101.483 82.121M101.495 79.1937C101.348 76.918 100.843 74.685 100.073 72.5025M103.634 77.2593C103.101 79.0088 102.368 80.627 101.483 82.121M103.634 77.2593C104.117 75.6726 104.435 73.978 104.552 72.1702M106.323 74.6828C106.856 74.1564 107.383 73.6253 107.901 73.0934M107.901 73.0934C108.907 72.0612 109.877 71.026 110.782 70.0168M107.901 73.0934C107.972 71.918 108.018 70.7362 108.041 69.5539M110.782 70.0168C109.865 69.7142 108.949 69.5677 108.041 69.5539M119.287 48.7197C121.924 50.6268 124.416 52.7314 126.856 55.0981M63.0059 32.888C64.919 33.103 66.8146 33.5096 68.6723 34.085M59.1404 33.9107C59.082 33.5086 59.029 33.1132 58.9821 32.7256M41.7377 39.7692C41.2991 40.1855 40.882 40.6206 40.4849 41.0776M20.0807 83.6129C20.2092 84.9188 20.4144 86.2088 20.7078 87.4633M47.052 99.2464C51.8898 100.524 56.9197 101.344 61.9242 101.457M47.052 99.2464C49.4006 100.875 51.8623 102.385 54.4104 103.714M61.9242 101.457C63.0397 101.483 64.154 101.473 65.2646 101.425M61.9242 101.457C59.4935 102.44 56.976 103.2 54.4104 103.714M61.9242 101.457C62.683 101.15 63.4334 100.822 64.1741 100.472M65.2646 101.425C64.8982 101.118 64.5352 100.8 64.1741 100.472M71.3949 100.755C71.8228 101.257 72.2817 101.73 72.7629 102.17C73.0969 102.475 73.4394 102.765 73.7895 103.039M77.6418 99.2618C81.5547 98.0297 84.8657 96.3288 87.5055 94.0985M77.6418 99.2618C78.2763 98.5616 78.9032 97.831 79.5131 97.0742M87.5055 94.0985C84.5536 95.5255 81.7275 96.4935 79.5131 97.0742M88.5617 93.1429C90.2583 91.4982 91.6292 89.5962 92.6514 87.4169M88.5617 93.1429C88.5788 93.276 88.598 93.4086 88.6193 93.5406M92.6514 87.4169C92.5357 88.321 92.461 89.2319 92.4295 90.1431M94.5203 81.0309C94.5798 80.6253 94.6308 80.2131 94.6732 79.794M94.5203 81.0309C94.4326 80.9711 94.3449 80.9113 94.2571 80.8515M94.5203 81.0309C94.6571 81.1241 94.7939 81.2173 94.9306 81.3105C95.2084 81.5 95.4854 81.6885 95.7617 81.8762M94.6732 79.794C94.7485 79.0508 94.797 78.2863 94.8183 77.4999M94.6732 79.794C94.798 79.495 94.9274 79.1997 95.0614 78.9084C95.5522 77.8415 96.1035 76.8069 96.7085 75.8048M94.6732 79.794C94.5281 80.1417 94.3894 80.4944 94.2571 80.8515M94.8183 77.4999C95.416 76.7908 96.0549 76.085 96.7292 75.4035M94.8183 77.4999C94.1275 78.3195 93.4919 79.1436 92.9207 79.9403M89.413 56.8566C90.402 57.6034 91.3618 58.3895 92.2927 59.1943M87.6941 54.2891C87.3399 53.8041 86.9743 53.3277 86.5981 52.8602M87.6941 54.2891C87.1438 53.7838 86.5815 53.2942 86.0071 52.8208M86.5981 52.8602C86.4011 52.8464 86.2041 52.8333 86.0071 52.8208M86.5981 52.8602C88.2876 52.9788 89.9774 53.1485 91.6572 53.3708M59.8058 37.6542C59.6197 36.7566 59.454 35.8714 59.3115 35.0099M38.7518 43.4096C35.8722 45.2703 33.2298 47.5098 30.9351 50.03C28.5768 52.6201 26.3291 56.3906 24.5318 60.2895M38.7518 43.4096C39.2846 42.5696 39.8601 41.7965 40.4849 41.0776M64.1741 100.472C65.3058 99.938 66.4149 99.3548 67.4974 98.7252M64.1741 100.472C63.7562 100.092 63.3409 99.6979 62.9264 99.2894C62.3641 98.7353 61.8158 98.1633 61.2843 97.5743M67.4974 98.7252C66.7057 98.6338 65.6926 98.4881 64.384 98.2737C63.34 98.1026 62.3053 97.8648 61.2843 97.5743M69.3417 97.5956C69.5329 98.0046 69.7467 98.4044 69.9802 98.7934M85.0802 75.7106C85.1181 75.2873 85.1351 74.865 85.1289 74.4454M85.1289 74.4454C87.6782 76.3425 90.296 78.1486 92.9207 79.9403M56.3336 66.7772C56.0503 66.8593 55.7678 66.9432 55.4859 67.0289M56.3336 66.7772C58.0889 63.6502 61.2259 59.1317 63.0658 57.0439C63.884 56.1155 64.7584 55.2256 65.7014 54.4234M55.4859 67.0289C56.2513 63.826 56.6539 60.0996 55.8834 56.9039M71.0585 105.196C72.0145 104.504 72.9345 103.773 73.7895 103.039M79.5131 97.0742C78.3432 97.381 77.344 97.5798 76.5873 97.6811C70.0534 97.481 71.2959 98.5313 69.9802 98.7934M98.1056 106.274C98.1691 106.258 98.2324 106.242 98.2958 106.225M98.1056 106.274C98.9665 107.115 99.9334 107.876 101.012 108.542C101.751 108.999 102.515 109.425 103.301 109.82M116.152 94.7674C116.222 94.6726 116.291 94.5772 116.359 94.4812M116.152 94.7674C116.554 96.3387 116.853 97.92 117.026 99.5017C117.065 99.8553 117.092 100.224 117.106 100.603M116.152 94.7674C116.113 94.6155 116.074 94.4636 116.033 94.3119M116.359 94.4812C116.25 94.4249 116.141 94.3684 116.033 94.3119M116.359 94.4812C117.628 95.1382 118.92 95.7816 120.241 96.4118M104.599 70.1049C104.18 70.2422 103.764 70.4029 103.353 70.5844M104.599 70.1049C104.612 70.8092 104.596 71.4975 104.552 72.1702M104.599 70.1049C104.579 69.0576 104.493 67.9751 104.336 66.8565M103.353 70.5844C102.221 71.0837 101.123 71.7407 100.073 72.5025M103.353 70.5844C103.752 71.0965 104.151 71.6232 104.552 72.1702M103.353 70.5844C102.927 70.0391 102.499 69.5104 102.066 68.9914M97.336 74.8062C97.1308 75.0028 96.9284 75.2021 96.7292 75.4035M97.336 74.8062C98.0691 73.6841 98.8696 72.6051 99.7275 71.5696M97.336 74.8062C97.121 75.1354 96.9117 75.4683 96.7085 75.8048M96.7292 75.4035C96.723 75.5375 96.7161 75.6713 96.7085 75.8048M96.7292 75.4035C96.9058 71.5546 96.464 67.5109 95.5335 63.6404M92.9207 79.9403C93.3661 80.2443 93.8117 80.5479 94.2571 80.8515M88.6193 93.5406C89.557 93.0543 90.5012 92.5215 91.4366 91.94M94.3604 103.269C94.6592 103.044 94.9543 102.814 95.2453 102.579M104.96 109.252C108.073 110.251 111.878 110.799 114.414 108.608C116.598 106.721 117.211 103.388 117.106 100.603M104.96 109.252C109.642 107.474 113.792 104.401 117.106 100.603M117.106 100.603C118.256 99.2853 119.305 97.8803 120.241 96.4118M107.611 76.6253C107.183 80.6798 106.426 84.5866 105.244 88.1011M102.066 68.9914C102.795 68.2536 103.554 67.5419 104.336 66.8565M95.0089 61.6546C95.1979 62.3101 95.3729 62.9727 95.5335 63.6404M82.3519 52.669C83.567 52.6933 84.7867 52.7438 86.0071 52.8208M66.3021 53.9321C66.0988 54.0917 65.8986 54.2557 65.7014 54.4234M66.3021 53.9321C66.0356 53.982 65.7704 54.0333 65.5066 54.086M65.7014 54.4234C65.6359 54.3113 65.571 54.1988 65.5066 54.086M75.9752 106.849C77.768 107.13 79.5132 107.015 81.2017 106.589M81.2017 106.589C81.266 106.605 81.3304 106.621 81.3949 106.637M93.3672 98.1345C96.0341 95.1949 98.5753 91.7382 99.7962 88.8984C100.306 87.7118 100.696 86.5332 100.976 85.3635M100.976 85.3635C100.585 85.1073 100.194 84.8494 99.8018 84.5898M99.7275 71.5696C98.666 68.8398 97.2062 66.1917 95.5335 63.6404M35.9321 49.6382C35.5095 50.9965 35.1899 52.3794 34.9648 53.7779M55.8834 56.9039C58.7638 55.7288 62.0147 54.7839 65.5066 54.086M84.2125 108.159C85.0176 107.938 85.8221 107.684 86.6251 107.396M59.3115 35.0099C61.5323 34.655 63.7802 34.4019 66.0443 34.2432C66.9357 34.1807 67.8111 34.1278 68.6723 34.085M95.7617 81.8762C95.9643 81.1116 96.1368 80.34 96.2752 79.5625C96.4923 78.3422 96.6351 77.0851 96.7085 75.8048M92.4295 90.1431C92.1502 90.6715 91.8624 91.1941 91.5682 91.7104C91.5244 91.7872 91.4805 91.8637 91.4366 91.94" stroke="#DD3C3C" stroke-linecap="round"/>
</svg>
