<svg width="188" height="131" viewBox="0 0 188 131" fill="none" xmlns="http://www.w3.org/2000/svg">
<path opacity="0.5" d="M187 57.6925L169.947 1L145.061 1.55699L157.116 22.6942L143.428 34.5065L135.143 26.7159L144.4 10.7366L102.798 28.2437L110.205 44.8422M110.205 44.8422L113.89 53.0995M110.205 44.8422L119.831 46.8019L113.89 53.0995M110.205 44.8422L87.8055 40.2818L79.4491 73.8062L62.9295 58.2718M113.89 53.0995L115.784 57.3443M113.89 53.0995L79.5455 89.5059L65.5122 114.788L123.955 115.658L134.91 106.357L96.4039 89.7497L115.784 57.3443M115.784 57.3443L120.662 68.2747L139.958 68.6325L120.723 89.0227L162.796 87.2042L167.274 69.7387M115.784 57.3443L126.001 40.2617L162.607 74.6851L167.274 69.7387M167.274 69.7387L169.825 59.7879M167.274 69.7387L173.677 62.9511L169.825 59.7879M169.825 59.7879L171.345 53.861L173.71 32.8535L149.298 42.9301L169.825 59.7879ZM62.9295 58.2718L55.9437 51.7027L64.3512 38.8603M62.9295 58.2718L75.0401 39.168L64.3512 38.8603M62.9295 58.2718L61.6319 60.3186L18.2817 50.7723L13.3851 57.4267M64.3512 38.8603L87.2745 3.84527L63.7825 7.16464L61.7954 15.8231L47.5805 10.0791L40.2275 22.007M64.3512 38.8603L46.159 38.3366M40.2275 22.007L30.4399 37.8842L46.159 38.3366M40.2275 22.007L50.9074 27.3647L46.159 38.3366M40.2275 22.007L22.7735 13.2509M46.159 38.3366L43.203 45.167L10.7677 43.7064L13.3851 57.4267M13.3851 57.4267L2.81014 71.7977L17.0627 76.7052M13.3851 57.4267L17.0627 76.7052M17.0627 76.7052L42.5526 85.4819M17.0627 76.7052L21.6535 100.77L2.62422 84.328L1 92.6017L31.8918 130L49.6351 128.535L27.671 107.881L42.5526 85.4819M42.5526 85.4819L47.2693 87.1059L35.7563 102.779L51.1271 109.61L70.181 89.412L53.6474 68.7825L42.5526 85.4819Z" stroke="#8C55B2"/>
</svg>
