<svg fill="none" viewBox="0 0 163 146" xmlns="http://www.w3.org/2000/svg">
<path d="m116.31 62.644 1.888 1.1587c0.796 0.6851 1.52 1.4077 2.174 2.1629m-4.062-3.3216-0.446-0.2741m0.446 0.2741c-0.596 1.0355-1.205 1.9776-1.77 2.7709m1.77-2.7709c0.128-0.2221 0.256-0.4485 0.382-0.6787m-0.828 0.4046-2.72-1.6697m2.72 1.6697c-0.425 1.0015-0.903 1.9833-1.403 2.9377m1.403-2.9377c0.105-0.2472 0.206-0.4957 0.305-0.7452m-3.025-0.9245-2.656-1.6304c-0.977-0.6-1.765-1.112-2.55-1.5703m5.206 3.2007c0.256-0.1427 0.512-0.2831 0.77-0.4213m-0.77 0.4213c-0.591 0.3297-1.179 0.6713-1.762 1.0248m-3.444-4.2255c-0.059-0.0344-0.118-0.0685-0.176-0.1023m0.176 0.1023c-0.022 0.3722-0.047 0.7443-0.074 1.1161m0.074-1.1161c1e-3 -0.0107 1e-3 -0.0214 2e-3 -0.0321m-0.178-0.0702c-0.069-0.0396-0.139-0.0789-0.208-0.1177m0.208 0.1177c-0.068-0.0266-0.136-0.053-0.204-0.0794m0.204 0.0794c0.059 0.0233 0.119 0.0467 0.178 0.0702m-0.386-0.1879c-0.973-0.5454-1.987-1.0177-3.391-1.4816-0.491-0.1623-0.985-0.3098-1.482-0.443m4.873 1.9246c1e-3 0.0127 2e-3 0.0255 4e-3 0.0383m-4e-3 -0.0383c-0.208-2.1773-0.471-4.2807-0.773-6.2682m-4.1 4.3436c-1.45-0.3887-2.9233-0.6565-4.4091-0.8188m4.4091 0.8188c0.482 0.2413 0.949 0.4882 1.399 0.7406m-1.399-0.7406c-2.19-1.0963-4.6866-2.0742-7.2542-2.8957m2.8451 2.0769c-0.6597-0.072-1.3218-0.1233-1.9854-0.1551m1.9854 0.1551c-0.6968-0.155-1.3978-0.3002-2.1023-0.4357m2.1023 0.4357c1.9761 0.4398 3.9181 0.9588 5.8081 1.5594m-7.7935-1.7145c-1.3571-0.065-2.7202-0.0487-4.0809 0.0373m4.0809-0.0373c0.4961 1.205 0.9331 2.4532 1.3147 3.7439 0.2923 0.9885 0.5916 2.2173 0.8731 3.5687m-2.1878-7.3126c-0.0386-0.0938-0.0776-0.1873-0.1169-0.2806m-3.964 0.3179c-1.3083 0.0828-2.6145 0.2301-3.9109 0.4316m3.9109-0.4316c1.0205 2.0329 1.8984 4.2479 2.6038 6.5601m-2.6038-6.5601c-0.1344-0.2677-0.2713-0.5323-0.4106-0.7936-0.0452-0.0848-0.0908-0.1696-0.1368-0.2542m-3.3635 1.4794c-0.0593 0.0092-0.1185 0.0186-0.1778 0.028m0.1778-0.028c1.4123 1.347 2.7439 2.7988 3.999 4.3441m-3.999-4.3441c-0.1982-0.1891-0.3981-0.3761-0.5996-0.5611m0.4218 0.5891c-0.4097 0.0653-0.8183 0.136-1.2257 0.2117m1.2257-0.2117c0.4523 0.6447 0.885 1.3042 1.2971 1.9784m-1.2971-1.9784c-0.1387-0.1978-0.2793-0.3941-0.4218-0.5891m-0.8039 0.8008c-0.8746 0.1626-1.7435 0.3484-2.6043 0.5543-1.7637 0.4219-3.5118 0.922-5.2403 1.4947m7.8446-2.049c0.8611 0.5541 1.702 1.1469 2.5228 1.7667m-2.5228-1.7667c-1.4548-0.936-2.9673-1.7618-4.5383-2.4209m-3.3063 4.4699c-3.0196 1.0005-5.9794 2.2225-8.8578 3.6361m8.8578-3.6361c0.9343-1.5342 1.9371-3.0281 3.011-4.4753m-3.011 4.4753c-0.8296 1.3623-1.6053 2.7563-2.3288 4.1776m-6.529-0.5415c-2.788 1.3693-5.4998 2.9182-8.1158 4.6198m8.1158-4.6198c-1.66-1.9961-3.1765-4.1071-4.4864-6.3516m4.4864 6.3516c0.4593 0.5524 0.9296 1.0959 1.4096 1.631m-9.5254 2.9888c-0.0047 3e-3 -0.0094 0.0061-0.0141 0.0091m0.0141-0.0091c3.1228-1.1678 6.3046-2.1833 9.5254-2.9888m-9.5254 2.9888c-0.0117 0.0043-0.0233 0.0087-0.0349 0.013m0.0208-0.0039c-2.6442 1.7206-5.1905 3.5971-7.6189 5.6014m7.6189-5.6014c3.9214-0.7358 7.8813-1.0374 11.703-0.7028m-11.703 0.7028c-0.0069 0.0013-0.0139 0.0026-0.0208 0.0039m-7.5981 5.5975c-0.0731 0.0603-0.1462 0.1208-0.2191 0.1814m0.2191-0.1814c0.3243-0.9332 0.6945-1.8383 1.0984-2.7007 0.0321-0.0686 0.0656-0.1387 0.1005-0.2103m-1.1989 2.911c-1.0137 2.9168-1.5786 6.1075-1.3198 9.1236 0.0898 1.0473 0.2461 2.0783 0.4627 3.0909m0.638-12.033c-3.1182 2.591-6.0398 5.3925-8.722 8.3446-0.5776 0.6357-1.1663 1.279-1.7425 1.9381m10.464-10.283c-1.8038 4.8781-4.5871 9.3061-8.2135 12.871m8.2135-12.871c0.224-0.6059 0.433-1.2187 0.6265-1.8377 0.1038-0.3318 0.2054-0.6741 0.3037-1.0254m-11.395 13.146c-0.5955 0.6812-1.1776 1.3793-1.7202 2.1036m1.7202-2.1036c-1.1788-1.5061-2.2288-3.1159-3.1294-4.8076m3.1294 4.8076c0.7056 0.9015 1.4574 1.7658 2.251 2.5882m-3.9712-0.4846c-0.2048 0.2734-0.4039 0.5505-0.596 0.8318m0.596-0.8318c-0.6857-1.0184-1.3233-2.0776-1.91-3.1745m1.91 3.1745c0.5659 0.8403 1.1645 1.6529 1.7945 2.436m-2.3905-1.6042c-0.9818 1.4375-1.7799 2.9853-2.2069 4.7093m2.2069-4.7093c-0.6991-1.2477-1.1787-2.5928-1.314-4.0063m1.314 4.0063c0.4443 0.793 0.9773 1.5466 1.5668 2.2535m-3.7737 2.4558c-0.1181 0.4765-0.2077 0.9665-0.2651 1.4714-0.0732 0.6444-0.0953 1.2812-0.0706 1.9098m0.3357-3.3812c-0.6406 0.352-1.2966 0.6821-1.9677 0.989m1.9677-0.989c1.3251-0.7282 2.5841-1.5503 3.7737-2.4558m-4.1094 5.837c8e-4 0.0214 0.0017 0.0428 0.0027 0.0642m-0.0027-0.0642c-0.1454-0.1635-0.2901-0.3271-0.4339-0.4909-0.2368-0.2696-0.4764-0.5463-0.7184-0.8295m1.1523 1.3204c0.141 0.1586 0.2828 0.317 0.4252 0.4752m-0.4225-0.411c0.0075 0.1692 0.0183 0.3378 0.0325 0.5057m-0.0325-0.5057c-0.301-0.296-0.5984-0.5956-0.8919-0.8988m0.8919 0.8988c0.1401 0.1378 0.2809 0.2748 0.4225 0.411m-0.39 0.0947c0.1084 1.2863 0.4096 2.5366 0.8642 3.7447m-0.8642-3.7447c-0.338-0.4531-0.6483-0.9211-0.9244-1.4045m0.9244 1.4045c1.4497 1.9434 3.4087 3.6127 5.3658 5.0531m-4.5016-1.3084c1.0536 2.7998 2.9309 5.3731 5.1408 7.6431m-5.1408-7.6431c-2.651-1.1274-5.5594-2.6066-8.4549-4.3717m8.4549 4.3717c1.5748 0.6696 3.0587 1.2151 4.3953 1.6226 0.2115 0.0645 0.4235 0.1281 0.6359 0.191m0.1096 5.8295c1.3693 1.406 2.8663 2.696 4.3741 3.851m-4.3741-3.851c-0.5849-0.027-1.1699-0.067-1.7545-0.121m1.7545 0.121c1.2994 0.059 2.5986 0.05 3.8928-0.023m0.4813 3.874c0.4144 0.317 0.8296 0.625 1.2433 0.921m-1.2433-0.921c-2.0692-1.245-4.1271-2.568-6.1286-3.972m6.1286 3.972c0.5261 0.317 1.053 0.628 1.5798 0.935 0.0647 0.037 0.1292 0.075 0.1934 0.112m-0.5299-0.126c0.8449 0.606 1.6831 1.168 2.494 1.683m-2.494-1.683c-2.8428-0.7-5.6154-1.782-8.2425-3.056-1.7224-0.836-3.6125-1.845-5.4789-3.019m13.721 6.075c0.1764 0.044 0.353 0.086 0.5299 0.126m1.9641 1.557c0.3107 0.197 0.6174 0.387 0.919 0.57 1.0232 0.622 2.135 1.239 3.3127 1.84m-4.2317-2.41c-5.772-0.611-11.472-2.295-16.778-4.757-0.0627-0.029-0.1253-0.059-0.1878-0.088m16.966 4.845c0.3208 0.034 0.6419 0.064 0.9631 0.092m3.2686 2.318c1.0272 0.524 2.1044 1.035 3.2167 1.526m-3.2167-1.526c-2.5116 0.466-5.0903 0.6-7.73 0.296-4.2258-0.486-8.2259-2.844-11.5-5.591-0.6206-0.52-1.2819-1.184-1.9681-1.96m21.198 7.255c0.2445-0.046 0.4883-0.094 0.7315-0.146m2.4852 1.672c3.0528 1.348 6.3694 2.539 9.6384 3.404m-9.6384-3.404c-5.105 1.942-10.452 3.21-15.977 3.598-0.2649 0.018-0.5313 0.035-0.7992 0.048m16.776-3.646c0.152-0.057 0.3038-0.116 0.4554-0.175m9.183 3.579c0.7682 0.204 1.5339 0.389 2.2929 0.554m-2.2929-0.554c-0.0418-0.212-0.0825-0.424-0.1224-0.636m0.1224 0.636c0.1251 0.636 0.2588 1.271 0.402 1.906m1.8909-1.352c2.2635 0.493 4.4677 0.806 6.5051 0.88 0.9219 0.034 1.8315 0.028 2.7288-0.016m-9.2339-0.864c-0.6194 0.465-1.25 0.916-1.8909 1.352m1.8909-1.352c0.2722-0.204 0.5423-0.411 0.8102-0.621m8.4237 1.485c2.9478-0.146 5.7621-0.701 8.4381-1.597m-8.4381 1.597c-2.7552 2.513-5.8302 4.799-9.3047 6.863m9.3047-6.863c0.3519-0.321 0.6986-0.646 1.0402-0.974m7.3979-0.623c4.9855-1.67 9.491-4.522 13.486-8.107m-13.486 8.107c-2.4505 0.339-4.9239 0.554-7.3979 0.623m7.3979-0.623c2.636-0.365 5.2455-0.873 7.801-1.494 4.3701-1.062 8.5561-2.302 12.395-4.221m-6.71-2.392c0.134-0.119 0.266-0.24 0.399-0.361m-0.399 0.361c-0.095-0.047-0.19-0.094-0.285-0.142m0.285 0.142c2.117 1.037 4.382 1.848 6.71 2.392m-6.311-2.753c0.178-0.164 0.355-0.329 0.532-0.495m-0.532 0.495c0.327-0.11 0.652-0.226 0.975-0.349m-0.975 0.349c-0.227 0.076-0.455 0.149-0.684 0.219m1.216-0.714c1.568-1.481 3.053-3.073 4.455-4.749 2.11-2.521 3.942-4.9446 5.454-7.4734m-9.909 12.222c-0.678-0.231-1.317-0.479-1.895-0.719-1.579-0.655-2.9887-1.345-4.3262-2.162m6.2212 2.881c0.146 0.049 0.293 0.098 0.443 0.146m9.466-12.368c0.521-0.8699 1.003-1.7523 1.446-2.6555m-1.446 2.6555c-4.22 4.6634-10 7.7654-16.13 9.3414m16.13-9.3414c0.609-0.6729 1.186-1.3782 1.726-2.1162m-0.28-0.5393c0.03-0.0604 0.059-0.1209 0.089-0.1814m-0.089 0.1814c-1.082-0.5658-2.147-1.1415-3.201-1.7277m3.201 1.7277c0.054 0.0279 0.107 0.0559 0.161 0.0838m-0.072-0.2652c0.93-1.9263 1.682-3.9492 2.239-6.1486m-2.239 6.1486c0.024 0.0883 0.048 0.1767 0.072 0.2652m-0.072-0.2652c-0.295-1.0684-0.636-2.1314-1.016-3.1859m3.255-2.9627c0.324-1.2797 0.581-2.6192 0.77-4.0341 0.061-0.4616 0.115-0.9264 0.16-1.3933m-0.93 5.4274c-1.004 1.0666-2.1 2.0552-3.255 2.9627m3.255-2.9627c0.654-0.6958 1.269-1.4249 1.835-2.1863m-0.905-3.2411c0.112-1.1651 0.168-2.3434 0.149-3.518m-0.149 3.518c-1.504 2.3432-3.096 4.6327-4.768 6.853m4.768-6.853c0.253-0.3939 0.503-0.7892 0.751-1.1861m-0.602-2.3319c-0.026-1.6383-0.197-3.2695-0.567-4.8479m0.567 4.8479c0.26 0.7594 0.461 1.5397 0.602 2.3319m-0.602-2.3319c-0.337-0.9871-0.771-1.9391-1.299-2.8368m0.732-2.0111c-0.051-0.2179-0.106-0.4349-0.164-0.6507-0.773-2.8407-2.196-5.5644-4.009-8.0389m4.173 8.6896c-0.225 0.6766-0.47 1.3469-0.732 2.0111m0.732-2.0111c0.869-2.6117 1.451-5.3183 1.659-8.1389m-5.832-0.5507c-0.026-0.0358-0.052-0.0716-0.079-0.1073m0.079 0.1073c-0.068 0.0958-0.136 0.1896-0.202 0.281-0.097 0.1318-0.196 0.2652-0.297 0.4002m0.42-0.7885c-0.936-1.2663-1.974-2.4664-3.079-3.5826m3.079 3.5826c-0.138 0.265-0.279 0.5279-0.42 0.7885m-2.659-4.3711c-1.117-1.1284-2.301-2.1711-3.518-3.1094m3.518 3.1094c-1.152 0.699-2.285 1.4444-3.388 2.2355m-0.13-5.3449c-0.068-0.0522-0.136-0.104-0.203-0.1554m0.203 0.1554c-0.029 0.4009-0.061 0.8016-0.096 1.202m-0.107-1.3574c-0.785-0.596-1.582-1.1484-2.382-1.6524-0.383-0.2418-0.784-0.4793-1.199-0.7123m3.581 2.3647c0.038 0.4498 0.074 0.9024 0.107 1.3574m-0.107-1.3574c-0.033-0.3829-0.067-0.7637-0.103-1.1424m-3.478-1.2223c1.181 0.3753 2.342 0.7826 3.478 1.2223m-12.131-4.8586c-1.7056-0.5457-3.4424-1.0224-5.1412-1.419m5.1412 1.419c0.2607 0.5377 0.5081 1.0848 0.7428 1.6412m-0.7428-1.6412c-1.0564-2.1792-2.3295-4.2038-3.8442-6.0693m-1.297 4.6503c-2.1328-0.4978-4.2058-0.8692-6.0819-1.0922m6.0819 1.0922c0.4864 0.7645 0.9446 1.542 1.3726 2.3303m-1.3726-2.3303c-0.9484-1.4904-2.0041-2.9314-3.1525-4.3062m-2.9294 3.214c-0.0736-0.0088-0.1468-0.0173-0.2198-0.0256m0.2198 0.0256c0.8446-1.0065 1.8327-2.1347 2.9294-3.214m-2.9294 3.214c-0.0301 0.0359-0.0601 0.0717-0.0899 0.1073m-0.1299-0.1329c-0.0857-0.0097-0.171-0.0191-0.2558-0.0282-0.6761-0.0726-1.3503-0.127-2.0225-0.1638m2.2783 0.192c0.0434 0.0442 0.0867 0.0885 0.1299 0.1329m-0.1299-0.1329c-1.2202-1.2424-2.5219-2.4089-3.8934-3.4971m1.6151 3.3051c-5.8867-0.3227-11.615 0.703-17.073 2.7357m17.073-2.7357c0.5898 0.3656 1.1686 0.7465 1.7366 1.1424m-1.7366-1.1424c-1.672-1.0365-3.4324-1.9493-5.285-2.7269m-11.788 5.4626c-1.6526 0.6155-3.2804 1.3232-4.8804 2.1138-1.1681 0.5772-2.3283 1.1904-3.4759 1.8386m8.3563-3.9524c-0.1932-0.3822-0.3851-0.7832-0.5751-1.2008m0.5751 1.2008c0.059 0.1168 0.1182 0.2318 0.1775 0.345 0.2249 0.4296 0.4576 0.8544 0.6975 1.2746m-9.2313 2.3328c-0.0379 0.0214-0.0757 0.0428-0.1136 0.0643m0.1136-0.0643c0.1032-0.0825 0.2067-0.1648 0.3105-0.2467 0.7435-0.5872 1.4782-1.1548 2.2068-1.7034m-2.5173 1.9501c-0.1427 0.1141-0.285 0.2288-0.4268 0.3441m0.3132-0.2798c-0.112 0.0636-0.224 0.1275-0.3358 0.1917m0.3358-0.1917c0.8463-0.699 1.7136-1.3662 2.6309-2.0144m-2.6309 2.0144c-0.106 0.0876-0.2117 0.1757-0.3171 0.2643m-0.0187-0.0726c-0.542 0.3114-1.0809 0.6306-1.6165 0.9575m1.6165-0.9575c0.0063 0.0242 0.0125 0.0484 0.0187 0.0726m-0.0187-0.0726c-0.2099-0.8039-0.4964-1.5721-0.8729-2.2873m-0.7436 3.2448c-1.744 1.0647-3.4514 2.2117-5.1054 3.4378m5.1054-3.4378c-1.5309 0.7104-2.937 1.4922-4.1955 2.3425m4.1955-2.3425c0.4042-0.1875 0.817-0.3701 1.2381-0.5477m-6.3435 3.9855c-3.9718 2.9446-7.635 6.3458-10.754 10.161m10.754-10.161c0.2995-0.3643 0.6025-0.7292 0.9099-1.0953m-0.9099 1.0953c-3.3429 4.0675-6.2328 8.0675-9.4847 12.849m-1.2689-2.6876c-0.4771 0.5836-0.9414 1.1769-1.3921 1.7797m1.3921-1.7797c-0.2356-0.754-0.4425-1.518-0.6192-2.2905-0.9858-4.3076-0.4546-8.3911 0.8026-12.36m-0.1834 14.65c0.2999 0.96 0.6463 1.9038 1.0364 2.8283m-2.4285-1.0486c-1.3186 1.7636-2.521 3.6087-3.5859 5.5316m3.5859-5.5316c-1.4105-4.169-2.2947-8.5836-2.4012-12.977m2.4012 12.977c0.241 0.7126 0.4975 1.4181 0.7681 2.115m-4.354 3.4166c-0.0382 0.069-0.0763 0.1382-0.1141 0.2074-0.6175 1.1286-1.1677 2.3071-1.6082 3.5168m1.7223-3.7242c1.4336-1.2893 2.8562-2.4024 4.354-3.4166m-4.354 3.4166c-0.7094 0.638-1.4215 1.3191-2.1468 2.0528-0.2187 0.2213-0.4381 0.4492-0.6561 0.6833m1.0806 0.9881c-0.0708 0.1944-0.1388 0.3896-0.2037 0.5855m0.2037-0.5855c0.8227-0.6079 1.6451-1.1981 2.4622-1.7708 0.6362-0.4459 1.3046-0.9024 2-1.3663m-4.4622 3.1371c-0.1321 0.0976-0.2641 0.1956-0.3962 0.2941m0.1925 0.2914c-0.0081 0.0244-0.0161 0.0487-0.0241 0.073m0.0241-0.073c-0.0645-0.0971-0.1287-0.1942-0.1925-0.2914m0.1925 0.2914c0.3835 0.5779 0.7771 1.1534 1.1776 1.7233m-1.2017-1.6503c-0.5531 1.6894-0.8813 3.4319-0.8718 5.1773m0.8718-5.1773c-0.0642-0.1156-0.1277-0.2316-0.1906-0.3479m0.1906 0.3479c0.3449 0.6212 0.7088 1.2322 1.0901 1.8331m-1.9619 3.3442c0.0067 1.2268 0.1802 2.455 0.5596 3.6673m-0.5596-3.6673c0.6334-1.1275 1.2902-2.2425 1.9619-3.3442m-1.9619 3.3442c-0.5295 0.9424-1.0426 1.8936-1.5345 2.8529m2.0941 0.8144c0.0699 0.2234 0.1468 0.4463 0.231 0.6685m-0.231-0.6685c-0.2581 0.0207-0.5165 0.0353-0.7746 0.0435m0.7746-0.0435c1.8528-0.1483 3.6936-0.6118 5.3691-1.3209 0.0949-0.0401 0.1895-0.0807 0.2839-0.1218m-5.422 2.1112c0.1355 0.3577 0.2897 0.7138 0.4638 1.0677 0.9345 1.9004 2.7682 3.8668 4.2878 5.2316 2.2194 1.9935 4.6112 3.8565 7.0896 5.5945m-11.841-11.894c-0.3355-0.2045-0.6709-0.4129-1.0056-0.625m12.847 12.519c-0.3103-0.029-0.6205-0.061-0.9305-0.098-1.7732-0.209-3.6061-0.566-5.419-1.084m14.251 6.201c1.0183 0.592 1.9801 1.142 2.9272 1.649m-2.9272-1.649c0.7232 0.166 1.4504 0.306 2.1807 0.417m0.7465 1.232c0.8159 0.436 1.621 0.84 2.4421 1.209m-2.4421-1.209c0.2755 0.023 0.5511 0.044 0.8268 0.062m1.6153 1.147c0.679 0.306 1.3688 0.588 2.0849 0.847m-2.0849-0.847c-0.5474-0.361-1.0875-0.744-1.6153-1.147m1.6153 1.147c0.514 0.34 1.0346 0.661 1.558 0.963m0.5269-0.116c1.027 0.37 2.1078 0.691 3.2871 0.959 0.1629 0.037 0.326 0.072 0.4892 0.105m-3.7763-1.064c-0.1753 0.04-0.3509 0.079-0.5269 0.116m0.5269-0.116c1.7117-0.395 3.3913-0.939 5.0367-1.597m-1.2604 2.661c2.373 0.485 4.7806 0.581 7.1781 0.403m-7.1781-0.403c-0.4522 0.189-0.9064 0.372-1.3626 0.549m1.3626-0.549c1.2778-0.531 2.5396-1.104 3.7843-1.716m3.3938 2.119c1.2209-0.091 2.4392-0.253 3.6489-0.471m-3.6489 0.471c-0.0593-0.396-0.1157-0.79-0.1697-1.183m0.1697 1.183c0.1537 1.025 0.3258 2.057 0.5199 3.089m3.129-3.56c2.0946-0.377 4.1635-0.922 6.176-1.556m-6.176 1.556c-1.2794-0.165-2.5537-0.404-3.8186-0.712m3.8186 0.712c1.4806 0.191 2.9679 0.283 4.4549 0.267m1.7211-1.823 0.153-0.048c2.677-0.85 5.231-1.877 7.6692-3.069m-7.8222 3.117c-0.2271 0.257-0.4576 0.51-0.6913 0.759-0.3375 0.36-0.6808 0.715-1.0298 1.064m1.7211-1.823c1.0737-1.213 2.0721-2.51 2.9835-3.873m4.8387 0.756c1.2693-0.62 2.5073-1.285 3.7148-1.993m-3.7148 1.993c0.9374 0.333 1.8695 0.61 2.7949 0.833m-2.7949-0.833c-0.9707-0.345-1.947-0.751-2.9273-1.22m6.6421-0.773c0.5183-0.304 1.0311-0.615 1.5382-0.935m-1.5382 0.935c-0.5554 0.032-1.1098 0.053-1.6622 0.061-0.8547 0.013-1.7121-3e-3 -2.5673-0.051m4.2295-0.01c0.3345-0.019 0.6694-0.043 1.0044-0.071m0.5338-0.864c1.0834-0.682 2.1416-1.399 3.1753-2.15m-3.1753 2.15c-0.1763 0.29-0.3542 0.578-0.5338 0.864m0.5338-0.864c0.5992-0.983 1.1799-1.989 1.7444-3.017m1.4309 0.867c0.1772-0.129 0.3537-0.259 0.5294-0.389m-0.5294 0.389c-0.3161-0.255-0.6319-0.522-0.949-0.801-0.0867-0.076-0.1729-0.153-0.2587-0.231m1.2077 1.032c0.6933 0.56 1.3876 1.064 2.0983 1.527m-1.5689-1.916c2.842-2.114 5.4975-4.4859 7.9825-7.0856m-7.9825 7.0856c-0.3041-0.432-0.588-0.877-0.8522-1.333m0.8522 1.333c0.4734 0.672 0.9957 1.313 1.5689 1.916m6.4136-9.0016c1.86-1.9465 3.625-4.0208 5.301-6.2103m-5.301 6.2103c-1.535 0.5995-3.034 1.1043-4.5357 1.5264m4.5357-1.5264c1.244-0.4861 2.511-1.0345 3.823-1.6515 1.043-0.4907 2.094-1.0424 3.132-1.6533m-1.654-2.9055c0.345-0.4504 0.686-0.9057 1.024-1.3657 0.834-1.1369 1.641-2.2872 2.411-3.4532m-3.435 4.8189c-1.206-0.7106-2.402-1.436-3.594-2.1764m3.594 2.1764c0.908 0.5344 1.821 1.0605 2.743 1.5786m0.692-6.3975c2.048-3.1014 3.835-6.3139 5.164-9.6813m-5.164 9.6813c0.554 1.1594 1.073 2.3365 1.546 3.5265m-1.546-3.5265c-0.74-1.5481-1.542-3.0649-2.381-4.5394m7.545-5.1419c-1.366-2.3261-3.354-4.2874-5.872-5.5494-0.021-0.0106-0.043-0.0211-0.064-0.0315m8.327-4.5691c0.029-0.389 0.051-0.7801 0.065-1.1734m-0.065 1.1734c0.696 0.802 1.314 1.6408 1.856 2.5104m-1.791-3.6838c0.01-0.2627 0.016-0.5263 0.019-0.7909m-0.019 0.7909c-1.168-1.0088-2.421-1.9506-3.745-2.8269m3.745 2.8269c0.196 0.1687 0.389 0.3394 0.58 0.512m-0.561-1.3029v-0.0307m0 0.0307c0.017 0.0285 0.034 0.057 0.05 0.0855m-0.05-0.0855c-0.817-1.386-1.754-2.7165-2.776-3.9726m2.776 3.9419c8e-3 -0.7677-0.012-1.5438-0.062-2.3288-0.028-0.4485-0.065-0.8938-0.109-1.3359m0.171 3.6647c0.017 0.0388 0.034 0.0775 0.05 0.1162m-0.05-0.1162c-0.703-1.6344-1.481-3.3015-2.313-4.9692m2.142 1.3045c-0.095-0.9503-0.226-1.8856-0.393-2.8054m0.393 2.8054c2.225 2.9003 4.267 5.9562 6.056 9.1371m-6.056-9.1371c-0.577-0.7516-1.166-1.4928-1.766-2.2229m1.373-0.5825c-0.136-0.7457-0.295-1.4811-0.479-2.2061m0.479 2.2061c2.14-0.8553 4.512-1.6801 6.965-2.4027m-6.965 2.4027c-0.467 0.1863-0.922 0.3741-1.365 0.5627m0.886-2.7688c-0.827-3.2687-2.14-6.3242-3.947-9.1391m3.947 9.1391c-0.224 0.9169-0.529 1.8484-0.886 2.7688m0.886-2.7688c0.343-1.3989 0.501-2.7636 0.381-4.0024-0.084-0.867-0.258-1.7286-0.506-2.5726m-3.822-2.5641c-1.215-1.8922-2.652-3.6757-4.315-5.3422-1.381-1.3838-2.791-2.679-4.248-3.8725m8.563 9.2147c1.312 0.8156 2.583 1.6681 3.822 2.5641m-3.822-2.5641c-2.405-1.4955-4.95-2.8671-7.691-4.1562m-0.872-5.0585c-1.502-1.2299-3.055-2.3518-4.678-3.3514m4.678 3.3514c0.249 1.5919 0.459 3.171 0.631 4.7393m-0.631-4.7393c-0.14-0.8903-0.291-1.7845-0.455-2.6832m-4.223-0.6682c-1.075-0.6618-2.18-1.27-3.3226-1.8204m3.3226 1.8204c0.365 1.0027 0.713 1.9973 1.041 2.9777m-1.041-2.9777c-0.13-0.3576-0.263-0.7163-0.397-1.0756m-2.9256-0.7448c-0.3491-0.1682-0.7017-0.331-1.0579-0.4883m1.0579 0.4883c1.0176 0.2242 1.9916 0.4708 2.9256 0.7448m-2.9256-0.7448c-0.2182-0.048-0.4384-0.0951-0.6607-0.1411m-0.3972-0.3472c-1.8066-0.798-3.706-1.454-5.7198-1.9526-0.5696-0.1411-1.1383-0.2672-1.7059-0.3789m7.4257 2.3315c0.1329 0.1151 0.2653 0.2309 0.3972 0.3472m-0.3972-0.3472c-1.3918-1.2062-2.8355-2.3485-4.3289-3.415m-3.0968 1.0835c-9.5433-1.8779-18.801 0.3131-27.732 3.9045m27.732-3.9045c1.0237-0.3878 2.0561-0.7495 3.0968-1.0835m-3.0968 1.0835c-1.0642 0.4031-2.1191 0.8344-3.1643 1.292m-24.567 2.6125c-0.2486 0.1-0.497 0.2011-0.7451 0.3032m0.7451-0.3032c0.1066 0.0108 0.2131 0.0222 0.3196 0.0342m-0.3196-0.0342c-1.2298-0.1243-2.4663-0.169-3.7042-0.1282m2.9591 0.4314c-0.9163 0.377-1.8292 0.7681-2.7385 1.1702m2.7385-1.1702c0.3554-0.0915 0.7103-0.1812 1.0647-0.269m-1.0647 0.269c-0.9299 0.2393-1.8632 0.4908-2.8008 0.7537m0.0623 0.4165c-0.0671 0.0297-0.1343 0.0595-0.2014 0.0893-0.7757 0.3447-1.5485 0.6992-2.3175 1.0638m2.5189-1.1531c-0.0214-0.1396-0.0422-0.2784-0.0623-0.4165m0.0623 0.4165c0.0346 0.2258 0.0709 0.4534 0.1088 0.6827m-2.6277 0.4704c-1.5978 0.7575-3.1793 1.5585-4.7378 2.405m4.7378-2.405c0.8712-0.1731 1.7473-0.3298 2.6277-0.4704m-2.6277 0.4704c-0.9452 0.1878-1.8845 0.3949-2.8172 0.622m-1.9206 1.783c-0.1909 0.1036-0.3814 0.208-0.5715 0.313m0.5715-0.313c0.6353-0.5996 1.2755-1.194 1.9206-1.783m-1.9206 1.783c-0.0895 0.0844-0.1788 0.1689-0.268 0.2535m-0.3035 0.0595c-1.9692 1.0876-3.9001 2.2489-5.7791 3.488m5.7791-3.488c0.1011-0.0203 0.2022-0.0401 0.3035-0.0595m-0.3035 0.0595c-1.4724 0.2957-2.9273 0.6919-4.3551 1.1801m-1.424 2.3079c-3.3535 2.2116-6.5417 4.6711-9.4863 7.4026m9.4863-7.4026c0.4631-0.7766 0.9378-1.5465 1.424-2.3079m-1.424 2.3079c-0.8877 1.4888-1.7323 3.0027-2.5316 4.5305m-6.9547 2.8721c-0.5377 0.4987-1.0673 1.0065-1.5882 1.5236m1.5882-1.5236c0.1418-0.4256 0.2941-0.8486 0.4569-1.2688 0.0212-0.0548 0.0426-0.1094 0.064-0.1638m-0.5209 1.4326c-0.0609 0.1826-0.1199 0.3658-0.177 0.5493m-1.4112 0.9743c-1.4819 1.4706-2.8943 3.0159-4.2263 4.639-2.3041 2.8078-4.4982 5.918-6.2404 9.2423m10.467-13.881c0.4677-0.3416 0.9367-0.6656 1.4112-0.9743m-1.4112 0.9743c-1.3714 1.0012-2.7321 2.1524-4.1885 3.5054-0.6151 0.5714-1.2267 1.1504-1.8276 1.7412m-4.4506 8.6347c-1.0869 2.0741-1.9979 4.2316-2.6499 6.451m2.6499-6.451c-0.0827-0.6014-0.149-1.2037-0.1982-1.8066m0.1982 1.8066c0.198 1.4396 0.4901 2.8742 0.867 4.3012m-3.5169 2.1498c-0.1606 0.5466-0.3054 1.097-0.4334 1.6508m0.4334-1.6508c0.1067-1.4633 0.3383-2.8944 0.7167-4.2569 0.3896-1.4026 1.0149-2.7256 1.735-4.0007m-2.4517 8.2576c-0.0311 0.4261-0.0516 0.8549-0.062 1.2855m-0.3714 0.3653c-0.6509 2.8183-0.8627 5.7257-0.472 8.6798 0.0119 0.0901 0.0241 0.1797 0.0366 0.269m0.4354-8.9488c0.1238-0.122 0.2475-0.2438 0.3714-0.3653m-0.3714 0.3653c-0.1583 0.1562-0.3166 0.3128-0.4747 0.4698m0.0393 8.479c0.1521 1.0867 0.3472 2.1165 0.5845 3.1117m-0.5845-3.1117c0.4188-0.9989 0.8556-1.9928 1.3092-2.9812m-1.3092 2.9812c-0.1777 0.424-0.3522 0.8488-0.5234 1.2746m1.1079 1.8371c0.3968 1.665 0.9115 3.2333 1.5396 4.8093m-1.5396-4.8093c-0.354-0.3435-0.7007-0.6913-1.0393-1.0432m1.0393 1.0432c1.1472 1.1134 2.3713 2.182 3.6441 3.1989m-2.1045 1.6104c0.0348 0.0874 0.0699 0.1748 0.1055 0.2623m-0.1055-0.2623c-0.7165-0.5844-1.3693-1.2611-1.9518-2.0021m1.9518 2.0021c0.0681 0.0556 0.1369 0.1104 0.2062 0.1643m-0.1007 0.098c0.5246 1.2917 1.1251 2.5925 1.7989 3.96 0.5461 1.1081 1.1204 2.2111 1.7216 3.3054m-3.5205-7.2654c0.0335-0.0327 0.0671-0.0654 0.1007-0.098m-0.1007 0.098c-0.35 0.341-0.696 0.6858-1.0376 1.0343m4.5581 6.2311c0.1882 0.3425 0.379 0.6842 0.5725 1.0249m-0.5725-1.0249c0.3642-0.9413 0.7567-1.876 1.1732-2.8039m-1.1732 2.8039c-0.0487 0.1261-0.097 0.2522-0.1448 0.3785m0.7173 0.6464c0.7848 1.3826 1.6125 2.749 2.4806 4.094m-2.4806-4.094c-0.2446-0.2098-0.4838-0.4253-0.7173-0.6464m0.7173 0.6464c1.7221 1.4778 3.709 2.677 5.8172 3.623m-3.3366 0.471c3.0796 4.768 6.667 9.251 10.65 13.132 1.1403 1.111 2.3997 2.204 3.7325 3.246m-14.382-16.378c-1.3268-0.953-2.5938-1.983-3.7908-3.0859m3.7908 3.0859c2.1106 1.516 4.3723 2.837 6.7436 3.951m7.6385 12.427c2.8943 2.264 6.1346 4.289 9.2514 5.738 1.6183 0.753 3.2673 1.45 4.9414 2.088m-14.193-7.826c-6.1557 0.32-13.052-0.617-18.715-3.466m32.908 11.292c1.3062 0.497 2.6276 0.96 3.9616 1.385m-3.9616-1.385c-1.8228 0.582-3.6767 1.053-5.5482 1.404m5.5482-1.404c4.4589-1.425 8.7321-3.518 12.623-6.162m-8.6618 7.547c1.8007 0.574 3.6244 1.08 5.4642 1.517m-5.4642-1.517c-2.8055 0.143-5.6316 0.169-8.4799 0.062-0.3408-0.013-0.6842-0.027-1.0299-0.043m9.5098-0.019c3.446-0.176 6.861-0.53 10.248-1.034m-4.7843 2.551c2.1924 0.519 4.4079 0.939 6.635 1.254m-6.635-1.254c-0.5905 0.285-1.1913 0.564-1.8025 0.839-7.0157 3.153-15 4.246-22.675 4.081-9.9449-0.214-25.794-6.445-33.576-13.386-4.8609-4.336-9.3013-13.116-8.0826-20.064 0.67731-3.862 2.8182-7.3702 4.9406-10.653 2.4042-3.7184 5.3831-7.4136 8.6112-10.98m52.584 50.162c1.6748-0.809 3.2674-1.659 4.7843-2.551m1.8507 3.805c3.5069 0.495 7.0429 0.73 10.564 0.683 7.1048-0.094 12.146-1.057 18.618-3.829 4.474-1.916 8.589-4.632 12.358-7.799m-41.54 10.945c-0.5898-1.25-1.1146-2.535-1.5825-3.845m1.5825 3.845c0.9184 1.946 1.9946 3.804 3.2599 5.531 3.744 5.111 9.5851 9.803 16.285 8.88 1.982-0.273 3.995-0.923 5.6396-2.075 4.682-3.278 10.218-11.859 12.651-16.199 1.207-2.154 2.456-4.548 3.704-7.082m0 0c2.564-2.156 4.968-4.522 7.214-6.988m-7.214 6.988c1.015-2.064 2.03-4.22 3.02-6.413m4.194-0.575c0.975-1.07 1.92-2.16 2.836-3.259m-2.836 3.259c-1.372 0.31-2.776 0.499-4.194 0.575m4.194-0.575c0.193-0.043 0.385-0.089 0.576-0.137 5.798-1.464 11.453-5.144 15.3-10.096m-13.04 6.974c0.108-0.129 0.215-0.259 0.322-0.388 2.083-2.525 4.094-5.177 6.001-7.937m-6.323 8.325c-0.827 0.398-1.642 0.759-2.397 1.101-1.406 0.637-2.818 1.249-4.234 1.844m6.631-2.945c2.589-1.245 5.301-2.843 6.703-5.283 0.462-0.804 0.827-1.715 1.108-2.673m-1.488-0.369c0.737-1.0676 1.459-2.151 2.162-3.2494m-2.162 3.2494c-0.23-0.063-0.444-0.124-0.64-0.183-2.262-0.686-4.487-1.5017-6.672-2.4133m7.312 2.5963c0.443 0.12 0.944 0.244 1.488 0.369m0.674-3.6184c3.468-5.4113 6.507-11.188 8.887-17.197m-8.887 17.197c-0.114 1.2066-0.331 2.4484-0.674 3.6184m0.674-3.6184c0.089-0.9364 0.115-1.8518 0.09-2.6964-0.168-5.7085-1.602-11.513-3.697-16.899m12.494 2.3983c3.427-8.6535 5.487-17.79 5.489-27.014m-5.489 27.014c0.969 4.7284 1.011 9.8045-0.298 14.129-0.838 2.7691-2.239 5.3571-4.034 7.6684m4.332-21.798c-0.558-2.7227-1.424-5.3301-2.517-7.6123-1.931-4.0324-4.541-7.7398-7.412-11.164m15.418-8.2371c0-2.0266-0.099-4.0574-0.304-6.0883-0.752-7.4295-2.144-11.543-6.824-17.108-1.667-1.982-3.718-3.6134-5.765-5.1897-0.689-0.5308-10.483-6.7379-11.549-7.3499-1.524-0.8747-3.04-1.6675-4.569-2.3649m29.011 38.101c4.089 1.2363 7.537 3.7383 9.923 7.7677 1.58 2.6669 2.248 5.8234 2.834 8.875 1.334 6.9373 1.044 12.366-0.929 19.107-1.996 6.8213-5.875 12.726-13.41 13.59-1.954 0.224-5.145-0.061-8.239-0.528m9.821-48.811c-1.792-0.5415-3.706-0.8402-5.707-0.918-2.768-0.1076-5.982 0.248-9.288 0.8973m-14.016-38.08c-4.249-1.9382-8.603-3.1395-13.534-3.3153-3.196-0.1139-6.4225 0.0818-9.6192 0.5504m23.153 2.7649c8.423 6.6314 12.509 16.773 13.585 27.746 0.337 3.4324 0.472 6.8818 0.431 10.334m-14.016-38.08c-1.247-0.9819-2.589-1.8868-4.03-2.7061-6.794-3.8616-13.734-3.8693-20.925-1.7194m1.8017 1.6606c-1.2287 0.1802-2.4529 0.4006-3.6693 0.6593m3.6693-0.6593c1.7487 1.7106 3.1944 3.443 4.0492 4.9201 1.474 2.5456 2.746 5.2386 3.777 8.0207m-7.8262-12.941c-0.5715-0.5591-1.1754-1.1158-1.8017-1.6606m-1.8676 2.3199c-3.8847 0.826-7.6891 2.0419-11.302 3.5796-1.8551 0.7897-3.8791 1.8356-5.8986 2.9963m17.2-6.5759c2.3707 3.7629 4.6874 8.3213 6.733 13.032m-6.733-13.032c-0.3012-0.478-0.6032-0.9432-0.9057-1.3942m-16.294 7.9701c-3.1014 1.7826-6.1919 3.8361-8.6436 5.6482-2.6833 1.9833-5.3117 4.0541-7.876 6.2073m16.52-11.856c3.0778 0.3611 5.9197 1.4177 9.26 2.9013 3.1173 1.3847 6.0767 3.1106 8.8633 5.1005m-18.123-8.0018c-0.0857-0.01-0.1716-0.0196-0.2577-0.0285m-16.262 11.884c-0.4293 0.3605-0.8569 0.7233-1.2826 1.0885m1.2826-1.0885c-0.0467-0.4791-0.0832-0.9434-0.1088-1.3902m0.1088 1.3902c0.0321 0.3287 0.0689 0.6643 0.1104 1.0061m-1.393 0.0824c-0.9033 0.7747-1.7983 1.5598-2.6846 2.3549m2.6846-2.3549c0.4644-0.0397 0.9288-0.0671 1.393-0.0824m-1.393 0.0824c-0.9834 0.084-1.9665 0.2236-2.9466 0.4215m0.262 1.9334c-0.3473 0.3116-0.6933 0.6248-1.0379 0.9394m1.0379-0.9394c1.4239-0.441 2.8348-0.8594 4.2359-1.2522m-4.2359 1.2522c-0.8103 0.251-1.6249 0.5094-2.4443 0.7747-0.8986 0.2909-1.7974 0.5866-2.6952 0.8887m4.1016-0.724c-1.7115 0.4167-3.4005 0.9006-5.0616 1.4552m2.873 0.5813c-2.6295 2.4934-5.1736 5.0773-7.6206 7.7455m7.6206-7.7455c2.6732-0.5108 5.4017-0.6894 8.1278-0.4846m-15.748 8.2301c-0.6403 0.6982-1.274 1.4022-1.9009 2.1118m1.9009-2.1118c0.0287-0.0093 0.0574-0.0185 0.0862-0.0278 3.6126-1.1593 7.5366-1.8479 11.517-2.079m-11.603 2.1068c-0.3385 0.1093-0.6695 0.22-0.9936 0.3325m-0.9073 1.7793c-0.5936 0.672-1.1811 1.3492-1.7622 2.0312-0.1599 0.1877-0.3196 0.3761-0.4789 0.5651m2.2411-2.5963c0.2956-0.5948 0.5981-1.1881 0.9073-1.7793m-0.9073 1.7793c-0.3605 0.7256-0.7107 1.4534-1.0503 2.1822m-1.1908 0.4141c-1.8201 2.1587-3.6011 4.4012-5.3221 6.716m5.3221-6.716c0.3903-0.1535 0.7879-0.2917 1.1908-0.4141m-1.1908 0.4141c-1.3074 0.5139-2.5333 1.1993-3.6016 2.0377-0.4701 0.3689-0.9197 0.7519-1.349 1.1478m-0.3715 3.5305c-1.716 2.3082-3.3723 4.6882-4.9481 7.1289m4.9481-7.1289c0.0613-1.1842 0.1835-2.3627 0.3715-3.5305m-0.3715 3.5305c-0.0469 0.9059-0.0582 1.815-0.0362 2.725m-4.9119 4.4039c-0.4769 0.7385-0.9463 1.4826-1.4078 2.2319m1.4078-2.2319c0.4218-0.3829 0.8398-0.7609 1.2531-1.134 1.214-1.0956 2.4327-2.1869 3.6588-3.2699m-4.9119 4.4039c-0.402 0.3649-0.8076 0.7341-1.2161 1.1075m-0.1917 1.1244c-0.9055 1.4703-1.7804 2.9607-2.6204 4.4689m2.6204-4.4689c0.0547-0.3767 0.1186-0.7516 0.1917-1.1244m-0.1917 1.1244c-0.7014 4.8288 0.1064 9.9446 2.3321 14.609m-4.9525-10.14c-1.3545 2.4321-2.618 4.9105-3.7723 7.4251m3.7723-7.4251c-0.2564-0.7785-0.4889-1.5597-0.6958-2.3431m0.6958 2.3431c0.5244 1.5922 1.1492 3.1731 1.8608 4.7389 0.8005 1.7615 1.8388 3.6251 3.0094 5.4901m-8.6425-2.8039c-0.365-2.0841-0.5535-4.2301-0.5024-6.3329m0.5024 6.3329c0.4031 2.3013 1.0213 4.527 1.7698 6.5354 0.2992 0.8029 0.6917 1.7317 1.1589 2.748m-4.7613-5.0276c-0.0682 0.1695-0.1358 0.3392-0.2029 0.509m0.2029-0.509c-0.2448-3.2796-0.0239-6.6333 0.4841-9.7536m-0.4841 9.7536c0.0198 0.2651 0.0426 0.5299 0.0686 0.7939m-0.2715-0.2849c-0.2239 0.5666-0.4419 1.1346-0.6538 1.704m0.6538-1.704c-0.7428-0.7871-1.4444-1.594-2.0958-2.4185m2.0958 2.4185c0.0899 0.0952 0.1804 0.1902 0.2715 0.2849m-0.9253 1.4191c-0.4858 1.306-0.9395 2.6191-1.3585 3.9382m1.3585-3.9382c-0.6786-1.3219-1.1677-2.732-1.442-4.1225m1.442 4.1225c0.4401 0.8573 0.9599 1.6776 1.5524 2.4313m-2.9109 1.5069c-0.0846 0.2663-0.1678 0.533-0.2496 0.7998-0.7716 2.5182-1.3812 5.2574-1.6099 7.995m1.8595-8.7948c-0.33-0.6328-0.6419-1.2776-0.9347-1.9342-1.1845-2.6556-1.8836-5.3138-2.1065-7.9805m3.0412 9.9147c0.6594 1.2642 1.3912 2.4804 2.1888 3.6462m-4.0483 5.1486c-0.4914 5.882 0.7763 11.757 5.9757 15.415 0.9768 0.688 2.0123 1.301 3.0928 1.844m-9.0685-17.259c1.2102-1.7926 2.5751-3.5089 4.0483-5.1486m-4.0483 5.1486c-0.5666 0.8392-1.0992 1.6951-1.5932 2.568-2.0524 3.625-3.2955 6.389-1.8447 10.526 0.6542 1.865 1.7749 3.581 3.0849 5.052 2.6827 3.011 9.0712 7.348 12.588 9.001 7.67 3.605 16.096 4.326 24.193 2.808m-27.36-12.696c-1.4908-3.579-1.5776-7.691-0.6847-11.66 0.3284-1.459 0.742-2.906 1.2267-4.3379m-0.542 15.998c0.7655 1.838 1.9012 3.536 3.4645 5.002 6.2279 5.84 15.707 7.306 23.895 7.694m8.5866-13.051c-0.3778-0.171-0.7539-0.348-1.1279-0.531-0.6041-0.296-1.2102-0.618-1.8127-0.966m2.9406 1.497c2.9266 1.325 5.9625 2.289 9.0606 2.943m-3.9137-5.208c0.9815-0.482 1.9523-0.988 2.912-1.516m-2.912 1.516c-0.848-0.286-1.6898-0.602-2.5239-0.945m2.5239 0.945c1.0659 0.36 2.1415 0.673 3.2241 0.936m-0.3121-2.452c0.9862-0.543 1.9606-1.109 2.9227-1.697m-2.9227 1.697c-0.0493-0.418-0.096-0.83-0.1401-1.238m0.1401 1.238c0.0719 0.608 0.1493 1.226 0.2323 1.858 0.0259 0.198 0.0526 0.396 0.0798 0.594m2.6106-4.149c0.8641-0.528 1.7183-1.073 2.5621-1.634m-2.5621 1.634c-0.3968-0.037-0.7931-0.08-1.1887-0.129m1.1887 0.129c3.4285 0.318 6.9006 0.166 10.368-0.568m-7.8054-1.066c0.3794-0.253 0.7568-0.509 1.1321-0.767m-1.1321 0.767c-0.4909 0.224-0.9918 0.442-1.5033 0.654-0.7439 0.31-1.4934 0.593-2.2475 0.851m3.7508-1.505c0.5036-0.23 0.9966-0.466 1.4795-0.708m-0.3474-0.059c0.1199-0.083 0.2396-0.166 0.3591-0.25 0.1535-0.107 0.3055-0.213 0.4561-0.32m-0.8152 0.57c-0.3925-0.073-0.7871-0.165-1.1839-0.276m1.1839 0.276c0.116 0.021 0.2318 0.041 0.3474 0.059m0.4678-0.629c0.4107-0.29 0.8109-0.578 1.2019-0.864m-1.2019 0.864c-0.663 0.111-1.3298 0.209-1.9991 0.294m1.9991-0.294c0.3638-0.061 0.7264-0.125 1.0877-0.194m0.1142-0.67c2.3303-1.705 4.3293-3.352 6.218-5.104m-6.218 5.104c-0.5946-0.267-1.177-0.564-1.7449-0.892m1.7449 0.892c0.1998 0.09 0.401 0.177 0.6035 0.26m5.6145-5.364c1.2416-1.1513 2.4356-2.3482 3.6446-3.6365m-3.6446 3.6365c-0.7612 6e-3 -1.5093 2e-3 -2.2463-0.012m2.2463 0.012c0.4496-3e-3 0.9039-9e-3 1.3631-0.019m2.2815-3.6175c0.4782-0.5095 0.9587-1.0333 1.4455-1.5743m-1.4455 1.5743c-0.1176 0.5193-0.2476 1.0362-0.3897 1.5501m0.3897-1.5501c0.0901-0.3976 0.1728-0.7967 0.248-1.1969m1.1975-0.3774c0.6461-0.7181 1.3033-1.4665 1.9805-2.2518l0.0081-0.0093m-1.9886 2.2611c-0.0473-0.1666-0.0915-0.3342-0.1324-0.5029m0.1324 0.5029c0.051 0.1799 0.1058 0.3586 0.164 0.5361m1.8246-2.7972c0.0418-0.0486 0.0836-0.0971 0.1253-0.1457m-0.1253 0.1457c-0.5893 0.9784-1.1963 1.9098-1.8246 2.7972m1.8246-2.7972c0.0156-0.026 0.0312-0.052 0.0469-0.0781m0.0784-0.0676c0.2827-0.3292 0.5619-0.659 0.8371-0.9896m-0.8371 0.9896c-0.0262 0.0226-0.0523 0.0451-0.0784 0.0676m0.0784-0.0676c0.4489-0.3871 0.8982-0.7789 1.3476-1.1749m-0.5105 0.1853c0.1712-0.2057 0.3408-0.4117 0.5087-0.6181m-0.5087 0.6181c-0.1555 0.0997-0.3113 0.1981-0.4674 0.2952m0.4674-0.2952c0.1701-0.1092 0.3399-0.2199 0.5091-0.3323m-4e-4 -0.2858c2.0501-2.5202 3.8503-5.1061 5.1694-7.9193m-5.1694 7.9193c1e-3 -0.2944 0.0067-0.589 0.0168-0.8836m-0.0168 0.8836c-4e-4 0.0953-2e-4 0.1906 4e-4 0.2858m5.169-8.2051c0.16-0.3413 0.3129-0.6858 0.4583-1.0341m-0.4583 1.0341c-0.1589-0.107-0.3181-0.2142-0.4774-0.3217m0.4774 0.3217c0.7252 0.488 1.4465 0.97 2.1653 1.4463m-1.707-2.4804c1.052-2.5187 1.7121-5.2274 1.8242-8.2353 0.0138-0.3701 0.0163-0.7679 0.0086-1.1885m-1.8328 9.4238c-0.3204 0.25-0.6328 0.4878-0.9357 0.7124m0.9357-0.7124c1.0771-0.8398 2.2456-1.8157 3.4546-2.8796m-1.6218-6.5442c-0.0045-0.2463-0.0125-0.5004-0.0237-0.7612m0.0237 0.7612c0.0666-0.0494 0.1328-0.0984 0.1998-0.147m-0.1998 0.147c-0.8843 0.6568-1.7332 1.3864-2.5372 2.1567m2.5135-2.9179c-0.0063-0.1444-0.0135-0.2909-0.0217-0.4392m0.0217 0.4392c0.0769 0.2043 0.1515 0.409 0.2235 0.6142m-0.2235-0.6142c-0.0401-0.1064-0.0807-0.2126-0.122-0.3187m0.1003-0.1205c-0.0951-1.7182-0.32-3.6907-0.6174-5.6454m0.6174 5.6454c0.7092-0.8489 1.4572-1.6682 2.2382-2.4577m-2.2382 2.4577c-0.0335 0.0401-0.067 0.0803-0.1003 0.1205m-0.5171-5.7659c-0.215-1.4135-0.4679-2.8177-0.7371-4.1098m0.7371 4.1098c1.0126 1.0612 1.9486 2.1031 2.8556 3.1877m-2.8556-3.1877c-1.0752-1.1273-2.2362-2.2763-3.5395-3.5212-0.2188-0.209-0.4395-0.4184-0.662-0.6279m3.4644 0.0393c0.3112 0.0735 0.6223 0.1504 0.9333 0.2306 1.3544 0.3495 2.7854 0.7519 4.1874 1.268m-5.1207-1.4986c-1.2198-0.2882-2.4418-0.5257-3.6649-0.7152m1.3602-6.878c-1.4907-0.2866-2.997-0.5296-4.5114-0.7299m-0.0756-6.9806c-0.5517-0.6794-1.1354-1.3378-1.7525-1.9748m1.7525 1.9748c5.3487 0.6172 10.547 2.139 15.198 4.6214m-15.198-4.6214c-1.2567-0.145-2.5218-0.24-3.7899-0.2859m2.0374-1.6889c-0.8419-0.8692-1.7458-1.6986-2.7147-2.4877m2.7147 2.4877c1.6577-1.2068 3.4606-2.0941 5.3253-2.2573 2.5334-0.2217 4.6779 0.9602 6.8466 2.0589 1.379 0.6981 2.707 1.4579 3.989 2.2793m-16.161-2.0809c-0.7078 0.5152-1.3891 1.0887-2.0374 1.6889m-0.6773-4.1766c-0.0447-0.0364-0.0896-0.0728-0.1345-0.109-3.4426-2.7734-6.1549-4.5085-10.653-4.9672-0.3172-0.0324-0.6362-0.061-0.9563-0.0847m11.744 5.1609c4.0032-0.7523 8.086-1.1818 12.113-0.8176 1.632 0.1477 3.662 0.5269 5.77 1.1687m-17.883-0.3511c-1.2122 0.2278-2.4172 0.4852-3.611 0.7591-0.0611 0.014-0.122 0.0281-0.1829 0.0422m-7.95-5.9622c-0.1349-0.0099-0.2699-0.019-0.4051-0.0272m0.4051 0.0272c1.3815-0.9134 2.7858-1.7874 4.2119-2.6167m-4.2119 2.6167c-0.0533 0.0353-0.1066 0.0706-0.1598 0.1059m-0.2453-0.1331c-1.8518-0.1112-3.7317-0.0408-5.5072 0.4442-1.3251 0.362-2.7022 0.8522-4.104 1.4384m9.6112-1.8826c0.0819 0.0441 0.1637 0.0884 0.2453 0.1331m-0.2453-0.1331c-2.0256-1.089-4.1338-1.9858-6.2931-2.6546m-3.3181 4.5372c-1.5798 0.6607-3.1909 1.4434-4.7944 2.3022m4.7944-2.3022c1.0529 0.2931 2.0994 0.65 3.1362 1.0737 0.5778 0.2362 1.1507 0.4826 1.7181 0.7394m-4.8543-1.8131c-1.8363-0.5112-3.6918-0.8285-5.5484-0.968m0.754 3.2702c-1.6556 0.8868-3.303 1.8547-4.8994 2.8531m4.8994-2.8531c-0.2775-1.0948-0.5305-2.1914-0.754-3.2702m0.754 3.2702c0.2408 0.9496 0.4999 1.8979 0.7744 2.8318m-5.6738 0.0213c-3.105 1.9421-6.0167 3.9998-8.4194 5.8013m8.4194-5.8013c1.8877-0.1096 3.788-0.1162 5.6738-0.0213m-14.093 5.8226c-0.2556 0.1916-0.5054 0.3803-0.7491 0.5657-2.7142 2.0649-5.3587 4.2227-7.9581 6.4361m8.7072-7.0018c0.2709 0.0306 0.5396 0.0694 0.8056 0.1164 3.5369 0.6256 5.6906 2.3828 6.9064 4.6923m-7.712-4.8087c-2.0092-0.2274-4.1365-0.0078-6.1348 0.5995m-2.5724 6.4023c-1.3363 1.138-2.6608 2.2906-3.9767 3.4528m3.9767-3.4528c0.581-1.8339 1.3169-3.6433 2.1299-5.4391 0.1454-0.3212 0.2929-0.6423 0.4425-0.9632m-12.677 15.366c-1.1506 1.0518-2.3245 2.1367-3.5079 3.2502m3.5079-3.2502c0.8647-4.4084 3.0193-8.5238 6.5357-11.767m-10.044 15.017c-1.188 1.1178-2.3856 2.2644-3.5789 3.4353m-0.8461 0.8351c-0.964 0.9573-1.923 1.9298-2.8696 2.915m2.8696-2.915c0.1904-1.1697 0.4212-2.3067 0.6829-3.3946 0.5627-2.3391 1.4748-5.0337 2.6245-7.7374m-6.177 14.047c-0.6499 0.6765-1.294 1.3589-1.9299 2.0467m1.9299-2.0467c0.7147-5.1243 3.5501-10.894 6.1482-14.647m-6.1482 14.647c-0.1419 1.0173-0.2002 2.0091-0.1565 2.9547 0.0298 0.6457 0.1119 1.3078 0.2433 1.9744m-2.0167-2.8824c-0.3158 0.3415-0.6295 0.6844-0.941 1.0284m0.941-1.0284c-0.3629-0.5954-0.6969-1.198-0.9991-1.807m0.9991 1.807c0.5982 0.9815 1.2749 1.9434 2.0167 2.8824m-2.9577-1.854c-0.0789-0.944-0.0981-1.889-0.0581-2.8354m57.426 50.447c0.078-0.046 0.1558-0.092 0.2334-0.138m-0.2334 0.138c0.0894-0.013 0.1788-0.027 0.2682-0.04m-0.0348-0.098c-0.7381-2.08-1.3337-4.221-1.8201-6.375m1.8201 6.375c0.0115 0.033 0.0231 0.065 0.0348 0.098m10.31-7.935c2.1484-2.066 4.097-4.277 5.8871-6.637m-5.8871 6.637c-3.1691 0.087-6.3393-0.067-9.4639-0.511m15.351-6.126c0.4587-0.605 0.907-1.219 1.3456-1.843m-1.3456 1.843c-3.5904 1.515-7.2906 2.224-10.993 2.264m10.993-2.264c0.9571-0.404 1.9064-0.865 2.8458-1.386 0.0641-0.035 0.1283-0.071 0.1926-0.108m-1.6928-0.349c0.6628-0.944 1.3035-1.909 1.9243-2.897m-1.9243 2.897c0.567 0.136 1.1313 0.253 1.6928 0.349m0.2315-3.246c2.0054-0.169 4.0178-0.495 5.9968-0.979m-3.7186-2.902c0.045-0.082 0.09-0.164 0.1349-0.246m-0.1349 0.246c-1.6194 1.192-3.3453 2.21-5.1395 3.01-0.7891 0.351-1.5802 0.668-2.3726 0.952m7.5121-3.962c0.0746-0.054 0.149-0.11 0.2232-0.165m-0.0883-0.081c0.2169-0.398 0.4314-0.799 0.6437-1.204m-0.6437 1.204c-0.8078-0.741-1.5738-1.549-2.2687-2.417m2.2687 2.417c0.0293 0.027 0.0588 0.054 0.0883 0.081m0.5554-1.285c0.4911-0.935 0.9701-1.888 1.4387-2.8587m-1.4387 2.8587c-0.4003-0.754-0.7496-1.537-1.05-2.3418m1.05 2.3418c0.1063 0.201 0.2161 0.399 0.3295 0.595m1.1092-3.4537c0.2954-0.6118 0.5867-1.2306 0.8742-1.8563m-0.8742 1.8563c-0.7675 0.1568-1.5427 0.2947-2.3304 0.4153m2.3304-0.4153c1.0737-0.2192 2.1325-0.4753 3.1898-0.7725m-2.3156-1.0838c1.4141-3.0775 2.7378-6.3236 4.0193-9.7407 0.201-0.5351 0.397-1.0692 0.589-1.6022m-4.6083 11.343c-1.0341 0.8027-2.1041 1.5612-3.2046 2.2716m3.2046-2.2716c1.4665-1.1384 2.8613-2.3657 4.1673-3.6711 1.101-1.0988 2.132-2.2691 3.107-3.4874m-2.666-4.1844c0.671-1.8611 1.288-3.7099 1.852-5.5499m-1.852 5.5499c-0.287-0.1866-0.574-0.3741-0.861-0.5626m0.861 0.5626c1.137 0.7392 2.27 1.4641 3.407 2.175m-1.555-7.7249c0.445-1.4489 0.856-2.8923 1.234-4.332m-1.234 4.332c-0.743 0.8276-1.501 1.6472-2.272 2.4573m2.272-2.4573c1.251-1.393 2.457-2.8088 3.603-4.2411m-2.369-0.0909c0.218-0.8314 0.425-1.6616 0.621-2.4908m-0.621 2.4908c-0.43 0.4109-0.86 0.8166-1.289 1.2151m1.289-1.2151c0.468-0.4485 0.936-0.9031 1.4-1.3614m-0.779-1.1294c0.306-1.2955 0.585-2.5887 0.837-3.881m-0.837 3.881c0.257 0.3662 0.516 0.7422 0.779 1.1294m-0.779-1.1294c-0.334-0.4766-0.664-0.9366-0.992-1.3832m1.829-2.4978c0.311-1.5977 0.58-3.1938 0.808-4.7909m-0.808 4.7909c0.549-0.0857 1.103-0.127 1.66-0.1185m-1.66 0.1185c-0.6 0.0936-1.195 0.2401-1.782 0.4325m2.59-5.2234c0.017-0.1234 0.034-0.2469 0.051-0.3703m-0.051 0.3703c0.289 0.1752 0.572 0.359 0.847 0.5524m-0.847-0.5524c-0.082-0.0494-0.164-0.0981-0.247-0.1462m0.298-0.2241c0.216-1.5627 0.392-3.1264 0.527-4.6933m-0.527 4.6933c0.25-0.1859 0.501-0.3693 0.753-0.5504m-0.753 0.5504c-0.099 0.0743-0.199 0.149-0.298 0.2241m0.825-4.9174c0.1 1.3626 0.176 2.7468 0.226 4.1429m-0.054-6.4931c0.114-1.8974 0.169-3.8011 0.164-5.715m-0.164 5.715c2.087 0.8252 4.087 1.7612 5.974 2.8115m-5.81-8.5265c-4e-3 -1.2892-0.034-2.5831-0.092-3.8828m0.092 3.8828c0.241 0.1419 0.481 0.2865 0.72 0.4339 2.721 1.6831 5.482 3.9849 7.879 6.6906m-8.599-7.1245c-0.436-0.2559-0.877-0.503-1.323-0.7411m1.231-3.1417c-0.069-1.5356-0.176-3.0794-0.321-4.6333m0.321 4.6333c2.54 1.8297 4.888 3.9208 7.066 6.2715 0.425 0.4591 0.846 0.9235 1.263 1.393m-8.329-7.6645c-0.661-0.4755-1.334-0.9334-2.021-1.3736m1.7-3.2597c-0.041-0.4456-0.086-0.8921-0.134-1.3394m0.134 1.3394c0.492 0.2017 0.98 0.4183 1.462 0.6501m-1.462-0.6501c-0.895-0.3678-1.801-0.6863-2.693-0.9578m2.559-0.3816c-8e-3 -0.0723-0.015-0.1447-0.023-0.217m0.023 0.217c0.073 0.034 0.146 0.0681 0.218 0.1022m-0.218-0.1022c-0.988-0.4617-2.003-0.9128-3.045-1.3553m3.022 1.1383c0.081 0.1062 0.161 0.2126 0.241 0.3192m-0.241-0.3192c-1.34-1.7599-2.764-3.4712-4.268-5.113m3.182-2.3095c-0.043-0.2332-0.086-0.4667-0.13-0.7005-0.512-2.7085-1.266-5.387-2.23-7.9876m2.36 8.6881c4.231 2.0277 7.577 5.049 10.647 9.7761 0.931 1.4324 1.704 3.0252 2.193 4.6859m-12.84-14.462c-1.431-0.6857-2.963-1.2579-4.62-1.7438m2.26-6.9443c5.164-0.5526 10.439-0.2601 15.414 1.1349 3.197 0.8964 5.665 1.9302 8.021 4.3001 3.636 3.658 4.7 9.3678 4.75 14.354 0.029 2.8867-0.24 5.7282-0.748 8.5198m-27.437-28.308c-1.602 0.1714-3.194 0.4242-4.7625 0.7506m-4.8654-15.352c-2.7004-2.3492-5.816-4.4753-8.5414-5.6028m8.5414 5.6028c-0.6755 0.202-1.3532 0.423-2.0333 0.6616-0.2471 0.0868-0.4938 0.1748-0.74 0.2641m-5.7681-6.5284c-0.5616-0.23231-1.1066-0.42222-1.628-0.56294-5.2624-1.4202-12.199 0.87341-16.7 3.1608-1.5031 0.76393-2.958 1.6201-4.3816 2.5305m22.71-5.1284c1.7293 1.4344 3.2941 3.0807 4.6142 4.8808 0.3847 0.5246 0.7697 1.0747 1.1539 1.6477m-5.7681-6.5284c-1.0746-0.89137-2.2128-1.7009-3.3952-2.4146-5.3244-3.2139-8.8969-2.2288-13.522 1.2908-2.46 1.8721-4.3394 3.9236-5.7926 6.2522m0 0c-1.9314 1.2351-3.8052 2.57-5.6639 3.9096-7.7443 5.5817-13.161 10.448-19.621 17.471-4.6181 5.0207-8.8114 9.9764-11.582 16.242m36.866-37.623c-1.5579 2.4965-2.6261 5.3114-3.3946 8.565-0.4761 2.0154-0.8083 4.079-0.977 6.1537m-32.495 22.904c-0.1281 0.2897-0.2531 0.5822-0.375 0.8776-0.7803 1.8909-1.3407 3.7891-1.7026 5.6888m2.0776-6.5664c1.3978-1.0416 2.7596-1.9522 4.0024-2.7126 3.6165-2.2127 7.4542-4.0399 11.394-5.6351m-15.396 8.3477c-7.2075 5.3701-15.376 14.221-13.162 23.921 0.3243 1.4211 0.8415 2.8178 1.5183 4.182m9.5666-21.537c-0.4224 2.2177-0.5743 4.4375-0.4894 6.6499m0.4894-6.6499c1.153-1.5776 2.2754-2.962 3.2538-3.9697 3.8776-3.9935 8.2503-7.1716 12.967-9.636m-16.221 13.606c-2.9659 4.058-6.1344 9.3937-7.577 12.88-1.2012 2.9025-1.8681 5.7858-1.9896 8.657m9.0772-14.887c0.0076 0.2001 0.0172 0.4002 0.0288 0.6002m-0.0288-0.6002c0.0421-0.0609 0.0842-0.1212 0.1262-0.181 0.2048-0.2917 0.4152-0.5791 0.6308-0.8627m-0.7282 1.6439c0.0145 0.2514 0.032 0.5026 0.0524 0.7538m-0.0524-0.7538c0.2332-0.5485 0.4763-1.0975 0.7282-1.6439m-0.6758 2.3977c0.5243-0.9284 1.0989-1.8314 1.6692-2.7214 0.9506-1.4832 1.9421-2.836 2.9796-4.1067m1.9824 25.508c0.1952 0.3109 0.394 0.6219 0.596 0.9324m-0.596-0.9324c0.0274-0.0296 0.0548-0.0592 0.0823-0.0886m-0.0823 0.0886c-1.1484 1.2428-2.255 2.6563-3.0503 4.184m3.6463-3.2516c0.0567 0.0871 0.1136 0.1741 0.1707 0.2612m-0.1707-0.2612c-0.0131-0.0247-0.0261-0.0494-0.0391-0.0741-0.1648-0.3134-0.323-0.6291-0.4746-0.9469m0.5137 1.021c0.0491 0.0928 0.0986 0.1854 0.1485 0.2777m0.0222-0.0165-0.0222 0.0165m1.3923 1.9982c1.4053 1.9998 2.8956 3.932 4.3343 5.6657m-4.3343-5.6657c1.135-1.8545 2.3111-3.6711 3.4883-5.4459m-3.4883 5.4459c-0.0372 0.0609-0.0745 0.1218-0.1116 0.1828m4.4459 5.4829c0.264 0.3183 0.5263 0.6298 0.786 0.9338m-0.786-0.9338c-0.065 0.0289-0.13 0.0575-0.1952 0.0859m0.1952-0.0859c0.1024-0.0454 0.2045-0.0915 0.3063-0.138m0.4797 1.0718c-0.1788-0.3493-0.3395-0.7066-0.4797-1.0718m0.4797 1.0718c0.0838 0.1637 0.1716 0.3256 0.2631 0.4858m1.3144 1.3098c1.5757 1.75 3.239 3.4781 4.9758 5.1478m-4.9758-5.1478c2.1708 2.0882 4.5172 3.9934 6.9293 5.7127 0.2417 0.1723 0.4847 0.3434 0.7289 0.5132m-2.6824-1.0781c0.1758 0.169 0.3523 0.3374 0.5296 0.5052m-0.5296-0.5052c0.2732 0.2011 0.5463 0.3977 0.818 0.5899m-0.2884-0.0847c0.8238 0.7796 1.6635 1.5455 2.5176 2.2935m-2.5176-2.2935c0.0961 0.0284 0.1922 0.0567 0.2884 0.0847m2.2292 2.2088c1.3029 1.142 2.6394 2.242 4.0043 3.289m-4.0043-3.289c-0.0758-0.271-0.1436-0.545-0.203-0.822m0.203 0.822c0.3429 1.227 0.8495 2.401 1.4848 3.513m2.5195-0.224c1.8831 1.444 3.8202 2.784 5.7977 3.986 0.9914 0.603 2.0009 1.169 3.0257 1.695m-8.8234-5.681c-0.8369 0.101-1.6771 0.176-2.5195 0.224m2.5195-0.224c0.7242-0.088 1.4458-0.196 2.1641-0.323m6.6593 6.004c0.7102 0.365 1.4277 0.71 2.1517 1.034m-2.1517-1.034c-2.3066 0.302-4.6217 0.231-6.9077-0.119m6.9077 0.119c1.3232-0.173 2.6436-0.469 3.9541-0.906 0.6364-0.212 1.2869-0.476 1.943-0.783m-3.7454 2.723c0.4148 0.186 0.8318 0.366 1.2508 0.538m-1.2508-0.538c-2.4855 0.269-4.9894 0.308-7.4861 0.141m7.4861-0.141c1.2915-0.139 2.578-0.341 3.8559-0.608m-2.6051 1.146c0.8782-0.351 1.7467-0.735 2.6051-1.146m11.416 4.006c-1.3702 1.372-2.8276 2.662-4.3584 3.862m18.389-7.62c1.9796-1.115 4.1211-2.593 6.2283-4.225m-6.2283 4.225c4.0888 0.706 8.0244 0.375 11.674-0.741m-5.4452-3.484c0.0583-0.045 0.1166-0.091 0.1748-0.136m-0.1748 0.136c0.0834-0.021 0.1666-0.041 0.2498-0.062m-0.075-0.074c0.0329-0.026 0.0659-0.051 0.0988-0.077m-0.0988 0.077c-0.1236-0.122-0.245-0.246-0.3642-0.372m0.3642 0.372c0.0249 0.025 0.0499 0.049 0.075 0.074m0.0238-0.151c3.2336-2.528 6.3656-5.396 8.6846-7.8478 1.45-1.5329 2.858-3.1198 4.221-4.7536m-12.906 12.601c-0.1552-0.096-0.3095-0.195-0.463-0.295m0.463 0.295c0.0553 0.034 0.1108 0.068 0.1664 0.102m12.739-12.703c0.366-0.439 0.729-0.8813 1.089-1.3269m-1.089 1.3269c0.55-0.3238 1.096-0.6643 1.636-1.0212m-0.547-0.3057c0.761-0.9429 1.507-1.9004 2.238-2.871m-2.238 2.871c0.182 0.1022 0.364 0.2041 0.547 0.3057m1.691-3.1767c0.203 0.5101 0.398 1.0226 0.583 1.5371m4.936-9.5762c1.373-2.1983 2.67-4.4409 3.885-6.7151m-3.885 6.7151c0.259 1.4533 0.315 2.947 0.154 4.4272m3.731-11.142c0.053-0.0994 0.106-0.1989 0.159-0.2985m-0.159 0.2985c0.05 1.7895-0.177 3.5923-0.737 5.3787-0.655 2.0863-1.693 4.0108-2.994 5.7636m3.731-11.142c-0.012-0.4237-0.039-0.8467-0.082-1.2686m0.241 0.9701c0.166-0.3129 0.33-0.6265 0.493-0.9406m-0.493 0.9406c0.567 2.3668 1.045 4.9362 1.356 7.5502m-1.356-7.5502c-0.079-0.3274-0.159-0.6508-0.241-0.9701m0.734 0.0295c0.451-0.8705 0.891-1.7453 1.318-2.6237m-1.318 2.6237c-0.358-1.1889-0.822-2.3466-1.398-3.4617m1.398 3.4617c0.816 2.712 1.08 5.5866 0.863 8.4908m0.455-11.114c0.107-0.2207 0.213-0.4416 0.319-0.6628 0.096-0.1998 0.191-0.4 0.285-0.6006m-0.604 1.2634c-1.253-1.8599-2.736-3.5649-4.412-5.1202m4.412 5.1202c2.004 2.9775 3.416 6.3518 4.077 10.144m-3.473-11.407c1.623-3.4617 3.022-7.0304 4.052-10.694m-4.052 10.694c0.782 1.3908 1.515 2.8054 2.195 4.2414 0.679 1.4346 1.319 2.9135 1.907 4.4255m-0.05-19.361c0.452-1.6057 0.833-3.2297 1.132-4.871m-1.132 4.871c0.609 0.6658 1.216 1.3504 1.825 2.0547 0.265 0.307 0.529 0.6164 0.79 0.9281m-2.615-2.9828c-1.173-1.2841-2.348-2.4986-3.536-3.6509m4.668-1.2201c0.637-0.1446 1.273-0.2797 1.906-0.404m-1.906 0.404c-1.563 0.3549-3.131 0.7675-4.668 1.2201m-27.532-28.778c-0.5119 0.1066-1.0214 0.2209-1.528 0.3429-1.442 0.3472-2.8696 0.7494-4.2819 1.2027m5.8099-1.5456c0.8915 2.0534 1.7315 4.1356 2.5025 6.1937m-14.574-2.2726c-2.6196 1.147-5.1786 2.4595-7.6711 3.9088m7.6711-3.9088c2.9704 0.1475 5.9983 0.4827 9.1144 1.0295 0.6403 0.1123 1.2643 0.2311 1.8728 0.3572m-10.987-1.3867c-8.3083-0.4125-16.167 0.6437-24.248 2.6467m16.576 1.2621c8.0004 0.5738 15.328 2.423 23.977 5.9934 0.32 0.1321 0.637 0.2648 0.952 0.3984m-24.929-6.3918c-3.4574-0.2479-7.0405-0.2576-10.91-0.0651m6.5384 2.7877c-1.703 1.1312-3.3711 2.3221-5.0022 3.5626m5.0022-3.5626c2.9094 1.5918 5.6443 3.5797 8.1098 5.8563m-13.112-2.2937c-1.5711 1.1948-3.1079 2.4355-4.6086 3.7132m4.6086-3.7132c2.4924 1.1277 4.8798 2.4532 7.1201 3.9676m-11.729-0.2544c-1.0956 0.9328-2.1719 1.8853-3.2283 2.8539m3.2283-2.8539c2.0718 0.2788 4.0992 0.6839 6.0439 1.2134 0.5845 0.1592 1.1608 0.3306 1.7292 0.514m-7.7731-1.7274c-1.4055-0.1891-2.8314-0.3201-4.2657-0.3923m1.0374 3.2462c-2.5972 2.3816-5.0736 4.8608-7.4186 7.3851m7.4186-7.3851c-0.3638-1.0475-0.7114-2.1368-1.0374-3.2462m1.0374 3.2462c0.4817 1.387 0.9919 2.7007 1.5182 3.8913m-8.9368 3.4938c-0.2545 0.274-0.5074 0.5484-0.7587 0.8234-1.4991 1.6396-2.8777 3.2121-4.1804 4.7639m-11.888 16.15c0.2425-0.3593 0.4842-0.7167 0.7245-1.0721l0.1639-0.2424c0.1423-0.2105 0.2838-0.4195 0.4247-0.627m-1.3131 1.9415c-0.6667 0.9873-1.3405 1.9891-2.014 3.0046m2.014-3.0046c-0.1365-0.331-0.2699-0.6641-0.3999-0.9991m0.3999 0.9991c0.1839 0.446 0.3735 0.8883 0.5684 1.3263m-2.5824 1.6783c0.8256-0.5509 1.6893-1.1121 2.5824-1.6783m-6.1823 7.307c1.2476 1.9659 2.6819 3.8227 4.2507 5.5688m-7.7471 0.6283c-0.1391 0.2713-0.2765 0.5433-0.4122 0.8159m0.4122-0.8159c-0.9171-0.6117-1.8254-1.2508-2.7162-1.9151m2.7162 1.9151c0.4381 0.2923 0.8783 0.5784 1.3195 0.8579m-1.7317-0.042c-0.304 0.6112-0.5989 1.2256-0.8835 1.8432m0.8835-1.8432c-0.6756-0.0557-1.3434-0.1585-1.9958-0.3119-0.0193-0.0046-0.0386-0.0092-0.0578-0.0138m2.0536 0.3257c0.5732 0.0472 1.152 0.0605 1.7317 0.042m-2.6152 1.8012c-0.0882 0.1913-0.1754 0.3829-0.2615 0.5748m0.2615-0.5748c-0.4074-0.734-0.7988-1.4599-1.1701-2.1689m1.1701 2.1689c0.783 1.4109 1.625 2.8516 2.4956 4.2599m-2.7571-3.6851c-0.1733-0.3104-0.3346-0.6252-0.483-0.9445-0.2875-0.6187-0.4835-1.234-0.6-1.8434m1.083 2.7879c0.7303 1.3084 1.6736 2.5377 2.7571 3.6851m-4.0751-0.5027c-0.2077 0.5493-0.4056 1.1009-0.5929 1.6545m0.5929-1.6545c-1.0676-1.0113-2.0149-2.1413-2.8028-3.3968-0.634-1.0104-1.1675-2.0871-1.6105-3.2128m3.8204 8.2641c-2.0844-1.9204-3.9566-4.0631-5.5622-6.4097m52.406 34.011c12.259-1.854 24.157-5.669 35.854-10.16 2.836-1.09 5.653-2.177 8.451-3.317m0 0c0.747-0.304 1.492-0.612 2.236-0.925m-2.236 0.925c-2.142-0.029-4.297-0.304-6.401-0.796m6.401 0.796c0.614 8e-3 1.227-4e-3 1.837-0.036m0.399-0.889c-0.133 0.297-0.266 0.593-0.399 0.889m0.399-0.889c2.079-4.658 4.033-9.453 5.642-13.866m8.8 2.9653c1.508 0.346 3.35 0.698 5.229 0.982m-8.162-24.196c-0.201 0.9158-0.411 1.8293-0.629 2.7402m0.629-2.7402c1.187-5.399 2.075-10.878 2.565-16.378m-14.489-3.6485c-3e-3 -0.0041-6e-3 -0.0082-0.01-0.0123m0.01 0.0123c-0.119 0.3077-0.245 0.6141-0.376 0.9184m0.376-0.9184c3e-3 -0.0066 6e-3 -0.0132 8e-3 -0.0198m-0.018 0.0075c-0.344-0.4189-0.692-0.8342-1.044-1.2457m1.044 1.2457 0.018-0.0075m-0.018 0.0075c-0.231 0.0987-0.46 0.1976-0.684 0.2966m-0.36-1.5423c-0.371-0.4345-0.745-0.8648-1.124-1.2909m1.124 1.2909c-0.028 0.2165-0.06 0.4328-0.097 0.6487m0.097-0.6487c0.128-0.9865 0.161-1.9781 0.071-2.9684-0.425-4.6885-4.132-7.9231-8.383-9.9702m7.188 11.648c0.349 0.6439 0.691 1.2911 1.027 1.9396m-1.027-1.9396c-2.269-4.1957-4.783-8.2524-7.188-11.648m-3.162 2.6096c0.282 1.417 0.548 2.9292 0.79 4.5153m-0.79-4.5153c-0.015-0.0742-0.03-0.1483-0.045-0.222-0.252-1.2497-0.571-2.5895-0.948-3.9955m-17.205 3.8255c-0.2239 0.2073-0.4438 0.4177-0.6596 0.63m0.6596-0.63c-0.4069-0.0147-0.8141-0.0244-1.2215-0.029m0.5619 0.659c-0.1849-0.2214-0.3722-0.4411-0.5619-0.659m-2.4574 3.9803c-0.0236 0.0282-0.0471 0.0564-0.0705 0.0844-0.2025 0.2428-0.4029 0.4872-0.6011 0.7331m0.6716-0.8175c0.8721 0.8961 1.702 1.8313 2.4853 2.8046m-3.1569-1.9871c-0.4507 0.5594-0.8901 1.1266-1.3182 1.7012m1.3182-1.7012c0.8811 0.6141 1.7362 1.2639 2.5659 1.9477m-3.8841-0.2465c-0.0222 0.0298-0.0443 0.0595-0.0664 0.0893m0.0664-0.0893c0.0764 0.0312 0.1527 0.0627 0.2289 0.0947m-0.2289-0.0947c-0.7392-0.3014-1.4913-0.5655-2.2562-0.7867-4.3193-1.2486-9.1515-1.0278-12.9 1.6465-0.2252 0.1607-0.4468 0.3269-0.6647 0.498m15.754-1.2685c-5.4675-0.0905-10.836 0.3476-15.754 1.2685m15.754-1.2685c0.0984 0.0016 0.1968 0.0034 0.2953 0.0054m-5.6351 8.6475c-0.5899 1.1587-1.1451 2.3355-1.6668 3.528m1.6668-3.528c4.8536-0.8466 9.7703-1.1587 14.684-0.7443m-14.684 0.7443c-1.7153 0.2992-3.4228 0.6652-5.1194 1.0895m3.4526 2.4385c-0.1159 0.2649-0.2301 0.5306-0.3427 0.7971m0.3427-0.7971c3.4178 0.4956 7.5182 2.1632 9.154 5.54 0.625 1.2903 0.9041 2.6614 0.9249 4.0609m-10.079-9.6009c-0.1971-0.0286-0.392-0.0533-0.5839-0.0742-0.2346-0.0255-0.4697-0.0485-0.7053-0.0692m0.9465 0.9405c-0.7698 1.8219-1.4626 3.6789-2.0821 5.5624m2.0821-5.5624c-0.3182-0.3106-0.6338-0.624-0.9465-0.9405m0.9465 0.9405c2.1809 2.128 4.4854 4.1199 6.8114 6.0057 1.1832 0.9592 2.3888 1.8891 3.6102 2.7981m-12.504-3.2414c-1.9785 6.0164-3.2081 12.304-3.8052 18.585m3.8052-18.585c3.5378-0.7719 6.7514-0.1379 9.5787 2.412m-9.5787-2.412c-0.5213 0.1138-1.0496 0.258-1.5848 0.4312-3.6691 1.1873-8.993 4.2747-11.909 6.5697-1.8459 1.4526-3.7779 3.1355-5.5491 5.0149m15.238 6.5692c-0.0192 0.2024-0.0378 0.4048-0.0557 0.6072-0.1007 1.1361-0.1848 2.2294-0.2522 3.2916m0.3079-3.8988c1.238-4.2514 4.1966-8.3883 6.9048-11.613 1.1127-1.325 3.5321-3.849 5.4743-4.4115 0.3569-0.1034 0.6914-0.1507 1.0048-0.1486m-13.384 16.173c-0.1575 0.541-0.2872 1.0838-0.3849 1.6268-0.1373 0.7628-0.1758 1.5209-0.1283 2.2669m0.2053 0.0051c-0.0242 0.3816-0.0463 0.7591-0.0662 1.1332m0.0662-1.1332c-0.0683-0.0015-0.1368-0.0032-0.2053-0.0051m0.2053 0.0051c2.277 0.0499 4.4041-0.1199 6.5112-0.5079m-6.5774 1.6411c-0.062 1.1657-0.103 2.2976-0.1227 3.4119m0.1227-3.4119c-0.0678-0.3756-0.1148-0.7554-0.1391-1.1383m0.1391 1.1383c0.1728 0.9571 0.4811 1.8874 0.8958 2.7746m-1.0185 0.6373c-0.0028 0.1576-0.0052 0.3148-0.0071 0.4718m0.0071-0.4718c-0.0714 0.0435-0.1431 0.087-0.2151 0.1305-0.1191 0.0718-0.2385 0.1431-0.3582 0.2138m0.5733-0.3443c0.3473-0.2118 0.6866-0.424 1.0185-0.6373m-1.0256 1.1091-0.0012 0.1026m0.0012-0.1026c-0.1886-0.0416-0.3773-0.0841-0.5662-0.1275m0.5662 0.1275c0.2203 0.0486 0.4404 0.096 0.6603 0.1422m-0.6615-0.0396c-9e-3 0.8015-0.0068 1.5957 0.0066 2.3877m-0.0066-2.3877c-0.2427-0.02-0.5138-0.047-0.8175-0.0821m0.8175 0.0821c0.2488 0.0204 0.4678 0.0333 0.6615 0.0396m-0.6549 2.3481c0.0142 0.844 0.0412 1.686 0.0811 2.534m-0.0811-2.534c-1.0146 0.11-2.0342 0.186-3.0569 0.23m3.0569-0.23c0.6919-0.075 1.3816-0.166 2.0683-0.274 0.3381-0.053 0.6732-0.109 1.0051-0.166m-2.9923 2.974c0.048 1.022 0.1147 2.052 0.2002 3.103m-0.2002-3.103c-1.0892-0.688-2.1261-1.456-3.138-2.304m3.138 2.304c0.8493 0.537 1.7303 1.026 2.6559 1.467m-2.4557 1.636c0.0019 0.023 0.0038 0.047 0.0057 0.07m-0.0057-0.07c-0.0388 0.024-0.0777 0.047-0.1165 0.07m0.1165-0.07c0.8323-0.505 1.6566-1.057 2.4557-1.636m-2.45 1.706c0.0504 0.614 0.1071 1.234 0.1704 1.865m-0.1704-1.865h-0.1222m0.1222 0c1.3146-6e-3 2.6347-0.069 3.95-0.186m-3.7796 2.051c0.0065 0.065 0.0131 0.131 0.0198 0.196m-0.0198-0.196c-0.9076-0.159-1.811-0.35-2.7093-0.569m2.7093 0.569c0.095 0.017 0.1902 0.033 0.2854 0.049m-0.2656 0.147c0.0232 0.228 0.0473 0.457 0.0721 0.687m-0.0721-0.687c-0.862 0.476-1.735 0.927-2.6186 1.35m2.6186-1.35c0.0886-0.048 0.1772-0.097 0.2656-0.147m-0.1935 0.834c-0.8918 0.254-1.7891 0.475-2.6907 0.663m2.6907-0.663c0.6276-0.179 1.2524-0.375 1.8741-0.588m-0.7323 8.55c1.0684 0.226 2.1442 0.415 3.2255 0.569m51.337-19.822c0.698-1.9171 1.332-3.7622 1.881-5.4928 1.251-3.9371 2.384-7.9507 3.357-12.016m-5.238 17.508c-0.168-0.0699-0.336-0.1405-0.503-0.2116m5.741-17.297c0.586 3.3625 0.58 7.0534-0.127 11.087m3.321-30.206c0.245-2.7495 0.39-5.5045 0.423-8.2578m-41.744-41.58c-5.7501 2.0851-11.242 4.8557-16.552 7.9416m0 0c-3.4577 2.0093-6.8386 4.1523-10.164 6.3268-2.0813 1.361-4.1522 2.7492-6.2069 4.167m16.371-10.494c-1.785-0.186-3.6555-0.1377-5.7528 0.1968-4.0041 0.6384-7.4853 2.6181-10.544 5.1802m-0.0736 5.1168c-1.3814 0.9532-2.7555 1.9197-4.1204 2.9002m4.1204-2.9002c-0.0083-0.144-0.0154-0.2861-0.0214-0.4263-0.0666-1.5592-0.0321-3.128 0.095-4.6905m-4.194 8.017c-1.6402 1.1783-3.2671 2.3768-4.8775 3.5968m4.8775-3.5968c-1.4215 0.2871-2.8365 0.6972-4.2371 1.2395m-0.6404 2.3573c-0.3207 0.2428-0.6407 0.4866-0.96 0.7312m0.96-0.7312c-0.4574 0.1539-0.9146 0.3094-1.3712 0.4669m0.4112 0.2643c-0.4054 0.3106-0.8098 0.6225-1.213 0.9359m1.213-0.9359c-0.2561 0.0855-0.5115 0.1726-0.7662 0.2615m-0.4468 0.6744c-0.5339 0.4149-1.0658 0.8323-1.5956 1.2522m1.5956-1.2522c0.1479-0.2256 0.2969-0.4504 0.4468-0.6744m-0.4468 0.6744c-0.1926 0.2936-0.3835 0.5887-0.5726 0.885m-1.023 0.3672c-2.8705 2.275-5.6788 4.6235-8.4061 7.0527-0.3237 0.2884-0.6438 0.5741-0.9603 0.858m9.3664-7.9107c0.3393-0.1276 0.6804-0.2501 1.023-0.3672m-1.023 0.3672c-2.5273 0.9504-4.9606 2.1881-7.2446 3.664m-2.1218 4.2467c-3.0058 2.6956-5.6921 5.2232-8.1252 8.2028m8.1252-8.2028c0.6268-1.5918 1.3268-2.9936 2.1218-4.2467m-10.247 12.45c-1.4166 1.393-2.7733 2.8518-3.973 4.4304m0.2416 27.557c0.0039 0.0084 0.0077 0.0167 0.0116 0.0251m-0.0116-0.0251c0.873-0.7868 1.7631-1.552 2.6635-2.2955m-2.6635 2.2955-0.0093 0.0084m0.0209 0.0167c0.4454 0.9678 0.9582 2.0145 1.5223 3.1067m-1.5223-3.1067c-7e-3 -0.0056-0.0139-0.0111-0.0209-0.0167m0.0209 0.0167c0.498 0.3975 1.0035 0.7871 1.5148 1.1685m0.0075 1.9382c0.08 0.1548 0.1609 0.3105 0.2429 0.4671m-0.2429-0.4671c-0.0867-0.6546-0.0842-1.3018-0.0075-1.9382m0.0075 1.9382c0.0187 0.1406 0.0414 0.2816 0.0685 0.4229m0.1744 0.0442c-0.0584-0.0142-0.1165-0.0289-0.1744-0.0442m3.8401 6.473c0.8033 1.2994 1.631 2.5717 2.4594 3.7667m-2.4594-3.7667c1.9041 2.0166 4.2414 3.7807 6.6169 5.2757m-4.1575-1.509c1.1559 1.667 2.3131 3.186 3.407 4.422m-3.407-4.422c1.3487 0.604 2.7471 1.105 4.1575 1.509m32.232 5.666c1.1859-0.662 2.351-1.367 3.4942-2.1m-3.4942 2.1c0.5587 0.094 1.119 0.176 1.6806 0.246m1.8136-2.346c0.2798-0.179 0.5583-0.36 0.8355-0.542m-0.8355 0.542c0.6299-0.055 1.2587-0.123 1.8854-0.202m-1.0499-0.34c0.8478-0.559 1.6832-1.131 2.506-1.71m-2.506 1.71c-0.812-0.296-1.5883-0.621-2.3355-0.978m2.3355 0.978c0.0384 0.013 0.0768 0.027 0.1153 0.041 0.3128 0.112 0.6243 0.212 0.9346 0.299m1.4561-2.05c1.9807-1.395 3.8879-2.832 5.7166-4.224m-5.7166 4.224c-0.729-0.421-1.4341-0.895-2.1105-1.425m7.8271-2.799c0.3271-0.2496 0.6518-0.4973 0.974-0.7431l0.2374-0.1811c1.5961-1.2176 3.2485-2.5207 4.9275-3.8972m-6.1389 4.8214c-1.5994-0.031-3.147-0.107-4.6641-0.232m10.803-4.5894c0.3539-0.2902 0.7091-0.5836 1.0651-0.8803m-1.0651 0.8803c0.0979-0.5209 0.1831-1.0439 0.2552-1.5683m0.8099 0.688c0.7197-0.5995 1.4431-1.2119 2.1679-1.8363m-2.1679 1.8363c-0.0797-0.3288-0.1471-0.6615-0.2013-0.9977m2.3692-0.8386c0.1505-0.2509 0.2998-0.5049 0.4481-0.762m0.9779-0.4805c0.2397-0.2113 0.4793-0.4238 0.7189-0.6375m-0.7189 0.6375c-6e-4 -0.049-1e-3 -0.098-0.0014-0.147m0.0014 0.147c0.027 2.2787 0.3324 4.5386 0.9527 6.675m-0.2338-7.3125c2.2353-1.9939 4.4623-4.0924 6.614-6.2683m-6.614 6.2683c-0.2389 0.1669-0.4792 0.3304-0.7203 0.4905m0.7203-0.4905c2.4462-1.7082 4.7645-3.7714 6.6684-6.2322m-0.0544-0.0361c0.1184-0.1197 0.2366-0.2397 0.3546-0.3599m-0.3546 0.3599c0.0181 0.012 0.0362 0.0241 0.0544 0.0361m0.3002-0.396c0.442-0.4503 0.88-0.9038 1.315-1.3603m-1.315 1.3603c-0.099 0.1331-0.199 0.2651-0.3002 0.396m0.3002-0.396c0.492-0.6627 0.954-1.3534 1.381-2.0728m-0.066 0.7125c-0.093 0.8384-0.238 1.6819-0.441 2.53m0.441-2.53c0.026-0.2379 0.048-0.4754 0.066-0.7125m5.809-5.9859c0.14-0.1762 0.281-0.3527 0.42-0.5294m-0.42 0.5294c0.106 0.1626 0.213 0.3261 0.319 0.4902m-0.319-0.4902c-0.145-0.2197-0.289-0.438-0.433-0.6548-0.181-0.2711-0.359-0.5368-0.536-0.7975m1.389 0.9229c1.376-1.7486 2.661-3.5204 3.824-5.3039m-3.824 5.3039c-0.032 0.3408-0.065 0.6807-0.101 1.0196m0.101-1.0196c0.076-0.8328 0.139-1.6709 0.189-2.5123m3.635-2.7916c0.087-0.133 0.173-0.2661 0.259-0.3993m-0.259 0.3993c0.17 0.0722 0.339 0.1498 0.508 0.2332m-0.508-0.2332c-0.251-0.1071-0.503-0.2019-0.754-0.285m1.013-0.1143c0.617-0.9614 1.198-1.9259 1.74-2.8919 0.169-0.3013 0.337-0.6062 0.505-0.9142m-2.245 3.8061c0.089 0.2054 0.172 0.4162 0.249 0.6325m-0.249-0.6325c-0.1-0.2295-0.207-0.4523-0.321-0.6686m2.566-3.1375c-0.737 0.9788-1.606 2.0377-2.566 3.1375m4.694-7.6089c0.314-0.7995 0.59-1.6102 0.813-2.4282m-0.813 2.4282c-0.732-0.4679-1.484-0.9164-2.255-1.3458m2.255 1.3458c0.175 0.1124 0.35 0.226 0.523 0.3406m0.29-2.7688c0.047-0.1698 0.091-0.3399 0.133-0.5103m-0.133 0.5103c0.237 0.2735 0.47 0.551 0.698 0.8322m-0.698-0.8322c-0.092-0.1071-0.185-0.2137-0.279-0.3196m0.412-0.1907c0.098-0.4027 0.183-0.807 0.253-1.2125m-0.253 1.2125c0.232-0.1063 0.469-0.2127 0.71-0.3189m-0.71 0.3189c-0.139 0.0636-0.277 0.1272-0.412 0.1907m0.665-1.4032c0.154 0.2976 0.306 0.5955 0.457 0.8936m-8.672-14.481c-0.287-0.4052-0.573-0.8009-0.856-1.1864-0.173-0.2344-0.346-0.4681-0.522-0.7009m-2.777 0.2794c-0.153-0.5687-0.315-1.1482-0.486-1.7369m-21.19 2.1871c-2.1162 0.491-4.102 1.0466-5.9919 1.6739m5.9919-1.6739c1.1445 1.0568 2.2309 2.1758 3.2497 3.3463m-9.2416-1.6724c-1.3641 0.4528-2.6783 0.9428-3.9556 1.473m3.9556-1.473c0.9477 0.6407 1.869 1.3151 2.7609 2.0227m-6.7165-0.5497c-3.3348 1.3839-6.4184 3.0407-9.4832 5.0178m9.4832-5.0178c1.0422 0.3362 2.0576 0.7128 3.0466 1.1279m-12.53 3.8899c-1.6918 1.0914-3.3779 2.2804-5.0972 3.575m5.0972-3.575c0.0554 0.1253 0.111 0.2493 0.1667 0.3719m-5.2639 3.2031c1.1691-0.8262 2.4193-1.6218 3.8104-2.4138 0.478-0.2721 0.9627-0.5352 1.4535-0.7893m-8.208 5.4973c-0.1285 0.1044-0.2566 0.2093-0.3843 0.3147m0.3843-0.3147c0.0119 0.0468 0.0235 0.0939 0.0349 0.141m-0.0349-0.141c-0.0013-0.0052-0.0026-0.0104-0.0039-0.0155m-0.3804 0.3302c-0.0727 0.06-0.1453 0.1202-0.2177 0.1805m0.2177-0.1805c-0.0056 0.0024-0.0111 0.0047-0.0167 7e-3m0.0167-7e-3c0.1388-0.0584 0.2786-0.1163 0.4192-0.1737m-0.6369 0.3542c-2.6679 2.2211-5.1717 4.6592-7.4481 7.2833-0.159 0.1833-0.3326 0.3921-0.518 0.6234m7.9661-7.9067c0.0669-0.058 0.1339-0.1159 0.201-0.1735m-0.201 0.1735c-1.4854 1.2881-2.9373 2.6922-4.5185 4.2858-1.1543 1.1632-2.3139 2.3698-3.4476 3.6209m0 0c-1.2936 1.614-3.1628 4.323-4.671 7.0973m4.671-7.0973c-2.2197 2.4496-4.34 5.0701-6.1252 7.8705m1.4542-0.7732c-0.7134 1.3124-1.3461 2.6394-1.7988 3.872m1.7988-3.872c0.8331-0.4278 1.7035-0.8511 2.6208-1.2783 3.1984-1.4893 6.6659-2.8634 10.256-3.9549m-12.876 5.2332c-0.4974 0.2555-0.9814 0.5126-1.4542 0.7732m-0.3446 3.0988c-0.0654 0.178-0.127 0.354-0.1846 0.5277m0.1846-0.5277c4.5741-2.7969 9.6935-5.6129 14.34-7.8105m-14.34 7.8105c-0.1168 0.0714-0.2333 0.1428-0.3493 0.2142m0.1647 0.3135c-0.2979 0.8987-0.4874 1.7359-0.5272 2.4662-0.0234 0.429-0.0135 0.8527 0.0264 1.2705m0.5008-3.7367c-0.0555-0.1042-0.1104-0.2087-0.1647-0.3135m-0.3361 4.0502c-0.2022-0.3781-0.3984-0.7607-0.5885-1.1476-0.2856-0.5816-0.5623-1.1721-0.8289-1.7704m4.2982 9.1778c1.4502 1.7387 3.2428 3.1941 4.9006 4.2553 0.0938 0.06 0.1878 0.1196 0.2821 0.1786m-5.1827-4.4339c0.2784-0.2119 0.553-0.4284 0.8237-0.6493m4.359 5.0832c0.872 0.5462 1.768 1.0531 2.6822 1.527m-2.6822-1.527c0.0586-0.1374 0.1188-0.2743 0.1807-0.4106m-0.1807 0.4106c-0.6772 1.5886-1.1343 3.2496-1.2914 4.9724-0.098 1.0735-0.0645 2.1186 0.0827 3.1318m3.8909-6.5772c2.5258 1.3094 5.1901 2.3671 7.8675 3.3064 0.5338 0.1873 1.0616 0.3679 1.5841 0.542m-9.4516-3.8484c-0.8641-0.6073-1.6986-1.2539-2.5015-1.9376m2.5015 1.9376c2.1161 1.4874 4.4105 2.7394 6.8575 3.7261 1.1613 0.4683 2.349 0.8855 3.5559 1.229m-0.9618-1.1067c2.5726 0.8573 5.0179 1.5562 7.4274 2.1096m-7.4274-2.1096c-1.3184-1.5762-2.5134-3.2624-3.5369-5.0435m3.5369 5.0435c0.3138 0.3752 0.6346 0.7441 0.9618 1.1067m6.4656 1.0029c-0.084 0.0496-0.1682 0.0989-0.2525 0.148m1.479 0.1217c0.3949 0.083 0.7892 0.1621 1.1833 0.2373m-1.1833-0.2373c0.4545 0.0148 0.7697-0.0069 1.0038-0.0535m0.1795 0.2908c1.773 0.3385 3.5431 0.5995 5.3475 0.7883m-5.3475-0.7883c-0.061-0.0962-0.1209-0.1932-0.1795-0.2908m0.1795 0.2908c0.3709 0.5846 0.786 1.1428 1.2352 1.6708m4.1123-0.8825c0.4791 0.0501 0.9607 0.0952 1.4453 0.1355m-1.4453-0.1355c-1.3119 0.3395-2.6834 0.6335-4.1123 0.8825m4.1123-0.8825c0.7301-0.1891 1.4418-0.3925 2.1346-0.6107m-0.6893 0.7462c-0.2836 0.301-0.568 0.595-0.8524 0.883-0.6885 0.697-1.468 1.424-2.3106 2.148m3.163-3.031c0.2305-0.2448 0.4604-0.4935 0.6893-0.7462m7.5842 0.9712c0.3047-6e-3 0.6115-0.014 0.9207-0.024 0.1141-3e-3 0.2277-7e-3 0.3409-0.01m-1.2616 0.034c-2.065 2.08-4.3621 3.85-6.9776 5.383m6.9776-5.383c0.6529-0.6574 1.2826-1.3459 1.8918-2.0674m-0.6302 2.0334c1.6996-0.058 3.3035-0.16 4.8439-0.3171m-4.8439 0.3171c-0.4497 1.308-0.977 2.592-1.5747 3.841m1.5747-3.841c0.2308-0.6719 0.4411-1.35 0.6302-2.0334m4.2137 1.7163c0.1404-0.0144 0.2803-0.0291 0.4197-0.0444m-0.4197 0.0444c-0.9413-1.3239-1.71-2.7677-2.2145-4.3046m2.2145 4.3046c0.0519 0.0729 0.1043 0.1451 0.1572 0.2181m0.2625-0.2625c0.7077-0.0773 1.4024-0.1666 2.0873-0.2689m-2.0873 0.2689c-0.0876 0.0882-0.1752 0.1755-0.2625 0.2625m0.2625-0.2625c0.5373-0.5405 1.0792-1.1113 1.616-1.703m0.4713 1.4341c0.062-0.0092 0.1238-0.0186 0.1856-0.028m-0.1856 0.028c-0.1736-0.4708-0.3306-0.9493-0.4713-1.4341m0.4713 1.4341c0.0091 0.0246 0.0182 0.0491 0.0273 0.0736m0.1583-0.1016c-0.0527 0.034-0.1054 0.0679-0.1583 0.1016m5.6785-1.2894c-1.2938 1.5396-2.7393 2.9632-4.299 4.2262m4.299-4.2262c1.3927-1.6569 2.6097-3.4482 3.6037-5.3175 0.494-0.9298 0.945-1.907 1.355-2.9248m8.168 2.3899c0.775-0.5129 1.536-1.0597 2.274-1.6396m5.09-5.149c-0.17 1.5537-0.579 3.0924-1.244 4.5536-0.686 1.5054-1.503 2.9105-2.432 4.2158m7.325-21.18c-0.115-1.1554-0.342-2.3022-0.664-3.4322m0.664 3.4322c-0.304-1.19-0.63-2.3204-0.967-3.3695-0.153-0.478-0.316-0.9633-0.49-1.4551m0.793 1.3924c-0.417-1.4613-0.993-2.8946-1.696-4.2822m1.696 4.2822c-0.244-0.472-0.508-0.9364-0.793-1.3924m-0.903-2.8898c-0.257-0.5061-0.53-1.0062-0.819-1.4994m0.819 1.4994c-0.102-0.0946-0.205-0.1886-0.308-0.282m-0.511-1.2174c0.175 0.408 0.345 0.814 0.511 1.2174m-3.337-5.2755c-0.314 0.6657-0.647 1.3149-0.988 1.9366m0.988-1.9366c0.16-0.3386 0.315-0.6815 0.463-1.0273m-1.44-0.1245c-0.082 0.0384-0.164 0.0767-0.244 0.1151-0.852 0.4046-1.702 0.8337-2.545 1.2869m-27.343-14.204c-2.1645-0.0244-4.3333 0.0935-6.4807 0.3503m0 0c-1.232 0.1473-2.4569 0.3403-3.6699 0.5782m0 0c-4.3476 0.8529-8.5428 2.2839-12.363 4.2618m-8.2119 5.4818c-0.1328 0.1116-0.2651 0.224-0.3971 0.3372m-14.292 15.951c-0.4468 0.7009-0.8726 1.4131-1.2737 2.1366m1.2737-2.1366c-0.525 0.2894-1.036 0.583-1.5359 0.8834m0.2622 1.2532c-0.4102 0.7399-0.7945 1.4916-1.1491 2.2554m1.1491-2.2554c-0.1529-0.3268-0.3003-0.6564-0.4421-0.9885m0.4421 0.9885c0.1852 0.3962 0.3786 0.7884 0.5798 1.1764m-1.7289 1.079c-0.0082 0.0178-0.0164 0.0355-0.0246 0.0532m0.0246-0.0532c0.5653-0.3581 1.1423-0.7183 1.7289-1.079m-1.7289 1.079c-0.0126 8e-3 -0.0251 0.0159-0.0377 0.0239m0.0131 0.0293c-0.3662 0.7924-0.7003 1.5979-0.9979 2.4165-0.9312 2.5608-1.5176 6.6199-0.7218 9.3826 0.0804 0.2789 0.1728 0.5534 0.2765 0.8235m1.4432-12.623c-0.0044-0.0098-0.0088-0.0195-0.0131-0.0293m-0.6873 14.21c-0.4232-0.4372-0.8383-0.8817-1.2443-1.3337m8.3525 8.3812c0.6924 0.4899 1.3754 0.9516 2.0262 1.3868m-2.0262-1.3868c0.6195 0.1808 1.2427 0.3544 1.8691 0.5204m0.1571 0.8664c0.0329 0.022 0.0657 0.044 0.0984 0.066 2.2505 1.505 4.1793 2.73 6.273 3.722m-6.3714-3.788c-0.0615-0.2858-0.114-0.5748-0.1571-0.8664m6.5285 4.6544c1.5769 0.748 3.2473 1.363 5.2191 1.868m-5.2191-1.868c0.2997-0.053 0.5988-0.109 0.8972-0.169m4.3219 2.037c0.0983 0.026 0.1974 0.05 0.2972 0.075 3.018 0.744 6.2201 1.083 9.4568 1.076m-9.754-1.151c-1.4643-0.616-2.9064-1.299-4.3219-2.037m4.3219 2.037c2.3932 1.008 4.8456 1.839 7.3373 2.447m2.4167-1.296c-0.8039 0.483-1.6145 0.921-2.4167 1.296m11.461-2.172c0.3886-0.074 0.7758-0.152 1.161-0.234m-1.161 0.234c-0.5066 0.282-1.0249 0.557-1.5555 0.823m1.5555-0.823c0.2419-0.135 0.4811-0.271 0.7177-0.41m0.4433 0.176c2.0602-0.44 4.0672-1.001 5.979-1.667 0.0808-0.028 0.1615-0.056 0.2422-0.085m-6.2212 1.752c-0.1484-0.057-0.2962-0.116-0.4433-0.176m0.4433 0.176c0.8188 0.315 1.6574 0.579 2.51 0.797m3.7112-2.549c1.4108-0.501 2.7994-1.079 4.1577-1.729m-4.1577 1.729c-0.237 0.495-0.485 0.985-0.7436 1.469m4.9013-3.198c0.9949-0.476 1.9736-0.99 2.9328-1.54m-2.9328 1.54c-0.1332 0.111-0.2648 0.218-0.3947 0.322-1.439 1.15-2.9439 2.134-4.5066 2.876m4.9013-3.198c0.7664-0.637 1.5847-1.386 2.4181-2.211m0.5147 0.671c0.6295-0.361 1.2506-0.737 1.8624-1.1288m-1.8624 1.1288c-0.1763-0.22-0.3481-0.444-0.5147-0.671m13.014-9.9895c0.439-0.5479 0.866-1.1056 1.284-1.6708m-1.284 1.6708c0.264-0.6536 0.51-1.3241 0.741-2.0094m0.543 0.3386c0.668-0.9045 1.31-1.8283 1.93-2.7626 0.896-1.3474 1.874-2.8355 2.718-4.4193m-4.648 7.1819c-0.181-0.1125-0.362-0.2254-0.543-0.3386m5.191-6.8433c1.705-3.1966 2.869-6.7828 1.722-10.388-0.036-0.113-0.073-0.2246-0.113-0.3347m-1.609 10.723c-0.909-1.5985-1.861-3.1473-2.824-4.6325m3.863-7.3914c-0.832-1.5781-2.034-2.8126-3.438-3.8m3.438 3.8c-0.226 0.2588-0.457 0.52-0.692 0.7829m-2.746-4.5829c0.029 1.3682 0.032 2.7445 5e-3 4.12m-5e-3 -4.12c-0.011-0.4922-0.025-0.9834-0.043-1.4731m-1.051 0.7745c-1.056-0.6142-2.192-1.1171-3.348-1.5428m3.348 1.5428c-0.893 0.6763-1.763 1.3834-2.606 2.1212m-0.742-3.664c0.332 1.2623 0.577 2.4833 0.742 3.664m-0.742-3.664c-0.205-0.7794-0.443-1.5746-0.715-2.3858m-8.0706 0.172c-0.2079-0.0322-0.416-0.0631-0.624-0.0926m0.624 0.0926c0.0685 0.2244 0.1353 0.4497 0.2005 0.6759m-0.8245-0.7685c-0.2134-0.0302-0.4267-0.059-0.6401-0.0863m0.6401 0.0863c0.2776 0.2559 0.5525 0.5123 0.8245 0.7685m-0.8245-0.7685c-0.6167-0.5684-1.2473-1.1346-1.8917-1.6918m1.2516 1.6055c-0.7144-0.0916-1.429-0.1673-2.1437-0.2276m2.1437 0.2276c0.6568 0.8774 1.2912 1.7815 1.9037 2.7106 0.0286 0.0433 0.057 0.0866 0.0855 0.13m-1.9892-2.8406c-0.4085-0.5457-0.8257-1.081-1.2516-1.6055m-0.8921 1.3779c1.5105 3.2646 2.564 6.8178 3.0629 10.639 0.2918 2.2357 0.4078 4.3299 0.3548 6.2889m-3.4177-16.928c-0.5939-1.2836-1.2584-2.5225-1.9876-3.7156m-17.816 5.5494c0.7019 0.7826 1.4244 1.5472 2.1634 2.2951m-11.724 0.7067c-0.6522 0.2442-1.3018 0.4949-1.9486 0.7518-1.3997 0.5558-2.8962 1.2089-4.4506 1.9347m6.3992-2.6865c-1.9174 0.3606-3.8254 0.8249-5.7035 1.3694m-0.6957 1.3171c-0.162 0.0757-0.3246 0.1521-0.4878 0.2293m0.4878-0.2293c0.1936-0.3978 0.4287-0.8414 0.6957-1.3171m-1.1835 1.5464c0.1174-0.4197 0.2301-0.8522 0.3358-1.2947m-24.254 15.548c-1.2724 0.9493-2.5435 1.9407-3.7948 2.9739m0 0c-0.5778 1.11-0.9913 2.2802-1.1371 3.4891m-1.5357-1.1852c-0.643 0.5799-1.2767 1.1714-1.8983 1.7747m0 0c1.0464 0.814 2.2229 1.4321 3.51 1.7716m-4.6483-0.6393c-0.5948 0.6068-1.1763 1.225-1.7418 1.8544m1.7418-1.8544c-0.4175-1.0609-0.7546-2.1653-1.0197-3.2987m61.593 21.16c0.2375-0.355 0.4692-0.715 0.6947-1.079m-0.6947 1.079c0.6374-0.135 1.2746-0.289 1.9114-0.464m-1.2167-0.615c0.1053-0.17 0.2093-0.341 0.3119-0.512m-0.3119 0.512c0.4061 0.216 0.8117 0.421 1.2167 0.615m-1.2167-0.615c-0.5328-0.283-1.0665-0.585-1.6009-0.907m1.9128 0.395c0.2989-0.501 0.5862-1.009 0.8616-1.523m-0.8616 1.523c-0.6435-0.108-1.2819-0.239-1.9128-0.395m1.9128 0.395c1.0946 0.183 2.2041 0.302 3.3174 0.364m-2.4558-1.887c-0.9677 0.459-1.9575 0.825-2.9676 1.08m5.9161-8.4234c0.6914-0.8189 1.3565-1.6806 1.9992-2.5883m-1.1063-1.727c0.01-0.073 0.0198-0.146 0.0293-0.219m-0.0293 0.219c-0.1688 0.0842-0.3372 0.1669-0.5052 0.2482m0.5052-0.2482c0.2024-0.1011 0.4054-0.2043 0.6086-0.3097m-0.5793 0.0907c0.2304-1.7673 0.3117-3.5503 0.2284-5.3279m-0.2284 5.3279c-0.175 0.1582-0.3532 0.3139-0.5345 0.4672m0.5345-0.4672c0.1771-0.1602 0.351-0.323 0.5217-0.4884m-0.2933-4.8395c-0.1058-2.2572-0.4768-4.506-1.1443-6.7035-0.3125-1.0285-0.6508-1.9504-1.0443-2.8034m2.1886 9.5069c-1.0089 0.5249-2.0311 1.0217-3.0658 1.4878-0.4216 0.1899-0.8375 0.3729-1.2482 0.549m4.314-2.0368c0.2311-0.1203 0.4615-0.242 0.6912-0.3652m-2.8798-9.1417c-0.3327-0.7213-0.7049-1.3933-1.1343-2.0386m1.1343 2.0386c0.4015 2.1489 0.3712 4.3934 0.1265 5.4892-0.4602 2.0605-1.2469 4.0948-2.2519 6.0545m2.1254-11.544c-0.2076-1.1117-0.5308-2.1977-0.9996-3.0859m-0.1347 1.0473c-0.6702-1.0074-1.4797-1.9501-2.4959-2.9145-0.0816-0.0774-0.1635-0.1532-0.2457-0.2274m2.7416 3.1419c-0.6724 4.0382-3.0594 8.0738-5.1238 10.887-1.564 2.1309-3.1091 3.9274-4.7984 5.5354m9.9222-16.422c0.0582-0.3494 0.1035-0.6987 0.1347-1.0473m-2.8763-2.0946c1.2933 0.0089 2.2252 0.861 2.8763 2.0946m-31.498 7.5092c-1.2894 1.3682-2.4936 2.8405-3.5173 4.4038m3.5173-4.4038c0.6203 2.8998 1.7355 5.6496 3.2037 8.2043m-6.721-3.8005c-0.6445 0.9843-1.2175 2.0047-1.6952 3.058m1.6952-3.058c-1.4456-1.0716-2.8041-2.2665-4.0582-3.566m4.0582 3.566c2.0774 1.5399 4.3347 2.8252 6.721 3.8005m-8.4162-0.7425c-1.6514-1.4063-3.1697-2.9697-4.5397-4.6726m3.1503 13.187c0.0016 0.0107 0.0031 0.0215 0.0047 0.0322m-0.0047-0.0322c0.024 0.0167 0.048 0.0333 0.072 0.05m-0.0673-0.0178c0.0224 0.0059 0.0448 0.0119 0.0673 0.0178m1.7776 5.1836c1.1351 1.988 2.6807 3.781 4.4352 5.338m0 0c0.5086 0.452 1.0346 0.883 1.5733 1.294m55.458 1.292c3.292-1.646 6.328-3.791 9.005-6.751 1.967-2.175 3.69-4.706 4.771-7.4559m0 0c0.201-0.5114 0.38-1.0304 0.534-1.556 1.259-4.2903 1.289-9.6168 0.675-14.77m-1.209 16.326c-0.937-0.3982-1.867-0.8136-2.789-1.2435-0.349-0.163-0.697-0.327-1.042-0.4918m5.04-14.591c-0.374 5.0037-2.175 10.095-5.04 14.591m1.986-27.936c-0.363-1.0324-0.769-2.0929-1.211-3.1718m-2.874-6.3028c-0.105-0.2114-0.211-0.4228-0.318-0.6341m-14.559-21.8c-1.587-1.732-3.263-3.3866-5.0243-4.9392m5.0243 4.9392c0.455 1.3578 0.872 2.6883 1.246 3.9747m-45.674-15.329c-2.275 1.9054-4.3164 4.1328-6.1659 6.3703-0.7745 0.937-1.5299 1.9004-2.2652 2.8862m0 0c-0.6883 0.9229-1.3591 1.8654-2.0116 2.8242m2.0116-2.8242c-0.7595 0.2941-1.5148 0.6271-2.2645 1.0005-2.5515 1.2706-4.6499 2.6356-6.4032 4.2997m6.6561-2.476c-0.119 0.1747-0.2373 0.35-0.355 0.5258m0.355-0.5258c-2.2365 0.7711-4.462 1.5876-6.6561 2.476m6.3011-1.9502c-2.5957 0.9056-5.1205 1.9871-7.5539 3.2586m2.5789 5.1392c-2.7455 0.9528-4.994 2.0308-7.1317 3.4214m3.4547 24.421c0.0174 0.0414 0.035 0.0827 0.0526 0.124m-0.0526-0.124c0.0772-0.0471 0.1547-0.094 0.2325-0.1407m-0.2325 0.1407c-0.5661 0.345-1.1182 0.6992-1.6604 1.0664m1.713-0.9424c0.0601-0.0885 0.12-0.1767 0.1799-0.2647m6.3871 10.139c-0.6949 0.6831-1.4208 1.3345-2.1767 1.9514m12.956 5.4151c2.2331 0.9128 4.5791 1.5542 6.9961 1.8789 1.5906 0.2137 3.0882 0.3401 4.5251 0.3797m6.7165-0.5028c2.9017-0.5343 5.7656-1.4823 8.9311-2.8397m-8.9311 2.8397c-1.6942 1.6126-3.5332 3.0354-5.6816 4.4157m14.613-7.2554c-1.2225 2.3839-2.7678 4.6575-4.4413 6.734m9.4465-9.136c1.3512-0.7245 2.6776-1.499 3.9767-2.3165m-3.9767 2.3165c0.6785-2.5708 1.9655-5.0731 3.3492-7.1195 0.1947-0.2878 0.3988-0.5812 0.6119-0.8784m-3.9611 7.9979c-0.295 1.1176-0.4749 2.2482-0.4978 3.3598-0.0129 0.6251 0.022 1.2405 0.0999 1.8449m4.3746-7.5212c0.1956-0.1231 0.3905-0.2472 0.5849-0.3722m-0.5849 0.3722c0.3115-1.6424 0.7566-3.2464 1.3208-4.7702m-1.3208 4.7702c-0.1127 0.594-0.2079 1.1931-0.2849 1.7952m0.8698-2.1674c0.5082-0.327 1.0122-0.6604 1.5117-1m-1.5117 1c-0.2541 0.751-0.5443 1.4733-0.8698 2.1674m0.8698-2.1674c0.4454-1.3166 0.7798-2.7217 0.9991-4.2186m0.5126 3.2186c0.5505-0.3743 1.0956-0.756 1.6351-1.1446 0.1432-0.1031 0.2888-0.2096 0.4367-0.3192m-2.0718 1.4638c-0.7062 2.0277-1.6012 3.9982-2.6034 5.8936m2.6034-5.8936c0.2726-0.7829 0.5171-1.5744 0.7288-2.3733m1.343 0.9095c-0.446-0.3009-0.8935-0.6041-1.343-0.9095m5.7333-2.6825c0.703-0.6183 1.419-1.2662 2.139-1.9344m-2.139 1.9344c0.063 0.9682 0.061 1.9442-0.012 2.9273m0.012-2.9273c-0.147-2.2757-0.652-4.5087-1.422-6.6912m3.561 4.7568c-0.533 1.7495-1.266 3.3677-2.151 4.8617m2.151-4.8617c0.483-1.5867 0.801-3.2813 0.918-5.0891m1.771 2.5126c0.533-0.5264 1.06-1.0575 1.578-1.5894m0 0c1.006-1.0322 1.976-2.0674 2.881-3.0766m-2.881 3.0766c0.071-1.1754 0.117-2.3572 0.14-3.5395m2.741 0.4629c-0.917-0.3026-1.833-0.4491-2.741-0.4629m11.246-20.834c2.637 1.9071 5.129 4.0117 7.569 6.3784m-63.85-22.21c1.9131 0.215 3.8087 0.6216 5.6664 1.197m-9.5319-0.1743c-0.0584-0.4021-0.1114-0.7975-0.1583-1.1851m-17.244 7.0436c-0.4386 0.4163-0.8557 0.8514-1.2528 1.3084m-20.404 42.535c0.1285 1.3059 0.3337 2.5959 0.6271 3.8504m26.344 11.783c4.8378 1.2776 9.8677 2.0976 14.872 2.2106m-14.872-2.2106c2.3486 1.6286 4.8103 3.1386 7.3584 4.4676m7.5138-2.257c1.1155 0.026 2.2298 0.016 3.3404-0.032m-3.3404 0.032c-2.4307 0.983-4.9482 1.743-7.5138 2.257m7.5138-2.257c0.7588-0.307 1.5092-0.635 2.2499-0.985m1.0905 0.953c-0.3664-0.307-0.7294-0.625-1.0905-0.953m7.2208 0.283c0.4279 0.502 0.8868 0.975 1.368 1.415 0.334 0.305 0.6765 0.595 1.0266 0.869m3.8523-3.7772c3.9129-1.2321 7.2239-2.933 9.8637-5.1633m-9.8637 5.1633c0.6345-0.7002 1.2614-1.4308 1.8713-2.1876m7.9924-2.9757c-2.9519 1.427-5.778 2.395-7.9924 2.9757m9.0486-3.9313c1.6966-1.6447 3.0675-3.5467 4.0897-5.726m-4.0897 5.726c0.0171 0.1331 0.0363 0.2657 0.0576 0.3977m4.0321-6.1237c-0.1157 0.9041-0.1904 1.815-0.2219 2.7262m2.0908-9.1122c0.0595-0.4056 0.1105-0.8178 0.1529-1.2369m-0.1529 1.2369c-0.0877-0.0598-0.1754-0.1196-0.2632-0.1794m0.2632 0.1794c0.1368 0.0932 0.2736 0.1864 0.4103 0.2796 0.2778 0.1895 0.5548 0.378 0.8311 0.5657m-1.0885-2.0822c0.0753-0.7432 0.1238-1.5077 0.1451-2.2941m-0.1451 2.2941c0.1248-0.299 0.2542-0.5943 0.3882-0.8856 0.4908-1.0669 1.0421-2.1015 1.6471-3.1036m-2.0353 3.9892c-0.1451 0.3477-0.2838 0.7004-0.4161 1.0575m0.5612-3.3516c0.5977-0.7091 1.2366-1.4149 1.9109-2.0964m-1.9109 2.0964c-0.6908 0.8196-1.3264 1.6437-1.8976 2.4404m-3.5077-23.084c0.989 0.7468 1.9488 1.5329 2.8797 2.3377m-4.5986-4.9052c-0.3542-0.485-0.7198-0.9614-1.096-1.4289m1.096 1.4289c-0.5503-0.5053-1.1126-0.9949-1.687-1.4683m0.591 0.0394c-0.197-0.0138-0.394-0.0269-0.591-0.0394m0.591 0.0394c1.6895 0.1186 3.3793 0.2883 5.0591 0.5106m-31.851-15.717c-0.1861-0.8976-0.3518-1.7828-0.4943-2.6443m-20.56 8.3997c-2.8796 1.8607-5.522 4.1002-7.8167 6.6204-2.3583 2.5901-4.606 6.3606-6.4033 10.26m14.22-16.88c0.5328-0.84 1.1083-1.6131 1.7331-2.332m23.689 59.394c1.1317-0.534 2.2408-1.1172 3.3233-1.7468m-3.3233 1.7468c-0.4179-0.38-0.8332-0.7741-1.2477-1.1826-0.5623-0.5541-1.1106-1.1261-1.6421-1.7151m6.2131 1.1509c-0.7917-0.0914-1.8048-0.2371-3.1134-0.4515-1.044-0.1711-2.0787-0.4089-3.0997-0.6994m8.0574 0.0213c0.1912 0.409 0.405 0.8088 0.6385 1.1978m15.1-23.083c0.0379-0.4233 0.0549-0.8456 0.0487-1.2652m0 0c2.5493 1.8971 5.1671 3.7032 7.7918 5.4949m-36.587-13.163c-0.2833 0.0821-0.5658 0.166-0.8477 0.2517m0.8477-0.2517c1.7553-3.127 4.8923-7.6455 6.7322-9.7333 0.8182-0.9284 1.6926-1.8183 2.6356-2.6205m-10.216 12.606c0.7654-3.2029 1.168-6.9293 0.3975-10.125m15.175 48.292c0.956-0.692 1.876-1.423 2.731-2.157m5.7236-5.9648c-1.1699 0.3068-2.1691 0.5056-2.9258 0.6069-6.5339-0.2001-5.2914 0.8502-6.6071 1.1123m28.125 7.4806c0.0635-0.016 0.1268-0.032 0.1902-0.049m-0.1902 0.049c0.8609 0.841 1.8278 1.602 2.9064 2.268 0.739 0.457 1.503 0.883 2.289 1.278m12.851-15.053c0.07-0.0948 0.139-0.1902 0.207-0.2862m-0.207 0.2862c0.402 1.5713 0.701 3.1526 0.874 4.7343 0.039 0.3536 0.066 0.7223 0.08 1.1013m-0.954-5.8356c-0.039-0.1519-0.078-0.3038-0.119-0.4555m0.326 0.1693c-0.109-0.0563-0.218-0.1128-0.326-0.1693m0.326 0.1693c1.269 0.657 2.561 1.3004 3.882 1.9306m-15.642-26.307c-0.419 0.1373-0.835 0.298-1.246 0.4795m1.246-0.4795c0.013 0.7043-3e-3 1.3926-0.047 2.0653m0.047-2.0653c-0.02-1.0473-0.106-2.1298-0.263-3.2484m-0.983 3.7279c-1.132 0.4993-2.23 1.1563-3.28 1.9181m3.28-1.9181c0.399 0.5121 0.798 1.0388 1.199 1.5858m-1.199-1.5858c-0.426-0.5453-0.854-1.074-1.287-1.593m-4.73 5.8148c-0.2052 0.1966-0.4076 0.3959-0.6068 0.5973m0.6068-0.5973c0.7331-1.1221 1.5336-2.2011 2.3915-3.2366m-2.3915 3.2366c-0.215 0.3292-0.4243 0.6621-0.6275 0.9986m0.0207-0.4013c-0.0062 0.134-0.0131 0.2678-0.0207 0.4013m0.0207-0.4013c0.1766-3.8489-0.2652-7.8926-1.1957-11.763m-2.6128 16.3c0.4454 0.304 0.891 0.6076 1.3364 0.9112m-5.6378 12.689c0.9377-0.4863 1.8819-1.0191 2.8173-1.6006m2.9238 11.329c0.2988-0.225 0.5939-0.455 0.8849-0.69m9.7147 6.673c3.113 0.999 6.918 1.547 9.454-0.644 2.184-1.887 2.797-5.22 2.692-8.005m-12.146 8.649c4.682-1.778 8.832-4.851 12.146-8.649m0 0c1.15-1.3177 2.199-2.7227 3.135-4.1912m-12.63-19.786c-0.428 4.0545-1.185 7.9613-2.367 11.476m-3.178-19.11c0.729-0.7378 1.488-1.4495 2.27-2.1349m-9.3271-5.2019c0.189 0.6555 0.364 1.3181 0.5246 1.9858m-13.182-10.971c1.2151 0.0243 2.4348 0.0748 3.6552 0.1518m-19.705 1.1113c-0.2033 0.1596-0.4035 0.3236-0.6007 0.4913m0.6007-0.4913c-0.2665 0.0499-0.5317 0.1012-0.7955 0.1539m0.1948 0.3374c-0.0655-0.1121-0.1304-0.2246-0.1948-0.3374m10.469 52.763c1.7928 0.281 3.538 0.166 5.2265-0.26m0 0c0.0643 0.016 0.1287 0.032 0.1932 0.048m11.972-8.5025c2.6669-2.9396 5.2081-6.3963 6.429-9.2361 0.5098-1.1866 0.8998-2.3652 1.1798-3.5349m0 0c-0.391-0.2562-0.782-0.5141-1.1742-0.7737m-0.0743-13.02c-1.0615-2.7298-2.5213-5.3779-4.194-7.9292m-59.601-14.002c-0.4226 1.3583-0.7422 2.7412-0.9673 4.1397m20.919 3.126c2.8804-1.1751 6.1313-2.12 9.6232-2.8179m18.706 54.073c0.8051-0.221 1.6096-0.475 2.4126-0.763m-27.314-72.386c2.2208-0.3549 4.4687-0.608 6.7328-0.7667 0.8914-0.0625 1.7668-0.1154 2.628-0.1582m27.089 47.791c0.2026-0.7646 0.3751-1.5362 0.5135-2.3137 0.2171-1.2203 0.3599-2.4774 0.4333-3.7577m-4.279 14.338c-0.2793 0.5284-0.5671 1.051-0.8613 1.5673-0.0438 0.0768-0.0877 0.1533-0.1316 0.2296" opacity=".5" stroke="#DD3C3C" stroke-linecap="round"/>
</svg>
