<svg fill="none" viewBox="0 0 214 75" xmlns="http://www.w3.org/2000/svg">
<path d="m0 1c17.379 0 25.421 12.167 42.8 12.167s25.421-12.167 42.8-12.167 25.421 12.167 42.8 12.167 25.421-12.167 42.8-12.167 25.421 12.167 42.8 12.167m-214 36.5c17.379 0 25.421 12.167 42.8 12.167s25.421-12.167 42.8-12.167 25.421 12.167 42.8 12.167 25.421-12.167 42.8-12.167 25.421 12.167 42.8 12.167m-214-48.667c17.379 0 25.421 12.167 42.8 12.167s25.421-12.167 42.8-12.167 25.421 12.167 42.8 12.167 25.421-12.167 42.8-12.167 25.421 12.167 42.8 12.167m-214 36.5c17.379 0 25.421 12.167 42.8 12.167s25.421-12.167 42.8-12.167 25.421 12.167 42.8 12.167 25.421-12.167 42.8-12.167 25.421 12.167 42.8 12.167m-214-48.667c17.379 0 25.421 12.167 42.8 12.167s25.421-12.167 42.8-12.167 25.421 12.167 42.8 12.167 25.421-12.167 42.8-12.167 25.421 12.167 42.8 12.167m-214 0c17.379 0 25.421 12.167 42.8 12.167s25.421-12.167 42.8-12.167 25.421 12.167 42.8 12.167 25.421-12.167 42.8-12.167 25.421 12.167 42.8 12.167" opacity=".5" stroke="#76BA53"/>
</svg>
