<svg fill="none" viewBox="0 0 188 131" xmlns="http://www.w3.org/2000/svg">
<path d="m187 57.692-17.053-56.692-24.886 0.55699 12.055 21.137-13.688 11.812-8.285-7.7906 9.257-15.979-41.602 17.507 7.407 16.598 3.685 8.2573m-3.685-8.2573 9.626 1.9597-5.941 6.2976m-3.685-8.2573-22.4-4.5604-8.3564 33.524-16.52-15.534m50.96-5.1723 1.894 4.2448m-1.894-4.2448-34.344 36.406-14.033 25.282 58.443 0.87 10.955-9.301-38.506-16.607 19.38-32.405 4.878 10.93 19.296 0.3578-19.235 20.39 42.073-1.8185 4.478-17.466m-51.49-12.394 10.217-17.083 36.606 34.423 4.667-4.9464 2.551-9.9508m-2.551 9.9508 6.403-6.7876-3.852-3.1632m0 0 1.52-5.9269 2.365-21.008-24.412 10.077 20.527 16.858zm-106.9-1.5161-6.9858-6.5691 8.4075-12.842m-1.4217 19.412 12.111-19.104-10.689-0.3077m-1.4217 19.412-1.2976 2.0468-43.35-9.5463-4.8966 6.6544m50.966-18.566 22.923-35.015-23.492 3.3194-1.9871 8.6585-14.215-5.744-7.353 11.928m24.124 16.853-18.192-0.5237m-5.9315-16.33-9.7876 15.877 15.719 0.4524m-5.9315-16.33 10.68 5.3577-4.7484 10.972m-5.9315-16.33-17.454-8.7561m23.386 25.086-2.956 6.8304-32.435-1.4606 2.6174 13.72-10.575 14.371 14.253 4.9075m-3.6776-19.278 3.6776 19.278 25.49 8.7767m-25.49-8.7767 4.5908 24.065-19.029-16.442-1.6242 8.2737 30.892 37.398 17.743-1.465-21.964-20.654 14.882-22.399m0 0 4.7167 1.624-11.513 15.673 15.371 6.831 19.054-20.198-16.534-20.63-11.095 16.699z" opacity=".5" stroke="#8C55B2"/>
</svg>
