<svg fill="none" viewBox="0 0 257 40" xmlns="http://www.w3.org/2000/svg">
<g opacity=".5">
<path d="m93.206 19.302c1.152 0 2.3195 0.4191 3.439 0.4191-0.7328 0-4.3774 0.4696-5.1061 0.6676-0.7192 0.1956-1.4607 0.1703-2.1733 0.4503-1.3634 0.5356-2.8906 0.3027-4.2911 0.6287-1.3938 0.3245-2.8521 0.2096-4.2663 0.2096h-6.6682c-0.4917 0.252-1.6588 0.4192-2.7352 0.4192-1.7466 0-3.4438 0.6006-5.2049 0.5588-2.1815-0.0517-4.3771-0.2794-6.557-0.2794-1.8858 0-3.6326-0.8383-5.5321-0.8383-2.8268 0-5.6029 0.978-8.4278 0.978-1.9401 0-3.8013 0.944-5.7235 0.9781-1.3408 0.0237-2.6628-0.0244-3.9885-0.132-3.0495-0.2473-6.0834-0.2872-9.1502-0.2872-1.2665 0-2.5226-0.1397-3.7972-0.1397-0.8021 0-1.6304-0.1184-2.4017-0.3493-2.3668-0.7085-4.8363-0.7685-7.2732-0.7685h-8.1994c-1.0449 0-2.1004-0.1397-3.1303-0.1397-0.50001 0-1.4124-0.3124-0.83353-1.0402 0.11389-0.1432 0.80157-0.3498 0.96318-0.357 0.45634-0.0205 0.91425 0.0168 1.3707 0 0.85906-0.0318 1.7306-0.5039 2.6055-0.5589 1.3589-0.0855 2.9393-0.719 4.2849-0.4114 1.081 0.247 2.1791 0.0339 3.2724 0.1397 0.7451 0.072 1.4573 0.1319 2.2103 0.1319 1.0789 0 2.398-0.2569 3.4576 0.0311 1.3262 0.3605 2.7124 0.5395 4.0626 0.6753 0.6712 0.0675 1.3557 0.2416 2.0252 0.2717 0.4339 0.0195 0.8378 0.2509 1.2472 0.2794 1.1447 0.08 2.2851 0.5195 3.4452 0.5589 0.7115 0.0242 1.3907 0.2795 2.1116 0.2795h1.4509c1.68 0 3.3949 0.1397 5.0937 0.1397 0.7494 0 1.656 0.1421 2.3462-0.2484 0.7806-0.4416 2.0082-0.2596 2.5285-0.3983 0.6873-0.3673 2.3736 0.0173 3.3926-0.0519 0.3516-0.0239 0.6883-0.1397 1.0373-0.1397 1.1589 0 2.3058-0.0657 3.4543-0.1315l0.1453-0.0083c2.0486-0.117 4.1106-0.1397 6.1618-0.1397 0.1924 0 0.3363-0.1534 0.5063-0.2484 0.2429-0.1357 0.6582-0.031 0.9138-0.031 0.7854 0 1.555 0.1397 2.3339 0.1397 1.2259 0 2.4598 0.1397 3.6983 0.1397 1.0797 0 2.0267 0.2954 3.0748 0.5589 1.009 0.2537 1.9269 0 2.9204 0 1.2792 0 2.7566 0.1459 3.8897-0.7607 0.419-0.3352 1.3805-0.0776 1.8399-0.0776h10.175c1.1591 0 2.2396-0.5201 3.3834-0.5589 0.8862-0.0301 1.7285-0.5589 2.6179-0.5589z" fill="#3C8BD5"/>
<path d="m138.02 36.372c-2.052 0-3.889 0.5954-5.919 0.5954-2.001 0 9.758 0.5782 11.602 1.5544 2.104 1.1139 5.162-0.0661 7.353-0.0661 5.071 0 8.53-0.893 13.613-0.893 3.885 0 9.261 0.893 13.082 0.893 3.358 0 6.563-0.893 9.872-0.893 0.927 0 1.824 0.0435 2.723-0.2977 0.681-0.2585 3.84 0.2707 4.441-0.1488 1.364-0.9526 5.068-0.4257 6.533-0.7607 0.876-0.2001 4.945-0.6337 5.814-0.8765 1.008-0.2815 6.949-0.15 7.835-0.893-2.89 0-5.915-0.2976-8.865-0.2976-1.804 0-3.473-0.8931-5.354-0.8931-2.743 0-5.414 0.5954-8.181 0.5954-2.398 0-4.705 0.2977-7.077 0.2977-1.724 0-3.871 0.693-5.459 1.2634-1.409 0.5061-3.512 0.0165-4.972 0.0165-2.047 0-3.896-0.6846-5.893-0.6846h-5.577c-2.05 0-3.868 0.5953-5.972 0.5953-1.765 0-3.992-0.4222-5.682 0.2315-2.204 0.8527-4.861-0.5638-7.05 0.5954-0.828 0.4381-2.297 0.0661-3.184 0.0661h-3.683z" fill="#3C8BD5"/>
<path d="m163.79 20.703c-1.153 0-2.32-0.4192-3.44-0.4192 0.733 0 4.378-0.4695 5.107-0.6676 0.719-0.1955 1.46-0.1703 2.173-0.4502 1.363-0.5357 2.891-0.3027 4.291-0.6288 1.394-0.3245 2.852-0.2096 4.266-0.2096h6.669c0.491-0.252 1.658-0.4191 2.735-0.4191 1.746 0 3.444-0.6007 5.205-0.5589 2.181 0.0518 4.377 0.2794 6.557 0.2794 1.885 0 3.632 0.8384 5.532 0.8384 2.827 0 5.603-0.9781 8.427-0.9781 1.941 0 3.802-0.944 5.724-0.978 1.341-0.0238 2.663 0.0244 3.989 0.1319 3.049 0.2474 6.083 0.2872 9.15 0.2872 1.266 0 2.522 0.1398 3.797 0.1398 0.802 0 1.63 0.1184 2.402 0.3493 2.366 0.7084 4.836 0.7684 7.273 0.7684h8.199c1.045 0 2.101 0.1398 3.131 0.1398 0.5 0 1.412 0.3124 0.833 1.0401-0.114 0.1432-0.801 0.3498-0.963 0.3571-0.456 0.0205-0.914-0.0169-1.371 0-0.859 0.0318-1.73 0.5039-2.605 0.5589-1.359 0.0854-2.94 0.719-4.285 0.4114-1.081-0.2471-2.179-0.034-3.273-0.1397-0.745-0.0721-1.457-0.132-2.21-0.132-1.079 0-2.398 0.257-3.457-0.031-1.327-0.3605-2.713-0.5396-4.063-0.6754-0.671-0.0675-1.356-0.2416-2.025-0.2717-0.434-0.0194-0.838-0.2508-1.247-0.2794-1.145-0.08-2.286-0.5195-3.446-0.5589-0.711-0.0242-1.39-0.2794-2.111-0.2794h-1.451c-1.68 0-3.395-0.1398-5.094-0.1398-0.749 0-1.656-0.142-2.346 0.2484-0.781 0.4417-2.008 0.2596-2.529 0.3984-0.687 0.3673-2.373-0.0174-3.392 0.0519-0.352 0.0239-0.689 0.1397-1.037 0.1397-1.159 0-2.306 0.0657-3.455 0.1314l-0.145 0.0083c-2.049 0.1171-4.111 0.1397-6.162 0.1397-0.192 0-0.336 0.1534-0.506 0.2484-0.243 0.1357-0.658 0.0311-0.914 0.0311-0.785 0-1.555-0.1397-2.334-0.1397-1.226 0-2.46-0.1398-3.698-0.1398-1.08 0-2.027-0.2953-3.075-0.5589-1.009-0.2537-1.927 0-2.92 0-1.28 0-2.757-0.1458-3.89 0.7608-0.419 0.3352-1.381 0.0776-1.84 0.0776h-10.175c-1.159 0-2.24 0.52-3.384 0.5589-0.886 0.0301-1.728 0.5589-2.617 0.5589z" fill="#3C8BD5"/>
<path d="m118.98 3.6283c2.052 0 3.889-0.59533 5.919-0.59533 2.001 0-9.758-0.57825-11.602-1.5545-2.104-1.1138-5.162 0.06615-7.353 0.06615-5.071 0-8.53 0.89301-13.613 0.89301-3.8846 0-9.2602-0.89301-13.082-0.89301-3.3585 0-6.5631 0.89301-9.8718 0.89301-0.9272 0-1.8239-0.0435-2.7228 0.29766-0.6812 0.25857-3.8408-0.2707-4.4414 0.14883-1.3639 0.95264-5.0679 0.42568-6.5335 0.76071-0.8755 0.20012-4.9449 0.63369-5.8139 0.87646-1.0077 0.28155-6.9484 0.15005-7.8348 0.89301 2.8898 0 5.9148 0.29767 8.8656 0.29767 1.8032 0 3.4722 0.893 5.3535 0.893 2.7432 0 5.4144-0.59534 8.1816-0.59534 2.3979 0 4.7049-0.29766 7.0766-0.29766 1.7241 0 3.8708-0.69301 5.4588-1.2634 1.409-0.50615 3.5122-0.01654 4.972-0.01654 2.0476 0 3.8966 0.68462 5.8929 0.68462h5.5771c2.0505 0 3.8681-0.59534 5.9718-0.59534 1.7653 0 3.9923 0.42226 5.6823-0.23151 2.204-0.85267 4.861 0.56379 7.05-0.59534 0.828-0.43812 2.297-0.06615 3.184-0.06615h3.683z" fill="#3C8BD5"/>
<path d="m112.5 36.933c0.522-0.1295 1.043-0.329 1.563-0.5286 0.728-0.2792 1.461-0.2237 2.186-0.4746 0.152-0.0527 0.566 0.1397 0.735 0.2816 0.286 0.2391 2.144 0.4782 2.358 0.193m-103.85 1.371c0.6661 0 1.2968-0.0174 1.9495 0.2885 0.9832 0.4608 1.8892 0.1461 2.8731 0.0962 2.5082-0.1271 4.9924-0.4283 7.5019-0.5877 2.6077-0.1658 5.1687-0.9511 7.7811-0.9511 2.1184 0 4.2457 0.3206 6.3675 0.1923 1.6247-0.0982 3.2423-0.3847 4.8682-0.3847 1.3257 0 2.5558 0.8704 3.8764 1.1969 3.153 0.7794 6.3576 1.3037 9.5483 1.3037 2.5072 0 5.0358 0.1442 7.5361-0.203 0.9235-0.1283 1.8448-0.3259 2.7647-0.5236 1.2868-0.2767 2.583-0.2216 3.865-0.4702 0.269-0.0522 1.0005 0.1384 1.3004 0.279 0.5054 0.2368 3.7908 0.4737 4.1698 0.1912m41.696-17.608c-0.248 0-0.483-0.0047-0.726 0.0775-0.366 0.1239-0.703 0.0393-1.07 0.0259-0.934-0.0342-1.859-0.1152-2.794-0.158-0.971-0.0446-1.925-0.2557-2.898-0.2557-0.789 0-1.581 0.0862-2.371 0.0517-0.606-0.0264-1.208-0.1034-1.814-0.1034m-20.766 17.424c0.3251 0 0.6329-0.0093 0.9514 0.1552 0.4799 0.2477 0.922 0.0785 1.4022 0.0517 1.224-0.0684 2.4364-0.2303 3.6611-0.316 1.2727-0.0891 2.5225-0.5114 3.7974-0.5114 1.0339 0 2.0718 0.1724 3.1078 0.1034 0.793-0.0528 1.582-0.2068 2.376-0.2068m-0.967-17.212c-0.351 0-0.706-0.118-1-0.1397-0.44-0.0325-0.845 0.1397-1.272 0.1397h-4.5625m0 0c-1.1195 0-2.287-0.4191-3.439-0.4191-0.8894 0-1.7317 0.5288-2.6179 0.5589-1.1438 0.0388-2.2243 0.5589-3.3834 0.5589h-10.175c-0.4594 0-1.4209-0.2576-1.8399 0.0776-1.1331 0.9066-2.6105 0.7607-3.8897 0.7607-0.9935 0-1.9114 0.2537-2.9204 0-1.0481-0.2635-1.9951-0.5589-3.0748-0.5589-1.2385 0-2.4724-0.1397-3.6983-0.1397-0.7789 0-1.5485-0.1397-2.3339-0.1397-0.2556 0-0.6709-0.1047-0.9138 0.031-0.17 0.095-0.3139 0.2484-0.5063 0.2484-2.0512 0-4.1132 0.0227-6.1618 0.1397l-0.1453 0.0083c-1.1485 0.0658-2.2954 0.1315-3.4543 0.1315-0.349 0-0.6857 0.1158-1.0373 0.1397-1.019 0.0692-2.7053-0.3154-3.3926 0.0519-0.5203 0.1387-1.7479-0.0433-2.5285 0.3983-0.6902 0.3905-1.5968 0.2484-2.3462 0.2484-1.6988 0-3.4137-0.1397-5.0937-0.1397h-1.4509c-0.7209 0-1.4001-0.2553-2.1116-0.2795-1.1601-0.0394-2.3005-0.4789-3.4452-0.5589-0.4094-0.0285-0.8133-0.2599-1.2472-0.2794-0.6695-0.0301-1.354-0.2042-2.0252-0.2717-1.3502-0.1358-2.7364-0.3148-4.0626-0.6753-1.0596-0.288-2.3787-0.0311-3.4576-0.0311-0.753 0-1.4652-0.0599-2.2103-0.1319-1.0933-0.1058-2.1914 0.1073-3.2724-0.1397-1.3456-0.3076-2.926 0.3259-4.2849 0.4114-0.87497 0.055-1.7465 0.5271-2.6055 0.5589-0.45643 0.0168-0.91434-0.0205-1.3707 0-0.16161 0.0072-0.84929 0.2138-0.96318 0.357-0.57885 0.7278 0.33352 1.0402 0.83353 1.0402 1.0299 0 2.0854 0.1397 3.1303 0.1397h8.1994c2.4369 0 4.9064 0.06 7.2732 0.7685 0.7713 0.2309 1.5996 0.3493 2.4017 0.3493 1.2746 0 2.5307 0.1397 3.7972 0.1397 3.0668 0 6.1007 0.0399 9.1502 0.2872 1.3257 0.1076 2.6477 0.1557 3.9885 0.132 1.9222-0.0341 3.7834-0.9781 5.7235-0.9781 2.8249 0 5.601-0.978 8.4278-0.978 1.8995 0 3.6463 0.8383 5.5321 0.8383 2.1799 0 4.3755 0.2277 6.557 0.2794 1.7611 0.0418 3.4583-0.5588 5.2049-0.5588 1.0764 0 2.2435-0.1672 2.7352-0.4192h6.6682c1.4142 0 2.8725 0.1149 4.2663-0.2096 1.4005-0.326 2.9277-0.0931 4.2911-0.6287 0.7126-0.28 1.4541-0.2547 2.1733-0.4503 0.7287-0.198 4.3733-0.6676 5.1061-0.6676zm29.534 16.651c2.046 0 3.899 0.5954 5.919 0.5954m0 0c2.03 0 3.867-0.5954 5.919-0.5954h3.683c0.887 0 2.356 0.372 3.184-0.0661 2.189-1.1592 4.846 0.2573 7.05-0.5954 1.69-0.6537 3.917-0.2315 5.682-0.2315 2.104 0 3.922-0.5953 5.972-0.5953h5.577c1.997 0 3.846 0.6846 5.893 0.6846 1.46 0 3.563 0.4896 4.972-0.0165 1.588-0.5704 3.735-1.2634 5.459-1.2634 2.372 0 4.679-0.2977 7.077-0.2977 2.767 0 5.438-0.5954 8.181-0.5954 1.881 0 3.55 0.8931 5.354 0.8931 2.95 0 5.975 0.2976 8.865 0.2976m-82.868 2.3814c-2.001 0 9.758 0.5782 11.602 1.5544 2.104 1.1139 5.162-0.0661 7.353-0.0661 5.071 0 8.53-0.893 13.613-0.893 3.885 0 9.261 0.893 13.082 0.893 3.358 0 6.563-0.893 9.872-0.893 0.927 0 1.824 0.0435 2.723-0.2977 0.681-0.2585 3.84 0.2707 4.441-0.1488 1.364-0.9526 5.068-0.4257 6.533-0.7607 0.876-0.2001 4.945-0.6337 5.814-0.8765 1.008-0.2815 6.949-0.15 7.835-0.893m0 0c2.365 0 4.693 0.5954 7.116 0.5954 2.064 0 4.143 0.2976 6.143 0.2976m-83.717-32.407c-0.522 0.12946-1.043 0.32895-1.563 0.52857-0.728 0.27924-1.461 0.22369-2.186 0.47464-0.152 0.05267-0.566-0.13978-0.735-0.28163-0.286-0.23912-2.144-0.47823-2.359-0.19301m103.84-1.3663c-0.666 0-1.296 0.0174-1.949-0.28852-0.983-0.46078-1.889-0.14603-2.873-0.09618-2.508 0.12708-4.993 0.42828-7.502 0.58774-2.608 0.16572-5.169 0.95108-7.781 0.95108-2.119 0-4.246-0.32066-6.368-0.19235-1.624 0.09825-3.242 0.3847-4.868 0.3847-1.326 0-2.556-0.8704-3.876-1.1969-3.153-0.77944-6.358-1.3037-9.549-1.3037-2.507 0-5.035-0.14415-7.536 0.20304-0.923 0.12824-1.845 0.32587-2.764 0.52362-1.287 0.27663-2.583 0.2216-3.865 0.4702-0.269 0.05218-1.001-0.13847-1.301-0.279-0.505-0.23688-3.791-0.47375-4.17-0.1912m-41.696 17.599c0.248 0 0.483 0.0047 0.726-0.0775 0.366-0.1239 0.703-0.0393 1.07-0.0259 0.934 0.0342 1.859 0.1152 2.794 0.158 0.971 0.0446 1.925 0.2557 2.898 0.2557 0.789 0 1.581-0.0862 2.371-0.0517 0.606 0.0264 1.208 0.1034 1.814 0.1034m20.77-17.419c-0.325 0-0.633 0.00935-0.952-0.15514-0.48-0.24775-0.922-0.07851-1.402-0.05171-1.224 0.06833-2.436 0.23028-3.661 0.31602-1.273 0.0891-2.523 0.51137-3.797 0.51137-1.034 0-2.072-0.17242-3.108-0.10343-0.793 0.05283-1.582 0.20685-2.376 0.20685m0.963 17.212c0.351 0 0.706 0.118 1 0.1397 0.44 0.0326 0.845-0.1397 1.272-0.1397h4.562m0 0c1.12 0 2.287 0.4192 3.44 0.4192 0.889 0 1.731-0.5288 2.617-0.5589 1.144-0.0389 2.225-0.5589 3.384-0.5589h10.175c0.459 0 1.421 0.2576 1.84-0.0776 1.133-0.9066 2.61-0.7608 3.89-0.7608 0.993 0 1.911-0.2537 2.92 0 1.048 0.2636 1.995 0.5589 3.075 0.5589 1.238 0 2.472 0.1398 3.698 0.1398 0.779 0 1.549 0.1397 2.334 0.1397 0.256 0 0.671 0.1046 0.914-0.0311 0.17-0.095 0.314-0.2484 0.506-0.2484 2.051 0 4.113-0.0226 6.162-0.1397l0.145-0.0083c1.149-0.0657 2.296-0.1314 3.455-0.1314 0.348 0 0.685-0.1158 1.037-0.1397 1.019-0.0693 2.705 0.3154 3.392-0.0519 0.521-0.1388 1.748 0.0433 2.529-0.3984 0.69-0.3904 1.597-0.2484 2.346-0.2484 1.699 0 3.414 0.1398 5.094 0.1398h1.451c0.721 0 1.4 0.2552 2.111 0.2794 1.16 0.0394 2.301 0.4789 3.446 0.5589 0.409 0.0286 0.813 0.26 1.247 0.2794 0.669 0.0301 1.354 0.2042 2.025 0.2717 1.35 0.1358 2.736 0.3149 4.063 0.6754 1.059 0.288 2.378 0.031 3.457 0.031 0.753 0 1.465 0.0599 2.21 0.132 1.094 0.1057 2.192-0.1074 3.273 0.1397 1.345 0.3076 2.926-0.326 4.285-0.4114 0.875-0.055 1.746-0.5271 2.605-0.5589 0.457-0.0169 0.915 0.0205 1.371 0 0.162-0.0073 0.849-0.2139 0.963-0.3571 0.579-0.7277-0.333-1.0401-0.833-1.0401-1.03 0-2.086-0.1398-3.131-0.1398h-8.199c-2.437 0-4.907-0.06-7.273-0.7684-0.772-0.2309-1.6-0.3493-2.402-0.3493-1.275 0-2.531-0.1398-3.797-0.1398-3.067 0-6.101-0.0398-9.15-0.2872-1.326-0.1075-2.648-0.1557-3.989-0.1319-1.922 0.034-3.783 0.978-5.724 0.978-2.824 0-5.6 0.9781-8.427 0.9781-1.9 0-3.647-0.8384-5.532-0.8384-2.18 0-4.376-0.2276-6.557-0.2794-1.761-0.0418-3.459 0.5589-5.205 0.5589-1.077 0-2.244 0.1671-2.735 0.4191h-6.669c-1.414 0-2.872-0.1149-4.266 0.2096-1.4 0.3261-2.928 0.0931-4.291 0.6288-0.713 0.2799-1.454 0.2547-2.173 0.4502-0.729 0.1981-4.374 0.6676-5.107 0.6676zm-29.533-16.655c-2.046 0-3.899-0.59533-5.919-0.59533m0 0c-2.03 0-3.867 0.59533-5.919 0.59533h-3.683c-0.887 0-2.356-0.37197-3.184 0.06615-2.189 1.1591-4.846-0.25733-7.05 0.59534-1.69 0.65377-3.917 0.23151-5.6823 0.23151-2.1037 0-3.9213 0.59534-5.9718 0.59534h-5.5771c-1.9963 0-3.8453-0.68462-5.8929-0.68462-1.4598 0-3.563-0.48961-4.972 0.01654-1.588 0.57041-3.7347 1.2634-5.4588 1.2634-2.3717 0-4.6787 0.29766-7.0766 0.29766-2.7672 0-5.4384 0.59534-8.1816 0.59534-1.8813 0-3.5503-0.893-5.3535-0.893-2.9508 0-5.9758-0.29767-8.8656-0.29767m82.868-2.3813c2.001 0-9.758-0.57825-11.602-1.5545-2.104-1.1138-5.162 0.06615-7.353 0.06615-5.071 0-8.53 0.89301-13.613 0.89301-3.8846 0-9.2602-0.89301-13.082-0.89301-3.3585 0-6.5631 0.89301-9.8718 0.89301-0.9272 0-1.8239-0.0435-2.7228 0.29766-0.6812 0.25857-3.8408-0.2707-4.4414 0.14883-1.3639 0.95264-5.0679 0.42568-6.5335 0.76071-0.8755 0.20012-4.9449 0.63369-5.8139 0.87646-1.0077 0.28155-6.9484 0.15005-7.8348 0.89301m0 0c-2.3644 0-4.6928-0.59534-7.1161-0.59534-2.0635 0-4.1427-0.29767-6.1428-0.29767" stroke="#3C8BD5" stroke-linecap="round"/>
</g>
</svg>
