<svg fill="none" viewBox="0 0 350 253" xmlns="http://www.w3.org/2000/svg">
<path d="m175.96 85.015v-15.668c-1.858 1.2175-4.229 1.8903-6.696 2.3069v-5.1905c2.948-0.4165 6.184-2.0185 8.298-3.8769h4.934v22.428h-6.536z" fill="#ECAD0A"/>
<path d="m133.43 179.82c2.307-2.852 6.792-4.999 12.111-4.999 5.415 0 11.182 2.115 11.182 6.953 0 3.845-3.557 6.056-8.491 7.561-3.684 1.154-6.696 2.5-7.433 3.653h16.372v4.934h-24.062v-2.819c0.577-4.326 4.55-7.978 11.214-9.965 3.236-1.025 5.8-1.73 5.8-3.236s-2.403-2.275-4.87-2.275c-3.076 0-5.896 1.282-8.267 3.621l-3.556-3.428z" fill="#ECAD0A"/>
<path d="m247.61 182.58c1.763 2.051 4.39 3.236 7.754 3.236 2.755 0 5.639-0.673 5.639-2.755 0-2.115-2.723-2.467-5.863-2.467h-3.557v-4.358h3.557c2.659 0 5.222-0.544 5.222-2.243 0-1.762-2.691-2.274-5.126-2.274-3.332 0-5.799 1.217-7.465 3.172l-4.23-3.012c2.403-3.044 6.665-4.998 11.919-4.998 5.96 0 11.567 1.922 11.567 6.279 0 2.628-2.115 4.806-5.287 5.191 3.172 0.512 6.152 2.082 6.152 5.383 0 4.485-5.415 6.92-12.272 6.92-5.446 0-9.9-2.018-12.463-5.158l4.453-2.916z" fill="#ECAD0A"/>
<path d="m83.88 186.92v0.049m117.85 33.517c1.016-0.011 2.09 1e-3 3.166 0.029 5.613 0.144 9.011-3.378 8.884-8.991-0.026-1.128-0.015-2.235 0.054-3.244 0.223-3.253 1.196-5.649 1.196-8.262 0-3.326-0.251-6.667-0.623-9.953-0.157-1.377-0.573-2.659-0.573-4.041 0-1.695 0.137-3.381 0.184-5.075 0.061-2.211-0.092-4.429-0.092-6.637 0-2.303-0.066-6.969-0.086-8.355-4e-3 -0.265 0-0.523 0.013-0.788 0.021-0.421 0.058-1.154 0.103-2.062 0.295-5.974-3.891-9.956-9.87-9.778-0.811 0.024-1.606 0.034-2.356 0.025-3.29-0.042-5.595-0.722-8.424-0.856-2.023-0.095-4.049-0.191-6.08-0.252-5.498-0.168-11.059-0.098-16.572-0.098-7.017 0-14.064 0.253-20.998 0.629-2.904 0.157-5.608 0.577-8.524 0.577-3.575 0-7.132-0.138-10.705-0.186-4.666-0.062-9.344 0.093-14.003 0.093-5.744 0-11.376-0.379-17.111-0.459-5.3764-0.075-14.513-0.059-14.979-0.058h-0.0411v0c-6.1371-0.02-12.424 6.361-12.101 12.49 0.0063 0.118 0.0125 0.227 0.0188 0.326 0.1661 2.606-0.0142 5.649-0.0142 8.262 0 3.326-0.2508 6.667-0.6237 9.954-0.1561 1.376-0.5725 2.658-0.5725 4.04 0 1.695 0.137 3.381 0.184 5.075 0.0614 2.212-0.092 4.429-0.092 6.637 0 2.723 0.9209 5.312 1.1184 8.752 0.0152 0.265 0.0272 0.536 0.0363 0.811 0.2083 6.299 5.6779 11.653 11.976 11.399v0c0.4388-0.018 0.3096 0.016 0.7473 0.051 1.5594 0.126 5.5301 0.416 7.7694 0.31 2.0229-0.095 4.0489-0.191 6.0798-0.252 5.4984-0.168 11.058-0.098 16.572-0.098 7.016 0 14.063 0.252 20.997 0.628 2.904 0.158 5.609 0.578 8.524 0.578 3.576 0 7.133-0.138 10.706-0.186 4.666-0.062 9.343 0.093 14.002 0.093 5.745 0 11.376-0.379 17.111-0.459 5.518-0.077 9.482-0.607 14.998-0.669z" stroke="#FAFAFA" stroke-linecap="round" stroke-width="2.4412"/>
<path d="m255.92 119.85h-0.049m-33.517 117.85c0.011 1.017-1e-3 2.091-0.029 3.166-0.143 5.613 3.378 9.012 8.991 8.885 1.128-0.026 2.235-0.015 3.244 0.054 3.253 0.222 5.649 1.196 8.262 1.196 3.326 0 6.667-0.251 9.953-0.624 1.377-0.156 2.659-0.572 4.041-0.572 1.695 0 3.381 0.137 5.075 0.184 2.212 0.061 4.429-0.092 6.637-0.092 2.303 0 6.969-0.066 8.355-0.086 0.265-4e-3 0.523 0 0.788 0.013 0.421 0.021 1.154 0.058 2.062 0.102 5.974 0.295 9.956-3.891 9.778-9.869-0.024-0.812-0.034-1.606-0.025-2.357 0.042-3.29 0.723-5.594 0.856-8.424 0.095-2.023 0.191-4.049 0.253-6.08 0.167-5.498 0.097-11.058 0.097-16.572 0-7.016-0.252-14.063-0.628-20.997-0.158-2.904-0.578-5.609-0.578-8.524 0-3.576 0.138-7.133 0.186-10.705 0.062-4.666-0.093-9.344-0.093-14.003 0-5.745 0.379-11.376 0.459-17.111 0.075-5.376 0.059-14.512 0.059-14.979v-0.041 0c0.019-6.137-6.362-12.424-12.491-12.101-0.118 6e-3 -0.227 0.013-0.326 0.019-2.606 0.166-5.649-0.014-8.262-0.014-3.326 0-6.667-0.251-9.953-0.624-1.377-0.156-2.659-0.572-4.041-0.572-1.695 0-3.381 0.137-5.075 0.184-2.211 0.061-4.429-0.092-6.637-0.092-2.723 0-5.312 0.921-8.752 1.118-0.265 0.015-0.536 0.027-0.811 0.036-6.299 0.209-11.653 5.678-11.399 11.976v0c0.018 0.439-0.016 0.309-0.051 0.747-0.126 1.559-0.416 5.53-0.31 7.77 0.095 2.022 0.191 4.048 0.253 6.079 0.167 5.499 0.098 11.059 0.098 16.572 0 7.017-0.253 14.064-0.629 20.998-0.158 2.904-0.578 5.609-0.578 8.524 0 3.575 0.138 7.132 0.186 10.705 0.062 4.666-0.093 9.344-0.093 14.003 0 5.744 0.379 11.376 0.459 17.111 0.077 5.518 0.608 9.482 0.669 14.997z" stroke="#FAFAFA" stroke-linecap="round" stroke-width="2.4412"/>
<path d="m180.24 14.88h-0.049m-33.518 117.85c0.012 1.017-1e-3 2.09-0.028 3.166-0.144 5.613 3.378 9.011 8.991 8.884 1.128-0.026 2.235-0.015 3.243 0.054 3.253 0.223 5.649 1.196 8.263 1.196 3.326 0 6.666-0.25 9.953-0.623 1.377-0.156 2.659-0.573 4.041-0.573 1.695 0 3.381 0.137 5.074 0.184 2.212 0.062 4.429-0.092 6.638-0.092 2.302 0 6.969-0.066 8.355-0.086 0.265-4e-3 0.522 0 0.787 0.014 0.421 0.021 1.155 0.057 2.063 0.102 5.973 0.295 9.955-3.891 9.778-9.869-0.024-0.812-0.035-1.607-0.025-2.357 0.041-3.29 0.722-5.595 0.855-8.424 0.096-2.023 0.191-4.049 0.253-6.08 0.168-5.498 0.098-11.059 0.098-16.572 0-7.0167-0.253-14.064-0.629-20.997-0.157-2.904-0.577-5.6089-0.577-8.5242 0-3.5756 0.138-7.1327 0.185-10.706 0.062-4.6659-0.093-9.3439-0.093-14.002 0-5.7448 0.379-11.376 0.459-17.111 0.075-5.3764 0.06-14.512 0.059-14.979v-0.0411 0c0.019-6.1371-6.361-12.424-12.49-12.101-0.119 0.00624-0.228 0.01251-0.326 0.01879-2.606 0.16609-5.649-0.01419-8.263-0.01419-3.326 0-6.666-0.25082-9.953-0.62369-1.376-0.15618-2.659-0.57257-4.041-0.57257-1.694 0-3.381 0.13704-5.074 0.18404-2.212 0.06138-4.429-0.09202-6.638-0.09202-2.723 0-5.311 0.92094-8.752 1.1184-0.264 0.01519-0.535 0.02719-0.81 0.03629-6.3 0.20827-11.653 5.6779-11.399 11.975v0c0.017 0.4388-0.016 0.3096-0.051 0.7474-0.126 1.5593-0.416 5.5301-0.311 7.7693 0.096 2.0229 0.191 4.0489 0.253 6.0798 0.168 5.4982 0.098 11.059 0.098 16.572 0 7.0165-0.253 14.064-0.629 20.997-0.157 2.904-0.577 5.609-0.577 8.5242 0 3.5756 0.138 7.1327 0.185 10.706 0.062 4.666-0.092 9.3439-0.092 14.002 0 5.745 0.378 11.376 0.458 17.111 0.077 5.518 0.608 9.482 0.669 14.998z" stroke="#FAFAFA" stroke-linecap="round" stroke-width="2.4412"/>
<path d="m65.885 81.124c0.2142-0.371 0.4093-0.7268 0.7547-1.0121 0.6423-0.641 0.9268-1.4558 1.3431-2.2279 1.0614-1.9684 2.0349-3.9628 3.0825-5.9403 1.0886-2.0551 1.8819-4.2326 3.046-6.2489 0.9439-1.6349 2.0339-3.1948 2.9226-4.8652 0.6804-1.2791 1.2743-2.6008 1.9988-3.8558 0.5908-1.0231 1.5245-1.7499 2.2576-2.6856 1.7503-2.2342 3.3715-6.8675 4.7933-9.3301m-20.235 36.145c-0.3046-0.3012-0.9196-1.4585-1.1082-1.865-0.284-0.6121-0.8116-0.9073-1.2795-1.334-1.1929-1.0878-2.4375-2.1014-3.6427-3.178-1.2523-1.1188-2.7062-1.991-3.901-3.1722-0.969-0.9578-1.8267-2.0363-2.8433-2.9489-0.8277-0.7431-1.484 0.7571-1.2703 1.8487 0.0591 0.3019 0.0946 0.5468 0.0875 0.6473-0.0144 0.2053 0.025 0.6841 0.0996 0.8425 0.3551 0.7549 0.5638 1.5626 0.9335 2.3164 0.2643 0.5388 0.5288 1.0786 0.7596 1.6298 0.625 1.4922 1.0141 3.073 1.47 4.6197 0.5802 1.9684 0.9056 4.0211 1.0965 6.079 0.0799 0.8619-0.1235 1.7466 0.1176 2.5644 0.2956 1.0031 0.7303 1.9595 1.074 2.9476 0.4488 1.2904 0.6782 2.6491 1.0634 3.956 0.564 1.9133 1.2336 3.8463 2.5282 5.3643 0.1232 0.144 0.2234 0.246 0.2861 0.282 0.371 0.214 0.7267 0.409 1.012 0.755 0.4298 0.52 1.0149 0.672 1.5757 0.966 1.4295 0.751 2.8902 1.416 4.3287 2.152 1.4949 0.766 3.1222 1.241 4.5772 2.081 1.1799 0.681 2.2828 1.508 3.4974 2.133 0.9301 0.479 1.1285 0.424 2.8099 1.395 0.3236 0.187 0.8971 0.324 1.6124 0.424 5.3448 0.748 10.26-2.399 13.809-6.465 1.3593-1.557 2.6221-3.207 3.6481-4.984 0.8063-1.3969 1.6833-2.7684 2.3333-4.2498 0.24-0.5472 0.449-1.1109 0.657-1.6739 0.291-0.7874 0.733-1.4954 1.035-2.273 0.063-0.1632 0.383-0.5218 0.542-0.6529 0.267-0.2209 1.428-1.9902 1.425-2.2736m-12.599-2.0278c0.4376-0.8893 0.8434-1.7942 1.2483-2.6978 0.5663-1.264 1.2848-2.4521 1.861-3.7044 0.1209-0.2629 0.597-0.8925 0.8198-1.1346 0.3755-0.4081 2.2395-3.3942 2.3172-3.818m-8.8246-11.088c-0.6352 1.2315-1.2381 2.4778-1.8398 3.7223-0.8416 1.7409-1.8374 3.4093-2.6879 5.1367-0.1785 0.3626-0.8111 1.2631-1.098 1.6164-0.4837 0.5954-3.0505 4.7989-3.2094 5.3632" stroke="#FAFAFA" stroke-linecap="round" stroke-linejoin="round" stroke-width="2"/>
<path d="m86.488 30.014c-1.2262 0-2.3787-0.108-3.5105 0.4579-1.1933 0.5967-2.4606 1.7351-2.866 3.0526-0.8648 2.8107-0.4918 5.9336-0.4918 8.8524" stroke="#FAFAFA" stroke-linecap="round"/>
<path d="m96.194 48.284c1.1844-0.3174 2.3256-0.5113 3.2723-1.3509 0.9978-0.8851 1.9278-2.3128 1.9788-3.6903 0.107-2.9388-1.061-5.8587-1.8166-8.6781" stroke="#FAFAFA" stroke-linecap="round"/>
<path d="m85.835 23.2c-1.8891-0.1836-3.9653-0.7534-5.7354 0.1071-2.2867 1.1116-3.6606 3.2782-4.8397 5.442-1.2973 2.3807-2.0731 4.9804-2.3647 7.6761-0.107 0.9891-0.385 3.961-0.2887 2.9707" stroke="#FAFAFA" stroke-linecap="round"/>
<path d="m98.588 54.697c1.8725-0.3116 4.0255-0.2985 5.5125-1.5878 1.921-1.6656 2.687-4.114 3.266-6.5093 0.637-2.6353 0.713-5.3472 0.297-8.0265-0.152-0.9832-0.653-3.9257-0.49-2.9443" stroke="#FAFAFA" stroke-linecap="round"/>
</svg>
