<svg fill="none" viewBox="0 0 118 844" xmlns="http://www.w3.org/2000/svg">
<g clip-path="url(#a)">
<g opacity=".5">
<path d="m132.66 611.41c1.013 0 2.04 0.374 3.025 0.374-0.645 0-3.85 0.418-4.491 0.595-0.632 0.174-1.285 0.152-1.911 0.401-1.199 0.478-2.543 0.27-3.774 0.561-1.226 0.289-2.509 0.187-3.752 0.187h-5.865c-0.432 0.225-1.459 0.374-2.405 0.374-1.537 0-3.029 0.535-4.578 0.498-1.919-0.046-3.85-0.249-5.767-0.249-1.658 0-3.1946-0.748-4.8652-0.748-2.4861 0-4.9277 0.872-7.4121 0.872-1.7062 0-3.3431 0.842-5.0337 0.872-1.1792 0.022-2.3418-0.021-3.5078-0.117-2.682-0.221-5.3502-0.256-8.0474-0.256-1.1139 0-2.2186-0.125-3.3395-0.125-0.7055 0-1.434-0.105-2.1123-0.311-2.0816-0.632-4.2535-0.686-6.3967-0.686h-7.2111c-0.919 0-1.8473-0.124-2.7531-0.124-0.4397 0-1.2422-0.279-0.7331-0.928 0.1002-0.127 0.705-0.311 0.8471-0.318 0.4014-0.018 0.8041 0.015 1.2055 0 0.7555-0.028 1.522-0.449 2.2915-0.498 1.1951-0.076 2.585-0.641 3.7685-0.367 0.9507 0.22 1.9164 0.03 2.878 0.124 0.6553 0.065 1.2817 0.118 1.9439 0.118 0.9488 0 2.109-0.229 3.0409 0.028 1.1663 0.321 2.3855 0.481 3.573 0.602 0.5902 0.06 1.1923 0.215 1.781 0.242 0.3816 0.018 0.7369 0.224 1.0969 0.249 1.0068 0.072 2.0097 0.464 3.03 0.499 0.6258 0.021 1.2232 0.249 1.8571 0.249h1.2761c1.4775 0 2.9857 0.124 4.4798 0.124 0.659 0 1.4564 0.127 2.0635-0.221 0.6865-0.394 1.7661-0.231 2.2237-0.355 0.6044-0.328 2.0875 0.015 2.9837-0.046 0.3093-0.022 0.6054-0.125 0.9123-0.125 1.0192 0 2.0279-0.059 3.038-0.117l0.1277-8e-3c1.8018-0.104 3.6153-0.124 5.4188-0.124 0.17 0 0.296-0.137 0.446-0.222 0.213-0.121 0.579-0.027 0.803-0.027 0.691 0 1.368 0.124 2.053 0.124 1.078 0 2.163 0.125 3.253 0.125 0.949 0 1.782 0.263 2.704 0.498 0.887 0.226 1.695 0 2.568 0 1.125 0 2.425 0.13 3.421-0.678 0.369-0.299 1.214-0.069 1.618-0.069h8.949c1.02 0 1.97-0.464 2.976-0.499 0.779-0.027 1.52-0.498 2.302-0.498z" fill="#3C8BD5"/>
<path d="m172.07 626.63c-1.805 0-3.42 0.531-5.205 0.531-1.76 0 8.581 0.515 10.203 1.386 1.851 0.993 4.54-0.059 6.467-0.059 4.46 0 7.502-0.796 11.973-0.796 3.416 0 8.144 0.796 11.505 0.796 2.953 0 5.772-0.796 8.682-0.796 0.815 0 1.604 0.038 2.394-0.266 0.6-0.23 3.378 0.242 3.907-0.132 1.199-0.85 4.457-0.38 5.746-0.679 0.77-0.178 4.349-0.565 5.113-0.781 0.886-0.251 6.111-0.134 6.89-0.796-2.541 0-5.202-0.266-7.797-0.266-1.586 0-3.054-0.796-4.708-0.796-2.413 0-4.762 0.531-7.196 0.531-2.109 0-4.137 0.265-6.223 0.265-1.517 0-3.405 0.618-4.801 1.127-1.239 0.451-3.089 0.014-4.373 0.014-1.801 0-3.427-0.61-5.183-0.61h-4.905c-1.803 0-3.402 0.531-5.252 0.531-1.553 0-3.511-0.377-4.997 0.206-1.939 0.76-4.275-0.502-6.201 0.531-0.728 0.391-2.02 0.059-2.799 0.059h-3.24z" fill="#3C8BD5"/>
<path d="m194.74 612.66c-1.013 0-2.04-0.374-3.025-0.374 0.645 0 3.85-0.418 4.491-0.595 0.633-0.174 1.285-0.152 1.912-0.401 1.199-0.478 2.542-0.27 3.773-0.561 1.226-0.289 2.509-0.187 3.753-0.187h5.864c0.433-0.225 1.459-0.374 2.406-0.374 1.536 0 3.029-0.535 4.577-0.498 1.919 0.046 3.85 0.249 5.767 0.249 1.659 0 3.195 0.748 4.865 0.748 2.487 0 4.928-0.872 7.412-0.872 1.707 0 3.344-0.842 5.034-0.872 1.179-0.022 2.342 0.021 3.508 0.117 2.682 0.221 5.35 0.256 8.047 0.256 1.114 0 2.219 0.125 3.34 0.125 0.705 0 1.434 0.106 2.112 0.311 2.082 0.632 4.254 0.686 6.397 0.686h7.211c0.919 0 1.847 0.124 2.753 0.124 0.44 0 1.242 0.279 0.733 0.928-0.1 0.127-0.705 0.312-0.847 0.318-0.401 0.018-0.804-0.015-1.205 0-0.756 0.028-1.522 0.449-2.292 0.498-1.195 0.077-2.585 0.641-3.768 0.367-0.951-0.22-1.917-0.03-2.878-0.124-0.656-0.065-1.282-0.118-1.944-0.118-0.949 0-2.109 0.229-3.041-0.028-1.167-0.321-2.386-0.481-3.573-0.602-0.59-0.06-1.192-0.215-1.781-0.242-0.382-0.017-0.737-0.224-1.097-0.249-1.007-0.072-2.01-0.463-3.03-0.499-0.626-0.021-1.223-0.249-1.857-0.249h-1.276c-1.478 0-2.986-0.124-4.48-0.124-0.659 0-1.457-0.127-2.064 0.221-0.686 0.394-1.766 0.232-2.223 0.355-0.605 0.328-2.088-0.015-2.984 0.047-0.309 0.021-0.605 0.124-0.912 0.124-1.019 0-2.028 0.059-3.038 0.117l-0.128 8e-3c-1.802 0.104-3.615 0.124-5.419 0.124-0.169 0-0.296 0.137-0.446 0.222-0.213 0.121-0.578 0.027-0.803 0.027-0.691 0-1.368-0.124-2.053-0.124-1.078 0-2.163-0.125-3.252-0.125-0.95 0-1.783-0.263-2.705-0.498-0.887-0.226-1.694 0-2.568 0-1.125 0-2.424-0.13-3.421 0.678-0.368 0.299-1.214 0.069-1.618 0.069h-8.949c-1.019 0-1.97 0.464-2.976 0.499-0.779 0.027-1.52 0.498-2.302 0.498z" fill="#3C8BD5"/>
<path d="m155.33 597.43c1.805 0 3.42-0.531 5.206-0.531 1.759 0-8.582-0.516-10.204-1.386-1.85-0.993-4.54 0.059-6.467 0.059-4.459 0-7.502 0.796-11.972 0.796-3.417 0-8.145-0.796-11.505-0.796-2.954 0-5.773 0.796-8.683 0.796-0.815 0-1.604-0.039-2.394 0.266-0.599 0.23-3.378-0.242-3.906 0.132-1.2 0.85-4.457 0.38-5.7464 0.679-0.7699 0.178-4.3489 0.565-5.1132 0.781-0.8862 0.251-6.1109 0.134-6.8905 0.796 2.5415 0 5.2019 0.266 7.7971 0.266 1.5858 0 3.0538 0.796 4.708 0.796 2.413 0 4.762-0.531 7.196-0.531 2.109 0 4.138-0.265 6.224-0.265 1.516 0 3.404-0.618 4.8-1.127 1.24-0.451 3.089-0.015 4.373-0.015 1.801 0 3.427 0.611 5.183 0.611h4.905c1.803 0 3.402-0.531 5.252-0.531 1.553 0 3.511 0.377 4.997-0.206 1.939-0.761 4.275 0.502 6.201-0.531 0.728-0.391 2.02-0.059 2.8-0.059h3.239z" fill="#3C8BD5"/>
<path d="m149.62 627.13c0.459-0.116 0.917-0.294 1.375-0.472 0.64-0.249 1.284-0.199 1.922-0.423 0.134-0.047 0.498 0.125 0.647 0.251 0.251 0.214 1.885 0.427 2.074 0.172m-91.332 1.223c0.5859 0 1.1405-0.016 1.7146 0.257 0.8647 0.411 1.6615 0.13 2.5268 0.086 2.2059-0.113 4.3908-0.382 6.5978-0.524 2.2935-0.148 4.5458-0.848 6.8434-0.848 1.863 0 3.7339 0.286 5.6 0.171 1.4289-0.087 2.8515-0.343 4.2815-0.343 1.1659 0 2.2477 0.776 3.4092 1.067 2.773 0.695 5.5912 1.163 8.3972 1.163 2.205 0 4.429 0.128 6.628-0.181 0.812-0.114 1.623-0.291 2.432-0.467 1.131-0.247 2.271-0.198 3.399-0.419 0.236-0.047 0.88 0.123 1.143 0.249 0.445 0.211 3.334 0.422 3.668 0.17m36.671-15.7c-0.218 0-0.425-5e-3 -0.638 0.069-0.322 0.11-0.619 0.035-0.942 0.023-0.821-0.031-1.635-0.103-2.457-0.141-0.854-0.04-1.693-0.228-2.549-0.228-0.693 0-1.39 0.077-2.085 0.046-0.532-0.023-1.062-0.092-1.595-0.092m-18.263 15.536c0.285 0 0.556-9e-3 0.836 0.138 0.422 0.221 0.811 0.07 1.233 0.046 1.077-0.061 2.143-0.205 3.22-0.282 1.12-0.079 2.219-0.456 3.34-0.456 0.909 0 1.822 0.154 2.733 0.093 0.697-0.048 1.392-0.185 2.09-0.185m-0.85-15.346c-0.309 0-0.621-0.106-0.88-0.125-0.387-0.029-0.743 0.125-1.118 0.125h-4.013m0 0c-0.985 0-2.012-0.374-3.025-0.374-0.782 0-1.523 0.471-2.302 0.498-1.006 0.035-1.956 0.499-2.976 0.499h-8.949c-0.404 0-1.249-0.23-1.618 0.069-0.996 0.808-2.296 0.678-3.421 0.678-0.873 0-1.681 0.226-2.568 0-0.922-0.235-1.755-0.498-2.704-0.498-1.09 0-2.175-0.125-3.253-0.125-0.685 0-1.362-0.124-2.053-0.124-0.224 0-0.59-0.094-0.803 0.027-0.15 0.085-0.276 0.222-0.446 0.222-1.8035 0-3.617 0.02-5.4188 0.124l-0.1277 8e-3c-1.0101 0.058-2.0188 0.117-3.038 0.117-0.3069 0-0.603 0.103-0.9123 0.125-0.8962 0.061-2.3793-0.282-2.9837 0.046-0.4576 0.124-1.5372-0.039-2.2237 0.355-0.6071 0.348-1.4045 0.221-2.0635 0.221-1.4941 0-3.0023-0.124-4.4798-0.124h-1.2761c-0.6339 0-1.2313-0.228-1.8571-0.249-1.0203-0.035-2.0232-0.427-3.03-0.499-0.36-0.025-0.7153-0.231-1.0969-0.249-0.5887-0.027-1.1908-0.182-1.781-0.242-1.1875-0.121-2.4067-0.281-3.573-0.602-0.9319-0.257-2.0921-0.028-3.0409-0.028-0.6622 0-1.2886-0.053-1.9439-0.118-0.9616-0.094-1.9273 0.096-2.878-0.124-1.1835-0.274-2.5734 0.291-3.7685 0.367-0.7695 0.049-1.536 0.47-2.2915 0.498-0.4014 0.015-0.8041-0.018-1.2055 0-0.1421 7e-3 -0.7469 0.191-0.8471 0.318-0.5091 0.649 0.2934 0.928 0.7331 0.928 0.9058 0 1.8341 0.124 2.7531 0.124h7.2111c2.1432 0 4.3151 0.054 6.3967 0.686 0.6783 0.206 1.4068 0.311 2.1123 0.311 1.1209 0 2.2256 0.125 3.3395 0.125 2.6972 0 5.3654 0.035 8.0474 0.256 1.166 0.096 2.3286 0.139 3.5078 0.117 1.6906-0.03 3.3275-0.872 5.0337-0.872 2.4844 0 4.926-0.872 7.4121-0.872 1.6706 0 3.2072 0.748 4.8652 0.748 1.917 0 3.848 0.203 5.767 0.249 1.549 0.037 3.041-0.498 4.578-0.498 0.946 0 1.973-0.149 2.405-0.374h5.865c1.243 0 2.526 0.102 3.752-0.187 1.231-0.291 2.575-0.083 3.774-0.561 0.626-0.249 1.279-0.227 1.911-0.401 0.641-0.177 3.846-0.595 4.491-0.595zm25.974 14.846c1.799 0 3.429 0.531 5.206 0.531m0 0c1.785 0 3.4-0.531 5.205-0.531h3.24c0.779 0 2.071 0.332 2.799-0.059 1.926-1.033 4.262 0.229 6.201-0.531 1.486-0.583 3.444-0.206 4.997-0.206 1.85 0 3.449-0.531 5.252-0.531h4.905c1.756 0 3.382 0.61 5.183 0.61 1.284 0 3.134 0.437 4.373-0.014 1.396-0.509 3.284-1.127 4.801-1.127 2.086 0 4.114-0.265 6.223-0.265 2.434 0 4.783-0.531 7.196-0.531 1.654 0 3.122 0.796 4.708 0.796 2.595 0 5.256 0.266 7.797 0.266m-72.88 2.123c-1.76 0 8.581 0.515 10.203 1.386 1.851 0.993 4.54-0.059 6.467-0.059 4.46 0 7.502-0.796 11.973-0.796 3.416 0 8.144 0.796 11.505 0.796 2.953 0 5.772-0.796 8.682-0.796 0.815 0 1.604 0.038 2.394-0.266 0.6-0.23 3.378 0.242 3.907-0.132 1.199-0.85 4.457-0.38 5.746-0.679 0.77-0.178 4.349-0.565 5.113-0.781 0.886-0.251 6.111-0.134 6.89-0.796m0 0c2.08 0 4.128 0.53 6.259 0.53 1.815 0 3.643 0.266 5.402 0.266m-73.627-28.896c-0.459 0.116-0.918 0.294-1.375 0.472-0.64 0.249-1.285 0.199-1.922 0.423-0.134 0.047-0.498-0.125-0.647-0.251-0.252-0.213-1.886-0.427-2.074-0.172m91.328-1.219c-0.586 0-1.141 0.016-1.715-0.257-0.865-0.411-1.661-0.13-2.527-0.086-2.206 0.114-4.39 0.382-6.597 0.525-2.294 0.147-4.546 0.848-6.844 0.848-1.863 0-3.734-0.286-5.6-0.172-1.429 0.088-2.851 0.343-4.281 0.343-1.166 0-2.248-0.776-3.41-1.067-2.773-0.695-5.591-1.163-8.397-1.163-2.205 0-4.429-0.128-6.628 0.181-0.812 0.115-1.622 0.291-2.431 0.467-1.132 0.247-2.272 0.198-3.4 0.42-0.236 0.046-0.88-0.124-1.143-0.249-0.445-0.211-3.334-0.423-3.668-0.171m-36.671 15.692c0.218 0 0.425 4e-3 0.639-0.069 0.322-0.11 0.618-0.035 0.941-0.023 0.821 0.03 1.635 0.103 2.457 0.141 0.854 0.04 1.693 0.228 2.549 0.228 0.694 0 1.39-0.077 2.085-0.046 0.533 0.023 1.063 0.092 1.595 0.092m18.267-15.531c-0.286 0-0.557 8e-3 -0.837-0.139-0.422-0.221-0.811-0.07-1.233-0.046-1.076 0.061-2.143 0.205-3.22 0.282-1.119 0.079-2.218 0.456-3.34 0.456-0.909 0-1.822-0.154-2.733-0.092-0.697 0.047-1.391 0.184-2.089 0.184m0.846 15.346c0.31 0 0.622 0.106 0.88 0.125 0.387 0.029 0.743-0.125 1.119-0.125h4.012m0 0c0.985 0 2.012 0.374 3.025 0.374 0.782 0 1.523-0.471 2.302-0.498 1.006-0.035 1.957-0.499 2.976-0.499h8.949c0.404 0 1.25 0.23 1.618-0.069 0.997-0.808 2.296-0.678 3.421-0.678 0.874 0 1.681-0.226 2.568 0 0.922 0.235 1.755 0.498 2.705 0.498 1.089 0 2.174 0.125 3.252 0.125 0.685 0 1.362 0.124 2.053 0.124 0.225 0 0.59 0.094 0.803-0.027 0.15-0.085 0.277-0.222 0.446-0.222 1.804 0 3.617-0.02 5.419-0.124l0.128-8e-3c1.01-0.058 2.019-0.117 3.038-0.117 0.307 0 0.603-0.103 0.912-0.124 0.896-0.062 2.379 0.281 2.984-0.047 0.457-0.123 1.537 0.039 2.223-0.355 0.607-0.348 1.405-0.221 2.064-0.221 1.494 0 3.002 0.124 4.48 0.124h1.276c0.634 0 1.231 0.228 1.857 0.249 1.02 0.036 2.023 0.427 3.03 0.499 0.36 0.025 0.715 0.232 1.097 0.249 0.589 0.027 1.191 0.182 1.781 0.242 1.187 0.121 2.406 0.281 3.573 0.602 0.932 0.257 2.092 0.028 3.041 0.028 0.662 0 1.288 0.053 1.944 0.118 0.961 0.094 1.927-0.096 2.878 0.124 1.183 0.274 2.573-0.29 3.768-0.367 0.77-0.049 1.536-0.47 2.292-0.498 0.401-0.015 0.804 0.018 1.205 0 0.142-6e-3 0.747-0.191 0.847-0.318 0.509-0.649-0.293-0.928-0.733-0.928-0.906 0-1.834-0.124-2.753-0.124h-7.211c-2.143 0-4.315-0.054-6.397-0.686-0.678-0.205-1.407-0.311-2.112-0.311-1.121 0-2.226-0.125-3.34-0.125-2.697 0-5.365-0.035-8.047-0.256-1.166-0.096-2.329-0.139-3.508-0.117-1.69 0.03-3.327 0.872-5.034 0.872-2.484 0-4.925 0.872-7.412 0.872-1.67 0-3.206-0.748-4.865-0.748-1.917 0-3.848-0.203-5.767-0.249-1.548-0.037-3.041 0.498-4.577 0.498-0.947 0-1.973 0.149-2.406 0.374h-5.864c-1.244 0-2.527-0.102-3.753 0.187-1.231 0.291-2.574 0.083-3.773 0.561-0.627 0.249-1.279 0.227-1.912 0.401-0.641 0.177-3.846 0.595-4.491 0.595zm-25.974-14.85c-1.799 0-3.429-0.531-5.205-0.531m0 0c-1.786 0-3.401 0.531-5.206 0.531h-3.239c-0.78 0-2.072-0.332-2.8 0.059-1.926 1.033-4.262-0.23-6.201 0.531-1.486 0.583-3.444 0.206-4.997 0.206-1.85 0-3.449 0.531-5.252 0.531h-4.905c-1.756 0-3.382-0.611-5.183-0.611-1.284 0-3.133-0.436-4.373 0.015-1.396 0.509-3.284 1.127-4.8 1.127-2.086 0-4.115 0.265-6.224 0.265-2.434 0-4.783 0.531-7.196 0.531-1.6542 0-3.1222-0.796-4.708-0.796-2.5952 0-5.2556-0.266-7.7971-0.266m72.881-2.123c1.759 0-8.582-0.516-10.204-1.386-1.85-0.993-4.54 0.059-6.467 0.059-4.459 0-7.502 0.796-11.972 0.796-3.417 0-8.145-0.796-11.505-0.796-2.954 0-5.773 0.796-8.683 0.796-0.815 0-1.604-0.039-2.394 0.266-0.599 0.23-3.378-0.242-3.906 0.132-1.2 0.85-4.457 0.38-5.7464 0.679-0.7699 0.178-4.3489 0.565-5.1132 0.781-0.8862 0.251-6.1109 0.134-6.8905 0.796m0 0c-2.0795 0-4.1272-0.531-6.2585-0.531-1.8148 0-3.6434-0.265-5.4024-0.265" stroke="#3C8BD5" stroke-linecap="round"/>
</g>
<g opacity=".5">
<path d="m123.42 153.48h-17.713v1.674h17.713v-1.674z" fill="#26B7A6"/>
<path d="m197.3 166.45h17.713v1.674h-17.713v-1.674z" fill="#26B7A6"/>
<path d="m100.65 181.92h-17.713v1.674h17.713v-1.674z" fill="#26B7A6"/>
<path d="m163.4 153.48h-6.073v1.674h6.073v-1.674z" fill="#26B7A6"/>
<path d="m157.33 166.45h6.073v1.674h-6.073v-1.674z" fill="#26B7A6"/>
<path d="m140.62 181.92h-6.073v1.674h6.073v-1.674z" fill="#26B7A6"/>
<path d="m188.7 156.41v-4.603h43.523v4.603h-43.523z" fill="#26B7A6"/>
<path d="m132.03 169.37v-4.603h-43.523v4.603h43.523z" fill="#26B7A6"/>
<path d="m165.93 184.86v-4.603h43.523v4.603h-43.523z" fill="#26B7A6"/>
<path d="m138.1 156.41v-4.603h11.133v4.603h-11.133z" fill="#26B7A6"/>
<path d="m182.64 169.37v-4.603h-11.134v4.603h11.134z" fill="#26B7A6"/>
<path d="m115.33 184.86v-4.603h11.133v4.603h-11.133z" fill="#26B7A6"/>
<path d="m59.653 154.32h37.956m163.46 12.968h-37.956m-186.24 15.484h37.956m102.22-28.452h5.567m-38.963 12.968h-5.567m16.195 15.484h5.567m-54.15-29.29h17.713v1.674h-17.713v-1.674zm109.31 12.972h-17.713v1.674h17.713v-1.674zm-132.08 15.473h17.713v1.674h-17.713v-1.674zm74.39-28.445h6.073v1.674h-6.073v-1.674zm6.078 12.972h-6.073v1.674h6.073v-1.674zm-28.855 15.473h6.073v1.674h-6.073v-1.674zm54.156-30.12v4.603h43.523v-4.603h-43.523zm-56.679 12.968v4.603h-43.523v-4.603h43.523zm33.902 15.488v4.603h43.523v-4.603h-43.523zm-27.828-28.456v4.603h11.133v-4.603h-11.133zm44.535 12.968v4.603h-11.134v-4.603h11.134zm-67.307 15.488v4.603h11.133v-4.603h-11.133z" stroke="#26B7A6"/>
</g>
<path d="m112.37 278.62c-2.465 2.182-4.179 4.898-4.765 7.865-1.73 8.749 2.558 12.455 7.869 11.026 3.735-1.004 4.904-7.175 4.257-9.82-0.886-3.621-3.336-6.995-7.361-9.071zm0 0c4.514-3.996 11.546-6.204 18.787-4.888m-18.787 4.888c-2.201-1.135-4.872-1.882-8.016-2.068m26.803-2.82c1.424 0.259 2.857 0.654 4.28 1.199 6.454 2.471 9.505 9.055 8.292 15.157-1.238 6.221-7.29 11.509-13.039 4.328-4.813-6.011-4.065-15 0.467-20.684zm0 0c0.968-1.215 2.109-2.279 3.406-3.13 4.744-3.116 12.592-4.26 18.612 3.664 2.827 3.722 3.543 10.287 5.257 15.809m0 0c1.053 3.391 2.483 6.389 5.01 8.093 5.802 3.91 9.673-3.93 4.984-7.546-3.007-2.317-6.719-2.219-9.994-0.547zm0 0c-5.319 2.716-9.481 9.583-7.584 16.985 1.417 5.527 6.849 9.046 11.692 10.379m0 0c2.714 0.748 5.243 0.809 6.777 0.153 3.293-1.41 2.687-5.629 1.27-6.837-2.703-2.303-7.518 0.834-8.128 5.01-0.08 0.546-0.047 1.108 0.081 1.674zm0 0c1.153 5.091 10.044 10.537 14.846 7.369 0.134-0.088 0.266-0.176 0.395-0.265m0 0c2.121-1.46 3.553-3.016 3.439-5.856-0.229-5.679-4.849-4.386-5.778-0.481-0.613 2.574 0.536 4.752 2.339 6.337zm0 0c2.128 1.871 5.169 2.917 7.302 2.813 4.454-0.218-1.552-13.137 7.086-15.528 3.696-1.023 8.121 0.546 11.566 4.092m0 0c2.764 2.844 4.897 6.962 5.518 12.034 0.957 7.822-6.279 11.6-10.093 5.59-4.416-6.961-1.972-15.616 4.575-17.624zm0 0c2.054-0.63 4.512-0.606 7.288 0.33 7.485 2.523 11.686 19.119 12.152 23.824 0.28 2.827-1.884 12.64-9.535 9.711-6.459-2.473-8.559 1.916-13.078 2.402-7.873 0.848-13.86-11.297-24.992-8.884-5.907 1.28-9.719 10.641-3.674 17.748 0.233 0.274 0.511 0.558 0.827 0.841m0 0c2.183 1.952 6.227 3.864 10.442 2.275 5.257-1.982 1.188-10.542-4.607-7.755-3.067 1.475-4.805 3.396-5.835 5.48zm0 0c-1.092 2.21-1.387 4.603-1.624 6.842-0.642 6.091 2.495 14.734 4.44 20.062 0.963 2.636 2.251 13.558-7.614 5.751-13.853-10.964-20.299 0.084-23.816-18.438-0.441-2.319-0.465-6.397 0.765-10.309m0 0c0.259-0.823 0.573-1.638 0.95-2.427m-0.95 2.427c4.539 1.483 8.357 3.503 10.74 4.994 10.307 6.452 8.508 12.833 11.387 20.603 1.994 5.382 3.716-14.549 2.355-16.673-3.602-5.621-17.127-9.087-23.532-11.351m-0.95 2.427c-10.064-3.29-23.672-3.938-33.028 9.674m33.978-12.101c1.628-3.409 4.433-6.347 9.041-7.377 7.246-1.62 9.358-17.671 6.85-26.403-2.422-8.431-7.299-11.687-12.238-11.821m-3.653 45.601c-1.435-0.508-2.513-0.954-3.041-1.352-3.258-2.449-1.71-7.711-4.381-9.399-2.946-1.862-9.95 1.089-12.118-1.577-4.244-5.22-1.723-12.909-3.711-15.001-1.593-1.677-4.081-1.696-5.57 1.063-2.134 3.955-0.895 13.75-1.71 18.118-1.881 10.08-18.16 28.917-36.39 11.765-10.76-10.124-5.013-27.471 5.6186-30.16m64.956-19.058c-3.4-0.092-6.83 1.297-9.506 3.497-11.383 9.355-7.454 19.78-0.677 22.374 8.096 3.1 12.856-9.79 12.523-16.242-0.113-2.182-0.814-5.789-2.34-9.629zm0 0c-3.548-8.934-11.557-19.128-26.995-15.581-7.5 1.724-12.441 6.624-15.616 11.858m0 0c-3.726 6.141-5.02 12.741-5.162 15.204-0.594 10.291 10.164 18.004 13.761-2.054 1.109-6.183-2.427-12.366-8.599-13.15zm0 0c-3.529-0.448-7.9202 0.868-12.798 4.958-2.1545 1.807-9.5576 8.244-9.5469 17.823m0 0c3e-4 0.312 0.0086 0.628 0.0252 0.947 0.5717 11.013-2.7171 20.694-0.9051 26.5 3.5862 11.492 22.438 8.59 22.197-7.878-0.208-14.265-8.6625-17.362-14.539-19.28-2.3904-0.78-4.6797-0.82-6.7787-0.289z" opacity=".5" stroke="#ECAD0A" stroke-linecap="round"/>
</g>
<defs>
<clipPath id="a">
<rect width="118" height="844" fill="#fff"/>
</clipPath>
</defs>
</svg>
