<svg fill="none" viewBox="0 0 438 885" xmlns="http://www.w3.org/2000/svg">
<g clip-path="url(#a)">
<g opacity=".5">
<path d="m20.957 107.2h-27.764v2.246h27.764v-2.246z" fill="#26B7A6"/>
<path d="m136.77 124.6h27.764v2.246h-27.764v-2.246z" fill="#26B7A6"/>
<path d="m-14.738 145.37h-27.764v2.246h27.764v-2.246z" fill="#26B7A6"/>
<path d="m83.622 107.2h-9.5192v2.246h9.5192v-2.246z" fill="#26B7A6"/>
<path d="m74.111 124.6h9.5192v2.246h-9.5192v-2.246z" fill="#26B7A6"/>
<path d="m47.92 145.37h-9.5191v2.246h9.5191v-2.246z" fill="#26B7A6"/>
<path d="m123.29 111.12v-6.177h68.22v6.177h-68.22z" fill="#26B7A6"/>
<path d="m34.445 128.53v-6.176h-68.221v6.176h68.221z" fill="#26B7A6"/>
<path d="m87.586 149.31v-6.177h68.221v6.177h-68.221z" fill="#26B7A6"/>
<path d="m43.966 111.12v-6.177h17.452v6.177h-17.452z" fill="#26B7A6"/>
<path d="m113.77 128.53v-6.176h-17.452v6.176h17.452z" fill="#26B7A6"/>
<path d="m8.2714 149.31v-6.177h17.452v6.177h-17.452z" fill="#26B7A6"/>
<path d="m20.957 183.5h-27.764v2.246h27.764v-2.246z" fill="#26B7A6"/>
<path d="m136.77 200.91h27.764v2.246h-27.764v-2.246z" fill="#26B7A6"/>
<path d="m-14.738 221.67h-27.764v2.246h27.764v-2.246z" fill="#26B7A6"/>
<path d="m83.622 183.5h-9.5192v2.246h9.5192v-2.246z" fill="#26B7A6"/>
<path d="m74.111 200.91h9.5192v2.246h-9.5192v-2.246z" fill="#26B7A6"/>
<path d="m47.92 221.67h-9.5191v2.246h9.5191v-2.246z" fill="#26B7A6"/>
<path d="m34.445 204.83v-6.177h-68.221v6.177h68.221z" fill="#26B7A6"/>
<path d="m87.586 225.62v-6.176h68.221v6.176h-68.221z" fill="#26B7A6"/>
<path d="m43.966 187.43v-6.176h17.452v6.176h-17.452z" fill="#26B7A6"/>
<path d="m113.77 204.83v-6.177h-17.452v6.177h17.452z" fill="#26B7A6"/>
<path d="m8.2714 225.62v-6.176h17.452v6.176h-17.452z" fill="#26B7A6"/>
<path d="m20.957 336.11h-27.764v2.246h27.764v-2.246z" fill="#26B7A6"/>
<path d="m136.77 353.52h27.764v2.246h-27.764v-2.246z" fill="#26B7A6"/>
<path d="m-14.738 374.28h-27.764v2.246h27.764v-2.246z" fill="#26B7A6"/>
<path d="m83.622 336.11h-9.5192v2.246h9.5192v-2.246z" fill="#26B7A6"/>
<path d="m74.111 353.52h9.5192v2.246h-9.5192v-2.246z" fill="#26B7A6"/>
<path d="m47.92 374.28h-9.5191v2.246h9.5191v-2.246z" fill="#26B7A6"/>
<path d="m123.29 340.04v-6.176h68.22v6.176h-68.22z" fill="#26B7A6"/>
<path d="m34.445 357.44v-6.177h-68.221v6.177h68.221z" fill="#26B7A6"/>
<path d="m43.966 340.04v-6.176h17.452v6.176h-17.452z" fill="#26B7A6"/>
<path d="m113.77 357.44v-6.177h-17.452v6.177h17.452z" fill="#26B7A6"/>
<path d="m8.2714 378.23v-6.176h17.452v6.176h-17.452z" fill="#26B7A6"/>
<path d="m20.957 412.42h-27.764v2.246h27.764v-2.246z" fill="#26B7A6"/>
<path d="m-14.738 450.59h-27.764v2.246h27.764v-2.246z" fill="#26B7A6"/>
<path d="m83.622 412.42h-9.5192v2.246h9.5192v-2.246z" fill="#26B7A6"/>
<path d="m74.111 429.82h9.5192v2.246h-9.5192v-2.246z" fill="#26B7A6"/>
<path d="m47.92 450.59h-9.5191v2.246h9.5191v-2.246z" fill="#26B7A6"/>
<path d="m34.445 433.75v-6.176h-68.221v6.176h68.221z" fill="#26B7A6"/>
<path d="m43.966 416.35v-6.177h17.452v6.177h-17.452z" fill="#26B7A6"/>
<path d="m113.77 433.75v-6.176h-17.452v6.176h17.452z" fill="#26B7A6"/>
<path d="m8.2714 454.53v-6.177h17.452v6.177h-17.452z" fill="#26B7A6"/>
<path d="m20.957 565.03h-27.764v2.246h27.764v-2.246z" fill="#26B7A6"/>
<path d="m136.77 582.44h27.764v2.246h-27.764v-2.246z" fill="#26B7A6"/>
<path d="m-14.738 603.2h-27.764v2.245h27.764v-2.245z" fill="#26B7A6"/>
<path d="m83.622 565.03h-9.5192v2.246h9.5192v-2.246z" fill="#26B7A6"/>
<path d="m74.111 582.44h9.5192v2.246h-9.5192v-2.246z" fill="#26B7A6"/>
<path d="m47.92 603.2h-9.5191v2.245h9.5191v-2.245z" fill="#26B7A6"/>
<path d="m123.29 568.96v-6.177h68.22v6.177h-68.22z" fill="#26B7A6"/>
<path d="m34.445 586.36v-6.176h-68.221v6.176h68.221z" fill="#26B7A6"/>
<path d="m87.586 607.14v-6.177h68.221v6.177h-68.221z" fill="#26B7A6"/>
<path d="m43.966 568.96v-6.177h17.452v6.177h-17.452z" fill="#26B7A6"/>
<path d="m113.77 586.36v-6.176h-17.452v6.176h17.452z" fill="#26B7A6"/>
<path d="m8.2714 607.14v-6.177h17.452v6.177h-17.452z" fill="#26B7A6"/>
<path d="m341.9 69.042h27.764v2.2459h-27.764v-2.2459z" fill="#26B7A6"/>
<path d="m226.09 86.45h-27.764v2.246h27.764v-2.246z" fill="#26B7A6"/>
<path d="m377.6 107.22h27.765v2.246h-27.765v-2.246z" fill="#26B7A6"/>
<path d="m279.24 69.042h9.519v2.2459h-9.519v-2.2459z" fill="#26B7A6"/>
<path d="m288.75 86.45h-9.52v2.246h9.52v-2.246z" fill="#26B7A6"/>
<path d="m314.94 107.22h9.519v2.246h-9.519v-2.246z" fill="#26B7A6"/>
<path d="m239.57 72.971v-6.1765h-68.221v6.1765h68.221z" fill="#26B7A6"/>
<path d="m328.41 90.373v-6.1765h68.22v6.1765h-68.22z" fill="#26B7A6"/>
<path d="m275.27 111.16v-6.177h-68.221v6.177h68.221z" fill="#26B7A6"/>
<path d="m318.89 72.971v-6.1765h-17.452v6.1765h17.452z" fill="#26B7A6"/>
<path d="m249.08 90.373v-6.1765h17.452v6.1765h-17.452z" fill="#26B7A6"/>
<path d="m354.59 111.16v-6.177h-17.452v6.177h17.452z" fill="#26B7A6"/>
<path d="m341.9-7.2632h27.764v2.246h-27.764v-2.246z" fill="#26B7A6"/>
<path d="m226.09 10.144h-27.764v2.246h27.764v-2.246z" fill="#26B7A6"/>
<path d="m377.6 30.909h27.765v2.246h-27.765v-2.246z" fill="#26B7A6"/>
<path d="m279.24-7.2632h9.519v2.246h-9.519v-2.246z" fill="#26B7A6"/>
<path d="m288.75 10.144h-9.52v2.246h9.52v-2.246z" fill="#26B7A6"/>
<path d="m314.94 30.909h9.519v2.246h-9.519v-2.246z" fill="#26B7A6"/>
<path d="m239.57-3.3347v-6.1765h-68.221v6.1765h68.221z" fill="#26B7A6"/>
<path d="m328.41 14.068v-6.1765h68.22v6.1765h-68.22z" fill="#26B7A6"/>
<path d="m275.27 34.852v-6.1765h-68.221v6.1765h68.221z" fill="#26B7A6"/>
<path d="m318.89-3.3347v-6.1765h-17.452v6.1765h17.452z" fill="#26B7A6"/>
<path d="m249.08 14.068v-6.1765h17.452v6.1765h-17.452z" fill="#26B7A6"/>
<path d="m354.59 34.852v-6.1765h-17.452v6.1765h17.452z" fill="#26B7A6"/>
<path d="m341.9 221.65h27.764v2.246h-27.764v-2.246z" fill="#26B7A6"/>
<path d="m226.09 239.06h-27.764v2.246h27.764v-2.246z" fill="#26B7A6"/>
<path d="m377.6 259.83h27.765v2.246h-27.765v-2.246z" fill="#26B7A6"/>
<path d="m279.24 221.65h9.519v2.246h-9.519v-2.246z" fill="#26B7A6"/>
<path d="m288.75 239.06h-9.52v2.246h9.52v-2.246z" fill="#26B7A6"/>
<path d="m314.94 259.83h9.519v2.246h-9.519v-2.246z" fill="#26B7A6"/>
<path d="m239.57 225.58v-6.177h-68.221v6.177h68.221z" fill="#26B7A6"/>
<path d="m328.41 242.98v-6.176h68.22v6.176h-68.22z" fill="#26B7A6"/>
<path d="m275.27 263.77v-6.176h-68.221v6.176h68.221z" fill="#26B7A6"/>
<path d="m318.89 225.58v-6.177h-17.452v6.177h17.452z" fill="#26B7A6"/>
<path d="m249.08 242.98v-6.176h17.452v6.176h-17.452z" fill="#26B7A6"/>
<path d="m354.59 263.77v-6.176h-17.452v6.176h17.452z" fill="#26B7A6"/>
<path d="m341.9 297.96h27.764v2.246h-27.764v-2.246z" fill="#26B7A6"/>
<path d="m226.09 315.37h-27.764v2.246h27.764v-2.246z" fill="#26B7A6"/>
<path d="m377.6 336.13h27.765v2.246h-27.765v-2.246z" fill="#26B7A6"/>
<path d="m279.24 297.96h9.519v2.246h-9.519v-2.246z" fill="#26B7A6"/>
<path d="m288.75 315.37h-9.52v2.246h9.52v-2.246z" fill="#26B7A6"/>
<path d="m314.94 336.13h9.519v2.246h-9.519v-2.246z" fill="#26B7A6"/>
<path d="m328.41 319.29v-6.177h68.22v6.177h-68.22z" fill="#26B7A6"/>
<path d="m275.27 340.08v-6.177h-68.221v6.177h68.221z" fill="#26B7A6"/>
<path d="m318.89 301.89v-6.176h-17.452v6.176h17.452z" fill="#26B7A6"/>
<path d="m249.08 319.29v-6.177h17.452v6.177h-17.452z" fill="#26B7A6"/>
<path d="m354.59 340.08v-6.177h-17.452v6.177h17.452z" fill="#26B7A6"/>
<path d="m226.09 467.98h-27.764v2.245h27.764v-2.245z" fill="#26B7A6"/>
<path d="m377.6 488.74h27.765v2.246h-27.765v-2.246z" fill="#26B7A6"/>
<path d="m288.75 467.98h-9.52v2.245h9.52v-2.245z" fill="#26B7A6"/>
<path d="m314.94 488.74h9.519v2.246h-9.519v-2.246z" fill="#26B7A6"/>
<path d="m328.41 471.9v-6.177h68.22v6.177h-68.22z" fill="#26B7A6"/>
<path d="m275.27 492.69v-6.177h-68.221v6.177h68.221z" fill="#26B7A6"/>
<path d="m249.08 471.9v-6.177h17.452v6.177h-17.452z" fill="#26B7A6"/>
<path d="m354.59 492.69v-6.177h-17.452v6.177h17.452z" fill="#26B7A6"/>
<path d="m341.9 526.88h27.764v2.246h-27.764v-2.246z" fill="#26B7A6"/>
<path d="m226.09 544.28h-27.764v2.246h27.764v-2.246z" fill="#26B7A6"/>
<path d="m377.6 565.05h27.765v2.246h-27.765v-2.246z" fill="#26B7A6"/>
<path d="m279.24 526.88h9.519v2.246h-9.519v-2.246z" fill="#26B7A6"/>
<path d="m288.75 544.28h-9.52v2.246h9.52v-2.246z" fill="#26B7A6"/>
<path d="m314.94 565.05h9.519v2.246h-9.519v-2.246z" fill="#26B7A6"/>
<path d="m328.41 548.21v-6.176h68.22v6.176h-68.22z" fill="#26B7A6"/>
<path d="m318.89 530.8v-6.177h-17.452v6.177h17.452z" fill="#26B7A6"/>
<path d="m249.08 548.21v-6.176h17.452v6.176h-17.452z" fill="#26B7A6"/>
<path d="m226.09 620.59h-27.764v2.246h27.764v-2.246z" fill="#26B7A6"/>
<path d="m239.57 607.11v-6.176h-68.221v6.176h68.221z" fill="#26B7A6"/>
<path d="m211.43 49.416h-34.205m-243.58 58.904h46.85m230.93 17.402h-34.205m-291.92 20.779h59.495m160.23-38.182h8.726m-61.073 17.403h-8.726m25.386 20.779h8.7259m-144.42 38.124h46.85m-95.19 38.182h59.495m160.23-38.182h8.726m-61.073 17.402h-8.726m25.386 20.78h8.7259m-144.42 114.43h46.85m230.93 17.402h-34.205m-291.92 20.78h59.495m160.23-38.182h8.726m-61.073 17.402h-8.726m25.386 20.78h8.7259m9.5148 79.115h68.221m-222.16-40.991h46.85m-95.19 38.181h59.495m160.23-38.182h8.726m-61.073 17.403h-8.726m25.386 20.779h8.7259m133.36 55.526h-34.205m-243.58 58.904h46.85m230.93 17.402h-34.205m-291.92 20.779h59.495m160.23-38.182h8.726m-61.073 17.403h-8.726m25.386 20.779h8.7259m351.14-534.17h-46.85m-230.93 17.402h34.205m291.92 20.78h-59.494m-160.23-38.183h-8.726m61.073 17.402h8.726m-25.386 20.78h-8.726m144.42-114.49h-46.85m95.19 38.182h-59.494m-160.23-38.182h-8.726m61.073 17.403h8.726m-25.386 20.78h-8.726m144.42 190.73h-46.85m-230.93 17.402h34.205m291.92 20.78h-59.494m-160.23-38.183h-8.726m61.073 17.403h8.726m-25.386 20.78h-8.726m144.42 38.124h-46.85m-230.93 17.402h34.205m291.92 20.779h-59.494m-160.23-38.182h-8.726m61.073 17.403h8.726m-25.386 20.779h-8.726m57.115 115.55h27.764m-90.429 0h9.519m-49.185 1.682h-68.221m147.54 0h-17.452m127.77-2.803h-46.85m-230.93 17.402h34.205m291.92 20.779h-59.494m-160.23-38.182h-8.726m61.073 17.403h8.726m-25.386 20.779h-8.726m-9.514 72.939h-68.221m147.54 0h-17.452m92.075-34.815h-46.85m95.19 38.182h-59.494m-160.23-38.182h-8.726m61.073 17.402h8.726m-25.386 20.78h-8.726m-133.36 55.526h34.205m-192.44-514.51h27.764v2.246h-27.764v-2.246zm171.34 17.408h-27.764v2.246h27.764v-2.246zm-207.03 20.764h27.764v2.246h-27.764v-2.246zm116.6-38.172h9.5192v2.246h-9.5192v-2.246zm9.5279 17.408h-9.5192v2.246h9.5192v-2.246zm-45.229 20.764h9.5191v2.246h-9.5191v-2.246zm84.887-40.42v6.177h68.22v-6.177h-68.22zm-88.843 17.403v6.176h-68.221v-6.176h68.221zm53.141 20.784v6.177h68.221v-6.177h-68.221zm-43.62-38.187v6.177h17.452v-6.177h-17.452zm69.808 17.403v6.176h-17.452v-6.176h17.452zm-105.5 20.784v6.177h17.452v-6.177h-17.452zm-15.079 40.367h27.764v2.246h-27.764v-2.246zm171.34 17.407h-27.764v2.246h27.764v-2.246zm-207.03 20.765h27.764v2.246h-27.764v-2.246zm116.6-38.172h9.5192v2.246h-9.5192v-2.246zm9.5279 17.407h-9.5192v2.246h9.5192v-2.246zm-45.229 20.765h9.5191v2.246h-9.5191v-2.246zm-3.9559-23.018v6.177h-68.221v-6.177h68.221zm53.141 20.785v6.176h68.221v-6.176h-68.221zm-43.62-38.187v6.176h17.452v-6.176h-17.452zm69.808 17.402v6.177h-17.452v-6.177h17.452zm-105.5 20.785v6.176h17.452v-6.176h-17.452zm-15.079 116.67h27.764v2.246h-27.764v-2.246zm171.34 17.407h-27.764v2.246h27.764v-2.246zm-207.03 20.765h27.764v2.246h-27.764v-2.246zm116.6-38.172h9.5192v2.246h-9.5192v-2.246zm9.5279 17.407h-9.5192v2.246h9.5192v-2.246zm-45.229 20.765h9.5191v2.246h-9.5191v-2.246zm84.887-40.42v6.176h68.22v-6.176h-68.22zm-88.843 17.402v6.177h-68.221v-6.177h68.221zm9.5208-17.402v6.176h17.452v-6.176h-17.452zm69.808 17.402v6.177h-17.452v-6.177h17.452zm-105.5 20.785v6.176h17.452v-6.176h-17.452zm-15.079 40.366h27.764v2.246h-27.764v-2.246zm-35.694 38.172h27.764v2.246h-27.764v-2.246zm116.6-38.172h9.5192v2.246h-9.5192v-2.246zm9.5279 17.408h-9.5192v2.246h9.5192v-2.246zm-45.229 20.764h9.5191v2.246h-9.5191v-2.246zm-3.9559-23.017v6.176h-68.221v-6.176h68.221zm9.5208-17.403v6.177h17.452v-6.177h-17.452zm69.808 17.403v6.176h-17.452v-6.176h17.452zm-105.5 20.784v6.177h17.452v-6.177h-17.452zm-15.079 116.67h27.764v2.246h-27.764v-2.246zm171.34 17.408h-27.764v2.246h27.764v-2.246zm-207.03 20.765h27.764v2.245h-27.764v-2.245zm116.6-38.173h9.5192v2.246h-9.5192v-2.246zm9.5279 17.408h-9.5192v2.246h9.5192v-2.246zm-45.229 20.765h9.5191v2.245h-9.5191v-2.245zm84.887-40.421v6.177h68.22v-6.177h-68.22zm-88.843 17.403v6.176h-68.221v-6.176h68.221zm53.141 20.784v6.177h68.221v-6.177h-68.221zm-43.62-38.187v6.177h17.452v-6.177h-17.452zm69.808 17.403v6.176h-17.452v-6.176h17.452zm-105.5 20.784v6.177h17.452v-6.177h-17.452zm361.39-531.92h-27.764v2.2459h27.764v-2.2459zm-171.34 17.408h27.764v2.246h-27.764v-2.246zm207.04 20.765h-27.765v2.246h27.765v-2.246zm-116.6-38.173h-9.519v2.2459h9.519v-2.2459zm-9.528 17.408h9.52v2.246h-9.52v-2.246zm45.23 20.765h-9.519v2.246h9.519v-2.246zm-84.887-40.421v6.1765h-68.221v-6.1765h68.221zm88.843 17.403v6.1765h68.22v-6.1765h-68.22zm-53.141 20.784v6.177h-68.221v-6.177h68.221zm43.62-38.187v6.1765h-17.452v-6.1765h17.452zm-69.808 17.403v6.1765h17.452v-6.1765h-17.452zm105.5 20.784v6.177h-17.452v-6.177h17.452zm15.079-112.24h-27.764v2.246h27.764v-2.246zm-171.34 17.408h27.764v2.246h-27.764v-2.246zm207.04 20.765h-27.765v2.246h27.765v-2.246zm-116.6-38.172h-9.519v2.246h9.519v-2.246zm-9.528 17.408h9.52v2.246h-9.52v-2.246zm45.23 20.765h-9.519v2.246h9.519v-2.246zm-84.887-40.42v6.1765h-68.221v-6.1765h68.221zm88.843 17.403v6.1765h68.22v-6.1765h-68.22zm-53.141 20.785v6.1765h-68.221v-6.1765h68.221zm43.62-38.187v6.1765h-17.452v-6.1765h17.452zm-69.808 17.403v6.1765h17.452v-6.1765h-17.452zm105.5 20.785v6.1765h-17.452v-6.1765h17.452zm15.079 192.98h-27.764v2.246h27.764v-2.246zm-171.34 17.408h27.764v2.246h-27.764v-2.246zm207.04 20.765h-27.765v2.246h27.765v-2.246zm-116.6-38.173h-9.519v2.246h9.519v-2.246zm-9.528 17.408h9.52v2.246h-9.52v-2.246zm45.23 20.765h-9.519v2.246h9.519v-2.246zm-84.887-40.421v6.177h-68.221v-6.177h68.221zm88.843 17.403v6.176h68.22v-6.176h-68.22zm-53.141 20.785v6.176h-68.221v-6.176h68.221zm43.62-38.188v6.177h-17.452v-6.177h17.452zm-69.808 17.403v6.176h17.452v-6.176h-17.452zm105.5 20.785v6.176h-17.452v-6.176h17.452zm15.079 40.366h-27.764v2.246h27.764v-2.246zm-171.34 17.407h27.764v2.246h-27.764v-2.246zm207.04 20.765h-27.765v2.246h27.765v-2.246zm-116.6-38.172h-9.519v2.246h9.519v-2.246zm-9.528 17.407h9.52v2.246h-9.52v-2.246zm45.23 20.765h-9.519v2.246h9.519v-2.246zm3.956-23.018v6.177h68.22v-6.177h-68.22zm-53.141 20.785v6.177h-68.221v-6.177h68.221zm43.62-38.187v6.176h-17.452v-6.176h17.452zm-69.808 17.402v6.177h17.452v-6.177h-17.452zm105.5 20.785v6.177h-17.452v-6.177h17.452zm-156.26 134.08h27.764v2.245h-27.764v-2.245zm207.04 20.764h-27.765v2.246h27.765v-2.246zm-126.13-20.764h9.52v2.245h-9.52v-2.245zm45.23 20.764h-9.519v2.246h9.519v-2.246zm3.956-23.018v6.177h68.22v-6.177h-68.22zm-53.141 20.785v6.177h-68.221v-6.177h68.221zm-26.188-20.785v6.177h17.452v-6.177h-17.452zm105.5 20.785v6.177h-17.452v-6.177h17.452zm15.079 40.366h-27.764v2.246h27.764v-2.246zm-171.34 17.408h27.764v2.246h-27.764v-2.246zm207.04 20.765h-27.765v2.246h27.765v-2.246zm-116.6-38.173h-9.519v2.246h9.519v-2.246zm-9.528 17.408h9.52v2.246h-9.52v-2.246zm45.23 20.765h-9.519v2.246h9.519v-2.246zm3.956-23.018v6.176h68.22v-6.176h-68.22zm-9.521-17.403v6.177h-17.452v-6.177h17.452zm-69.808 17.403v6.176h17.452v-6.176h-17.452zm-50.759 78.559h27.764v2.246h-27.764v-2.246zm41.245-19.656v6.176h-68.221v-6.176h68.221z" stroke="#26B7A6" stroke-linecap="round" stroke-linejoin="round" stroke-width="2"/>
</g>
<g opacity=".5">
<path d="m63.957 755.26h-27.764v2.246h27.764v-2.246z" fill="#26B7A6"/>
<path d="m179.77 772.66h27.764v2.246h-27.764v-2.246z" fill="#26B7A6"/>
<path d="m28.262 793.43h-27.764v2.246h27.764v-2.246z" fill="#26B7A6"/>
<path d="m126.62 755.26h-9.519v2.246h9.519v-2.246z" fill="#26B7A6"/>
<path d="m117.11 772.66h9.519v2.246h-9.519v-2.246z" fill="#26B7A6"/>
<path d="m90.92 793.43h-9.5191v2.246h9.5191v-2.246z" fill="#26B7A6"/>
<path d="m166.29 759.19v-6.176h68.22v6.176h-68.22z" fill="#26B7A6"/>
<path d="m77.445 776.59v-6.177h-68.221v6.177h68.221z" fill="#26B7A6"/>
<path d="m130.59 797.37v-6.176h68.221v6.176h-68.221z" fill="#26B7A6"/>
<path d="m86.966 759.19v-6.176h17.452v6.176h-17.452z" fill="#26B7A6"/>
<path d="m156.77 776.59v-6.177h-17.452v6.177h17.452z" fill="#26B7A6"/>
<path d="m51.271 797.37v-6.176h17.452v6.176h-17.452z" fill="#26B7A6"/>
<path d="m63.957 831.56h-27.764v2.246h27.764v-2.246z" fill="#26B7A6"/>
<path d="m179.77 848.97h27.764v2.246h-27.764v-2.246z" fill="#26B7A6"/>
<path d="m28.262 869.74h-27.764v2.246h27.764v-2.246z" fill="#26B7A6"/>
<path d="m126.62 831.56h-9.519v2.246h9.519v-2.246z" fill="#26B7A6"/>
<path d="m117.11 848.97h9.519v2.246h-9.519v-2.246z" fill="#26B7A6"/>
<path d="m90.92 869.74h-9.5191v2.246h9.5191v-2.246z" fill="#26B7A6"/>
<path d="m77.445 852.89v-6.176h-68.221v6.176h68.221z" fill="#26B7A6"/>
<path d="m130.59 873.68v-6.177h68.221v6.177h-68.221z" fill="#26B7A6"/>
<path d="m86.966 835.49v-6.177h17.452v6.177h-17.452z" fill="#26B7A6"/>
<path d="m156.77 852.89v-6.176h-17.452v6.176h17.452z" fill="#26B7A6"/>
<path d="m51.271 873.68v-6.177h17.452v6.177h-17.452z" fill="#26B7A6"/>
<path d="m63.957 984.17h-27.764v2.246h27.764v-2.246z" fill="#26B7A6"/>
<path d="m179.77 1001.6h27.764v2.25h-27.764v-2.25z" fill="#26B7A6"/>
<path d="m28.262 1022.4h-27.764v2.24h27.764v-2.24z" fill="#26B7A6"/>
<path d="m126.62 984.17h-9.519v2.246h9.519v-2.246z" fill="#26B7A6"/>
<path d="m117.11 1001.6h9.519v2.25h-9.519v-2.25z" fill="#26B7A6"/>
<path d="m90.92 1022.4h-9.5191v2.24h9.5191v-2.24z" fill="#26B7A6"/>
<path d="m166.29 988.1v-6.177h68.22v6.177h-68.22z" fill="#26B7A6"/>
<path d="m77.445 1005.5v-6.181h-68.221v6.181h68.221z" fill="#26B7A6"/>
<path d="m86.966 988.1v-6.177h17.452v6.177h-17.452z" fill="#26B7A6"/>
<path d="m156.77 1005.5v-6.181h-17.452v6.181h17.452z" fill="#26B7A6"/>
<path d="m51.271 1026.3v-6.18h17.452v6.18h-17.452z" fill="#26B7A6"/>
<path d="m63.957 1060.5h-27.764v2.25h27.764v-2.25z" fill="#26B7A6"/>
<path d="m28.262 1098.6h-27.764v2.25h27.764v-2.25z" fill="#26B7A6"/>
<path d="m126.62 1060.5h-9.519v2.25h9.519v-2.25z" fill="#26B7A6"/>
<path d="m117.11 1077.9h9.519v2.24h-9.519v-2.24z" fill="#26B7A6"/>
<path d="m90.92 1098.6h-9.5191v2.25h9.5191v-2.25z" fill="#26B7A6"/>
<path d="m77.445 1081.8v-6.18h-68.221v6.18h68.221z" fill="#26B7A6"/>
<path d="m86.966 1064.4v-6.18h17.452v6.18h-17.452z" fill="#26B7A6"/>
<path d="m156.77 1081.8v-6.18h-17.452v6.18h17.452z" fill="#26B7A6"/>
<path d="m51.271 1102.6v-6.18h17.452v6.18h-17.452z" fill="#26B7A6"/>
<path d="m63.957 1213.1h-27.764v2.25h27.764v-2.25z" fill="#26B7A6"/>
<path d="m179.77 1230.5h27.764v2.24h-27.764v-2.24z" fill="#26B7A6"/>
<path d="m28.262 1251.3h-27.764v2.25h27.764v-2.25z" fill="#26B7A6"/>
<path d="m126.62 1213.1h-9.519v2.25h9.519v-2.25z" fill="#26B7A6"/>
<path d="m117.11 1230.5h9.519v2.24h-9.519v-2.24z" fill="#26B7A6"/>
<path d="m90.92 1251.3h-9.5191v2.25h9.5191v-2.25z" fill="#26B7A6"/>
<path d="m166.29 1217v-6.18h68.22v6.18h-68.22z" fill="#26B7A6"/>
<path d="m77.445 1234.4v-6.17h-68.221v6.17h68.221z" fill="#26B7A6"/>
<path d="m130.59 1255.2v-6.18h68.221v6.18h-68.221z" fill="#26B7A6"/>
<path d="m86.966 1217v-6.18h17.452v6.18h-17.452z" fill="#26B7A6"/>
<path d="m156.77 1234.4v-6.17h-17.452v6.17h17.452z" fill="#26B7A6"/>
<path d="m51.271 1255.2v-6.18h17.452v6.18h-17.452z" fill="#26B7A6"/>
<path d="m384.9 717.1h27.764v2.246h-27.764v-2.246z" fill="#26B7A6"/>
<path d="m269.09 734.51h-27.764v2.246h27.764v-2.246z" fill="#26B7A6"/>
<path d="m420.6 755.28h27.765v2.246h-27.765v-2.246z" fill="#26B7A6"/>
<path d="m322.24 717.1h9.519v2.246h-9.519v-2.246z" fill="#26B7A6"/>
<path d="m331.75 734.51h-9.52v2.246h9.52v-2.246z" fill="#26B7A6"/>
<path d="m357.94 755.28h9.519v2.246h-9.519v-2.246z" fill="#26B7A6"/>
<path d="m282.57 721.03v-6.176h-68.221v6.176h68.221z" fill="#26B7A6"/>
<path d="m371.41 738.44v-6.177h68.22v6.177h-68.22z" fill="#26B7A6"/>
<path d="m318.27 759.22v-6.176h-68.221v6.176h68.221z" fill="#26B7A6"/>
<path d="m361.89 721.03v-6.176h-17.452v6.176h17.452z" fill="#26B7A6"/>
<path d="m292.08 738.44v-6.177h17.452v6.177h-17.452z" fill="#26B7A6"/>
<path d="m397.59 759.22v-6.176h-17.452v6.176h17.452z" fill="#26B7A6"/>
<path d="m384.9 640.8h27.764v2.246h-27.764v-2.246z" fill="#26B7A6"/>
<path d="m269.09 658.21h-27.764v2.246h27.764v-2.246z" fill="#26B7A6"/>
<path d="m420.6 678.97h27.765v2.246h-27.765v-2.246z" fill="#26B7A6"/>
<path d="m322.24 640.8h9.519v2.246h-9.519v-2.246z" fill="#26B7A6"/>
<path d="m331.75 658.21h-9.52v2.246h9.52v-2.246z" fill="#26B7A6"/>
<path d="m357.94 678.97h9.519v2.246h-9.519v-2.246z" fill="#26B7A6"/>
<path d="m282.57 644.73v-6.177h-68.221v6.177h68.221z" fill="#26B7A6"/>
<path d="m371.41 662.13v-6.176h68.22v6.176h-68.22z" fill="#26B7A6"/>
<path d="m318.27 682.92v-6.177h-68.221v6.177h68.221z" fill="#26B7A6"/>
<path d="m361.89 644.73v-6.177h-17.452v6.177h17.452z" fill="#26B7A6"/>
<path d="m292.08 662.13v-6.176h17.452v6.176h-17.452z" fill="#26B7A6"/>
<path d="m397.59 682.92v-6.177h-17.452v6.177h17.452z" fill="#26B7A6"/>
<path d="m384.9 869.72h27.764v2.246h-27.764v-2.246z" fill="#26B7A6"/>
<path d="m269.09 887.12h-27.764v2.246h27.764v-2.246z" fill="#26B7A6"/>
<path d="m420.6 907.89h27.765v2.246h-27.765v-2.246z" fill="#26B7A6"/>
<path d="m322.24 869.72h9.519v2.246h-9.519v-2.246z" fill="#26B7A6"/>
<path d="m331.75 887.12h-9.52v2.246h9.52v-2.246z" fill="#26B7A6"/>
<path d="m357.94 907.89h9.519v2.246h-9.519v-2.246z" fill="#26B7A6"/>
<path d="m282.57 873.64v-6.176h-68.221v6.176h68.221z" fill="#26B7A6"/>
<path d="m371.41 891.05v-6.177h68.22v6.177h-68.22z" fill="#26B7A6"/>
<path d="m318.27 911.83v-6.177h-68.221v6.177h68.221z" fill="#26B7A6"/>
<path d="m361.89 873.64v-6.176h-17.452v6.176h17.452z" fill="#26B7A6"/>
<path d="m292.08 891.05v-6.177h17.452v6.177h-17.452z" fill="#26B7A6"/>
<path d="m397.59 911.83v-6.177h-17.452v6.177h17.452z" fill="#26B7A6"/>
<path d="m384.9 946.02h27.764v2.246h-27.764v-2.246z" fill="#26B7A6"/>
<path d="m269.09 963.43h-27.764v2.246h27.764v-2.246z" fill="#26B7A6"/>
<path d="m420.6 984.19h27.765v2.246h-27.765v-2.246z" fill="#26B7A6"/>
<path d="m322.24 946.02h9.519v2.246h-9.519v-2.246z" fill="#26B7A6"/>
<path d="m331.75 963.43h-9.52v2.246h9.52v-2.246z" fill="#26B7A6"/>
<path d="m357.94 984.19h9.519v2.246h-9.519v-2.246z" fill="#26B7A6"/>
<path d="m371.41 967.35v-6.176h68.22v6.176h-68.22z" fill="#26B7A6"/>
<path d="m318.27 988.14v-6.176h-68.221v6.176h68.221z" fill="#26B7A6"/>
<path d="m361.89 949.95v-6.177h-17.452v6.177h17.452z" fill="#26B7A6"/>
<path d="m292.08 967.35v-6.176h17.452v6.176h-17.452z" fill="#26B7A6"/>
<path d="m397.59 988.14v-6.176h-17.452v6.176h17.452z" fill="#26B7A6"/>
<path d="m269.09 1116h-27.764v2.25h27.764v-2.25z" fill="#26B7A6"/>
<path d="m420.6 1136.8h27.765v2.25h-27.765v-2.25z" fill="#26B7A6"/>
<path d="m331.75 1116h-9.52v2.25h9.52v-2.25z" fill="#26B7A6"/>
<path d="m357.94 1136.8h9.519v2.25h-9.519v-2.25z" fill="#26B7A6"/>
<path d="m371.41 1120v-6.17h68.22v6.17h-68.22z" fill="#26B7A6"/>
<path d="m318.27 1140.8v-6.18h-68.221v6.18h68.221z" fill="#26B7A6"/>
<path d="m292.08 1120v-6.17h17.452v6.17h-17.452z" fill="#26B7A6"/>
<path d="m397.59 1140.8v-6.18h-17.452v6.18h17.452z" fill="#26B7A6"/>
<path d="m384.9 1174.9h27.764v2.24h-27.764v-2.24z" fill="#26B7A6"/>
<path d="m269.09 1192.4h-27.764v2.24h27.764v-2.24z" fill="#26B7A6"/>
<path d="m420.6 1213.1h27.765v2.25h-27.765v-2.25z" fill="#26B7A6"/>
<path d="m322.24 1174.9h9.519v2.24h-9.519v-2.24z" fill="#26B7A6"/>
<path d="m331.75 1192.4h-9.52v2.24h9.52v-2.24z" fill="#26B7A6"/>
<path d="m357.94 1213.1h9.519v2.25h-9.519v-2.25z" fill="#26B7A6"/>
<path d="m371.41 1196.3v-6.18h68.22v6.18h-68.22z" fill="#26B7A6"/>
<path d="m361.89 1178.9v-6.18h-17.452v6.18h17.452z" fill="#26B7A6"/>
<path d="m292.08 1196.3v-6.18h17.452v6.18h-17.452z" fill="#26B7A6"/>
<path d="m269.09 1268.6h-27.764v2.25h27.764v-2.25z" fill="#26B7A6"/>
<path d="m282.57 1255.2v-6.17h-68.221v6.17h68.221z" fill="#26B7A6"/>
<path d="m254.43 697.48h-34.205m-243.58 58.903h46.85m230.93 17.402h-34.205m-291.92 20.78h59.495m160.23-38.182h8.726m-61.073 17.402h-8.726m25.385 20.78h8.726m-144.42 38.124h46.85m-95.19 38.181h59.495m160.23-38.182h8.726m-61.073 17.403h-8.726m25.385 20.779h8.726m113.44 40.928v-6.176m-103.92 114.49v6.18m-153.94-40.991h46.85m230.93 17.401h-34.205m-291.92 20.78h59.495m160.23-38.182h8.726m-61.073 17.402h-8.726m25.385 20.78h8.726m45.217 34.75v6.18m-35.702 32.01v6.18h68.221m-222.16-41h46.85m-95.19 38.19h59.495m160.23-38.19h8.726m-61.073 17.41h-8.726m25.385 20.78h8.726m113.44 40.92v-6.17m19.925 20.77h-34.205m-243.58 58.91h46.85m230.93 17.4h-34.205m-291.92 20.78h59.495m160.23-38.19h8.726m-61.073 17.41h-8.726m25.385 20.78h8.726m351.14-534.17h-46.85m-230.93 17.402h34.205m291.92 20.78h-59.494m-160.23-38.182h-8.726m61.073 17.402h8.726m-25.386 20.78h-8.726m144.42-114.49h-46.85m95.19 38.182h-59.494m-160.23-38.183h-8.726m61.073 17.403h8.726m-25.386 20.78h-8.726m144.42 190.74h-46.85m-230.93 17.402h34.205m291.92 20.779h-59.494m-160.23-38.182h-8.726m61.073 17.403h8.726m-25.386 20.779h-8.726m-45.216 34.751v6.177m189.64-2.804h-46.85m-230.93 17.402h34.205m291.92 20.78h-59.494m-160.23-38.183h-8.726m61.073 17.403h8.726m-25.386 20.78h-8.726m57.115 115.55h27.764m-90.429 0h9.519m-49.185 1.68h-68.221m147.54 0h-17.452m127.77-2.8h-46.85m-230.93 17.4h34.205m291.92 20.78h-59.494m-160.23-38.18h-8.726m61.073 17.4h8.726m-25.386 20.78h-8.726m-45.216 34.75v6.18m35.702 32.01h-68.221v6.17m147.54-6.17h-17.452m92.075-34.82h-46.85m95.19 38.18h-59.494m-160.23-38.18h-8.726m61.073 17.4h8.726m-25.386 20.78h-8.726m-77.735 79.12v-6.18m-55.626-17.41h34.205m-192.44-514.51h27.764v2.246h-27.764v-2.246zm171.34 17.407h-27.764v2.246h27.764v-2.246zm-207.03 20.765h27.764v2.246h-27.764v-2.246zm116.6-38.172h9.519v2.246h-9.519v-2.246zm9.528 17.407h-9.519v2.246h9.519v-2.246zm-45.229 20.765h9.5191v2.246h-9.5191v-2.246zm84.887-40.42v6.176h68.22v-6.176h-68.22zm-88.843 17.402v6.177h-68.221v-6.177h68.221zm53.141 20.785v6.176h68.221v-6.176h-68.221zm-43.62-38.187v6.176h17.452v-6.176h-17.452zm69.808 17.402v6.177h-17.452v-6.177h17.452zm-105.5 20.785v6.176h17.452v-6.176h-17.452zm-15.079 40.366h27.764v2.246h-27.764v-2.246zm171.34 17.408h-27.764v2.246h27.764v-2.246zm-207.03 20.764h27.764v2.246h-27.764v-2.246zm116.6-38.172h9.519v2.246h-9.519v-2.246zm9.528 17.408h-9.519v2.246h9.519v-2.246zm-45.229 20.764h9.5191v2.246h-9.5191v-2.246zm-3.9559-23.017v6.176h-68.221v-6.176h68.221zm53.141 20.784v6.177h68.221v-6.177h-68.221zm-43.62-38.187v6.177h17.452v-6.177h-17.452zm69.808 17.403v6.176h-17.452v-6.176h17.452zm-105.5 20.784v6.177h17.452v-6.177h-17.452zm-15.079 116.67h27.764v2.246h-27.764v-2.246zm171.34 17.406h-27.764v2.25h27.764v-2.25zm-207.03 20.77h27.764v2.24h-27.764v-2.24zm116.6-38.176h9.519v2.246h-9.519v-2.246zm9.528 17.406h-9.519v2.25h9.519v-2.25zm-45.229 20.77h9.5191v2.24h-9.5191v-2.24zm84.887-40.424v6.177h68.22v-6.177h-68.22zm-88.843 17.403v6.181h-68.221v-6.181h68.221zm9.5208-17.403v6.177h17.452v-6.177h-17.452zm69.808 17.403v6.181h-17.452v-6.181h17.452zm-105.5 20.781v6.18h17.452v-6.18h-17.452zm-15.079 40.37h27.764v2.25h-27.764v-2.25zm-35.694 38.17h27.764v2.25h-27.764v-2.25zm116.6-38.17h9.519v2.25h-9.519v-2.25zm9.528 17.41h-9.519v2.24h9.519v-2.24zm-45.229 20.76h9.5191v2.25h-9.5191v-2.25zm-3.9559-23.02v6.18h-68.221v-6.18h68.221zm9.5208-17.4v6.18h17.452v-6.18h-17.452zm69.808 17.4v6.18h-17.452v-6.18h17.452zm-105.5 20.79v6.18h17.452v-6.18h-17.452zm-15.079 116.67h27.764v2.25h-27.764v-2.25zm171.34 17.41h-27.764v2.24h27.764v-2.24zm-207.03 20.76h27.764v2.25h-27.764v-2.25zm116.6-38.17h9.519v2.25h-9.519v-2.25zm9.528 17.41h-9.519v2.24h9.519v-2.24zm-45.229 20.76h9.5191v2.25h-9.5191v-2.25zm84.887-40.42v6.18h68.22v-6.18h-68.22zm-88.843 17.41v6.17h-68.221v-6.17h68.221zm53.141 20.78v6.18h68.221v-6.18h-68.221zm-43.62-38.19v6.18h17.452v-6.18h-17.452zm69.808 17.41v6.17h-17.452v-6.17h17.452zm-105.5 20.78v6.18h17.452v-6.18h-17.452zm361.39-531.92h-27.764v2.246h27.764v-2.246zm-171.34 17.407h27.764v2.246h-27.764v-2.246zm207.04 20.765h-27.765v2.246h27.765v-2.246zm-116.6-38.172h-9.519v2.246h9.519v-2.246zm-9.528 17.407h9.52v2.246h-9.52v-2.246zm45.23 20.765h-9.519v2.246h9.519v-2.246zm-84.887-40.42v6.176h-68.221v-6.176h68.221zm88.843 17.402v6.177h68.22v-6.177h-68.22zm-53.141 20.785v6.176h-68.221v-6.176h68.221zm43.62-38.187v6.176h-17.452v-6.176h17.452zm-69.808 17.402v6.177h17.452v-6.177h-17.452zm105.5 20.785v6.176h-17.452v-6.176h17.452zm15.079-112.24h-27.764v2.246h27.764v-2.246zm-171.34 17.408h27.764v2.246h-27.764v-2.246zm207.04 20.765h-27.765v2.246h27.765v-2.246zm-116.6-38.173h-9.519v2.246h9.519v-2.246zm-9.528 17.408h9.52v2.246h-9.52v-2.246zm45.23 20.765h-9.519v2.246h9.519v-2.246zm-84.887-40.421v6.177h-68.221v-6.177h68.221zm88.843 17.403v6.176h68.22v-6.176h-68.22zm-53.141 20.784v6.177h-68.221v-6.177h68.221zm43.62-38.187v6.177h-17.452v-6.177h17.452zm-69.808 17.403v6.176h17.452v-6.176h-17.452zm105.5 20.784v6.177h-17.452v-6.177h17.452zm15.079 192.98h-27.764v2.246h27.764v-2.246zm-171.34 17.407h27.764v2.246h-27.764v-2.246zm207.04 20.765h-27.765v2.246h27.765v-2.246zm-116.6-38.172h-9.519v2.246h9.519v-2.246zm-9.528 17.407h9.52v2.246h-9.52v-2.246zm45.23 20.765h-9.519v2.246h9.519v-2.246zm-84.887-40.42v6.176h-68.221v-6.176h68.221zm88.843 17.402v6.177h68.22v-6.177h-68.22zm-53.141 20.785v6.177h-68.221v-6.177h68.221zm43.62-38.187v6.176h-17.452v-6.176h17.452zm-69.808 17.402v6.177h17.452v-6.177h-17.452zm105.5 20.785v6.177h-17.452v-6.177h17.452zm15.079 40.366h-27.764v2.246h27.764v-2.246zm-171.34 17.408h27.764v2.246h-27.764v-2.246zm207.04 20.765h-27.765v2.246h27.765v-2.246zm-116.6-38.173h-9.519v2.246h9.519v-2.246zm-9.528 17.408h9.52v2.246h-9.52v-2.246zm45.23 20.765h-9.519v2.246h9.519v-2.246zm3.956-23.018v6.176h68.22v-6.176h-68.22zm-53.141 20.785v6.176h-68.221v-6.176h68.221zm43.62-38.188v6.177h-17.452v-6.177h17.452zm-69.808 17.403v6.176h17.452v-6.176h-17.452zm105.5 20.785v6.176h-17.452v-6.176h17.452zm-156.26 134.08h27.764v2.25h-27.764v-2.25zm207.04 20.76h-27.765v2.25h27.765v-2.25zm-126.13-20.76h9.52v2.25h-9.52v-2.25zm45.23 20.76h-9.519v2.25h9.519v-2.25zm3.956-23.01v6.17h68.22v-6.17h-68.22zm-53.141 20.78v6.18h-68.221v-6.18h68.221zm-26.188-20.78v6.17h17.452v-6.17h-17.452zm105.5 20.78v6.18h-17.452v-6.18h17.452zm15.079 40.37h-27.764v2.24h27.764v-2.24zm-171.34 17.41h27.764v2.24h-27.764v-2.24zm207.04 20.76h-27.765v2.25h27.765v-2.25zm-116.6-38.17h-9.519v2.24h9.519v-2.24zm-9.528 17.41h9.52v2.24h-9.52v-2.24zm45.23 20.76h-9.519v2.25h9.519v-2.25zm3.956-23.02v6.18h68.22v-6.18h-68.22zm-9.521-17.4v6.18h-17.452v-6.18h17.452zm-69.808 17.4v6.18h17.452v-6.18h-17.452zm-50.759 78.56h27.764v2.25h-27.764v-2.25zm41.245-19.65v6.17h-68.221v-6.17h68.221z" stroke="#26B7A6" stroke-linecap="round" stroke-linejoin="round" stroke-width="2"/>
</g>
</g>
<defs>
<clipPath id="a">
<rect transform="translate(.18945 .19678)" width="437" height="884" fill="#fff"/>
</clipPath>
</defs>
</svg>
