<svg fill="none" viewBox="0 0 391 16" xmlns="http://www.w3.org/2000/svg">
<path d="m174.08 3.486c-10.869-1.925-64.123-0.76373-81.774-0.76378-10.419-3e-5 -53.466-3.1279-91.876-2.4597v10.029c4.5821 0.4186 8.8681 0.9745 12.589 1.2565 12.41 0.9403 72.788-1.3489 77.161 0.9403 1.7938 0.9391 121.98 5.4443 135.43 1.2509 13.273-4.1384 95.44-1.9469 107.5 0 4.939 0.7972 34.413 0.7877 57.314 0.744v-9.8296c-16.081 0.36787-37.574 1.1021-54.932-1.1679-31.331-4.0972-85.754 1.4214-100.51 4e-5 -18.45-1.7767-38.231 4.0155-60.904-4e-5z" fill="#FAFAFA"/>
</svg>
