<svg fill="none" viewBox="0 0 438 885" xmlns="http://www.w3.org/2000/svg">
<g clip-path="url(#a)">
<path d="m260.7 897.9 267.2-82.489-2.625-120.37-99.623 58.312-55.674-66.212 36.719-40.074 75.313 44.777-82.514-201.24-117.15 53.655m38.918-17.825-9.236 46.562-29.682-28.737m38.918-17.825 21.494-108.35-158.01-40.421 73.216-79.908m24.378 246.5-20.006 9.163m20.006-9.163-171.59-166.13-119.16-67.881-4.1004 282.7 43.834 52.991 78.275-186.26 152.73 93.745-51.517 23.595-1.687 93.336-96.102-93.044 8.571 203.51 82.318 21.661m58.417-249.06 80.513 49.418-162.24 177.07 23.314 22.572 46.9 12.341m-46.9-12.341 31.991 30.973 14.909-18.632m0 0 27.934 7.35 99.012 11.444-47.492-118.09-79.454 99.294zm7.145-517.07 30.962-33.791 60.528 40.669m-91.49-6.878 90.04 58.581 1.45-51.703m-91.49-6.878-9.647-6.276 44.994-209.69-31.364-23.686m87.507 246.53 165.03 110.88-15.645-113.63-40.808-9.612 27.072-68.759-56.218-35.568m-79.433 116.69 2.468-87.998m76.965-28.692-74.832-47.344-2.133 76.036m76.965-28.692-25.252 51.66-51.713-22.968m76.965-28.692 41.269-84.427m-118.23 113.12-32.192-14.299 6.883-156.89-64.666 12.66-67.733-51.152-23.13 68.942m90.863-17.789-90.863 17.789-41.366 123.3m41.366-123.3-113.42 22.206 77.496-92.047-38.996-7.8566-176.26 149.43 6.9052 85.827 97.346-106.24 105.57 71.985m0 0-7.654 22.815-73.869-55.69-32.196 74.351 95.196 92.166 97.23-79.975-78.707-53.667z" opacity=".5" stroke="#8C55B2" stroke-width="2"/>
</g>
<defs>
<clipPath id="a">
<rect transform="translate(.89844 .19775)" width="437" height="884" fill="#fff"/>
</clipPath>
</defs>
</svg>
