<svg fill="none" viewBox="0 0 438 885" xmlns="http://www.w3.org/2000/svg">
<g clip-path="url(#a)">
<path d="m291.4 443.4c14.586-0.19 21.472-10.7 36.2-10.7 14.861 0 21.738 10.702 36.6 10.702 14.861 0 21.738-10.702 36.6-10.702 14.861 0 21.738 10.702 36.6 10.702m-146-2e-3c-0.133 2e-3 -0.266 2e-3 -0.4 2e-3m0.4-2e-3c0.132 2e-3 0.265 2e-3 0.399 2e-3m-0.399-2e-3c-14.587-0.19-21.473-10.7-36.201-10.7-14.861 0-21.738 10.702-36.6 10.702-14.861 0-21.738-10.702-36.6-10.702-14.794 0-21.676 10.606-36.4 10.702m145.8 42.808c14.586-0.19 21.472-10.7 36.2-10.7 14.861 0 21.738 10.702 36.6 10.702 14.861 0 21.738-10.702 36.6-10.702 14.861 0 21.738 10.702 36.6 10.702m-146-2e-3c-0.133 1e-3 -0.266 2e-3 -0.4 2e-3m0.4-2e-3c0.132 1e-3 0.265 2e-3 0.399 2e-3m-0.399-2e-3c-14.587-0.19-21.473-10.7-36.201-10.7-14.861 0-21.738 10.702-36.6 10.702-14.861 0-21.738-10.702-36.6-10.702-14.794 0-21.676 10.606-36.4 10.702m145.8-32.11c14.586-0.189 21.472-10.7 36.2-10.7 14.861 0 21.738 10.703 36.6 10.703 14.861 0 21.738-10.703 36.6-10.703 14.861 0 21.738 10.703 36.6 10.703m-146-3e-3c-0.133 2e-3 -0.266 3e-3 -0.4 3e-3m0.4-3e-3c0.132 2e-3 0.265 3e-3 0.399 3e-3m-0.399-3e-3c-14.587-0.189-21.473-10.7-36.201-10.7-14.861 0-21.738 10.703-36.6 10.703-14.861 0-21.738-10.703-36.6-10.703-14.794 0-21.676 10.607-36.4 10.702m145.8 42.808c14.586-0.189 21.472-10.7 36.2-10.7 14.861 0 21.738 10.703 36.6 10.703 14.861 0 21.738-10.703 36.6-10.703 14.861 0 21.738 10.703 36.6 10.703m-146-3e-3c-0.133 2e-3 -0.266 3e-3 -0.4 3e-3m0.4-3e-3c0.132 2e-3 0.265 3e-3 0.399 3e-3m-0.399-3e-3c-14.587-0.189-21.473-10.7-36.201-10.7-14.861 0-21.738 10.703-36.6 10.703-14.861 0-21.738-10.703-36.6-10.703-14.794 0-21.676 10.607-36.4 10.702m145.8-32.109c14.586-0.19 21.472-10.7 36.2-10.7 14.861 0 21.738 10.702 36.6 10.702 14.861 0 21.738-10.702 36.6-10.702 14.861 0 21.738 10.702 36.6 10.702m-146-2e-3c-0.133 1e-3 -0.266 2e-3 -0.4 2e-3m0.4-2e-3c0.132 1e-3 0.265 2e-3 0.399 2e-3m-0.399-2e-3c-14.587-0.19-21.473-10.7-36.201-10.7-14.861 0-21.738 10.702-36.6 10.702-14.861 0-21.738-10.702-36.6-10.702-14.794 0-21.676 10.606-36.4 10.702m145.8 10.7c14.586-0.189 21.472-10.7 36.2-10.7 14.861 0 21.738 10.703 36.6 10.703 14.861 0 21.738-10.703 36.6-10.703 14.861 0 21.738 10.703 36.6 10.703m-146-3e-3c-0.133 2e-3 -0.266 3e-3 -0.4 3e-3m0.4-3e-3c0.132 2e-3 0.265 3e-3 0.399 3e-3m-0.399-3e-3c-14.587-0.189-21.473-10.7-36.201-10.7-14.861 0-21.738 10.703-36.6 10.703-14.861 0-21.738-10.703-36.6-10.703-14.794 0-21.676 10.607-36.4 10.702m145.8 224.75c14.586-0.189 21.472-10.7 36.2-10.7 14.861 0 21.738 10.703 36.6 10.703 14.861 0 21.738-10.703 36.6-10.703 14.861 0 21.738 10.703 36.6 10.703m-146-3e-3c-0.133 2e-3 -0.266 3e-3 -0.4 3e-3m0.4-3e-3c0.132 2e-3 0.265 3e-3 0.399 3e-3m-0.399-3e-3c-14.587-0.189-21.473-10.7-36.201-10.7-14.861 0-21.738 10.703-36.6 10.703-14.861 0-21.738-10.703-36.6-10.703-14.794 0-21.676 10.607-36.399 10.702m145.8 42.808c14.586-0.189 21.472-10.7 36.2-10.7 14.861 0 21.738 10.703 36.6 10.703 14.861 0 21.738-10.703 36.6-10.703 14.861 0 21.738 10.703 36.6 10.703m-146-3e-3c-0.133 2e-3 -0.266 3e-3 -0.4 3e-3m0.4-3e-3c0.132 2e-3 0.265 3e-3 0.399 3e-3m-0.399-3e-3c-14.587-0.189-21.473-10.7-36.201-10.7-14.861 0-21.738 10.703-36.6 10.703-14.861 0-21.738-10.703-36.6-10.703-14.794 0-21.676 10.607-36.399 10.702m145.8-32.109c14.586-0.19 21.472-10.7 36.2-10.7 14.861 0 21.738 10.702 36.6 10.702 14.861 0 21.738-10.702 36.6-10.702 14.861 0 21.738 10.702 36.6 10.702m-146-2e-3c-0.133 2e-3 -0.266 2e-3 -0.4 2e-3m0.4-2e-3c0.132 2e-3 0.265 2e-3 0.399 2e-3m-0.399-2e-3c-14.587-0.19-21.473-10.7-36.201-10.7-14.861 0-21.738 10.702-36.6 10.702-14.861 0-21.738-10.702-36.6-10.702-14.794 0-21.676 10.606-36.399 10.702m145.8 42.808c14.586-0.19 21.472-10.7 36.2-10.7 14.861 0 21.738 10.702 36.6 10.702 14.861 0 21.738-10.702 36.6-10.702 14.861 0 21.738 10.702 36.6 10.702m-146-2e-3c-0.133 1e-3 -0.266 2e-3 -0.4 2e-3m0.4-2e-3c0.132 1e-3 0.265 2e-3 0.399 2e-3m-0.399-2e-3c-14.587-0.19-21.473-10.7-36.201-10.7-14.861 0-21.738 10.702-36.6 10.702-14.861 0-21.738-10.702-36.6-10.702-14.794 0-21.676 10.606-36.399 10.701m145.8-32.109c14.586-0.189 21.472-10.7 36.2-10.7 14.861 0 21.738 10.703 36.6 10.703 14.861 0 21.738-10.703 36.6-10.703 14.861 0 21.738 10.703 36.6 10.703m-146-3e-3c-0.133 2e-3 -0.266 3e-3 -0.4 3e-3m0.4-3e-3c0.132 2e-3 0.265 3e-3 0.399 3e-3m-0.399-3e-3c-14.587-0.189-21.473-10.7-36.201-10.7-14.861 0-21.738 10.703-36.6 10.703-14.861 0-21.738-10.703-36.6-10.703-14.794 0-21.676 10.607-36.399 10.702m145.8 10.701c14.586-0.19 21.472-10.7 36.2-10.7 14.861 0 21.738 10.702 36.6 10.702 14.861 0 21.738-10.702 36.6-10.702 14.861 0 21.738 10.702 36.6 10.702m-146-2e-3c-0.133 1e-3 -0.266 2e-3 -0.4 2e-3m0.4-2e-3c0.132 1e-3 0.265 2e-3 0.399 2e-3m-0.399-2e-3c-14.587-0.19-21.473-10.7-36.201-10.7-14.861 0-21.738 10.702-36.6 10.702-14.861 0-21.738-10.702-36.6-10.702-14.794 0-21.676 10.606-36.399 10.702m145.8-160.54c14.586-0.189 21.472-10.7 36.2-10.7 14.861 0 21.738 10.703 36.6 10.703 14.861 0 21.738-10.703 36.6-10.703 14.861 0 21.738 10.703 36.6 10.703m-146-3e-3c-0.133 2e-3 -0.266 3e-3 -0.4 3e-3m0.4-3e-3c0.132 2e-3 0.265 3e-3 0.399 3e-3m-0.399-3e-3c-14.587-0.189-21.473-10.7-36.201-10.7-14.861 0-21.738 10.703-36.6 10.703-14.861 0-21.738-10.703-36.6-10.703-14.794 0-21.676 10.607-36.4 10.702m145.8 42.808c14.586-0.19 21.472-10.7 36.2-10.7 14.861 0 21.738 10.702 36.6 10.702 14.861 0 21.738-10.702 36.6-10.702 14.861 0 21.738 10.702 36.6 10.702m-146-2e-3c-0.133 2e-3 -0.266 2e-3 -0.4 2e-3m0.4-2e-3c0.132 2e-3 0.265 2e-3 0.399 2e-3m-0.399-2e-3c-14.587-0.19-21.473-10.7-36.201-10.7-14.861 0-21.738 10.702-36.6 10.702-14.861 0-21.738-10.702-36.6-10.702-14.794 0-21.676 10.606-36.4 10.702m145.8-32.109c14.586-0.19 21.472-10.7 36.2-10.7 14.861 0 21.738 10.702 36.6 10.702 14.861 0 21.738-10.702 36.6-10.702 14.861 0 21.738 10.702 36.6 10.702m-146-2e-3c-0.133 1e-3 -0.266 2e-3 -0.4 2e-3m0.4-2e-3c0.132 1e-3 0.265 2e-3 0.399 2e-3m-0.399-2e-3c-14.587-0.19-21.473-10.7-36.201-10.7-14.861 0-21.738 10.702-36.6 10.702-14.861 0-21.738-10.702-36.6-10.702-14.794 0-21.676 10.606-36.4 10.701m145.8 42.808c14.586-0.189 21.472-10.7 36.2-10.7 14.861 0 21.738 10.703 36.6 10.703 14.861 0 21.738-10.703 36.6-10.703 14.861 0 21.738 10.703 36.6 10.703m-146-3e-3c-0.133 2e-3 -0.266 3e-3 -0.4 3e-3m0.4-3e-3c0.132 2e-3 0.265 3e-3 0.399 3e-3m-0.399-3e-3c-14.587-0.189-21.473-10.7-36.201-10.7-14.861 0-21.738 10.703-36.6 10.703-14.861 0-21.738-10.703-36.6-10.703-14.794 0-21.676 10.607-36.4 10.702m145.8-32.109c14.586-0.19 21.472-10.7 36.2-10.7 14.861 0 21.738 10.703 36.6 10.703 14.861 0 21.738-10.703 36.6-10.703 14.861 0 21.738 10.703 36.6 10.703m-146-3e-3c-0.133 2e-3 -0.266 3e-3 -0.4 3e-3m0.4-3e-3c0.132 2e-3 0.265 3e-3 0.399 3e-3m-0.399-3e-3c-14.587-0.19-21.473-10.7-36.201-10.7-14.861 0-21.738 10.703-36.6 10.703-14.861 0-21.738-10.703-36.6-10.703-14.794 0-21.676 10.607-36.4 10.702m145.8 10.7c14.586-0.189 21.472-10.699 36.2-10.699 14.861 0 21.738 10.702 36.6 10.702 14.861 0 21.738-10.702 36.6-10.702 14.861 0 21.738 10.702 36.6 10.702m-146-3e-3c-0.133 2e-3 -0.266 3e-3 -0.4 3e-3m0.4-3e-3c0.132 2e-3 0.265 3e-3 0.399 3e-3m-0.399-3e-3c-14.587-0.189-21.473-10.699-36.201-10.699-14.861 0-21.738 10.702-36.6 10.702-14.861 0-21.738-10.702-36.6-10.702-14.794 0-21.676 10.606-36.4 10.701m145.8-224.75c14.586-0.189 21.472-10.7 36.2-10.7 14.861 0 21.738 10.703 36.6 10.703 14.861 0 21.738-10.703 36.6-10.703 14.861 0 21.738 10.703 36.6 10.703m-146-3e-3c-0.133 2e-3 -0.266 3e-3 -0.4 3e-3m0.4-3e-3c0.132 2e-3 0.265 3e-3 0.399 3e-3m-0.399-3e-3c-14.587-0.189-21.473-10.7-36.201-10.7-14.861 0-21.738 10.703-36.6 10.703-14.861 0-21.738-10.703-36.6-10.703-14.794 0-21.676 10.607-36.4 10.702m145.8 42.808c14.586-0.19 21.472-10.7 36.2-10.7 14.861 0 21.738 10.703 36.6 10.703 14.861 0 21.738-10.703 36.6-10.703 14.861 0 21.738 10.703 36.6 10.703m-146-3e-3c-0.133 2e-3 -0.266 3e-3 -0.4 3e-3m0.4-3e-3c0.132 2e-3 0.265 3e-3 0.399 3e-3m-0.399-3e-3c-14.587-0.19-21.473-10.7-36.201-10.7-14.861 0-21.738 10.703-36.6 10.703-14.861 0-21.738-10.703-36.6-10.703-14.794 0-21.676 10.607-36.4 10.702m145.8-32.109c14.586-0.19 21.472-10.7 36.2-10.7 14.861 0 21.738 10.702 36.6 10.702 14.861 0 21.738-10.702 36.6-10.702 14.861 0 21.738 10.702 36.6 10.702m-146-2e-3c-0.133 1e-3 -0.266 2e-3 -0.4 2e-3m0.4-2e-3c0.132 1e-3 0.265 2e-3 0.399 2e-3m-0.399-2e-3c-14.587-0.19-21.473-10.7-36.201-10.7-14.861 0-21.738 10.702-36.6 10.702-14.861 0-21.738-10.702-36.6-10.702-14.794 0-21.676 10.606-36.4 10.702m145.8 42.807c14.586-0.189 21.472-10.699 36.2-10.699 14.861 0 21.738 10.702 36.6 10.702 14.861 0 21.738-10.702 36.6-10.702 14.861 0 21.738 10.702 36.6 10.702m-146-3e-3c-0.133 2e-3 -0.266 3e-3 -0.4 3e-3m0.4-3e-3c0.132 2e-3 0.265 3e-3 0.399 3e-3m-0.399-3e-3c-14.587-0.189-21.473-10.699-36.201-10.699-14.861 0-21.738 10.702-36.6 10.702-14.861 0-21.738-10.702-36.6-10.702-14.794 0-21.676 10.606-36.4 10.701m145.8-32.109c14.586-0.189 21.472-10.7 36.2-10.7 14.861 0 21.738 10.703 36.6 10.703 14.861 0 21.738-10.703 36.6-10.703 14.861 0 21.738 10.703 36.6 10.703m-146-3e-3c-0.133 2e-3 -0.266 3e-3 -0.4 3e-3m0.4-3e-3c0.132 2e-3 0.265 3e-3 0.399 3e-3m-0.399-3e-3c-14.587-0.189-21.473-10.7-36.201-10.7-14.861 0-21.738 10.703-36.6 10.703-14.861 0-21.738-10.703-36.6-10.703-14.794 0-21.676 10.607-36.4 10.702m145.8 10.701c14.586-0.19 21.472-10.7 36.2-10.7 14.861 0 21.738 10.702 36.6 10.702 14.861 0 21.738-10.702 36.6-10.702 14.861 0 21.738 10.702 36.6 10.702m-146-2e-3c-0.133 1e-3 -0.266 2e-3 -0.4 2e-3m0.4-2e-3c0.132 1e-3 0.265 2e-3 0.399 2e-3m-0.399-2e-3c-14.587-0.19-21.473-10.7-36.201-10.7-14.861 0-21.738 10.702-36.6 10.702-14.861 0-21.738-10.702-36.6-10.702-14.794 0-21.676 10.606-36.4 10.702m145.8 224.75c14.586-0.19 21.472-10.7 36.2-10.7 14.861 0 21.738 10.702 36.6 10.702 14.861 0 21.738-10.702 36.6-10.702 14.861 0 21.738 10.702 36.6 10.702m-146-2e-3c-0.133 1e-3 -0.266 2e-3 -0.4 2e-3m0.4-2e-3c0.132 1e-3 0.265 2e-3 0.399 2e-3m-0.399-2e-3c-14.587-0.19-21.473-10.7-36.201-10.7-14.861 0-21.738 10.702-36.6 10.702-14.861 0-21.738-10.702-36.6-10.702-14.794 0-21.676 10.606-36.399 10.702m145.8 42.807c14.586-0.189 21.472-10.699 36.2-10.699 14.861 0 21.738 10.702 36.6 10.702 14.861 0 21.738-10.702 36.6-10.702 14.861 0 21.738 10.702 36.6 10.702m-146-3e-3c-0.133 2e-3 -0.266 3e-3 -0.4 3e-3m0.4-3e-3c0.132 2e-3 0.265 3e-3 0.399 3e-3m-0.399-3e-3c-14.587-0.189-21.473-10.699-36.201-10.699-14.861 0-21.738 10.702-36.6 10.702-14.861 0-21.738-10.702-36.6-10.702-14.794 0-21.676 10.606-36.399 10.701m145.8-32.109c14.586-0.189 21.472-10.7 36.2-10.7 14.861 0 21.738 10.703 36.6 10.703 14.861 0 21.738-10.703 36.6-10.703 14.861 0 21.738 10.703 36.6 10.703m-146-3e-3c-0.133 2e-3 -0.266 3e-3 -0.4 3e-3m0.4-3e-3c0.132 2e-3 0.265 3e-3 0.399 3e-3m-0.399-3e-3c-14.587-0.189-21.473-10.7-36.201-10.7-14.861 0-21.738 10.703-36.6 10.703-14.861 0-21.738-10.703-36.6-10.703-14.794 0-21.676 10.607-36.399 10.702m145.8 42.808c14.586-0.19 21.472-10.7 36.2-10.7 14.861 0 21.738 10.702 36.6 10.702 14.861 0 21.738-10.702 36.6-10.702 14.861 0 21.738 10.702 36.6 10.702m-146-2e-3c-0.133 2e-3 -0.266 2e-3 -0.4 2e-3m0.4-2e-3c0.132 2e-3 0.265 2e-3 0.399 2e-3m-0.399-2e-3c-14.587-0.19-21.473-10.7-36.201-10.7-14.861 0-21.738 10.702-36.6 10.702-14.861 0-21.738-10.702-36.6-10.702-14.794 0-21.676 10.606-36.399 10.702m145.8-32.109c14.586-0.19 21.472-10.7 36.2-10.7 14.861 0 21.738 10.702 36.6 10.702 14.861 0 21.738-10.702 36.6-10.702 14.861 0 21.738 10.702 36.6 10.702m-146-2e-3c-0.133 1e-3 -0.266 2e-3 -0.4 2e-3m0.4-2e-3c0.132 1e-3 0.265 2e-3 0.399 2e-3m-0.399-2e-3c-14.587-0.19-21.473-10.7-36.201-10.7-14.861 0-21.738 10.702-36.6 10.702-14.861 0-21.738-10.702-36.6-10.702-14.794 0-21.676 10.606-36.399 10.702m145.8 10.7c14.586-0.19 21.472-10.7 36.2-10.7 14.861 0 21.738 10.703 36.6 10.703 14.861 0 21.738-10.703 36.6-10.703 14.861 0 21.738 10.703 36.6 10.703m-146-3e-3c-0.133 2e-3 -0.266 3e-3 -0.4 3e-3m0.4-3e-3c0.132 2e-3 0.265 3e-3 0.399 3e-3m-0.399-3e-3c-14.587-0.19-21.473-10.7-36.201-10.7-14.861 0-21.738 10.703-36.6 10.703-14.861 0-21.738-10.703-36.6-10.703-14.794 0-21.676 10.607-36.399 10.702m145.8-160.54c14.586-0.189 21.472-10.699 36.2-10.699 14.861 0 21.738 10.702 36.6 10.702 14.861 0 21.738-10.702 36.6-10.702 14.861 0 21.738 10.702 36.6 10.702m-146-3e-3c-0.133 2e-3 -0.266 3e-3 -0.4 3e-3m0.4-3e-3c0.132 2e-3 0.265 3e-3 0.399 3e-3m-0.399-3e-3c-14.587-0.189-21.473-10.699-36.201-10.699-14.861 0-21.738 10.702-36.6 10.702-14.861 0-21.738-10.702-36.6-10.702-14.794 0-21.676 10.606-36.4 10.701m145.8 42.808c14.586-0.189 21.472-10.7 36.2-10.7 14.861 0 21.738 10.703 36.6 10.703 14.861 0 21.738-10.703 36.6-10.703 14.861 0 21.738 10.703 36.6 10.703m-146-3e-3c-0.133 2e-3 -0.266 3e-3 -0.4 3e-3m0.4-3e-3c0.132 2e-3 0.265 3e-3 0.399 3e-3m-0.399-3e-3c-14.587-0.189-21.473-10.7-36.201-10.7-14.861 0-21.738 10.703-36.6 10.703-14.861 0-21.738-10.703-36.6-10.703-14.794 0-21.676 10.607-36.4 10.702m145.8-32.109c14.586-0.19 21.472-10.7 36.2-10.7 14.861 0 21.738 10.703 36.6 10.703 14.861 0 21.738-10.703 36.6-10.703 14.861 0 21.738 10.703 36.6 10.703m-146-3e-3c-0.133 2e-3 -0.266 3e-3 -0.4 3e-3m0.4-3e-3c0.132 2e-3 0.265 3e-3 0.399 3e-3m-0.399-3e-3c-14.587-0.19-21.473-10.7-36.201-10.7-14.861 0-21.738 10.703-36.6 10.703-14.861 0-21.738-10.703-36.6-10.703-14.794 0-21.676 10.606-36.4 10.702m145.8 42.808c14.586-0.19 21.472-10.7 36.2-10.7 14.861 0 21.738 10.702 36.6 10.702 14.861 0 21.738-10.702 36.6-10.702 14.861 0 21.738 10.702 36.6 10.702m-146-2e-3c-0.133 1e-3 -0.266 2e-3 -0.4 2e-3m0.4-2e-3c0.132 1e-3 0.265 2e-3 0.399 2e-3m-0.399-2e-3c-14.587-0.19-21.473-10.7-36.201-10.7-14.861 0-21.738 10.702-36.6 10.702-14.861 0-21.738-10.702-36.6-10.702-14.794 0-21.676 10.606-36.4 10.702m145.8-32.11c14.586-0.189 21.472-10.699 36.2-10.699 14.861 0 21.738 10.702 36.6 10.702 14.861 0 21.738-10.702 36.6-10.702 14.861 0 21.738 10.702 36.6 10.702m-146-3e-3c-0.133 2e-3 -0.266 3e-3 -0.4 3e-3m0.4-3e-3c0.132 2e-3 0.265 3e-3 0.399 3e-3m-0.399-3e-3c-14.587-0.189-21.473-10.699-36.201-10.699-14.861 0-21.738 10.702-36.6 10.702-14.861 0-21.738-10.702-36.6-10.702-14.794 0-21.676 10.606-36.4 10.701m145.8 10.701c14.586-0.19 21.472-10.7 36.2-10.7 14.861 0 21.738 10.702 36.6 10.702 14.861 0 21.738-10.702 36.6-10.702 14.861 0 21.738 10.702 36.6 10.702m-146-2e-3c-0.133 1e-3 -0.266 2e-3 -0.4 2e-3m0.4-2e-3c0.132 1e-3 0.265 2e-3 0.399 2e-3m-0.399-2e-3c-14.587-0.19-21.473-10.7-36.201-10.7-14.861 0-21.738 10.702-36.6 10.702-14.861 0-21.738-10.702-36.6-10.702-14.794 0-21.676 10.606-36.4 10.702m0-96.322h-0.2m0.2 0h0.125 0.075m-0.2 0c-14.723-0.096-21.605-10.702-36.4-10.702-14.861 0-21.738 10.702-36.6 10.702-14.862 0-21.738-10.702-36.6-10.702-14.862 0-21.738 10.702-36.6 10.702m146.2 42.81h-0.2m0.2 0h0.2m-0.2 0c-14.723-0.096-21.605-10.702-36.4-10.702-14.861 0-21.738 10.702-36.6 10.702-14.862 0-21.738-10.702-36.6-10.702-14.862 0-21.738 10.702-36.6 10.702m146.2-32.108c-0.066 1e-3 -0.133 1e-3 -0.2 1e-3m0.2-1e-3 0.103 1e-3h0.097m-0.2-1e-3c-14.723-0.095-21.605-10.702-36.4-10.702-14.861 0-21.738 10.703-36.6 10.703-14.862 0-21.738-10.703-36.6-10.703-14.862 0-21.738 10.703-36.6 10.703m146.2 42.809c-0.066 0-0.133 1e-3 -0.2 1e-3m0.2-1e-3c0.067 0 0.134 1e-3 0.2 1e-3m-0.2-1e-3c-14.723-0.095-21.605-10.702-36.4-10.702-14.861 0-21.738 10.703-36.6 10.703-14.862 0-21.738-10.703-36.6-10.703-14.862 0-21.738 10.703-36.6 10.703m146.2-32.108h-0.2m0.2 0h0.105 0.095m-0.2 0c-14.723-0.096-21.605-10.702-36.4-10.702-14.861 0-21.738 10.702-36.6 10.702-14.862 0-21.738-10.702-36.6-10.702-14.862 0-21.738 10.702-36.6 10.702m146.2 10.702c-0.066 1e-3 -0.133 1e-3 -0.2 1e-3m0.2-1e-3c0.036 0 0.072 1e-3 0.108 1e-3h0.092m-0.2-1e-3c-14.723-0.095-21.605-10.702-36.4-10.702-14.861 0-21.738 10.703-36.6 10.703-14.862 0-21.738-10.703-36.6-10.703-14.862 0-21.738 10.703-36.6 10.703m146.2 224.75c-0.067 1e-3 -0.134 1e-3 -0.201 1e-3m0.201-1e-3c0.066 1e-3 0.133 1e-3 0.199 1e-3m-0.199-1e-3c-14.724-0.095-21.606-10.702-36.401-10.702-14.861 0-21.738 10.703-36.6 10.703-14.862 0-21.738-10.703-36.6-10.703-14.862 0-21.738 10.703-36.6 10.703m146.2 42.809c-0.067 0-0.134 1e-3 -0.201 1e-3m0.201-1e-3c0.066 0 0.133 1e-3 0.199 1e-3m-0.199-1e-3c-14.724-0.095-21.606-10.702-36.401-10.702-14.861 0-21.738 10.703-36.6 10.703-14.862 0-21.738-10.703-36.6-10.703-14.862 0-21.738 10.703-36.6 10.703m146.2-32.108h-0.201m0.201 0h0.199m-0.199 0c-14.724-0.096-21.606-10.702-36.401-10.702-14.861 0-21.738 10.702-36.6 10.702-14.862 0-21.738-10.702-36.6-10.702-14.862 0-21.738 10.702-36.6 10.702m146.2 42.809c-0.067 1e-3 -0.134 1e-3 -0.201 1e-3m0.201-1e-3c0.066 1e-3 0.133 1e-3 0.199 1e-3m-0.199-1e-3c-14.724-0.095-21.606-10.701-36.401-10.701-14.861 0-21.738 10.702-36.6 10.702-14.862 0-21.738-10.702-36.6-10.702-14.862 0-21.738 10.702-36.6 10.702m146.2-32.108c-0.067 1e-3 -0.134 1e-3 -0.201 1e-3m0.201-1e-3c0.066 1e-3 0.133 1e-3 0.199 1e-3m-0.199-1e-3c-14.724-0.095-21.606-10.702-36.401-10.702-14.861 0-21.738 10.703-36.6 10.703-14.862 0-21.738-10.703-36.6-10.703-14.862 0-21.738 10.703-36.6 10.703m146.2 10.702h-0.201m0.201 0h0.199m-0.199 0c-14.724-0.096-21.606-10.702-36.401-10.702-14.861 0-21.738 10.702-36.6 10.702-14.862 0-21.738-10.702-36.6-10.702-14.862 0-21.738 10.702-36.6 10.702m146.2-160.54c-0.066 0-0.133 1e-3 -0.2 1e-3m0.2-1e-3c0.067 0 0.134 1e-3 0.2 1e-3m-0.2-1e-3c-14.723-0.095-21.605-10.702-36.4-10.702-14.861 0-21.738 10.703-36.6 10.703-14.862 0-21.738-10.703-36.6-10.703-14.862 0-21.738 10.703-36.6 10.703m146.2 42.809h-0.2m0.2 0h0.2m-0.2 0c-14.723-0.096-21.605-10.702-36.4-10.702-14.861 0-21.738 10.702-36.6 10.702-14.862 0-21.738-10.702-36.6-10.702-14.862 0-21.738 10.702-36.6 10.702m146.2-32.108c-0.066 1e-3 -0.133 1e-3 -0.2 1e-3m0.2-1e-3c0.067 1e-3 0.134 1e-3 0.2 1e-3m-0.2-1e-3c-14.723-0.095-21.605-10.701-36.4-10.701-14.861 0-21.738 10.702-36.6 10.702-14.862 0-21.738-10.702-36.6-10.702-14.862 0-21.738 10.702-36.6 10.702m146.2 42.809c-0.066 1e-3 -0.133 1e-3 -0.2 1e-3m0.2-1e-3c0.067 1e-3 0.134 1e-3 0.2 1e-3m-0.2-1e-3c-14.723-0.095-21.605-10.702-36.4-10.702-14.861 0-21.738 10.703-36.6 10.703-14.862 0-21.738-10.703-36.6-10.703-14.862 0-21.738 10.703-36.6 10.703m146.2-32.108c-0.066 0-0.133 1e-3 -0.2 1e-3m0.2-1e-3c0.067 0 0.134 1e-3 0.2 1e-3m-0.2-1e-3c-14.723-0.095-21.605-10.702-36.4-10.702-14.861 0-21.738 10.703-36.6 10.703-14.862 0-21.738-10.703-36.6-10.703-14.862 0-21.738 10.703-36.6 10.703m146.2 10.701-0.078 1e-3h-0.122m0.2-1e-3c0.067 1e-3 0.134 1e-3 0.2 1e-3m-0.2-1e-3c-14.723-0.095-21.605-10.701-36.4-10.701-14.861 0-21.738 10.702-36.6 10.702-14.862 0-21.738-10.702-36.6-10.702-14.862 0-21.738 10.702-36.6 10.702m146.2-224.75c-0.066 1e-3 -0.133 1e-3 -0.2 1e-3m0.2-1e-3c0.067 1e-3 0.134 1e-3 0.2 1e-3m-0.2-1e-3c-14.723-0.095-21.605-10.702-36.4-10.702-14.861 0-21.738 10.703-36.6 10.703s-21.738-10.703-36.6-10.703c-14.862 0-21.738 10.703-36.6 10.703m146.2 42.809c-0.066 0-0.133 1e-3 -0.2 1e-3m0.2-1e-3c0.067 0 0.134 1e-3 0.2 1e-3m-0.2-1e-3c-14.723-0.095-21.605-10.702-36.4-10.702-14.861 0-21.738 10.703-36.6 10.703s-21.738-10.703-36.6-10.703c-14.862 0-21.738 10.703-36.6 10.703m146.2-32.108h-0.2m0.2 0h0.2m-0.2 0c-14.723-0.096-21.605-10.702-36.4-10.702-14.861 0-21.738 10.702-36.6 10.702s-21.738-10.702-36.6-10.702c-14.862 0-21.738 10.702-36.6 10.702m146.2 42.809c-0.049 1e-3 -0.099 1e-3 -0.148 1e-3h-0.052m0.2-1e-3c0.037 1e-3 0.074 1e-3 0.111 1e-3h0.089m-0.2-1e-3c-14.723-0.095-21.605-10.701-36.4-10.701-14.861 0-21.738 10.702-36.6 10.702s-21.738-10.702-36.6-10.702c-14.862 0-21.738 10.702-36.6 10.702m146.2-32.108c-0.066 1e-3 -0.133 1e-3 -0.2 1e-3m0.2-1e-3c0.067 1e-3 0.134 1e-3 0.2 1e-3m-0.2-1e-3c-14.723-0.095-21.605-10.702-36.4-10.702-14.861 0-21.738 10.703-36.6 10.703s-21.738-10.703-36.6-10.703c-14.862 0-21.738 10.703-36.6 10.703m146.2 10.702h-0.088-0.112m0.2 0h0.156 0.044m-0.2 0c-14.723-0.096-21.605-10.702-36.4-10.702-14.861 0-21.738 10.702-36.6 10.702s-21.738-10.702-36.6-10.702c-14.862 0-21.738 10.702-36.6 10.702m146.2 224.75h-0.201m0.201 0h0.199m-0.199 0c-14.724-0.096-21.606-10.702-36.401-10.702-14.861 0-21.738 10.702-36.6 10.702s-21.738-10.702-36.6-10.702c-14.862 0-21.738 10.702-36.6 10.702m146.2 42.809c-0.067 1e-3 -0.134 1e-3 -0.201 1e-3m0.201-1e-3c0.066 1e-3 0.133 1e-3 0.199 1e-3m-0.199-1e-3c-14.724-0.095-21.606-10.701-36.401-10.701-14.861 0-21.738 10.702-36.6 10.702s-21.738-10.702-36.6-10.702c-14.862 0-21.738 10.702-36.6 10.702m146.2-32.108c-0.067 1e-3 -0.134 1e-3 -0.201 1e-3m0.201-1e-3c0.066 1e-3 0.133 1e-3 0.199 1e-3m-0.199-1e-3c-14.724-0.095-21.606-10.702-36.401-10.702-14.861 0-21.738 10.703-36.6 10.703s-21.738-10.703-36.6-10.703c-14.862 0-21.738 10.703-36.6 10.703m146.2 42.809h-0.092-0.109m0.201 0h0.199m-0.199 0c-14.724-0.096-21.606-10.702-36.401-10.702-14.861 0-21.738 10.702-36.6 10.702s-21.738-10.702-36.6-10.702c-14.862 0-21.738 10.702-36.6 10.702m146.2-32.107h-0.201m0.201 0h0.199m-0.199 0c-14.724-0.096-21.606-10.702-36.401-10.702-14.861 0-21.738 10.702-36.6 10.702s-21.738-10.702-36.6-10.702c-14.862 0-21.738 10.702-36.6 10.702m146.2 10.702c-0.067 0-0.134 1e-3 -0.201 1e-3m0.201-1e-3c0.066 0 0.133 1e-3 0.199 1e-3m-0.199-1e-3c-14.724-0.095-21.606-10.702-36.401-10.702-14.861 0-21.738 10.703-36.6 10.703s-21.738-10.703-36.6-10.703c-14.862 0-21.738 10.703-36.6 10.703m146.2-160.54c-0.066 1e-3 -0.133 1e-3 -0.2 1e-3m0.2-1e-3c0.067 1e-3 0.134 1e-3 0.2 1e-3m-0.2-1e-3c-14.723-0.095-21.605-10.701-36.4-10.701-14.861 0-21.738 10.702-36.6 10.702-14.862 0-21.738-10.702-36.6-10.702-14.862 0-21.738 10.702-36.6 10.702m146.2 42.809-0.086 1e-3h-0.114m0.2-1e-3c0.067 1e-3 0.134 1e-3 0.2 1e-3m-0.2-1e-3c-14.723-0.095-21.605-10.702-36.4-10.702-14.861 0-21.738 10.703-36.6 10.703-14.862 0-21.738-10.703-36.6-10.703-14.862 0-21.738 10.703-36.6 10.703m146.2-32.108c-0.066 0-0.133 1e-3 -0.2 1e-3m0.2-1e-3c0.067 0 0.134 1e-3 0.2 1e-3m-0.2-1e-3c-14.723-0.096-21.605-10.702-36.4-10.702-14.861 0-21.738 10.703-36.6 10.703-14.862 0-21.738-10.703-36.6-10.703-14.862 0-21.738 10.703-36.6 10.703m146.2 42.809h-0.126-0.074m0.2 0h0.092 0.108m-0.2 0c-14.723-0.096-21.605-10.702-36.4-10.702-14.861 0-21.738 10.702-36.6 10.702-14.862 0-21.738-10.702-36.6-10.702-14.862 0-21.738 10.702-36.6 10.702m146.2-32.108c-0.066 1e-3 -0.133 1e-3 -0.2 1e-3m0.2-1e-3c0.067 1e-3 0.134 1e-3 0.2 1e-3m-0.2-1e-3c-14.723-0.095-21.605-10.701-36.4-10.701-14.861 0-21.738 10.702-36.6 10.702-14.862 0-21.738-10.702-36.6-10.702-14.862 0-21.738 10.702-36.6 10.702m146.2 10.702h-0.2m0.2 0h0.082 0.118m-0.2 0c-14.723-0.096-21.605-10.702-36.4-10.702-14.861 0-21.738 10.702-36.6 10.702-14.862 0-21.738-10.702-36.6-10.702-14.862 0-21.738 10.702-36.6 10.702m292-481.61c14.586-0.1895 21.472-10.7 36.2-10.7 14.861 0 21.738 10.702 36.6 10.702 14.861 0 21.738-10.702 36.6-10.702 14.861 0 21.738 10.702 36.6 10.702m-146-0.0026c-0.133 0.0018-0.266 0.0026-0.4 0.0026m0.4-0.0026c0.132 0.0018 0.265 0.0026 0.399 0.0026m-0.399-0.0026c-14.587-0.1895-21.473-10.7-36.201-10.7-14.861 0-21.738 10.702-36.6 10.702-14.861 0-21.738-10.702-36.6-10.702-14.794 0-21.676 10.606-36.4 10.702m145.8 42.808c14.586-0.19 21.472-10.7 36.2-10.7 14.861 0 21.738 10.703 36.6 10.703 14.861 0 21.738-10.703 36.6-10.703 14.861 0 21.738 10.703 36.6 10.703m-146-3e-3c-0.133 2e-3 -0.266 3e-3 -0.4 3e-3m0.4-3e-3c0.132 2e-3 0.265 3e-3 0.399 3e-3m-0.399-3e-3c-14.587-0.19-21.473-10.7-36.201-10.7-14.861 0-21.738 10.703-36.6 10.703-14.861 0-21.738-10.703-36.6-10.703-14.794 0-21.676 10.607-36.4 10.702m145.8-32.109c14.586-0.1895 21.472-10.7 36.2-10.7 14.861 0 21.738 10.702 36.6 10.702 14.861 0 21.738-10.702 36.6-10.702 14.861 0 21.738 10.702 36.6 10.702m-146-0.0026c-0.133 0.0017-0.266 0.0026-0.4 0.0026m0.4-0.0026c0.132 0.0017 0.265 0.0026 0.399 0.0026m-0.399-0.0026c-14.587-0.1895-21.473-10.7-36.201-10.7-14.861 0-21.738 10.702-36.6 10.702-14.861 0-21.738-10.702-36.6-10.702-14.794 0-21.676 10.606-36.4 10.702m145.8 42.807c14.586-0.189 21.472-10.699 36.2-10.699 14.861 0 21.738 10.702 36.6 10.702 14.861 0 21.738-10.702 36.6-10.702 14.861 0 21.738 10.702 36.6 10.702m-146-3e-3c-0.133 2e-3 -0.266 3e-3 -0.4 3e-3m0.4-3e-3c0.132 2e-3 0.265 3e-3 0.399 3e-3m-0.399-3e-3c-14.587-0.189-21.473-10.699-36.201-10.699-14.861 0-21.738 10.702-36.6 10.702-14.861 0-21.738-10.702-36.6-10.702-14.794 0-21.676 10.606-36.4 10.701m145.8-32.109c14.586-0.1895 21.472-10.7 36.2-10.7 14.861 0 21.738 10.702 36.6 10.702 14.861 0 21.738-10.702 36.6-10.702 14.861 0 21.738 10.702 36.6 10.702m-146-0.0026c-0.133 0.0017-0.266 0.0026-0.4 0.0026m0.4-0.0026c0.132 0.0017 0.265 0.0026 0.399 0.0026m-0.399-0.0026c-14.587-0.1895-21.473-10.7-36.201-10.7-14.861 0-21.738 10.702-36.6 10.702-14.861 0-21.738-10.702-36.6-10.702-14.794 0-21.676 10.606-36.4 10.702m145.8 10.7c14.586-0.1895 21.472-10.7 36.2-10.7 14.861 0 21.738 10.702 36.6 10.702 14.861 0 21.738-10.702 36.6-10.702 14.861 0 21.738 10.702 36.6 10.702m-146-0.0026c-0.133 0.0018-0.266 0.0026-0.4 0.0026m0.4-0.0026c0.132 0.0018 0.265 0.0026 0.399 0.0026m-0.399-0.0026c-14.587-0.1895-21.473-10.7-36.201-10.7-14.861 0-21.738 10.702-36.6 10.702-14.861 0-21.738-10.702-36.6-10.702-14.794 0-21.676 10.606-36.4 10.702m145.8 224.75c14.586-0.19 21.472-10.7 36.2-10.7 14.861 0 21.738 10.702 36.6 10.702 14.861 0 21.738-10.702 36.6-10.702 14.861 0 21.738 10.702 36.6 10.702m-146-2e-3c-0.133 1e-3 -0.266 2e-3 -0.4 2e-3m0.4-2e-3c0.132 1e-3 0.265 2e-3 0.399 2e-3m-0.399-2e-3c-14.587-0.19-21.473-10.7-36.201-10.7-14.861 0-21.738 10.702-36.6 10.702-14.861 0-21.738-10.702-36.6-10.702-14.794 0-21.676 10.606-36.399 10.702m145.8 42.807c14.586-0.189 21.472-10.699 36.2-10.699 14.861 0 21.738 10.702 36.6 10.702 14.861 0 21.738-10.702 36.6-10.702 14.861 0 21.738 10.702 36.6 10.702m-146-3e-3c-0.133 2e-3 -0.266 3e-3 -0.4 3e-3m0.4-3e-3c0.132 2e-3 0.265 3e-3 0.399 3e-3m-0.399-3e-3c-14.587-0.189-21.473-10.699-36.201-10.699-14.861 0-21.738 10.702-36.6 10.702-14.861 0-21.738-10.702-36.6-10.702-14.794 0-21.676 10.606-36.399 10.701m145.8-32.109c14.586-0.189 21.472-10.7 36.2-10.7 14.861 0 21.738 10.703 36.6 10.703 14.861 0 21.738-10.703 36.6-10.703 14.861 0 21.738 10.703 36.6 10.703m-146-3e-3c-0.133 2e-3 -0.266 3e-3 -0.4 3e-3m0.4-3e-3c0.132 2e-3 0.265 3e-3 0.399 3e-3m-0.399-3e-3c-14.587-0.189-21.473-10.7-36.201-10.7-14.861 0-21.738 10.703-36.6 10.703-14.861 0-21.738-10.703-36.6-10.703-14.794 0-21.676 10.607-36.399 10.702m145.8 42.808c14.586-0.19 21.472-10.7 36.2-10.7 14.861 0 21.738 10.702 36.6 10.702 14.861 0 21.738-10.702 36.6-10.702 14.861 0 21.738 10.702 36.6 10.702m-146-2e-3c-0.133 2e-3 -0.266 2e-3 -0.4 2e-3m0.4-2e-3c0.132 2e-3 0.265 2e-3 0.399 2e-3m-0.399-2e-3c-14.587-0.19-21.473-10.7-36.201-10.7-14.861 0-21.738 10.702-36.6 10.702-14.861 0-21.738-10.702-36.6-10.702-14.794 0-21.676 10.606-36.399 10.702m145.8-32.109c14.586-0.19 21.472-10.7 36.2-10.7 14.861 0 21.738 10.702 36.6 10.702 14.861 0 21.738-10.702 36.6-10.702 14.861 0 21.738 10.702 36.6 10.702m-146-2e-3c-0.133 1e-3 -0.266 2e-3 -0.4 2e-3m0.4-2e-3c0.132 1e-3 0.265 2e-3 0.399 2e-3m-0.399-2e-3c-14.587-0.19-21.473-10.7-36.201-10.7-14.861 0-21.738 10.702-36.6 10.702-14.861 0-21.738-10.702-36.6-10.702-14.794 0-21.676 10.606-36.399 10.701m145.8 10.701c14.586-0.19 21.472-10.7 36.2-10.7 14.861 0 21.738 10.703 36.6 10.703 14.861 0 21.738-10.703 36.6-10.703 14.861 0 21.738 10.703 36.6 10.703m-146-3e-3c-0.133 2e-3 -0.266 3e-3 -0.4 3e-3m0.4-3e-3c0.132 2e-3 0.265 3e-3 0.399 3e-3m-0.399-3e-3c-14.587-0.19-21.473-10.7-36.201-10.7-14.861 0-21.738 10.703-36.6 10.703-14.861 0-21.738-10.703-36.6-10.703-14.794 0-21.676 10.606-36.399 10.702m145.8-160.54c14.586-0.189 21.472-10.699 36.2-10.699 14.861 0 21.738 10.702 36.6 10.702 14.861 0 21.738-10.702 36.6-10.702 14.861 0 21.738 10.702 36.6 10.702m-146-3e-3c-0.133 2e-3 -0.266 3e-3 -0.4 3e-3m0.4-3e-3c0.132 2e-3 0.265 3e-3 0.399 3e-3m-0.399-3e-3c-14.587-0.189-21.473-10.699-36.201-10.699-14.861 0-21.738 10.702-36.6 10.702-14.861 0-21.738-10.702-36.6-10.702-14.794 0-21.676 10.606-36.4 10.701m145.8 42.808c14.586-0.189 21.472-10.7 36.2-10.7 14.861 0 21.738 10.703 36.6 10.703 14.861 0 21.738-10.703 36.6-10.703 14.861 0 21.738 10.703 36.6 10.703m-146-3e-3c-0.133 2e-3 -0.266 3e-3 -0.4 3e-3m0.4-3e-3c0.132 2e-3 0.265 3e-3 0.399 3e-3m-0.399-3e-3c-14.587-0.189-21.473-10.7-36.201-10.7-14.861 0-21.738 10.703-36.6 10.703-14.861 0-21.738-10.703-36.6-10.703-14.794 0-21.676 10.607-36.4 10.702m145.8-32.109c14.586-0.19 21.472-10.7 36.2-10.7 14.861 0 21.738 10.702 36.6 10.702 14.861 0 21.738-10.702 36.6-10.702 14.861 0 21.738 10.702 36.6 10.702m-146-2e-3c-0.133 2e-3 -0.266 2e-3 -0.4 2e-3m0.4-2e-3c0.132 2e-3 0.265 2e-3 0.399 2e-3m-0.399-2e-3c-14.587-0.19-21.473-10.7-36.201-10.7-14.861 0-21.738 10.702-36.6 10.702-14.861 0-21.738-10.702-36.6-10.702-14.794 0-21.676 10.606-36.4 10.702m145.8 42.808c14.586-0.19 21.472-10.7 36.2-10.7 14.861 0 21.738 10.702 36.6 10.702 14.861 0 21.738-10.702 36.6-10.702 14.861 0 21.738 10.702 36.6 10.702m-146-2e-3c-0.133 1e-3 -0.266 2e-3 -0.4 2e-3m0.4-2e-3c0.132 1e-3 0.265 2e-3 0.399 2e-3m-0.399-2e-3c-14.587-0.19-21.473-10.7-36.201-10.7-14.861 0-21.738 10.702-36.6 10.702-14.861 0-21.738-10.702-36.6-10.702-14.794 0-21.676 10.606-36.4 10.702m145.8-32.11c14.586-0.189 21.472-10.7 36.2-10.7 14.861 0 21.738 10.703 36.6 10.703 14.861 0 21.738-10.703 36.6-10.703 14.861 0 21.738 10.703 36.6 10.703m-146-3e-3c-0.133 2e-3 -0.266 3e-3 -0.4 3e-3m0.4-3e-3c0.132 2e-3 0.265 3e-3 0.399 3e-3m-0.399-3e-3c-14.587-0.189-21.473-10.7-36.201-10.7-14.861 0-21.738 10.703-36.6 10.703-14.861 0-21.738-10.703-36.6-10.703-14.794 0-21.676 10.607-36.4 10.702m145.8 10.701c14.586-0.19 21.472-10.7 36.2-10.7 14.861 0 21.738 10.702 36.6 10.702 14.861 0 21.738-10.702 36.6-10.702 14.861 0 21.738 10.702 36.6 10.702m-146-2e-3c-0.133 1e-3 -0.266 2e-3 -0.4 2e-3m0.4-2e-3c0.132 1e-3 0.265 2e-3 0.399 2e-3m-0.399-2e-3c-14.587-0.19-21.473-10.7-36.201-10.7-14.861 0-21.738 10.702-36.6 10.702-14.861 0-21.738-10.702-36.6-10.702-14.794 0-21.676 10.606-36.4 10.702m145.8-224.75c14.586-0.18951 21.472-10.7 36.2-10.7 14.861 0 21.738 10.702 36.6 10.702 14.861 0 21.738-10.702 36.6-10.702 14.861 0 21.738 10.702 36.6 10.702m-146-0.00259c-0.133 0.00172-0.266 0.00259-0.4 0.00259m0.4-0.00259c0.132 0.00172 0.265 0.00259 0.399 0.00259m-0.399-0.00259c-14.587-0.18951-21.473-10.7-36.201-10.7-14.861 0-21.738 10.702-36.6 10.702-14.861 0-21.738-10.702-36.6-10.702-14.794 0-21.676 10.606-36.4 10.702m145.8 42.808c14.586-0.1896 21.472-10.7 36.2-10.7 14.861 0 21.738 10.702 36.6 10.702 14.861 0 21.738-10.702 36.6-10.702 14.861 0 21.738 10.702 36.6 10.702m-146-0.0026c-0.133 0.0017-0.266 0.0026-0.4 0.0026m0.4-0.0026c0.132 0.0017 0.265 0.0026 0.399 0.0026m-0.399-0.0026c-14.587-0.1896-21.473-10.7-36.201-10.7-14.861 0-21.738 10.702-36.6 10.702-14.861 0-21.738-10.702-36.6-10.702-14.794 0-21.676 10.606-36.4 10.702m145.8-32.109c14.586-0.18951 21.472-10.7 36.2-10.7 14.861 0 21.738 10.702 36.6 10.702 14.861 0 21.738-10.702 36.6-10.702 14.861 0 21.738 10.702 36.6 10.702m-146-0.0026c-0.133 0.00173-0.266 0.0026-0.4 0.0026m0.4-0.0026c0.132 0.00173 0.265 0.0026 0.399 0.0026m-0.399-0.0026c-14.587-0.18951-21.473-10.7-36.201-10.7-14.861 0-21.738 10.702-36.6 10.702-14.861 0-21.738-10.702-36.6-10.702-14.794 0-21.676 10.606-36.4 10.702m145.8 42.808c14.586-0.1895 21.472-10.7 36.2-10.7 14.861 0 21.738 10.702 36.6 10.702 14.861 0 21.738-10.702 36.6-10.702 14.861 0 21.738 10.702 36.6 10.702m-146-0.0026c-0.133 0.0017-0.266 0.0026-0.4 0.0026m0.4-0.0026c0.132 0.0017 0.265 0.0026 0.399 0.0026m-0.399-0.0026c-14.587-0.1895-21.473-10.7-36.201-10.7-14.861 0-21.738 10.702-36.6 10.702-14.861 0-21.738-10.702-36.6-10.702-14.794 0-21.676 10.606-36.4 10.702m145.8-32.109c14.586-0.1895 21.472-10.7 36.2-10.7 14.861 0 21.738 10.702 36.6 10.702 14.861 0 21.738-10.702 36.6-10.702 14.861 0 21.738 10.702 36.6 10.702m-146-0.0026c-0.133 0.0017-0.266 0.0026-0.4 0.0026m0.4-0.0026c0.132 0.0017 0.265 0.0026 0.399 0.0026m-0.399-0.0026c-14.587-0.1895-21.473-10.7-36.201-10.7-14.861 0-21.738 10.702-36.6 10.702-14.861 0-21.738-10.702-36.6-10.702-14.794 0-21.676 10.606-36.4 10.702m145.8 10.7c14.586-0.1895 21.472-10.7 36.2-10.7 14.861 0 21.738 10.702 36.6 10.702 14.861 0 21.738-10.702 36.6-10.702 14.861 0 21.738 10.702 36.6 10.702m-146-0.0026c-0.133 0.0017-0.266 0.0026-0.4 0.0026m0.4-0.0026c0.132 0.0017 0.265 0.0026 0.399 0.0026m-0.399-0.0026c-14.587-0.1895-21.473-10.7-36.201-10.7-14.861 0-21.738 10.702-36.6 10.702-14.861 0-21.738-10.702-36.6-10.702-14.794 0-21.676 10.606-36.4 10.702m145.8 224.75c14.586-0.189 21.472-10.7 36.2-10.7 14.861 0 21.738 10.703 36.6 10.703 14.861 0 21.738-10.703 36.6-10.703 14.861 0 21.738 10.703 36.6 10.703m-146-3e-3c-0.133 2e-3 -0.266 3e-3 -0.4 3e-3m0.4-3e-3c0.132 2e-3 0.265 3e-3 0.399 3e-3m-0.399-3e-3c-14.587-0.189-21.473-10.7-36.201-10.7-14.861 0-21.738 10.703-36.6 10.703-14.861 0-21.738-10.703-36.6-10.703-14.794 0-21.676 10.607-36.399 10.702m145.8 42.808c14.586-0.19 21.472-10.7 36.2-10.7 14.861 0 21.738 10.702 36.6 10.702 14.861 0 21.738-10.702 36.6-10.702 14.861 0 21.738 10.702 36.6 10.702m-146-2e-3c-0.133 2e-3 -0.266 2e-3 -0.4 2e-3m0.4-2e-3c0.132 2e-3 0.265 2e-3 0.399 2e-3m-0.399-2e-3c-14.587-0.19-21.473-10.7-36.201-10.7-14.861 0-21.738 10.702-36.6 10.702-14.861 0-21.738-10.702-36.6-10.702-14.794 0-21.676 10.606-36.399 10.702m145.8-32.11c14.586-0.189 21.472-10.699 36.2-10.699 14.861 0 21.738 10.702 36.6 10.702 14.861 0 21.738-10.702 36.6-10.702 14.861 0 21.738 10.702 36.6 10.702m-146-3e-3c-0.133 2e-3 -0.266 3e-3 -0.4 3e-3m0.4-3e-3c0.132 2e-3 0.265 3e-3 0.399 3e-3m-0.399-3e-3c-14.587-0.189-21.473-10.699-36.201-10.699-14.861 0-21.738 10.702-36.6 10.702-14.861 0-21.738-10.702-36.6-10.702-14.794 0-21.676 10.606-36.399 10.701m145.8 42.808c14.586-0.189 21.472-10.7 36.2-10.7 14.861 0 21.738 10.703 36.6 10.703 14.861 0 21.738-10.703 36.6-10.703 14.861 0 21.738 10.703 36.6 10.703m-146-3e-3c-0.133 2e-3 -0.266 3e-3 -0.4 3e-3m0.4-3e-3c0.132 2e-3 0.265 3e-3 0.399 3e-3m-0.399-3e-3c-14.587-0.189-21.473-10.7-36.201-10.7-14.861 0-21.738 10.703-36.6 10.703-14.861 0-21.738-10.703-36.6-10.703-14.794 0-21.676 10.607-36.399 10.702m145.8-32.109c14.586-0.19 21.472-10.7 36.2-10.7 14.861 0 21.738 10.703 36.6 10.703 14.861 0 21.738-10.703 36.6-10.703 14.861 0 21.738 10.703 36.6 10.703m-146-3e-3c-0.133 2e-3 -0.266 3e-3 -0.4 3e-3m0.4-3e-3c0.132 2e-3 0.265 3e-3 0.399 3e-3m-0.399-3e-3c-14.587-0.19-21.473-10.7-36.201-10.7-14.861 0-21.738 10.703-36.6 10.703-14.861 0-21.738-10.703-36.6-10.703-14.794 0-21.676 10.606-36.399 10.702m145.8 10.7c14.586-0.189 21.472-10.699 36.2-10.699 14.861 0 21.738 10.702 36.6 10.702 14.861 0 21.738-10.702 36.6-10.702 14.861 0 21.738 10.702 36.6 10.702m-146-3e-3c-0.133 2e-3 -0.266 3e-3 -0.4 3e-3m0.4-3e-3c0.132 2e-3 0.265 3e-3 0.399 3e-3m-0.399-3e-3c-14.587-0.189-21.473-10.699-36.201-10.699-14.861 0-21.738 10.702-36.6 10.702-14.861 0-21.738-10.702-36.6-10.702-14.794 0-21.676 10.606-36.399 10.701m145.8-160.54c14.586-0.19 21.472-10.7 36.2-10.7 14.861 0 21.738 10.702 36.6 10.702 14.861 0 21.738-10.702 36.6-10.702 14.861 0 21.738 10.702 36.6 10.702m-146-2e-3c-0.133 2e-3 -0.266 2e-3 -0.4 2e-3m0.4-2e-3c0.132 2e-3 0.265 2e-3 0.399 2e-3m-0.399-2e-3c-14.587-0.19-21.473-10.7-36.201-10.7-14.861 0-21.738 10.702-36.6 10.702-14.861 0-21.738-10.702-36.6-10.702-14.794 0-21.676 10.606-36.4 10.702m145.8 42.808c14.586-0.19 21.472-10.7 36.2-10.7 14.861 0 21.738 10.702 36.6 10.702 14.861 0 21.738-10.702 36.6-10.702 14.861 0 21.738 10.702 36.6 10.702m-146-2e-3c-0.133 1e-3 -0.266 2e-3 -0.4 2e-3m0.4-2e-3c0.132 1e-3 0.265 2e-3 0.399 2e-3m-0.399-2e-3c-14.587-0.19-21.473-10.7-36.201-10.7-14.861 0-21.738 10.702-36.6 10.702-14.861 0-21.738-10.702-36.6-10.702-14.794 0-21.676 10.606-36.4 10.702m145.8-32.11c14.586-0.189 21.472-10.7 36.2-10.7 14.861 0 21.738 10.703 36.6 10.703 14.861 0 21.738-10.703 36.6-10.703 14.861 0 21.738 10.703 36.6 10.703m-146-3e-3c-0.133 2e-3 -0.266 3e-3 -0.4 3e-3m0.4-3e-3c0.132 2e-3 0.265 3e-3 0.399 3e-3m-0.399-3e-3c-14.587-0.189-21.473-10.7-36.201-10.7-14.861 0-21.738 10.703-36.6 10.703-14.861 0-21.738-10.703-36.6-10.703-14.794 0-21.676 10.607-36.4 10.702m145.8 42.808c14.586-0.19 21.472-10.7 36.2-10.7 14.861 0 21.738 10.703 36.6 10.703 14.861 0 21.738-10.703 36.6-10.703 14.861 0 21.738 10.703 36.6 10.703m-146-3e-3c-0.133 2e-3 -0.266 3e-3 -0.4 3e-3m0.4-3e-3c0.132 2e-3 0.265 3e-3 0.399 3e-3m-0.399-3e-3c-14.587-0.19-21.473-10.7-36.201-10.7-14.861 0-21.738 10.703-36.6 10.703-14.861 0-21.738-10.703-36.6-10.703-14.794 0-21.676 10.607-36.4 10.702m145.8-32.109c14.586-0.19 21.472-10.7 36.2-10.7 14.861 0 21.738 10.702 36.6 10.702 14.861 0 21.738-10.702 36.6-10.702 14.861 0 21.738 10.702 36.6 10.702m-146-2e-3c-0.133 1e-3 -0.266 2e-3 -0.4 2e-3m0.4-2e-3c0.132 1e-3 0.265 2e-3 0.399 2e-3m-0.399-2e-3c-14.587-0.19-21.473-10.7-36.201-10.7-14.861 0-21.738 10.702-36.6 10.702-14.861 0-21.738-10.702-36.6-10.702-14.794 0-21.676 10.606-36.4 10.702m145.8 10.7c14.586-0.189 21.472-10.7 36.2-10.7 14.861 0 21.738 10.703 36.6 10.703 14.861 0 21.738-10.703 36.6-10.703 14.861 0 21.738 10.703 36.6 10.703m-146-3e-3c-0.133 2e-3 -0.266 3e-3 -0.4 3e-3m0.4-3e-3c0.132 2e-3 0.265 3e-3 0.399 3e-3m-0.399-3e-3c-14.587-0.189-21.473-10.7-36.201-10.7-14.861 0-21.738 10.703-36.6 10.703-14.861 0-21.738-10.703-36.6-10.703-14.794 0-21.676 10.607-36.4 10.702m0-96.322c-0.066 4e-4 -0.133 6e-4 -0.2 6e-4m0.2-6e-4c0.067 4e-4 0.134 6e-4 0.2 6e-4m-0.2-6e-4c-14.723-0.0954-21.605-10.702-36.4-10.702-14.861 0-21.738 10.702-36.6 10.702-14.862 0-21.738-10.702-36.6-10.702-14.862 0-21.738 10.702-36.6 10.702m146.2 42.809c-0.066 0-0.133 1e-3 -0.2 1e-3m0.2-1e-3c0.067 0 0.134 1e-3 0.2 1e-3m-0.2-1e-3c-14.723-0.095-21.605-10.702-36.4-10.702-14.861 0-21.738 10.703-36.6 10.703-14.862 0-21.738-10.703-36.6-10.703-14.862 0-21.738 10.703-36.6 10.703m146.2-32.108c-0.066 4e-4 -0.133 7e-4 -0.2 7e-4m0.2-7e-4c0.067 4e-4 0.134 7e-4 0.2 7e-4m-0.2-7e-4c-14.723-0.0954-21.605-10.702-36.4-10.702-14.861 0-21.738 10.702-36.6 10.702-14.862 0-21.738-10.702-36.6-10.702-14.862 0-21.738 10.702-36.6 10.702m146.2 42.809c-0.066 1e-3 -0.133 1e-3 -0.2 1e-3m0.2-1e-3c0.067 1e-3 0.134 1e-3 0.2 1e-3m-0.2-1e-3c-14.723-0.095-21.605-10.701-36.4-10.701-14.861 0-21.738 10.702-36.6 10.702-14.862 0-21.738-10.702-36.6-10.702-14.862 0-21.738 10.702-36.6 10.702m146.2-32.108c-0.066 5e-4 -0.133 7e-4 -0.2 7e-4m0.2-7e-4c0.067 5e-4 0.134 7e-4 0.2 7e-4m-0.2-7e-4c-14.723-0.0953-21.605-10.702-36.4-10.702-14.861 0-21.738 10.702-36.6 10.702-14.862 0-21.738-10.702-36.6-10.702-14.862 0-21.738 10.702-36.6 10.702m146.2 10.702c-0.066 4e-4 -0.133 6e-4 -0.2 6e-4m0.2-6e-4c0.067 4e-4 0.134 6e-4 0.2 6e-4m-0.2-6e-4c-14.723-0.0954-21.605-10.702-36.4-10.702-14.861 0-21.738 10.702-36.6 10.702-14.862 0-21.738-10.702-36.6-10.702-14.862 0-21.738 10.702-36.6 10.702m146.2 224.75h-0.201m0.201 0h0.199m-0.199 0c-14.724-0.096-21.606-10.702-36.401-10.702-14.861 0-21.738 10.702-36.6 10.702-14.862 0-21.738-10.702-36.6-10.702-14.862 0-21.738 10.702-36.6 10.702m146.2 42.809c-0.067 1e-3 -0.134 1e-3 -0.201 1e-3m0.201-1e-3c0.066 1e-3 0.133 1e-3 0.199 1e-3m-0.199-1e-3c-14.724-0.095-21.606-10.701-36.401-10.701-14.861 0-21.738 10.702-36.6 10.702-14.862 0-21.738-10.702-36.6-10.702-14.862 0-21.738 10.702-36.6 10.702m146.2-32.108c-0.067 0-0.134 1e-3 -0.201 1e-3m0.201-1e-3c0.066 0 0.133 1e-3 0.199 1e-3m-0.199-1e-3c-14.724-0.095-21.606-10.702-36.401-10.702-14.861 0-21.738 10.703-36.6 10.703-14.862 0-21.738-10.703-36.6-10.703-14.862 0-21.738 10.703-36.6 10.703m146.2 42.809h-0.201m0.201 0h0.199m-0.199 0c-14.724-0.096-21.606-10.702-36.401-10.702-14.861 0-21.738 10.702-36.6 10.702-14.862 0-21.738-10.702-36.6-10.702-14.862 0-21.738 10.702-36.6 10.702m146.2-32.108c-0.067 1e-3 -0.134 1e-3 -0.201 1e-3m0.201-1e-3c0.066 1e-3 0.133 1e-3 0.199 1e-3m-0.199-1e-3c-14.724-0.095-21.606-10.701-36.401-10.701-14.861 0-21.738 10.702-36.6 10.702-14.862 0-21.738-10.702-36.6-10.702-14.862 0-21.738 10.702-36.6 10.702m146.2 10.702c-0.067 0-0.134 1e-3 -0.201 1e-3m0.201-1e-3c0.066 0 0.133 1e-3 0.199 1e-3m-0.199-1e-3c-14.724-0.096-21.606-10.702-36.401-10.702-14.861 0-21.738 10.703-36.6 10.703-14.862 0-21.738-10.703-36.6-10.703-14.862 0-21.738 10.703-36.6 10.703m146.2-160.54c-0.066 1e-3 -0.133 1e-3 -0.2 1e-3m0.2-1e-3c0.067 1e-3 0.134 1e-3 0.2 1e-3m-0.2-1e-3c-14.723-0.095-21.605-10.701-36.4-10.701-14.861 0-21.738 10.702-36.6 10.702-14.862 0-21.738-10.702-36.6-10.702-14.862 0-21.738 10.702-36.6 10.702m146.2 42.809c-0.066 1e-3 -0.133 1e-3 -0.2 1e-3m0.2-1e-3c0.067 1e-3 0.134 1e-3 0.2 1e-3m-0.2-1e-3c-14.723-0.095-21.605-10.702-36.4-10.702-14.861 0-21.738 10.703-36.6 10.703-14.862 0-21.738-10.703-36.6-10.703-14.862 0-21.738 10.703-36.6 10.703m146.2-32.108h-0.2m0.2 0h0.2m-0.2 0c-14.723-0.096-21.605-10.702-36.4-10.702-14.861 0-21.738 10.702-36.6 10.702-14.862 0-21.738-10.702-36.6-10.702-14.862 0-21.738 10.702-36.6 10.702m146.2 42.81h-0.2m0.2 0h0.2m-0.2 0c-14.723-0.096-21.605-10.702-36.4-10.702-14.861 0-21.738 10.702-36.6 10.702-14.862 0-21.738-10.702-36.6-10.702-14.862 0-21.738 10.702-36.6 10.702m146.2-32.108c-0.066 1e-3 -0.133 1e-3 -0.2 1e-3m0.2-1e-3c0.067 1e-3 0.134 1e-3 0.2 1e-3m-0.2-1e-3c-14.723-0.095-21.605-10.702-36.4-10.702-14.861 0-21.738 10.703-36.6 10.703-14.862 0-21.738-10.703-36.6-10.703-14.862 0-21.738 10.703-36.6 10.703m146.2 10.702h-0.2m0.2 0h0.2m-0.2 0c-14.723-0.096-21.605-10.702-36.4-10.702-14.861 0-21.738 10.702-36.6 10.702-14.862 0-21.738-10.702-36.6-10.702-14.862 0-21.738 10.702-36.6 10.702m146.2-224.75c-0.066 4.3e-4 -0.133 6.4e-4 -0.2 6.4e-4m0.2-6.4e-4c0.067 4.3e-4 0.134 6.4e-4 0.2 6.4e-4m-0.2-6.4e-4c-14.723-0.09539-21.605-10.702-36.4-10.702-14.861 0-21.738 10.702-36.6 10.702s-21.738-10.702-36.6-10.702c-14.862 0-21.738 10.702-36.6 10.702m146.2 42.809c-0.066 4e-4 -0.133 7e-4 -0.2 7e-4m0.2-7e-4c0.067 4e-4 0.134 7e-4 0.2 7e-4m-0.2-7e-4c-14.723-0.0954-21.605-10.702-36.4-10.702-14.861 0-21.738 10.702-36.6 10.702s-21.738-10.702-36.6-10.702c-14.862 0-21.738 10.702-36.6 10.702m146.2-32.108c-0.066 4.3e-4 -0.133 6.5e-4 -0.2 6.5e-4m0.2-6.5e-4c0.067 4.3e-4 0.134 6.5e-4 0.2 6.5e-4m-0.2-6.5e-4c-14.723-0.09539-21.605-10.702-36.4-10.702-14.861 0-21.738 10.702-36.6 10.702s-21.738-10.702-36.6-10.702c-14.862 0-21.738 10.702-36.6 10.702m146.2 42.809c-0.066 5e-4 -0.133 7e-4 -0.2 7e-4m0.2-7e-4c0.067 5e-4 0.134 7e-4 0.2 7e-4m-0.2-7e-4c-14.723-0.0953-21.605-10.702-36.4-10.702-14.861 0-21.738 10.702-36.6 10.702s-21.738-10.702-36.6-10.702c-14.862 0-21.738 10.702-36.6 10.702m146.2-32.108c-0.066 5e-4 -0.133 7e-4 -0.2 7e-4m0.2-7e-4c0.067 5e-4 0.134 7e-4 0.2 7e-4m-0.2-7e-4c-14.723-0.0954-21.605-10.702-36.4-10.702-14.861 0-21.738 10.702-36.6 10.702s-21.738-10.702-36.6-10.702c-14.862 0-21.738 10.702-36.6 10.702m146.2 10.702c-0.066 4e-4 -0.133 6e-4 -0.2 6e-4m0.2-6e-4c0.067 4e-4 0.134 6e-4 0.2 6e-4m-0.2-6e-4c-14.723-0.0954-21.605-10.702-36.4-10.702-14.861 0-21.738 10.702-36.6 10.702s-21.738-10.702-36.6-10.702c-14.862 0-21.738 10.702-36.6 10.702m146.2 224.75h-0.067c-0.045 1e-3 -0.089 1e-3 -0.134 1e-3m0.201-1e-3c0.066 0 0.133 1e-3 0.199 1e-3m-0.199-1e-3c-14.724-0.095-21.606-10.702-36.401-10.702-14.861 0-21.738 10.703-36.6 10.703s-21.738-10.703-36.6-10.703c-14.862 0-21.738 10.703-36.6 10.703m146.2 42.809h-0.201m0.201 0h0.123 0.076m-0.199 0c-14.724-0.096-21.606-10.702-36.401-10.702-14.861 0-21.738 10.702-36.6 10.702s-21.738-10.702-36.6-10.702c-14.862 0-21.738 10.702-36.6 10.702m146.2-32.108c-0.067 1e-3 -0.134 1e-3 -0.201 1e-3m0.201-1e-3c0.066 1e-3 0.133 1e-3 0.199 1e-3m-0.199-1e-3c-14.724-0.095-21.606-10.701-36.401-10.701-14.861 0-21.738 10.702-36.6 10.702s-21.738-10.702-36.6-10.702c-14.862 0-21.738 10.702-36.6 10.702m146.2 42.809c-0.067 1e-3 -0.134 1e-3 -0.201 1e-3m0.201-1e-3c0.066 1e-3 0.133 1e-3 0.199 1e-3m-0.199-1e-3c-14.724-0.095-21.606-10.702-36.401-10.702-14.861 0-21.738 10.703-36.6 10.703s-21.738-10.703-36.6-10.703c-14.862 0-21.738 10.703-36.6 10.703m146.2-32.108c-0.067 0-0.134 1e-3 -0.201 1e-3m0.201-1e-3c0.066 0 0.133 1e-3 0.199 1e-3m-0.199-1e-3c-14.724-0.096-21.606-10.702-36.401-10.702-14.861 0-21.738 10.703-36.6 10.703s-21.738-10.703-36.6-10.703c-14.862 0-21.738 10.703-36.6 10.703m146.2 10.701c-0.067 1e-3 -0.134 1e-3 -0.201 1e-3m0.201-1e-3c0.066 1e-3 0.133 1e-3 0.199 1e-3m-0.199-1e-3c-14.724-0.095-21.606-10.701-36.401-10.701-14.861 0-21.738 10.702-36.6 10.702s-21.738-10.702-36.6-10.702c-14.862 0-21.738 10.702-36.6 10.702m146.2-160.54h-0.2m0.2 0h0.2m-0.2 0c-14.723-0.096-21.605-10.702-36.4-10.702-14.861 0-21.738 10.702-36.6 10.702-14.862 0-21.738-10.702-36.6-10.702-14.862 0-21.738 10.702-36.6 10.702m146.2 42.81h-0.2m0.2 0h0.2m-0.2 0c-14.723-0.096-21.605-10.702-36.4-10.702-14.861 0-21.738 10.702-36.6 10.702-14.862 0-21.738-10.702-36.6-10.702-14.862 0-21.738 10.702-36.6 10.702m146.2-32.108c-0.066 1e-3 -0.133 1e-3 -0.2 1e-3m0.2-1e-3c0.067 1e-3 0.134 1e-3 0.2 1e-3m-0.2-1e-3c-14.723-0.095-21.605-10.702-36.4-10.702-14.861 0-21.738 10.703-36.6 10.703-14.862 0-21.738-10.703-36.6-10.703-14.862 0-21.738 10.703-36.6 10.703m146.2 42.809c-0.066 0-0.133 1e-3 -0.2 1e-3m0.2-1e-3c0.067 0 0.134 1e-3 0.2 1e-3m-0.2-1e-3c-14.723-0.095-21.605-10.702-36.4-10.702-14.861 0-21.738 10.703-36.6 10.703-14.862 0-21.738-10.703-36.6-10.703-14.862 0-21.738 10.703-36.6 10.703m146.2-32.108h-0.2m0.2 0h0.2m-0.2 0c-14.723-0.096-21.605-10.702-36.4-10.702-14.861 0-21.738 10.702-36.6 10.702-14.862 0-21.738-10.702-36.6-10.702-14.862 0-21.738 10.702-36.6 10.702m146.2 10.702c-0.066 1e-3 -0.133 1e-3 -0.2 1e-3m0.2-1e-3c0.067 1e-3 0.134 1e-3 0.2 1e-3m-0.2-1e-3c-14.723-0.095-21.605-10.702-36.4-10.702-14.861 0-21.738 10.703-36.6 10.703-14.862 0-21.738-10.703-36.6-10.703-14.862 0-21.738 10.703-36.6 10.703m292 674.25c14.586-0.19 21.472-10.7 36.2-10.7 14.861 0 21.738 10.702 36.6 10.702 14.861 0 21.738-10.702 36.6-10.702 14.861 0 21.738 10.702 36.6 10.702m-146-2e-3c-0.133 1e-3 -0.266 2e-3 -0.4 2e-3m0.4-2e-3c0.132 1e-3 0.265 2e-3 0.399 2e-3m-0.399-2e-3c-14.587-0.19-21.473-10.7-36.201-10.7-14.861 0-21.738 10.702-36.6 10.702-14.861 0-21.738-10.702-36.6-10.702-14.794 0-21.676 10.606-36.4 10.701m145.8 42.808c14.586-0.189 21.472-10.7 36.2-10.7 14.861 0 21.738 10.703 36.6 10.703 14.861 0 21.738-10.703 36.6-10.703 14.861 0 21.738 10.703 36.6 10.703m-146-3e-3c-0.133 2e-3 -0.266 3e-3 -0.4 3e-3m0.4-3e-3c0.132 2e-3 0.265 3e-3 0.399 3e-3m-0.399-3e-3c-14.587-0.189-21.473-10.7-36.201-10.7-14.861 0-21.738 10.703-36.6 10.703-14.861 0-21.738-10.703-36.6-10.703-14.794 0-21.676 10.607-36.4 10.702m145.8-32.109c14.586-0.19 21.472-10.7 36.2-10.7 14.861 0 21.738 10.703 36.6 10.703 14.861 0 21.738-10.703 36.6-10.703 14.861 0 21.738 10.703 36.6 10.703m-146-3e-3c-0.133 2e-3 -0.266 3e-3 -0.4 3e-3m0.4-3e-3c0.132 2e-3 0.265 3e-3 0.399 3e-3m-0.399-3e-3c-14.587-0.19-21.473-10.7-36.201-10.7-14.861 0-21.738 10.703-36.6 10.703-14.861 0-21.738-10.703-36.6-10.703-14.794 0-21.676 10.607-36.4 10.702m145.8 42.808c14.586-0.19 21.472-10.7 36.2-10.7 14.861 0 21.738 10.702 36.6 10.702 14.861 0 21.738-10.702 36.6-10.702 14.861 0 21.738 10.702 36.6 10.702m-146-2e-3c-0.133 1e-3 -0.266 2e-3 -0.4 2e-3m0.4-2e-3c0.132 1e-3 0.265 2e-3 0.399 2e-3m-0.399-2e-3c-14.587-0.19-21.473-10.7-36.201-10.7-14.861 0-21.738 10.702-36.6 10.702-14.861 0-21.738-10.702-36.6-10.702-14.794 0-21.676 10.606-36.4 10.702m145.8-32.11c14.586-0.189 21.472-10.699 36.2-10.699 14.861 0 21.738 10.702 36.6 10.702 14.861 0 21.738-10.702 36.6-10.702 14.861 0 21.738 10.702 36.6 10.702m-146-3e-3c-0.133 2e-3 -0.266 3e-3 -0.4 3e-3m0.4-3e-3c0.132 2e-3 0.265 3e-3 0.399 3e-3m-0.399-3e-3c-14.587-0.189-21.473-10.699-36.201-10.699-14.861 0-21.738 10.702-36.6 10.702-14.861 0-21.738-10.702-36.6-10.702-14.794 0-21.676 10.606-36.4 10.701m145.8 10.701c14.586-0.19 21.472-10.7 36.2-10.7 14.861 0 21.738 10.702 36.6 10.702 14.861 0 21.738-10.702 36.6-10.702 14.861 0 21.738 10.702 36.6 10.702m-146-2e-3c-0.133 2e-3 -0.266 2e-3 -0.4 2e-3m0.4-2e-3c0.132 2e-3 0.265 2e-3 0.399 2e-3m-0.399-2e-3c-14.587-0.19-21.473-10.7-36.201-10.7-14.861 0-21.738 10.702-36.6 10.702-14.861 0-21.738-10.702-36.6-10.702-14.794 0-21.676 10.606-36.4 10.702m145.8-96.324c14.586-0.19 21.472-10.7 36.2-10.7 14.861 0 21.738 10.703 36.6 10.703 14.861 0 21.738-10.703 36.6-10.703 14.861 0 21.738 10.703 36.6 10.703m-146-3e-3c-0.133 2e-3 -0.266 3e-3 -0.4 3e-3m0.4-3e-3c0.132 2e-3 0.265 3e-3 0.399 3e-3m-0.399-3e-3c-14.587-0.19-21.473-10.7-36.201-10.7-14.861 0-21.738 10.703-36.6 10.703-14.861 0-21.738-10.703-36.6-10.703-14.794 0-21.676 10.606-36.4 10.702m145.8 42.808c14.586-0.19 21.472-10.7 36.2-10.7 14.861 0 21.738 10.702 36.6 10.702 14.861 0 21.738-10.702 36.6-10.702 14.861 0 21.738 10.702 36.6 10.702m-146-2e-3c-0.133 1e-3 -0.266 2e-3 -0.4 2e-3m0.4-2e-3c0.132 1e-3 0.265 2e-3 0.399 2e-3m-0.399-2e-3c-14.587-0.19-21.473-10.7-36.201-10.7-14.861 0-21.738 10.702-36.6 10.702-14.861 0-21.738-10.702-36.6-10.702-14.794 0-21.676 10.606-36.4 10.702m145.8-32.11c14.586-0.189 21.472-10.699 36.2-10.699 14.861 0 21.738 10.702 36.6 10.702 14.861 0 21.738-10.702 36.6-10.702 14.861 0 21.738 10.702 36.6 10.702m-146-3e-3c-0.133 2e-3 -0.266 3e-3 -0.4 3e-3m0.4-3e-3c0.132 2e-3 0.265 3e-3 0.399 3e-3m-0.399-3e-3c-14.587-0.189-21.473-10.699-36.201-10.699-14.861 0-21.738 10.702-36.6 10.702-14.861 0-21.738-10.702-36.6-10.702-14.794 0-21.676 10.606-36.4 10.701m145.8 42.808c14.586-0.189 21.472-10.7 36.2-10.7 14.861 0 21.738 10.703 36.6 10.703 14.861 0 21.738-10.703 36.6-10.703 14.861 0 21.738 10.703 36.6 10.703m-146-3e-3c-0.133 2e-3 -0.266 3e-3 -0.4 3e-3m0.4-3e-3c0.132 2e-3 0.265 3e-3 0.399 3e-3m-0.399-3e-3c-14.587-0.189-21.473-10.7-36.201-10.7-14.861 0-21.738 10.703-36.6 10.703-14.861 0-21.738-10.703-36.6-10.703-14.794 0-21.676 10.607-36.4 10.702m145.8-32.109c14.586-0.19 21.472-10.7 36.2-10.7 14.861 0 21.738 10.702 36.6 10.702 14.861 0 21.738-10.702 36.6-10.702 14.861 0 21.738 10.702 36.6 10.702m-146-2e-3c-0.133 2e-3 -0.266 2e-3 -0.4 2e-3m0.4-2e-3c0.132 2e-3 0.265 2e-3 0.399 2e-3m-0.399-2e-3c-14.587-0.19-21.473-10.7-36.201-10.7-14.861 0-21.738 10.702-36.6 10.702-14.861 0-21.738-10.702-36.6-10.702-14.794 0-21.676 10.606-36.4 10.702m145.8 10.7c14.586-0.189 21.472-10.7 36.2-10.7 14.861 0 21.738 10.703 36.6 10.703 14.861 0 21.738-10.703 36.6-10.703 14.861 0 21.738 10.703 36.6 10.703m-146-3e-3c-0.133 2e-3 -0.266 3e-3 -0.4 3e-3m0.4-3e-3c0.132 2e-3 0.265 3e-3 0.399 3e-3m-0.399-3e-3c-14.587-0.189-21.473-10.7-36.201-10.7-14.861 0-21.738 10.703-36.6 10.703-14.861 0-21.738-10.703-36.6-10.703-14.794 0-21.676 10.607-36.4 10.702m145.8 96.32c14.586-0.189 21.472-10.7 36.2-10.7 14.861 0 21.738 10.703 36.6 10.703 14.861 0 21.738-10.703 36.6-10.703 14.861 0 21.738 10.703 36.6 10.703m-146-3e-3c-0.133 2e-3 -0.266 3e-3 -0.4 3e-3m0.4-3e-3c0.132 2e-3 0.265 3e-3 0.399 3e-3m-0.399-3e-3c-14.587-0.189-21.473-10.7-36.201-10.7-14.861 0-21.738 10.703-36.6 10.703-14.861 0-21.738-10.703-36.6-10.703-14.794 0-21.676 10.607-36.4 10.702m0-64.215c-0.066 1e-3 -0.133 1e-3 -0.2 1e-3m0.2-1e-3c0.067 1e-3 0.134 1e-3 0.2 1e-3m-0.2-1e-3c-14.723-0.095-21.605-10.701-36.4-10.701-14.861 0-21.738 10.702-36.6 10.702-14.862 0-21.738-10.702-36.6-10.702-14.862 0-21.738 10.702-36.6 10.702m146.2 42.809c-0.066 1e-3 -0.133 1e-3 -0.2 1e-3m0.2-1e-3c0.067 1e-3 0.134 1e-3 0.2 1e-3m-0.2-1e-3c-14.723-0.095-21.605-10.702-36.4-10.702-14.861 0-21.738 10.703-36.6 10.703-14.862 0-21.738-10.703-36.6-10.703-14.862 0-21.738 10.703-36.6 10.703m146.2-32.108c-0.066 0-0.133 1e-3 -0.2 1e-3m0.2-1e-3c0.067 0 0.134 1e-3 0.2 1e-3m-0.2-1e-3c-14.723-0.095-21.605-10.702-36.4-10.702-14.861 0-21.738 10.703-36.6 10.703-14.862 0-21.738-10.703-36.6-10.703-14.862 0-21.738 10.703-36.6 10.703m146.2 42.809h-0.2m0.2 0h0.2m-0.2 0c-14.723-0.096-21.605-10.702-36.4-10.702-14.861 0-21.738 10.702-36.6 10.702-14.862 0-21.738-10.702-36.6-10.702-14.862 0-21.738 10.702-36.6 10.702m146.2-32.108c-0.066 1e-3 -0.133 1e-3 -0.2 1e-3m0.2-1e-3c0.067 1e-3 0.134 1e-3 0.2 1e-3m-0.2-1e-3c-14.723-0.095-21.605-10.701-36.4-10.701-14.861 0-21.738 10.702-36.6 10.702-14.862 0-21.738-10.702-36.6-10.702-14.862 0-21.738 10.702-36.6 10.702m146.2 10.702h-0.2m0.2 0h0.2m-0.2 0c-14.723-0.096-21.605-10.702-36.4-10.702-14.861 0-21.738 10.702-36.6 10.702-14.862 0-21.738-10.702-36.6-10.702-14.862 0-21.738 10.702-36.6 10.702m146.2-96.322c-0.066 0-0.133 1e-3 -0.2 1e-3m0.2-1e-3c0.067 0 0.134 1e-3 0.2 1e-3m-0.2-1e-3c-14.723-0.096-21.605-10.702-36.4-10.702-14.861 0-21.738 10.703-36.6 10.703s-21.738-10.703-36.6-10.703c-14.862 0-21.738 10.703-36.6 10.703m146.2 42.809h-0.2m0.2 0h0.2m-0.2 0c-14.723-0.096-21.605-10.702-36.4-10.702-14.861 0-21.738 10.702-36.6 10.702s-21.738-10.702-36.6-10.702c-14.862 0-21.738 10.702-36.6 10.702m146.2-32.108c-0.066 1e-3 -0.133 1e-3 -0.2 1e-3m0.2-1e-3c0.067 1e-3 0.134 1e-3 0.2 1e-3m-0.2-1e-3c-14.723-0.095-21.605-10.701-36.4-10.701-14.861 0-21.738 10.702-36.6 10.702s-21.738-10.702-36.6-10.702c-14.862 0-21.738 10.702-36.6 10.702m146.2 42.809c-0.066 1e-3 -0.133 1e-3 -0.2 1e-3m0.2-1e-3c0.067 1e-3 0.134 1e-3 0.2 1e-3m-0.2-1e-3c-14.723-0.095-21.605-10.702-36.4-10.702-14.861 0-21.738 10.703-36.6 10.703s-21.738-10.703-36.6-10.703c-14.862 0-21.738 10.703-36.6 10.703m146.2-32.108h-0.2m0.2 0h0.2m-0.2 0c-14.723-0.096-21.605-10.702-36.4-10.702-14.861 0-21.738 10.702-36.6 10.702s-21.738-10.702-36.6-10.702c-14.862 0-21.738 10.702-36.6 10.702m146.2 10.702c-0.066 1e-3 -0.133 1e-3 -0.2 1e-3m0.2-1e-3c0.067 1e-3 0.134 1e-3 0.2 1e-3m-0.2-1e-3c-14.723-0.095-21.605-10.702-36.4-10.702-14.861 0-21.738 10.703-36.6 10.703s-21.738-10.703-36.6-10.703c-14.862 0-21.738 10.703-36.6 10.703m146.2 96.321c-0.066 1e-3 -0.133 1e-3 -0.2 1e-3m0.2-1e-3c0.067 1e-3 0.134 1e-3 0.2 1e-3m-0.2-1e-3c-14.723-0.095-21.605-10.702-36.4-10.702-14.861 0-21.738 10.703-36.6 10.703-14.862 0-21.738-10.703-36.6-10.703-14.862 0-21.738 10.703-36.6 10.703" opacity=".5" stroke="#76BA53" stroke-miterlimit="16" stroke-width="2"/>
</g>
<defs>
<clipPath id="a">
<rect transform="translate(.39844 .19678)" width="437" height="884" fill="#fff"/>
</clipPath>
</defs>
</svg>
