<svg fill="none" viewBox="0 0 438 885" xmlns="http://www.w3.org/2000/svg">
<g clip-path="url(#a)">
<path d="m435.86 11.804c-7.952-14.98-19.491-26.853-33.655-33.395-41.774-19.293-65.557-2.3634-64.838 25.929 0.506 19.897 30.029 33.252 44.077 33.234 19.231-0.0246 39.123-8.1665 54.416-25.768zm0 0c14.562 27.43 17.1 65.276 1.717 99.879m-1.717-99.879c8.36-9.6217 15.346-22.07 20.097-37.564m-18.38 137.44c-3.026 6.807-6.746 13.488-11.204 19.94-20.221 29.266-56.94 36.51-86.062 23.017-29.694-13.758-48.867-50.448-5.885-70.457 35.98-16.749 80.147-2.0729 103.15 27.5zm0 0c4.916 6.319 8.866 13.319 11.563 20.838 9.867 27.51 6.081 68.141-40.952 88.599-22.095 9.611-55.884 5.199-85.653 7.053m0 0c-18.282 1.139-35.047 4.64-46.656 15.203-26.648 24.247 7.97 53.145 31.788 34.096 15.27-12.212 19.279-30.894 14.868-49.299zm0 0c-7.165-29.898-36.547-59.067-75.962-58.587-29.437 0.358-53.672 23.238-66.234 45.831m0 0c-7.039 12.66-10.414 25.23-8.984 33.695 3.07 18.184 24.961 20.286 32.739 14.669 14.828-10.709 4.937-38.602-15.262-46.733-2.638-1.062-5.496-1.583-8.493-1.631zm0 0c-26.926-0.43-65.017 37.4-54.961 65.262 0.28 0.776 0.564 1.542 0.852 2.294m0 0c4.746 12.381 10.813 21.44 25.19 24.323 28.756 5.767 27.876-18.908 9.424-28.305-12.164-6.195-24.478-3.103-34.614 3.982zm0 0c-11.966 8.366-20.896 22.298-22.963 33.09-4.3143 22.533 67.754 8.223 69.263 54.321 0.646 19.724-12.589 39.941-34.55 52.852m0 0c-17.618 10.358-40.851 16.014-67.039 12.944-40.383-4.734-50.545-45.509-15.781-57.262 40.263-13.613 80.696 9.138 82.82 44.318zm0 0c0.666 11.035-2.437 23.293-10.497 36.035-21.731 34.356-110.05 35.165-134.21 31.77-14.516-2.04-61.096-24.796-37.126-59.487 20.236-29.287 0.779-45.125 3.8229-68.313 5.3019-40.391 73.464-55.552 74.869-114.14 0.746-31.093-41.565-61.543-84.537-39.966-1.6567 0.832-3.4155 1.873-5.2174 3.11m0 0c-12.44 8.541-26.935 26.435-24.079 49.443 3.5614 28.692 51.419 18.765 44.476-13.599-3.6751-17.129-11.197-28.159-20.397-35.844zm0 0c-9.7567-8.15-21.4-12.536-32.343-16.443-29.759-10.624-76.903-5.455-105.98-2.211-14.382 1.605-70.712-5.243-19.598-45.065 71.786-55.926 24.206-101.6 121.35-96.647 12.164 0.6197 32.643 5.4623 50.766 16.373m0 0c3.8093 2.2932 7.5145 4.8546 11.016 7.7011m-11.016-7.7011c-12.944 20.888-27.706 37.519-38.075 47.618-44.856 43.683-74.667 26.928-117.12 31.869-29.405 3.421 68.444 36.28 80.748 32.058 32.554-11.17 66.346-74.576 85.468-103.84m-11.016-7.7011c28.703-46.319 48.465-113.57-8.4403-176.91m19.457 184.61c15.116 12.287 26.447 29.888 26.022 54.181-0.6676 38.196 77.252 68.288 124.08 66.37 45.213-1.852 67.46-22.274 74.122-46.801m-224.22-73.75c4.2852-6.559 7.8337-11.404 10.466-13.562 16.236-13.308 40.739 0.8345 52.445-10.466 12.912-12.464 6.6125-51.075 22.61-58.671 31.323-14.872 66.82 7.0884 79.723-0.30365 10.339-5.9231 13.453-18.342 1.427-29.141-17.241-15.482-67.861-21.208-88.774-30.598-48.262-21.669-122.96-125.98-14.843-196.26 63.817-41.482 143.83 8.36 144.41 64.789m16.757 347.96c4.587-16.89 1.784-35.728-6-51.788-33.102-68.297-90.141-61.336-111.37-30.609-25.364 36.708 33.494 76.191 66.249 82.376 11.079 2.092 30.017 2.975 51.124 0.021zm0 0c49.1-6.873 109.94-34.513 110.88-116.02 0.457-39.594-18.122-70.262-40.513-92.505m0 0c-26.273-26.1-57.795-40.6-69.973-44.308-50.88-15.492-102.61 28.912-6.395 71.305 29.656 13.067 64.947 2.9092 76.368-26.998zm0 0c6.531-17.1 5.258-40.656-9.334-70.019-6.445-12.97-29.743-57.818-77.787-69.419m0 0c-1.567-0.378-3.16-0.722-4.781-1.027-55.916-10.541-100.47-38.764-131.78-36.769-61.973 3.949-70.296 101.74 12.572 120.57 71.781 16.316 97.567-22.189 114.31-49.237 6.811-11.002 9.791-22.399 9.675-33.54zm-233.89 1029.3c7.9523 14.98 19.491 26.853 33.655 33.395 41.773 19.293 65.557 2.364 64.838-25.928-0.5055-19.897-30.028-33.252-44.076-33.234-19.231 0.024-39.123 8.166-54.417 25.767zm0 0c-14.562-27.43-17.099-65.277-1.7156-99.879m1.7156 99.879c-8.36 9.621-15.346 22.07-20.097 37.564m18.382-137.44c3.0262-6.807 6.7459-13.488 11.204-19.94 20.222-29.266 56.941-36.509 86.063-23.016 29.694 13.758 48.866 50.448 5.8836 70.457-35.98 16.749-80.146 2.072-103.15-27.501zm0 0c-4.916-6.32-8.8655-13.32-11.562-20.839-9.8667-27.509-6.0807-68.14 40.953-88.598 22.095-9.61 55.884-5.199 85.652-7.052m0 0c18.282-1.138 35.047-4.64 46.657-15.203 26.648-24.247-7.9694-53.145-31.788-34.096-15.27 12.212-19.279 30.894-14.869 49.299zm0 0c7.1645 29.899 36.547 59.067 75.962 58.588 29.437-0.358 53.672-23.238 66.234-45.83m0 0c7.04-12.66 10.414-25.23 8.985-33.696-3.07-18.184-24.961-20.286-32.739-14.669-14.828 10.709-4.937 38.602 15.261 46.733 2.638 1.062 5.497 1.584 8.493 1.632zm0 0c26.926 0.43 65.018-37.4 54.962-65.262-0.28-0.776-0.564-1.541-0.852-2.294m0 0c-4.745-12.381-10.813-21.44-25.19-24.323-28.756-5.767-27.876 18.908-9.424 28.305 12.165 6.195 24.478 3.103 34.614-3.982zm0 0c11.966-8.365 20.897-22.298 22.963-33.09 4.315-22.532-67.754-8.224-69.262-54.321-0.646-19.724 12.589-39.941 34.551-52.852m0 0c17.617-10.358 40.851-16.014 67.039-12.944 40.383 4.735 50.545 45.51 15.78 57.263-40.262 13.612-80.696-9.139-82.819-44.319zm0 0c-0.666-11.035 2.437-23.293 10.497-36.035 21.732-34.356 110.05-35.164 134.21-31.768 14.516 2.04 61.096 24.797 37.125 59.487-20.237 29.287-0.78 45.125-3.824 68.313-5.302 40.391-73.464 55.551-74.87 114.14-0.746 31.093 41.564 61.544 84.537 39.967 1.657-0.832 3.415-1.873 5.217-3.11m0 0c12.44-8.541 26.935-26.435 24.08-49.443-3.561-28.691-51.419-18.765-44.476 13.599 3.675 17.129 11.197 28.159 20.396 35.844zm0 0c9.757 8.15 21.4 12.536 32.343 16.443 29.758 10.625 76.902 5.457 105.98 2.212 14.382-1.604 70.712 5.245 19.598 45.066-71.787 55.925-24.208 101.6-121.35 96.646-12.164-0.62-32.643-5.463-50.766-16.374m0 0c-3.809-2.293-7.514-4.854-11.016-7.701m11.016 7.701c12.944-20.887 27.706-37.519 38.076-47.617 44.856-43.683 74.667-26.928 117.12-31.868 29.404-3.421-68.444-36.281-80.747-32.06-32.555 11.17-66.347 74.576-85.469 103.84m11.016 7.701c-28.704 46.319-48.466 113.57 8.438 176.91m-19.454-184.61c-15.117-12.287-26.447-29.888-26.022-54.181 0.668-38.197-77.251-68.289-124.08-66.372-45.212 1.852-67.46 22.273-74.122 46.8m224.22 73.753c-4.286 6.559-7.834 11.404-10.467 13.562-16.236 13.307-40.739-0.835-52.445 10.464-12.912 12.465-6.613 51.076-22.61 58.671-31.324 14.871-66.82-7.089-79.723 0.303-10.339 5.923-13.453 18.341-1.427 29.141 17.241 15.482 67.861 21.209 88.773 30.598 48.262 21.67 122.96 125.98 14.841 196.26-63.817 41.48-143.83-8.36-144.41-64.79m-16.753-347.96c-4.588 16.891-1.784 35.728 6 51.789 33.101 68.297 90.14 61.337 111.37 30.61 25.364-36.709-33.493-76.192-66.248-82.377-11.079-2.092-30.017-2.976-51.124-0.022zm0 0c-49.1 6.872-109.94 34.512-110.88 116.02-0.4575 39.594 18.121 70.262 40.511 92.506m0 0c26.273 26.1 57.796 40.6 69.974 44.308 50.879 15.493 102.61-28.911 6.395-71.305-29.656-13.067-64.947-2.91-76.369 26.997zm0 0c-6.53 17.1-5.258 40.656 9.333 70.018 6.446 12.971 29.743 57.82 77.787 69.42m0 0c1.567 0.38 3.161 0.72 4.781 1.03 55.915 10.54 100.47 38.76 131.78 36.77 61.974-3.95 70.297-101.74-12.571-120.58-71.781-16.317-97.567 22.188-114.31 49.235-6.812 11-9.792 22.4-9.676 33.54z" opacity=".5" stroke="#ECAD0A" stroke-linecap="round" stroke-width="2"/>
</g>
<defs>
<clipPath id="a">
<rect transform="translate(.23047 .19678)" width="437" height="884" fill="#fff"/>
</clipPath>
</defs>
</svg>
