<svg fill="none" viewBox="0 0 391 268" xmlns="http://www.w3.org/2000/svg">
<path d="m111.27 1.4306c-11.664-1.1e-4 -75.954 1.5458-106.87 0-7.294-0.36456-15.239 13.915-15.239 24.516 0 13.252 2.8172 39.367 2.8163 55.089-4.2e-4 7.757-5.8187 60.318-2.8163 68.817 3.2393 9.17 0 98.728 0 106.02 0 7.289 16.838-1.604 27.577 1.813 9.3862 2.986 21.178-0.175 29.044 1.708 10.251 2.455 61.748 2.455 63.736 2.455 1.987 0 100.25 0.477 111.87 3.265 12.319 2.956 80.227 2.604 88.799 0 6.527-1.983 62.253 1.361 69.542 2.024 7.288 0.662 16.833-2.801 20.327-7.106 3.735-4.602-1.406-22.731-1.406-35.321 0-12.589-5.581-46.789 0-65.577 3.208-10.798 1.185-83.392 2.51-97.307 1.326-13.915 2.791-51.118-2.51-55.756-5.301-4.6377-15.902 6.6e-4 -32.467 6.6e-4 -13.252 0-39.019-3.5195-54.028-2.644-26.504 1.5459-70.834 3.7103-83.025 1.2e-4 -15.24-4.6377-39.664 1.9294-50.308-1.2e-4 -9.335-1.6922-52.966-1.9935-67.546-1.9936z" fill="#D9D9D9" stroke="#000"/>
</svg>
