<svg fill="none" viewBox="0 0 245 110" xmlns="http://www.w3.org/2000/svg">
<path d="m26.074 10.285-0.4967-0.86793 0.4967 0.86793zm-20.76 25.796-0.93662-0.3504 0.93662 0.3504zm-1.0685 33.876-0.97329 0.2296 0.97329-0.2296zm3.4737 10.62-0.87082 0.4916 0.87082-0.4916zm5.5324 6.9635 0.7086-0.7056-0.7086 0.7056zm13.564 11.518-0.4295 0.903 0.4295-0.903zm9.4205 4.4236-0.4389 0.898 0.4389-0.898zm4.7539 1.598 0.1109-0.994-0.1109 0.994zm4.5794 1.248-0.5898 0.808 0.5898-0.808zm4.3831 0.723-0.0999 0.995 0.0999-0.995zm6.9999 0.767-0.0218 0.999 0.0218-0.999zm41.607-3.723 0.386 0.922-0.386-0.922zm7.763-5.5621 0.593 0.8055-0.593-0.8055zm15.287-14.956 0.823 0.5676-0.823-0.5676zm0.676-49.204-0.871 0.4924 0.871-0.4924zm-4.493-11.212-0.741 0.6711 0.741-0.6711zm-7.457-6 0.577-0.8167-0.577 0.8167zm-7.851-6-0.356 0.9345 0.356-0.9345zm-5.6913-2.6934-0.4076 0.91318 0.4076-0.91318zm-8.3084-2.5182-0.3637 0.93149 0.3637-0.93149zm-7.4796-2.562 0.1245-0.99221-0.1245 0.99221zm-5.3427-0.32847-0.2237 0.97466 0.2237-0.97466zm3.5887 79.267 0.3006 0.9538-0.3006-0.9538zm7.7953-2.7974 0.4944 0.8692-0.4944-0.8692zm11.034-13.626-0.9359-0.3523 0.9359 0.3523zm0.5679-17.894 0.973-0.231-0.973 0.231zm-1.8464-5.6099 0.8695-0.4939-0.8695 0.4939zm-2.9406-3.6783 0.7064-0.7078-0.7064 0.7078zm-7.2094-6.0841 0.4274-0.9041-0.4274 0.9041zm-5.0072-2.3365 0.4368-0.8996-0.4368 0.8996zm-2.5267-0.8444 0.1102-0.9939-0.1102 0.9939zm-2.4341-0.6593 0.5874-0.8093-0.5874 0.8093zm-2.3297-0.3817-0.0993 0.9951 0.0993-0.9951zm-3.7206-0.4048 0.0217-0.9998-0.0217 0.9998zm-22.115 1.9663-0.3839-0.9233 0.3839 0.9233zm-4.1263 2.938 0.5901 0.8073-0.5901-0.8073zm-3.8597 2.6025-0.7063-0.7078 0.7063 0.7078zm-4.2653 5.2976 0.8216 0.57-0.8216-0.57zm-0.3593 25.991 0.869-0.4947-0.869 0.4947zm2.3876 5.9222-0.7392 0.6735 0.7392-0.6735zm3.9641 3.1693-0.5747 0.8184 0.5747-0.8184zm4.1726 3.1693-0.354 0.9353 0.354-0.9353zm3.0252 1.4228 0.4054-0.9142-0.4054 0.9142zm4.416 1.3301-0.3618 0.9323 0.3618-0.9323zm3.9756 1.3534-0.1237 0.9923 0.1237-0.9923zm2.8398 0.1735 0.2224-0.975-0.2224 0.975zm77.539-58.634-0.709-0.7056c-0.278 0.2787-0.366 0.6943-0.226 1.0619 0.14 0.3675 0.483 0.6188 0.876 0.642l0.059-0.9983zm3.671 2.6112 0.782-0.6231-0.782 0.6231zm4.215 4.2155-0.671 0.7419 0.671-0.7419zm7.24 6.2293-0.791 0.6123 0.791-0.6123zm2.549 2.065 0.709-0.7056-0.709 0.7056zm1.36-1.6042 0.862 0.5054-0.862-0.5054zm3.739-3.5328-0.765-0.6444 0.765 0.6444zm5.353-3.84-0.66-0.7512 0.66 0.7512zm6.374-3.9936-0.578-0.8167 0.578 0.8167zm5.268-2.0821 0.244 0.9699-0.244-0.9699zm31.493 2.6965-0.761 0.6492 0.761-0.6492zm0.629 8.7381-0.869-0.4946 0.869 0.4946zm-10.707 7.8507 0.478 0.878-0.478-0.878zm-11.319 5.6831-0.223-0.9749 0.223 0.9749zm-13.325 4.6934-0.442-0.8971 0.442 0.8971zm-29.368 20.275-0.859-0.5129 0.859 0.5129zm-3.943 6.8096 0.877 0.4804-0.877-0.4804zm-3.382 9.3696 0.941 0.3374-0.941-0.3374zm-1.683 13.381h-1c0 0.552 0.448 1 1 1v-1zm50.375 1.211 0.043-0.999-0.043 0.999zm51.055-0.136 0.232 0.972-0.232-0.972zm4.724-0.461 0.059 0.998-0.059-0.998zm1.241-20.617 0.994 0.11-0.994-0.11zm-43.458-1.809 0.028 0.9996-0.028-0.9996zm-22.145 0.9386-0.087 0.9962 0.087-0.9962zm-5.625-0.9386-0.885-0.4664 0.885 0.4664zm4.962-3.2256 0.416 0.9097-0.416-0.9097zm3.535-2.2358-0.429-0.903 0.429 0.903zm10.801-5.7633-0.359-0.9333 0.359 0.9333zm26.08-9.7331 0.449 0.8936-0.449-0.8936zm7.189-3.7718 0.478 0.8785-0.478-0.8785zm10.503-9.0282 0.734 0.6789-0.734-0.6789zm1.676-29.523-0.814 0.5817 0.814-0.5817zm-36.927-16.045-0.087 0.99621c0.029 0.00253 0.058 0.00379 0.087 0.00379v-1zm-8.166-0.71309 0.087-0.99621c-0.029-0.00253-0.058-0.00379-0.087-0.00379v1zm-13.492 1.088 0.094 0.99555-0.094-0.99555zm-17.043 4.6167-0.257-0.96644 0.257 0.96644zm-10.805 5.6574-0.516-0.8566 0.516 0.8566zm-8.464 5.5637 0.631 0.776-0.631-0.776zm-101.97-15.316c-3.3268 1.055-9.4491 2.284-14.86 5.3813l0.9935 1.7358c5.1643-2.9559 10.86-4.0654 14.472-5.2107l-0.6045-1.9064zm-36.06 31.694c-2.3511 6.2854-3.4058 11.649-3.4751 17.092-0.069114 5.4305 0.8436 10.894 2.3699 17.364l1.9466-0.4592c-1.5122-6.4099-2.3826-11.689-2.3166-16.879 0.06589-5.1771 1.0647-10.312 3.3485-16.417l-1.8732-0.7007zm-1.1052 34.456c0.99084 4.2 1.3448 6.9297 3.5762 10.882l1.7416-0.9832c-2.0564-3.6428-2.3483-6.022-3.3713-10.358l-1.9466 0.4592zm3.5762 10.882c1.7754 3.145 3.4973 4.9711 5.6946 7.1776l1.4172-1.4113c-2.1587-2.1677-3.7287-3.8417-5.3702-6.7495l-1.7416 0.9832zm5.6946 7.1776c3.9838 4.0004 8.3527 9.1042 13.843 11.716l0.8591-1.806c-5.0845-2.4185-9.1204-7.1392-13.285-11.321l-1.4172 1.4113zm13.843 11.716c3.1762 1.5106 6.2949 2.8966 9.4111 4.4186l0.8779-1.797c-3.1053-1.517-6.3385-2.9572-9.4299-4.4276l-0.8591 1.806zm9.4111 4.4186c1.5259 0.746 3.2636 1.491 5.0819 1.694l0.2218-1.988c-1.4553-0.162-2.9318-0.773-4.4258-1.503l-0.8779 1.797zm5.0819 1.694c0.3955 0.044 1.3045 0.207 2.2154 0.43 0.4516 0.111 0.8841 0.232 1.2402 0.354 0.3854 0.133 0.5853 0.234 0.6449 0.278l1.1795-1.615c-0.322-0.235-0.7722-0.416-1.1756-0.554-0.4327-0.149-0.9276-0.286-1.4124-0.405-0.9618-0.236-1.9607-0.419-2.4702-0.476l-0.2218 1.988zm4.1005 1.062c0.3863 0.282 0.8437 0.448 1.2664 0.554 0.4314 0.109 0.8926 0.172 1.3299 0.213 0.439 0.042 0.8811 0.063 1.2716 0.082 0.4033 0.019 0.7366 0.034 1.0051 0.061l0.1998-1.99c-0.3335-0.033-0.729-0.051-1.1102-0.069-0.3941-0.019-0.7923-0.039-1.1785-0.075-0.3878-0.037-0.7366-0.088-1.029-0.161-0.3011-0.076-0.4813-0.161-0.5756-0.23l-1.1795 1.615zm4.873 0.91c1.1307 0.114 2.2611 0.287 3.4578 0.447 1.1789 0.158 2.3975 0.298 3.6202 0.324l0.0437-1.999c-1.1079-0.024-2.237-0.152-3.3992-0.307-1.1445-0.153-2.3488-0.337-3.5227-0.455l-0.1998 1.99zm7.078 0.771c2.0958 0.046 4.181 0.333 6.332 0.618 2.1303 0.283 4.3231 0.565 6.5339 0.565v-2c-2.0597 0-4.1273-0.262-6.2706-0.547-2.1225-0.282-4.324-0.587-6.5516-0.635l-0.0437 1.999zm12.866 1.183h14.109v-2h-14.109v2zm14.109 0c3.1014 0 5.6157-0.734 7.9841-1.724 1.1749-0.492 2.3229-1.051 3.4739-1.608 1.1585-0.562 2.327-1.125 3.5821-1.651l-0.772-1.845c-1.3124 0.55-2.5271 1.136-3.6823 1.696-1.1627 0.563-2.259 1.096-3.3735 1.563-2.2103 0.924-4.4557 1.569-7.2123 1.569v2zm15.04-4.983c1.512-0.632 2.943-1.654 4.254-2.692 1.366-1.081 2.527-2.112 3.716-2.9866l-1.185-1.6111c-1.205 0.8858-2.544 2.0577-3.772 3.0297-1.282 1.014-2.5363 1.893-3.785 2.415l0.772 1.845zm7.97-5.6786c1.186-0.8725 2.376-1.5091 3.65-2.2623 1.252-0.7397 2.535-1.567 3.727-2.7646l-1.417-1.4113c-1.011 1.0151-2.118 1.7395-3.327 2.4542-1.186 0.7011-2.525 1.4217-3.818 2.3729l1.185 1.6111zm7.377-5.0269c3.168-3.1811 5.661-6.5719 8.14-10.167l-1.647-1.1352c-2.46 3.5692-4.872 6.8405-7.91 9.8912l1.417 1.4113zm8.14-10.167c0.83-1.2043 1.895-2.7538 2.75-4.3983 0.847-1.6287 1.548-3.4629 1.548-5.235h-2c0 1.2894-0.525 2.7786-1.323 4.3127-0.789 1.5182-1.784 2.9708-2.622 4.1854l1.647 1.1352zm4.298-9.6333c0-2.3345 0.097-4.6716 0.196-7.0353 0.097-2.3568 0.197-4.7401 0.197-7.1325h-2c0 2.344-0.097 4.6858-0.196 7.0494-0.098 2.3567-0.197 4.7353-0.197 7.1184h2zm0.393-14.168c0-8.6014 0.621-18.353-3.968-26.463l-1.741 0.9849c4.266 7.5386 3.709 16.623 3.709 25.478h2zm-3.968-26.463c-0.886-1.5668-1.295-3.4497-1.86-5.534-0.544-2.0047-1.232-4.1667-2.761-5.8564l-1.483 1.3423c1.179 1.3018 1.771 3.0381 2.313 5.0376 0.521 1.92 1.005 4.1472 2.05 5.9954l1.741-0.9849zm-4.621-11.39c-2.237-2.4704-5.079-4.348-7.622-6.1455l-1.154 1.6334c2.63 1.8588 5.242 3.5886 7.293 5.8544l1.483-1.3423zm-7.622-6.1455c-1.244-0.8792-2.382-2.018-3.708-3.1998-1.279-1.1387-2.704-2.2857-4.364-2.918l-0.712 1.869c1.295 0.4931 2.489 1.4236 3.745 2.5423 1.207 1.0755 2.518 2.374 3.885 3.3399l1.154-1.6334zm-8.072-6.1178c-0.928-0.3535-1.833-0.79311-2.767-1.2643-0.9218-0.46455-1.8866-0.96775-2.8728-1.4078l-0.8151 1.8264c0.9298 0.41498 1.8314 0.88547 2.7871 1.3674 0.9428 0.4752 1.9258 0.9548 2.9558 1.3474l0.712-1.869zm-5.6398-2.6721c-1.4184-0.63305-2.9026-1.018-4.3085-1.3673-1.4319-0.35581-2.7728-0.67299-4.0436-1.1692l-0.7275 1.863c1.4178 0.55366 2.9027 0.90279 4.2887 1.2472 1.4121 0.35088 2.7377 0.70014 3.9758 1.2527l0.8151-1.8264zm-8.3521-2.5366c-2.4438-0.95436-4.6742-2.2406-7.7189-2.6228l-0.2491 1.9844c2.7158 0.34089 4.4669 1.4182 7.2405 2.5013l0.7275-1.863zm-7.7189-2.6228c-0.9802-0.12304-1.9474-0.1-2.7954-0.10206-0.8757-0.00212-1.6645-0.029-2.448-0.20885l-0.4475 1.9493c1.0165 0.23331 1.9964 0.25737 2.8907 0.25954 0.922 0.00223 1.726-0.01708 2.5511 0.08649l0.2491-1.9844zm-5.2434-0.31091c-0.4988-0.11448-1.0116-0.3041-1.683-0.51249-0.6108-0.1896-1.3411-0.38877-2.0516-0.38877v2c0.3825 0 0.8608 0.11326 1.4587 0.29886 0.5374 0.1668 1.2334 0.41515 1.8284 0.55171l0.4475-1.9493zm-3.7346-0.90126c-1.2002 0-2.3562-0.26546-3.6545-0.56555-1.2653-0.29247-2.6634-0.61693-4.1741-0.61693v2c1.2483 0 2.4312 0.26678 3.7237 0.56555 1.2596 0.29115 2.6384 0.61693 4.1049 0.61693v-2zm-46.574 8.2343c-5.6944 3.2592-9.8571 6.7572-13.173 11.009-3.3096 4.2435-5.7408 9.1935-8.0266 15.304l1.8732 0.7007c2.2497-6.0143 4.5955-10.755 7.7305-14.775 3.1285-4.0113 7.078-7.3486 12.59-10.503l-0.9935-1.7358zm15.465-3.4749c1.6523-0.52396 6.7782-1.5099 11.921-2.3739 2.5521-0.42873 5.0789-0.82263 7.1364-1.109 2.0902-0.29092 3.617-0.45898 4.2231-0.45898v-2c-0.7735 0-2.4507 0.19301-4.4988 0.47808-2.0809 0.28962-4.6269 0.68661-7.192 1.1175-5.0914 0.85533-10.377 1.8637-12.194 2.4398l0.6045 1.9064zm38.509 77.337c1.702-0.5364 5.0553-1.2132 7.9891-2.882l-0.9888-1.7384c-2.6874 1.5286-5.6156 2.0871-7.6015 2.7129l0.6012 1.9075zm19.465-17.025c1.2657-3.3628 1.8397-6.2506 1.8777-9.1896 0.037-2.9259-0.458-5.8559-1.2727-9.2875l-1.946 0.4619c0.8004 3.3716 1.2529 6.1161 1.2186 8.8-0.0342 2.6709-0.5517 5.3285-1.7494 8.5106l1.8718 0.7046zm0.605-18.477c-0.519-2.1861-0.722-3.7113-1.9499-5.8728l-1.739 0.9878c1.0513 1.8506 1.1915 3.024 1.7429 5.3469l1.946-0.4619zm-1.9499-5.8728c-0.9755-1.7174-1.9268-2.7177-3.1037-3.8922l-1.4127 1.4157c1.1383 1.136 1.9368 1.9845 2.7774 3.4643l1.739-0.9878zm-3.1037-3.8922c-2.0752-2.0709-4.4755-4.8562-7.4884-6.2804l-0.8547 1.8082c2.6077 1.2326 4.6747 3.6368 6.9304 5.8879l1.4127-1.4157zm-7.4884-6.2804c-1.7079-0.8073-3.339-1.5267-4.9978-2.332l-0.8735 1.7992c1.648 0.8 3.3931 1.5735 5.0166 2.341l0.8547-1.8082zm-4.9978-2.332c-0.8187-0.3975-1.8028-0.8222-2.8533-0.9387l-0.2204 1.9878c0.6894 0.0765 1.4137 0.3682 2.2002 0.7501l0.8735-1.7992zm-2.8533-0.9387c-0.1839-0.0204-0.6462-0.1017-1.1186-0.2169-0.2323-0.0566-0.4477-0.1168-0.6192-0.1753-0.2009-0.0684-0.2487-0.104-0.2191-0.0825l-1.1748 1.6186c0.2325 0.1688 0.5302 0.2825 0.7487 0.357 0.2477 0.0844 0.5253 0.1606 0.7906 0.2253 0.523 0.1275 1.0748 0.2287 1.372 0.2616l0.2204-1.9878zm-1.9569-0.4747c-0.2736-0.1986-0.5813-0.3045-0.834-0.3678-0.2615-0.0655-0.5326-0.1016-0.7765-0.1245-0.2455-0.023-0.4906-0.0348-0.6974-0.0445-0.2195-0.0104-0.3822-0.0179-0.5099-0.0307l-0.1986 1.9902c0.1923 0.0191 0.4169 0.0289 0.6144 0.0382 0.2103 0.0099 0.4118 0.02 0.6049 0.0381 0.1947 0.0183 0.3541 0.0424 0.4773 0.0733 0.132 0.0331 0.1633 0.0595 0.1451 0.0463l1.1747-1.6186zm-2.8178-0.5675c-0.591-0.0589-1.1748-0.1484-1.8229-0.2344-0.6305-0.0837-1.2989-0.1604-1.9753-0.1751l-0.0434 1.9995c0.5623 0.0122 1.1417 0.0768 1.7556 0.1582 0.5963 0.0792 1.2535 0.1787 1.8874 0.242l0.1986-1.9902zm-3.7982-0.4095c-1.0835-0.0235-2.165-0.1709-3.3148-0.3226-1.1294-0.1491-2.3238-0.3022-3.5338-0.3022v2c1.0599 0 2.1299 0.1342 3.272 0.285 1.1217 0.148 2.3187 0.313 3.5332 0.3393l0.0434-1.9995zm-6.8486-0.6248h-7.4992v2h7.4992v-2zm-7.4992 0c-1.7281 0-3.1268 0.4078-4.4225 0.9465-0.6385 0.2654-1.2607 0.5666-1.8697 0.8598-0.6166 0.2969-1.2269 0.5894-1.8807 0.8613l0.7679 1.8467c0.7109-0.2956 1.3673-0.6107 1.9805-0.906 0.6208-0.299 1.1914-0.5746 1.7698-0.8151 1.138-0.4731 2.2692-0.7932 3.6547-0.7932v-2zm-8.1729 2.6676c-0.8651 0.3597-1.6666 0.9327-2.3707 1.4865-0.7583 0.5963-1.3337 1.1085-1.9617 1.5674l1.1801 1.6147c0.644-0.4706 1.3979-1.1224 2.018-1.6101 0.6742-0.5302 1.2998-0.9614 1.9022-1.2118l-0.7679-1.8467zm-4.3324 3.0539c-0.6056 0.4426-1.2035 0.7594-1.9014 1.1694-0.6748 0.3964-1.3979 0.8573-2.0746 1.5327l1.4127 1.4157c0.4945-0.4935 1.0423-0.8522 1.675-1.224 0.6097-0.3582 1.356-0.7583 2.0684-1.2791l-1.1801-1.6147zm-3.976 2.7021c-1.7145 1.7109-3.0589 3.5301-4.3807 5.4354l1.6433 1.14c1.3036-1.879 2.566-3.5789 4.1501-5.1598l-1.4127-1.4156zm-4.3807 5.4354c-0.4396 0.6337-1.0223 1.4751-1.4922 2.3736-0.4615 0.8826-0.8768 1.9337-0.8768 2.9851h2c0-0.5657 0.2369-1.2701 0.6491-2.0582 0.4038-0.7721 0.9164-1.5165 1.3632-2.1605l-1.6433-1.14zm-2.369 5.3587c0 1.2215-0.0511 2.4461-0.1034 3.6963-0.052 1.2433-0.1052 2.5121-0.1052 3.7874h2c0-1.2266 0.0511-2.4537 0.1034-3.7038 0.052-1.2431 0.1052-2.5095 0.1052-3.7799h-2zm-0.2086 7.4837c0 4.483-0.3455 9.7932 2.1709 14.213l1.7381-0.9895c-2.1898-3.8461-1.909-8.4855-1.909-13.224h-2zm2.1709 14.213c0.4332 0.7608 0.6324 1.6736 0.9435 2.8135 0.2895 1.0606 0.6776 2.3034 1.574 3.2874l1.4785-1.3469c-0.5431-0.5961-0.8352-1.4125-1.123-2.467-0.2662-0.9752-0.5411-2.2335-1.1349-3.2765l-1.7381 0.9895zm2.5175 6.1009c1.2324 1.3529 2.797 2.3791 4.1286 3.3142l1.1494-1.6367c-1.4187-0.9962-2.7529-1.8755-3.7995-3.0244l-1.4785 1.3469zm4.1286 3.3142c0.6325 0.4442 1.1965 1.0085 1.9296 1.6575 0.6847 0.6063 1.4962 1.2625 2.4637 1.6287l0.708-1.8705c-0.603-0.2283-1.184-0.6695-1.8459-1.2556-0.6137-0.5433-1.3507-1.2664-2.106-1.7968l-1.1494 1.6367zm4.3933 3.2862c0.4694 0.1777 0.9324 0.4006 1.4272 0.6486 0.4817 0.2413 1.0093 0.5147 1.5465 0.753l0.8109-1.8283c-0.4811-0.2133-0.9455-0.4543-1.4615-0.7128-0.5029-0.252-1.0434-0.5146-1.6151-0.731l-0.708 1.8705zm2.9737 1.4016c0.7959 0.353 1.6216 0.5645 2.3674 0.7487 0.7717 0.1905 1.451 0.3507 2.0923 0.5996l0.7236-1.8645c-0.7877-0.3057-1.6103-0.4975-2.3364-0.6768-0.752-0.1857-1.4198-0.362-2.036-0.6353l-0.8109 1.8283zm4.4597 1.3483c1.2225 0.4744 2.5192 1.202 4.2137 1.4134l0.2475-1.9846c-1.3673-0.1706-2.1869-0.6915-3.7376-1.2933l-0.7236 1.8645zm4.2137 1.4134c0.5568 0.0694 1.1086 0.0564 1.5422 0.0575 0.4612 0.0011 0.8363 0.0159 1.1989 0.0986l0.4448-1.9499c-0.5942-0.1355-1.1593-0.1476-1.6388-0.1487-0.5072-0.0013-0.8969 0.0081-1.2996-0.0421l-0.2475 1.9846zm2.7411 0.1561c0.2428 0.0554 0.4729 0.142 0.8608 0.2617 0.3277 0.1011 0.7742 0.226 1.2277 0.226v-2c-0.1275 0-0.3234-0.0401-0.6382-0.1371-0.2545-0.0786-0.667-0.2233-1.0055-0.3005l-0.4448 1.9499zm2.0885 0.4877c0.5763 0 1.1392 0.1264 1.8382 0.287 0.6663 0.153 1.4592 0.3376 2.3228 0.3376v-2c-0.6029 0-1.1818-0.1276-1.875-0.2869-0.6606-0.1517-1.445-0.3377-2.286-0.3377v2zm24.986-4.4105c3.0693-1.7458 5.3321-3.6309 7.139-5.9333 1.8006-2.2944 3.1132-4.9585 4.3369-8.2093l-1.8718-0.7046c-1.1871 3.1539-2.4136 5.6087-4.0384 7.6791-1.6186 2.0623-3.6676 3.7876-6.5545 5.4297l0.9888 1.7384zm-8.5903 0.9745c-0.8401 0.2647-3.5275 0.7804-6.273 1.2388-1.3534 0.2259-2.692 0.4333-3.7803 0.5838-1.1207 0.155-1.8974 0.238-2.1809 0.238v2c0.4498 0 1.3761-0.1076 2.455-0.2569 1.1114-0.1537 2.4691-0.3641 3.8355-0.5922 2.6943-0.4499 5.541-0.9876 6.5449-1.304l-0.6012-1.9075zm59.219-55.662c0.503 0.0297 1 0.2686 1.516 0.6933 0.52 0.4279 0.986 0.9833 1.431 1.5427l1.565-1.2462c-0.449-0.5634-1.028-1.2668-1.725-1.8405-0.7-0.5769-1.591-1.0822-2.669-1.1458l-0.118 1.9965zm2.947 2.236c1.298 1.6287 2.886 3.0317 4.327 4.3343l1.341-1.4838c-1.479-1.3367-2.929-2.6227-4.103-4.0967l-1.565 1.2462zm4.327 4.3343c0.663 0.5996 1.425 1.0654 2.078 1.4804 0.68 0.4327 1.273 0.8283 1.776 1.3334l1.417-1.4112c-0.676-0.6792-1.442-1.1784-2.12-1.6096-0.705-0.4488-1.3-0.8159-1.81-1.2768l-1.341 1.4838zm3.854 2.8138c0.575 0.5776 1.204 1.139 1.741 1.6477 0.556 0.5277 1.068 1.0484 1.525 1.6382l1.581-1.2247c-0.549-0.7087-1.146-1.3108-1.73-1.8647-0.604-0.5729-1.146-1.0518-1.7-1.6077l-1.417 1.4112zm3.266 3.2859c0.449 0.5793 1.007 0.9717 1.463 1.2803 0.491 0.3318 0.856 0.5643 1.168 0.8781l1.418-1.4113c-0.484-0.4851-1.051-0.8434-1.465-1.1234-0.449-0.3034-0.767-0.5441-1.003-0.8484l-1.581 1.2247zm2.631 2.1584c0.459 0.4601 1.02 0.3085 1.228 0.2173 0.207-0.0912 0.364-0.2291 0.451-0.3108 0.193-0.1819 0.384-0.4229 0.537-0.6304 0.318-0.4303 0.621-0.9193 0.715-1.0806l-1.725-1.0109c-0.07 0.1188-0.334 0.545-0.599 0.9034-0.138 0.1869-0.242 0.3086-0.299 0.3625-0.039 0.0362 4e-3 -0.0155 0.115-0.0641 0.06-0.0264 0.199-0.0781 0.388-0.0684 0.218 0.0112 0.438 0.1017 0.607 0.2707l-1.418 1.4113zm2.931-1.8045c0.319-0.5431 0.842-1.005 1.537-1.548 0.643-0.502 1.48-1.1049 2.104-1.8458l-1.529-1.2888c-0.453 0.5375-1.061 0.9763-1.806 1.5586-0.693 0.5415-1.5 1.2067-2.031 2.1131l1.725 1.0109zm3.641-3.3938c0.624-0.7403 1.41-1.2566 2.34-1.8037 0.894-0.526 1.971-1.1054 2.909-1.9295l-1.32-1.5024c-0.757 0.6651-1.615 1.1262-2.604 1.7082-0.952 0.5609-1.996 1.2199-2.854 2.2386l1.529 1.2888zm5.249-3.7332c0.83-0.7289 1.836-1.327 2.945-1.9443 1.079-0.6007 2.281-1.2315 3.346-1.9838l-1.155-1.6334c-0.951 0.6724-2.019 1.2325-3.164 1.8696-1.114 0.6203-2.287 1.3066-3.292 2.1895l1.32 1.5024zm6.291-3.9281c1.363-0.9633 3.12-1.4734 4.935-1.9289l-0.487-1.9398c-1.796 0.4509-3.898 1.0307-5.603 2.2353l1.155 1.6334zm4.935-1.9289c2.96-0.7433 5.519-1.267 8.475-1.267v-2c-3.206 0-5.956 0.5725-8.962 1.3272l0.487 1.9398zm8.475-1.267h13.239v-2h-13.239v2zm13.239 0c3.554 0 6.589 1.0829 8.774 3.6428l1.522-1.2984c-2.659-3.1142-6.317-4.3444-10.296-4.3444v2zm8.774 3.6428c0.765 0.8962 1.219 2.2455 1.302 3.7051 0.084 1.4578-0.211 2.8862-0.781 3.8892l1.738 0.9892c0.801-1.4084 1.14-3.2392 1.04-4.9927-0.1-1.7516-0.648-3.5657-1.777-4.8892l-1.522 1.2984zm0.521 7.5943c-0.909 1.5964-2.54 2.9725-4.477 4.2156-1.94 1.2449-4.026 2.263-5.84 3.2516l0.957 1.7561c1.707-0.9304 3.944-2.0286 5.963-3.3246 2.023-1.298 3.984-2.8877 5.135-4.9095l-1.738-0.9892zm-10.317 7.4672c-0.991 0.54-1.928 1.1081-2.832 1.6631-0.91 0.5588-1.78 1.0997-2.665 1.6068-1.761 1.0098-3.527 1.8512-5.566 2.3164l0.445 1.9499c2.311-0.5274 4.272-1.4741 6.116-2.5311 0.918-0.5262 1.821-1.0882 2.716-1.6375 0.901-0.553 1.801-1.098 2.743-1.6115l-0.957-1.7561zm-11.063 5.5863c-4.668 1.0654-9.201 2.6318-13.544 4.7712l0.884 1.7941c4.194-2.066 8.578-3.5824 13.105-4.6154l-0.445-1.9499zm-13.544 4.7712c-5.203 2.5633-11.059 5.0212-16.327 8.1336-5.302 3.1323-10.159 7.0049-13.458 12.526l1.717 1.0258c3.061-5.1225 7.607-8.7859 12.759-11.83 5.185-3.0636 10.834-5.4216 16.193-8.0614l-0.884-1.7941zm-29.785 20.659c-1.348 2.2569-2.687 4.5152-3.961 6.8421l1.754 0.9608c1.255-2.2909 2.576-4.5209 3.924-6.7771l-1.717-1.0258zm-3.961 6.8421c-0.866 1.5802-1.45 3.2012-1.955 4.795-0.516 1.6263-0.93 3.1506-1.492 4.7175l1.883 0.6749c0.576-1.6058 1.034-3.2704 1.515-4.7878 0.491-1.5498 1.03-3.0272 1.803-4.4388l-1.754-0.9608zm-3.447 9.5125c-1.649 4.5998-1.741 9.0337-1.741 13.718h2c0-4.6879 0.104-8.8046 1.624-13.043l-1.883-0.6749zm-0.741 14.718c1.257 0 2.476-0.08 3.658-0.156 1.192-0.077 2.348-0.152 3.531-0.152v-2c-1.258 0-2.477 0.079-3.66 0.156-1.192 0.077-2.347 0.152-3.529 0.152v2zm7.189-0.308c1.182 0 2.329 0.075 3.508 0.152 1.17 0.076 2.372 0.155 3.613 0.155v-2c-1.165 0-2.303-0.074-3.482-0.151-1.171-0.077-2.381-0.156-3.639-0.156v2zm7.121 0.307h21.789v-2h-21.789v2zm21.789 0c1.05 0 2.079 0.074 3.148 0.151 1.059 0.077 2.159 0.157 3.293 0.157v-2c-1.051 0-2.079-0.074-3.149-0.151-1.059-0.077-2.158-0.157-3.292-0.157v2zm6.441 0.308c1.242 0 2.466 0.184 3.763 0.396 1.274 0.209 2.633 0.448 4.029 0.507l0.086-1.998c-1.25-0.053-2.476-0.267-3.792-0.482-1.293-0.212-2.663-0.423-4.086-0.423v2zm7.792 0.903c8.197 0.35 16.474 0.633 24.687 0.633v-2c-8.17 0-16.413-0.281-24.601-0.631l-0.086 1.998zm24.687 0.633h13.086v-2h-13.086v2zm13.086 0c4.38 0 9.046 0.283 13.557-0.796l-0.465-1.945c-4.214 1.008-8.537 0.741-13.092 0.741v2zm13.557-0.796c1.53-0.366 2.77-0.33 4.551-0.435l-0.118-1.996c-1.603 0.094-3.142 0.066-4.898 0.486l0.465 1.945zm4.551-0.435c0.491-0.029 0.777-0.347 0.899-0.525 0.126-0.184 0.197-0.384 0.24-0.532 0.09-0.307 0.143-0.686 0.177-1.066 0.07-0.778 0.083-1.792 0.072-2.801-0.011-1.0165-0.046-2.0593-0.079-2.9042-0.034-0.868-0.062-1.4831-0.062-1.7033h-2c0 0.2718 0.032 0.9635 0.064 1.7806 0.032 0.84 0.067 1.8604 0.078 2.8489 0.01 0.995-4e-3 1.927-0.065 2.599-0.031 0.345-0.07 0.568-0.104 0.684-0.019 0.063-0.018 0.031 0.029-0.037 0.043-0.063 0.241-0.317 0.633-0.34l0.118 1.996zm1.247-9.5315c0-3.9914 0.482-7.9334 0.929-11.973l-1.988-0.22c-0.442 3.9981-0.941 8.0663-0.941 12.193h2zm0.929-11.973c0.05-0.4509 0.104-0.8623 0.115-1.144 6e-3 -0.1444 6e-3 -0.3491-0.047-0.5587-0.061-0.2405-0.202-0.5234-0.495-0.7258-0.258-0.1782-0.526-0.2165-0.678-0.2286-0.157-0.0126-0.32-0.0049-0.445 0.0023-0.276 0.016-0.569 0.043-0.991 0.043v2c0.499 0 0.887-0.0336 1.107-0.0463 0.056-0.0033 0.097-5e-3 0.129-0.0056 0.032-5e-4 0.043 4e-4 0.04 2e-4 -1e-3 -2e-4 -0.033-0.0026-0.082-0.0164-0.052-0.0144-0.131-0.0438-0.216-0.103-0.09-0.0617-0.164-0.1406-0.22-0.2285-0.053-0.0835-0.077-0.1575-0.088-0.2019-0.019-0.0723-9e-3 -0.0972-0.012-0.0078-3e-3 0.0783-0.014 0.1915-0.033 0.3671-9e-3 0.0852-0.02 0.1789-0.032 0.2854-0.012 0.1056-0.026 0.2221-0.04 0.3486l1.988 0.22zm-2.541-2.6118h-6.186v2h6.186v-2zm-6.186 0c-1.565 0-3.105-0.1483-4.694-0.3026-1.574-0.1528-3.199-0.3118-4.857-0.3118v2c1.545 0 3.074 0.1481 4.664 0.3025 1.575 0.1529 3.209 0.3119 4.887 0.3119v-2zm-9.551-0.6144h-16.69v2h16.69v-2zm-16.69 0c-3.187 0-6.441 0.2219-9.511 0.3075l0.055 1.9993c3.199-0.0893 6.288-0.3068 9.456-0.3068v-2zm-9.511 0.3075c-1.599 0.0446-3.189 0.2853-4.7 0.5026-1.534 0.2206-2.998 0.4187-4.45 0.4187v2c1.615 0 3.211-0.2201 4.734-0.439 1.546-0.2222 3.012-0.4423 4.471-0.483l-0.055-1.9993zm-9.15 0.9213c-4.481 0-8.549 0.3991-12.881 0.0208l-0.174 1.9924c4.43 0.3868 8.838-0.0132 13.055-0.0132v-2zm-12.881 0.0208c-0.372-0.0325-1.003-0.0077-1.605 0.0125-0.647 0.0216-1.355 0.0434-1.997 0.0249-0.677-0.0194-1.145-0.0822-1.374-0.1675-0.124-0.0463-2e-3 -0.0357 0.101 0.1433 0.151 0.2616 0.058 0.4905 0.047 0.5107l-1.769-0.9327c-0.203 0.386-0.303 0.9155-9e-3 1.4231 0.246 0.4253 0.658 0.6277 0.933 0.73 0.569 0.2118 1.335 0.2729 2.014 0.2923 0.713 0.0205 1.482-0.0039 2.121-0.0252 0.684-0.0229 1.147-0.0379 1.364-0.019l0.174-1.9924zm-4.828 0.5239c0.362-0.6868 0.956-1.1661 1.756-1.5871 0.402-0.2116 0.836-0.3988 1.305-0.5917 0.454-0.1874 0.959-0.387 1.433-0.6034l-0.831-1.8194c-0.429 0.1958-0.873 0.3714-1.364 0.5736-0.478 0.1967-0.985 0.4134-1.475 0.6711-0.983 0.5177-1.968 1.239-2.593 2.4242l1.769 0.9327zm4.494-2.7822c0.737-0.3365 1.382-0.8051 1.937-1.2081 0.583-0.4226 1.076-0.7792 1.612-1.0343l-0.859-1.8061c-0.732 0.3483-1.375 0.8212-1.927 1.2214-0.579 0.4197-1.067 0.7672-1.594 1.0077l0.831 1.8194zm3.549-2.2424c1.457-0.6931 3.481-1.8843 5.437-3.0014 2-1.1424 3.925-2.2055 5.293-2.7316l-0.718-1.8667c-1.537 0.5911-3.599 1.7376-5.567 2.8617-2.012 1.1493-3.936 2.2811-5.304 2.9319l0.859 1.8061zm10.73-5.733c4.76-1.8308 8.935-3.0944 13.139-4.5005 4.193-1.4023 8.37-2.9323 13.031-5.2724l-0.898-1.7873c-4.539 2.2789-8.614 3.7741-12.767 5.163-4.142 1.385-8.407 2.6785-13.223 4.5305l0.718 1.8667zm26.17-9.7729c2.418-1.2145 4.841-2.494 7.218-3.7869l-0.956-1.7569c-2.363 1.2853-4.765 2.5542-7.16 3.7565l0.898 1.7873zm7.218-3.7869c4.119-2.2405 7.745-5.9677 10.759-9.2278l-1.468-1.3578c-3.027 3.2737-6.453 6.7649-10.247 8.8287l0.956 1.7569zm10.759-9.2278c0.244-0.2638 0.615-0.7789 1.011-1.3624 0.412-0.607 0.894-1.354 1.374-2.1293 0.943-1.523 1.934-3.2489 2.326-4.2339l-1.858-0.7402c-0.317 0.7978-1.215 2.3813-2.169 3.9215-0.468 0.7562-0.935 1.4793-1.328 2.0592-0.41 0.6034-0.699 0.9921-0.824 1.1273l1.468 1.3578zm6.557-19.843c0.029-1.502-0.562-3.3575-1.417-5.2121-0.87-1.8856-2.07-3.8902-3.385-5.7286l-1.627 1.1634c1.256 1.7558 2.388 3.6518 3.196 5.4029 0.822 1.7821 1.254 3.2994 1.234 4.3361l1.999 0.0383zm-35.411-26.275c-1.903-0.1446-3.104-0.41363-4.092-0.65074-0.988-0.23695-1.885-0.47786-3.039-0.47786v2c0.872 0 1.526 0.17183 2.572 0.42268 1.045 0.25068 2.359 0.54452 4.408 0.70017l0.151-1.9942zm-7.044-1.1248-8.166-0.71309-0.174 1.9924 8.166 0.71309 0.174-1.9924zm-8.253-0.71688c-4.497 0-9.241 0.68074-13.587 1.0924l0.189 1.9911c4.483-0.42467 9.027-1.0835 13.398-1.0835v-2zm-30.792 5.7382c-1.481 0.39353-3.71 1.5241-5.771 2.6664-2.096 1.162-4.144 2.4086-5.293 3.1009l1.032 1.7131c1.16-0.6986 3.173-1.9241 5.231-3.0647 2.093-1.1604 4.111-2.163 5.314-2.4828l-0.513-1.9329zm-11.064 5.7672c-2.712 1.6341-6.014 3.56-8.578 5.6443l1.261 1.552c2.428-1.9736 5.581-3.8149 8.349-5.4832l-1.032-1.7131zm-8.578 5.6443c-0.856 0.6956-1.649 1.8334-2.328 2.8307-0.73 1.0726-1.349 2.0141-1.931 2.5988l1.417 1.4112c0.75-0.7528 1.501-1.9049 2.168-2.8845 0.718-1.0549 1.349-1.9278 1.935-2.4042l-1.261-1.552zm99.143 10.929c-0.023 1.203-0.281 3.6468-0.63 6.0419-0.172 1.1895-0.365 2.3488-0.556 3.3153-0.197 0.9918-0.379 1.7078-0.519 2.0579l1.858 0.7402c0.216-0.5413 0.427-1.4244 0.622-2.4092 0.201-1.01 0.399-2.2048 0.575-3.4166 0.35-2.4076 0.624-4.9555 0.649-6.2912l-1.999-0.0383zm-33.563-24.242c1.84 0.13985 5.177 1.0255 8.452 2.1115 3.277 1.0868 6.283 2.3045 7.481 3.0366l1.043-1.7065c-1.416-0.86551-4.624-2.1438-7.894-3.2285-3.274-1.0855-6.82-2.047-8.931-2.2074l-0.151 1.9942zm15.933 5.1482c0.686 0.4194 1.677 0.9348 2.768 1.5167 1.109 0.5917 2.364 1.2737 3.642 2.0545 2.574 1.5729 5.154 3.4954 6.79 5.784l1.627-1.1634c-1.875-2.6216-4.734-4.7136-7.375-6.3272-1.329-0.8124-2.626-1.5166-3.743-2.1125-1.135-0.60564-2.045-1.0792-2.666-1.4586l-1.043 1.7065zm-44.666-7.8917c-2.323 0.22005-6.009 1.2283-9.363 2.2354-3.434 1.0309-6.514 2.0573-7.842 2.4103l0.513 1.9329c1.356-0.36028 4.591-1.4331 7.904-2.4277 3.392-1.0184 6.886-1.9618 8.977-2.1599l-0.189-1.9911z" fill="#111010"/>
</svg>
