<svg fill="none" viewBox="0 0 196 110" xmlns="http://www.w3.org/2000/svg">
<path d="m136.55 22.97-0.802-0.5976c-0.129 0.1727-0.198 0.3822-0.198 0.5976h1zm-0.349 11.997 0.97 0.2415-0.97-0.2415zm0.349 10.957 0.059-0.9983-0.059 0.9983zm10.294-3.1573-0.407-0.9131 0.407 0.9131zm19.097-7.6833v-1c-0.131 0-0.26 0.0255-0.381 0.0751l0.381 0.9249zm-0.078 4.5185 0.993 0.1149-0.993-0.1149zm-0.686 17.723h-1c0 0.0251 1e-3 0.0503 3e-3 0.0754l0.997-0.0754zm0.71 9.3874h1c0-0.0252-1e-3 -0.0503-3e-3 -0.0754l-0.997 0.0754zm1.382 37.842 0.961-0.274-0.961 0.274zm1.337 0.107-0.044 0.999 0.044-0.999zm5.555 0.076-0.124 0.992 0.124-0.992zm20.667-0.647 0.317 0.948c0.408-0.137 0.683-0.518 0.683-0.948h-1zm-0.388-25.906-0.996 0.0886 0.996-0.0886zm0.213-19.008-1-0.0067 1 0.0067zm0.349-27.461 1 0.0022-1-0.0022zm-0.523-5.239-0.997 0.0878 0.997-0.0878zm-0.873-21.209-0.073 0.99733c0.024 0.00178 0.049 0.00267 0.073 0.00267v-1zm-53.993 17.08 0.271 0.9627-0.271-0.9627zm5.932-2.8435-0.444-0.8956 0.444 0.8956zm8.986-3.9828-0.462-0.8866 0.462 0.8866zm4.876-2.23-0.442-0.897 0.442 0.897zm13.784-8.7252v-1c-0.214 0-0.422 0.06872-0.594 0.19605l0.594 0.80395zm15.626 0.35056 0.073-0.99733c-0.024-0.00178-0.048-0.00267-0.073-0.00267v1zm-29.313 32.817-0.381-0.9245 0.381 0.9245zm-134.34-27.448-0.4969-0.86784 0.4969 0.86784zm-20.752 25.796-0.93666-0.3502 0.93666 0.3502zm-1.0681 33.876-0.9733 0.2295 0.9733-0.2295zm3.4724 10.62-0.87091 0.4915 0.87091-0.4915zm5.5302 6.9635 0.7088-0.7054-0.7088 0.7054zm13.558 11.518-0.4297 0.903 0.4297-0.903zm9.4167 4.4236-0.4391 0.898 0.4391-0.898zm4.752 1.598 0.1109-0.994-0.1109 0.994zm4.5775 1.248-0.5899 0.808 0.5899-0.808zm4.3814 0.723-0.0999 0.995 0.0999-0.995zm6.9972 0.767-0.0219 0.999 0.0219-0.999zm41.59-3.723 0.3861 0.922-0.3861-0.922zm7.7599-5.5621 0.593 0.8054-0.593-0.8054zm15.281-14.956 0.823 0.5675-0.823-0.5675zm0.675-49.204-0.87 0.4923 0.87-0.4923zm-4.49-11.212-0.742 0.671 0.742-0.671zm-7.455-6 0.577-0.8166-0.577 0.8166zm-7.847-6-0.356 0.9344 0.356-0.9344zm-5.6895-2.6934-0.4077 0.91312 0.4077-0.91312zm-8.3051-2.5182-0.3639 0.93144 0.3639-0.93144zm-7.4767-2.562 0.1246-0.99221-0.1246 0.99221zm-5.3405-0.32847-0.2238 0.97464 0.2238-0.97464zm3.5873 79.267 0.3006 0.9538-0.3006-0.9538zm7.7922-2.7974 0.4945 0.8692-0.4945-0.8692zm11.03-13.626-0.9359-0.3521 0.9359 0.3521zm0.5677-17.894 0.973-0.2309-0.973 0.2309zm-1.8456-5.6099 0.8696-0.4938-0.8696 0.4938zm-2.9394-3.6783 0.7065-0.7077-0.7065 0.7077zm-7.2066-6.0841 0.4275-0.904-0.4275 0.904zm-5.0051-2.3365 0.4368-0.8995-0.4368 0.8995zm-2.5258-0.8444 0.1102-0.9939-0.1102 0.9939zm-2.4331-0.6593 0.5875-0.8092-0.5875 0.8092zm-2.3288-0.3817-0.0993 0.9951 0.0993-0.9951zm-3.7191-0.4048 0.0217-0.9998-0.0217 0.9998zm-22.106 1.9663-0.384-0.9233 0.384 0.9233zm-4.1246 2.938 0.5902 0.8072-0.5902-0.8072zm-3.8582 2.6025-0.7065-0.7077 0.7065 0.7077zm-4.2637 5.2976 0.8218 0.5699-0.8218-0.5699zm-0.3591 25.991 0.8691-0.4946-0.8691 0.4946zm2.3867 5.9222-0.7394 0.6733 0.7394-0.6733zm3.9625 3.1693-0.5749 0.8183 0.5749-0.8183zm4.1709 3.1693-0.3541 0.9352 0.3541-0.9352zm3.024 1.4228 0.4056-0.9141-0.4056 0.9141zm4.4143 1.3301-0.3619 0.9323 0.3619-0.9323zm3.974 1.3534-0.1238 0.9923 0.1238-0.9923zm2.8386 0.1735 0.2225-0.975-0.2225 0.975zm75.781-60.374v7.9267h2v-7.9267h-2zm0 7.9267c0 1.4337-0.01 2.5844-0.32 3.829l1.941 0.483c0.377-1.5147 0.379-2.8987 0.379-4.312h-2zm-0.32 3.829c-0.341 1.3704-0.383 2.711-0.348 3.9879 0.037 1.3509 0.144 2.4461 0.144 3.7129h2c0-1.246-0.114-2.6379-0.145-3.7672-0.032-1.2033 0.013-2.3361 0.29-3.4506l-1.941-0.483zm-0.204 7.7008c0 0.142-0.035 1.0898 0.015 1.9458 0.025 0.4268 0.074 0.9072 0.181 1.3065 0.053 0.1942 0.137 0.441 0.287 0.6625 0.152 0.2244 0.468 0.5512 0.982 0.5816l0.118-1.9966c0.348 0.0206 0.522 0.2435 0.555 0.292 0.031 0.0455 0.017 0.0443-0.011-0.0594-0.052-0.1965-0.093-0.5116-0.116-0.9034-0.045-0.7812-0.011-1.5629-0.011-1.829h-2zm12.226 1.2539c0.414-0.1847 0.84-0.3972 1.25-0.6008 0.418-0.2073 0.825-0.4085 1.234-0.5896 0.829-0.3664 1.581-0.6113 2.271-0.6421l-0.089-1.998c-1.065 0.0476-2.09 0.4126-2.991 0.8111-0.455 0.2014-0.9 0.4214-1.314 0.6271-0.422 0.2093-0.808 0.4015-1.176 0.5661l0.815 1.8262zm18.689-7.5964c-0.581 0-0.816-0.4586-0.838-0.5002-0.048-0.0961-0.056-0.1612-0.051-0.1343 7e-3 0.035 0.018 0.1355 0.023 0.3214 0.01 0.3554-4e-3 0.8557-0.032 1.393-0.055 1.0709-0.157 2.1788-0.173 2.3236l1.986 0.2299c0.023-0.1959 0.127-1.3472 0.184-2.4504 0.029-0.5497 0.047-1.1152 0.034-1.5537-6e-3 -0.2111-0.02-0.4396-0.057-0.6344-0.016-0.088-0.05-0.2432-0.13-0.4006-0.053-0.103-0.324-0.5943-0.946-0.5943v2zm-1.071 3.4035c-0.689 5.9525-0.693 11.917-0.693 17.838h2c0-5.9391 6e-3 -11.789 0.679-17.608l-1.986-0.2299zm-0.69 17.914 0.71 9.3874 1.994-0.1508-0.71-9.3874-1.994 0.1508zm0.707 9.312c0 3.2377-0.148 6.6177-0.021 9.9418l1.999-0.0766c-0.126-3.2845 0.022-6.4964 0.022-9.8652h-2zm-0.017 34.417c0.162 0.638 0.481 1.369 0.758 1.998 0.297 0.676 0.55 1.249 0.679 1.701l1.923-0.548c-0.175-0.615-0.498-1.337-0.771-1.958-0.294-0.669-0.537-1.239-0.65-1.685l-1.939 0.492zm1.437 3.699c0.118 0.415 0.43 0.614 0.581 0.691 0.163 0.082 0.322 0.118 0.424 0.135 0.211 0.038 0.438 0.042 0.608 0.04 0.181-2e-3 0.359-0.013 0.489-0.021 0.186-0.012 0.188-0.011 0.153-0.013l0.089-1.998c-0.051-2e-3 -0.097-1e-3 -0.119 0-0.027 1e-3 -0.056 3e-3 -0.081 4e-3 -0.048 3e-3 -0.113 7e-3 -0.17 0.011-0.124 8e-3 -0.258 0.015-0.385 0.017-0.138 2e-3 -0.214-5e-3 -0.237-9e-3 -0.016-3e-3 0.044 4e-3 0.131 0.049 0.077 0.039 0.339 0.19 0.44 0.546l-1.923 0.548zm2.255 0.832c0.969 0.043 1.948 3e-3 2.847-0.016 0.92-0.02 1.784-0.02 2.628 0.085l0.247-1.985c-0.998-0.124-1.985-0.12-2.918-0.1-0.954 0.021-1.832 0.058-2.715 0.018l-0.089 1.998zm5.475 0.069c2.509 0.312 4.997 0.324 7.45 0.261 2.481-0.063 4.865-0.199 7.311-0.199v-2c-2.472 0-4.971 0.139-7.362 0.2-2.419 0.061-4.791 0.047-7.152-0.247l-0.247 1.985zm14.761 0.062c2.469 0 3.776 0.108 6.347-0.753l-0.635-1.897c-2.215 0.742-3.198 0.65-5.712 0.65v2zm7.03-1.701c0-9.2356 0.435-16.684-0.392-25.995l-1.992 0.1771c0.817 9.1929 0.384 16.456 0.384 25.818h2zm-0.392-25.995c-0.275-3.0948-0.235-6.2168-0.117-9.3777 0.117-3.14 0.313-6.3563 0.334-9.5356l-2-0.0134c-0.021 3.1402-0.213 6.2694-0.332 9.4746-0.119 3.1842-0.164 6.4067 0.123 9.6292l1.992-0.1771zm0.217-18.913c0.025-3.6714 0-7.3526 0-11.011h-2c0 3.6771 0.025 7.3336 0 10.997l2 0.0134zm0-11.011c0-2.7259 0.084-5.4528 0.169-8.1971 0.086-2.7393 0.174-5.4966 0.18-8.2579l-2-0.0044c-6e-3 2.7271-0.093 5.4545-0.179 8.1998-0.085 2.7402-0.17 5.4976-0.17 8.2596h2zm0.349-16.455c1e-3 -0.4271-0.095-1.3009-0.2-2.2309-0.109-0.9715-0.238-2.0891-0.327-3.0982l-1.993 0.1757c0.092 1.0392 0.225 2.187 0.333 3.1459 0.112 1.0004 0.188 1.722 0.187 2.0031l2 0.0044zm-0.527-5.3291c-0.359-4.0656-0.231-9.3009-0.183-13.602 0.023-2.1285 0.027-4.0446-0.067-5.4334-0.046-0.68504-0.119-1.305-0.246-1.7752-0.062-0.2285-0.157-0.49991-0.321-0.73498-0.17-0.24405-0.514-0.57553-1.052-0.57553v2c-0.364 0-0.554-0.2303-0.589-0.2806-0.029-0.04131-7e-3 -0.02639 0.032 0.11539 0.073 0.27034 0.137 0.72672 0.181 1.3849 0.087 1.2978 0.085 3.1357 0.062 5.2773-0.047 4.2389-0.179 9.6082 0.19 13.8l1.993-0.1757zm-58.123-2.8201c-0.058 0.0772-0.116 0.1243-0.15 0.1485-0.034 0.0245-0.057 0.0354-0.06 0.0369-3e-3 0.0013 0.026-0.0115 0.105-0.0309 0.16-0.039 0.388-0.0733 0.691-0.1099 0.537-0.065 1.354-0.1366 1.946-0.3028l-0.542-1.9253c-0.396 0.1114-0.968 0.1607-1.644 0.2426-0.305 0.0368-0.639 0.0824-0.926 0.1526-0.144 0.0353-0.31 0.0844-0.469 0.1579-0.146 0.0674-0.377 0.1956-0.555 0.4352l1.604 1.1952zm2.532-0.2582c1.125-0.3167 2.208-0.8314 3.216-1.362 1.057-0.5563 1.941-1.0775 2.89-1.5485l-0.889-1.7913c-0.95 0.4712-2.009 1.084-2.932 1.57-0.972 0.5117-1.907 0.9476-2.827 1.2065l0.542 1.9253zm6.106-2.9105c1.45-0.7202 2.923-1.3167 4.438-1.9392 1.504-0.6177 3.045-1.2593 4.566-2.0527l-0.925-1.7732c-1.431 0.7462-2.894 1.3568-4.401 1.976-1.496 0.6144-3.04 1.2395-4.567 1.9978l0.889 1.7913zm9.004-3.9919c0.764-0.3987 1.554-0.747 2.374-1.102 0.81-0.3508 1.656-0.711 2.481-1.1176l-0.884-1.794c-0.77 0.3797-1.563 0.7173-2.392 1.0763-0.819 0.3549-1.669 0.7285-2.504 1.1641l0.925 1.7732zm4.855-2.2196c0.836-0.412 1.64-0.8739 2.413-1.32 0.782-0.4511 1.533-0.8857 2.305-1.2737l-0.898-1.7872c-0.833 0.41881-1.636 0.88401-2.407 1.3285-0.779 0.4497-1.528 0.8796-2.297 1.2584l0.884 1.794zm13.342-8.6222h12.117v-2h-12.117v2zm12.117 0c0.517 0 1.018 0.07462 1.604 0.16388 0.565 0.08602 1.214 0.18668 1.905 0.18668v-2c-0.516 0-1.017-0.07462-1.603-0.16388-0.565-0.08603-1.214-0.18668-1.906-0.18668v2zm3.436 0.3479 4.789 0.35051 0.146-1.9947-4.789-0.35052-0.146 1.9947zm-23.99 84.28c-0.115 2.0968-0.162 4.5058-0.146 6.5294 8e-3 1.0116 0.031 1.9347 0.071 2.6788 0.038 0.7096 0.094 1.3476 0.191 1.7286l1.939-0.492c-0.041-0.161-0.093-0.605-0.133-1.3435-0.037-0.7036-0.061-1.5942-0.068-2.5877-0.016-1.9867 0.031-4.3538 0.143-6.4045l-1.997-0.1091zm0.112-13.538c0.125 3.2757 0.112 9.4238-0.112 13.538l1.997 0.1091c0.228-4.1807 0.241-10.391 0.114-13.724l-1.999 0.0766zm1.075-41.571-0.381-0.9249v1e-4 2e-4c-1e-3 2e-4 -1e-3 5e-4 -2e-3 9e-4 -2e-3 8e-4 -5e-3 0.0019-9e-3 0.0035-7e-3 0.0031-0.019 0.0076-0.033 0.0137-0.03 0.012-0.073 0.0299-0.129 0.0529-0.112 0.0462-0.275 0.1132-0.479 0.1969-0.407 0.1674-0.976 0.4014-1.624 0.6678-1.295 0.5326-2.904 1.195-4.161 1.7132l0.762 1.849c1.256-0.5179 2.865-1.1799 4.16-1.7126 0.648-0.2663 1.217-0.5003 1.624-0.6676 0.203-0.0837 0.366-0.1507 0.478-0.1968 0.056-0.0231 0.1-0.0409 0.129-0.053 0.015-6e-3 0.026-0.0106 0.033-0.0137 4e-3 -0.0015 7e-3 -0.0027 9e-3 -0.0035 1e-3 -4e-4 2e-3 -7e-4 2e-3 -9e-4 0-1e-4 1e-3 -1e-4 1e-3 -2e-4l-0.38-0.925zm-6.818 1.7243c-1.505 0.6203-3.018 1.412-4.266 2.0056-1.331 0.6333-2.297 1.0074-2.939 1.036l0.089 1.998c1.114-0.0497 2.445-0.6265 3.709-1.228 1.348-0.6411 2.728-1.3683 4.169-1.9626l-0.762-1.849zm-12.686 5.0459c-0.716 0.3193-3.058 1.1001-5.372 1.8128-1.142 0.3517-2.251 0.6788-3.111 0.9146-0.431 0.1183-0.792 0.2112-1.059 0.2726-0.135 0.0309-0.236 0.0514-0.305 0.0632-0.099 0.0168-0.067 0.0039 0.019 0.0089l-0.118 1.9966c0.168 0.0099 0.341-0.0179 0.434-0.0338 0.123-0.0208 0.265-0.0506 0.417-0.0856 0.307-0.0704 0.698-0.1717 1.141-0.293 0.887-0.2433 2.017-0.577 3.171-0.9322 2.276-0.7011 4.748-1.5186 5.598-1.8979l-0.815-1.8262zm26.16-38.093c-1.437 1.0624-3.293 2.3872-4.989 3.5454-1.717 1.1733-3.206 2.132-3.939 2.4999l0.898 1.7872c0.874-0.4388 2.475-1.478 4.17-2.6357 1.716-1.1728 3.593-2.5121 5.049-3.5889l-1.189-1.6079zm-133.07 0.27398c-3.3254 1.0549-9.4454 2.2841-14.855 5.3814l0.9937 1.7356c5.1623-2.9558 10.856-4.0653 14.466-5.2106l-0.6047-1.9064zm-36.046 31.695c-2.3501 6.2853-3.4044 11.649-3.4737 17.092-0.069086 5.4305 0.84325 10.894 2.3689 17.364l1.9466-0.459c-1.5116-6.4099-2.3817-11.689-2.3157-16.879 0.06587-5.1771 1.0643-10.312 3.3472-16.417l-1.8733-0.7004zm-1.1047 34.456c0.99045 4.2 1.3443 6.9296 3.5748 10.882l1.7418-0.9829c-2.0556-3.6428-2.3474-6.0221-3.37-10.358l-1.9466 0.459zm3.5748 10.882c1.7747 3.145 3.496 4.9711 5.6924 7.1775l1.4175-1.4109c-2.1578-2.1677-3.7272-3.8418-5.368-6.7495l-1.7418 0.9829zm5.6924 7.1775c3.9821 4.0004 8.3494 9.1043 13.837 11.716l0.8594-1.806c-5.0824-2.4184-9.1167-7.139-13.279-11.321l-1.4175 1.4109zm13.837 11.716c3.1749 1.5106 6.2924 2.8966 9.4073 4.4186l0.8782-1.797c-3.104-1.517-6.3359-2.9571-9.4261-4.4276l-0.8594 1.806zm9.4073 4.4186c1.5254 0.746 3.2624 1.491 5.0801 1.694l0.2219-1.988c-1.4546-0.162-2.9304-0.773-4.4238-1.503l-0.8782 1.797zm5.0801 1.694c0.3953 0.044 1.304 0.207 2.2145 0.43 0.4513 0.111 0.8837 0.232 1.2396 0.354 0.3852 0.133 0.585 0.234 0.6445 0.278l1.1799-1.615c-0.322-0.235-0.7721-0.416-1.1754-0.554-0.4325-0.149-0.9273-0.286-1.4118-0.405-0.9614-0.236-1.9601-0.419-2.4694-0.476l-0.2219 1.988zm4.0986 1.062c0.3862 0.282 0.8435 0.448 1.2661 0.554 0.4313 0.109 0.8923 0.172 1.3295 0.213 0.4388 0.042 0.8808 0.063 1.2712 0.082 0.4031 0.019 0.7362 0.034 1.0046 0.061l0.1999-1.99c-0.3334-0.033-0.7288-0.051-1.1099-0.069-0.3938-0.019-0.7919-0.039-1.1779-0.075-0.3877-0.037-0.7363-0.088-1.0285-0.161-0.301-0.076-0.481-0.161-0.5751-0.23l-1.1799 1.615zm4.8714 0.91c1.1302 0.114 2.2601 0.287 3.4564 0.447 1.1785 0.158 2.3966 0.298 3.6188 0.324l0.0437-1.999c-1.1073-0.024-2.236-0.152-3.3977-0.307-1.1441-0.153-2.3479-0.337-3.5213-0.455l-0.1999 1.99zm7.0752 0.771c2.0949 0.046 4.1793 0.333 6.3294 0.618 2.1295 0.283 4.3214 0.565 6.5315 0.565v-2c-2.0589 0-4.1257-0.262-6.268-0.547-2.1217-0.282-4.3224-0.587-6.5492-0.635l-0.0437 1.999zm12.861 1.183h14.103v-2h-14.103v2zm14.103 0c3.1003 0 5.6136-0.734 7.9812-1.724 1.1744-0.492 2.3219-1.051 3.4724-1.608 1.1581-0.562 2.3262-1.126 3.5807-1.651l-0.7722-1.845c-1.3119 0.55-2.5261 1.136-3.6809 1.696-1.1623 0.563-2.2581 1.096-3.3721 1.563-2.2094 0.924-4.4538 1.569-7.2091 1.569v2zm15.034-4.983c1.5116-0.632 2.9418-1.654 4.2528-2.692 1.365-1.081 2.526-2.113 3.714-2.9867l-1.185-1.6109c-1.204 0.8858-2.544 2.0577-3.771 3.0296-1.281 1.014-2.5349 1.893-3.783 2.415l0.7722 1.845zm7.9668-5.6787c1.186-0.8725 2.375-1.509 3.649-2.2623 1.251-0.7397 2.533-1.567 3.726-2.7647l-1.418-1.4109c-1.01 1.015-2.118 1.7394-3.326 2.4541-1.185 0.7011-2.524 1.4217-3.816 2.3729l1.185 1.6109zm7.375-5.027c3.166-3.181 5.658-6.5719 8.136-10.167l-1.647-1.1349c-2.46 3.5692-4.87 6.8405-7.907 9.8912l1.418 1.4109zm8.136-10.167c0.83-1.2043 1.895-2.7539 2.749-4.3983 0.846-1.6287 1.547-3.4629 1.547-5.2349h-2c0 1.2895-0.525 2.7787-1.322 4.3128-0.789 1.5183-1.784 2.9709-2.621 4.1855l1.647 1.1349zm4.296-9.6332c0-2.3345 0.097-4.6716 0.196-7.0353 0.098-2.3568 0.197-4.7401 0.197-7.1325h-2c0 2.344-0.097 4.6859-0.196 7.0494-0.098 2.3567-0.197 4.7353-0.197 7.1184h2zm0.393-14.168c0-8.6015 0.621-18.353-3.966-26.463l-1.741 0.9846c4.264 7.5386 3.707 16.623 3.707 25.478h2zm-3.966-26.463c-0.886-1.5668-1.295-3.4498-1.86-5.5341-0.543-2.0047-1.231-4.1666-2.76-5.8563l-1.483 1.342c1.178 1.3017 1.771 3.0381 2.313 5.0376 0.52 1.9201 1.004 4.1472 2.049 5.9954l1.741-0.9846zm-4.62-11.39c-2.235-2.4705-5.076-4.3481-7.619-6.1456l-1.154 1.6331c2.629 1.8589 5.24 3.5887 7.29 5.8545l1.483-1.342zm-7.619-6.1456c-1.243-0.8792-2.38-2.018-3.706-3.1998-1.278-1.1386-2.703-2.2857-4.362-2.9181l-0.712 1.8689c1.294 0.4931 2.488 1.4235 3.743 2.5423 1.207 1.0755 2.516 2.3739 3.883 3.3399l1.154-1.6332zm-8.068-6.1179c-0.928-0.35344-1.832-0.79304-2.7666-1.2642-0.921-0.46455-1.8855-0.96775-2.8712-1.4079l-0.8154 1.8262c0.9294 0.41497 1.8305 0.88543 2.7859 1.3673 0.9422 0.4753 1.9243 0.9548 2.9553 1.3474l0.712-1.8689zm-5.6378-2.6721c-1.418-0.63308-2.9017-1.018-4.307-1.3674-1.4313-0.35581-2.7717-0.67298-4.0419-1.1692l-0.7278 1.8629c1.4173 0.55368 2.9017 0.90282 4.2872 1.2472 1.4114 0.35088 2.7365 0.70013 3.9741 1.2527l0.8154-1.8262zm-8.3489-2.5366c-2.4427-0.95431-4.6724-2.2406-7.716-2.6228l-0.2492 1.9844c2.7146 0.34088 4.4649 1.4181 7.2374 2.5013l0.7278-1.8629zm-7.716-2.6228c-0.9798-0.12304-1.9467-0.1-2.7943-0.10206-0.8754-0.00212-1.6638-0.029-2.447-0.20883l-0.4476 1.9493c1.0162 0.23333 1.9958 0.25739 2.8897 0.25956 0.9217 0.00223 1.7253-0.01708 2.55 0.08648l0.2492-1.9844zm-5.2413-0.31089c-0.4985-0.11447-1.011-0.30407-1.6822-0.51248-0.6106-0.18959-1.3406-0.3888-2.051-0.3888v2c0.3822 0 0.8602 0.11323 1.4579 0.29883 0.5371 0.16678 1.233 0.41515 1.8277 0.55172l0.4476-1.9493zm-3.7332-0.90128c-1.1996 0-2.355-0.26543-3.6528-0.56553-1.2648-0.29247-2.6625-0.61695-4.1727-0.61695v2c1.2477 0 2.43 0.26676 3.7221 0.56553 1.259 0.29115 2.6374 0.61695 4.1034 0.61695v-2zm-46.556 8.2344c-5.6922 3.2592-9.8533 6.7572-13.168 11.009-3.3083 4.2435-5.7386 9.1934-8.0235 15.304l1.8733 0.7004c2.2488-6.0143 4.5937-10.755 7.7274-14.775 3.1273-4.0114 7.0752-7.3486 12.584-10.503l-0.9937-1.7356zm15.459-3.475c1.6516-0.52395 6.7754-1.5099 11.916-2.3739 2.551-0.42873 5.0768-0.82263 7.1335-1.109 2.0894-0.29092 3.6155-0.45897 4.2213-0.45897v-2c-0.7732 0-2.4498 0.19302-4.4971 0.47808-2.08 0.28962-4.625 0.68662-7.1892 1.1175-5.0893 0.85533-10.373 1.8637-12.19 2.4399l0.6047 1.9064zm38.494 77.337c1.7013-0.5364 5.0534-1.2132 7.9861-2.882l-0.9891-1.7383c-2.6863 1.5285-5.6132 2.087-7.5983 2.7128l0.6013 1.9075zm19.458-17.025c1.2652-3.3628 1.839-6.2506 1.8766-9.1895 0.0375-2.9259-0.4576-5.8558-1.2719-9.2874l-1.9459 0.4618c0.8 3.3716 1.2524 6.1161 1.218 8.8-0.0342 2.671-0.5514 5.3286-1.7487 8.5108l1.8719 0.7043zm0.6047-18.477c-0.5187-2.1862-0.7217-3.7113-1.949-5.8728l-1.7392 0.9876c1.0508 1.8506 1.191 3.024 1.7423 5.347l1.9459-0.4618zm-1.949-5.8728c-0.9751-1.7173-1.926-2.7177-3.1025-3.8922l-1.413 1.4154c1.1379 1.136 1.936 1.9845 2.7763 3.4644l1.7392-0.9876zm-3.1025-3.8922c-2.0743-2.0708-4.4738-4.8562-7.4856-6.2804l-0.855 1.808c2.6066 1.2326 4.6728 3.6368 6.9276 5.8878l1.413-1.4154zm-7.4856-6.2804c-1.7072-0.8074-3.3376-1.5267-4.9958-2.332l-0.8737 1.799c1.6473 0.8001 3.3918 1.5736 5.0145 2.341l0.855-1.808zm-4.9958-2.332c-0.8183-0.3975-1.8021-0.8223-2.8524-0.9388l-0.2205 1.9878c0.6891 0.0765 1.413 0.3682 2.1992 0.75l0.8737-1.799zm-2.8524-0.9388c-0.1837-0.0204-0.6458-0.1017-1.118-0.2168-0.2322-0.0567-0.4475-0.1169-0.6189-0.1754-0.2008-0.0684-0.2485-0.104-0.2189-0.0824l-1.175 1.6184c0.2324 0.1688 0.5301 0.2826 0.7484 0.357 0.2477 0.0845 0.5252 0.1607 0.7904 0.2254 0.5228 0.1275 1.0744 0.2287 1.3716 0.2616l0.2204-1.9878zm-1.9558-0.4746c-0.2735-0.1986-0.5812-0.3046-0.8338-0.3679-0.2615-0.0655-0.5325-0.1016-0.7763-0.1245-0.2454-0.023-0.4905-0.0348-0.6972-0.0445-0.2194-0.0104-0.382-0.0179-0.5097-0.0307l-0.1986 1.9902c0.1922 0.0191 0.4167 0.0289 0.6142 0.0382 0.2102 0.0099 0.4116 0.02 0.6046 0.0381 0.1946 0.0183 0.3539 0.0424 0.477 0.0733 0.1319 0.033 0.163 0.0595 0.1448 0.0462l1.175-1.6184zm-2.8169-0.5676c-0.5908-0.0589-1.1743-0.1484-1.8222-0.2344-0.6303-0.0837-1.2984-0.1604-1.9746-0.1751l-0.0434 1.9995c0.562 0.0122 1.1412 0.0768 1.7548 0.1582 0.596 0.0791 1.253 0.1787 1.8867 0.242l0.1987-1.9902zm-3.7968-0.4095c-1.083-0.0235-2.164-0.1708-3.3134-0.3226-1.1289-0.1491-2.3229-0.3022-3.5325-0.3022v2c1.0594 0 2.129 0.1342 3.2706 0.285 1.1212 0.148 2.3178 0.313 3.5319 0.3393l0.0434-1.9995zm-6.8459-0.6248h-7.4962v2h7.4962v-2zm-7.4962 0c-1.7276 0-3.1258 0.4078-4.421 0.9465-0.6383 0.2655-1.2603 0.5666-1.869 0.8599-0.6163 0.2969-1.2265 0.5894-1.8799 0.8612l0.7681 1.8466c0.7106-0.2956 1.3668-0.6107 1.9798-0.906 0.6205-0.2989 1.1909-0.5746 1.769-0.815 1.1375-0.4731 2.2682-0.7932 3.653-0.7932v-2zm-8.1699 2.6676c-0.8648 0.3598-1.6661 0.9328-2.3699 1.4866-0.758 0.5964-1.3332 1.1085-1.9609 1.5675l1.1804 1.6144c0.6437-0.4706 1.3974-1.1224 2.0172-1.6101 0.6739-0.5303 1.2993-0.9613 1.9013-1.2118l-0.7681-1.8466zm-4.3308 3.0541c-0.6053 0.4425-1.203 0.7592-1.9006 1.1693-0.6746 0.3964-1.3974 0.8574-2.0739 1.5327l1.413 1.4154c0.4943-0.4935 1.0418-0.8521 1.6743-1.2239 0.6094-0.3582 1.3554-0.7583 2.0676-1.2791l-1.1804-1.6144zm-3.9745 2.702c-1.7137 1.7109-3.0576 3.5301-4.3789 5.4355l1.6435 1.1397c1.3031-1.8791 2.565-3.579 4.1484-5.1598l-1.413-1.4154zm-4.3789 5.4355c-0.4394 0.6337-1.0219 1.4751-1.4916 2.3736-0.4614 0.8825-0.8764 1.9336-0.8764 2.9849h2c0-0.5658 0.2368-1.2702 0.6488-2.0583 0.4036-0.7721 0.9161-1.5165 1.3627-2.1605l-1.6435-1.1397zm-2.368 5.3585c0 1.2216-0.0511 2.4461-0.1034 3.6963-0.052 1.2433-0.1052 2.5121-0.1052 3.7874h2c0-1.2266 0.0512-2.4537 0.1034-3.7038 0.052-1.2432 0.1052-2.5095 0.1052-3.7799h-2zm-0.2086 7.4837c0 4.483-0.3454 9.7931 2.1701 14.213l1.7382-0.9893c-2.189-3.8462-1.9083-8.4856-1.9083-13.224h-2zm2.1701 14.213c0.433 0.7608 0.6321 1.6736 0.9431 2.8135 0.2893 1.0605 0.6773 2.3033 1.5733 3.2873l1.4788-1.3465c-0.5428-0.5962-0.8349-1.4126-1.1226-2.4671-0.266-0.9752-0.5408-2.2335-1.1344-3.2765l-1.7382 0.9893zm2.5164 6.1008c1.232 1.3529 2.7959 2.3792 4.127 3.3143l1.1497-1.6365c-1.4181-0.9962-2.7517-1.8755-3.7979-3.0244l-1.4788 1.3466zm4.127 3.3143c0.6323 0.4442 1.196 1.0084 1.9288 1.6575 0.6845 0.6063 1.4957 1.2625 2.4629 1.6287l0.7083-1.8703c-0.6027-0.2283-1.1834-0.6695-1.8451-1.2555-0.6134-0.5433-1.3502-1.2665-2.1052-1.7969l-1.1497 1.6365zm4.3917 3.2862c0.4692 0.1777 0.9319 0.4007 1.4265 0.6486 0.4816 0.2414 1.009 0.5147 1.546 0.753l0.8112-1.8281c-0.4809-0.2134-0.9451-0.4543-1.4609-0.7129-0.5028-0.252-1.043-0.5145-1.6145-0.7309l-0.7083 1.8703zm2.9725 1.4016c0.7956 0.353 1.621 0.5646 2.3665 0.7487 0.7715 0.1906 1.4505 0.3508 2.0915 0.5997l0.7238-1.8645c-0.7874-0.3057-1.6098-0.4975-2.3356-0.6768-0.7516-0.1857-1.4191-0.3619-2.035-0.6352l-0.8112 1.8281zm4.458 1.3484c1.2219 0.4743 2.5182 1.202 4.2121 1.4134l0.2477-1.9846c-1.3667-0.1706-2.1858-0.6914-3.736-1.2933l-0.7238 1.8645zm4.2121 1.4134c0.5567 0.0694 1.1083 0.0564 1.5418 0.0575 0.461 0.0011 0.8358 0.0159 1.1981 0.0986l0.445-1.9499c-0.594-0.1355-1.1589-0.1476-1.6383-0.1487-0.507-0.0013-0.8965 0.0081-1.2989-0.0421l-0.2477 1.9846zm2.7399 0.1561c0.2427 0.0554 0.4726 0.142 0.8605 0.2617 0.3275 0.1011 0.7739 0.226 1.2274 0.226v-2c-0.1273 0-0.3231-0.04-0.6377-0.1371-0.2544-0.0785-0.6668-0.2232-1.0052-0.3005l-0.445 1.9499zm2.0879 0.4877c0.576 0 1.1386 0.1264 1.8373 0.2869 0.666 0.1531 1.4587 0.3377 2.3221 0.3377v-2c-0.6026 0-1.1811-0.1276-1.8742-0.2869-0.6603-0.1517-1.4444-0.3377-2.2852-0.3377v2zm24.976-4.4105c3.0681-1.7459 5.33-3.6311 7.1362-5.9335 1.7999-2.2943 3.112-4.9584 4.3352-8.2092l-1.8719-0.7043c-1.1867 3.1538-2.4126 5.6086-4.0368 7.679-1.6179 2.0624-3.6661 3.7876-6.5518 5.4297l0.9891 1.7383zm-8.5874 0.9745c-0.8397 0.2647-3.526 0.7804-6.2705 1.2388-1.3528 0.2259-2.6909 0.4333-3.7787 0.5838-1.1203 0.155-1.8967 0.238-2.1799 0.238v2c0.4497 0 1.3756-0.1077 2.4541-0.2569 1.1109-0.1537 2.4681-0.3641 3.834-0.5923 2.6932-0.4498 5.5388-0.9876 6.5423-1.3039l-0.6013-1.9075z" fill="#111010"/>
</svg>
