<svg fill="none" viewBox="0 0 351 254" xmlns="http://www.w3.org/2000/svg">
<path d="m141.93 187.66v0.049m118.32 33.652c1.033-0.012 2.124 1e-3 3.217 0.029 5.613 0.146 9.014-3.376 8.882-8.99-0.027-1.145-0.016-2.271 0.054-3.294 0.223-3.267 1.201-5.672 1.201-8.296 0-3.339-0.252-6.693-0.626-9.993-0.157-1.382-0.575-2.67-0.575-4.057 0-1.702 0.137-3.395 0.185-5.095 0.061-2.221-0.093-4.447-0.093-6.664 0-2.313-0.066-7.001-0.086-8.391-4e-3 -0.265 0-0.522 0.013-0.787 0.022-0.429 0.059-1.182 0.105-2.113 0.295-5.974-3.891-9.959-9.869-9.778-0.83 0.025-1.642 0.036-2.408 0.027-3.303-0.042-5.617-0.726-8.458-0.86-2.031-0.095-4.065-0.191-6.104-0.253-5.521-0.168-11.103-0.099-16.639-0.099-7.045 0-14.12 0.254-21.082 0.632-2.915 0.158-5.631 0.58-8.558 0.58-3.59 0-7.161-0.139-10.748-0.187-4.685-0.062-9.382 0.093-14.059 0.093-5.768 0-11.422-0.38-17.18-0.46-5.398-0.075-14.571-0.06-15.039-0.059h-0.041v0c-6.162-0.019-12.474 6.387-12.15 12.54 7e-3 0.119 0.013 0.228 0.019 0.327 0.167 2.617-0.014 5.672-0.014 8.296 0 3.34-0.252 6.693-0.626 9.993-0.157 1.382-0.575 2.67-0.575 4.057 0 1.702 0.138 3.395 0.185 5.095 0.061 2.221-0.093 4.447-0.093 6.664 0 2.734 0.925 5.333 1.123 8.788 0.016 0.265 0.028 0.537 0.037 0.813 0.209 6.325 5.7 11.7 12.023 11.445v0c0.441-0.017 0.311 0.016 0.751 0.052 1.565 0.126 5.552 0.417 7.8 0.311 2.031-0.096 4.065-0.192 6.104-0.254 5.521-0.168 11.103-0.098 16.639-0.098 7.045 0 14.12 0.254 21.082 0.631 2.915 0.158 5.631 0.58 8.558 0.58 3.59 0 7.161-0.139 10.748-0.186 4.685-0.062 9.382 0.093 14.059 0.093 5.768 0 11.422-0.381 17.18-0.461 5.54-0.077 9.52-0.61 15.058-0.671z" stroke="#111010" stroke-linecap="round" stroke-width="2.4412"/>
<path d="m314.66 120.32h-0.049m-33.652 118.32c0.011 1.033-2e-3 2.125-0.03 3.217-0.146 5.613 3.377 9.014 8.99 8.883 1.146-0.027 2.271-0.017 3.295 0.053 3.266 0.224 5.671 1.201 8.295 1.201 3.34 0 6.694-0.252 9.993-0.626 1.383-0.157 2.67-0.575 4.057-0.575 1.702 0 3.395 0.138 5.095 0.185 2.221 0.061 4.447-0.093 6.664-0.093 2.313 0 7.001-0.066 8.391-0.086 0.265-4e-3 0.522 0 0.787 0.013 0.429 0.022 1.182 0.059 2.113 0.105 5.974 0.295 9.959-3.891 9.778-9.869-0.025-0.829-0.036-1.642-0.026-2.408 0.041-3.303 0.725-5.617 0.859-8.458 0.096-2.031 0.191-4.065 0.253-6.104 0.169-5.52 0.099-11.103 0.099-16.639 0-7.044-0.254-14.12-0.632-21.081-0.158-2.916-0.579-5.632-0.579-8.559 0-3.59 0.138-7.161 0.186-10.748 0.062-4.685-0.093-9.382-0.093-14.059 0-5.768 0.38-11.422 0.46-17.179 0.076-5.398 0.06-14.571 0.059-15.04v-0.041 0c0.02-6.162-6.387-12.474-12.54-12.149-0.119 6e-3 -0.228 0.012-0.327 0.019-2.617 0.166-5.672-0.015-8.296-0.015-3.339 0-6.693-0.251-9.993-0.626-1.382-0.157-2.67-0.575-4.057-0.575-1.702 0-3.395 0.138-5.095 0.185-2.221 0.062-4.447-0.092-6.664-0.092-2.734 0-5.333 0.924-8.787 1.123-0.266 0.015-0.538 0.027-0.814 0.036-6.325 0.209-11.7 5.701-11.445 12.024v0c0.018 0.44-0.016 0.311-0.051 0.75-0.126 1.566-0.418 5.552-0.312 7.801 0.096 2.031 0.192 4.065 0.254 6.104 0.168 5.52 0.098 11.103 0.098 16.638 0 7.045-0.254 14.12-0.631 21.082-0.158 2.916-0.58 5.631-0.58 8.558 0 3.59 0.139 7.162 0.187 10.749 0.062 4.685-0.094 9.381-0.094 14.058 0 5.768 0.381 11.423 0.461 17.18 0.077 5.541 0.61 9.52 0.672 15.058z" stroke="#111010" stroke-linecap="round" stroke-width="2.4412"/>
<path d="m238.68 14.932h-0.049m-33.652 118.32c0.012 1.033-1e-3 2.124-0.029 3.217-0.146 5.613 3.376 9.014 8.989 8.882 1.146-0.027 2.271-0.016 3.295 0.054 3.266 0.223 5.672 1.201 8.296 1.201 3.339 0 6.693-0.252 9.993-0.626 1.382-0.157 2.669-0.575 4.057-0.575 1.702 0 3.395 0.137 5.095 0.184 2.221 0.062 4.447-0.092 6.664-0.092 2.313 0 7.001-0.066 8.39-0.086 0.266-4e-3 0.523 0 0.788 0.013 0.428 0.021 1.182 0.059 2.113 0.105 5.974 0.295 9.958-3.891 9.778-9.869-0.025-0.83-0.037-1.642-0.027-2.408 0.042-3.303 0.725-5.617 0.859-8.458 0.096-2.031 0.192-4.065 0.254-6.104 0.168-5.521 0.098-11.103 0.098-16.639 0-7.0447-0.254-14.12-0.631-21.082-0.158-2.9157-0.58-5.6315-0.58-8.5585 0-3.5899 0.139-7.1613 0.187-10.748 0.062-4.6848-0.094-9.3815-0.094-14.059 0-5.7679 0.381-11.422 0.461-17.18 0.075-5.398 0.06-14.571 0.059-15.039v-0.0413 0c0.019-6.1617-6.387-12.474-12.54-12.149-0.119 0.00627-0.229 0.01256-0.328 0.01887-2.616 0.16676-5.671-0.01425-8.295-0.01425-3.34 0-6.694-0.25182-9.994-0.62619-1.382-0.1568-2.669-0.57487-4.056-0.57487-1.702 0-3.395 0.13759-5.095 0.18478-2.221 0.06163-4.448-0.09239-6.665-0.09239-2.734 0-5.333 0.92464-8.787 1.1229-0.266 0.01526-0.537 0.0273-0.814 0.03644-6.324 0.2091-11.699 5.7007-11.445 12.024v0c0.018 0.4406-0.015 0.3109-0.051 0.7503-0.126 1.5657-0.417 5.5524-0.311 7.8006 0.096 2.031 0.191 4.0652 0.254 6.1042 0.168 5.5203 0.098 11.103 0.098 16.639 0 7.0447-0.254 14.12-0.632 21.082-0.158 2.9157-0.579 5.6314-0.579 8.5584 0 3.59 0.138 7.1613 0.186 10.748 0.062 4.6847-0.093 9.3814-0.093 14.058 0 5.768 0.38 11.422 0.461 17.18 0.077 5.54 0.61 9.52 0.671 15.058z" stroke="#111010" stroke-linecap="round" stroke-width="2.4412"/>
</svg>
