<svg fill="none" viewBox="0 0 248 110" xmlns="http://www.w3.org/2000/svg">
<path d="m26.11 10.285-0.4962-0.86824 0.4962 0.86824zm-20.791 25.796-0.93645-0.3508 0.93645 0.3508zm-1.0701 33.876-0.97321 0.2299 0.97321-0.2299zm3.4789 10.62-0.87051 0.4922 0.87051-0.4922zm5.5406 6.9635 0.7081-0.7061-0.7081 0.7061zm13.584 11.518-0.429 0.9033 0.429-0.9033zm9.4344 4.4236-0.4384 0.899 0.4384-0.899zm4.7609 1.598 0.1107-0.994-0.1107 0.994zm4.5862 1.248-0.5892 0.808 0.5892-0.808zm4.3896 0.723-0.0998 0.995 0.0998-0.995zm7.0103 0.767-0.0218 0.999 0.0218-0.999zm41.669-3.723 0.3855 0.923-0.3855-0.923zm7.775-5.5621 0.592 0.806-0.592-0.806zm15.309-14.956 0.823 0.5682-0.823-0.5682zm0.677-49.204-0.87 0.493 0.87-0.493zm-4.499-11.212-0.741 0.6717 0.741-0.6717zm-7.469-6 0.577-0.8171-0.577 0.8171zm-7.862-6-0.355 0.9347 0.355-0.9347zm-5.6999-2.6934-0.4071 0.91341 0.4071-0.91341zm-8.3206-2.5182-0.3633 0.93167 0.3633-0.93167zm-7.4908-2.562 0.1244-0.99224-0.1244 0.99224zm-5.3505-0.32847-0.2234 0.97473 0.2234-0.97473zm3.5939 79.267 0.3002 0.9539-0.3002-0.9539zm7.8069-2.7974 0.4939 0.8696-0.4939-0.8696zm11.051-13.626-0.9358-0.3527 0.9358 0.3527zm0.5687-17.894 0.9729-0.2313-0.9729 0.2313zm-1.8491-5.6099 0.8692-0.4945-0.8692 0.4945zm-2.9449-3.6783 0.7059-0.7083-0.7059 0.7083zm-7.2201-6.0841 0.4269-0.9043-0.4269 0.9043zm-5.0146-2.3365 0.4363-0.8999h-1e-4l-0.4362 0.8999zm-2.5305-0.8444 0.1101-0.9939-0.1101 0.9939zm-2.4376-0.6593 0.5868-0.8097-0.5868 0.8097zm-2.3332-0.3817-0.0992 0.9951 0.0992-0.9951zm-3.7261-0.4048 0.0216-0.9998-0.0216 0.9998zm-22.148 1.9663-0.3834-0.9235 0.3834 0.9235zm-4.1324 2.938 0.5895 0.8078-0.5895-0.8078zm-3.8654 2.6025-0.7059-0.7083 0.7059 0.7083zm-4.2717 5.2976 0.8213 0.5706-0.8213-0.5706zm-0.3598 25.991 0.8687-0.4953-0.8687 0.4953zm2.3912 5.9222-0.7388 0.674 0.7388-0.674zm3.9699 3.1693-0.5742 0.8188 0.5742-0.8188zm4.1788 3.1693-0.3536 0.9355 0.3536-0.9355zm3.0296 1.4228 0.405-0.9144-0.405 0.9144zm4.4226 1.3301-0.3613 0.9325 0.3613-0.9325zm3.9815 1.3534-0.1236 0.9923 0.1236-0.9923zm2.844 0.1735 0.222-0.9751-0.222 0.9751zm78.427-58.678-0.637-0.7716c-0.325 0.2684-0.447 0.7123-0.305 1.1095 0.143 0.3972 0.52 0.6621 0.942 0.6621v-1zm6.22 4.1234-0.508 0.8613 0.508-0.8613zm6.376 4.2966 0.407-0.9134-0.407 0.9134zm3.887 2.9626-0.541 0.8405 0.541-0.8405zm1.797 1.7152 0.863-0.506-0.863 0.506zm0.691-0.6237 0.728 0.6857-0.728-0.6857zm3.18-3.2079 0.57 0.8215-0.57-0.8215zm2.885-2.183 0.407 0.9134-0.407-0.9134zm6.687-3.6729 0.469 0.8832-0.469-0.8832zm7.309-2.7028-0.475-0.8799 0.475 0.8799zm3.421-0.641-0.487-0.8736 0.487 0.8736zm3.508-0.4678 0.037 0.9993-0.037-0.9993zm14.441-0.0903 0.278-0.9607-0.278 0.9607zm9.601 3.209-0.708 0.7061 0.708-0.7061zm3.2 2.8523 0.791-0.6129-0.791 0.6129zm-4.396 10.444-0.612-0.7915 0.612 0.7915zm-6.155 2.6283 0.278 0.9605-0.278-0.9605zm-15.05 0.3091 6e-3 1-6e-3 -1zm-9.957 0.1675-0.285-0.9586 0.285 0.9586zm-2.489 1.7827-0.977 0.2164 0.977-0.2164zm0.593 7.3042-0.984-0.1784 0.984 0.1784zm0.795 10.603 0.475 0.88-0.475-0.88zm5.723-0.0798-0.055-0.9985 0.055 0.9985zm7.468-0.3706 0.023 0.9997-0.023-0.9997zm14.023 0.9356-0.226 0.9741 0.226-0.9741zm10.747 4.3659 0.799-0.6013-0.799 0.6013zm2.254 7.5482-0.914-0.4052c-0.021 0.0479-0.039 0.0975-0.052 0.1482l0.966 0.257zm-11.734 9.2702 0.369 0.9294-0.369-0.9294zm-22.402 0.7131-0.027 0.9997 0.027-0.9997zm-8.89-2.1393 0.284-0.9588-0.284 0.9588zm-6.756-3.5654-0.343 0.9395 0.343-0.9395zm-7.467-5.7048-0.784 0.6215 0.784-0.6215zm-2.489-1.7827 0.508 0.8613-0.508-0.8613zm-2.134 1.4262 0.677 0.7358-0.677-0.7358zm-5.689 3.5655-0.347-0.9381 0.347 0.9381zm-5.69 3.5654 0.577 0.8171-0.577-0.8171zm-3.556 2.4958 0.668 0.7444-0.668-0.7444zm-0.419 3.4576 0.615-0.7885-0.615 0.7885zm5.753 5.4561-0.721 0.6929c8e-3 8e-3 0.016 0.0158 0.023 0.0235l0.698-0.7164zm5.69 4.2786 0.337-0.9415-0.337 0.9415zm7.822 3.9219-0.319 0.948 0.319-0.948zm14.935 4.992-0.363 0.931 0.363-0.931zm10.312 1.782-0.101 0.995 0.101-0.995zm41.173-4.664 0.457 0.889-0.457-0.889zm11.099-5.6754 0.634 0.7731-0.634-0.7731zm-8.89-42.429 0.438-0.8988-0.438 0.8988zm-6.875-1.1689-0.174-0.9848c-0.51 0.0903-0.867 0.5557-0.822 1.0721 0.046 0.5165 0.478 0.9127 0.996 0.9127v-1zm16.831-7.3883-0.479-0.8773 0.479 0.8773zm5.943-7.9619-0.949-0.3154 0.949 0.3154zm0.57-14.432-0.976 0.2164 0.976-0.2164zm-3.594-5.9252 0.708-0.7061-0.708 0.7061zm-12.613-8.7492-0.402 0.91572 0.402-0.91572zm-5.951-2.865 0.348-0.93728-0.348 0.93728zm-6.757-1.7827 0.364-0.93156-0.364 0.93156zm-38.264-1.572-0.146-0.98931 0.146 0.98931zm-6.86 1.0915-0.409-0.9124 0.409 0.9124zm-4.043 1.9404-0.487-0.8736 0.487 0.8736zm-4.043 1.8711 0.293 0.95613-0.293-0.95613zm-5.046 2.4255 0.39 0.9209-0.39-0.9209zm-4.216 2.5641 0.519 0.8551-0.519-0.8551zm-3.801 2.7374-0.708-0.7061 0.708 0.7061zm-107.42-11.588c-3.3321 1.0551-9.4629 2.284-14.882 5.3811l0.9924 1.7364c5.1722-2.956 10.877-4.0657 14.493-5.2109l-0.6037-1.9067zm-36.113 31.694c-2.3546 6.2854-3.4109 11.649-3.4803 17.093-0.069218 5.4307 0.84487 10.894 2.3734 17.364l1.9464-0.4598c-1.5144-6.4099-2.3861-11.689-2.32-16.879 0.06598-5.1768 1.0662-10.311 3.3533-16.417l-1.8729-0.7016zm-1.1069 34.457c0.99229 4.2 1.3468 6.9298 3.5816 10.883l1.741-0.9843c-2.0594-3.6427-2.3516-6.0218-3.3762-10.358l-1.9464 0.4598zm3.5816 10.883c1.7781 3.145 3.5026 4.9711 5.703 7.1775l1.4162-1.4123c-2.1619-2.1677-3.7343-3.8418-5.3782-6.7495l-1.741 0.9843zm5.703 7.1775c3.9898 4.0005 8.3651 9.1041 13.863 11.715l0.858-1.8066c-5.0923-2.4186-9.1344-7.1396-13.305-11.321l-1.4162 1.4123zm13.863 11.715c3.1807 1.5103 6.3042 2.8963 9.425 4.4193l0.8768-1.798c-3.1098-1.517-6.3477-2.9574-9.4438-4.4279l-0.858 1.8066zm9.425 4.4193c1.5282 0.745 3.2681 1.49 5.0886 1.693l0.2214-1.988c-1.4579-0.162-2.9369-0.773-4.4332-1.503l-0.8768 1.798zm5.0886 1.693c0.3962 0.044 1.3068 0.207 2.219 0.43 0.4523 0.111 0.8855 0.232 1.2423 0.355 0.386 0.132 0.5864 0.234 0.6464 0.277l1.1784-1.616c-0.3223-0.235-0.7729-0.415-1.1769-0.554-0.4332-0.148-0.9288-0.285-1.4142-0.404-0.9631-0.236-1.9635-0.419-2.4736-0.476l-0.2214 1.988zm4.1077 1.062c0.3866 0.282 0.8444 0.448 1.2675 0.554 0.4319 0.109 0.8936 0.172 1.3315 0.213 0.4395 0.042 0.8822 0.063 1.2733 0.082 0.4039 0.019 0.7377 0.034 1.0067 0.061l0.1996-1.99c-0.3339-0.033-0.7299-0.051-1.1118-0.069-0.3946-0.019-0.7935-0.039-1.1803-0.075-0.3885-0.037-0.738-0.088-1.031-0.161-0.3017-0.076-0.4825-0.162-0.5771-0.231l-1.1784 1.616zm4.879 0.91c1.1325 0.114 2.2647 0.287 3.463 0.447 1.1807 0.158 2.401 0.298 3.6253 0.324l0.0436-1.999c-1.1097-0.024-2.2406-0.152-3.4045-0.307-1.1463-0.153-2.3523-0.337-3.5278-0.455l-0.1996 1.99zm7.0883 0.771c2.099 0.046 4.1875 0.333 6.3417 0.618 2.1335 0.283 4.3293 0.565 6.5432 0.565v-2c-2.0631 0-4.1339-0.262-6.2803-0.547-2.1257-0.282-4.3303-0.587-6.561-0.635l-0.0436 1.999zm12.885 1.183h14.13v-2h-14.13v2zm14.13 0c3.1054 0 5.623-0.733 7.9948-1.724 1.1766-0.492 2.3262-1.05 3.4789-1.608 1.1602-0.561 2.3306-1.125 3.5875-1.65l-0.771-1.846c-1.3142 0.549-2.5307 1.136-3.6876 1.696-1.1645 0.563-2.2624 1.096-3.3786 1.562-2.2138 0.925-4.4628 1.57-7.224 1.57v2zm15.061-4.982c1.5145-0.633 2.9465-1.655 4.2605-2.693 1.367-1.08 2.53-2.112 3.721-2.9861l-1.184-1.6121c-1.206 0.8859-2.548 2.0577-3.778 3.0292-1.283 1.014-2.5396 1.894-3.7905 2.416l0.771 1.846zm7.9815-5.6791c1.188-0.8726 2.38-1.5093 3.656-2.2625 1.253-0.7397 2.538-1.5668 3.732-2.7644l-1.416-1.4123c-1.012 1.0152-2.122 1.7397-3.333 2.4544-1.187 0.7011-2.528 1.4216-3.823 2.3727l1.184 1.6121zm7.388-5.0269c3.173-3.181 5.669-6.5718 8.152-10.167l-1.646-1.1363c-2.464 3.5691-4.879 6.8405-7.922 9.8912l1.416 1.4123zm8.152-10.167c0.831-1.2043 1.898-2.7539 2.754-4.3984 0.848-1.6286 1.55-3.463 1.55-5.2355h-2c0 1.289-0.526 2.778-1.324 4.3121-0.79 1.5183-1.788 2.9709-2.626 4.1855l1.646 1.1363zm4.304-9.6339c0-2.3345 0.098-4.6715 0.196-7.0352 0.098-2.3568 0.197-4.7401 0.197-7.1326h-2c0 2.344-0.097 4.6858-0.195 7.0494-0.098 2.3566-0.198 4.7353-0.198 7.1184h2zm0.393-14.168c0-8.6013 0.623-18.353-3.973-26.464l-1.74 0.986c4.271 7.5383 3.713 16.622 3.713 25.478h2zm-3.973-26.464c-0.888-1.5667-1.297-3.4495-1.863-5.5338-0.545-2.0048-1.233-4.1669-2.765-5.8566l-1.482 1.3434c1.18 1.3017 1.774 3.038 2.317 5.0374 0.521 1.9199 1.005 4.1473 2.053 5.9956l1.74-0.986zm-4.628-11.39c-2.24-2.4704-5.086-4.3478-7.633-6.1454l-1.153 1.6342c2.634 1.8588 5.25 3.5887 7.304 5.8546l1.482-1.3434zm-7.633-6.1454c-1.247-0.8792-2.386-2.0182-3.714-3.1999-1.28-1.1387-2.707-2.2855-4.369-2.9177l-0.711 1.8694c1.297 0.4933 2.493 1.4239 3.75 2.5426 1.21 1.0756 2.522 2.3739 3.891 3.3398l1.153-1.6342zm-8.083-6.1176c-0.93-0.35352-1.836-0.79318-2.772-1.2643-0.9231-0.46458-1.8894-0.96774-2.8769-1.4078l-0.8141 1.8268c0.9313 0.415 1.8342 0.88554 2.7913 1.3673 0.9437 0.4753 1.9277 0.9548 2.9607 1.3474l0.711-1.8694zm-5.6489-2.6722c-1.4203-0.63296-2.9065-1.0178-4.3145-1.3672-1.4339-0.3558-2.777-0.67302-4.0498-1.1693l-0.7266 1.8634c1.4197 0.5536 2.9066 0.90268 4.2948 1.2471 1.4141 0.35088 2.7419 0.70019 3.982 1.2529l0.8141-1.8268zm-8.3643-2.5365c-2.4479-0.95453-4.681-2.2405-7.7297-2.6226l-0.2488 1.9845c2.7203 0.34095 4.4746 1.4185 7.2519 2.5015l0.7266-1.8634zm-7.7297-2.6226c-0.9814-0.123-1.9498-0.09997-2.7992-0.10203-0.877-0.00212-1.6673-0.029-2.4523-0.20892l-0.4468 1.9494c1.0176 0.23324 1.9987 0.2573 2.8943 0.25947 0.9232 0.00223 1.7287-0.01709 2.5552 0.08651l0.2488-1.9845zm-5.2515-0.31095c-0.4997-0.11451-1.0135-0.3042-1.6857-0.51255-0.6117-0.18959-1.3427-0.38864-2.0538-0.38864v2c0.3836 0 0.8629 0.11339 1.4617 0.29899 0.5384 0.16685 1.2352 0.41512 1.831 0.55165l0.4468-1.9494zm-3.7395-0.90119c-1.2023 0-2.3603-0.26554-3.6605-0.56562-1.2672-0.29248-2.6671-0.61686-4.1797-0.61686v2c1.2506 0 2.4355 0.26687 3.7299 0.56562 1.2616 0.29117 2.642 0.61686 4.1103 0.61686v-2zm-46.642 8.234c-5.7026 3.259-9.8714 6.757-13.192 11.009-3.3146 4.2435-5.7494 9.1935-8.0386 15.304l1.8729 0.7016c2.253-6.0142 4.6022-10.755 7.7418-14.775 3.1333-4.0114 7.0887-7.3488 12.609-10.503l-0.9924-1.7364zm15.486-3.4744c1.655-0.52403 6.7886-1.51 11.939-2.374 2.5559-0.42873 5.0864-0.82264 7.147-1.109 2.0933-0.29091 3.6225-0.45901 4.2297-0.45901v-2c-0.7743 0-2.4538 0.19298-4.505 0.47805-2.0839 0.28961-4.6336 0.68661-7.2026 1.1175-5.099 0.85534-10.393 1.8637-12.212 2.4398l0.6037 1.9067zm38.566 77.337c1.7049-0.5365 5.0627-1.2131 8.0006-2.8817l-0.9878-1.7391c-2.6916 1.5287-5.6247 2.0873-7.6131 2.7131l0.6003 1.9077zm19.493-17.024c1.2676-3.3629 1.8426-6.2508 1.8806-9.19 0.037-2.9261-0.459-5.8562-1.2747-9.2878l-1.9457 0.4626c0.8015 3.3715 1.2547 6.1159 1.2202 8.7996-0.0342 2.6707-0.5524 5.3281-1.7519 8.5102l1.8715 0.7054zm0.6059-18.478c-0.5197-2.1861-0.7231-3.7115-1.9528-5.8731l-1.7383 0.989c1.0527 1.8505 1.1931 3.0237 1.7454 5.3467l1.9457-0.4626zm-1.9528-5.8731c-0.977-1.7173-1.9296-2.7177-3.1082-3.8921l-1.4117 1.4167c1.14 1.136 1.9397 1.9845 2.7816 3.4644l1.7383-0.989zm-3.1082-3.8921c-2.0784-2.0711-4.4821-4.8561-7.4991-6.2801l-0.8537 1.8086c2.6119 1.2328 4.6822 3.6373 6.9411 5.8882l1.4117-1.4167zm-7.4991-6.2801c-1.7104-0.8073-3.344-1.5267-5.0052-2.3321l-0.8725 1.7997c1.6504 0.8001 3.398 1.5735 5.024 2.341l0.8537-1.8086zm-5.0053-2.3321c-0.8198-0.3974-1.8051-0.822-2.8566-0.9384l-0.2201 1.9878c0.691 0.0765 1.4166 0.3685 2.2043 0.7503l0.8724-1.7997zm-2.8566-0.9384c-0.1843-0.0204-0.6475-0.1017-1.1206-0.2169-0.2327-0.0567-0.4486-0.117-0.6204-0.1754-0.2012-0.0685-0.2494-0.1042-0.2199-0.0828l-1.1736 1.6194c0.2326 0.1686 0.5304 0.2823 0.7492 0.3567 0.248 0.0844 0.5259 0.1606 0.7915 0.2253 0.5237 0.1275 1.0762 0.2286 1.3737 0.2615l0.2201-1.9878zm-1.9609-0.4751c-0.2738-0.1984-0.5816-0.3043-0.8345-0.3675-0.2617-0.0654-0.533-0.1015-0.7772-0.1244-0.2458-0.023-0.4913-0.0348-0.6983-0.0445-0.2198-0.0104-0.3829-0.0179-0.5108-0.0307l-0.1984 1.9902c0.1925 0.0191 0.4174 0.0289 0.6152 0.0382 0.2106 0.0099 0.4125 0.02 0.6059 0.0381 0.1951 0.0183 0.3549 0.0425 0.4784 0.0734 0.1325 0.0331 0.1641 0.0597 0.1461 0.0466l1.1736-1.6194zm-2.8208-0.5671c-0.592-0.059-1.1767-0.1484-1.8257-0.2344-0.6315-0.0837-1.3007-0.1604-1.978-0.1751l-0.0433 1.9995c0.5633 0.0122 1.1438 0.0768 1.7586 0.1583 0.5972 0.0791 1.2553 0.1786 1.89 0.2419l0.1984-1.9902zm-3.8037-0.4095c-1.0852-0.0235-2.1685-0.1709-3.32-0.3227-1.131-0.149-2.327-0.3021-3.5386-0.3021v2c1.0617 0 2.1335 0.1342 3.2773 0.285 1.1233 0.148 2.3219 0.313 3.538 0.3393l0.0433-1.9995zm-6.8586-0.6248h-7.5103v2h7.5103v-2zm-7.5103 0c-1.7302 0-3.1305 0.4077-4.428 0.9463-0.6394 0.2654-1.2624 0.5665-1.8724 0.8598-0.6174 0.2969-1.2288 0.5894-1.8835 0.8613l0.7669 1.8471c0.7119-0.2956 1.3692-0.6107 1.9833-0.906 0.6217-0.2989 1.1932-0.5746 1.7725-0.8151 1.1399-0.4731 2.2731-0.7934 3.6612-0.7934v-2zm-8.1839 2.6674c-0.8661 0.3595-1.6687 0.9325-2.3738 1.4862-0.7593 0.5963-1.3358 1.1085-1.9647 1.5675l1.179 1.6156c0.6449-0.4707 1.3998-1.1224 2.0209-1.6101 0.6752-0.5303 1.3019-0.9615 1.9055-1.2121l-0.7669-1.8471zm-4.3385 3.0537c-0.6065 0.4427-1.2055 0.7595-1.9043 1.1695-0.6757 0.3964-1.3998 0.8572-2.0775 1.5325l1.4118 1.4167c0.4953-0.4936 1.0439-0.8524 1.6777-1.2242 0.6106-0.3582 1.3579-0.7583 2.0713-1.2789l-1.179-1.6156zm-3.9818 2.702c-1.7169 1.7108-3.0633 3.53-4.387 5.4354l1.6425 1.1411c1.3055-1.8791 2.5698-3.579 4.1563-5.1598l-1.4118-1.4167zm-4.387 5.4353c-0.4403 0.6337-1.0238 1.4752-1.4945 2.3737-0.4622 0.8825-0.8782 1.9338-0.8782 2.9856h2c0-0.5654 0.2372-1.2695 0.6499-2.0576 0.4044-0.7721 0.9178-1.5165 1.3653-2.1605l-1.6425-1.1412zm-2.3727 5.3593c0 1.2215-0.0512 2.446-0.1036 3.6962-0.052 1.2433-0.1053 2.5121-0.1053 3.7875h2c0-1.2266 0.0512-2.4536 0.1036-3.7037 0.0521-1.2432 0.1053-2.5096 0.1053-3.78h-2zm-0.2089 7.4837c0 4.4828-0.3461 9.7935 2.1743 14.214l1.7374-0.9907c-2.1929-3.8458-1.9117-8.4847-1.9117-13.223h-2zm2.1743 14.214c0.4337 0.7607 0.6332 1.6733 0.9448 2.8133 0.2899 1.0606 0.6787 2.3036 1.5763 3.2875l1.4775-1.3479c-0.5438-0.5962-0.8364-1.4124-1.1246-2.4669-0.2665-0.9751-0.5418-2.2336-1.1366-3.2767l-1.7374 0.9907zm2.5211 6.1008c1.2342 1.3528 2.8009 2.379 4.1345 3.3141l1.1483-1.6375c-1.4207-0.9962-2.757-1.8756-3.8053-3.0245l-1.4775 1.3479zm4.1345 3.3141c0.6336 0.4443 1.1985 1.0086 1.9326 1.6576 0.6858 0.6064 1.4983 1.2623 2.4668 1.6284l0.7072-1.8709c-0.6044-0.2284-1.1864-0.6698-1.8493-1.2559-0.6146-0.5433-1.3527-1.2664-2.109-1.7967l-1.1483 1.6375zm4.3994 3.286c0.4702 0.1777 0.934 0.4007 1.4295 0.6486 0.4825 0.2414 1.0108 0.5147 1.5488 0.753l0.8099-1.8287c-0.4819-0.2134-0.9471-0.4544-1.4638-0.7129-0.5037-0.252-1.0448-0.5145-1.6172-0.7309l-0.7072 1.8709zm2.9783 1.4016c0.7968 0.3529 1.6235 0.5644 2.3704 0.7486 0.7728 0.1905 1.4534 0.3507 2.0958 0.5997l0.7227-1.8649c-0.7887-0.3056-1.6124-0.4974-2.3396-0.6767-0.7531-0.1857-1.4221-0.362-2.0394-0.6354l-0.8099 1.8287zm4.4662 1.3483c1.2247 0.4746 2.5227 1.2019 4.2192 1.4132l0.2472-1.9847c-1.3698-0.1706-2.1912-0.6918-3.7437-1.2934l-0.7227 1.8649zm4.2192 1.4132c0.5575 0.0694 1.1098 0.0564 1.5442 0.0575 0.4619 0.0011 0.8378 0.0159 1.2013 0.0987l0.4441-1.9501c-0.5947-0.1354-1.1603-0.1475-1.6406-0.1486-0.5078-0.0013-0.8983 0.0081-1.3018-0.0422l-0.2472 1.9847zm2.7455 0.1562c0.2433 0.0554 0.4739 0.1421 0.8622 0.2617 0.3282 0.1011 0.775 0.2259 1.2287 0.2259v-2c-0.1281 0-0.3247-0.0402-0.6399-0.1373-0.2551-0.0785-0.668-0.2232-1.0069-0.3004l-0.4441 1.9501zm2.0909 0.4876c0.5776 0 1.1416 0.1265 1.8416 0.287 0.6673 0.1531 1.4611 0.3376 2.3256 0.3376v-2c-0.6041 0-1.1842-0.1277-1.8785-0.287-0.6616-0.1517-1.4468-0.3376-2.2887-0.3376v2zm25.021-4.4101c3.0736-1.7457 5.3396-3.6308 7.1492-5.9332 1.8032-2.2943 3.1178-4.9584 4.3433-8.2094l-1.8715-0.7054c-1.1888 3.1537-2.417 5.6085-4.0443 7.6789-1.6209 2.0624-3.6731 3.7878-6.5645 5.43l0.9878 1.7391zm-8.6009 0.974c-0.8416 0.2648-3.5332 0.7805-6.2827 1.2388-1.3555 0.226-2.6961 0.4333-3.7859 0.5839-1.1224 0.155-1.9005 0.238-2.1846 0.238v2c0.4503 0 1.3776-0.1076 2.4582-0.2568 1.113-0.1538 2.4727-0.3642 3.8412-0.5923 2.6983-0.4498 5.549-0.9876 6.5541-1.3039l-0.6003-1.9077zm60.138-55.704c0.806 0 1.62 0.4984 2.618 1.377 0.513 0.4513 0.926 0.8618 1.468 1.3531 0.498 0.4511 1.043 0.9106 1.626 1.2546l1.016-1.7227c-0.401-0.2365-0.823-0.5826-1.298-1.0135-0.431-0.3907-0.997-0.9385-1.49-1.3729-1.015-0.8929-2.327-1.8756-3.94-1.8756v2zm5.712 3.9847c1.039 0.613 1.974 1.3701 3.027 2.1739 1.028 0.784 2.147 1.5945 3.45 2.1748l0.814-1.8268c-1.074-0.4785-2.037-1.1644-3.051-1.938-0.987-0.7538-2.053-1.6156-3.224-2.3066l-1.016 1.7227zm6.477 4.3487c0.616 0.2746 1.144 0.7011 1.741 1.2357 0.566 0.5066 1.235 1.1535 2.012 1.654l1.083-1.681c-0.605-0.39-1.112-0.8821-1.76-1.4629-0.618-0.5529-1.342-1.1625-2.262-1.5726l-0.814 1.8268zm3.753 2.8897c0.583 0.3761 1.207 0.9222 1.476 1.3807l1.725-1.012c-0.504-0.8592-1.438-1.6113-2.118-2.0497l-1.083 1.681zm1.476 1.3807c0.068 0.1165 0.168 0.268 0.31 0.3993 0.139 0.1284 0.435 0.3416 0.857 0.309 0.418-0.0322 0.671-0.2836 0.777-0.412 0.11-0.1331 0.176-0.2709 0.211-0.347 0.053-0.1174 0.144-0.3702 0.154-0.3967 0.048-0.1224 0.046-0.0748-0.028 0.0034l-1.455-1.3713c-0.216 0.2289-0.329 0.5105-0.377 0.6341-0.03 0.075-0.059 0.1564-0.077 0.205-0.022 0.0596-0.033 0.0871-0.04 0.1015-0.01 0.0233 0.01-0.0298 0.069-0.1019 0.056-0.0674 0.255-0.2816 0.612-0.3092 0.362-0.0279 0.591 0.1574 0.655 0.2163 0.067 0.0619 0.083 0.1024 0.057 0.0575l-1.725 1.012zm2.281-0.444c0.252-0.2674 0.508-0.5559 0.758-0.8397 0.254-0.2877 0.505-0.5719 0.76-0.849 0.516-0.5593 1.012-1.0421 1.504-1.3834l-1.141-1.643c-0.675 0.4691-1.29 1.0822-1.833 1.6703-0.273 0.2965-0.539 0.5989-0.789 0.8813-0.253 0.2863-0.488 0.5516-0.714 0.7922l1.455 1.3713zm3.022-3.0721c0.569-0.3947 1.082-0.8809 1.49-1.2361 0.438-0.3812 0.813-0.6682 1.232-0.855l-0.814-1.8268c-0.702 0.3129-1.261 0.7641-1.731 1.1729-0.499 0.4346-0.868 0.7901-1.318 1.102l1.141 1.643zm2.722-2.0911c1.194-0.5317 2.343-1.1748 3.454-1.82 1.125-0.6534 2.195-1.2993 3.295-1.8831l-0.938-1.7665c-1.144 0.6075-2.275 1.2892-3.362 1.9201-1.1 0.639-2.172 1.2368-3.263 1.7227l0.814 1.8268zm6.749-3.7031c1.02-0.5416 2.189-0.8899 3.476-1.2717 1.249-0.3703 2.616-0.774 3.839-1.4343l-0.95-1.7599c-1.009 0.5448-2.172 0.8954-3.457 1.2767-1.247 0.3697-2.617 0.7702-3.846 1.4227l0.938 1.7665zm7.315-2.706c0.269-0.1453 0.641-0.1808 1.301-0.2082 0.542-0.0224 1.407-0.0353 2.132-0.4392l-0.974-1.7472c-0.227 0.127-0.565 0.1601-1.241 0.1882-0.558 0.0231-1.42 0.0427-2.168 0.4465l0.95 1.7599zm3.433-0.6474c-2e-3 0.0012 6e-3 -0.0034 0.028-0.0123 0.021-0.0087 0.051-0.0194 0.091-0.0316 0.08-0.0247 0.185-0.0503 0.312-0.0754 0.257-0.0504 0.568-0.0907 0.901-0.1225 0.665-0.0635 1.345-0.0861 1.726-0.1003l-0.074-1.9986c-0.37 0.0137-1.109 0.038-1.842 0.108-0.366 0.0349-0.749 0.0829-1.096 0.1509-0.322 0.0632-0.708 0.1608-1.02 0.3346l0.974 1.7472zm3.058-0.3421c1.167-0.0433 2.285-0.2078 3.329-0.3512 1.062-0.1459 2.059-0.2718 3.079-0.2718v-2c-1.172 0-2.291 0.1449-3.351 0.2903-1.077 0.1479-2.085 0.2953-3.131 0.3341l0.074 1.9986zm6.408-0.623c3.091 0 5.051-0.2766 7.719 0.4941l0.555-1.9214c-3.025-0.8739-5.438-0.5727-8.274-0.5727v2zm7.719 0.4941c0.848 0.2451 1.734 0.4112 2.591 0.5601 0.873 0.1517 1.705 0.2839 2.522 0.465 1.628 0.361 3.012 0.8811 4.057 1.9293l1.416-1.4123c-1.449-1.4531-3.283-2.0801-5.04-2.4696-0.876-0.1941-1.779-0.338-2.613-0.4829-0.85-0.1477-1.643-0.2987-2.378-0.511l-0.555 1.9214zm9.17 2.9544c0.489 0.4901 1.163 1.0059 1.72 1.4544 0.6 0.4842 1.093 0.9107 1.398 1.3047l1.581-1.2258c-0.468-0.6033-1.138-1.1634-1.725-1.6362-0.63-0.5085-1.17-0.9202-1.558-1.3094l-1.416 1.4123zm3.118 2.7591c-1e-3 -0.0011 6e-3 0.0079 0.019 0.0315 0.013 0.0232 0.029 0.0561 0.048 0.1001 0.037 0.0896 0.076 0.2079 0.115 0.3561 0.079 0.2978 0.143 0.6655 0.192 1.065 0.098 0.7979 0.128 1.636 0.128 2.113h2c0-0.5361-0.033-1.4585-0.143-2.3572-0.055-0.4488-0.133-0.9134-0.243-1.3305-0.102-0.3904-0.261-0.8503-0.535-1.2038l-1.581 1.2258zm0.502 3.6657c0 1.1041-0.523 1.9757-1.418 2.8321-0.452 0.4323-0.978 0.8408-1.552 1.2606-0.553 0.4048-1.186 0.8459-1.75 1.2811l1.223 1.5829c0.54-0.417 1.097-0.8023 1.709-1.2504 0.591-0.433 1.204-0.9037 1.753-1.4292 1.107-1.0592 2.035-2.418 2.035-4.2771h-2zm-4.72 5.3738c-1.883 1.4543-4.445 2.0605-5.821 2.4593l0.556 1.921c1.216-0.3521 4.231-1.055 6.488-2.7974l-1.223-1.5829zm-5.821 2.4593c-1.384 0.4006-2.518 0.3416-3.834 0.3416v2c1.215 0 2.674 0.0763 4.39-0.4206l-0.556-1.921zm-3.834 0.3416c-3.679 0-6.703-0.096-10.944-0.072l0.012 2c4.302-0.0244 7.111 0.072 10.932 0.072v-2zm-10.944-0.072c-1.916 0.0109-3.533-0.1696-5.237-0.2479-1.658-0.0763-3.308-0.0456-4.999 0.4568l0.569 1.9172c1.37-0.4069 2.754-0.449 4.338-0.3761 1.537 0.0707 3.368 0.2611 5.341 0.25l-0.012-2zm-10.236 0.2089c-0.279 0.0828-0.57 0.1296-0.908 0.1824-0.301 0.047-0.708 0.1067-1.062 0.2335-0.38 0.136-0.842 0.3972-1.105 0.9369-0.248 0.5081-0.224 1.0733-0.106 1.6049l1.953-0.4327c-0.074-0.3348-0.012-0.3732-0.049-0.2963-0.053 0.1085-0.133 0.111-0.02 0.0704 0.14-0.0498 0.339-0.0847 0.697-0.1406 0.321-0.05 0.742-0.1143 1.169-0.2413l-0.569-1.9172zm-3.181 2.9577c0.197 0.8858 0.423 2.2089 0.558 3.5331 0.138 1.3506 0.17 2.5951 0.028 3.3763l1.968 0.3568c0.195-1.0772 0.135-2.5613-6e-3 -3.9365-0.143-1.4017-0.382-2.8015-0.595-3.7624l-1.953 0.4327zm0.586 6.9094c-0.508 2.8015-0.31 5.8097-0.31 8.4772h2c0-2.8604-0.187-5.5536 0.278-8.1204l-1.968-0.3568zm-0.31 8.4772c0 0.2334-0.03 0.5116-0.062 0.8905-0.028 0.3319-0.059 0.7632-0.015 1.1485 0.038 0.3238 0.174 1.0355 0.87 1.3569 0.649 0.2997 1.32 0.0317 1.771-0.2117l-0.95-1.7599c-0.159 0.0857-0.234 0.1044-0.244 0.1064-5e-3 9e-4 0.108-0.0217 0.262 0.0495 0.334 0.1546 0.304 0.4504 0.278 0.2295-0.018-0.1594-8e-3 -0.4014 0.021-0.7511 0.026-0.3028 0.069-0.7144 0.069-1.0586h-2zm2.564 3.1842c0.06-0.0323 0.284-0.0994 0.76-0.1276 0.436-0.0259 0.962-0.014 1.525 0.0156 0.564 0.0296 1.12 0.0741 1.646 0.1096 0.498 0.0336 1.001 0.0617 1.373 0.041l-0.111-1.9969c-0.228 0.0127-0.606-0.0044-1.127-0.0396-0.492-0.0331-1.093-0.0807-1.676-0.1114-0.586-0.0307-1.2-0.0473-1.749-0.0147-0.511 0.0303-1.118 0.1087-1.591 0.3641l0.95 1.7599zm5.304 0.0386c3.109-0.1732 4.538-0.3005 7.435-0.3693l-0.047-1.9994c-2.94 0.0698-4.434 0.2011-7.499 0.3718l0.111 1.9969zm7.435-0.3693c2.67-0.0634 4.526 3e-4 6.846 3e-4v-2c-2.244 0-4.198-0.0637-6.893 3e-4l0.047 1.9994zm6.846 3e-4c2.315 0 4.228 0.2833 6.928 0.9097l0.452-1.9483c-2.79-0.6475-4.863-0.9614-7.38-0.9614v2zm6.928 0.9097c1.136 0.2637 2.221 0.4433 3.211 0.6155 1.004 0.1745 1.906 0.3408 2.746 0.5799 1.64 0.4664 3.015 1.2003 4.217 2.7977l1.598-1.2026c-1.526-2.027-3.318-2.9642-5.268-3.5187-0.953-0.2714-1.951-0.4529-2.95-0.6267-1.013-0.1761-2.033-0.3452-3.102-0.5934l-0.452 1.9483zm10.174 3.9931c0.876 1.1646 1.601 2.4574 2.002 3.6613 0.41 1.2296 0.433 2.2134 0.137 2.8804l1.829 0.8104c0.589-1.3292 0.409-2.8914-0.068-4.3228-0.485-1.4571-1.33-2.9403-2.302-4.2319l-1.598 1.2026zm2.087 6.6899c-0.702 2.6388-2.108 4.2239-3.992 5.4295-1.958 1.2525-4.362 2.0626-7.145 3.1684l0.738 1.8587c2.627-1.0439 5.315-1.9545 7.484-3.3425 2.243-1.4349 3.999-3.4101 4.848-6.6l-1.933-0.5141zm-11.137 8.5979c-4.345 1.7263-8.261 1.5103-12.406 1.5103v2c4.017 0 8.368 0.2462 13.144-1.6516l-0.738-1.8587zm-12.406 1.5103c-1.666 0-3.148-0.1849-4.685-0.3899-1.527-0.2037-3.119-0.4289-4.915-0.4776l-0.054 1.9993c1.671 0.0452 3.154 0.2539 4.704 0.4607 1.541 0.2054 3.139 0.4075 4.95 0.4075v-2zm-9.6-0.8675c-3.133-0.0849-5.369-1.1315-8.633-2.0985l-0.568 1.9177c2.969 0.8795 5.664 2.0857 9.147 2.1801l0.054-1.9993zm-8.633-2.0985c-0.818-0.2424-1.944-0.8924-3.203-1.6517-1.174-0.7077-2.488-1.5275-3.494-1.8944l-0.686 1.879c0.774 0.2822 1.871 0.9586 3.147 1.7281 1.191 0.718 2.553 1.5262 3.668 1.8567l0.568-1.9177zm-6.697-3.5461c-3.234-1.179-4.9-2.7059-7.027-5.3868l-1.567 1.243c2.269 2.8596 4.216 4.6764 7.908 6.0228l0.686-1.879zm-7.027-5.3868c-0.162-0.2045-0.314-0.4346-0.511-0.7205-0.181-0.2625-0.403-0.5764-0.656-0.8436-0.25-0.2635-0.608-0.566-1.089-0.6966-0.527-0.1428-1.05-0.0414-1.524 0.2382l1.016 1.7226c0.085-0.0504 0.057-0.0107-0.016-0.0306-0.028-0.0076 0.024-0.0025 0.162 0.1427 0.134 0.1414 0.277 0.3372 0.459 0.6017 0.167 0.2412 0.375 0.5555 0.592 0.8291l1.567-1.243zm-3.78-2.0225c-0.628 0.3702-1.549 0.858-2.303 1.5516l1.354 1.4717c0.554-0.51 1.221-0.8619 1.965-1.3007l-1.016-1.7226zm-2.303 1.5516c-1.735 1.5967-4.406 3.0114-5.359 3.3633l0.693 1.8761c1.166-0.4305 4.07-1.9727 6.02-3.7677l-1.354-1.4717zm-5.359 3.3633c-2.176 0.804-4.263 2.5176-5.919 3.6864l1.153 1.6342c1.859-1.3121 3.607-2.7602 5.459-3.4445l-0.693-1.8761zm-5.919 3.6864c-0.603 0.4255-1.168 0.7694-1.796 1.1805-0.609 0.3991-1.236 0.8363-1.851 1.3881l1.335 1.4887c0.504-0.4521 1.034-0.8249 1.612-1.2037 0.56-0.3669 1.214-0.7689 1.853-1.2194l-1.153-1.6342zm-3.647 2.5686c-0.36 0.3223-0.668 0.5449-1.013 0.8232-0.282 0.2273-0.697 0.5709-0.916 1.0366-0.125 0.2661-0.188 0.5707-0.149 0.9007 0.037 0.3173 0.161 0.5973 0.314 0.8381 0.291 0.4569 0.778 0.9089 1.397 1.3919l1.23-1.5771c-0.587-0.4578-0.843-0.7361-0.94-0.8885-0.04-0.0639-0.022-0.0582-0.015 0.0037 9e-3 0.0747-8e-3 0.143-0.026 0.1807-4e-3 0.0089 0.042-0.073 0.36-0.3292 0.255-0.2053 0.684-0.5244 1.093-0.8914l-1.335-1.4887zm-0.367 4.9905c0.966 0.7533 2.367 2.0792 3.553 3.247 0.587 0.5779 1.111 1.107 1.489 1.4916 0.188 0.1923 0.34 0.3482 0.445 0.4559 0.052 0.0538 0.092 0.0956 0.119 0.1237 0.014 0.0141 0.024 0.0248 0.031 0.0319 4e-3 0.0035 6e-3 0.0062 8e-3 0.0079 1e-3 9e-4 1e-3 0.0015 2e-3 0.0019v5e-4c0 1e-4 0 0 0.721-0.6929s0.721-0.6929 0.721-0.693v-2e-4c0-1e-4 0-3e-4 -1e-3 -6e-4 0-5e-4 -1e-3 -0.0013-2e-3 -0.0023-2e-3 -2e-3 -5e-3 -0.0049-8e-3 -0.0087-8e-3 -0.0077-0.019-0.0189-0.033-0.0336-0.028-0.0293-0.069-0.0722-0.123-0.1273-0.107-0.1101-0.261-0.2689-0.453-0.4642-0.383-0.3905-0.916-0.9279-1.513-1.5158-1.182-1.1636-2.658-2.5658-3.726-3.3989l-1.23 1.5771zm6.368 4.6675c-0.698 0.7164-0.698 0.7165-0.697 0.7165v3e-4c0 2e-4 0 4e-4 1e-3 7e-4 0 6e-4 1e-3 0.0014 2e-3 0.0024 2e-3 0.0021 5e-3 5e-3 9e-3 0.0087 8e-3 0.0074 0.019 0.0181 0.033 0.0318 0.029 0.0276 0.07 0.0675 0.124 0.1183 0.106 0.1015 0.26 0.2463 0.451 0.4221 0.381 0.351 0.912 0.8278 1.51 1.3294 0.597 0.5001 1.27 1.0331 1.934 1.4924 0.65 0.45 1.348 0.8691 1.985 1.0974l0.675-1.8829c-0.388-0.1388-0.914-0.4381-1.522-0.8592-0.596-0.4117-1.217-0.9025-1.787-1.3802-0.567-0.4763-1.074-0.9315-1.44-1.2679-0.182-0.168-0.328-0.3058-0.429-0.401-0.05-0.0476-0.088-0.0845-0.114-0.1092-0.013-0.0124-0.022-0.0217-0.029-0.0277-3e-3 -0.0031-5e-3 -0.0053-6e-3 -0.0067-1e-3 -6e-4 -2e-3 -0.0011-2e-3 -0.0014v-2e-4s0 1e-4 -0.698 0.7164zm5.352 5.22c0.731 0.2618 1.798 0.9089 3.227 1.7233 1.364 0.7772 2.973 1.6502 4.614 2.2052l0.639-1.8953c-1.442-0.4871-2.906-1.2742-4.263-2.0476-1.292-0.7361-2.595-1.5294-3.542-1.8685l-0.675 1.8829zm7.841 3.9285c7.731 2.61 8.599 2.522 14.891 4.975l0.726-1.863c-6.317-2.463-7.462-2.469-14.978-5.0073l-0.639 1.8953zm14.891 4.975c1.05 0.41 2.704 0.765 4.54 1.067 1.86 0.306 3.988 0.571 6.034 0.779l0.203-1.989c-2.02-0.206-4.105-0.466-5.912-0.763-1.832-0.302-3.302-0.631-4.139-0.957l-0.726 1.863zm10.574 1.846c4.247 0.434 7.429 0.33 10.863 0.33v-2c-3.491 0-6.541 0.101-10.66-0.319l-0.203 1.989zm10.863 0.33h10.126v-2h-10.126v2zm10.126 0c7.516 0 14.154-1.708 20.742-5.1l-0.915-1.778c-6.32 3.254-12.646 4.878-19.827 4.878v2zm20.742-5.1c1.722-0.887 3.65-1.642 5.671-2.552 1.971-0.888 3.973-1.9001 5.605-3.2393l-1.269-1.5462c-1.417 1.163-3.216 2.0876-5.157 2.9617-1.892 0.8518-3.988 1.6828-5.765 2.5978l0.915 1.778zm11.276-5.7913c0.378-0.3101 0.906-0.6987 1.552-1.1844 0.634-0.4762 1.357-1.0275 2.078-1.6316 1.417-1.1875 2.934-2.6635 3.742-4.2852l-1.79-0.8925c-0.613 1.2306-1.853 2.4859-3.236 3.6446-0.679 0.5689-1.368 1.0943-1.995 1.5657-0.615 0.4618-1.198 0.8914-1.62 1.2372l1.269 1.5462zm-0.731-40.425c-1.718-1.3405-3.13-1.9144-4.482-2.3366-1.358-0.4241-2.465-0.6526-3.873-1.3391l-0.876 1.7975c1.588 0.7749 2.97 1.0813 4.152 1.4506 1.189 0.3712 2.368 0.8493 3.849 2.0047l1.23-1.5771zm-8.355-3.6757c-1.04-0.5077-2.367-0.8185-3.645-1.0062-1.292-0.1899-2.607-0.2639-3.668-0.2639v2c0.978 0 2.195 0.0689 3.378 0.2426 1.197 0.176 2.289 0.4496 3.059 0.825l0.876-1.7975zm1.617-1.5374c1.768-0.6815 3.219-1.6594 4.54-2.6185 1.349-0.9791 2.515-1.8999 3.841-2.6251l-0.959-1.7547c-1.473 0.8053-2.795 1.8455-4.057 2.7613-1.289 0.9358-2.569 1.7865-4.084 2.371l0.719 1.866zm8.381-5.2436c3.465-1.8948 5.302-5.1851 6.412-8.5238l-1.898-0.6309c-1.037 3.118-2.645 5.8529-5.473 7.4l0.959 1.7547zm6.412-8.5238c0.847-2.5476 0.915-5.5534 0.915-8.0425h-2c0 2.5122-0.082 5.2108-0.813 7.4116l1.898 0.6309zm0.915-8.0425c0-2.1246 0.189-4.6365-0.318-6.9212l-1.952 0.4327c0.443 2.0015 0.27 4.1366 0.27 6.4885h2zm-0.318-6.9212c-0.531-2.3962-2.264-4.8128-3.862-6.415l-1.416 1.4123c1.468 1.472 2.911 3.5636 3.326 5.4354l1.952-0.4327zm-3.862-6.415c-3.696-3.7058-8.05-6.8228-12.92-8.9589l-0.803 1.8315c4.616 2.0252 8.768 4.9909 12.307 8.5397l1.416-1.4123zm-12.92-8.9589c-1.074-0.4713-1.916-0.93977-2.84-1.4305-0.92-0.48883-1.894-0.98378-3.164-1.456l-0.697 1.8746c1.147 0.42672 2.031 0.87398 2.923 1.3478 0.889 0.47188 1.814 0.98642 2.975 1.4957l0.803-1.8315zm-6.004-2.8865c-1.364-0.50746-2.519-0.72847-3.581-0.93603-1.065-0.20792-2.035-0.40194-3.16-0.84098l-0.727 1.8631c1.309 0.51099 2.438 0.73267 3.503 0.94077 1.068 0.20847 2.074 0.4038 3.268 0.84768l0.697-1.8746zm-6.741-1.777c-4.372-1.7065-8.588-1.8512-11.742-1.8512v2c3.1 0 7.005 0.14911 11.015 1.7143l0.727-1.8631zm-11.742-1.8512c-2.292 0-4.613-0.14009-6.977-0.28265-2.353-0.14194-4.749-0.28629-7.14-0.28629v2c2.321 0 4.657 0.14012 7.02 0.28266 2.353 0.1419 4.735 0.28628 7.097 0.28628v-2zm-14.117-0.56894c-4.405 0-8.527 0.14323-12.915 0.79033l0.291 1.9786c4.25-0.62656 8.261-0.76894 12.624-0.76894v-2zm-12.915 0.79033c-1.022 0.15064-2.14 0.19744-3.454 0.33562-1.23 0.1295-2.564 0.33709-3.669 0.83277l0.818 1.8248c0.794-0.35623 1.854-0.54165 3.061-0.66855 1.123-0.11822 2.485-0.19121 3.535-0.34604l-0.291-1.9786zm-7.123 1.1684c-1.456 0.65279-2.7 1.1879-4.121 1.9792l0.973 1.7472c1.327-0.73915 2.478-1.2341 3.966-1.9016l-0.818-1.8248zm-4.121 1.9792c-1.283 0.71471-2.537 1.3865-3.849 1.7886l0.586 1.9123c1.539-0.47169 2.962-1.2439 4.236-1.9536l-0.973-1.7472zm-3.849 1.7886c-1.039 0.31815-1.929 0.77764-2.746 1.2245-0.836 0.45775-1.567 0.88508-2.397 1.2363l0.78 1.8418c0.949-0.4018 1.804-0.9004 2.578-1.3237 0.793-0.4342 1.536-0.81097 2.371-1.0666l-0.586-1.9123zm-5.143 2.4608c-0.866 0.36689-1.619 0.82868-2.316 1.2897-0.721 0.4772-1.328 0.9155-2.028 1.3402l1.037 1.7102c0.741-0.4497 1.46-0.9621 2.095-1.3828 0.66-0.4368 1.294-0.8199 1.992-1.1155l-0.78-1.8418zm-4.344 2.6299c-1.356 0.8219-2.764 1.6561-3.991 2.8864l1.416 1.4123c1.025-1.0274 2.212-1.74 3.612-2.5885l-1.037-1.7102zm-3.991 2.8864c-1.232 1.2352-2.776 2.9828-4.297 4.6429-1.546 1.6879-3.073 3.2912-4.34 4.3352l1.273 1.5431c1.389-1.1452 3.004-2.8484 4.542-4.5274 1.563-1.7067 3.046-3.3863 4.238-4.5815l-1.416-1.4123zm80.763 35.619c-1.571 0.6056-3.655 1.1429-5.377 1.5325-0.855 0.1934-1.609 0.3478-2.149 0.4537-0.27 0.053-0.485 0.0938-0.633 0.1213-0.074 0.0137-0.131 0.0241-0.169 0.031-0.02 0.0034-0.034 6e-3 -0.043 0.0077-5e-3 8e-4 -8e-3 0.0014-0.011 0.0018-1e-3 2e-4 -2e-3 4e-4 -2e-3 5e-4h-1e-3v1e-4c0-1e-4 0-1e-4 0.174 0.9847 0.174 0.9847 0.175 0.9847 0.175 0.9847v-1e-4s0-1e-4 1e-3 -1e-4l3e-3 -6e-4c3e-3 -5e-4 7e-3 -0.0013 0.013-0.0022 0.01-2e-3 0.026-0.0048 0.047-0.0085 0.041-0.0074 0.1-0.0183 0.177-0.0326 0.155-0.0286 0.377-0.0707 0.655-0.1251 0.554-0.1088 1.327-0.2671 2.204-0.4656 1.742-0.394 3.943-0.9569 5.655-1.6172l-0.719-1.866zm18.074 17.101c-0.338-0.7916-1.018-1.6544-1.798-2.4941-0.801-0.8605-1.785-1.7775-2.82-2.68-2.07-1.8048-4.406-3.6064-5.999-4.8482l-1.23 1.5771c1.608 1.254 3.895 3.0178 5.914 4.7785 1.01 0.8802 1.937 1.746 2.67 2.5345 0.752 0.8093 1.229 1.4618 1.424 1.9182l1.839-0.786zm1.858 9.3067c0-2.3686-0.181-4.0533-0.515-5.4858-0.332-1.4308-0.809-2.5716-1.343-3.8209l-1.839 0.786c0.533 1.2465 0.945 2.245 1.235 3.4882 0.288 1.2417 0.462 2.766 0.462 5.0325h2zm-2 0c0 2.1426-0.664 4.6863-1.54 7.1019-0.869 2.3981-1.917 4.5869-2.622 6.0006l1.79 0.8925c0.718-1.4387 1.804-3.7068 2.712-6.2112 0.902-2.4868 1.66-5.2914 1.66-7.7838h-2z" fill="#111010"/>
</svg>
