<svg fill="none" viewBox="0 0 351 251" xmlns="http://www.w3.org/2000/svg">
<path d="m142.88 185.92v0.049m117.85 33.517c1.017-0.011 2.09 1e-3 3.166 0.029 5.613 0.144 9.011-3.378 8.884-8.991-0.026-1.128-0.015-2.235 0.054-3.244 0.223-3.253 1.196-5.649 1.196-8.262 0-3.326-0.25-6.667-0.623-9.953-0.156-1.377-0.573-2.659-0.573-4.041 0-1.695 0.137-3.381 0.184-5.075 0.062-2.211-0.092-4.429-0.092-6.637 0-2.303-0.066-6.969-0.086-8.355-4e-3 -0.265 0-0.523 0.014-0.788 0.021-0.421 0.057-1.154 0.102-2.062 0.295-5.974-3.891-9.956-9.869-9.778-0.812 0.024-1.607 0.034-2.357 0.025-3.29-0.042-5.595-0.722-8.424-0.856-2.023-0.095-4.049-0.191-6.08-0.252-5.498-0.168-11.059-0.098-16.572-0.098-7.017 0-14.064 0.253-20.997 0.629-2.904 0.157-5.609 0.577-8.525 0.577-3.575 0-7.132-0.138-10.705-0.186-4.666-0.062-9.344 0.093-14.002 0.093-5.745 0-11.377-0.379-17.111-0.459-5.377-0.075-14.513-0.059-14.979-0.058h-0.042v0c-6.137-0.02-12.423 6.361-12.1 12.49 6e-3 0.118 0.012 0.227 0.018 0.326 0.167 2.606-0.014 5.649-0.014 8.262 0 3.326-0.251 6.667-0.623 9.954-0.157 1.376-0.573 2.658-0.573 4.04 0 1.695 0.137 3.381 0.184 5.075 0.061 2.212-0.092 4.429-0.092 6.637 0 2.723 0.921 5.312 1.118 8.752 0.016 0.265 0.028 0.536 0.037 0.811 0.208 6.299 5.678 11.653 11.975 11.399v0c0.439-0.018 0.31 0.016 0.748 0.051 1.559 0.126 5.53 0.416 7.769 0.31 2.023-0.095 4.049-0.191 6.08-0.252 5.498-0.168 11.058-0.098 16.572-0.098 7.016 0 14.063 0.252 20.997 0.628 2.904 0.158 5.609 0.578 8.524 0.578 3.576 0 7.133-0.138 10.706-0.186 4.666-0.062 9.344 0.093 14.002 0.093 5.745 0 11.376-0.379 17.111-0.459 5.518-0.077 9.482-0.607 14.998-0.669z" stroke="#111010" stroke-linecap="round" stroke-width="2"/>
<path d="m314.92 118.85h-0.049m-33.517 117.85c0.011 1.017-1e-3 2.091-0.029 3.167-0.143 5.613 3.378 9.011 8.991 8.884 1.128-0.026 2.235-0.015 3.244 0.054 3.253 0.223 5.649 1.196 8.262 1.196 3.326 0 6.667-0.251 9.953-0.624 1.377-0.156 2.659-0.572 4.041-0.572 1.695 0 3.381 0.137 5.075 0.184 2.212 0.061 4.429-0.092 6.637-0.092 2.303 0 6.969-0.066 8.355-0.086 0.265-4e-3 0.523 0 0.788 0.013 0.421 0.021 1.154 0.058 2.062 0.103 5.974 0.294 9.956-3.892 9.778-9.87-0.024-0.811-0.034-1.606-0.025-2.357 0.042-3.289 0.723-5.594 0.856-8.424 0.095-2.022 0.191-4.049 0.253-6.079 0.167-5.499 0.097-11.059 0.097-16.572 0-7.017-0.252-14.064-0.628-20.998-0.158-2.904-0.578-5.609-0.578-8.524 0-3.575 0.138-7.133 0.186-10.705 0.062-4.666-0.093-9.344-0.093-14.003 0-5.744 0.379-11.376 0.459-17.111 0.075-5.376 0.059-14.512 0.059-14.979v-0.041 0c0.019-6.137-6.362-12.424-12.491-12.101-0.118 7e-3 -0.227 0.013-0.326 0.019-2.606 0.166-5.649-0.014-8.262-0.014-3.326 0-6.667-0.251-9.953-0.624-1.377-0.156-2.659-0.572-4.041-0.572-1.695 0-3.381 0.137-5.075 0.184-2.211 0.061-4.429-0.092-6.637-0.092-2.723 0-5.312 0.921-8.752 1.118-0.265 0.015-0.536 0.027-0.811 0.036-6.299 0.209-11.653 5.678-11.399 11.976v0c0.018 0.439-0.016 0.31-0.051 0.747-0.126 1.56-0.416 5.53-0.31 7.77 0.095 2.023 0.191 4.049 0.253 6.079 0.167 5.499 0.098 11.059 0.098 16.573 0 7.016-0.253 14.063-0.629 20.997-0.158 2.904-0.578 5.609-0.578 8.524 0 3.575 0.138 7.133 0.186 10.705 0.062 4.666-0.093 9.344-0.093 14.003 0 5.745 0.379 11.376 0.459 17.111 0.077 5.518 0.608 9.482 0.669 14.997z" stroke="#111010" stroke-linecap="round" stroke-width="2"/>
<path d="m239.24 13.88h-0.049m-33.518 117.85c0.012 1.017-1e-3 2.09-0.028 3.166-0.144 5.613 3.378 9.011 8.991 8.884 1.128-0.026 2.235-0.015 3.243 0.054 3.253 0.223 5.649 1.196 8.263 1.196 3.326 0 6.666-0.25 9.953-0.623 1.377-0.156 2.659-0.573 4.041-0.573 1.695 0 3.381 0.137 5.074 0.184 2.212 0.062 4.429-0.092 6.638-0.092 2.302 0 6.969-0.066 8.355-0.086 0.265-4e-3 0.522 0 0.787 0.014 0.421 0.021 1.155 0.057 2.063 0.102 5.973 0.295 9.955-3.891 9.778-9.869-0.024-0.812-0.035-1.607-0.025-2.357 0.041-3.29 0.722-5.595 0.855-8.424 0.096-2.023 0.191-4.049 0.253-6.08 0.168-5.498 0.098-11.059 0.098-16.572 0-7.0167-0.253-14.064-0.629-20.997-0.157-2.904-0.577-5.6089-0.577-8.5242 0-3.5756 0.138-7.1327 0.185-10.706 0.062-4.6659-0.093-9.3439-0.093-14.002 0-5.7448 0.379-11.376 0.459-17.111 0.075-5.3764 0.06-14.512 0.059-14.979v-0.0411 0c0.019-6.1371-6.361-12.424-12.49-12.101-0.119 0.00624-0.228 0.01251-0.326 0.01879-2.606 0.16609-5.649-0.01419-8.263-0.01419-3.326 0-6.666-0.25082-9.953-0.62369-1.376-0.15618-2.659-0.57257-4.041-0.57257-1.694 0-3.381 0.13704-5.074 0.18404-2.212 0.06138-4.429-0.09202-6.638-0.09202-2.723 0-5.311 0.92094-8.752 1.1184-0.264 0.01519-0.535 0.02719-0.81 0.03629-6.3 0.20827-11.653 5.6779-11.399 11.975v0c0.017 0.4388-0.016 0.3096-0.051 0.7474-0.126 1.5593-0.416 5.5301-0.311 7.7693 0.096 2.0229 0.191 4.0489 0.253 6.0798 0.168 5.4982 0.098 11.059 0.098 16.572 0 7.0165-0.253 14.064-0.629 20.997-0.157 2.904-0.577 5.609-0.577 8.5242 0 3.5756 0.138 7.1327 0.185 10.706 0.062 4.666-0.092 9.3439-0.092 14.002 0 5.745 0.378 11.376 0.458 17.111 0.077 5.518 0.608 9.482 0.669 14.998z" stroke="#111010" stroke-linecap="round" stroke-width="2"/>
<path d="m264.99 138.02c-0.546 0-1.063-9e-3 -1.597 0.144-0.806 0.229-1.548 0.072-2.353 0.048-2.055-0.064-4.089-0.214-6.145-0.293-2.135-0.083-4.233-0.474-6.373-0.474-1.735 0-3.477 0.16-5.215 0.096-1.33-0.049-2.655-0.191-3.987-0.191-1.086 0-2.093 0.433-3.175 0.595-2.582 0.389-5.207 0.65-7.82 0.65-2.054 0-4.125 0.071-6.172-0.102-0.757-0.063-1.511-0.162-2.265-0.26-1.054-0.138-2.115-0.111-3.165-0.234-0.221-0.026-0.82 0.069-1.065 0.139-0.414 0.118-3.105 0.235-3.416 0.095" stroke="#CF1A1A" stroke-linecap="round" stroke-width="3"/>
<path d="m264.99 156.67c-0.546 0-1.063-8e-3 -1.597 0.144-0.806 0.229-1.548 0.073-2.353 0.048-2.055-0.063-4.089-0.213-6.145-0.293-2.135-0.082-4.233-0.473-6.373-0.473-1.735 0-3.477 0.159-5.215 0.096-1.33-0.049-2.655-0.192-3.987-0.192-1.086 0-2.093 0.433-3.175 0.596-2.582 0.388-5.207 0.649-7.82 0.649-2.054 0-4.125 0.072-6.172-0.101-0.757-0.064-1.511-0.162-2.265-0.261-1.054-0.138-2.115-0.11-3.165-0.234-0.221-0.026-0.82 0.069-1.065 0.139-0.414 0.118-3.105 0.236-3.416 0.095" stroke="#CF1A1A" stroke-linecap="round" stroke-width="3"/>
<path d="m61.51 205.6c0-0.429 0.0089-0.834-0.1476-1.254-0.2358-0.876-0.0747-1.724-0.0492-2.601 0.065-2.235 0.219-4.449 0.3006-6.686 0.0848-2.324 0.4865-4.606 0.4865-6.934 0-1.888-0.164-3.784-0.0984-5.675 0.0503-1.448 0.1969-2.89 0.1969-4.339 0-1.181-0.4453-2.277-0.6123-3.454-0.3987-2.81 0.5138-7.634 0.5138-10.477m-0.5487 41.42c0.4144-0.109 1.5257-0.804 1.8922-1.061 0.552-0.388 1.1565-0.38 1.7751-0.516 1.577-0.345 3.1617-0.601 4.7437-0.931 1.6439-0.342 3.3391-0.371 4.9645-0.796 1.318-0.345 2.6-0.85 3.9368-1.133 1.0884-0.229 0.9066 1.398 0.1757 2.237-0.202 0.232-0.3553 0.426-0.3994 0.516-0.0902 0.185-0.3637 0.58-0.5075 0.68-0.685 0.477-1.2695 1.072-1.9666 1.54-0.4983 0.334-0.9973 0.669-1.4728 1.031-1.2874 0.98-2.4147 2.154-3.5829 3.266-1.4866 1.415-2.7948 3.03-3.9891 4.716-0.5002 0.707-0.7663 1.575-1.384 2.162-0.7576 0.721-1.6123 1.332-2.4039 2.016-1.0339 0.893-1.912 1.955-2.899 2.894-1.445 1.375-2.9914 2.715-4.8713 3.382-0.1789 0.063-0.3167 0.101-0.3891 0.101-0.4284 0-0.834-9e-3 -1.2539 0.148-0.6323 0.235-1.215 0.074-1.8477 0.049-1.6132-0.065-3.2109-0.219-4.8248-0.301-1.6772-0.084-3.3243-0.486-5.0045-0.486-1.3624 0-2.7305 0.164-4.0952 0.098-1.0449-0.05-1.1894-0.197-3.131-0.197-0.3736 0-0.939-0.167-1.6084-0.438-5.0027-2.025-7.6856-7.208-8.7268-12.504-0.3987-2.028-0.6669-4.089-0.6669-6.141 0-1.612-0.0738-3.239 0.1038-4.847 0.0656-0.594 0.1667-1.186 0.2679-1.778 0.1415-0.827 0.1134-1.661 0.2405-2.486 0.0267-0.173-0.0708-0.643-0.1427-0.836-0.1212-0.325-0.2423-2.438-0.0978-2.682m11.925 4.543c0.0656-0.988 0.1667-1.975 0.2679-2.96 0.1415-1.378 0.1133-2.766 0.2405-4.139 0.0267-0.288-0.0708-1.071-0.1427-1.392-0.1212-0.541-0.2424-4.059-0.0978-4.465m13.186-5.191c-0.0656 1.384-0.1667 2.765-0.2679 4.144-0.1415 1.928-0.1133 3.871-0.2405 5.792-0.0267 0.404 0.0708 1.5 0.1427 1.949 0.1212 0.758 0.2424 5.681 0.0978 6.25m59.823-15.863c-1.335-1.335-2.792-2.559-4.083-3.943-0.988-1.059-1.904-2.182-2.928-3.207-0.836-0.835-1.926-1.296-2.8759-2.01-2.269-1.705-5.4536-5.839-7.4644-7.85m0 0c-0.0656 1.384 0.3463 3.278 0.2451 4.657-0.1415 1.928-0.1134 3.871-0.2405 5.792-0.0267 0.403 0.0708 1.5 0.1427 1.949 0.1212 0.757 0.2423 5.681 0.0978 6.249m-0.2451-18.647c1.3841 0.066 2.7649 0.167 4.1436 0.268 1.9284 0.142 3.8711 0.114 5.7927 0.241 0.403 0.026 1.499-0.071 1.949-0.143 0.757-0.121 5.681-0.242 6.249-0.098m-45.832-26.594c1.335 1.335 2.7915 2.56 4.0822 3.943 0.9883 1.06 1.9041 2.183 2.9287 3.207 0.8355 0.836 1.9255 1.296 2.8757 2.01 2.269 1.705 5.4537 5.839 7.4644 7.85m0 0c0.0656-1.384-0.3462-3.278-0.2451-4.656 0.1415-1.929 0.1134-3.872 0.2406-5.793 0.0267-0.403-0.0709-1.499-0.1428-1.949-0.1211-0.757-0.2423-5.681-0.0978-6.249m0.2451 18.647c-1.3841-0.066-2.7649-0.167-4.1435-0.268-1.9285-0.141-3.8712-0.113-5.7924-0.24-0.4033-0.027-1.4995 0.071-1.9489 0.142-0.7575 0.122-5.6813 0.243-6.2494 0.098" stroke="#111010" stroke-linecap="round" stroke-linejoin="round" stroke-width="2"/>
</svg>
