<svg width="71" height="71" viewBox="0 0 71 71" fill="none" xmlns="http://www.w3.org/2000/svg">
<path d="M48.7253 29.001C52.4698 31.2605 59.2277 33.5231 63.0924 35.7366C58.8431 37.7497 54.4994 39.7036 50.1618 41.6541C44.0943 44.3825 38.4823 47.3918 32.4781 50.1311C31.2178 50.706 28.2904 52.5287 27.1839 53.3246C25.3187 54.6663 11.2414 62.3691 9.15244 63.0159C9.15244 61.3836 8.14042 54.8142 8.12142 52.8364C8.10799 51.4389 8.89624 37.3379 9.00435 35.7154C9.07673 34.6293 9.12248 24.1415 9.00435 21.8906C8.839 18.7398 7.71593 9.04849 7.71593 7.63928C8.95752 8.72742 23.7452 16.0603 26.3207 17.0318C27.8487 17.6082 31.3478 19.1331 32.4516 19.7896C37.7103 22.9172 43.4874 25.8405 48.7253 29.001Z" fill="#FAFAFA" stroke="#FAFAFA" stroke-width="15" stroke-linecap="round" stroke-linejoin="round"/>
</svg>
