<svg width="245" height="110" viewBox="0 0 245 110" fill="none" xmlns="http://www.w3.org/2000/svg">
<path d="M26.0737 10.2847L25.577 9.41677L25.577 9.41677L26.0737 10.2847ZM5.31378 36.0803L4.37716 35.7299L4.37716 35.7299L5.31378 36.0803ZM4.24526 69.9562L3.27197 70.1858L3.27197 70.1858L4.24526 69.9562ZM7.719 80.5766L6.84818 81.0682L6.84818 81.0682L7.719 80.5766ZM13.2514 87.5401L13.96 86.8345L13.96 86.8345L13.2514 87.5401ZM26.8151 99.0584L26.3856 99.9614L26.3856 99.9614L26.8151 99.0584ZM36.2356 103.482L35.7967 104.38L35.7967 104.38L36.2356 103.482ZM40.9895 105.08L41.1004 104.086L41.1004 104.086L40.9895 105.08ZM45.5689 106.328L44.9791 107.136L44.9791 107.136L45.5689 106.328ZM49.952 107.051L49.8521 108.046L49.8521 108.046L49.952 107.051ZM56.9519 107.818L56.9301 108.817L56.9301 108.817L56.9519 107.818ZM98.559 104.095L98.945 105.017L98.945 105.017L98.559 104.095ZM106.322 98.5329L106.915 99.3384L106.915 99.3384L106.322 98.5329ZM121.609 83.5766L122.432 84.1442L122.432 84.1442L121.609 83.5766ZM122.285 34.3723L121.414 34.8647L121.414 34.8647L122.285 34.3723ZM117.792 23.1606L117.051 23.8317L117.051 23.8317L117.792 23.1606ZM110.335 17.1606L110.912 16.3439L110.912 16.3439L110.335 17.1606ZM102.484 11.1606L102.128 12.0951L102.128 12.0951L102.484 11.1606ZM96.7927 8.46715L96.3851 9.38033L96.3851 9.38033L96.7927 8.46715ZM88.4843 5.94891L88.1206 6.8804L88.1206 6.8804L88.4843 5.94891ZM81.0047 3.38686L81.1292 2.39465L81.1292 2.39465L81.0047 3.38686ZM75.662 3.05839L75.4383 4.03305L75.4383 4.03305L75.662 3.05839ZM79.2507 82.325L79.5513 83.2788L79.5513 83.2788L79.2507 82.325ZM87.046 79.5276L87.5404 80.3968L87.5404 80.3968L87.046 79.5276ZM98.0804 65.9019L97.1445 65.5496L98.0804 65.9019ZM98.6483 48.0081L99.6213 47.7771L99.6213 47.7771L98.6483 48.0081ZM96.8019 42.3982L97.6714 41.9043L97.6714 41.9043L96.8019 42.3982ZM93.8613 38.7199L94.5677 38.0121L94.5677 38.0121L93.8613 38.7199ZM86.6519 32.6358L87.0793 31.7317L87.0793 31.7317L86.6519 32.6358ZM81.6447 30.2993L82.0815 29.3997L82.0815 29.3997L81.6447 30.2993ZM79.118 29.4549L79.2282 28.461L79.2282 28.461L79.118 29.4549ZM76.6839 28.7956L77.2713 27.9863L77.2713 27.9863L76.6839 28.7956ZM74.3542 28.4139L74.2549 29.409L74.2549 29.409L74.3542 28.4139ZM70.6336 28.0091L70.6553 27.0093L70.6553 27.0093L70.6336 28.0091ZM48.5185 29.9754L48.1346 29.0521L48.1346 29.0521L48.5185 29.9754ZM44.3922 32.9134L44.9823 33.7207L44.9823 33.7207L44.3922 32.9134ZM40.5325 35.5159L39.8262 34.8081L39.8262 34.8081L40.5325 35.5159ZM36.2672 40.8135L37.0888 41.3835L37.0888 41.3835L36.2672 40.8135ZM35.9079 66.8041L36.7769 66.3094L36.7769 66.3094L35.9079 66.8041ZM38.2955 72.7263L37.5563 73.3998L37.5563 73.3998L38.2955 72.7263ZM42.2596 75.8956L41.6849 76.714L41.6849 76.714L42.2596 75.8956ZM46.4322 79.0649L46.0782 80.0002L46.0782 80.0002L46.4322 79.0649ZM49.4574 80.4877L49.8628 79.5735L49.8628 79.5735L49.4574 80.4877ZM53.8734 81.8178L53.5116 82.7501L53.5116 82.7501L53.8734 81.8178ZM57.849 83.1712L57.7253 84.1635L57.7253 84.1635L57.849 83.1712ZM60.6888 83.3447L60.9112 82.3697L60.9112 82.3697L60.6888 83.3447ZM138.228 24.711L137.519 24.0054C137.241 24.2841 137.153 24.6997 137.293 25.0673C137.433 25.4348 137.776 25.6861 138.169 25.7093L138.228 24.711ZM141.899 27.3222L142.681 26.6991L142.681 26.6991L141.899 27.3222ZM146.114 31.5377L145.443 32.2796L145.443 32.2796L146.114 31.5377ZM153.354 37.767L152.563 38.3793L153.354 37.767ZM155.903 39.832L156.612 39.1264L156.612 39.1264L155.903 39.832ZM157.263 38.2278L158.125 38.7332L158.125 38.7332L157.263 38.2278ZM161.002 34.695L160.237 34.0506L160.237 34.0506L161.002 34.695ZM166.355 30.855L165.695 30.1038L165.695 30.1038L166.355 30.855ZM172.729 26.8614L172.151 26.0447L172.151 26.0447L172.729 26.8614ZM177.997 24.7793L178.241 25.7492L178.241 25.7492L177.997 24.7793ZM209.49 27.4758L208.729 28.125L208.729 28.125L209.49 27.4758ZM210.119 36.2139L209.25 35.7193L209.25 35.7193L210.119 36.2139ZM199.412 44.0646L199.89 44.9426L199.89 44.9426L199.412 44.0646ZM188.093 49.7477L187.87 48.7728L187.87 48.7728L188.093 49.7477ZM174.768 54.4411L174.326 53.544L174.326 53.544L174.768 54.4411ZM145.4 74.7162L144.541 74.2033L144.541 74.2033L145.4 74.7162ZM141.457 81.5258L142.334 82.0062L142.334 82.0062L141.457 81.5258ZM138.075 90.8954L139.016 91.2328L139.016 91.2328L138.075 90.8954ZM136.392 104.276H135.392C135.392 104.828 135.84 105.276 136.392 105.276V104.276ZM186.767 105.487L186.81 104.488L186.81 104.488L186.767 105.487ZM237.822 105.351L238.054 106.323L238.054 106.323L237.822 105.351ZM242.546 104.89L242.605 105.888L242.605 105.888L242.546 104.89ZM243.787 84.2733L244.781 84.3833L244.781 84.3833L243.787 84.2733ZM200.329 82.4643L200.357 83.4639L200.357 83.4639L200.329 82.4643ZM178.184 83.4029L178.097 84.3991L178.097 84.3991L178.184 83.4029ZM172.559 82.4643L171.674 81.9979L171.674 81.9979L172.559 82.4643ZM177.521 79.2387L177.937 80.1484L177.937 80.1484L177.521 79.2387ZM181.056 77.0029L180.627 76.0999L180.627 76.0999L181.056 77.0029ZM191.857 71.2396L191.498 70.3063L191.498 70.3063L191.857 71.2396ZM217.937 61.5065L218.386 62.4001L218.386 62.4001L217.937 61.5065ZM225.126 57.7347L225.604 58.6132L225.604 58.6132L225.126 57.7347ZM235.629 48.7065L236.363 49.3854L236.363 49.3854L235.629 48.7065ZM237.305 19.1838L236.491 19.7655L236.491 19.7655L237.305 19.1838ZM200.378 3.13928L200.291 4.13549C200.32 4.13802 200.349 4.13928 200.378 4.13928V3.13928ZM192.212 2.42619L192.299 1.42998C192.27 1.42745 192.241 1.42619 192.212 1.42619V2.42619ZM178.72 3.51415L178.814 4.5097L178.72 3.51415ZM161.677 8.13081L161.42 7.16437L161.42 7.16437L161.677 8.13081ZM150.872 13.7882L150.356 12.9316L150.356 12.9316L150.872 13.7882ZM142.408 19.3519L143.039 20.1279L143.039 20.1279L142.408 19.3519ZM40.4375 4.03547C37.1107 5.09043 30.9884 6.31952 25.577 9.41677L26.5705 11.1526C31.7348 8.19673 37.4304 7.08719 41.042 5.94191L40.4375 4.03547ZM4.37716 35.7299C2.02608 42.0153 0.971382 47.3788 0.902105 52.8222C0.832991 58.2527 1.7457 63.7162 3.27197 70.1858L5.21854 69.7266C3.70635 63.3167 2.83589 58.0376 2.90194 52.8477C2.96783 47.6706 3.96663 42.536 6.2504 36.4306L4.37716 35.7299ZM3.27197 70.1858C4.26281 74.3858 4.61678 77.1155 6.84818 81.0682L8.58982 80.085C6.53342 76.4422 6.24156 74.063 5.21854 69.7266L3.27197 70.1858ZM6.84818 81.0682C8.62361 84.2132 10.3455 86.0393 12.5428 88.2458L13.96 86.8345C11.8013 84.6668 10.2313 82.9928 8.58982 80.085L6.84818 81.0682ZM12.5428 88.2458C16.5266 92.2462 20.8955 97.35 26.3856 99.9614L27.2447 98.1554C22.1602 95.7369 18.1243 91.0162 13.96 86.8345L12.5428 88.2458ZM26.3856 99.9614C29.5618 101.472 32.6805 102.858 35.7967 104.38L36.6746 102.583C33.5693 101.066 30.3361 99.6258 27.2447 98.1554L26.3856 99.9614ZM35.7967 104.38C37.3226 105.126 39.0603 105.871 40.8786 106.074L41.1004 104.086C39.6451 103.924 38.1686 103.313 36.6746 102.583L35.7967 104.38ZM40.8786 106.074C41.2741 106.118 42.1831 106.281 43.094 106.504C43.5456 106.615 43.9781 106.736 44.3342 106.858C44.7196 106.991 44.9195 107.092 44.9791 107.136L46.1586 105.521C45.8366 105.286 45.3864 105.105 44.983 104.967C44.5503 104.818 44.0554 104.681 43.5706 104.562C42.6088 104.326 41.6099 104.143 41.1004 104.086L40.8786 106.074ZM44.9791 107.136C45.3654 107.418 45.8228 107.584 46.2455 107.69C46.6769 107.799 47.1381 107.862 47.5754 107.903C48.0144 107.945 48.4565 107.966 48.847 107.985C49.2503 108.004 49.5836 108.019 49.8521 108.046L50.0519 106.056C49.7184 106.023 49.3229 106.005 48.9417 105.987C48.5476 105.968 48.1494 105.948 47.7632 105.912C47.3754 105.875 47.0266 105.824 46.7342 105.751C46.4331 105.675 46.2529 105.59 46.1586 105.521L44.9791 107.136ZM49.8521 108.046C50.9828 108.16 52.1132 108.333 53.3099 108.493C54.4888 108.651 55.7074 108.791 56.9301 108.817L56.9738 106.818C55.8659 106.794 54.7368 106.666 53.5746 106.511C52.4301 106.358 51.2258 106.174 50.0519 106.056L49.8521 108.046ZM56.9301 108.817C59.0259 108.863 61.1111 109.15 63.2621 109.435C65.3924 109.718 67.5852 110 69.796 110V108C67.7363 108 65.6687 107.738 63.5254 107.453C61.4029 107.171 59.2014 106.866 56.9738 106.818L56.9301 108.817ZM69.796 110H83.9049V108H69.796V110ZM83.9049 110C87.0063 110 89.5206 109.266 91.889 108.276C93.0639 107.784 94.2119 107.225 95.3629 106.668C96.5214 106.106 97.6899 105.543 98.945 105.017L98.173 103.172C96.8606 103.722 95.6459 104.308 94.4907 104.868C93.328 105.431 92.2317 105.964 91.1172 106.431C88.9069 107.355 86.6615 108 83.9049 108V110ZM98.945 105.017C100.457 104.385 101.888 103.363 103.199 102.325C104.565 101.244 105.726 100.213 106.915 99.3384L105.73 97.7273C104.525 98.6131 103.186 99.785 101.958 100.757C100.676 101.771 99.4217 102.65 98.173 103.172L98.945 105.017ZM106.915 99.3384C108.101 98.4659 109.291 97.8293 110.565 97.0761C111.817 96.3364 113.1 95.5091 114.292 94.3115L112.875 92.9002C111.864 93.9153 110.757 94.6397 109.548 95.3544C108.362 96.0555 107.023 96.7761 105.73 97.7273L106.915 99.3384ZM114.292 94.3115C117.46 91.1304 119.953 87.7396 122.432 84.1442L120.785 83.009C118.325 86.5782 115.913 89.8495 112.875 92.9002L114.292 94.3115ZM122.432 84.1442C123.262 82.9399 124.327 81.3904 125.182 79.7459C126.029 78.1172 126.73 76.283 126.73 74.5109H124.73C124.73 75.8003 124.205 77.2895 123.407 78.8236C122.618 80.3418 121.623 81.7944 120.785 83.009L122.432 84.1442ZM126.73 74.5109C126.73 72.1764 126.827 69.8393 126.926 67.4756C127.023 65.1188 127.123 62.7355 127.123 60.3431H125.123C125.123 62.6871 125.026 65.0289 124.927 67.3925C124.829 69.7492 124.73 72.1278 124.73 74.5109H126.73ZM127.123 60.3431C127.123 51.7417 127.744 41.99 123.155 33.8798L121.414 34.8647C125.68 42.4033 125.123 51.4876 125.123 60.3431H127.123ZM123.155 33.8798C122.269 32.313 121.86 30.4301 121.295 28.3458C120.751 26.3411 120.063 24.1791 118.534 22.4894L117.051 23.8317C118.23 25.1335 118.822 26.8698 119.364 28.8693C119.885 30.7893 120.369 33.0165 121.414 34.8647L123.155 33.8798ZM118.534 22.4894C116.297 20.019 113.455 18.1414 110.912 16.3439L109.758 17.9773C112.388 19.8361 115 21.5659 117.051 23.8317L118.534 22.4894ZM110.912 16.3439C109.668 15.4647 108.53 14.3259 107.204 13.1441C105.925 12.0054 104.5 10.8584 102.84 10.2261L102.128 12.0951C103.423 12.5882 104.617 13.5187 105.873 14.6374C107.08 15.7129 108.391 17.0114 109.758 17.9773L110.912 16.3439ZM102.84 10.2261C101.912 9.8726 101.007 9.43299 100.073 8.96182C99.1512 8.49727 98.1864 7.99407 97.2002 7.55397L96.3851 9.38033C97.3149 9.79531 98.2165 10.2658 99.1722 10.7477C100.115 11.2229 101.098 11.7025 102.128 12.0951L102.84 10.2261ZM97.2002 7.55397C95.7818 6.92092 94.2976 6.53601 92.8917 6.18665C91.4598 5.83084 90.1189 5.51366 88.8481 5.01741L88.1206 6.8804C89.5384 7.43406 91.0233 7.78319 92.4093 8.12762C93.8214 8.4785 95.147 8.82776 96.3851 9.38033L97.2002 7.55397ZM88.8481 5.01741C86.4043 4.06305 84.1739 2.77682 81.1292 2.39465L80.8801 4.37908C83.5959 4.71997 85.347 5.79728 88.1206 6.8804L88.8481 5.01741ZM81.1292 2.39465C80.149 2.27161 79.1818 2.29465 78.3338 2.29259C77.4581 2.29047 76.6693 2.26359 75.8858 2.08374L75.4383 4.03305C76.4548 4.26636 77.4347 4.29042 78.329 4.29259C79.251 4.29482 80.055 4.27551 80.8801 4.37908L81.1292 2.39465ZM75.8858 2.08374C75.387 1.96926 74.8742 1.77964 74.2028 1.57125C73.592 1.38165 72.8617 1.18248 72.1512 1.18248V3.18248C72.5337 3.18248 73.012 3.29574 73.6099 3.48134C74.1473 3.64814 74.8433 3.89649 75.4383 4.03305L75.8858 2.08374ZM72.1512 1.18248C70.951 1.18248 69.795 0.917024 68.4967 0.61693C67.2314 0.324457 65.8333 0 64.3226 0V2C65.5709 2 66.7538 2.26678 68.0463 2.56555C69.3059 2.8567 70.6847 3.18248 72.1512 3.18248V1.18248ZM25.577 9.41677C19.8826 12.676 15.7199 16.174 12.4038 20.4257C9.0942 24.6692 6.66295 29.6192 4.37716 35.7299L6.2504 36.4306C8.5001 30.4163 10.8459 25.6753 13.9809 21.6557C17.1094 17.6444 21.0589 14.3071 26.5705 11.1526L25.577 9.41677ZM41.042 5.94191C42.6943 5.41795 47.8202 4.43197 52.9631 3.56798C55.5152 3.13925 58.042 2.74535 60.0995 2.45898C62.1897 2.16806 63.7165 2 64.3226 2V0C63.5491 0 61.8719 0.193013 59.8238 0.478077C57.7429 0.767693 55.1969 1.16469 52.6318 1.59562C47.5404 2.45095 42.2544 3.45932 40.4375 4.03547L41.042 5.94191ZM79.5513 83.2788C81.2533 82.7424 84.6066 82.0656 87.5404 80.3968L86.5516 78.6584C83.8642 80.187 80.936 80.7455 78.9501 81.3713L79.5513 83.2788ZM99.0163 66.2542C100.282 62.8914 100.856 60.0036 100.894 57.0646C100.931 54.1387 100.436 51.2087 99.6213 47.7771L97.6753 48.239C98.4757 51.6106 98.9282 54.3551 98.8939 57.039C98.8597 59.7099 98.3422 62.3675 97.1445 65.5496L99.0163 66.2542ZM99.6213 47.7771C99.1023 45.591 98.8993 44.0658 97.6714 41.9043L95.9324 42.8921C96.9837 44.7427 97.1239 45.9161 97.6753 48.239L99.6213 47.7771ZM97.6714 41.9043C96.6959 40.1869 95.7446 39.1866 94.5677 38.0121L93.155 39.4278C94.2933 40.5638 95.0918 41.4123 95.9324 42.8921L97.6714 41.9043ZM94.5677 38.0121C92.4925 35.9412 90.0922 33.1559 87.0793 31.7317L86.2246 33.5399C88.8323 34.7725 90.8993 37.1767 93.155 39.4278L94.5677 38.0121ZM87.0793 31.7317C85.3714 30.9244 83.7403 30.205 82.0815 29.3997L81.208 31.1989C82.856 31.9989 84.6011 32.7724 86.2246 33.5399L87.0793 31.7317ZM82.0815 29.3997C81.2628 29.0022 80.2787 28.5775 79.2282 28.461L79.0078 30.4488C79.6972 30.5253 80.4215 30.817 81.208 31.1989L82.0815 29.3997ZM79.2282 28.461C79.0443 28.4406 78.582 28.3593 78.1096 28.2441C77.8773 28.1875 77.6619 28.1273 77.4904 28.0688C77.2895 28.0004 77.2417 27.9648 77.2713 27.9863L76.0965 29.6049C76.329 29.7737 76.6267 29.8874 76.8452 29.9619C77.0929 30.0463 77.3705 30.1225 77.6358 30.1872C78.1588 30.3147 78.7106 30.4159 79.0078 30.4488L79.2282 28.461ZM77.2713 27.9863C76.9977 27.7877 76.69 27.6818 76.4373 27.6185C76.1758 27.553 75.9047 27.5169 75.6608 27.494C75.4153 27.471 75.1702 27.4592 74.9634 27.4495C74.7439 27.4391 74.5812 27.4316 74.4535 27.4188L74.2549 29.409C74.4472 29.4281 74.6718 29.4379 74.8693 29.4472C75.0796 29.4571 75.2811 29.4672 75.4742 29.4853C75.6689 29.5036 75.8283 29.5277 75.9515 29.5586C76.0835 29.5917 76.1148 29.6181 76.0966 29.6049L77.2713 27.9863ZM74.4535 27.4188C73.8625 27.3599 73.2787 27.2704 72.6306 27.1844C72.0001 27.1007 71.3317 27.024 70.6553 27.0093L70.6119 29.0088C71.1742 29.021 71.7536 29.0856 72.3675 29.167C72.9638 29.2462 73.621 29.3457 74.2549 29.409L74.4535 27.4188ZM70.6553 27.0093C69.5718 26.9858 68.4903 26.8384 67.3405 26.6867C66.2111 26.5376 65.0167 26.3845 63.8067 26.3845V28.3845C64.8666 28.3845 65.9366 28.5187 67.0787 28.6695C68.2004 28.8175 69.3974 28.9825 70.6119 29.0088L70.6553 27.0093ZM63.8067 26.3845H56.3075V28.3845H63.8067V26.3845ZM56.3075 26.3845C54.5794 26.3845 53.1807 26.7923 51.885 27.331C51.2465 27.5964 50.6243 27.8976 50.0153 28.1908C49.3987 28.4877 48.7884 28.7802 48.1346 29.0521L48.9025 30.8988C49.6134 30.6032 50.2698 30.2881 50.883 29.9928C51.5038 29.6938 52.0744 29.4182 52.6528 29.1777C53.7908 28.7046 54.922 28.3845 56.3075 28.3845V26.3845ZM48.1346 29.0521C47.2695 29.4118 46.468 29.9848 45.7639 30.5386C45.0056 31.1349 44.4302 31.6471 43.8022 32.106L44.9823 33.7207C45.6263 33.2501 46.3802 32.5983 47.0003 32.1106C47.6745 31.5804 48.3001 31.1492 48.9025 30.8988L48.1346 29.0521ZM43.8022 32.106C43.1966 32.5486 42.5987 32.8654 41.9008 33.2754C41.226 33.6718 40.5029 34.1327 39.8262 34.8081L41.2389 36.2238C41.7334 35.7303 42.2812 35.3716 42.9139 34.9998C43.5236 34.6416 44.2699 34.2415 44.9823 33.7207L43.8022 32.106ZM39.8262 34.8081C38.1117 36.519 36.7673 38.3382 35.4455 40.2435L37.0888 41.3835C38.3924 39.5045 39.6548 37.8046 41.2389 36.2237L39.8262 34.8081ZM35.4455 40.2435C35.0059 40.8772 34.4232 41.7186 33.9533 42.6171C33.4918 43.4997 33.0765 44.5508 33.0765 45.6022H35.0765C35.0765 45.0365 35.3134 44.3321 35.7256 43.544C36.1294 42.7719 36.642 42.0275 37.0888 41.3835L35.4455 40.2435ZM33.0765 45.6022C33.0765 46.8237 33.0254 48.0483 32.9731 49.2985C32.9211 50.5418 32.8679 51.8106 32.8679 53.0859H34.8679C34.8679 51.8593 34.919 50.6322 34.9713 49.3821C35.0233 48.139 35.0765 46.8726 35.0765 45.6022H33.0765ZM32.8679 53.0859C32.8679 57.5689 32.5224 62.8791 35.0388 67.2989L36.7769 66.3094C34.5871 62.4633 34.8679 57.8239 34.8679 53.0859H32.8679ZM35.0388 67.2989C35.472 68.0597 35.6712 68.9725 35.9823 70.1124C36.2718 71.173 36.6599 72.4158 37.5563 73.3998L39.0348 72.0529C38.4917 71.4568 38.1996 70.6404 37.9118 69.5859C37.6456 68.6107 37.3707 67.3524 36.7769 66.3094L35.0388 67.2989ZM37.5563 73.3998C38.7887 74.7527 40.3533 75.7789 41.6849 76.714L42.8343 75.0773C41.4156 74.0811 40.0814 73.2018 39.0348 72.0529L37.5563 73.3998ZM41.6849 76.714C42.3174 77.1582 42.8814 77.7225 43.6145 78.3715C44.2992 78.9778 45.1107 79.634 46.0782 80.0002L46.7862 78.1297C46.1832 77.9014 45.6022 77.4602 44.9403 76.8741C44.3266 76.3308 43.5896 75.6077 42.8343 75.0773L41.6849 76.714ZM46.0782 80.0002C46.5476 80.1779 47.0106 80.4008 47.5054 80.6488C47.9871 80.8901 48.5147 81.1635 49.0519 81.4018L49.8628 79.5735C49.3817 79.3602 48.9173 79.1192 48.4013 78.8607C47.8984 78.6087 47.3579 78.3461 46.7862 78.1297L46.0782 80.0002ZM49.0519 81.4018C49.8478 81.7548 50.6735 81.9663 51.4193 82.1505C52.191 82.341 52.8703 82.5012 53.5116 82.7501L54.2352 80.8856C53.4475 80.5799 52.6249 80.3881 51.8988 80.2088C51.1468 80.0231 50.479 79.8468 49.8628 79.5735L49.0519 81.4018ZM53.5116 82.7501C54.7341 83.2245 56.0308 83.9521 57.7253 84.1635L57.9728 82.1789C56.6055 82.0083 55.7859 81.4874 54.2352 80.8856L53.5116 82.7501ZM57.7253 84.1635C58.2821 84.2329 58.8339 84.2199 59.2675 84.221C59.7287 84.2221 60.1038 84.2369 60.4664 84.3196L60.9112 82.3697C60.317 82.2342 59.7519 82.2221 59.2724 82.221C58.7652 82.2197 58.3755 82.2291 57.9728 82.1789L57.7253 84.1635ZM60.4664 84.3196C60.7092 84.375 60.9393 84.4616 61.3272 84.5813C61.6549 84.6824 62.1014 84.8073 62.5549 84.8073V82.8073C62.4274 82.8073 62.2315 82.7672 61.9167 82.6702C61.6622 82.5916 61.2497 82.4469 60.9112 82.3697L60.4664 84.3196ZM62.5549 84.8073C63.1312 84.8073 63.6941 84.9337 64.3931 85.0943C65.0594 85.2473 65.8523 85.4319 66.7159 85.4319V83.4319C66.113 83.4319 65.5341 83.3043 64.8409 83.145C64.1803 82.9933 63.3959 82.8073 62.5549 82.8073V84.8073ZM87.5404 80.3968C90.6097 78.651 92.8725 76.7659 94.6794 74.4635C96.48 72.1691 97.7926 69.505 99.0163 66.2542L97.1445 65.5496C95.9574 68.7035 94.7309 71.1583 93.1061 73.2287C91.4875 75.291 89.4385 77.0163 86.5516 78.6584L87.5404 80.3968ZM78.9501 81.3713C78.11 81.636 75.4226 82.1517 72.6771 82.6101C71.3237 82.836 69.9851 83.0434 68.8968 83.1939C67.7761 83.3489 66.9994 83.4319 66.7159 83.4319V85.4319C67.1657 85.4319 68.092 85.3243 69.1709 85.175C70.2823 85.0213 71.64 84.8109 73.0064 84.5828C75.7007 84.1329 78.5474 83.5952 79.5513 83.2788L78.9501 81.3713ZM138.169 25.7093C138.672 25.739 139.169 25.9779 139.685 26.4026C140.205 26.8305 140.671 27.3859 141.116 27.9453L142.681 26.6991C142.232 26.1357 141.653 25.4323 140.956 24.8586C140.256 24.2817 139.365 23.7764 138.287 23.7128L138.169 25.7093ZM141.116 27.9453C142.414 29.574 144.002 30.977 145.443 32.2796L146.784 30.7958C145.305 29.4591 143.855 28.1731 142.681 26.6991L141.116 27.9453ZM145.443 32.2796C146.106 32.8792 146.868 33.345 147.521 33.76C148.201 34.1927 148.794 34.5883 149.297 35.0934L150.714 33.6822C150.038 33.003 149.272 32.5038 148.594 32.0726C147.889 31.6238 147.294 31.2567 146.784 30.7958L145.443 32.2796ZM149.297 35.0934C149.872 35.671 150.501 36.2324 151.038 36.7411C151.594 37.2688 152.106 37.7895 152.563 38.3793L154.144 37.1546C153.595 36.4459 152.998 35.8438 152.414 35.2899C151.81 34.717 151.268 34.2381 150.714 33.6822L149.297 35.0934ZM152.563 38.3793C153.012 38.9586 153.57 39.351 154.026 39.6596C154.517 39.9914 154.882 40.2239 155.194 40.5377L156.612 39.1264C156.128 38.6413 155.561 38.283 155.147 38.003C154.698 37.6996 154.38 37.4589 154.144 37.1546L152.563 38.3793ZM155.194 40.5377C155.653 40.9978 156.214 40.8462 156.422 40.755C156.629 40.6638 156.786 40.5259 156.873 40.4442C157.066 40.2623 157.257 40.0213 157.41 39.8138C157.728 39.3835 158.031 38.8945 158.125 38.7332L156.4 37.7223C156.33 37.8411 156.066 38.2673 155.801 38.6257C155.663 38.8126 155.559 38.9343 155.502 38.9882C155.463 39.0244 155.506 38.9727 155.617 38.9241C155.677 38.8977 155.816 38.846 156.005 38.8557C156.223 38.8669 156.443 38.9574 156.612 39.1264L155.194 40.5377ZM158.125 38.7332C158.444 38.1901 158.967 37.7282 159.662 37.1852C160.305 36.6832 161.142 36.0803 161.766 35.3394L160.237 34.0506C159.784 34.5881 159.176 35.0269 158.431 35.6092C157.738 36.1507 156.931 36.8159 156.4 37.7223L158.125 38.7332ZM161.766 35.3394C162.39 34.5991 163.176 34.0828 164.106 33.5357C165 33.0097 166.077 32.4303 167.015 31.6062L165.695 30.1038C164.938 30.7689 164.08 31.23 163.091 31.812C162.139 32.3729 161.095 33.0319 160.237 34.0506L161.766 35.3394ZM167.015 31.6062C167.845 30.8773 168.851 30.2792 169.96 29.6619C171.039 29.0612 172.241 28.4304 173.306 27.6781L172.151 26.0447C171.2 26.7171 170.132 27.2772 168.987 27.9143C167.873 28.5346 166.7 29.2209 165.695 30.1038L167.015 31.6062ZM173.306 27.6781C174.669 26.7148 176.426 26.2047 178.241 25.7492L177.754 23.8094C175.958 24.2603 173.856 24.8401 172.151 26.0447L173.306 27.6781ZM178.241 25.7492C181.201 25.0059 183.76 24.4822 186.716 24.4822V22.4822C183.51 22.4822 180.76 23.0547 177.754 23.8094L178.241 25.7492ZM186.716 24.4822H199.955V22.4822H186.716V24.4822ZM199.955 24.4822C203.509 24.4822 206.544 25.5651 208.729 28.125L210.251 26.8266C207.592 23.7124 203.934 22.4822 199.955 22.4822V24.4822ZM208.729 28.125C209.494 29.0212 209.948 30.3705 210.031 31.8301C210.115 33.2879 209.82 34.7163 209.25 35.7193L210.988 36.7085C211.789 35.3001 212.128 33.4693 212.028 31.7158C211.928 29.9642 211.38 28.1501 210.251 26.8266L208.729 28.125ZM209.25 35.7193C208.341 37.3157 206.71 38.6918 204.773 39.9349C202.833 41.1798 200.747 42.1979 198.933 43.1865L199.89 44.9426C201.597 44.0122 203.834 42.914 205.853 41.618C207.876 40.32 209.837 38.7303 210.988 36.7085L209.25 35.7193ZM198.933 43.1865C197.942 43.7265 197.005 44.2946 196.101 44.8496C195.191 45.4084 194.321 45.9493 193.436 46.4564C191.675 47.4662 189.909 48.3076 187.87 48.7728L188.315 50.7227C190.626 50.1953 192.587 49.2486 194.431 48.1916C195.349 47.6654 196.252 47.1034 197.147 46.5541C198.048 46.0011 198.948 45.4561 199.89 44.9426L198.933 43.1865ZM187.87 48.7728C183.202 49.8382 178.669 51.4046 174.326 53.544L175.21 55.3381C179.404 53.2721 183.788 51.7557 188.315 50.7227L187.87 48.7728ZM174.326 53.544C169.123 56.1073 163.267 58.5652 157.999 61.6776C152.697 64.8099 147.84 68.6825 144.541 74.2033L146.258 75.2291C149.319 70.1066 153.865 66.4432 159.017 63.3995C164.202 60.3359 169.851 57.9779 175.21 55.3381L174.326 53.544ZM144.541 74.2033C143.193 76.4602 141.854 78.7185 140.58 81.0454L142.334 82.0062C143.589 79.7153 144.91 77.4853 146.258 75.2291L144.541 74.2033ZM140.58 81.0454C139.714 82.6256 139.13 84.2466 138.625 85.8404C138.109 87.4667 137.695 88.991 137.133 90.5579L139.016 91.2328C139.592 89.627 140.05 87.9624 140.531 86.445C141.022 84.8952 141.561 83.4178 142.334 82.0062L140.58 81.0454ZM137.133 90.5579C135.484 95.1577 135.392 99.5916 135.392 104.276H137.392C137.392 99.5881 137.496 95.4714 139.016 91.2328L137.133 90.5579ZM136.392 105.276C137.649 105.276 138.868 105.196 140.05 105.12C141.242 105.043 142.398 104.968 143.581 104.968V102.968C142.323 102.968 141.104 103.047 139.921 103.124C138.729 103.201 137.574 103.276 136.392 103.276V105.276ZM143.581 104.968C144.763 104.968 145.91 105.043 147.089 105.12C148.259 105.196 149.461 105.275 150.702 105.275V103.275C149.537 103.275 148.399 103.201 147.22 103.124C146.049 103.047 144.839 102.968 143.581 102.968V104.968ZM150.702 105.275H172.491V103.275H150.702V105.275ZM172.491 105.275C173.541 105.275 174.57 105.349 175.639 105.426C176.698 105.503 177.798 105.583 178.932 105.583V103.583C177.881 103.583 176.853 103.509 175.783 103.432C174.724 103.355 173.625 103.275 172.491 103.275V105.275ZM178.932 105.583C180.174 105.583 181.398 105.767 182.695 105.979C183.969 106.188 185.328 106.427 186.724 106.486L186.81 104.488C185.56 104.435 184.334 104.221 183.018 104.006C181.725 103.794 180.355 103.583 178.932 103.583V105.583ZM186.724 106.486C194.921 106.836 203.198 107.119 211.411 107.119V105.119C203.241 105.119 194.998 104.838 186.81 104.488L186.724 106.486ZM211.411 107.119H224.497V105.119H211.411V107.119ZM224.497 107.119C228.877 107.119 233.543 107.402 238.054 106.323L237.589 104.378C233.375 105.386 229.052 105.119 224.497 105.119V107.119ZM238.054 106.323C239.584 105.957 240.824 105.993 242.605 105.888L242.487 103.892C240.884 103.986 239.345 103.958 237.589 104.378L238.054 106.323ZM242.605 105.888C243.096 105.859 243.382 105.541 243.504 105.363C243.63 105.179 243.701 104.979 243.744 104.831C243.834 104.524 243.887 104.145 243.921 103.765C243.991 102.987 244.004 101.973 243.993 100.964C243.982 99.9475 243.947 98.9047 243.914 98.0598C243.88 97.1918 243.852 96.5767 243.852 96.3565H241.852C241.852 96.6283 241.884 97.32 241.916 98.1371C241.948 98.9771 241.983 99.9975 241.994 100.986C242.004 101.981 241.99 102.913 241.929 103.585C241.898 103.93 241.859 104.153 241.825 104.269C241.806 104.332 241.807 104.3 241.854 104.232C241.897 104.169 242.095 103.915 242.487 103.892L242.605 105.888ZM243.852 96.3565C243.852 92.3651 244.334 88.4231 244.781 84.3833L242.793 84.1633C242.351 88.1614 241.852 92.2296 241.852 96.3565H243.852ZM244.781 84.3833C244.831 83.9324 244.885 83.521 244.896 83.2393C244.902 83.0949 244.902 82.8902 244.849 82.6806C244.788 82.4401 244.647 82.1572 244.354 81.9548C244.096 81.7766 243.828 81.7383 243.676 81.7262C243.519 81.7136 243.356 81.7213 243.231 81.7285C242.955 81.7445 242.662 81.7715 242.24 81.7715V83.7715C242.739 83.7715 243.127 83.7379 243.347 83.7252C243.403 83.7219 243.444 83.7202 243.476 83.7196C243.508 83.7191 243.519 83.72 243.516 83.7198C243.515 83.7196 243.483 83.7172 243.434 83.7034C243.382 83.689 243.303 83.6596 243.218 83.6004C243.128 83.5387 243.054 83.4598 242.998 83.3719C242.945 83.2884 242.921 83.2144 242.91 83.17C242.891 83.0977 242.901 83.0728 242.898 83.1622C242.895 83.2405 242.884 83.3537 242.865 83.5293C242.856 83.6145 242.845 83.7082 242.833 83.8147C242.821 83.9203 242.807 84.0368 242.793 84.1633L244.781 84.3833ZM242.24 81.7715H236.054V83.7715H242.24V81.7715ZM236.054 81.7715C234.489 81.7715 232.949 81.6232 231.36 81.4689C229.786 81.3161 228.161 81.1571 226.503 81.1571V83.1571C228.048 83.1571 229.577 83.3052 231.167 83.4596C232.742 83.6125 234.376 83.7715 236.054 83.7715V81.7715ZM226.503 81.1571H209.813V83.1571H226.503V81.1571ZM209.813 81.1571C206.626 81.1571 203.372 81.379 200.302 81.4646L200.357 83.4639C203.556 83.3746 206.645 83.1571 209.813 83.1571V81.1571ZM200.302 81.4646C198.703 81.5092 197.113 81.7499 195.602 81.9672C194.068 82.1878 192.604 82.3859 191.152 82.3859V84.3859C192.767 84.3859 194.363 84.1658 195.886 83.9469C197.432 83.7247 198.898 83.5046 200.357 83.4639L200.302 81.4646ZM191.152 82.3859C186.671 82.3859 182.603 82.785 178.271 82.4067L178.097 84.3991C182.527 84.7859 186.935 84.3859 191.152 84.3859V82.3859ZM178.271 82.4067C177.899 82.3742 177.268 82.399 176.666 82.4192C176.019 82.4408 175.311 82.4626 174.669 82.4441C173.992 82.4247 173.524 82.3619 173.295 82.2766C173.171 82.2303 173.293 82.2409 173.396 82.4199C173.547 82.6815 173.454 82.9104 173.443 82.9306L171.674 81.9979C171.471 82.3839 171.371 82.9134 171.665 83.421C171.911 83.8463 172.323 84.0487 172.598 84.151C173.167 84.3628 173.933 84.4239 174.612 84.4433C175.325 84.4638 176.094 84.4394 176.733 84.4181C177.417 84.3952 177.88 84.3802 178.097 84.3991L178.271 82.4067ZM173.443 82.9306C173.805 82.2438 174.399 81.7645 175.199 81.3435C175.601 81.1319 176.035 80.9447 176.504 80.7518C176.958 80.5644 177.463 80.3648 177.937 80.1484L177.106 78.329C176.677 78.5248 176.233 78.7004 175.742 78.9026C175.264 79.0993 174.757 79.316 174.267 79.5737C173.284 80.0914 172.299 80.8127 171.674 81.9979L173.443 82.9306ZM177.937 80.1484C178.674 79.8119 179.319 79.3433 179.874 78.9403C180.457 78.5177 180.95 78.1611 181.486 77.906L180.627 76.0999C179.895 76.4482 179.252 76.9211 178.7 77.3213C178.121 77.741 177.633 78.0885 177.106 78.329L177.937 80.1484ZM181.486 77.906C182.943 77.2129 184.967 76.0217 186.923 74.9046C188.923 73.7622 190.848 72.6991 192.216 72.173L191.498 70.3063C189.961 70.8974 187.899 72.0439 185.931 73.168C183.919 74.3173 181.995 75.4491 180.627 76.0999L181.486 77.906ZM192.216 72.173C196.976 70.3422 201.151 69.0786 205.355 67.6725C209.548 66.2702 213.725 64.7402 218.386 62.4001L217.488 60.6128C212.949 62.8917 208.874 64.3869 204.721 65.7758C200.579 67.1608 196.314 68.4543 191.498 70.3063L192.216 72.173ZM218.386 62.4001C220.804 61.1856 223.227 59.9061 225.604 58.6132L224.648 56.8563C222.285 58.1416 219.883 59.4105 217.488 60.6128L218.386 62.4001ZM225.604 58.6132C229.723 56.3727 233.349 52.6455 236.363 49.3854L234.895 48.0276C231.868 51.3013 228.442 54.7925 224.648 56.8563L225.604 58.6132ZM236.363 49.3854C236.607 49.1216 236.978 48.6065 237.374 48.023C237.786 47.416 238.268 46.669 238.748 45.8937C239.691 44.3707 240.682 42.6448 241.074 41.6598L239.216 40.9196C238.899 41.7174 238.001 43.3009 237.047 44.8411C236.579 45.5973 236.112 46.3204 235.719 46.9003C235.309 47.5037 235.02 47.8924 234.895 48.0276L236.363 49.3854ZM242.92 29.5428C242.949 28.0408 242.358 26.1853 241.503 24.3307C240.633 22.4451 239.433 20.4405 238.118 18.6021L236.491 19.7655C237.747 21.5213 238.879 23.4173 239.687 25.1684C240.509 26.9505 240.941 28.4678 240.921 29.5045L242.92 29.5428ZM207.509 3.26788C205.606 3.12328 204.405 2.85425 203.417 2.61714C202.429 2.38019 201.532 2.13928 200.378 2.13928V4.13928C201.25 4.13928 201.904 4.31111 202.95 4.56196C203.995 4.81264 205.309 5.10648 207.358 5.26213L207.509 3.26788ZM200.465 2.14307L192.299 1.42998L192.125 3.4224L200.291 4.13549L200.465 2.14307ZM192.212 1.42619C187.715 1.42619 182.971 2.10693 178.625 2.51861L178.814 4.5097C183.297 4.08503 187.841 3.42619 192.212 3.42619V1.42619ZM161.42 7.16437C159.939 7.5579 157.71 8.68851 155.649 9.83073C153.553 10.9927 151.505 12.2393 150.356 12.9316L151.388 14.6447C152.548 13.9461 154.561 12.7206 156.619 11.58C158.712 10.4196 160.73 9.41703 161.933 9.09725L161.42 7.16437ZM150.356 12.9316C147.644 14.5657 144.342 16.4916 141.778 18.5759L143.039 20.1279C145.467 18.1543 148.62 16.313 151.388 14.6447L150.356 12.9316ZM141.778 18.5759C140.922 19.2715 140.129 20.4093 139.45 21.4066C138.72 22.4792 138.101 23.4207 137.519 24.0054L138.936 25.4166C139.686 24.6638 140.437 23.5117 141.104 22.5321C141.822 21.4772 142.453 20.6043 143.039 20.1279L141.778 18.5759ZM240.921 29.5045C240.898 30.7075 240.64 33.1513 240.291 35.5464C240.119 36.7359 239.926 37.8952 239.735 38.8617C239.538 39.8535 239.356 40.5695 239.216 40.9196L241.074 41.6598C241.29 41.1185 241.501 40.2354 241.696 39.2506C241.897 38.2406 242.095 37.0458 242.271 35.834C242.621 33.4264 242.895 30.8785 242.92 29.5428L240.921 29.5045ZM207.358 5.26213C209.198 5.40198 212.535 6.28764 215.81 7.37367C219.087 8.46051 222.093 9.67813 223.291 10.4103L224.334 8.70381C222.918 7.8383 219.71 6.56003 216.44 5.47533C213.166 4.38982 209.62 3.42829 207.509 3.26788L207.358 5.26213ZM223.291 10.4103C223.977 10.8297 224.968 11.3451 226.059 11.927C227.168 12.5187 228.423 13.2007 229.701 13.9815C232.275 15.5544 234.855 17.4769 236.491 19.7655L238.118 18.6021C236.243 15.9805 233.384 13.8885 230.743 12.2749C229.414 11.4625 228.117 10.7583 227 10.1624C225.865 9.55676 224.955 9.0832 224.334 8.70381L223.291 10.4103ZM178.625 2.51861C176.302 2.73866 172.616 3.74692 169.262 4.75403C165.828 5.78491 162.748 6.81133 161.42 7.16437L161.933 9.09725C163.289 8.73697 166.524 7.66415 169.837 6.66958C173.229 5.65123 176.723 4.70782 178.814 4.5097L178.625 2.51861Z" fill="#111010"/>
</svg>
