<svg fill="none" viewBox="0 0 168 144" xmlns="http://www.w3.org/2000/svg">
<path d="m44.39 12.42c-2.727 2.4009-4.6231 5.3887-5.2718 8.6525-1.9133 9.6254 2.8302 13.702 8.7057 12.131 4.1321-1.1052 5.4259-7.8938 4.7098-10.804-0.9803-3.9833-3.6903-7.6957-8.1437-9.9795zm0 0c4.9934-4.3964 12.773-6.825 20.784-5.3774m-20.784 5.3774c-2.4345-1.2484-5.3899-2.0699-8.8686-2.2754m29.652-3.102c1.5759 0.28478 3.1606 0.71956 4.7349 1.3189 7.1408 2.7185 10.516 9.9625 9.1735 16.675-1.3693 6.8443-8.064 12.662-14.425 4.7617-5.3243-6.613-4.4969-16.502 0.5162-22.756zm0 0c1.0713-1.3363 2.3338-2.5066 3.7682-3.4435 5.2481-3.4276 13.93-4.686 20.59 4.0307 3.1285 4.0948 3.92 11.318 5.8168 17.393m0 0c1.1649 3.7308 2.7466 7.0286 5.5425 8.9029 6.418 4.3024 10.701-4.3234 5.513-8.3008-3.326-2.55-7.4332-2.4413-11.056-0.6021zm0 0c-5.8844 2.9878-10.49 10.542-8.3908 18.685 1.5675 6.0813 7.5774 9.9523 12.935 11.419m0 0c3.002 0.822 5.8 0.8892 7.497 0.1674 3.644-1.5505 2.973-6.1919 1.405-7.5211-2.99-2.5339-8.317 0.9179-8.9917 5.5118-0.0881 0.6001-0.0522 1.2186 0.0897 1.8419zm0 0c1.276 5.6006 11.112 11.591 16.424 8.1068 0.148-0.0972 0.294-0.1944 0.436-0.292m0 0c2.347-1.6058 3.932-3.3184 3.806-6.4423-0.253-6.2482-5.365-4.8253-6.393-0.5295-0.678 2.8319 0.593 5.2279 2.587 6.9718zm0 0c2.355 2.0587 5.719 3.2087 8.079 3.0942 4.927-0.2389-1.717-14.452 7.839-17.082 4.089-1.1254 8.985 0.6004 12.796 4.5016m0 0c3.058 3.1296 5.418 7.6591 6.104 13.24 1.059 8.6055-6.947 12.761-11.165 6.1489-4.886-7.658-2.182-17.18 5.061-19.389zm0 0c2.272-0.6928 4.991-0.6662 8.062 0.3632 8.281 2.7754 12.928 21.034 13.444 26.21 0.31 3.1102-2.084 13.906-10.548 10.683-7.146-2.7205-9.469 2.1073-14.469 2.6425-8.709 0.9322-15.333-12.429-27.648-9.7741-6.535 1.4087-10.752 11.706-4.064 19.525 0.257 0.302 0.564 0.614 0.914 0.925m0 0c2.416 2.148 6.89 4.252 11.553 2.503 5.815-2.18 1.314-11.597-5.097-8.5315-3.393 1.6227-5.317 3.7355-6.456 6.0285zm0 0c-1.208 2.431-1.534 5.064-1.796 7.528-0.711 6.7 2.759 16.208 4.912 22.071 1.065 2.899 2.49 14.915-8.423 6.326-15.327-12.062-22.457 0.093-26.349-20.284-0.4873-2.551-0.5138-7.038 0.8472-11.342m0 0c0.2861-0.904 0.6334-1.801 1.0507-2.67m-1.0507 2.67c5.0211 1.632 9.245 3.854 11.881 5.495 11.403 7.098 9.4127 14.117 12.598 22.666 2.206 5.921 4.111-16.006 2.605-18.343-3.985-6.183-18.948-9.997-26.033-12.488m-1.0507 2.67c-11.134-3.618-26.189-4.332-36.54 10.644m37.59-13.314c1.801-3.749 4.9044-6.9821 10.002-8.1155 8.0155-1.7821 10.353-19.44 7.5774-29.046-2.6795-9.2749-8.0749-12.858-13.538-13.005m-4.0416 50.167c-1.5879-0.558-2.7802-1.049-3.3646-1.486-3.604-2.695-1.8913-8.4835-4.8461-10.341-3.2593-2.0486-11.008 1.1979-13.406-1.7349-4.6959-5.7425-1.9069-14.202-4.1058-16.503-1.7619-1.8445-4.5149-1.8653-6.1618 1.1695-2.3608 4.3507-0.9907 15.127-1.8924 19.932-2.0809 11.089-20.09 31.812-40.258 12.943-11.904-11.137-5.5459-30.222 6.2159-33.18m71.861-20.967c-3.762-0.1013-7.5561 1.4267-10.518 3.8471-12.593 10.293-8.2463 21.761-0.7489 24.615 8.9568 3.4099 14.223-10.771 13.854-17.868-0.1246-2.4007-0.9003-6.3691-2.5879-10.594zm0 0c-3.9257-9.8279-12.786-21.044-29.865-17.141-8.2968 1.896-13.763 7.2874-17.276 13.045m0 0c-4.1217 6.756-5.5532 14.016-5.7106 16.726-0.6574 11.321 11.244 19.807 15.224-2.2602 1.2267-6.8018-2.6853-13.603-9.5138-14.466zm0 0c-3.9043-0.4934-8.7621 0.9547-14.158 5.4543-2.3836 1.9877-10.574 9.0699-10.562 19.608m0 0c4e-4 0.3438 0.0095 0.6912 0.0278 1.0423 0.6326 12.116-3.0059 22.766-1.0013 29.154 3.9675 12.642 24.823 9.45 24.558-8.6676-0.2301-15.694-9.5837-19.1-16.085-21.21-2.6444-0.8582-5.1772-0.9027-7.4993-0.3185z" opacity=".5" stroke="#ECAD0A" stroke-linecap="round"/>
</svg>
