<svg fill="none" viewBox="0 0 84 844" xmlns="http://www.w3.org/2000/svg">
<g clip-path="url(#a)">
<path d="m9.3022 795.16 1.5889 0.967c0.6698 0.572 1.2793 1.175 1.8306 1.806m-3.4195-2.773-0.37583-0.229m0.37583 0.229c-0.50231 0.864-1.0148 1.651-1.4901 2.313m1.4901-2.313c0.10774-0.185 0.21501-0.374 0.32134-0.566m-0.69717 0.337-2.2895-1.394m2.2895 1.394c-0.35782 0.836-0.76004 1.656-1.1807 2.452m1.1807-2.452c0.08834-0.206 0.17397-0.414 0.25649-0.622m-2.546-0.772-2.2357-1.36c-0.8227-0.501-1.4861-0.929-2.1466-1.311m4.3822 2.671c0.21542-0.119 0.4314-0.236 0.64787-0.351m-0.64787 0.351c-0.49776 0.276-0.99246 0.561-1.483 0.856m-2.8993-3.527c-0.04953-0.029-0.09905-0.057-0.14862-0.086m0.14862 0.086c-0.01895 0.31-0.03984 0.621-0.06264 0.931m0.06264-0.931c5.5e-4 -9e-3 0.0011-0.018 0.00164-0.027m-0.15026-0.059c-0.05814-0.033-0.11634-0.065-0.17472-0.098m0.17472 0.098c-0.05714-0.022-0.11435-0.044-0.17164-0.066m0.17164 0.066c0.05014 0.02 0.10023 0.039 0.15026 0.059m-0.32498-0.157c-0.81913-0.455-1.6726-0.849-2.8543-1.237-0.41334-0.135-0.8294-0.258-1.2478-0.369m4.102 1.606c0.00103 0.011 0.00206 0.021 0.00308 0.032m-0.00308-0.032c-0.17504-1.817-0.39668-3.573-0.65111-5.232m-3.4509 3.626c-1.2205-0.325-2.4609-0.548-3.7116-0.684m3.7116 0.684c0.4057 0.201 0.79887 0.407 1.1774 0.618m-1.1774-0.618c-1.8434-0.915-3.9452-1.732-6.1066-2.418m2.395 1.734c-0.55534-0.06-1.1127-0.103-1.6713-0.129m1.6713 0.129c-0.58654-0.129-1.1767-0.25-1.7697-0.364m1.7697 0.364c1.6636 0.367 3.2983 0.8 4.889 1.302m-6.5603-1.431c-1.1424-0.055-2.2898-0.041-3.4353 0.031m3.4353-0.031c0.4176 1.005 0.78546 2.047 1.1067 3.125 0.24603 0.825 0.49796 1.851 0.73494 2.979m-1.8416-6.104c-0.0325-0.079-0.0653-0.157-0.09841-0.235m-3.3368 0.266c-1.1014 0.069-2.2008 0.192-3.2922 0.36m3.2922-0.36c0.859 1.697 1.598 3.546 2.1919 5.476m-2.1919-5.476c-0.1132-0.224-0.2284-0.445-0.3456-0.663-0.0381-0.07-0.0765-0.141-0.1152-0.212m-2.8314 1.235c-0.0499 8e-3 -0.0998 0.016-0.1496 0.023m0.1496-0.023c1.1888 1.124 2.3098 2.336 3.3663 3.626m-3.3663-3.626c-0.1669-0.158-0.3351-0.314-0.5047-0.468m0.3551 0.491c-0.3449 0.055-0.6889 0.114-1.0319 0.177m1.0319-0.177c0.3807 0.539 0.7449 1.089 1.0918 1.652m-1.0918-1.652c-0.1168-0.165-0.2352-0.329-0.3551-0.491m-0.6768 0.668c-0.7362 0.136-1.4676 0.291-2.1923 0.463-1.4846 0.352-2.9561 0.769-4.4111 1.248m6.6034-1.711c0.7249 0.463 1.4328 0.957 2.1237 1.475m-2.1237-1.475c-1.2245-0.781-2.4978-1.47-3.8203-2.021m-2.7831 3.732c-2.5419 0.835-5.0334 1.855-7.4565 3.035m7.4565-3.035c0.7865-1.281 1.6306-2.528 2.5346-3.736m-2.5346 3.736c-0.6984 1.137-1.3513 2.3-1.9604 3.487m-5.4961-0.452c-2.3469 1.143-4.6297 2.436-6.8318 3.856m6.8318-3.856c-1.3974-1.667-2.6739-3.429-3.7766-5.302m3.7766 5.302c0.3866 0.461 0.7826 0.914 1.1866 1.361m-8.0184 2.495c-4e-3 2e-3 -0.0079 5e-3 -0.0118 8e-3m0.0118-8e-3c2.6288-0.975 5.3072-1.823 8.0184-2.495m-8.0184 2.495c-0.0098 4e-3 -0.0196 7e-3 -0.0294 0.011m0.0176-3e-3c-2.2259 1.436-4.3694 3.002-6.4136 4.675m6.4136-4.675c3.3009-0.615 6.6344-0.866 9.8513-0.587m-9.8513 0.587c-0.0059 1e-3 -0.0117 2e-3 -0.0176 3e-3m-6.396 4.672c-0.0615 0.051-0.123 0.101-0.1844 0.152m0.1844-0.152c0.273-0.779 0.5847-1.534 0.9247-2.254 0.027-0.057 0.0552-0.116 0.0845-0.176m-1.0092 2.43c-0.8533 2.435-1.3288 5.098-1.111 7.616 0.0756 0.874 0.2072 1.735 0.3895 2.58m0.5371-10.044c-2.6249 2.162-5.0843 4.501-7.3421 6.965-0.4862 0.531-0.9818 1.068-1.4668 1.618m8.8089-8.583c-1.5184 4.071-3.8614 7.768-6.9141 10.743m6.9141-10.743c0.1886-0.506 0.3645-1.018 0.5274-1.534 0.0873-0.277 0.1729-0.563 0.2556-0.856m-9.5919 10.973c-0.5013 0.568-0.9913 1.151-1.4481 1.756m1.4481-1.756c-0.9924-1.257-1.8762-2.601-2.6344-4.013m2.6344 4.013c0.5939 0.752 1.2268 1.474 1.8948 2.16m-3.3429-0.404c-0.1723 0.228-0.34 0.459-0.5017 0.694m0.5017-0.694c-0.5772-0.85-1.1139-1.734-1.6078-2.65m1.6078 2.65c0.4763 0.701 0.9803 1.379 1.5106 2.033m-2.0123-1.339c-0.8265 1.2-1.4983 2.492-1.8578 3.931m1.8578-3.931c-0.5885-1.041-0.9922-2.164-1.1061-3.344m1.1061 3.344c0.374 0.662 0.8227 1.291 1.3189 1.881m-3.1767 2.05c-0.0993 0.398-0.1748 0.807-0.2231 1.228-0.0616 0.538-0.0802 1.07-0.0594 1.594m0.2825-2.822c-0.5392 0.294-1.0914 0.569-1.6563 0.826m1.6563-0.826c1.1155-0.608 2.1754-1.294 3.1767-2.05m-3.4592 4.872c7e-4 0.018 0.0014 0.036 0.0022 0.054m-0.0022-0.054c-0.1224-0.136-0.2442-0.273-0.3653-0.409-0.1993-0.225-0.401-0.456-0.6047-0.693m0.97 1.102c0.1187 0.133 0.238 0.265 0.3579 0.397m-0.3557-0.343c0.0063 0.141 0.0155 0.282 0.0274 0.422m-0.0274-0.422c-0.2534-0.247-0.5037-0.497-0.7508-0.75m0.7508 0.75c0.1179 0.115 0.2365 0.229 0.3557 0.343m-0.3283 0.079c0.0912 1.074 0.3448 2.118 0.7275 3.126m-0.7275-3.126c-0.2845-0.378-0.5457-0.769-0.7782-1.172m0.7782 1.172c1.2203 1.622 2.8694 3.016 4.5169 4.218m-3.7894-1.092c0.8869 2.337 2.4672 4.485 4.3275 6.38m-4.3275-6.38c-2.2317-0.941-4.6799-2.176-7.1173-3.649m7.1173 3.649c1.3256 0.559 2.5748 1.014 3.6999 1.354 0.1781 0.054 0.3565 0.107 0.5353 0.16m0.0923 4.866c1.1526 1.174 2.4128 2.25 3.682 3.214m-3.682-3.214c-0.4924-0.022-0.9849-0.056-1.477-0.101m1.477 0.101c1.0938 0.049 2.1874 0.042 3.2769-0.019m0.4051 3.233c0.3489 0.265 0.6984 0.522 1.0466 0.769m-1.0466-0.769c-1.7418-1.039-3.4741-2.143-5.159-3.315m5.159 3.315c0.4429 0.265 0.8864 0.525 1.3299 0.781 0.0545 0.031 0.1088 0.062 0.1628 0.094m-0.4461-0.106c0.7113 0.506 1.4169 0.975 2.0994 1.405m-2.0994-1.405c-2.393-0.584-4.727-1.487-6.9384-2.551-1.4499-0.698-3.041-1.54-4.6121-2.52m11.55 5.071c0.1485 0.037 0.2972 0.072 0.4461 0.106m1.6533 1.299c0.2616 0.164 0.5198 0.323 0.7736 0.476 0.8614 0.519 1.7973 1.034 2.7887 1.536m-3.5623-2.012c-4.8587-0.51-9.6567-1.916-14.124-3.971-0.0528-0.024-0.1054-0.049-0.158-0.073m14.282 4.044c0.2701 0.028 0.5404 0.054 0.8108 0.076m2.7515 1.936c0.8646 0.437 1.7715 0.864 2.7078 1.274m-2.7078-1.274c-2.1143 0.389-4.285 0.501-6.5071 0.247-3.5572-0.406-6.9245-2.374-9.6802-4.667-0.5223-0.434-1.079-0.989-1.6566-1.636m17.844 6.056c0.2058-0.038 0.411-0.079 0.6158-0.122m2.092 1.396c2.5698 1.124 5.3617 2.119 8.1134 2.841m-8.1134-2.841c-4.2974 1.62-8.7986 2.679-13.449 3.003-0.223 0.015-0.4473 0.029-0.6727 0.04m14.122-3.043c0.1279-0.048 0.2557-0.097 0.3833-0.146m7.7301 2.987c0.6468 0.17 1.2913 0.325 1.9302 0.463m-1.9302-0.463c-0.0351-0.177-0.0694-0.354-0.1029-0.531m0.1029 0.531c0.1054 0.531 0.2179 1.061 0.3385 1.591m1.5917-1.128c1.9055 0.411 3.7609 0.672 5.476 0.734 0.776 0.028 1.5417 0.023 2.297-0.014m-7.773-0.72c-0.5214 0.388-1.0522 0.764-1.5917 1.128m1.5917-1.128c0.2292-0.171 0.4566-0.344 0.682-0.519m7.091 1.239c2.4815-0.121 4.8505-0.585 7.1031-1.333m-7.1031 1.333c-2.3192 2.098-4.9077 4.007-7.8326 5.729m7.8326-5.729c0.2962-0.268 0.5881-0.539 0.8757-0.813m6.2274-0.52c4.1968-1.393 7.9895-3.774 11.353-6.767m-11.353 6.767c-2.0628 0.283-4.1448 0.463-6.2274 0.52m6.2274-0.52c2.219-0.304 4.4157-0.728 6.5669-1.246 3.6783-0.887 7.2024-1.922 10.434-3.524m-5.6478-1.997c0.11218-0.099 0.22388-0.2 0.3351-0.301m-0.3351 0.301c-0.08039-0.039-0.16051-0.078-0.24038-0.118m0.24038 0.118c1.7818 0.866 3.6886 1.543 5.6478 1.997m-5.3127-2.298c0.15024-0.137 0.2996-0.274 0.44808-0.413m-0.44808 0.413c0.27568-0.092 0.54929-0.189 0.8208-0.291m-0.8208 0.291c-0.19085 0.064-0.3827 0.125-0.57548 0.183m1.0236-0.596c1.3199-1.236 2.5706-2.566 3.7505-3.964 1.7759-2.105 3.318-4.128 4.5913-6.239m-8.3418 10.203c-0.57057-0.193-1.1084-0.4-1.5951-0.6-1.3293-0.547-2.5157-1.123-3.6417-1.805m5.2368 2.405c0.12278 0.041 0.24708 0.082 0.37272 0.122m7.9691-10.325c0.43802-0.726 0.84423-1.462 1.2172-2.216m-1.2172 2.216c-3.5528 3.893-8.4181 6.483-13.579 7.798m13.579-7.798c0.51264-0.561 0.99794-1.15 1.4529-1.766m-0.23566-0.45c0.02493-0.051 0.04972-0.101 0.07435-0.152m-0.07435 0.152c-0.91077-0.472-1.8079-0.953-2.6949-1.442m2.6949 1.442c0.04502 0.023 0.09006 0.047 0.13513 0.07m-0.06078-0.222c0.78351-1.607 1.4164-3.296 1.8849-5.132m-1.8849 5.132c0.02053 0.074 0.04079 0.148 0.06078 0.222m-0.06078-0.222c-0.24819-0.891-0.53519-1.779-0.85487-2.659m2.7397-2.473c0.2726-1.068 0.4896-2.186 0.6482-3.367 0.0517-0.386 0.097-0.774 0.1347-1.163m-0.7829 4.53c-0.8447 0.89-1.768 1.716-2.7397 2.473m2.7397-2.473c0.5511-0.581 1.0687-1.189 1.5446-1.825m-0.7617-2.705c0.0942-0.973 0.1415-1.956 0.1258-2.937m-0.1258 2.937c-1.2662 1.956-2.6059 3.867-4.0132 5.72m4.0132-5.72c0.2129-0.329 0.4237-0.659 0.6324-0.99m-0.5066-1.947c-0.0219-1.367-0.1665-2.729-0.4775-4.047m0.4775 4.047c0.2182 0.634 0.3878 1.285 0.5066 1.947m-0.5066-1.947c-0.2837-0.824-0.6497-1.619-1.0935-2.368m0.616-1.679c-0.0429-0.182-0.0891-0.363-0.1385-0.543-0.6504-2.371-1.848-4.645-3.3742-6.71m3.5127 7.253c-0.1895 0.565-0.3953 1.125-0.616 1.679m0.616-1.679c0.7316-2.18 1.2214-4.439 1.3969-6.793m-4.9096-0.46c-0.02209-0.03-0.04424-0.06-0.06645-0.09m0.06645 0.09c-0.05744 0.08-0.11434 0.158-0.17061 0.235-0.08112 0.11-0.16444 0.221-0.24991 0.334m0.35407-0.659c-0.78811-1.057-1.6619-2.058-2.5918-2.99m2.5918 2.99c-0.11679 0.222-0.235 0.441-0.35407 0.659m-2.2377-3.649c-0.94015-0.942-1.9376-1.812-2.9619-2.596m2.9619 2.596c-0.96988 0.583-1.9234 1.206-2.852 1.866m-0.10986-4.462c-0.0569-0.043-0.11388-0.086-0.17094-0.129m0.17094 0.129c-0.0246 0.335-0.05142 0.669-0.08047 1.004m-0.09047-1.133c-0.66058-0.498-1.3315-0.959-2.0047-1.38-0.32297-0.201-0.66008-0.4-1.0097-0.594m3.0144 1.974c0.03224 0.375 0.06244 0.753 0.09047 1.133m-0.09047-1.133c-0.02743-0.32-0.05635-0.638-0.08668-0.954m-2.9277-1.02c0.99432 0.313 1.9715 0.653 2.9277 1.02m-10.212-4.056c-1.4357-0.455-2.8978-0.853-4.3278-1.184m4.3278 1.184c0.21942 0.449 0.42776 0.906 0.6253 1.37m-0.6253-1.37c-0.88929-1.819-1.961-3.509-3.236-5.066m-1.0919 3.882c-1.7954-0.416-3.5404-0.726-5.1196-0.912m5.1196 0.912c0.4095 0.638 0.7952 1.287 1.1555 1.945m-1.1555-1.945c-0.7983-1.244-1.687-2.447-2.6537-3.594m-2.4659 2.682c-0.062-7e-3 -0.1237-0.014-0.1851-0.021m0.1851 0.021c0.7109-0.84 1.5427-1.782 2.4659-2.682m-2.4659 2.682c-0.0254 0.03-0.0506 0.06-0.0757 0.09m-0.1094-0.111c-0.0721-8e-3 -0.1439-0.016-0.2153-0.024-0.5692-0.06-1.1367-0.106-1.7025-0.136m1.9178 0.16c0.0366 0.037 0.073 0.074 0.1094 0.111m-0.1094-0.111c-1.0271-1.037-2.1229-2.011-3.2774-2.919m1.3596 2.759c-4.9554-0.27-9.7774 0.587-14.372 2.283m14.372-2.283c0.4965 0.305 0.9837 0.623 1.4619 0.953m-1.4619-0.953c-1.4075-0.866-2.8894-1.627-4.4489-2.277m-9.923 4.56c-1.3912 0.514-2.7615 1.105-4.1083 1.765-0.9833 0.482-1.9599 0.993-2.926 1.534m7.0343-3.299c-0.1627-0.319-0.3242-0.654-0.4841-1.002m0.4841 1.002c0.0497 0.098 0.0995 0.194 0.1494 0.288 0.1893 0.359 0.3852 0.713 0.5871 1.064m-7.7708 1.947c-0.0319 0.018-0.0637 0.036-0.0956 0.054m0.0956-0.054c0.0869-0.068 0.174-0.137 0.2614-0.205 0.6259-0.491 1.2443-0.964 1.8576-1.422m-2.119 1.627c-0.1201 0.096-0.2399 0.191-0.3593 0.288m0.2637-0.234c-0.0943 0.053-0.1886 0.106-0.2827 0.16m0.2827-0.16c0.7124-0.583 1.4425-1.14 2.2146-1.681m-2.2146 1.681c-0.0892 0.073-0.1782 0.147-0.267 0.221m-0.0157-0.061c-0.4562 0.26-0.9099 0.526-1.3607 0.799m1.3607-0.799c0.0053 0.02 0.0105 0.04 0.0157 0.061m-0.0157-0.061c-0.1767-0.671-0.4179-1.312-0.7348-1.909m-0.6259 2.708c-1.4681 0.889-2.9054 1.847-4.2977 2.87m4.2977-2.87c-1.2887 0.593-2.4724 1.246-3.5318 1.956m3.5318-1.956c0.3402-0.156 0.6877-0.309 1.0422-0.457m-5.3399 3.327c-3.3435 2.458-6.4271 5.297-9.0523 8.482m9.0523-8.482c0.252-0.304 0.5072-0.609 0.7659-0.914m-0.7659 0.914c-2.8141 3.395-5.2467 6.734-7.9842 10.725m-1.0681-2.243c-0.4016 0.487-0.7925 0.982-1.1719 1.485m1.1719-1.485c-0.1983-0.63-0.3725-1.267-0.5213-1.912-0.8298-3.596-0.3827-7.005 0.6757-10.317m-0.1544 12.229c0.2524 0.801 0.5441 1.589 0.8724 2.361m-2.0443-0.876c-1.11 1.472-2.1221 3.013-3.0185 4.618m3.0185-4.618c-1.1873-3.48-1.9316-7.165-2.0213-10.832m2.0213 10.832c0.2029 0.595 0.4188 1.184 0.6466 1.766m-3.6651 2.852c-0.0322 0.057-0.0642 0.115-0.0961 0.173-0.5198 0.942-0.983 1.926-1.3538 2.935m1.4499-3.108c1.2068-1.077 2.4042-2.006 3.6651-2.852m-3.6651 2.852c-0.5972 0.532-1.1966 1.101-1.8072 1.713-0.1841 0.185-0.3688 0.375-0.5523 0.57m0.9096 0.825c-0.0596 0.163-0.1168 0.326-0.1715 0.489m0.1715-0.489c0.6926-0.507 1.3849-1 2.0727-1.478 0.5356-0.372 1.0982-0.753 1.6835-1.14m-3.7562 2.618c-0.1112 0.082-0.2223 0.164-0.3335 0.246m0.162 0.243c-0.0068 0.02-0.0135 0.041-0.0202 0.061m0.0202-0.061c-0.0542-0.081-0.1082-0.162-0.162-0.243m0.162 0.243c0.3229 0.482 0.6542 0.963 0.9913 1.439m-1.0115-1.378c-0.4656 1.41-0.7419 2.865-0.7339 4.322m0.7339-4.322c-0.0541-0.097-0.1076-0.193-0.1605-0.29m0.1605 0.29c0.2903 0.518 0.5966 1.029 0.9176 1.53m-1.6515 2.792c0.0056 1.024 0.1516 2.049 0.4711 3.061m-0.4711-3.061c0.5332-0.942 1.086-1.872 1.6515-2.792m-1.6515 2.792c-0.4457 0.786-0.8777 1.58-1.2918 2.381m1.7629 0.68c0.0588 0.186 0.1236 0.372 0.1944 0.558m-0.1944-0.558c-0.2173 0.017-0.4348 0.029-0.6521 0.036m0.6521-0.036c1.5596-0.124 3.1092-0.511 4.5196-1.103 0.0799-0.033 0.1596-0.067 0.239-0.101m-4.5642 1.762c0.1141 0.298 0.2439 0.596 0.3904 0.891 0.7867 1.586 2.3303 3.228 3.6094 4.367 1.8683 1.664 3.8817 3.219 5.968 4.67m-9.9678-9.928c-0.2824-0.171-0.5647-0.345-0.8465-0.522m10.814 10.45c-0.2612-0.024-0.5223-0.051-0.7833-0.082-1.4926-0.174-3.0355-0.472-4.5616-0.905m11.997 5.177c0.8572 0.493 1.6668 0.953 2.4641 1.375m-2.4641-1.375c0.6087 0.138 1.221 0.255 1.8357 0.348m0.6284 1.027c0.6868 0.365 1.3645 0.702 2.0558 1.01m-2.0558-1.01c0.2319 0.02 0.4639 0.037 0.696 0.053m1.3598 0.957c0.5715 0.256 1.1522 0.491 1.755 0.707m-1.755-0.707c-0.4609-0.302-0.9155-0.621-1.3598-0.957m1.3598 0.957c0.4326 0.284 0.8708 0.552 1.3115 0.804m0.4435-0.097c0.8645 0.309 1.7743 0.577 2.767 0.8 0.1372 0.031 0.2744 0.061 0.4119 0.089m-3.1789-0.889c-0.1476 0.034-0.2954 0.066-0.4435 0.097m0.4435-0.097c1.4409-0.33 2.8547-0.784 4.2398-1.333m-1.0609 2.222c1.9975 0.404 4.0242 0.484 6.0424 0.335m-6.0424-0.335c-0.3807 0.157-0.7631 0.309-1.1471 0.458m1.1471-0.458c1.0756-0.444 2.1378-0.923 3.1855-1.433m2.8569 1.768c1.0277-0.076 2.0533-0.211 3.0716-0.392m-3.0716 0.392c-0.0499-0.33-0.0974-0.659-0.1429-0.987m0.1429 0.987c0.1294 0.856 0.2742 1.717 0.4377 2.579m2.6339-2.971c1.7632-0.315 3.5048-0.77 5.1989-1.299m-5.1989 1.299c-1.077-0.138-2.1497-0.338-3.2145-0.595m3.2145 0.595c1.2464 0.159 2.4983 0.236 3.7501 0.223m1.4488-1.522c0.043-0.013 0.0859-0.027 0.1288-0.04 2.2535-0.71 4.4034-1.568 6.4558-2.562m-6.5846 2.602c-0.1911 0.214-0.3852 0.426-0.5819 0.634-0.2841 0.3-0.5731 0.596-0.8669 0.888m1.4488-1.522c0.9038-1.013 1.7443-2.095 2.5115-3.233m4.0731 0.631c1.0686-0.518 2.1107-1.073 3.1272-1.664m-3.1272 1.664c0.7892 0.278 1.5738 0.509 2.3528 0.695m-2.3528-0.695c-0.8171-0.288-1.6389-0.627-2.4641-1.019m5.5913-0.645c0.4363-0.253 0.8679-0.513 1.2948-0.78m-1.2948 0.78c-0.4676 0.027-0.9342 0.044-1.3993 0.051-0.7194 0.011-1.4412-2e-3 -2.1611-0.042m3.5604-9e-3c0.2815-0.016 0.5634-0.036 0.8455-0.059m0.4493-0.721c0.91201-0.569 1.8028-1.168 2.6729-1.795m-2.6729 1.795c-0.1484 0.242-0.2982 0.482-0.4493 0.721m0.4493-0.721c0.5044-0.821 0.9932-1.661 1.4684-2.518m1.2045 0.723c0.14917-0.107 0.29772-0.216 0.44567-0.325m-0.44567 0.325c-0.26605-0.213-0.53192-0.435-0.79885-0.669-0.07296-0.063-0.14557-0.128-0.21779-0.193m1.0166 0.862c0.5836 0.467 1.1681 0.888 1.7663 1.275m-1.3206-1.6c2.3923-1.764 4.6275-3.744 6.7192-5.914m-6.7192 5.914c-0.25599-0.36-0.49496-0.732-0.71735-1.113m0.71735 1.113c0.39845 0.561 0.83816 1.096 1.3206 1.6m5.3986-7.514c1.5661-1.625 3.0519-3.357 4.463-5.184m-4.463 5.184c-1.2918 0.5-2.5536 0.922-3.8177 1.274m3.8177-1.274c1.0473-0.406 2.1144-0.864 3.2186-1.379 0.87818-0.409 1.7629-0.87 2.6365-1.38m-1.3921-2.425c0.29029-0.376 0.57743-0.756 0.86145-1.14 0.7019-0.949 1.3814-1.909 2.0296-2.883m-2.8911 4.023c-1.0157-0.593-2.0225-1.199-3.0259-1.817m3.0259 1.817c0.76377 0.446 1.5326 0.885 2.3088 1.318m0.58233-5.341c1.7244-2.588 3.2282-5.27 4.3474-8.081m-4.3474 8.081c0.46637 0.968 0.90334 1.951 1.3019 2.944m-1.3019-2.944c-0.62275-1.292-1.2979-2.558-2.0039-3.789m6.3513-4.292c-1.1502-1.942-2.8236-3.579-4.9434-4.632-0.0178-9e-3 -0.03559-0.018-0.0534-0.026m7.0097-3.814c0.0242-0.325 0.0424-0.652 0.0545-0.98m-0.0545 0.98c0.5855 0.669 1.1054 1.369 1.5623 2.095m-1.5078-3.075c8e-3 -0.219 0.0133-0.439 0.0158-0.66m-0.0158 0.66c-0.9837-0.842-2.0379-1.628-3.1527-2.359m3.1527 2.359c0.1646 0.141 0.3272 0.283 0.4878 0.428m-0.472-1.088c1e-4 -9e-3 2e-4 -0.017 3e-4 -0.026m-3e-4 0.026c0.0142 0.024 0.0283 0.048 0.0423 0.071m-0.0423-0.071c-0.6879-1.157-1.4769-2.268-2.3364-3.316m2.3367 3.29c0.0066-0.64-0.0104-1.288-0.0524-1.944-0.024-0.374-0.0546-0.746-0.0918-1.115m0.1442 3.059c0.014 0.033 0.028 0.065 0.042 0.097m-0.042-0.097c-0.5923-1.364-1.2474-2.756-1.947-4.148m1.8028 1.089c-0.0799-0.793-0.1902-1.574-0.331-2.341m0.331 2.341c1.8731 2.421 3.5918 4.972 5.0976 7.627m-5.0976-7.627c-0.4854-0.627-0.9812-1.246-1.4863-1.855m1.1553-0.486c-0.1142-0.623-0.2484-1.237-0.4028-1.842m0.4028 1.842c1.8019-0.714 3.7985-1.403 5.8634-2.006m-5.8634 2.006c-0.3926 0.155-0.776 0.312-1.1488 0.469m0.746-2.311c-0.6961-2.728-1.8017-5.279-3.3227-7.629m3.3227 7.629c-0.1892 0.765-0.4453 1.543-0.746 2.311m0.746-2.311c0.2887-1.168 0.4218-2.307 0.3208-3.341-0.0707-0.723-0.2177-1.443-0.4266-2.147m-3.2169-2.141c-1.0224-1.579-2.2326-3.068-3.6324-4.459-1.1623-1.155-2.3492-2.236-3.5762-3.232m7.2086 7.691c1.1044 0.681 2.174 1.393 3.2169 2.141m-3.2169-2.141c-2.025-1.248-4.1667-2.393-6.474-3.469m-0.7346-4.222c-1.2644-1.027-2.5713-1.963-3.9376-2.798m3.9376 2.798c0.20988 1.329 0.38688 2.647 0.53119 3.956m-0.53119-3.956c-0.11736-0.743-0.245-1.49-0.38297-2.24m-3.5547-0.558c-0.90461-0.552-1.8353-1.06-2.7969-1.519m2.7969 1.519c0.30737 0.837 0.60009 1.667 0.87636 2.486m-0.87636-2.486c-0.10962-0.298-0.22112-0.598-0.33439-0.898m-2.4625-0.621c-0.2939-0.141-0.59069-0.277-0.89052-0.408m0.89052 0.408c0.85656 0.187 1.6762 0.393 2.4625 0.621m-2.4625-0.621c-0.18368-0.04-0.36905-0.08-0.55617-0.118m-0.33435-0.29c-1.5208-0.666-3.1197-1.214-4.8149-1.63-0.4795-0.118-0.9582-0.223-1.4361-0.316m6.251 1.946c0.11184 0.096 0.22331 0.193 0.33435 0.29m-0.33435-0.29c-1.1716-1.007-2.387-1.96-3.6441-2.851m-2.6069 0.905c-8.0334-1.568-15.826 0.261-23.344 3.259m23.344-3.259c0.8618-0.324 1.7309-0.626 2.6069-0.905m-2.6069 0.905c-0.8958 0.336-1.7838 0.696-2.6636 1.078m-20.68 2.181c-0.2093 0.084-0.4183 0.168-0.6272 0.253m0.6272-0.253c0.0897 9e-3 0.1795 0.019 0.2691 0.029m-0.2691-0.029c-1.0352-0.104-2.0761-0.141-3.1182-0.107m2.491 0.36c-0.7713 0.315-1.5398 0.641-2.3052 0.977m2.3052-0.977c0.2992-0.076 0.5979-0.151 0.8963-0.224m-0.8963 0.224c-0.7828 0.2-1.5684 0.41-2.3576 0.629m0.0524 0.348c-0.0566 0.025-0.113 0.05-0.1695 0.074-0.6531 0.288-1.3036 0.584-1.951 0.888m2.1205-0.962c-0.0181-0.117-0.0355-0.232-0.0524-0.348m0.0524 0.348c0.0291 0.188 0.0596 0.378 0.0916 0.57m-2.2121 0.392c-1.3449 0.633-2.6762 1.301-3.9882 2.008m3.9882-2.008c0.7334-0.144 1.471-0.275 2.2121-0.392m-2.2121 0.392c-0.7956 0.157-1.5863 0.33-2.3714 0.52m-1.6168 1.488c-0.1606 0.086-0.321 0.174-0.481 0.261m0.481-0.261c0.5348-0.501 1.0738-0.997 1.6168-1.488m-1.6168 1.488c-0.0753 0.07-0.1505 0.141-0.2256 0.212m-0.2554 0.049c-1.6577 0.908-3.2831 1.877-4.8648 2.912m4.8648-2.912c0.085-0.017 0.1702-0.033 0.2554-0.049m-0.2554 0.049c-1.2395 0.247-2.4642 0.578-3.6662 0.985m-1.1986 1.927c-2.823 1.846-5.5068 3.899-7.9856 6.179m7.9856-6.179c0.3898-0.648 0.7894-1.291 1.1986-1.927m-1.1986 1.927c-0.7473 1.243-1.4583 2.506-2.1311 3.781m-5.8545 2.398c-0.4526 0.416-0.8983 0.84-1.3369 1.272m1.3369-1.272c0.1195-0.355 0.2476-0.708 0.3847-1.059 0.0178-0.046 0.0358-0.091 0.0538-0.137m-0.4385 1.196c-0.0512 0.152-0.1009 0.305-0.149 0.458m-1.1879 0.814c-1.2474 1.227-2.4364 2.517-3.5576 3.872-1.9396 2.344-3.7866 4.94-5.2531 7.715m8.8107-11.587c0.3938-0.285 0.7886-0.556 1.1879-0.814m-1.1879 0.814c-1.1544 0.835-2.2998 1.796-3.5258 2.926-0.5178 0.477-1.0326 0.96-1.5384 1.453m-3.7465 7.208c-0.915 1.731-1.6819 3.532-2.2307 5.385m2.2307-5.385c-0.0697-0.502-0.1255-1.005-0.1668-1.508m0.1668 1.508c0.1666 1.201 0.4126 2.399 0.7298 3.59m-2.9605 1.795c-0.1352 0.456-0.2571 0.915-0.3648 1.378m0.3648-1.378c0.0899-1.222 0.2848-2.416 0.6033-3.554 0.3279-1.17 0.8543-2.275 1.4606-3.339m-2.0639 6.893c-0.0262 0.355-0.0434 0.713-0.0522 1.073m-0.3126 0.305c-0.5479 2.352-0.7263 4.779-0.3973 7.245 0.01 0.075 0.0203 0.15 0.0308 0.224m0.3665-7.469c0.1042-0.102 0.2084-0.204 0.3126-0.305m-0.3126 0.305c-0.1333 0.13-0.2665 0.261-0.3996 0.392m0.0331 7.077c0.128 0.908 0.2923 1.767 0.4919 2.598m-0.4919-2.598c0.3525-0.833 0.7202-1.663 1.1021-2.488m-1.1021 2.488c-0.1496 0.354-0.2965 0.709-0.4406 1.064m0.9325 1.534c0.3341 1.39 0.7674 2.699 1.2961 4.014m-1.2961-4.014c-0.2979-0.287-0.5898-0.577-0.8748-0.871m0.8748 0.871c0.9658 0.929 1.9962 1.821 3.0677 2.67m-1.7716 1.344c0.0293 0.073 0.0589 0.146 0.0888 0.219m-0.0888-0.219c-0.6031-0.488-1.1526-1.052-1.643-1.671m1.643 1.671c0.0573 0.047 0.1152 0.092 0.1736 0.137m-0.0848 0.082c0.4416 1.078 0.9471 2.164 1.5143 3.306 0.4597 0.925 0.9432 1.845 1.4493 2.759m-2.9636-6.065c0.0282-0.027 0.0565-0.054 0.0848-0.082m-0.0848 0.082c-0.2946 0.285-0.5858 0.573-0.8734 0.864m3.837 5.201c0.1584 0.286 0.319 0.571 0.4818 0.855m-0.4818-0.855c0.3065-0.786 0.6369-1.566 0.9875-2.341m-0.9875 2.341c-0.0411 0.105-0.0817 0.21-0.1219 0.316m0.6037 0.539c0.6607 1.154 1.3575 2.295 2.0882 3.417m-2.0882-3.417c-0.2058-0.175-0.4072-0.355-0.6037-0.539m0.6037 0.539c1.4497 1.234 3.1222 2.235 4.8969 3.024m-2.8087 0.393c2.5924 3.981 5.6122 7.723 8.9648 10.962 0.9598 0.928 2.02 1.84 3.142 2.71m-12.107-13.672c-1.1168-0.795-2.1834-1.654-3.1911-2.575m3.1911 2.575c1.7767 1.266 3.6806 2.369 5.6768 3.299m6.43 10.373c2.4363 1.89 5.164 3.58 7.7877 4.79 1.3622 0.628 2.7504 1.21 4.1596 1.742m-11.947-6.532c-5.1818 0.267-10.987-0.515-15.754-2.893m27.701 9.425c1.0995 0.416 2.2119 0.802 3.3349 1.156m-3.3349-1.156c-1.5344 0.486-3.095 0.879-4.6704 1.172m4.6704-1.172c3.7535-1.189 7.3506-2.936 10.626-5.143m-7.2914 6.299c1.5158 0.48 3.0509 0.902 4.5997 1.267m-4.5997-1.267c-2.3617 0.12-4.7406 0.142-7.1384 0.053-0.2868-0.011-0.5759-0.023-0.8669-0.037m8.0053-0.016c2.9008-0.147 5.7755-0.442 8.627-0.862m-4.0273 2.129c1.8455 0.434 3.7105 0.784 5.5853 1.047m-5.5853-1.047c-0.4971 0.237-1.0028 0.471-1.5174 0.7-5.9058 2.632-12.626 3.545-19.087 3.407-8.3716-0.179-21.713-5.38-28.264-11.174-4.0919-3.619-7.8298-10.948-6.8039-16.748 0.5701-3.224 2.3723-6.152 4.1589-8.892 2.0238-3.104 4.5315-6.188 7.2489-9.165m44.264 41.872c1.4098-0.675 2.7504-1.385 4.0273-2.129m1.558 3.176c2.952 0.413 5.9286 0.609 8.8925 0.57 5.9808-0.078 10.225-0.882 15.672-3.196 3.7661-1.6 7.2307-3.866 10.403-6.511m-34.967 9.137c-0.4965-1.043-0.9383-2.117-1.3322-3.21m1.3322 3.21c0.7731 1.624 1.679 3.175 2.7441 4.617 3.1516 4.266 8.0686 8.183 13.709 7.412 1.6685-0.228 3.3629-0.77 4.7474-1.732 3.9416-2.737 8.6016-9.899 10.65-13.522 1.0161-1.798 2.0674-3.796 3.1174-5.912m0 0c2.1589-1.799 4.1822-3.774 6.0729-5.832m-6.0729 5.832c0.85504-1.722 1.7092-3.522 2.5426-5.353m3.5303-0.479c0.8208-0.894 1.6165-1.803 2.3875-2.721m-2.3875 2.721c-1.1546 0.258-2.3366 0.416-3.5303 0.479m3.5303-0.479c0.1623-0.036 0.324-0.075 0.4851-0.115 4.8804-1.222 9.641-4.294 12.879-8.428m-10.977 5.822c0.0906-0.108 0.1809-0.216 0.2709-0.324 1.7536-2.108 3.4469-4.321 5.0518-6.625m-5.3227 6.949c-0.6962 0.332-1.3818 0.634-2.0175 0.919-1.184 0.532-2.3722 1.043-3.5647 1.54m5.5822-2.459c2.1795-1.039 4.4626-2.373 5.6424-4.41 0.389-0.671 0.6965-1.431 0.9329-2.231m-1.2526-0.308c0.6205-0.891 1.2278-1.795 1.8203-2.712m-1.8203 2.712c-0.1932-0.052-0.3734-0.103-0.5389-0.153-1.9037-0.572-3.7769-1.253-5.6166-2.014m6.1555 2.167c0.3729 0.1 0.7944 0.204 1.2526 0.308m0.5677-3.02c2.9188-4.517 5.4771-9.339 7.4805-14.355m-7.4805 14.355c-0.096 1.007-0.2788 2.043-0.5677 3.02m0.5677-3.02c0.0745-0.782 0.0968-1.546 0.0758-2.251-0.1419-4.765-1.3491-9.61-3.1126-14.106m10.517 2.002c2.8848-7.224 4.6186-14.85 4.6204-22.549m-4.6204 22.549c0.816 3.947 0.8509 8.184-0.2508 11.794-0.7055 2.311-1.885 4.471-3.396 6.4m3.6468-18.194c-0.4699-2.273-1.1988-4.449-2.1187-6.354-1.6254-3.366-3.8224-6.461-6.2392-9.32m12.978-6.875c4e-4 -1.692-0.0828-3.387-0.2558-5.082-0.6328-6.202-1.805-9.636-5.7444-14.281-1.403-1.655-3.1299-3.016-4.8529-4.332-0.5802-0.443-8.8243-5.624-9.7219-6.135-1.2828-0.73-2.5586-1.392-3.8457-1.974m24.421 31.804c3.4421 1.032 6.3451 3.12 8.3538 6.483 1.3295 2.227 1.8917 4.861 2.3855 7.409 1.1228 5.79 0.8788 10.322-0.782 15.949-1.6805 5.694-4.9459 10.623-11.289 11.343-1.6445 0.187-4.3311-0.05-6.9357-0.441m8.2672-40.743c-1.5078-0.452-3.119-0.702-4.8038-0.767-2.3297-0.09-5.0358 0.207-7.8186 0.749m-11.798-31.786c-3.5771-1.618-7.2425-2.621-11.393-2.768-2.6906-0.095-5.4068 0.069-8.0977 0.46m19.49 2.308c7.0898 5.535 10.53 14 11.436 23.16 0.2833 2.866 0.3972 5.745 0.3625 8.626m-11.798-31.786c-1.0498-0.82-2.1795-1.575-3.3929-2.259-5.7192-3.224-11.561-3.23-17.614-1.435m1.5166 1.386c-1.0343 0.15-2.0649 0.334-3.0889 0.55m3.0889-0.55c1.472 1.428 2.689 2.874 3.4088 4.107 1.2405 2.124 2.3111 4.372 3.1792 6.695m-6.588-10.802c-0.48112-0.467-0.98949-0.932-1.5166-1.386m-1.5722 1.936c-3.27 0.69-6.4725 1.704-9.5135 2.988-1.5617 0.659-3.2654 1.532-4.9654 2.501m14.479-5.489c1.9957 3.141 3.9459 6.946 5.6678 10.878m-5.6678-10.878c-0.2535-0.399-0.5077-0.787-0.7623-1.164m-13.717 6.653c-2.6107 1.488-5.2123 3.202-7.2761 4.715-2.2588 1.655-4.4714 3.384-6.6299 5.181m13.906-9.896c2.5909 0.302 4.9832 1.183 7.795 2.422 2.6241 1.156 5.1153 2.596 7.461 4.257m-15.256-6.679c-0.0721-8e-3 -0.1444-0.016-0.2169-0.024m-13.689 9.92c-0.3615 0.301-0.7214 0.604-1.0797 0.909m1.0797-0.909c-0.0393-0.4-0.0701-0.787-0.0917-1.16m0.0917 1.16c0.0269 0.275 0.058 0.555 0.0928 0.84m-1.1725 0.069c-0.7604 0.647-1.5138 1.302-2.2599 1.966m2.2599-1.966c0.3908-0.033 0.7818-0.056 1.1725-0.069m-1.1725 0.069c-0.8279 0.07-1.6555 0.186-2.4805 0.352m0.2206 1.614c-0.2924 0.26-0.5836 0.521-0.8737 0.784m0.8737-0.784c1.1986-0.369 2.3863-0.718 3.5658-1.046m-3.5658 1.046c-0.6821 0.209-1.3678 0.425-2.0576 0.646-0.7564 0.243-1.5131 0.49-2.2688 0.742m3.4527-0.604c-1.4407 0.348-2.8625 0.751-4.2608 1.214m2.4184 0.486c-2.2135 2.081-4.3551 4.238-6.4149 6.465m6.4149-6.465c2.2503-0.427 4.5471-0.576 6.8419-0.405m-13.257 6.87c-0.539 0.583-1.0725 1.17-1.6001 1.763m1.6001-1.763c0.0241-8e-3 0.0483-0.015 0.0725-0.023 3.0411-0.968 6.3443-1.543 9.6948-1.736m-9.7673 1.759c-0.285 0.091-0.5636 0.184-0.8364 0.277m-0.7637 1.486c-0.4998 0.561-0.9943 1.126-1.4835 1.695-0.1346 0.157-0.269 0.314-0.4031 0.472m1.8866-2.167c0.2487-0.497 0.5034-0.992 0.7637-1.486m-0.7637 1.486c-0.3035 0.605-0.5984 1.213-0.8842 1.821m-1.0024 0.346c-1.5321 1.802-3.0314 3.674-4.4801 5.606m4.4801-5.606c0.3286-0.128 0.6633-0.244 1.0024-0.346m-1.0024 0.346c-1.1006 0.429-2.1325 1.001-3.0318 1.701-0.3957 0.308-0.7742 0.627-1.1356 0.958m-0.3127 2.947c-1.4445 1.927-2.8388 3.913-4.1653 5.951m4.1653-5.951c0.0516-0.988 0.1545-1.972 0.3127-2.947m-0.3127 2.947c-0.0395 0.756-0.049 1.515-0.0305 2.275m-4.1348 3.676c-0.4014 0.616-0.7966 1.237-1.185 1.863m1.185-1.863c0.3551-0.32 0.7069-0.636 1.0549-0.947 1.0219-0.914 2.0478-1.825 3.0799-2.729m-4.1348 3.676c-0.3384 0.304-0.6798 0.612-1.0236 0.924m-0.1614 0.939c-0.7623 1.227-1.4988 2.471-2.2059 3.73m2.2059-3.73c0.046-0.315 0.0998-0.628 0.1614-0.939m-0.1614 0.939c-0.5905 4.03 0.0895 8.301 1.9631 12.194m-4.169-8.464c-1.1402 2.03-2.2038 4.099-3.1754 6.198m3.1754-6.198c-0.2158-0.65-0.4115-1.302-0.5857-1.956m0.5857 1.956c0.4415 1.329 0.9674 2.649 1.5664 3.956 0.6739 1.47 1.5479 3.026 2.5333 4.582m-7.2751-2.34c-0.3073-1.74-0.466-3.531-0.423-5.286m0.423 5.286c0.3392 1.921 0.8596 3.779 1.4897 5.455 0.2519 0.67 0.5823 1.446 0.9756 2.294m-4.008-4.197c-0.0574 0.142-0.1144 0.284-0.1709 0.425m0.1709-0.425c-0.2061-2.737-0.0201-5.537 0.4075-8.141m-0.4075 8.141c0.0166 0.222 0.0358 0.443 0.0577 0.663m-0.2286-0.238c-0.1884 0.473-0.3719 0.947-0.5503 1.423m0.5503-1.423c-0.6252-0.657-1.2158-1.33-1.7641-2.018m1.7641 2.018c0.0757 0.08 0.1519 0.159 0.2286 0.238m-0.7789 1.185c-0.409 1.09-0.7909 2.186-1.1436 3.287m1.1436-3.287c-0.5712-1.104-0.983-2.281-1.2138-3.441m1.2138 3.441c0.3705 0.715 0.8081 1.4 1.3068 2.029m-2.4504 1.258c-0.0712 0.222-0.1412 0.445-0.2101 0.668-0.6495 2.102-1.1627 4.388-1.3552 6.673m1.5653-7.341c-0.2778-0.528-0.5403-1.067-0.7868-1.615-0.9971-2.216-1.5856-4.435-1.7732-6.661m2.56 8.276c0.5551 1.055 1.1711 2.07 1.8426 3.044m-3.4079 4.297c-0.4136 4.91 0.6535 9.814 5.0303 12.868 0.8223 0.574 1.694 1.085 2.6035 1.539m-7.6338-14.407c1.0187-1.496 2.1677-2.929 3.4079-4.297m-3.4079 4.297c-0.4769 0.701-0.9253 1.415-1.3412 2.144-1.7276 3.026-2.774 5.333-1.5528 8.786 0.5507 1.557 1.4941 2.989 2.5969 4.217 2.2583 2.513 7.636 6.134 10.597 7.514 6.4565 3.009 13.55 3.611 20.365 2.343m-23.031-10.597c-1.2549-2.988-1.328-6.42-0.5764-9.733 0.2764-1.218 0.6247-2.425 1.0326-3.621m-0.4562 13.354c0.6444 1.534 1.6004 2.952 2.9164 4.175 5.2426 4.875 13.222 6.099 20.115 6.422m7.2281-10.893c-0.3181-0.143-0.6346-0.291-0.9495-0.444-0.5085-0.247-1.0187-0.516-1.5258-0.806m2.4753 1.25c2.4636 1.105 5.0192 1.91 7.6272 2.456m-3.2946-4.347c0.8262-0.403 1.6435-0.825 2.4514-1.266m-2.4514 1.266c-0.7138-0.239-1.4224-0.502-2.1246-0.789m2.1246 0.789c0.8973 0.3 1.8027 0.562 2.714 0.781m-0.2626-2.047c0.8301-0.453 1.6504-0.925 2.4602-1.416m-2.4602 1.416c-0.0416-0.348-0.0809-0.693-0.118-1.033m0.118 1.033c0.0604 0.508 0.1256 1.024 0.1954 1.551 0.0219 0.165 0.0443 0.331 0.0672 0.496m2.1976-3.463c0.7274-0.441 1.4464-0.896 2.1568-1.364m-2.1568 1.364c-0.334-0.031-0.6676-0.067-1.0006-0.108m1.0006 0.108c2.8861 0.265 5.8089 0.139 8.7273-0.474m-6.5705-0.89c0.3194-0.211 0.6371-0.425 0.9529-0.641m-0.9529 0.641c-0.4132 0.186-0.8349 0.369-1.2655 0.546-0.6262 0.258-1.2571 0.495-1.8919 0.71m3.1574-1.256c0.4239-0.192 0.8389-0.389 1.2454-0.591m-0.2925-0.05c0.101-0.069 0.2017-0.138 0.3023-0.208 0.1292-0.089 0.2572-0.178 0.384-0.267m-0.6863 0.475c-0.3303-0.06-0.6625-0.137-0.9965-0.23m0.9965 0.23c0.0977 0.018 0.1952 0.035 0.2925 0.05m0.3938-0.525c0.3457-0.242 0.6826-0.482 1.0117-0.721m-1.0117 0.721c-0.5581 0.092-1.1194 0.174-1.6828 0.245m1.6828-0.245c0.3063-0.051 0.6115-0.105 0.9156-0.162m0.0961-0.559c1.9617-1.423 3.6444-2.798 5.2343-4.261m-5.2343 4.261c-0.5005-0.223-0.9907-0.471-1.4688-0.745m1.4688 0.745c0.1682 0.075 0.3376 0.147 0.5081 0.217m4.7262-4.478c1.0452-0.961 2.0503-1.96 3.068-3.035m-3.068 3.035c-0.6407 5e-3 -1.2705 1e-3 -1.8909-0.01m1.8909 0.01c0.3785-2e-3 0.7609-8e-3 1.1474-0.016m1.9206-3.019c0.4025-0.426 0.807-0.863 1.2168-1.314m-1.2168 1.314c-0.099 0.433-0.2084 0.865-0.3281 1.294m0.3281-1.294c0.0758-0.332 0.1454-0.665 0.2087-0.999m1.0081-0.315c0.5439-0.6 1.0971-1.225 1.6672-1.88l0.0068-8e-3m-1.674 1.888c-0.0398-0.139-0.077-0.279-0.1114-0.42m0.1114 0.42c0.043 0.15 0.089 0.299 0.1381 0.447m1.5359-2.335c0.0352-0.04 0.0704-0.081 0.1055-0.121m-0.1055 0.121c-0.4961 0.817-1.007 1.594-1.5359 2.335m1.5359-2.335c0.0132-0.022 0.0263-0.043 0.0395-0.065m0.066-0.056c0.2379-0.275 0.473-0.55 0.7047-0.826m-0.7047 0.826c-0.022 0.018-0.044 0.037-0.066 0.056m0.066-0.056c0.3778-0.324 0.7561-0.651 1.1344-0.981m-0.4297 0.155c0.144-0.172 0.2868-0.344 0.4281-0.516m-0.4281 0.516c-0.131 0.083-0.2622 0.165-0.3935 0.246m0.3935-0.246c0.1432-0.092 0.286-0.184 0.4285-0.278m-4e-4 -0.238c1.7258-2.104 3.2412-4.263 4.3516-6.611m-4.3516 6.611c9e-4 -0.246 0.0057-0.492 0.0142-0.738m-0.0142 0.738c-2e-4 0.079-1e-4 0.159 4e-4 0.238m4.3512-6.849c0.13469-0.285 0.26342-0.572 0.38584-0.863m-0.38584 0.863c-0.13379-0.089-0.26774-0.179-0.40186-0.268m0.40186 0.268c0.61051 0.407 1.2177 0.81 1.8227 1.207m-1.4369-2.07c0.88557-2.102 1.4412-4.364 1.5356-6.874 0.0116-0.309 0.01372-0.641 0.00725-0.992m-1.5428 7.866c-0.26978 0.209-0.53274 0.407-0.7877 0.595m0.7877-0.595c0.90666-0.701 1.8906-1.516 2.9083-2.404m-1.3654-5.462c-0.00379-0.206-0.01051-0.418-0.02-0.636m0.02 0.636c0.056-0.042 0.11217-0.083 0.1685-0.123m-0.1685 0.123c-0.74446 0.548-1.459 1.157-2.1358 1.8m2.1158-2.436c-0.00525-0.12-0.01135-0.243-0.01827-0.366m0.01827 0.366c0.06476 0.171 0.12761 0.342 0.1885 0.513m-0.1885-0.513c-0.03371-0.089-0.06794-0.177-0.10267-0.266m0.0844-0.1c-0.08005-1.435-0.26935-3.081-0.51967-4.713m0.51967 4.713c0.59704-0.709 1.2265-1.393 1.8837-2.052m-1.8837 2.052c-0.0282 0.033-0.05634 0.067-0.0844 0.1m-0.43527-4.813c-0.18101-1.18-0.39393-2.352-0.62052-3.43m0.62052 3.43c0.85199 0.886 1.6399 1.756 2.4034 2.661m-2.4034-2.661c-0.9051-0.941-1.8825-1.9-2.9796-2.939-0.18416-0.174-0.36989-0.349-0.5572-0.524m2.9163 0.033c0.26201 0.061 0.52389 0.125 0.78565 0.192 1.1404 0.292 2.3451 0.628 3.5248 1.059m-4.3105-1.251c-1.0268-0.241-2.0554-0.439-3.085-0.597m1.145-5.742c-1.2549-0.239-2.5228-0.442-3.7976-0.609m-0.0636-5.827c-0.4645-0.567-0.9559-1.116-1.4753-1.648m1.4753 1.648c4.5025 0.515 8.8787 1.786 12.793 3.858m-12.793-3.858c-1.0579-0.121-2.1229-0.2-3.1904-0.238m1.7151-1.41c-0.7087-0.726-1.4696-1.418-2.2852-2.077m2.2852 2.077c1.3954-1.007 2.9131-1.748 4.4828-1.884 2.1326-0.185 3.9378 0.801 5.7638 1.718 1.1601 0.583 2.2785 1.217 3.3575 1.903m-13.604-1.737c-0.5958 0.43-1.1693 0.909-1.7151 1.41m-0.5701-3.487c-0.0377-0.03-0.0754-0.06-0.1133-0.091-2.8979-2.315-5.1811-3.763-8.9676-4.146-0.267-0.027-0.5355-0.051-0.805-0.071m9.8859 4.308c3.3698-0.628 6.8067-0.986 10.196-0.682 1.3741 0.123 3.0824 0.44 4.857 0.975m-15.053-0.293c-1.0205 0.19-2.0347 0.405-3.0397 0.634-0.0514 0.012-0.1027 0.023-0.154 0.035m-6.6922-4.977c-0.1136-8e-3 -0.2272-0.016-0.3411-0.022m0.3411 0.022c1.1629-0.762 2.345-1.492 3.5456-2.184m-3.5456 2.184c-0.0449 0.03-0.0897 0.059-0.1345 0.089m-0.2066-0.111c-1.5587-0.093-3.1412-0.034-4.6358 0.37-1.1155 0.303-2.2748 0.712-3.4548 1.201m8.0906-1.571c0.069 0.036 0.1378 0.073 0.2066 0.111m-0.2066-0.111c-1.705-0.909-3.4797-1.658-5.2974-2.216m-2.7932 3.787c-1.3298 0.552-2.686 1.205-4.0358 1.922m4.0358-1.922c0.8863 0.245 1.7673 0.543 2.6401 0.896 0.4864 0.197 0.9686 0.403 1.4462 0.618m-4.0863-1.514c-1.5457-0.427-3.1077-0.691-4.6706-0.808m0.6348 2.73c-1.3937 0.74-2.7805 1.548-4.1243 2.381m4.1243-2.381c-0.2336-0.914-0.4466-1.829-0.6348-2.73m0.6348 2.73c0.2026 0.792 0.4208 1.584 0.6518 2.364m-4.7761 0.017c-2.6138 1.621-5.0649 3.339-7.0874 4.843m7.0874-4.843c1.589-0.091 3.1887-0.097 4.7761-0.017m-11.864 4.86c-0.2151 0.16-0.4254 0.317-0.6305 0.472-2.2849 1.724-4.511 3.525-6.6991 5.373m7.3296-5.845c0.228 0.025 0.4542 0.058 0.6781 0.097 2.9774 0.522 4.7904 1.989 5.8138 3.917m-6.4919-4.014c-1.6913-0.19-3.482-7e-3 -5.1642 0.5m-2.1654 5.345c-1.125 0.949-2.2399 1.911-3.3476 2.882m3.3476-2.882c0.489-1.531 1.1086-3.042 1.7929-4.541 0.1224-0.268 0.2466-0.536 0.3725-0.804m-10.671 12.827c-0.9687 0.878-1.9568 1.784-2.953 2.713m2.953-2.713c0.7278-3.68 2.5416-7.115 5.5016-9.822m-8.4546 12.535c-1.0001 0.933-2.0082 1.89-3.0127 2.868m-0.7122 0.697c-0.8115 0.799-1.6188 1.611-2.4157 2.433m2.4157-2.433c0.1603-0.977 0.3545-1.926 0.5748-2.834 0.4737-1.952 1.2415-4.202 2.2093-6.458m-5.1998 11.725c-0.547 0.565-1.0892 1.134-1.6245 1.708m1.6245-1.708c0.6017-4.277 2.9885-9.093 5.1755-12.226m-5.1755 12.226c-0.1194 0.849-0.1685 1.677-0.1317 2.466 0.0251 0.539 0.0942 1.092 0.2049 1.649m-1.6977-2.407c-0.2658 0.286-0.53 0.572-0.7921 0.859m0.7921-0.859c-0.3055-0.497-0.5866-1-0.841-1.508m0.841 1.508c0.5036 0.82 1.0732 1.623 1.6977 2.407m-2.4898-1.548c-0.0664-0.788-0.0826-1.577-0.0489-2.367m48.341 42.11c0.0657-0.039 0.1312-0.077 0.1965-0.116m-0.1965 0.116c0.0753-0.012 0.1505-0.023 0.2258-0.034m-0.0293-0.082c-0.6213-1.736-1.1227-3.523-1.5321-5.321m1.5321 5.321c0.0097 0.028 0.0195 0.055 0.0293 0.082m8.679-6.624c1.8085-1.724 3.4488-3.57 4.9557-5.539m-4.9557 5.539c-2.6678 0.073-5.3364-0.055-7.9667-0.426m12.922-5.113c0.3861-0.505 0.7635-1.018 1.1327-1.539m-1.1327 1.539c-3.0224 1.264-6.1371 1.856-9.2535 1.89m9.2535-1.89c0.8057-0.338 1.6048-0.722 2.3956-1.157 0.0539-0.03 0.1079-0.06 0.1621-0.09m-1.425-0.292c0.558-0.788 1.0972-1.594 1.6199-2.418m-1.6199 2.418c0.4773 0.114 0.9524 0.211 1.425 0.292m0.1949-2.71c1.6881-0.141 3.3821-0.413 5.048-0.818m-3.1303-2.421c0.03793-0.069 0.07579-0.137 0.11354-0.206m-0.11354 0.206c-1.3632 0.994-2.8161 1.844-4.3264 2.511-0.6642 0.294-1.3301 0.559-1.9972 0.796m6.3236-3.307c0.06283-0.046 0.12545-0.092 0.18789-0.139m-0.07435-0.067c0.1826-0.332 0.3632-0.667 0.5419-1.005m-0.5419 1.005c-0.67994-0.618-1.3248-1.293-1.9098-2.017m1.9098 2.017c0.02474 0.023 0.04952 0.045 0.07435 0.067m0.46755-1.072c0.41338-0.781 0.81662-1.576 1.2111-2.386m-1.2111 2.386c-0.33698-0.629-0.631-1.283-0.88386-1.955m0.88386 1.955c0.08944 0.167 0.18189 0.333 0.27741 0.496m0.93367-2.882c0.24868-0.511 0.49387-1.027 0.73591-1.55m-0.73591 1.55c-0.64611 0.131-1.2986 0.246-1.9617 0.346m1.9617-0.346c0.90384-0.183 1.7951-0.397 2.6852-0.645m-1.9493-0.905c1.1904-2.569 2.3046-5.278 3.3835-8.131 0.16894-0.446 0.33424-0.892 0.49589-1.337m-3.8794 9.468c-0.87052 0.67-1.7712 1.303-2.6976 1.896m2.6976-1.896c1.2344-0.95 2.4082-1.974 3.5084-3.064 0.92611-0.917 1.7942-1.894 2.6152-2.911m-2.2442-3.493c0.56441-1.554 1.0843-3.097 1.5592-4.633m-1.5592 4.633c-0.24155-0.156-0.48325-0.312-0.72518-0.47m0.72518 0.47c0.95671 0.617 1.911 1.222 2.8676 1.816m-1.3084-6.449c0.37398-1.209 0.7201-2.414 1.0382-3.616m-1.0382 3.616c-0.62542 0.691-1.2641 1.375-1.9132 2.052m1.9132-2.052c1.0526-1.162 2.0678-2.344 3.0322-3.54m-1.994-0.076c0.1837-0.694 0.35806-1.387 0.52304-2.079m-0.52304 2.079c-0.36151 0.343-0.72381 0.682-1.0851 1.015m1.0851-1.015c0.39458-0.374 0.78823-0.754 1.1786-1.136m-0.65557-0.943c0.25773-1.081 0.49257-2.161 0.70439-3.239m-0.70439 3.239c0.2161 0.306 0.43432 0.62 0.65557 0.943m-0.65557-0.943c-0.2812-0.398-0.55878-0.782-0.83473-1.154m1.5391-2.085c0.2619-1.334 0.4886-2.666 0.67988-4m-0.67988 4c0.46264-0.072 0.9289-0.106 1.3975-0.099m-1.3975 0.099c-0.50492 0.078-1.0055 0.2-1.5001 0.361m2.18-4.361c0.01478-0.103 0.02935-0.206 0.04371-0.309m-0.04371 0.309c0.24348 0.147 0.48151 0.3 0.71302 0.462m-0.71302-0.462c-0.0687-0.041-0.13783-0.081-0.20737-0.122m0.25108-0.187c0.18179-1.304 0.32965-2.609 0.44335-3.917m-0.44335 3.917c0.20985-0.155 0.42111-0.308 0.63368-0.459m-0.63368 0.459c-0.08392 0.062-0.16762 0.125-0.25108 0.187m0.69443-4.104c0.08392 1.137 0.14842 2.293 0.19033 3.458m-0.04558-5.42c0.09607-1.584 0.14211-3.173 0.13775-4.771m-0.13775 4.771c1.7565 0.689 3.4404 1.47 5.0285 2.347m-4.8907-7.118c-0.00294-1.076-0.02876-2.156-0.07757-3.241m0.07757 3.241c0.20338 0.119 0.40537 0.24 0.60591 0.363 2.2905 1.405 4.615 3.326 6.6326 5.585m-7.2385-5.948c-0.36683-0.213-0.73821-0.419-1.1138-0.618m1.0363-2.623c-0.05767-1.281-0.14744-2.57-0.26953-3.867m0.26953 3.867c2.1389 1.528 4.1151 3.273 5.9482 5.235 0.35797 0.384 0.71263 0.771 1.0636 1.163m-7.0118-6.398c-0.55587-0.397-1.1227-0.779-1.7009-1.146m1.4314-2.721c-0.03501-0.372-0.07268-0.745-0.11301-1.118m0.11301 1.118c0.41366 0.168 0.82479 0.349 1.23 0.543m-1.23-0.543c-0.75415-0.307-1.5167-0.573-2.2674-0.8m2.1544-0.318c-0.00652-0.061-0.01311-0.121-0.01977-0.181m0.01977 0.181c0.06132 0.028 0.12255 0.057 0.18364 0.085m-0.18364-0.085c-0.8322-0.386-1.6859-0.762-2.5635-1.131m2.5437 0.95c0.06806 0.088 0.13587 0.177 0.20341 0.266m-0.20341-0.266c-1.1275-1.469-2.3262-2.898-3.5924-4.268m2.6783-1.928c-0.035804-0.195-0.072311-0.39-0.10951-0.585-0.43089-2.261-1.0654-4.496-1.8768-6.667m1.9863 7.252c3.5616 1.692 6.3787 4.215 8.9632 8.16 0.78313 1.196 1.4343 2.526 1.8453 3.912m-10.809-12.072c-1.2046-0.572-2.4943-1.05-3.889-1.456m1.9027-5.796c4.3472-0.462 8.7877-0.217 12.975 0.947 2.6909 0.748 4.7685 1.611 6.7518 3.589 3.0613 3.054 3.9571 7.82 3.999 11.982 0.0242 2.409-0.2023 4.781-0.6299 7.112m-23.096-23.63c-1.3488 0.143-2.6886 0.354-4.0091 0.626m-4.0956-12.814c-2.2732-1.961-4.8959-3.736-7.1901-4.677m7.1901 4.677c-0.56866 0.168-1.1391 0.353-1.7116 0.552-0.208 0.072-0.4157 0.146-0.6229 0.22m-4.8556-5.449c-0.4727-0.194-0.9315-0.353-1.3704-0.47-4.4298-1.186-10.269 0.729-14.058 2.638-1.2653 0.638-2.49 1.353-3.6884 2.113m19.117-4.281c1.4557 1.197 2.773 2.571 3.8842 4.074 0.3239 0.438 0.6479 0.897 0.9714 1.375m-4.8556-5.449c-0.9046-0.744-1.8627-1.42-2.8581-2.016-4.482-2.683-7.4893-1.86-11.382 1.078-2.0707 1.562-3.6528 3.275-4.8761 5.219m0 0c-1.6258 1.031-3.2032 2.145-4.7678 3.263-6.5192 4.659-11.078 8.721-16.516 14.584-3.8874 4.191-7.4174 8.327-9.7495 13.558m31.034-31.405c-1.3115 2.083-2.2106 4.433-2.8576 7.149-0.4007 1.682-0.6803 3.405-0.8224 5.137m-27.354 19.119c-0.1078 0.241-0.213 0.486-0.3157 0.732-0.6568 1.579-1.1285 3.163-1.4331 4.749m1.7488-5.481c1.1767-0.87 2.323-1.63 3.3693-2.265 3.0443-1.847 6.2748-3.372 9.5909-4.703m-12.96 6.968c-6.0671 4.482-12.943 11.87-11.08 19.967 0.2729 1.187 0.7083 2.352 1.2781 3.491m8.0531-17.977c-0.3557 1.851-0.4835 3.704-0.4121 5.551m0.4121-5.551c0.9705-1.317 1.9153-2.473 2.7389-3.314 3.2642-3.333 6.9451-5.986 10.916-8.043m-13.654 11.357c-2.4967 3.387-5.164 7.841-6.3783 10.751-1.0111 2.423-1.5726 4.829-1.6748 7.226m7.641-12.426c0.0065 0.167 0.0146 0.334 0.0243 0.501m-0.0243-0.501c0.0355-0.051 0.0709-0.102 0.1063-0.152 0.1724-0.243 0.3495-0.483 0.531-0.72m-0.613 1.373c0.0122 0.209 0.0269 0.419 0.0442 0.629m-0.0442-0.629c0.1963-0.458 0.4009-0.916 0.613-1.373m-0.5688 2.002c0.4413-0.775 0.9249-1.529 1.4051-2.272 0.8002-1.238 1.6348-2.367 2.5082-3.428m1.6687 21.292c0.1643 0.26 0.3317 0.52 0.5017 0.779m-0.5017-0.779c0.0231-0.024 0.0462-0.049 0.0693-0.074m-0.0693 0.074c-0.9667 1.038-1.8982 2.218-2.5677 3.493m3.0694-2.714c0.0477 0.072 0.0956 0.145 0.1437 0.218m-0.1437-0.218c-0.011-0.021-0.022-0.041-0.0329-0.062-0.1387-0.262-0.2719-0.525-0.3995-0.791m0.4324 0.853c0.0413 0.077 0.083 0.154 0.125 0.232m0.0187-0.014c-0.0062 4e-3 -0.0125 9e-3 -0.0187 0.014m1.172 1.668c1.183 1.669 2.4376 3.282 3.6486 4.729m-3.6486-4.729c0.9554-1.548 1.9455-3.065 2.9364-4.546m-2.9364 4.546c-0.0313 0.05-0.0626 0.101-0.0939 0.152m3.7425 4.577c0.2223 0.265 0.4431 0.526 0.6617 0.779m-0.6617-0.779c-0.0547 0.024-0.1094 0.048-0.1643 0.072m0.1643-0.072c0.0863-0.038 0.1722-0.077 0.2579-0.115m0.4038 0.894c-0.1505-0.291-0.2858-0.589-0.4038-0.894m0.4038 0.894c0.0705 0.137 0.1444 0.272 0.2214 0.406m1.1065 1.093c1.3264 1.461 2.7266 2.903 4.1886 4.297m-4.1886-4.297c1.8274 1.743 3.8026 3.334 5.833 4.769 0.2035 0.144 0.408 0.286 0.6136 0.428m-2.258-0.9c0.148 0.141 0.2966 0.282 0.4458 0.422m-0.4458-0.422c0.2299 0.168 0.4599 0.332 0.6886 0.493m-0.2428-0.071c0.6934 0.651 1.4003 1.29 2.1193 1.914m-2.1193-1.914c0.0809 0.024 0.1618 0.047 0.2428 0.071m1.8765 1.843c1.0967 0.953 2.2218 1.872 3.3708 2.746m-3.3708-2.746c-0.0638-0.226-0.1209-0.455-0.1709-0.686m0.1709 0.686c0.2886 1.025 0.7151 2.004 1.2499 2.933m2.1209-0.187c1.5851 1.205 3.2158 2.324 4.8805 3.327 0.8345 0.503 1.6843 0.976 2.547 1.415m-7.4275-4.742c-0.7045 0.084-1.4118 0.147-2.1209 0.187m2.1209-0.187c0.6096-0.074 1.2171-0.164 1.8217-0.27m5.6058 5.012c0.5978 0.304 1.2018 0.592 1.8112 0.863m-1.8112-0.863c-1.9417 0.252-3.8906 0.193-5.8149-0.099m5.8149 0.099c1.1138-0.145 2.2253-0.392 3.3284-0.756 0.5358-0.177 1.0833-0.398 1.6356-0.654m-3.1528 2.273c0.3492 0.156 0.7003 0.305 1.0529 0.449m-1.0529-0.449c-2.0922 0.224-4.2001 0.257-6.3017 0.118m6.3017-0.118c1.0872-0.116 2.1702-0.285 3.2459-0.507m-2.193 0.956c0.7393-0.293 1.4703-0.613 2.193-0.956m9.6102 3.344c-1.1534 1.144-2.3802 2.221-3.6689 3.223m15.48-6.36c1.6664-0.931 3.4691-2.165 5.243-3.528m-5.243 3.528c3.4419 0.588 6.7549 0.313 9.8265-0.619m-4.5836-2.909c0.04905-0.037 0.0981-0.075 0.14711-0.113m-0.14711 0.113c0.07014-0.017 0.14023-0.034 0.21027-0.051m-0.06316-0.062c0.02772-0.021 0.05543-0.043 0.08315-0.064m-0.08315 0.064c-0.10407-0.102-0.20625-0.205-0.30661-0.31m0.30661 0.31c0.02098 0.021 0.04203 0.041 0.06316 0.062m0.01999-0.126c2.7216-2.11 5.3582-4.505 7.3104-6.551 1.2207-1.279 2.4061-2.604 3.5536-3.968m-10.864 10.519c-0.13065-0.081-0.26052-0.163-0.38976-0.246m0.38976 0.246c0.04659 0.029 0.09328 0.057 0.14008 0.085m10.724-10.604c0.3083-0.366 0.61387-0.736 0.91665-1.107m-0.91665 1.107c0.46303-0.27 0.9229-0.554 1.377-0.852m-0.46036-0.255c0.64069-0.788 1.2689-1.587 1.8842-2.397m-1.8842 2.397c0.15315 0.085 0.30661 0.17 0.46036 0.255m1.4238-2.652c0.17083 0.426 0.33458 0.854 0.49056 1.283m4.155-7.993c1.156-1.835 2.2476-3.707 3.2701-5.606m-3.2701 5.606c0.2179 1.213 0.2651 2.46 0.1293 3.695m3.1408-9.301c0.0447-0.083 0.0893-0.166 0.1338-0.249m-0.1338 0.249c0.0423 1.494-0.1487 2.999-0.6205 4.49-0.551 1.742-1.425 3.348-2.5203 4.811m3.1408-9.301c-0.01-0.353-0.0331-0.706-0.0686-1.059m0.2024 0.81c0.1397-0.261 0.2781-0.523 0.4152-0.785m-0.4152 0.785c0.4776 1.976 0.8795 4.121 1.1418 6.303m-1.1418-6.303c-0.0661-0.273-0.1336-0.543-0.2024-0.81m0.6176 0.025c0.38-0.727 0.7498-1.457 1.1092-2.19m-1.1092 2.19c-0.3013-0.992-0.6919-1.959-1.1769-2.89m1.1769 2.89c0.6871 2.264 0.9093 4.663 0.7266 7.088m0.3826-9.278c0.0904-0.184 0.18-0.369 0.269-0.553 0.0804-0.167 0.1603-0.334 0.2395-0.502m-0.5085 1.055c-1.0541-1.553-2.303-2.976-3.714-4.274m3.714 4.274c1.6877 2.485 2.8762 5.302 3.4322 8.467m-2.9237-9.522c1.3666-2.889 2.5437-5.868 3.4115-8.926m-3.4115 8.926c0.6583 1.161 1.2759 2.342 1.8479 3.541 0.5715 1.197 1.1103 2.432 1.6053 3.694m-0.0417-16.161c0.3804-1.341 0.7013-2.696 0.9526-4.066m-0.9526 4.066c0.5121 0.555 1.0236 1.127 1.536 1.715 0.2233 0.256 0.4451 0.514 0.6651 0.774m-2.2011-2.489c-0.9875-1.072-1.9768-2.086-2.9767-3.048m3.9293-1.018c0.5362-0.121 1.0717-0.234 1.6044-0.338m-1.6044 0.338c-1.3158 0.296-2.636 0.64-3.9293 1.018m-23.176-24.022c-0.43094 0.089-0.85981 0.185-1.2863 0.287-1.2138 0.289-2.4156 0.625-3.6045 1.003m4.8908-1.29c0.75054 1.714 1.4577 3.452 2.1064 5.17m-12.268-1.897c-2.2052 0.958-4.3593 2.053-6.4574 3.263m6.4574-3.263c2.5004 0.123 5.0493 0.403 7.6724 0.86 0.53899 0.093 1.0643 0.193 1.5766 0.298m-9.249-1.158c-6.9939-0.344-13.609 0.538-20.411 2.21m13.954 1.053c6.7346 0.479 12.903 2.023 20.183 5.003 0.26922 0.11 0.53622 0.221 0.80104 0.333m-20.984-5.336c-2.9105-0.207-5.9267-0.215-9.1841-0.054m5.504 2.327c-1.4336 0.944-2.8378 1.938-4.2109 2.974m4.2109-2.974c2.4491 1.328 4.7513 2.988 6.8267 4.888m-11.038-1.914c-1.3225 0.997-2.6162 2.033-3.8794 3.099m3.8794-3.099c2.0981 0.941 4.1079 2.047 5.9937 3.311m-9.8731-0.212c-0.9223 0.779-1.8283 1.574-2.7176 2.382m2.7176-2.382c1.744 0.233 3.4507 0.571 5.0877 1.013 0.492 0.133 0.9772 0.276 1.4556 0.429m-6.5433-1.442c-1.1831-0.158-2.3835-0.267-3.5909-0.327m0.8733 2.709c-2.1863 1.988-4.2709 4.058-6.2449 6.165m6.2449-6.165c-0.3062-0.874-0.5988-1.783-0.8733-2.709m0.8733 2.709c0.4055 1.158 0.835 2.255 1.278 3.248m-7.5229 2.917c-0.2142 0.229-0.4271 0.458-0.6387 0.687-1.2619 1.369-2.4224 2.681-3.519 3.977m-10.007 13.481c0.2042-0.3 0.4076-0.599 0.6099-0.895l0.138-0.203c0.1198-0.175 0.2389-0.35 0.3575-0.523m-1.1054 1.621c-0.5612 0.824-1.1284 1.66-1.6954 2.508m1.6954-2.508c-0.1149-0.277-0.2271-0.555-0.3366-0.834m0.3366 0.834c0.1548 0.372 0.3144 0.741 0.4785 1.107m-2.1739 1.401c0.6951-0.46 1.4221-0.929 2.1739-1.401m-5.2042 6.099c1.0502 1.641 2.2576 3.191 3.5782 4.649m-6.5215 0.524c-0.1171 0.226-0.2327 0.453-0.3469 0.681m0.3469-0.681c-0.7719-0.511-1.5365-1.044-2.2864-1.599m2.2864 1.599c0.3689 0.244 0.7394 0.483 1.1108 0.716m-1.4577-0.035c-0.2559 0.51-0.5042 1.023-0.7438 1.539m0.7438-1.539c-0.5687-0.046-1.1309-0.132-1.6801-0.26-0.0162-4e-3 -0.0324-8e-3 -0.0486-0.012m1.7287 0.272c0.4825 0.039 0.9697 0.051 1.4577 0.035m-2.2015 1.504c-0.0742 0.159-0.1476 0.319-0.2201 0.479m0.2201-0.479c-0.3429-0.613-0.6724-1.219-0.9849-1.811m0.9849 1.811c0.6592 1.177 1.3679 2.38 2.1008 3.555m-2.3209-3.076c-0.1459-0.259-0.2817-0.521-0.4066-0.788-0.2419-0.516-0.4069-1.03-0.5051-1.539m0.9117 2.327c0.6148 1.093 1.4088 2.119 2.3209 3.076m-3.4303-0.419c-0.1749 0.458-0.3415 0.919-0.4992 1.381m0.4992-1.381c-0.8987-0.844-1.6962-1.788-2.3594-2.836-0.5337-0.843-0.9828-1.742-1.3557-2.681m3.2159 6.898c-1.7546-1.603-3.3306-3.392-4.6821-5.35m44.115 28.389c10.32-1.547 20.335-4.732 30.182-8.481 2.3876-0.909 4.7589-1.817 7.1139-2.769m0 0c0.62851-0.253 1.2558-0.51 1.8819-0.771m-1.8819 0.771c-1.8032-0.024-3.6173-0.253-5.3885-0.664m5.3885 0.664c0.51671 7e-3 1.0326-3e-3 1.5463-0.03m0.3356-0.741c-0.1114 0.247-0.2233 0.495-0.3356 0.741m0.3356-0.741c1.75-3.889 3.3956-7.891 4.7494-11.575m7.4081 2.475c1.2693 0.289 2.8202 0.582 4.4014 0.819m-6.8705-20.196c-0.1694 0.764-0.3461 1.527-0.5295 2.287m0.5295-2.287c0.999-4.507 1.7471-9.08 2.1594-13.672m-12.196-3.045c-0.0028-4e-3 -0.0056-7e-3 -0.0085-0.01m0.0085 0.01c-0.1008 0.257-0.2065 0.512-0.3165 0.766m0.3165-0.766c0.0022-6e-3 0.0043-0.011 0.0065-0.017m-0.015 7e-3c-0.2898-0.35-0.5828-0.697-0.8787-1.04m0.8787 1.04c5e-3 -3e-3 0.01-5e-3 0.015-7e-3m-0.015 7e-3c-0.195 0.082-0.3871 0.164-0.5761 0.247m-0.3026-1.287c-0.31229-0.363-0.6278-0.722-0.94632-1.078m0.94632 1.078c-0.0236 0.18-0.0512 0.361-0.0824 0.541m0.0824-0.541c0.1078-0.824 0.1348-1.651 0.0592-2.478-0.35755-3.914-3.478-6.614-7.0569-8.322m6.0513 9.722c0.29318 0.538 0.58154 1.078 0.86392 1.619m-0.86392-1.619c-1.9105-3.502-4.0266-6.888-6.0513-9.722m-2.6614 2.178c0.23774 1.183 0.46164 2.445 0.66466 3.769m-0.66466-3.769c-0.012461-0.062-0.024957-0.124-0.037493-0.185-0.21244-1.044-0.4809-2.162-0.79852-3.336m-14.483 3.194c-0.1884 0.173-0.3736 0.348-0.5552 0.526m0.5552-0.526c-0.3425-0.013-0.6853-0.021-1.0282-0.025m0.473 0.551c-0.1556-0.185-0.3133-0.369-0.473-0.551m-2.0686 3.323c-0.0199 0.023-0.0397 0.047-0.0594 0.07-0.1705 0.203-0.3391 0.407-0.5059 0.612m0.5653-0.682c0.7341 0.748 1.4327 1.528 2.0921 2.341m-2.6574-1.659c-0.3795 0.467-0.7494 0.941-1.1097 1.42m1.1097-1.42c0.7416 0.513 1.4614 1.055 2.1599 1.626m-3.2696-0.206c-0.0187 0.025-0.0373 0.05-0.0559 0.075m0.0559-0.075c0.0643 0.026 0.1285 0.053 0.1926 0.079m-0.1926-0.079c-0.6223-0.251-1.2554-0.472-1.8993-0.656-3.6359-1.043-7.7036-0.858-10.859 1.374-0.1896 0.134-0.3761 0.273-0.5595 0.416m13.262-1.059c-4.6025-0.076-9.1216 0.29-13.262 1.059m13.262-1.059c0.0828 1e-3 0.1657 3e-3 0.2485 4e-3m-4.7435 7.219c-0.4966 0.967-0.964 1.949-1.4031 2.945m1.4031-2.945c4.0857-0.707 8.2245-0.968 12.361-0.622m-12.361 0.622c-1.444 0.249-2.8813 0.555-4.3095 0.909m2.9064 2.036c-0.0975 0.221-0.1937 0.442-0.2885 0.665m0.2885-0.665c2.8771 0.413 6.3288 1.805 7.7058 4.624 0.5261 1.077 0.761 2.222 0.7785 3.39m-8.4843-8.014c-0.1659-0.024-0.33-0.045-0.4916-0.062-0.1974-0.022-0.3953-0.041-0.5937-0.058m0.7968 0.785c-0.648 1.521-1.2312 3.071-1.7526 4.643m1.7526-4.643c-0.2679-0.259-0.5336-0.521-0.7968-0.785m0.7968 0.785c1.8359 1.776 3.7757 3.439 5.7338 5.013 0.996 0.801 2.0109 1.577 3.039 2.336m-10.525-2.706c-1.6656 5.022-2.7006 10.27-3.2033 15.513m3.2033-15.513c2.978-0.644 5.6832-0.115 8.0631 2.013m-8.0631-2.013c-0.4389 0.095-0.8836 0.215-1.3342 0.36-3.0885 0.991-7.5702 3.568-10.025 5.484-1.5539 1.212-3.1802 2.617-4.6712 4.186m12.827 5.483c-0.0162 0.169-0.0318 0.338-0.0469 0.507-0.0847 0.949-0.1555 1.861-0.2123 2.748m0.2592-3.255c1.0422-3.548 3.5327-7.001 5.8124-9.693 0.9367-1.106 2.9733-3.213 4.6082-3.683 0.3005-0.086 0.5821-0.125 0.8458-0.124m-11.266 13.5c-0.1326 0.452-0.2417 0.905-0.324 1.358-0.1156 0.637-0.1479 1.27-0.108 1.893m0.1728 4e-3c-0.0204 0.318-0.0389 0.634-0.0557 0.946m0.0557-0.946c-0.0575-1e-3 -0.1151-3e-3 -0.1728-4e-3m0.1728 4e-3c1.9168 0.042 3.7073-0.1 5.4811-0.424m-5.5368 1.37c-0.0522 0.973-0.0867 1.918-0.1033 2.848m0.1033-2.848c-0.0571-0.314-0.0966-0.631-0.1171-0.95m0.1171 0.95c0.1455 0.799 0.405 1.575 0.7541 2.316m-0.8574 0.532c-0.0023 0.131-0.0043 0.263-6e-3 0.394m6e-3 -0.394c-0.0601 0.036-0.1204 0.072-0.1811 0.109-0.1002 0.06-0.2007 0.119-0.3015 0.178m0.4826-0.287c0.2924-0.177 0.578-0.354 0.8574-0.532m-0.8634 0.926c-3e-4 0.028-7e-4 0.057-1e-3 0.085m1e-3 -0.085c-0.1587-0.035-0.3175-0.071-0.4766-0.107m0.4766 0.107c0.1855 0.04 0.3708 0.08 0.5559 0.118m-0.5569-0.033c-0.0075 0.669-0.0057 1.332 0.0056 1.993m-0.0056-1.993c-0.2043-0.016-0.4325-0.039-0.6881-0.068m0.6881 0.068c0.2095 0.017 0.3938 0.028 0.5569 0.033m-0.5513 1.96c0.012 0.705 0.0347 1.408 0.0682 2.116m-0.0682-2.116c-0.8541 0.092-1.7124 0.156-2.5733 0.192m2.5733-0.192c0.5825-0.062 1.163-0.139 1.7411-0.228 0.2846-0.045 0.5666-0.091 0.8461-0.139m-2.519 2.483c0.0405 0.853 0.0966 1.712 0.1686 2.59m-0.1686-2.59c-0.9168-0.575-1.7897-1.216-2.6415-1.924m2.6415 1.924c0.715 0.448 1.4566 0.856 2.2358 1.224m-2.0672 1.366c0.0016 0.019 0.0032 0.039 0.0048 0.058m-0.0048-0.058c-0.0327 0.019-0.0654 0.039-0.0981 0.058m0.0981-0.058c0.7006-0.422 1.3945-0.882 2.0672-1.366m-2.0624 1.424c0.0424 0.512 0.0902 1.031 0.1434 1.557m-0.1434-1.557h-0.1029m0.1029 0c1.1066-5e-3 2.2178-0.058 3.3251-0.155m-3.1817 1.712c0.0055 0.055 0.0111 0.109 0.0167 0.164m-0.0167-0.164c-0.764-0.133-1.5245-0.292-2.2807-0.475m2.2807 0.475c0.08 0.014 0.1601 0.028 0.2402 0.041m-0.2235 0.123c0.0195 0.19 0.0398 0.381 0.0607 0.573m-0.0607-0.573c-0.7256 0.396-1.4605 0.774-2.2043 1.127m2.2043-1.127c0.0746-0.041 0.1491-0.082 0.2235-0.123m-0.1628 0.696c-0.7507 0.212-1.506 0.397-2.265 0.554m2.265-0.554c0.5283-0.15 1.0543-0.313 1.5776-0.491m-0.6164 7.137c0.8993 0.189 1.8049 0.346 2.7151 0.475m43.215-16.546c0.5882-1.6 1.1213-3.141 1.584-4.585 1.0527-3.287 2.0068-6.637 2.8255-10.03m-4.4095 14.615c-0.1412-0.059-0.2822-0.117-0.4229-0.177m4.8324-14.438c0.493 2.807 0.4885 5.888-0.1065 9.255m2.7954-25.214c0.206-2.295 0.3282-4.594 0.3559-6.893m-35.14-34.708c-4.8404 1.741-9.4633 4.053-13.934 6.629m0 0c-2.9107 1.678-5.7567 3.466-8.5559 5.281-1.7519 1.137-3.4952 2.295-5.2249 3.479m13.781-8.76c-1.5027-0.155-3.0772-0.115-4.8427 0.165-3.3706 0.533-6.301 2.185-8.8761 4.324m-0.062 4.271c-1.1628 0.795-2.3195 1.602-3.4685 2.421m3.4685-2.421c-0.0069-0.12-0.0129-0.239-0.018-0.356-0.056-1.302-0.027-2.611 0.08-3.915m-3.5305 6.692c-1.3806 0.983-2.7501 1.984-4.1058 3.002m4.1058-3.002c-1.1966 0.239-2.3878 0.582-3.5667 1.034m-0.5391 1.968c-0.2699 0.203-0.5393 0.406-0.8081 0.61m0.8081-0.61c-0.3851 0.128-0.7699 0.258-1.1543 0.39m0.3462 0.22c-0.3413 0.26-0.6817 0.52-1.0211 0.782m1.0211-0.782c-0.2156 0.072-0.4306 0.144-0.645 0.219m-0.3761 0.563c-0.4495 0.346-0.8972 0.694-1.3432 1.045m1.3432-1.045c0.1245-0.189 0.2499-0.376 0.3761-0.563m-0.3761 0.563c-0.1621 0.245-0.3228 0.491-0.4821 0.738m-0.8611 0.307c-2.4163 1.899-4.7803 3.859-7.0761 5.887-0.2725 0.241-0.542 0.479-0.8085 0.716m7.8846-6.603c0.2856-0.107 0.5727-0.209 0.8611-0.307m-0.8611 0.307c-2.1275 0.793-4.1758 1.826-6.0985 3.058m-1.7861 3.545c-2.5302 2.25-4.7915 4.36-6.8396 6.847m6.8396-6.847c0.5277-1.329 1.1169-2.499 1.7861-3.545m-8.6257 10.392c-1.1925 1.163-2.3346 2.381-3.3445 3.698m0.2034 23.003c0.0032 7e-3 0.0065 0.014 0.0097 0.021m-0.0097-0.021c0.7349-0.657 1.4842-1.295 2.2421-1.916m-2.2421 1.916-0.0078 7e-3m0.0175 0.014c0.375 0.808 0.8067 1.682 1.2815 2.593m-1.2815-2.593c-0.0058-5e-3 -0.0117-9e-3 -0.0175-0.014m0.0175 0.014c0.4193 0.332 0.8448 0.657 1.2752 0.975m0.0063 1.618c0.0673 0.129 0.1355 0.259 0.2045 0.39m-0.2045-0.39c-0.073-0.546-0.0709-1.086-0.0063-1.618m0.0063 1.618c0.0157 0.118 0.0349 0.235 0.0576 0.353m0.1469 0.037c-0.0492-0.012-0.0981-0.024-0.1469-0.037m3.2326 5.403c0.6762 1.085 1.373 2.147 2.0703 3.144m-2.0703-3.144c1.6029 1.684 3.5704 3.156 5.5701 4.404m-3.4998-1.26c0.973 1.392 1.9471 2.66 2.8681 3.692m-2.8681-3.692c1.1353 0.505 2.3125 0.923 3.4998 1.26m27.132 4.73c0.9984-0.553 1.9791-1.141 2.9415-1.753m-2.9415 1.753c0.4704 0.078 0.942 0.147 1.4148 0.205m1.5267-1.958c0.2355-0.149 0.47-0.301 0.7033-0.453m-0.7033 0.453c0.5302-0.046 1.0595-0.103 1.5871-0.169m-0.8838-0.284c0.7136-0.466 1.4169-0.943 2.1095-1.427m-2.1095 1.427c-0.6836-0.246-1.337-0.518-1.966-0.816m1.966 0.816c0.0323 0.012 0.0646 0.023 0.097 0.035 0.2633 0.093 0.5256 0.176 0.7868 0.249m1.2257-1.711c1.6674-1.164 3.2728-2.364 4.8122-3.526m-4.8122 3.526c-0.6137-0.352-1.2072-0.747-1.7766-1.189m6.5888-2.337c0.2754-0.208 0.5487-0.415 0.8199-0.62l0.1998-0.151c1.3436-1.017 2.7346-2.104 4.1479-3.253m-5.1676 4.024c-1.3463-0.025-2.6491-0.089-3.9262-0.194m9.0938-3.83c0.298-0.243 0.5969-0.488 0.8967-0.735m-0.8967 0.735c0.0824-0.435 0.1542-0.872 0.2149-1.309m0.6818 0.574c0.6058-0.501 1.2147-1.012 1.8249-1.533m-1.8249 1.533c-0.0672-0.275-0.1239-0.552-0.1695-0.833m1.9944-0.7c0.1266-0.209 0.2524-0.421 0.3772-0.636m0.8232-0.401c0.2017-0.177 0.4035-0.354 0.6051-0.532m-0.6051 0.532c-5e-4 -0.041-9e-4 -0.082-0.0012-0.123m0.0012 0.123c0.0227 1.902 0.2798 3.788 0.8019 5.572m-0.1968-6.104c1.8817-1.665 3.7564-3.416 5.5676-5.233m-5.5676 5.233c-0.2011 0.139-0.4033 0.275-0.6063 0.409m0.6063-0.409c2.0592-1.426 4.0108-3.148 5.6134-5.203m-0.04578-0.03c0.09969-0.1 0.19919-0.2 0.29849-0.3m-0.29849 0.3 0.04578 0.03m0.25271-0.33c0.37189-0.376 0.74095-0.754 1.1067-1.135m-1.1067 1.135c-0.08323 0.111-0.16748 0.221-0.25271 0.33m0.25271-0.33c0.41424-0.553 0.80314-1.13 1.1622-1.73m-0.0555 0.595c-0.07778 0.699-0.20028 1.403-0.37117 2.111m0.37117-2.111c0.02207-0.199 0.04055-0.397 0.0555-0.595m4.8899-4.997c0.11867-0.147 0.23656-0.294 0.35367-0.442m-0.35367 0.442c0.08976 0.136 0.17946 0.272 0.26905 0.409m-0.26905-0.409c-0.1213-0.183-0.24273-0.365-0.36419-0.546-0.15195-0.227-0.30226-0.449-0.4512-0.666m1.1691 0.77c1.1587-1.459 2.2399-2.938 3.2196-4.427m-3.2196 4.427c-0.0263 0.285-0.0545 0.568-0.08462 0.851m0.08462-0.851c0.06428-0.695 0.11728-1.395 0.15969-2.097m3.06-2.33c0.07308-0.111 0.14559-0.222 0.21753-0.333m-0.21753 0.333c0.14257 0.06 0.28511 0.125 0.42756 0.195m-0.42756-0.195c-0.21177-0.089-0.42363-0.169-0.63545-0.238m0.85298-0.095c0.51942-0.803 1.0089-1.608 1.4648-2.414 0.14223-0.252 0.28417-0.506 0.42491-0.763m-1.8897 3.177c0.07509 0.171 0.14518 0.347 0.21003 0.528m-0.21003-0.528c-0.0839-0.192-0.17402-0.378-0.27002-0.558m2.1597-2.619c-0.61981 0.817-1.3515 1.7-2.1597 2.619m3.9509-6.352c0.26448-0.667 0.49716-1.344 0.68519-2.027m-0.68519 2.027c-0.61564-0.39-1.2489-0.765-1.8981-1.123m1.8981 1.123c0.14792 0.094 0.29482 0.189 0.44068 0.285m0.24451-2.312c0.03903-0.141 0.07614-0.283 0.11121-0.426m-0.11121 0.426c0.19915 0.229 0.39515 0.46 0.58755 0.695m-0.58755-0.695c-0.07803-0.089-0.15656-0.178-0.23554-0.266m0.34675-0.16c0.08284-0.336 0.15444-0.673 0.21294-1.012m-0.21294 1.012c0.19564-0.088 0.39504-0.177 0.59794-0.266m-0.59794 0.266c-0.11696 0.053-0.23256 0.106-0.34675 0.16m0.55969-1.172c0.1297 0.249 0.258 0.497 0.385 0.746m-7.3003-12.087c-0.24163-0.339-0.48195-0.669-0.72047-0.991-0.14507-0.195-0.29139-0.391-0.43894-0.585m-2.338 0.233c-0.12848-0.474-0.265-0.958-0.40911-1.449m-17.838 1.825c-1.7814 0.41-3.453 0.874-5.0439 1.397m5.0439-1.397c0.9634 0.882 1.8779 1.816 2.7356 2.793m-7.7795-1.396c-1.1483 0.378-2.2546 0.787-3.3298 1.23m3.3298-1.23c0.7977 0.535 1.5733 1.098 2.3241 1.689m-5.6539-0.459c-2.8072 1.155-5.403 2.538-7.9829 4.188m7.9829-4.188c0.8773 0.281 1.732 0.595 2.5646 0.941m-10.548 3.247c-1.4241 0.911-2.8434 1.904-4.2908 2.985m4.2908-2.985c0.0466 0.105 0.0934 0.209 0.1404 0.311m-4.4312 2.674c0.9841-0.69 2.0366-1.354 3.2076-2.015 0.4024-0.227 0.8104-0.447 1.2236-0.659m-6.9095 4.589c-0.1081 0.087-0.2159 0.174-0.3235 0.262m0.3235-0.262c0.01 0.039 0.0198 0.078 0.0294 0.117m-0.0294-0.117c-0.0011-5e-3 -0.0022-9e-3 -0.0033-0.013m-0.3202 0.275c-0.0612 0.05-0.1223 0.101-0.1833 0.151m0.1833-0.151c-0.0046 2e-3 -0.0093 4e-3 -0.014 6e-3m0.014-6e-3c0.1169-0.048 0.2345-0.097 0.3529-0.145m-0.5362 0.296c-2.2458 1.854-4.3534 3.889-6.2697 6.08-0.1338 0.153-0.2799 0.327-0.436 0.52m6.7057-6.6c0.0564-0.048 0.1128-0.097 0.1693-0.145m-0.1693 0.145c-1.2503 1.075-2.4725 2.247-3.8036 3.577-0.9716 0.971-1.9478 1.979-2.9021 3.023m0 0c-1.089 1.347-2.6624 3.608-3.932 5.924m3.932-5.924c-1.8686 2.045-3.6534 4.232-5.1561 6.57m1.2241-0.646c-0.6006 1.096-1.1331 2.203-1.5143 3.232m1.5143-3.232c0.7012-0.357 1.434-0.71 2.2061-1.067 2.6924-1.243 5.6114-2.39 8.6332-3.301m-10.839 4.368c-0.4187 0.214-0.8262 0.428-1.2241 0.646m-0.2902 2.586c-0.055 0.149-0.1069 0.296-0.1554 0.441m0.1554-0.441c3.8505-2.334 8.1599-4.685 12.071-6.519m-12.071 6.519c-0.0983 0.06-0.1963 0.12-0.294 0.179m0.1386 0.262c-0.2507 0.75-0.4102 1.449-0.4438 2.058-0.0197 0.359-0.0113 0.712 0.0223 1.061m0.4215-3.119c-0.0467-0.087-0.0929-0.174-0.1386-0.262m-0.2829 3.381c-0.1702-0.316-0.3354-0.635-0.4954-0.958-0.2405-0.486-0.4733-0.978-0.6978-1.478m3.6182 7.661c1.2208 1.451 2.7298 2.666 4.1253 3.552 0.0789 0.05 0.1581 0.1 0.2375 0.149m-4.3628-3.701c0.2344-0.177 0.4655-0.357 0.6934-0.542m3.6694 4.243c0.734 0.456 1.4883 0.879 2.2578 1.275m-2.2578-1.275c0.0493-0.114 0.1-0.229 0.1521-0.343m-0.1521 0.343c-0.5701 1.326-0.9548 2.713-1.0871 4.151-0.0825 0.896-0.0543 1.768 0.0696 2.614m3.2753-5.49c2.1262 1.093 4.369 1.976 6.6228 2.76 0.4494 0.156 0.8937 0.307 1.3335 0.452m-7.9563-3.212c-0.7274-0.507-1.4298-1.047-2.1057-1.618m2.1057 1.618c1.7814 1.241 3.7127 2.287 5.7726 3.11 0.9776 0.391 1.9774 0.739 2.9933 1.026m-0.8096-0.924c2.1656 0.716 4.2241 1.299 6.2523 1.761m-6.2523-1.761c-1.1098-1.315-2.1158-2.723-2.9774-4.21m2.9774 4.21c0.2642 0.313 0.5342 0.621 0.8096 0.924m5.4427 0.837c-0.0707 0.042-0.1415 0.083-0.2125 0.124m1.245 0.101c0.3324 0.07 0.6643 0.136 0.9961 0.198m-0.9961-0.198c0.3826 0.013 0.6479-5e-3 0.845-0.044m0.1511 0.242c1.4925 0.283 2.9826 0.501 4.5014 0.658m-4.5014-0.658c-0.0514-0.08-0.1018-0.161-0.1511-0.242m0.1511 0.242c0.3122 0.488 0.6616 0.955 1.0398 1.395m3.4616-0.737c0.4034 0.042 0.8087 0.08 1.2167 0.113m-1.2167-0.113c-1.1043 0.284-2.2588 0.529-3.4616 0.737m3.4616-0.737c0.6147-0.157 1.2138-0.327 1.797-0.509m-0.5803 0.622c-0.2387 0.251-0.4781 0.497-0.7175 0.738-0.5797 0.582-1.2358 1.189-1.9451 1.793m2.6626-2.531c0.194-0.204 0.3876-0.411 0.5803-0.622m6.3842 0.81c0.2565-5e-3 0.5148-0.012 0.7751-0.019 0.096-3e-3 0.1917-6e-3 0.287-9e-3m-1.0621 0.028c-1.7383 1.736-3.6719 3.214-5.8736 4.494m5.8736-4.494c0.5496-0.548 1.0797-1.123 1.5925-1.725m-0.5304 1.697c1.4307-0.048 2.7808-0.134 4.0775-0.265m-4.0775 0.265c-0.3786 1.092-0.8225 2.164-1.3256 3.206m1.3256-3.206c0.1942-0.561 0.3713-1.127 0.5304-1.697m3.5471 1.432c0.1182-0.012 0.236-0.024 0.3533-0.037m-0.3533 0.037c-0.7924-1.105-1.4395-2.31-1.8641-3.593m1.8641 3.593c0.0437 0.061 0.0878 0.122 0.1323 0.182m0.221-0.219c0.5957-0.064 1.1805-0.139 1.7571-0.224m-1.7571 0.224c-0.0737 0.074-0.1474 0.147-0.221 0.219m0.221-0.219c0.4523-0.451 0.9085-0.927 1.3603-1.421m0.39681 1.197c0.05213-8e-3 0.10419-0.016 0.15619-0.024m-0.15619 0.024c-0.14614-0.393-0.27828-0.793-0.39681-1.197m0.39681 1.197c0.00762 0.02 0.01528 0.041 0.02298 0.061m0.13321-0.085c-0.04435 0.029-0.08875 0.057-0.13321 0.085m4.7801-1.076c-1.0891 1.285-2.306 2.473-3.6188 3.527m3.6188-3.527c1.1721-1.383 2.1964-2.878 3.0332-4.439 0.41626-0.776 0.79589-1.592 1.1412-2.441m6.8755 1.995c0.65269-0.428 1.2934-0.885 1.9144-1.369m4.2843-4.298c-0.1426 1.297-0.4869 2.581-1.0473 3.801-0.5772 1.257-1.265 2.43-2.0469 3.519m6.1664-17.68c-0.0973-0.964-0.2881-1.921-0.5593-2.865m0.5593 2.865c-0.2565-0.993-0.5307-1.937-0.8139-2.812-0.129-0.399-0.2667-0.804-0.4125-1.215m0.6671 1.162c-0.3507-1.219-0.8361-2.416-1.4279-3.574m1.4279 3.574c-0.2053-0.394-0.4276-0.781-0.6671-1.162m-0.7608-2.412c-0.2159-0.423-0.446-0.84-0.6889-1.252m0.6889 1.252c-0.0858-0.079-0.1722-0.157-0.2592-0.235m-0.4297-1.017c0.1473 0.341 0.2906 0.68 0.4297 1.017m-2.8084-4.404c-0.2644 0.556-0.54479 1.098-0.83206 1.617m0.83206-1.617c0.1345-0.283 0.2648-0.569 0.3897-0.858m-1.2128-0.103c-0.06898 0.032-0.13745 0.064-0.20539 0.096-0.71723 0.337-1.4324 0.695-2.1424 1.074m-23.017-11.857c-1.8221-0.02-3.6478 0.078-5.4554 0.293m0 0c-1.0371 0.123-2.0682 0.284-3.0893 0.482m0 0c-3.6598 0.712-7.1912 1.907-10.407 3.558m-6.9128 4.576c-0.1117 0.093-0.2231 0.187-0.3342 0.281m-12.031 13.315c-0.3762 0.585-0.7346 1.179-1.0723 1.783m1.0723-1.783c-0.442 0.241-0.8722 0.486-1.293 0.737m0.2207 1.046c-0.3452 0.618-0.6688 1.245-0.9673 1.883m0.9673-1.883c-0.1287-0.273-0.2528-0.548-0.3721-0.825m0.3721 0.825c0.156 0.331 0.3187 0.658 0.4881 0.982m-1.4554 0.901c-0.0069 0.015-0.0138 0.029-0.0207 0.044m0.0207-0.044c0.4759-0.299 0.9617-0.6 1.4554-0.901m-1.4554 0.901c-0.0105 6e-3 -0.0211 0.013-0.0317 0.02m0.011 0.024c-0.3082 0.662-0.5895 1.334-0.84 2.017-0.7839 2.138-1.2775 5.526-0.6076 7.832 0.0677 0.233 0.1455 0.462 0.2328 0.688m1.2148-10.537c-0.0037-8e-3 -0.0073-0.016-0.011-0.024m-0.5786 11.861c-0.3562-0.365-0.7056-0.736-1.0474-1.113m7.0311 6.996c0.5828 0.408 1.1578 0.794 1.7056 1.157m-1.7056-1.157c0.5215 0.15 1.0461 0.295 1.5734 0.434m0.1322 0.723c0.0277 0.019 0.0553 0.037 0.0828 0.055 1.8945 1.257 3.5181 2.279 5.2806 3.107m-5.3634-3.162c-0.0518-0.238-0.096-0.48-0.1322-0.723m5.4956 3.885c1.3274 0.624 2.7335 1.138 4.3934 1.56m-4.3934-1.56c0.2523-0.044 0.504-0.091 0.7553-0.141m3.6381 1.701c0.0828 0.021 0.1661 0.041 0.2502 0.062 2.5405 0.621 5.236 0.904 7.9606 0.898m-8.2108-0.96c-1.2326-0.515-2.4466-1.085-3.6381-1.701m3.6381 1.701c2.0146 0.841 4.079 1.534 6.1764 2.042m2.0344-1.082c-0.6767 0.403-1.3591 0.769-2.0344 1.082m9.6479-1.813c0.3272-0.061 0.653-0.127 0.9773-0.195m-0.9773 0.195c-0.4265 0.236-0.8628 0.464-1.3094 0.687m1.3094-0.687c0.2036-0.113 0.405-0.227 0.6042-0.342m0.3731 0.147c1.7343-0.367 3.4238-0.836 5.0331-1.392 0.068-0.023 0.136-0.047 0.2039-0.071m-5.237 1.463c-0.1249-0.048-0.2493-0.097-0.3731-0.147m0.3731 0.147c0.6893 0.263 1.3952 0.483 2.1129 0.665m3.1241-2.128c1.1876-0.418 2.3565-0.901 3.4999-1.443m-3.4999 1.443c-0.1995 0.413-0.4083 0.822-0.626 1.226m4.1259-2.669c0.8375-0.397 1.6614-0.826 2.4688-1.285m-2.4688 1.285c-0.1121 0.092-0.2229 0.182-0.3322 0.269-1.2114 0.96-2.4782 1.781-3.7937 2.4m4.1259-2.669c0.6452-0.532 1.334-1.157 2.0355-1.846m0.4333 0.561c0.5299-0.302 1.0528-0.616 1.5678-0.943m-1.5678 0.943c-0.1484-0.184-0.293-0.371-0.4333-0.561m10.956-8.338c0.36933-0.458 0.72914-0.923 1.0804-1.395m-1.0804 1.395c0.22176-0.546 0.42932-1.105 0.62332-1.677m0.45712 0.282c0.56218-0.755 1.1026-1.526 1.6252-2.306 0.75384-1.125 1.5768-2.367 2.2879-3.689m-3.9131 5.995c-0.15244-0.094-0.30481-0.188-0.45712-0.282m4.3702-5.713c1.4352-2.668 2.4145-5.662 1.4494-8.671-0.03026-0.094-0.06191-0.187-0.09493-0.279m-1.3545 8.95c-0.76537-1.334-1.567-2.627-2.3774-3.867m3.2518-6.169c-0.70019-1.318-1.7124-2.348-2.8945-3.172m2.8945 3.172c-0.19023 0.216-0.38471 0.434-0.58296 0.653m-2.3115-3.825c0.02503 1.142 0.02753 2.29 0.00456 3.439m-0.00456-3.439c-0.00901-0.411-0.02093-0.821-0.03563-1.23m-0.88476 0.646c-0.88918-0.512-1.8454-0.932-2.8186-1.287m2.8186 1.287c-0.7516 0.565-1.4844 1.155-2.1936 1.771m-0.62501-3.058c0.27927 1.053 0.48562 2.072 0.62501 3.058m-0.62501-3.058c-0.17243-0.651-0.37264-1.315-0.60207-1.992m-6.7934 0.144c-0.17508-0.027-0.35019-0.053-0.52532-0.078m0.52532 0.078c0.05763 0.187 0.11389 0.375 0.16877 0.564m-0.69409-0.642c-0.17959-0.025-0.35921-0.049-0.53884-0.072m0.53884 0.072c0.23372 0.214 0.46509 0.428 0.69409 0.642m-0.69409-0.642c-0.51915-0.474-1.05-0.947-1.5924-1.412m1.0536 1.34c-0.60131-0.076-1.2029-0.139-1.8045-0.19m1.8045 0.19c0.5529 0.733 1.0869 1.487 1.6025 2.263 0.02403 0.036 0.04801 0.072 0.07194 0.108m-1.6745-2.371c-0.34381-0.455-0.69501-0.902-1.0536-1.34m-0.7509 1.15c1.2715 2.725 2.1584 5.691 2.5783 8.881 0.24569 1.866 0.34333 3.614 0.29871 5.249m-2.877-14.13c-0.5-1.071-1.0594-2.105-1.6732-3.101m-14.997 4.632c0.5908 0.653 1.1991 1.292 1.8211 1.916m-9.8689 0.59c-0.549 0.204-1.0958 0.413-1.6403 0.627-1.1782 0.464-2.438 1.009-3.7465 1.615m5.3868-2.242c-1.614 0.301-3.2202 0.688-4.8011 1.143m-0.5857 1.099c-0.1363 0.063-0.2732 0.127-0.4106 0.192m0.4106-0.192c0.163-0.332 0.3609-0.702 0.5857-1.099m-0.9963 1.291c0.0989-0.351 0.1937-0.712 0.2827-1.081m-20.417 12.979c-1.0711 0.792-2.1411 1.619-3.1944 2.482m0 0c-0.4864 0.926-0.8345 1.903-0.9572 2.912m-1.2927-0.989c-0.5413 0.484-1.0748 0.978-1.598 1.481m0 0c0.8808 0.68 1.8712 1.196 2.9546 1.479m-3.9128-0.533c-0.5007 0.506-0.9902 1.022-1.4662 1.548m1.4662-1.548c-0.3515-0.886-0.6352-1.808-0.8584-2.754m51.849 17.663c0.2-0.297 0.395-0.597 0.5848-0.901m-0.5848 0.901c0.5366-0.113 1.073-0.242 1.609-0.388m-1.0242-0.513c0.0886-0.142 0.1762-0.284 0.2626-0.428m-0.2626 0.428c0.3419 0.181 0.6833 0.351 1.0242 0.513m-1.0242-0.513c-0.4485-0.236-0.8978-0.488-1.3476-0.757m1.6102 0.329c0.2515-0.417 0.4934-0.841 0.7252-1.271m-0.7252 1.271c-0.5418-0.09-1.0791-0.199-1.6102-0.329m1.6102 0.329c0.9213 0.154 1.8553 0.252 2.7925 0.305m-2.0673-1.576c-0.8146 0.383-1.6478 0.689-2.4981 0.902m4.9801-7.031c0.5821-0.684 1.1419-1.403 1.683-2.161m-0.9313-1.441c0.0084-0.061 0.0166-0.122 0.0246-0.183m-0.0246 0.183c-0.1421 0.07-0.2839 0.139-0.4253 0.207m0.4253-0.207c0.1704-0.085 0.3412-0.171 0.5123-0.259m-0.4877 0.076c0.194-1.476 0.2624-2.964 0.1923-4.448m-0.1923 4.448c-0.1473 0.132-0.2972 0.262-0.4499 0.39m0.4499-0.39c0.1492-0.134 0.2956-0.27 0.4392-0.408m-0.2469-4.04c-0.089-1.884-0.4013-3.761-0.9633-5.595-0.263-0.859-0.5478-1.628-0.879-2.34m1.8423 7.935c-0.8492 0.439-1.7097 0.853-2.5807 1.242-0.355 0.159-0.705 0.312-1.0508 0.459m3.6315-1.701c0.1945-0.1 0.3885-0.202 0.5818-0.304m-2.4241-7.631c-0.2801-0.602-0.5934-1.163-0.9548-1.702m0.9548 1.702c0.3379 1.793 0.3124 3.667 0.1064 4.582-0.3873 1.72-1.0496 3.418-1.8956 5.054m1.7892-9.636c-0.1748-0.928-0.4469-1.835-0.8415-2.576m-0.1133 0.874c-0.5642-0.841-1.2457-1.628-2.1011-2.433-0.0687-0.064-0.1376-0.128-0.2069-0.19m2.308 2.623c-0.5661 3.371-2.5754 6.739-4.3133 9.087-1.3165 1.779-2.6172 3.279-4.0392 4.621m8.3525-13.708c0.0489-0.292 0.0871-0.583 0.1133-0.874m-2.4213-1.749c1.0888 8e-3 1.8733 0.719 2.4213 1.749m-26.515 6.268c-1.0854 1.142-2.099 2.371-2.9608 3.676m2.9608-3.676c0.5222 2.421 1.461 4.716 2.6968 6.848m-5.6576-3.172c-0.5425 0.822-1.0249 1.673-1.427 2.552m1.427-2.552c-1.2169-0.895-2.3605-1.892-3.4162-2.977m3.4162 2.977c1.7487 1.285 3.6489 2.358 5.6576 3.172m-7.0846-0.62c-1.3901-1.173-2.6682-2.478-3.8215-3.9m2.6519 11.008c0.0013 9e-3 0.0026 0.018 4e-3 0.027m-4e-3 -0.027 0.0606 0.042m-0.0566-0.015c0.0188 5e-3 0.0377 0.01 0.0566 0.015m1.4964 4.327c0.9555 1.659 2.2566 3.156 3.7335 4.456m0 0c0.4281 0.377 0.8709 0.737 1.3244 1.08m46.684 1.078c2.7711-1.374 5.3271-3.164 7.5806-5.635 1.6559-1.816 3.1061-3.929 4.0163-6.224m0 0c0.1692-0.427 0.3199-0.86 0.4496-1.299 1.0592-3.581 1.085-8.027 0.568-12.328m-1.0176 13.627c-0.7889-0.332-1.5715-0.679-2.3476-1.038-0.2943-0.136-0.5868-0.273-0.8776-0.41m4.2428-12.179c-0.3147 4.176-1.8314 8.426-4.2428 12.179m1.6722-23.319c-0.3062-0.862-0.648-1.747-1.02-2.647m-2.4187-5.262c-0.0886-0.176-0.178-0.352-0.2681-0.529m-12.256-18.197c-1.3358-1.446-2.747-2.827-4.2294-4.123m4.2294 4.123c0.38267 1.133 0.73381 2.244 1.0487 3.318m-38.448-12.796c-1.915 1.59-3.6335 3.449-5.1904 5.317-0.652 0.782-1.2878 1.586-1.9068 2.409m0 0c-0.5795 0.771-1.1441 1.557-1.6934 2.358m1.6934-2.358c-0.6394 0.246-1.2752 0.524-1.9063 0.835-2.1478 1.061-3.9142 2.2-5.3901 3.59m5.603-2.067c-0.1001 0.146-0.1997 0.292-0.2988 0.439m0.2988-0.439c-1.8826 0.643-3.7561 1.325-5.603 2.067m5.3042-1.628c-2.185 0.756-4.3104 1.658-6.3588 2.72m2.1709 4.289c-2.3112 0.796-4.204 1.696-6.0035 2.856m2.9082 20.386c0.0147 0.034 0.0294 0.069 0.0443 0.103m-0.0443-0.103c0.065-0.04 0.1302-0.079 0.1957-0.118m-0.1957 0.118c-0.4765 0.287-0.9413 0.583-1.3977 0.89m1.442-0.787c0.0506-0.074 0.101-0.147 0.1514-0.221m5.3766 8.463c-0.5849 0.57-1.196 1.114-1.8323 1.629m10.906 4.52c1.8799 0.762 3.8547 1.298 5.8893 1.569 1.339 0.178 2.5997 0.284 3.8092 0.317m5.6539-0.42c2.4427-0.446 4.8535-1.237 7.5181-2.37m-7.5181 2.37c-1.4261 1.346-2.9742 2.534-4.7827 3.686m12.301-6.056c-1.029 1.989-2.3299 3.887-3.7386 5.621m7.9519-7.626c1.1375-0.605 2.254-1.252 3.3476-1.934m-3.3476 1.934c0.5712-2.146 1.6546-4.235 2.8194-5.943 0.1639-0.241 0.3357-0.485 0.5151-0.734m-3.3345 6.677c-0.2483 0.932-0.3997 1.876-0.419 2.804-0.0108 0.522 0.0185 1.036 0.0841 1.54m3.6825-6.278c0.1646-0.103 0.3288-0.206 0.49237-0.311m-0.49237 0.311c0.2622-1.371 0.63692-2.71 1.1119-3.982m-1.1119 3.982c-0.0949 0.496-0.175 0.996-0.2398 1.498m0.73217-1.809c0.42783-0.273 0.85204-0.551 1.2725-0.835m-1.2725 0.835c-0.21387 0.627-0.45817 1.23-0.73217 1.809m0.73217-1.809c0.37493-1.099 0.65642-2.272 0.84108-3.521m0.43144 2.686c0.46341-0.312 0.92228-0.631 1.3764-0.955 0.12054-0.086 0.24312-0.175 0.36761-0.266m-1.744 1.221c-0.59446 1.693-1.3478 3.338-2.1915 4.92m2.1915-4.92c0.22952-0.653 0.43534-1.314 0.61353-1.981m1.1305 0.76c-0.3754-0.252-0.75215-0.505-1.1305-0.76m4.8265-2.239c0.59146-0.516 1.1944-1.057 1.8001-1.614m-1.8001 1.614c0.05287 0.808 0.05131 1.623-0.01071 2.444m0.01071-2.444c-0.12428-1.899-0.54931-3.763-1.197-5.585m2.9971 3.971c-0.44826 1.46-1.0652 2.811-1.8108 4.058m1.8108-4.058c0.40653-1.325 0.6743-2.739 0.77338-4.248m1.4903 2.097c0.44843-0.439 0.89253-0.883 1.3287-1.327m0 0c0.84653-0.861 1.6634-1.726 2.4245-2.568m-2.4245 2.568c0.05924-0.981 0.0978-1.967 0.11754-2.954m2.307 0.386c-0.77132-0.253-1.5422-0.375-2.307-0.386m9.4665-17.391c2.2198 1.592 4.3182 3.348 6.372 5.324m-53.749-18.539c1.6104 0.179 3.2061 0.518 4.7699 0.999m-8.0238-0.146c-0.0493-0.335-0.0938-0.665-0.1334-0.989m-14.516 5.88c-0.3692 0.347-0.7203 0.71-1.0546 1.092m-17.176 35.505c0.1082 1.09 0.2809 2.167 0.5279 3.214m22.176 9.836c4.0724 1.066 8.3066 1.75 12.519 1.845m-12.519-1.845c1.9771 1.359 4.0493 2.62 6.1943 3.729m6.325-1.884c0.9391 0.021 1.877 0.013 2.8119-0.027m-2.8119 0.027c-2.0461 0.821-4.1653 1.455-6.325 1.884m6.325-1.884c0.6388-0.256 1.2704-0.53 1.894-0.822m0.9179 0.795c-0.3084-0.256-0.614-0.521-0.9179-0.795m6.0784 0.236c0.3602 0.419 0.7465 0.814 1.1515 1.181 0.2812 0.255 0.5695 0.497 0.8642 0.726m3.2429-3.153c3.2938-1.029 6.081-2.449 8.3031-4.31m-8.3031 4.31c0.5341-0.585 1.0618-1.195 1.5752-1.826m6.7279-2.484c-2.4848 1.191-4.8639 1.999-6.7279 2.484m7.617-3.282c1.4282-1.373 2.5822-2.961 3.4427-4.78m-3.4427 4.78c0.0144 0.111 0.0306 0.222 0.0485 0.332m3.3942-5.112c-0.0974 0.755-0.1603 1.515-0.1868 2.276m1.76-7.606c0.05003-0.339 0.09296-0.683 0.12871-1.033m-0.12871 1.033c-0.07385-0.05-0.1477-0.1-0.22156-0.15m0.22156 0.15c0.11515 0.078 0.23028 0.155 0.34539 0.233 0.23385 0.158 0.46702 0.316 0.69958 0.472m-0.91626-1.738c0.06339-0.62 0.10421-1.258 0.12212-1.915m-0.12212 1.915c0.10501-0.249 0.21396-0.496 0.32678-0.739 0.41316-0.89 0.8772-1.754 1.3865-2.591m-1.7132 3.33c-0.12216 0.291-0.23897 0.585-0.35027 0.883m0.47239-2.798c0.50312-0.592 1.041-1.181 1.6086-1.75m-1.6086 1.75c-0.58151 0.685-1.1166 1.372-1.5974 2.037m-2.9528-19.268c0.8326 0.623 1.6406 1.279 2.4241 1.951m-3.871-4.094c-0.2982-0.405-0.6059-0.803-0.9226-1.193m0.9226 1.193c-0.4632-0.422-0.9366-0.831-1.4201-1.226m0.4975 0.033c-0.1659-0.012-0.3317-0.023-0.4975-0.033m0.4975 0.033c1.4222 0.099 2.8447 0.241 4.2587 0.426m-26.812-13.119c-0.1566-0.749-0.2961-1.488-0.416-2.207m-17.307 7.011c-2.4239 1.553-4.6483 3.423-6.58 5.527-1.9852 2.162-3.8772 5.309-5.3902 8.563m11.97-14.09c0.4486-0.701 0.933-1.346 1.459-1.946m19.941 49.578c0.9526-0.446 1.8863-0.933 2.7975-1.458m-2.7975 1.458c-0.3519-0.317-0.7014-0.646-1.0504-0.987-0.4733-0.463-0.9348-0.94-1.3823-1.432m5.2302 0.961c-0.6665-0.077-1.5193-0.198-2.6209-0.377-0.8788-0.143-1.7498-0.341-2.6093-0.584m6.7827 0.018c0.1609 0.341 0.3409 0.675 0.5375 1m12.711-19.268c0.0319-0.354 0.0462-0.706 0.041-1.056m0 0c2.146 1.583 4.3496 3.091 6.5591 4.586m-30.799-10.987c-0.2385 0.068-0.4763 0.138-0.7136 0.21m0.7136-0.21c1.4776-2.61 4.1183-6.382 5.6671-8.125 0.6888-0.775 1.4248-1.518 2.2186-2.187m-8.5993 10.522c0.6443-2.674 0.9832-5.784 0.3346-8.452m12.774 40.311c0.8047-0.577 1.5792-1.187 2.2989-1.8m4.8181-4.979c-0.9849 0.256-1.826 0.422-2.463 0.506-5.5001-0.167-4.4542 0.71-5.5617 0.929m23.676 6.244c0.05339-0.014 0.10674-0.027 0.16007-0.041m-0.16007 0.041c0.72465 0.702 1.5386 1.337 2.4467 1.893 0.62177 0.381 1.2652 0.737 1.9266 1.067m10.818-12.565c0.05849-0.079 0.11647-0.159 0.17394-0.239m-0.17394 0.239c0.33817 1.312 0.58978 2.632 0.7354 3.952 0.03256 0.295 0.05574 0.603 0.06773 0.919m-0.80313-4.871c-0.0327-0.127-0.06622-0.254-0.10053-0.38m0.27447 0.141c-0.09163-0.047-0.18312-0.094-0.27447-0.141m0.27447 0.141c1.0681 0.549 2.1556 1.086 3.2678 1.612m-13.167-21.959c-0.35298 0.114-0.70289 0.248-1.0491 0.4m1.0491-0.4c0.011381 0.587-0.002126 1.162-0.038996 1.724m0.038996-1.724c-0.016922-0.875-0.088882-1.778-0.22094-2.712m-0.82816 3.112c-0.95231 0.417-1.8767 0.965-2.7604 1.601m2.7604-1.601c0.33662 0.427 0.67214 0.867 1.0101 1.324m-1.0101-1.324c-0.35842-0.455-0.7181-0.897-1.0834-1.33m-3.9812 4.854c-0.17279 0.164-0.34312 0.33-0.51086 0.498m0.51086-0.498c0.61708-0.937 1.2909-1.837 2.0131-2.702m-2.0131 2.702c-0.18106 0.275-0.35722 0.553-0.52828 0.833m0.01742-0.335c-0.00517 0.112-0.01098 0.224-0.01742 0.335m0.01742-0.335c0.1487-3.212-0.22323-6.588-1.0065-9.819m-2.1994 13.606c0.3749 0.254 0.74999 0.508 1.125 0.761m-4.7459 10.592c0.7894-0.406 1.5842-0.851 2.3716-1.336m2.4612 9.456c0.25153-0.187 0.49992-0.379 0.74496-0.576m8.1773 5.571c2.621 0.834 5.8238 1.291 7.9587-0.538 1.8383-1.575 2.3544-4.357 2.2663-6.682m-10.225 7.22c3.9417-1.485 7.4354-4.05 10.225-7.22m0 0c0.96783-1.1 1.8509-2.273 2.6386-3.498m-10.632-16.517c-0.36048 3.385-0.99804 6.646-1.9929 9.58m-2.6753-15.952c0.61424-0.616 1.2527-1.21 1.9115-1.782m-7.8517-4.342c0.15906 0.547 0.30642 1.1 0.44155 1.657m-11.096-9.158c1.0229 0.021 2.0496 0.063 3.077 0.127m-16.588 0.928c-0.1712 0.133-0.3397 0.27-0.5057 0.41m0.5057-0.41c-0.2244 0.041-0.4476 0.084-0.6697 0.128m0.164 0.282c-0.0551-0.094-0.1098-0.188-0.164-0.282m8.8124 44.043c1.5092 0.234 2.9783 0.138 4.3996-0.217m0 0c0.0542 0.013 0.1084 0.027 0.1627 0.04m10.078-7.097c2.245-2.454 4.3842-5.34 5.412-7.71 0.42947-0.99 0.75721-1.974 0.99289-2.951m0 0c-0.32892-0.213-0.65826-0.429-0.98823-0.646m-0.06251-10.868c-0.8936-2.278-2.1224-4.489-3.5305-6.619m-50.172-11.688c-0.3557 1.134-0.6247 2.289-0.8142 3.456m17.609 2.609c2.4247-0.981 5.1612-1.769 8.1007-2.352m15.746 45.136c0.6778-0.184 1.3549-0.396 2.0309-0.636m-22.992-60.423c1.8694-0.296 3.7617-0.508 5.6676-0.64 0.7503-0.052 1.4872-0.096 2.2122-0.132m22.804 39.892c0.17054-0.638 0.31578-1.282 0.43222-1.931 0.18275-1.018 0.30298-2.068 0.36477-3.137m-3.602 11.969c-0.2352 0.441-0.4773 0.877-0.7251 1.308-0.0368 0.064-0.0737 0.128-0.1107 0.192" opacity=".5" stroke="#DD3C3C" stroke-linecap="round"/>
<path d="m31 86.336-12.278-41.126-17.917 0.4041 8.6794 15.333-9.8552 8.5688-5.9648-5.6514 6.6648-11.592-29.953 12.7 5.3331 12.041 2.653 5.9901m-2.653-5.9901 6.9303 1.4216-4.2773 4.5685m-2.653-5.9901-16.127-3.3081-6.0164 24.319-11.894-11.269m36.69-3.752 1.3639 3.0792m-1.3639-3.0792-24.727 26.41-10.104 18.34 42.078 0.631 7.8874-6.746-27.724-12.048 13.953-23.507 3.5119 7.9291 13.892 0.2596-13.849 14.792 30.292-1.319 3.224-12.67m-37.071-8.9911 7.3555-12.392 26.356 24.972 3.3595-3.5883 1.8369-7.2185m-1.8369 7.2185 4.6101-4.9238-2.7732-2.2947m0 0 1.0941-4.2995 1.7033-15.239-17.577 7.3097 14.779 12.229zm-76.962-1.0998-5.0296-4.7653 6.0532-9.3162m-1.0236 14.082 8.7194-13.858-7.6958-0.2232m-1.0236 14.082-0.9342 1.4849-31.211-6.9252-3.5254 4.8273m36.694-13.468 16.504-25.4-16.914 2.4079-1.4307 6.281-10.234-4.1668-5.294 8.6527m17.368 12.226-13.098-0.3798m-4.2705-11.846-7.0468 11.518 11.317 0.3283m-4.2705-11.846 7.6893 3.8866-3.4188 7.9593m-4.2705-11.846-12.566-6.3518m16.837 18.198-2.1282 4.9548-23.353-1.0595 1.8845 9.953-7.6139 10.425 10.262 3.5595m-2.6478-13.984 2.6478 13.984 18.352 6.367m-18.352-6.367 3.3052 17.458-13.701-11.928-1.169 6.002 22.241 27.13 12.775-1.063-15.814-14.983 10.714-16.249m0 0 3.3959 1.178-8.289 11.37 11.066 4.955 13.718-14.652-11.904-14.965-7.988 12.114z" opacity=".5" stroke="#8C55B2"/>
<path d="m-107.63 480.37c11.989 0 17.537 8.336 29.526 8.336 11.989 0 17.537-8.336 29.526-8.336s17.537 8.336 29.526 8.336c11.989 0 17.537-8.336 29.526-8.336 11.989 0 17.537 8.336 29.526 8.336m-147.63 25.008c11.989 0 17.537 8.336 29.526 8.336 11.989 0 17.537-8.336 29.526-8.336s17.537 8.336 29.526 8.336c11.989 0 17.537-8.336 29.526-8.336 11.989 0 17.537 8.336 29.526 8.336m-147.63-33.344c11.989 0 17.537 8.336 29.526 8.336 11.989 0 17.537-8.336 29.526-8.336s17.537 8.336 29.526 8.336c11.989 0 17.537-8.336 29.526-8.336 11.989 0 17.537 8.336 29.526 8.336m-147.63 25.008c11.989 0 17.537 8.336 29.526 8.336 11.989 0 17.537-8.336 29.526-8.336s17.537 8.336 29.526 8.336c11.989 0 17.537-8.336 29.526-8.336 11.989 0 17.537 8.336 29.526 8.336m-147.63-33.344c11.989 0 17.537 8.336 29.526 8.336 11.989 0 17.537-8.336 29.526-8.336s17.537 8.336 29.526 8.336c11.989 0 17.537-8.336 29.526-8.336 11.989 0 17.537 8.336 29.526 8.336m-147.63 0c11.989 0 17.537 8.336 29.526 8.336 11.989 0 17.537-8.336 29.526-8.336s17.537 8.336 29.526 8.336c11.989 0 17.537-8.336 29.526-8.336 11.989 0 17.537 8.336 29.526 8.336" opacity=".5" stroke="#76BA53"/>
</g>
<defs>
<clipPath id="a">
<rect width="84" height="844" fill="#fff"/>
</clipPath>
</defs>
</svg>
