<svg fill="none" viewBox="0 0 438 885" xmlns="http://www.w3.org/2000/svg">
<g clip-path="url(#a)">
<path d="m449.64 367.33 13.764 8.377c5.802 4.953 11.082 10.176 15.857 15.636m-29.621-24.013-3.255-1.981m3.255 1.981c-4.351 7.486-8.791 14.297-12.907 20.032m12.907-20.032c0.933-1.605 1.863-3.242 2.784-4.906m-6.039 2.925-19.833-12.07m19.833 12.07c-3.1 7.24-6.584 14.338-10.228 21.237m10.228-21.237c0.765-1.787 1.507-3.583 2.221-5.387m-22.054-6.683-19.367-11.787c-7.126-4.337-12.873-8.038-18.594-11.352m37.961 23.139c1.866-1.032 3.737-2.047 5.612-3.046m-5.612 3.046c-4.312 2.383-8.597 4.853-12.846 7.408m-25.115-30.547c-0.429-0.249-0.858-0.495-1.287-0.739m1.287 0.739c-0.164 2.691-0.345 5.381-0.542 8.068m0.542-8.068c5e-3 -0.077 0.01-0.154 0.014-0.232m-1.301-0.507c-0.504-0.287-1.008-0.571-1.514-0.852m1.514 0.852c-0.495-0.192-0.991-0.384-1.487-0.574m1.487 0.574c0.434 0.168 0.868 0.338 1.301 0.507m-2.815-1.359c-7.095-3.942-14.488-7.356-24.725-10.71-3.58-1.173-7.184-2.239-10.808-3.202m35.533 13.912c9e-3 0.093 0.018 0.185 0.027 0.278m-0.027-0.278c-1.516-15.739-3.436-30.945-5.64-45.313m-29.893 31.401c-10.573-2.81-21.317-4.746-32.151-5.919m32.151 5.919c3.514 1.744 6.92 3.529 10.199 5.353m-10.199-5.353c-15.969-7.926-34.175-14.995-52.898-20.934m20.747 15.015c-4.811-0.521-9.639-0.892-14.478-1.122m14.478 1.122c-5.081-1.121-10.193-2.171-15.33-3.15m15.33 3.15c14.41 3.179 28.571 6.931 42.35 11.272m-56.828-12.394c-9.896-0.47-19.835-0.352-29.757 0.27m29.757-0.27c3.618 8.711 6.804 17.734 9.587 27.065 2.131 7.146 4.314 16.03 6.366 25.799m-15.953-52.864c-0.281-0.678-0.565-1.354-0.852-2.028m-28.905 2.298c-9.541 0.598-19.065 1.663-28.518 3.12m28.518-3.12c7.441 14.696 13.842 30.708 18.986 47.424m-18.986-47.424c-0.981-1.936-1.979-3.849-2.994-5.737-0.33-0.614-0.663-1.226-0.998-1.838m-24.526 10.695c-0.433 0.067-0.865 0.134-1.297 0.202m1.297-0.202c10.298 9.738 20.008 20.233 29.16 31.404m-29.16-31.404c-1.446-1.367-2.903-2.719-4.372-4.056m3.075 4.258c-2.987 0.472-5.967 0.983-8.938 1.531m8.938-1.531c3.298 4.661 6.453 9.428 9.458 14.302m-9.458-14.302c-1.012-1.429-2.037-2.849-3.075-4.258m-5.863 5.789c-6.378 1.175-12.713 2.518-18.99 4.007-12.861 3.05-25.608 6.665-38.212 10.805m57.202-14.812c6.279 4.005 12.411 8.291 18.396 12.771m-18.396-12.771c-10.608-6.767-21.637-12.737-33.093-17.501m-24.109 32.313c-22.019 7.233-43.601 16.067-64.591 26.286m64.591-26.286c6.813-11.091 14.125-21.89 21.956-32.353m-21.956 32.353c-6.049 9.848-11.705 19.926-16.981 30.201m-47.61-3.915c-20.33 9.899-40.103 21.097-59.179 33.397m59.179-33.397c-12.104-14.43-23.162-29.69-32.714-45.916m32.714 45.916c3.35 3.993 6.779 7.923 10.279 11.791m-69.458 21.606c-0.0342 0.022-0.0683 0.044-0.1024 0.066m0.1024-0.066c22.772-8.441 45.973-15.783 69.458-21.606m-69.458 21.606c-0.0848 0.032-0.1696 0.063-0.2544 0.095m0.152-0.029c-19.281 12.439-37.849 26.004-55.557 40.494m55.557-40.494c28.594-5.319 57.47-7.499 85.337-5.08m-85.337 5.08c-0.0507 0.01-0.1013 0.019-0.152 0.029m-55.405 40.465c-0.53335 0.436-1.0659 0.873-1.5977 1.311m1.5977-1.311c2.3648-6.747 5.0645-13.29 8.0097-19.524 0.23408-0.496 0.47835-1.003 0.73237-1.52m-8.7421 21.044c-7.3916 21.086-11.511 44.152-9.6241 65.955 0.6552 7.572 1.7946 15.025 3.3742 22.346m4.6522-86.99c-22.738 18.731-44.042 38.984-63.6 60.324-4.2119 4.596-8.5049 9.246-12.707 14.011m76.306-74.335c-13.153 35.265-33.449 67.275-59.892 93.046m59.892-93.046c1.6337-4.38 3.1572-8.81 4.5686-13.285 0.7565-2.398 1.4977-4.873 2.2144-7.413m-83.089 95.033c-4.3422 4.925-8.5868 9.972-12.543 15.208m12.543-15.208c-8.5958-10.887-16.252-22.525-22.82-34.754m22.82 34.754c5.1453 6.517 10.627 12.766 16.414 18.711m-28.958-3.503c-1.4933 1.976-2.9455 3.979-4.3464 6.013m4.3464-6.013c-5.0005-7.363-9.6492-15.02-13.927-22.949m13.927 22.949c4.126 6.074 8.4914 11.949 13.085 17.61m-17.432-11.597c-7.1588 10.392-12.979 21.581-16.093 34.044m16.093-34.044c-5.0978-9.02-8.5948-18.744-9.5808-28.962m9.5808 28.962c3.2399 5.732 7.1263 11.181 11.425 16.291m-27.518 17.753c-0.86 3.445-1.514 6.987-1.933 10.637-0.534 4.659-0.694 9.262-0.515 13.807m2.448-24.444c-4.671 2.545-9.455 4.931-14.348 7.15m14.348-7.15c9.663-5.264 18.844-11.207 27.518-17.753m-29.966 42.197c7e-3 0.154 0.013 0.309 0.02 0.464m-0.02-0.464c-1.06-1.182-2.115-2.365-3.164-3.549-1.726-1.949-3.474-3.949-5.238-5.997m8.402 9.546c1.029 1.146 2.063 2.291 3.101 3.435m-3.081-2.971c0.055 1.223 0.134 2.441 0.237 3.656m-0.237-3.656c-2.195-2.14-4.364-4.306-6.504-6.498m6.504 6.498c1.022 0.996 2.049 1.986 3.081 2.971m-2.844 0.685c0.791 9.298 2.987 18.337 6.302 27.07m-6.302-27.07c-2.464-3.276-4.727-6.659-6.741-10.154m6.741 10.154c10.571 14.049 24.856 26.116 39.127 36.529m-32.825-9.459c7.683 20.241 21.372 38.844 37.486 55.252m-37.486-55.252c-19.331-8.15-40.539-18.843-61.653-31.603m61.653 31.603c11.483 4.841 22.304 8.785 32.05 11.73 1.5422 0.467 3.0879 0.927 4.6368 1.381m0.7993 42.141c9.9846 10.167 20.9 19.492 31.896 27.841m-31.896-27.841c-4.2653-0.191-8.5311-0.482-12.794-0.872m12.794 0.872c9.4753 0.426 18.949 0.364 28.386-0.165m3.5098 28.006c3.0218 2.294 6.0497 4.515 9.0658 6.66m-9.0658-6.66c-15.088-9.001-30.095-18.564-44.69-28.713m44.69 28.713c3.8364 2.288 7.6783 4.541 11.52 6.757 0.4719 0.272 0.9421 0.543 1.4106 0.813m-3.8646-0.91c6.1611 4.381 12.273 8.443 18.186 12.163m-18.186-12.163c-20.729-5.062-40.947-12.885-60.103-22.097-12.56-6.04-26.342-13.333-39.952-21.825m100.05 43.922c1.2862 0.314 2.5745 0.618 3.8646 0.91m14.322 11.253c2.2658 1.425 4.5023 2.801 6.7011 4.124 7.4613 4.492 15.569 8.954 24.156 13.298m-30.857-17.422c-42.089-4.417-83.65-16.592-122.34-34.389-0.457-0.21-0.913-0.421-1.369-0.634m123.71 35.023c2.3396 0.245 4.6808 0.467 7.0233 0.664m23.834 16.758c7.49 3.789 15.345 7.487 23.456 11.036m-23.456-11.036c-18.315 3.37-37.118 4.339-56.367 2.144-30.814-3.513-59.983-20.565-83.854-40.417-4.525-3.763-9.347-8.566-14.351-14.172m154.57 52.445c1.7827-0.328 3.5608-0.678 5.3341-1.051m18.122 12.087c22.26 9.74 46.445 18.352 70.282 24.608m-70.282-24.608c-37.226 14.036-76.217 23.201-116.5 26.006-1.9315 0.134-3.8744 0.252-5.8274 0.352m122.33-26.358c1.1083-0.418 2.2151-0.84 3.3203-1.266m66.961 25.874c5.603 1.471 11.186 2.811 16.72 4.005m-16.72-4.005c-0.304-1.532-0.601-3.065-0.892-4.597m0.892 4.597c0.913 4.594 1.888 9.188 2.932 13.774m13.788-9.769c16.506 3.561 32.578 5.823 47.435 6.362 6.722 0.244 13.355 0.199 19.898-0.121m-67.333-6.241c-4.516 3.362-9.114 6.619-13.788 9.769m13.788-9.769c1.985-1.478 3.955-2.976 5.908-4.494m61.425 10.735c21.496-1.05 42.017-5.066 61.53-11.544m-61.53 11.544c-20.09 18.168-42.513 34.698-67.849 49.618m67.849-49.618c2.566-2.32 5.094-4.667 7.585-7.041m53.945-4.503c36.354-12.07 69.208-32.688 98.343-58.604m-98.343 58.604c-17.869 2.451-35.904 4.008-53.945 4.503m53.945-4.503c19.222-2.637 38.25-6.306 56.885-10.797 31.863-7.68 62.39-16.644 90.382-30.516m-48.924-17.291c0.972-0.865 1.939-1.735 2.903-2.611m-2.903 2.611c-0.696-0.338-1.39-0.68-2.082-1.025m2.082 1.025c15.435 7.499 31.953 13.356 48.924 17.291m-46.021-19.902c1.301-1.183 2.595-2.377 3.881-3.581m-3.881 3.581c2.388-0.795 4.758-1.636 7.11-2.522m-7.11 2.522c-1.653 0.551-3.315 1.08-4.985 1.586m8.866-5.167c11.433-10.703 22.267-22.215 32.488-34.327 15.384-18.23 28.742-35.747 39.772-54.028m-72.26 88.355c-4.942-1.67-9.601-3.463-13.818-5.195-11.515-4.732-21.792-9.722-31.545-15.626m45.363 20.821c1.064 0.359 2.141 0.713 3.229 1.059m69.031-89.414c3.794-6.289 7.313-12.668 10.544-19.197m-10.544 19.197c-30.775 33.71-72.921 56.139-117.62 67.534m117.62-67.534c4.441-4.864 8.645-9.963 12.585-15.298m-2.041-3.899c0.216-0.437 0.431-0.874 0.644-1.311m-0.644 1.311c-7.889-4.09-15.661-8.252-23.345-12.489m23.345 12.489c0.39 0.202 0.78 0.404 1.171 0.606m-0.527-1.917c6.787-13.926 12.269-28.55 16.328-44.45m-16.328 44.45c0.178 0.638 0.353 1.277 0.527 1.917m-0.527-1.917c-2.15-7.724-4.636-15.409-7.405-23.032m23.733-21.418c2.361-9.251 4.24-18.934 5.614-29.163 0.449-3.337 0.841-6.697 1.168-10.072m-6.782 39.235c-7.318 7.711-15.316 14.858-23.733 21.418m23.733-21.418c4.773-5.03 9.257-10.3 13.379-15.805m-6.597-23.43c0.815-8.423 1.225-16.941 1.089-25.433m-1.089 25.433c-10.969 16.939-22.574 33.491-34.765 49.541m34.765-49.541c1.843-2.847 3.669-5.706 5.477-8.574m-4.388-16.859c-0.19-11.843-1.442-23.635-4.136-35.045m4.136 35.045c1.89 5.491 3.359 11.131 4.388 16.859m-4.388-16.859c-2.457-7.135-5.628-14.018-9.473-20.507m5.337-14.538c-0.372-1.576-0.772-3.144-1.2-4.704-5.634-20.537-16.008-40.227-29.228-58.115m30.428 62.819c-1.642 4.891-3.425 9.736-5.337 14.538m5.337-14.538c6.337-18.881 10.58-38.447 12.1-58.838m-42.528-3.981c-0.192-0.259-0.384-0.518-0.576-0.776m0.576 0.776c-0.498 0.693-0.991 1.37-1.478 2.031-0.703 0.953-1.425 1.918-2.165 2.893m3.067-5.7c-6.827-9.154-14.396-17.83-22.451-25.899m22.451 25.899c-1.012 1.916-2.036 3.816-3.067 5.7m-19.384-31.599c-8.144-8.158-16.785-15.695-25.657-22.479m25.657 22.479c-8.402 5.053-16.662 10.442-24.706 16.161m-0.951-38.64c-0.493-0.376-0.987-0.751-1.481-1.123m1.481 1.123c-0.214 2.899-0.446 5.795-0.698 8.69m-0.783-9.813c-5.722-4.308-11.534-8.302-17.366-11.945-2.797-1.748-5.718-3.465-8.746-5.15m26.112 17.095c0.279 3.252 0.541 6.524 0.783 9.813m-0.783-9.813c-0.238-2.768-0.488-5.521-0.751-8.258m-25.361-8.837c8.613 2.714 17.077 5.658 25.361 8.837m-88.458-35.124c-12.437-3.945-25.101-7.391-37.489-10.258m37.489 10.258c1.901 3.887 3.706 7.842 5.417 11.865m-5.417-11.865c-7.703-15.754-16.986-30.39-28.031-43.876m-9.458 33.618c-15.553-3.599-30.668-6.284-44.349-7.896m44.349 7.896c3.547 5.526 6.888 11.147 10.009 16.846m-10.009-16.846c-6.916-10.775-14.614-21.191-22.987-31.13m-21.362 23.234c-0.536-0.063-1.071-0.125-1.603-0.185m1.603 0.185c6.159-7.276 13.364-15.432 21.362-23.234m-21.362 23.234c-0.219 0.26-0.438 0.518-0.655 0.776m-0.948-0.961c-0.625-0.07-1.246-0.138-1.865-0.204-4.93-0.524-9.846-0.918-14.747-1.184m16.612 1.388c0.317 0.32 0.633 0.64 0.948 0.961m-0.948-0.961c-8.897-8.981-18.389-17.414-28.39-25.281m11.778 23.893c-42.926-2.333-84.696 5.082-124.5 19.777m124.5-19.777c4.3 2.643 8.521 5.397 12.663 8.259m-12.663-8.259c-12.193-7.493-25.029-14.092-38.539-19.713m-85.957 39.49c-12.051 4.449-23.921 9.566-35.587 15.281-8.5178 4.173-16.978 8.605-25.347 13.292m60.934-28.573c-1.409-2.763-2.8082-5.662-4.1935-8.681m4.1935 8.681c0.4304 0.844 0.8618 1.675 1.2939 2.494 1.6405 3.106 3.3369 6.177 5.0863 9.215m-67.314 16.864c-0.276 0.154-0.5519 0.309-0.8278 0.464m0.8278-0.464c0.7531-0.597 1.5077-1.192 2.2642-1.784 5.4221-4.245 10.779-8.348 16.092-12.314m-18.356 14.098c-1.0405 0.824-2.078 1.653-3.112 2.487m2.2842-2.023c-0.8173 0.46-1.6337 0.922-2.4493 1.386m2.4493-1.386c6.1709-5.053 12.495-9.876 19.184-14.562m-19.184 14.562c-0.7732 0.633-1.544 1.27-2.3129 1.911m-0.1364-0.525c-3.9517 2.251-7.8818 4.559-11.787 6.922m11.787-6.922c0.04596 0.175 0.09145 0.35 0.1364 0.525m-0.1364-0.525c-1.53-5.811-3.6195-11.365-6.3648-16.535m-5.422 23.457c-12.717 7.697-25.168 15.989-37.228 24.853m37.228-24.853c-11.163 5.136-21.417 10.788-30.594 16.934m30.594-16.934c2.947-1.356 5.9574-2.676 9.0282-3.959m-46.257 28.812c-28.962 21.286-55.674 45.874-78.414 73.455m78.414-73.455c2.1836-2.634 4.3937-5.272 6.6346-7.919m-6.6346 7.919c-24.376 29.404-45.449 58.321-69.162 92.884m-9.252-19.429c-3.479 4.219-6.865 8.508-10.152 12.866m10.152-12.866c-1.718-5.451-3.227-10.974-4.516-16.558-7.188-31.141-3.315-60.661 5.853-89.353m-1.337 105.91c2.187 6.94 4.713 13.763 7.557 20.446m-17.709-7.58c-9.615 12.749-18.382 26.088-26.147 39.989m26.147-39.989c-10.284-30.139-16.732-62.053-17.509-93.816m17.509 93.816c1.758 5.151 3.628 10.251 5.601 15.289m-31.748 24.7c-0.279 0.499-0.557 0.998-0.833 1.499-4.502 8.159-8.514 16.679-11.727 25.423m12.56-26.922c10.454-9.321 20.826-17.367 31.748-24.7m-31.748 24.7c-5.173 4.612-10.366 9.536-15.654 14.84-1.596 1.6-3.195 3.247-4.785 4.939m7.879 7.143c-0.516 1.406-1.011 2.817-1.485 4.234m1.485-4.234c6-4.394 11.997-8.661 17.955-12.801 4.639-3.224 9.513-6.524 14.583-9.877m-32.538 22.678c-0.963 0.706-1.926 1.414-2.888 2.126m1.403 2.108c-0.059 0.175-0.117 0.351-0.175 0.527m0.175-0.527c-0.47-0.702-0.938-1.405-1.403-2.108m1.403 2.108c2.797 4.177 5.667 8.337 8.587 12.458m-8.762-11.931c-4.034 12.213-6.427 24.81-6.358 37.427m6.358-37.427c-0.469-0.836-0.932-1.674-1.39-2.515m1.39 2.515c2.515 4.491 5.168 8.908 7.948 13.251m-14.306 24.176c0.049 8.869 1.314 17.748 4.081 26.512m-4.081-26.512c4.619-8.15 9.408-16.211 14.306-24.176m-14.306 24.176c-3.86 6.813-7.602 13.689-11.189 20.625m15.27 5.887c0.51 1.615 1.071 3.226 1.684 4.833m-1.684-4.833c-1.882 0.15-3.766 0.255-5.648 0.315m5.648-0.315c13.51-1.072 26.933-4.423 39.151-9.549 0.692-0.29 1.382-0.584 2.07-0.881m-39.537 15.263c0.988 2.586 2.113 5.16 3.382 7.718 6.815 13.738 20.186 27.954 31.267 37.821 16.183 14.41 33.624 27.876 51.696 40.444m-86.345-85.983c-2.446-1.479-4.891-2.985-7.332-4.518m93.677 90.501c-2.2627-0.208-4.5245-0.444-6.7851-0.708-12.93-1.513-26.295-4.094-39.514-7.841m103.92 44.832c7.4253 4.277 14.438 8.256 21.345 11.917m-21.345-11.917c5.2728 1.196 10.576 2.209 15.902 3.016m5.4434 8.901c5.9494 3.154 11.82 6.073 17.808 8.746m-17.808-8.746c2.0087 0.169 4.0183 0.32 6.0286 0.453m11.779 8.293c4.9506 2.21 9.9813 4.251 15.202 6.118m-15.202-6.118c-3.9922-2.616-7.9301-5.382-11.779-8.293m11.779 8.293c3.748 2.455 7.5439 4.777 11.361 6.961m3.8418-0.843c7.4889 2.677 15.37 4.995 23.97 6.934 1.1879 0.268 2.377 0.522 3.5674 0.763m-27.537-7.697c-1.2782 0.292-2.5587 0.573-3.8418 0.843m3.8418-0.843c12.482-2.856 24.729-6.787 36.727-11.542m-9.1903 19.239c17.303 3.504 34.86 4.196 52.342 2.907m-52.342-2.907c-3.2976 1.361-6.6097 2.683-9.9363 3.967m9.9363-3.967c9.3175-3.843 18.518-7.987 27.595-12.408m24.747 15.315c8.903-0.656 17.786-1.826 26.607-3.401m-26.607 3.401c-0.432-2.856-0.844-5.706-1.237-8.547m1.237 8.547c1.121 7.414 2.376 14.872 3.791 22.337m22.816-25.738c15.274-2.726 30.361-6.664 45.036-11.246m-45.036 11.246c-9.329-1.194-18.621-2.923-27.844-5.146m27.844 5.146c10.797 1.382 21.642 2.047 32.485 1.931m12.551-13.177c0.372-0.116 0.744-0.232 1.115-0.349 19.52-6.146 38.144-13.573 55.923-22.187m-57.038 22.536c-1.656 1.857-3.337 3.686-5.041 5.487-2.461 2.601-4.965 5.165-7.51 7.69m12.551-13.177c7.829-8.774 15.109-18.146 21.755-27.999m35.283 5.463c9.256-4.485 18.283-9.292 27.089-14.407m-27.089 14.407c6.836 2.408 13.633 4.408 20.381 6.019m-20.381-6.019c-7.078-2.494-14.197-5.427-21.346-8.821m48.435-5.586c3.779-2.196 7.518-4.449 11.216-6.757m-11.216 6.757c-4.051 0.233-8.093 0.38-12.121 0.439-6.232 0.092-12.485-0.02-18.721-0.367m30.842-0.072c2.439-0.141 4.88-0.313 7.323-0.517m3.893-6.24c7.9-4.931 15.616-10.116 23.154-15.546m-23.154 15.546c-1.286 2.093-2.583 4.173-3.893 6.24m3.893-6.24c4.369-7.113 8.603-14.383 12.72-21.81m10.434 6.264c1.292-0.931 2.579-1.869 3.86-2.814m-3.86 2.814c-2.305-1.844-4.608-3.771-6.92-5.79-0.632-0.552-1.261-1.11-1.887-1.673m8.807 7.463c5.055 4.045 10.118 7.691 15.3 11.041m-11.44-13.855c20.724-15.281 40.086-32.428 58.205-51.222m-58.205 51.222c-2.217-3.122-4.287-6.337-6.214-9.636m6.214 9.636c3.452 4.859 7.261 9.491 11.44 13.855m46.765-65.077c13.566-14.071 26.437-29.066 38.66-44.894m-38.66 44.894c-11.19 4.335-22.12 7.984-33.071 11.035m33.071-11.035c9.073-3.514 18.316-7.478 27.881-11.938 7.607-3.547 15.271-7.536 22.838-11.952m-12.059-21.004c2.515-3.256 5.002-6.548 7.462-9.873 6.081-8.219 11.966-16.535 17.582-24.964m-25.044 34.837c-8.798-5.138-17.52-10.381-26.212-15.734m26.212 15.734c6.616 3.863 13.276 7.666 20 11.411m5.044-46.248c14.937-22.42 27.964-45.644 37.658-69.988m-37.658 69.988c4.04 8.382 7.825 16.891 11.277 25.493m-11.277-25.493c-5.394-11.192-11.243-22.157-17.359-32.816m55.017-37.172c-9.963-16.816-24.458-30.994-42.821-40.117-0.154-0.077-0.308-0.153-0.463-0.228m60.721-33.031c0.21-2.812 0.368-5.639 0.472-8.483m-0.472 8.483c5.072 5.798 9.575 11.862 13.533 18.148m-13.061-26.631c0.07-1.898 0.116-3.804 0.137-5.717m-0.137 5.717c-8.521-7.293-17.653-14.101-27.309-20.436m27.309 20.436c1.426 1.22 2.834 2.454 4.226 3.701m-4.089-9.418 3e-3 -0.222m-3e-3 0.222c0.123 0.206 0.245 0.412 0.367 0.618m-0.367-0.618c-5.959-10.02-12.793-19.639-20.239-28.719m20.242 28.497c0.057-5.55-0.091-11.161-0.455-16.835-0.207-3.243-0.472-6.462-0.794-9.658m1.249 26.493c0.121 0.28 0.243 0.56 0.364 0.84m-0.364-0.84c-5.131-11.816-10.806-23.868-16.866-35.924m15.617 9.431c-0.692-6.87-1.648-13.631-2.868-20.281m2.868 20.281c16.225 20.967 31.113 43.058 44.157 66.054m-44.157-66.054c-4.205-5.433-8.5-10.791-12.875-16.07m10.007-4.211c-0.989-5.39-2.152-10.707-3.489-15.948m3.489 15.948c15.609-6.183 32.904-12.145 50.791-17.369m-50.791 17.369c-3.401 1.347-6.722 2.705-9.951 4.068m6.462-20.016c-6.03-23.63-15.607-45.718-28.783-66.068m28.783 66.068c-1.639 6.628-3.857 13.362-6.462 20.016m6.462-20.016c2.501-10.113 3.654-19.978 2.779-28.934-0.613-6.267-1.885-12.496-3.695-18.598m-27.867-18.536c-8.856-13.679-19.34-26.572-31.465-38.62-10.069-10.003-20.35-19.367-30.979-27.995m62.444 66.615c9.567 5.896 18.833 12.059 27.867 18.536m-27.867-18.536c-17.541-10.811-36.093-20.726-56.08-30.046m-6.364-36.569c-10.952-8.891-22.273-17.001-34.109-24.227m34.109 24.227c1.818 11.509 3.352 22.925 4.602 34.262m-4.602-34.262c-1.016-6.435-2.122-12.9-3.317-19.397m-30.792-4.83c-7.836-4.785-15.898-9.181-24.228-13.16m24.228 13.16c2.663 7.248 5.198 14.439 7.591 21.526m-7.591-21.526c-0.949-2.586-1.915-5.178-2.896-7.776m-21.332-5.384c-2.546-1.216-5.116-2.393-7.714-3.53m7.714 3.53c7.42 1.62 14.52 3.403 21.332 5.384m-21.332-5.384c-1.591-0.348-3.197-0.688-4.817-1.021m-2.897-2.509c-13.174-5.769-27.024-10.511-41.708-14.116-4.154-1.02-8.301-1.931-12.44-2.739m54.148 16.855c0.969 0.832 1.935 1.669 2.897 2.509m-2.897-2.509c-10.149-8.72-20.676-16.978-31.566-24.688m-22.582 7.833c-69.589-13.576-137.09 2.263-202.22 28.227m202.22-28.227c7.465-2.803 14.993-5.418 22.582-7.833m-22.582 7.833c-7.76 2.914-15.452 6.032-23.074 9.34m-179.14 18.887c-1.8129 0.722-3.6239 1.453-5.433 2.191m5.433-2.191c0.7774 0.077 1.5544 0.16 2.331 0.246m-2.331-0.246c-8.9672-0.899-17.984-1.223-27.011-0.928m21.578 3.119c-6.6817 2.726-13.338 5.553-19.969 8.46m19.969-8.46c2.5913-0.661 5.1793-1.31 7.764-1.945m-7.764 1.945c-6.7811 1.73-13.586 3.548-20.423 5.449m0.4538 3.011c-0.4895 0.215-0.9789 0.43-1.4681 0.645-5.657 2.492-11.292 5.055-16.9 7.691m18.368-8.336c-0.156-1.009-0.3073-2.013-0.4538-3.011m0.4538 3.011c0.2524 1.632 0.517 3.277 0.7936 4.935m-19.161 3.401c-11.65 5.476-23.183 11.266-34.548 17.386m34.548-17.386c6.3527-1.252 12.742-2.384 19.161-3.401m-19.161 3.401c-6.8921 1.357-13.742 2.855-20.543 4.496m-14.005 12.89c-1.3916 0.749-2.7806 1.503-4.1671 2.262m4.1671-2.262c4.6327-4.335 9.3013-8.632 14.005-12.89m-14.005 12.89c-0.6521 0.61-1.3036 1.221-1.9543 1.833m-2.2128 0.429c-14.359 7.863-28.439 16.258-42.141 25.216m42.141-25.216c0.737-0.146 1.4746-0.29 2.2128-0.429m-2.2128 0.429c-10.737 2.138-21.346 5.002-31.757 8.531m-10.383 16.685c-24.454 15.988-47.702 33.768-69.174 53.514m69.174-53.514c3.3767-5.615 6.8386-11.18 10.383-16.685m-10.383 16.685c-6.4729 10.763-12.632 21.707-18.46 32.751m-50.714 20.763c-3.921 3.606-7.782 7.277-11.581 11.014m11.581-11.014c1.035-3.076 2.145-6.134 3.332-9.172 0.155-0.396 0.31-0.791 0.466-1.184m-3.798 10.356c-0.444 1.321-0.874 2.645-1.291 3.972m-10.29 7.042c-10.806 10.632-21.105 21.803-30.817 33.537-16.802 20.298-32.801 42.782-45.505 66.814m76.322-100.35c3.411-2.468 6.831-4.811 10.29-7.042m-10.29 7.042c-10 7.238-19.922 15.561-30.542 25.342-4.485 4.13-8.945 8.316-13.326 12.587m-32.454 62.422c-7.926 14.994-14.569 30.591-19.323 46.635m19.323-46.635c-0.603-4.348-1.087-8.702-1.445-13.06m1.445 13.06c1.444 10.407 3.574 20.778 6.322 31.094m-25.645 15.541c-1.171 3.952-2.227 7.931-3.16 11.934m3.16-11.934c0.778-10.578 2.467-20.924 5.226-30.774 2.841-10.139 7.401-19.703 12.652-28.921m-17.878 59.695c-0.227 3.08-0.376 6.181-0.452 9.294m-2.708 2.64c-4.746 20.374-6.291 41.392-3.442 62.748 0.087 0.651 0.176 1.299 0.267 1.945m3.175-64.693c0.902-0.882 1.805-1.762 2.708-2.64m-2.708 2.64c-1.155 1.13-2.309 2.262-3.462 3.397m0.287 61.296c1.109 7.855 2.532 15.3 4.262 22.495m-4.262-22.495c3.054-7.222 6.239-14.407 9.547-21.552m-9.547 21.552c-1.296 3.065-2.569 6.136-3.817 9.214m8.079 13.281c2.894 12.036 6.647 23.373 11.226 34.767m-11.226-34.767c-2.582-2.484-5.11-4.998-7.579-7.542m7.579 7.542c8.366 8.049 17.291 15.774 26.573 23.125m-15.347 11.642c0.254 0.632 0.511 1.264 0.77 1.896m-0.77-1.896c-5.224-4.225-9.984-9.117-14.231-14.474m14.231 14.474c0.497 0.402 0.999 0.798 1.504 1.188m-0.734 0.708c3.825 9.338 8.204 18.742 13.118 28.627 3.982 8.011 8.169 15.985 12.553 23.896m-25.671-52.523c0.244-0.236 0.489-0.472 0.734-0.708m-0.734 0.708c-2.552 2.465-5.075 4.958-7.566 7.477m33.237 45.046c1.373 2.476 2.764 4.946 4.174 7.409m-4.174-7.409c2.656-6.805 5.518-13.562 8.555-20.27m-8.555 20.27c-0.355 0.911-0.707 1.823-1.055 2.736m5.229 4.673c5.724 9.995 11.759 19.876 18.089 29.593m-18.089-29.593c-1.783-1.517-3.527-3.074-5.229-4.673m5.229 4.673c12.558 10.683 27.046 19.354 42.419 26.189m-24.33 3.404c22.457 34.475 48.615 66.88 77.656 94.935 8.3148 8.032 17.499 15.935 27.218 23.47m-104.87-118.4c-9.674-6.888-18.914-14.332-27.642-22.305m27.642 22.305c15.391 10.96 31.883 20.515 49.174 28.566m55.7 89.839c21.105 16.365 44.733 31.001 67.461 41.481 11.8 5.441 23.824 10.477 36.032 15.09m-103.49-56.571c-44.886 2.31-95.176-4.462-136.47-25.056m239.96 81.627c9.5244 3.598 19.16 6.939 28.888 10.013m-28.888-10.013c-13.292 4.21-26.81 7.612-40.457 10.149m40.457-10.149c32.514-10.298 63.674-25.428 92.049-44.547m-63.161 54.56c13.131 4.149 26.428 7.812 39.844 10.965m-39.844-10.965c-20.458 1.036-41.065 1.222-61.835 0.451-2.4848-0.092-4.9888-0.196-7.5096-0.315m69.345-0.136c25.128-1.273 50.03-3.829 74.731-7.473m-34.887 18.438c15.987 3.758 32.142 6.793 48.382 9.068m-48.382-9.068c-4.306 2.061-8.6866 4.084-13.144 6.069-51.158 22.791-109.38 30.696-165.34 29.501-72.518-1.547-188.09-46.588-244.83-96.767-35.445-31.346-67.824-94.817-58.938-145.05 4.939-27.918 20.55-53.28 36.027-77.01 17.531-26.881 39.253-53.594 62.792-79.374m383.44 362.63c12.213-5.844 23.826-11.989 34.887-18.438m13.495 27.506c25.572 3.582 51.356 5.278 77.031 4.941 51.808-0.679 88.57-7.642 135.76-27.682 32.623-13.856 62.635-33.484 90.112-56.383m-302.9 79.124c-4.301-9.034-8.127-18.327-11.539-27.797m11.539 27.797c6.697 14.066 14.545 27.502 23.771 39.988 27.301 36.946 69.894 70.868 118.75 64.192 14.453-1.974 29.131-6.672 41.124-14.997 34.144-23.702 74.51-85.731 92.251-117.11 8.802-15.569 17.909-32.878 27.004-51.196m0 0c18.701-15.585 36.228-32.686 52.606-50.513m-52.606 50.513c7.407-14.917 14.806-30.503 22.025-46.362m30.581-4.151c7.11-7.739 14.003-15.615 20.682-23.564m-20.682 23.564c-10.001 2.238-20.241 3.602-30.581 4.151m30.581-4.151c1.406-0.315 2.807-0.647 4.202-0.996 42.276-10.58 83.514-37.184 111.56-72.986m-95.084 50.418c0.785-0.934 1.567-1.869 2.346-2.806 15.19-18.253 29.858-37.425 43.76-57.378m-46.106 60.184c-6.031 2.876-11.97 5.491-17.477 7.961-10.256 4.602-20.549 9.029-30.879 13.332m48.356-21.293c18.879-9.001 38.656-20.553 48.876-38.19 3.37-5.816 6.034-12.397 8.082-19.323m-10.852-2.671c5.376-7.716 10.637-15.548 15.769-23.489m-15.769 23.489c-1.673-0.451-3.234-0.893-4.667-1.324-16.491-4.955-32.718-10.853-48.653-17.443m53.32 18.767c3.231 0.869 6.882 1.767 10.852 2.671m4.917-26.16c25.284-39.119 47.445-80.878 64.799-124.32m-64.799 124.32c-0.832 8.723-2.415 17.698-4.917 26.16m4.917-26.16c0.646-6.769 0.838-13.386 0.657-19.492-1.23-41.268-11.687-83.23-26.963-122.17m91.105 17.338c24.989-62.557 40.008-128.6 40.024-195.29m-40.024 195.29c7.068 34.182 7.371 70.879-2.173 102.14-6.111 20.019-16.328 38.728-29.417 55.434m31.59-157.58c-4.071-19.683-10.384-38.532-18.353-55.031-14.08-29.15-33.111-55.952-54.047-80.709m112.42-59.547c3e-3 -14.651-0.718-29.332-2.216-44.014-5.482-53.709-15.636-83.449-49.76-123.68-12.154-14.328-27.113-26.122-42.038-37.517-5.026-3.8373-76.44-48.709-84.215-53.134-11.112-6.3236-22.163-12.055-33.313-17.096m211.54 275.44c29.816 8.937 54.963 27.024 72.363 56.153 11.517 19.28 16.387 42.099 20.665 64.16 9.726 50.151 7.612 89.397-6.774 138.13-14.558 49.312-42.844 91.998-97.788 98.239-14.246 1.618-37.518-0.438-60.08-3.818m71.614-352.86c-13.061-3.915-27.018-6.074-41.613-6.637-20.181-0.778-43.622 1.793-67.728 6.487m-102.2-275.29c-30.987-14.011-62.737-22.696-98.687-23.966-23.307-0.82367-46.836 0.59139-70.146 3.9791m168.83 19.987c61.415 47.94 91.214 121.25 99.061 200.58 2.455 24.814 3.441 49.75 3.14 74.705m-102.2-275.29c-9.094-7.098-18.88-13.64-29.391-19.562-49.542-27.916-100.15-27.972-152.58-12.43m13.137 12.005c-8.959 1.3022-17.887 2.8958-26.757 4.7657m26.757-4.7657c12.752 12.366 23.294 24.89 29.529 35.568 10.746 18.402 20.02 37.871 27.539 57.983m-57.068-93.551c-4.167-4.0418-8.571-8.0668-13.137-12.005m-13.62 16.771c-28.326 5.9718-56.067 14.762-82.409 25.878-13.528 5.7086-28.287 13.27-43.013 21.661m125.42-47.539c17.288 27.203 34.181 60.156 49.097 94.212m-49.097-94.212c-2.196-3.4556-4.398-6.8183-6.604-10.079m-118.82 57.618c-22.615 12.887-45.151 27.732-63.028 40.831-19.567 14.338-38.733 29.308-57.431 44.874m120.46-85.705c22.443 2.6103 43.167 10.248 67.523 20.974 22.732 10.01 44.312 22.487 64.631 36.872m-132.15-57.846c-0.625-0.0727-1.251-0.1415-1.879-0.2064m-118.58 85.912c-3.1307 2.606-6.2484 5.229-9.3526 7.869m9.3526-7.869c-0.3405-3.463-0.6067-6.82-0.7937-10.05m0.7937 10.05c0.2336 2.376 0.5023 4.803 0.8044 7.273m-10.157 0.596c-6.5869 5.601-13.113 11.276-19.576 17.024m19.576-17.024c3.3858-0.287 6.7722-0.485 10.157-0.596m-10.157 0.596c-7.1714 0.608-14.34 1.616-21.487 3.047m1.9105 13.977c-2.5326 2.253-5.0555 4.517-7.5684 6.791m7.5684-6.791c10.383-3.188 20.671-6.212 30.888-9.052m-30.888 9.052c-5.9088 1.815-11.848 3.683-17.823 5.601-6.5526 2.103-13.107 4.24-19.654 6.424m29.909-5.234c-12.48 3.013-24.796 6.511-36.909 10.52m20.949 4.203c-19.174 18.024-37.725 36.704-55.568 55.993m55.568-55.993c19.493-3.694 39.389-4.984 59.267-3.504m-114.84 59.497c-4.6694 5.047-9.2903 10.136-13.861 15.266m13.861-15.266c0.209-0.067 0.4184-0.134 0.6283-0.201 26.343-8.381 54.956-13.359 83.98-15.029m-84.608 15.23c-2.4686 0.79-4.8821 1.59-7.2451 2.403m-6.616 12.863c-4.3288 4.859-8.6126 9.754-12.85 14.684-1.167 1.357-2.331 2.719-3.493 4.085m16.343-18.769c2.155-4.299 4.3607-8.589 6.616-12.863m-6.616 12.863c-2.6291 5.246-5.1828 10.507-7.6592 15.776m-8.6836 2.993c-13.271 15.606-26.258 31.817-38.808 48.552m38.808-48.552c2.847-1.109 5.746-2.108 8.6836-2.993m-8.6836 2.993c-9.533 3.716-18.472 8.67-26.262 14.731-3.428 2.667-6.706 5.436-9.837 8.298m-2.709 25.523c-12.513 16.686-24.591 33.892-36.081 51.536m36.081-51.536c0.447-8.561 1.338-17.081 2.709-25.523m-2.709 25.523c-0.342 6.548-0.424 13.121-0.264 19.699m-35.817 31.837c-3.477 5.339-6.9 10.717-10.265 16.134m10.265-16.134c3.076-2.768 6.124-5.501 9.138-8.198 8.852-7.92 17.739-15.81 26.679-23.639m-35.817 31.837c-2.932 2.637-5.889 5.307-8.867 8.006m-1.398 8.128c-6.604 10.629-12.983 21.404-19.108 32.307m19.108-32.307c0.399-2.723 0.864-5.433 1.398-8.128m-1.398 8.128c-5.115 34.909 0.775 71.892 17.005 105.61m-36.113-73.306c-9.877 17.582-19.091 35.499-27.507 53.677m27.507-53.677c-1.87-5.628-3.565-11.275-5.074-16.939m5.074 16.939c3.824 11.51 8.379 22.938 13.569 34.258 5.837 12.734 13.408 26.206 21.944 39.689m-63.02-20.27c-2.662-15.066-4.036-30.58-3.664-45.781m3.664 45.781c2.939 16.636 7.446 32.726 12.905 47.246 2.181 5.804 5.044 12.518 8.451 19.866m-34.72-36.346c-0.497 1.225-0.99 2.452-1.479 3.679m1.479-3.679c-1.785-23.709-0.174-47.953 3.53-70.51m-3.53 70.51c0.145 1.917 0.311 3.83 0.5 5.739m-1.979-2.06c-1.633 4.096-3.223 8.203-4.767 12.319m4.767-12.319c-5.417-5.689-10.533-11.522-15.282-17.483m15.282 17.483c0.655 0.689 1.315 1.376 1.979 2.06m-6.746 10.259c-3.544 9.441-6.851 18.934-9.907 28.47m9.907-28.47c-4.949-9.557-8.516-19.75-10.515-29.802m10.515 29.802c3.209 6.198 6.999 12.127 11.32 17.576m-21.227 10.894c-0.617 1.925-1.223 3.853-1.82 5.782-5.626 18.204-10.072 38.006-11.739 57.797m13.559-63.579c-2.406-4.575-4.68-9.236-6.816-13.983-8.637-19.197-13.735-38.414-15.36-57.692m22.176 71.675c4.808 9.139 10.145 17.931 15.961 26.359m-29.52 37.22c-3.583 42.523 5.66 84.993 43.574 111.44 7.123 4.969 14.674 9.401 22.552 13.331m-66.126-124.77c8.824-12.959 18.777-25.366 29.52-37.22m-29.52 37.22c-4.132 6.067-8.016 12.254-11.618 18.562-14.966 26.209-24.03 46.187-13.451 76.093 4.77 13.486 12.942 25.893 22.495 36.522 19.562 21.769 66.146 53.124 91.792 65.074 55.929 26.061 117.37 31.274 176.41 20.296m-199.5-91.776c-10.87-25.878-11.503-55.604-4.992-84.293 2.394-10.549 5.411-21.006 8.945-31.361m-3.953 115.65c5.582 13.288 13.864 25.561 25.264 36.159 45.413 42.216 114.53 52.817 174.24 55.617m62.613-94.344c-2.7551-1.237-5.497-2.516-8.2247-3.84-4.4048-2.138-8.8248-4.468-13.218-6.981m21.442 10.821c21.341 9.576 43.478 16.548 66.069 21.277m-28.538-37.652c7.1568-3.485 14.236-7.143 21.234-10.961m-21.234 10.961c-6.1834-2.068-12.322-4.35-18.404-6.831m18.404 6.831c7.7722 2.601 15.616 4.865 23.51 6.768m-2.276-17.729c7.191-3.924 14.296-8.016 21.312-12.265m-21.312 12.265c-0.36-3.019-0.7-6-1.022-8.949m1.022 8.949c0.524 4.394 1.088 8.866 1.693 13.433 0.19 1.43 0.384 2.862 0.583 4.296m19.036-29.994c6.301-3.816 12.529-7.758 18.682-11.816m-18.682 11.816c-2.894-0.266-5.783-0.577-8.668-0.933m8.668 0.933c25 2.298 50.318 1.2 75.599-4.105m-56.917-7.711c2.767-1.826 5.519-3.675 8.255-5.546m-8.255 5.546c-3.579 1.618-7.232 3.195-10.961 4.732-5.425 2.236-10.89 4.284-16.389 6.151m27.35-10.883c3.673-1.661 7.268-3.366 10.789-5.118m-2.534-0.428c0.875-0.598 1.748-1.199 2.619-1.801 1.119-0.775 2.228-1.546 3.326-2.316m-5.945 4.117c-2.861-0.524-5.739-1.186-8.632-1.993m8.632 1.993c0.846 0.155 1.691 0.298 2.534 0.428m3.411-4.545c2.995-2.097 5.913-4.176 8.764-6.244m-8.764 6.244c-4.834 0.802-9.697 1.511-14.577 2.124m14.577-2.124c2.653-0.44 5.297-0.907 7.931-1.402m0.833-4.842c16.993-12.327 31.569-24.234 45.341-36.898m-45.341 36.898c-4.336-1.932-8.582-4.077-12.723-6.451m12.723 6.451c1.457 0.649 2.924 1.274 4.401 1.876m40.94-38.774c9.054-8.325 17.761-16.977 26.577-26.291m-26.577 26.291c-5.55 0.039-11.005 9e-3 -16.38-0.092m16.38 0.092c3.279-0.022 6.591-0.069 9.94-0.139m16.637-26.152c3.486-3.683 6.99-7.47 10.54-11.381m-10.54 11.381c-0.858 3.754-1.806 7.491-2.842 11.206m2.842-11.206c0.656-2.874 1.259-5.759 1.808-8.652m8.732-2.729c4.711-5.191 9.503-10.601 14.442-16.278l0.059-0.068m-14.501 16.346c-0.345-1.204-0.667-2.416-0.965-3.635m0.965 3.635c0.372 1.301 0.771 2.593 1.196 3.876m13.305-20.222c0.305-0.351 0.609-0.702 0.913-1.053m-0.913 1.053c-4.297 7.073-8.723 13.807-13.305 20.222m13.305-20.222 0.342-0.564m0.571-0.489c2.062-2.38 4.098-4.764 6.105-7.154m-6.105 7.154c-0.19 0.163-0.381 0.326-0.571 0.489m0.571-0.489c3.274-2.799 6.55-5.63 9.827-8.494m-3.722 1.34c1.248-1.487 2.484-2.976 3.709-4.468m-3.709 4.468c-1.134 0.721-2.271 1.432-3.409 2.134m3.409-2.134c1.24-0.789 2.478-1.59 3.712-2.402m-3e-3 -2.066c14.949-18.219 28.076-36.913 37.695-57.25m-37.695 57.25c7e-3 -2.128 0.049-4.258 0.123-6.388m-0.123 6.388c-3e-3 0.689-1e-3 1.377 3e-3 2.066m37.692-59.316c1.166-2.467 2.282-4.958 3.342-7.476m-3.342 7.476c-1.159-0.774-2.32-1.549-3.481-2.326m3.481 2.326c5.288 3.527 10.548 7.012 15.789 10.456m-12.447-17.932c7.671-18.208 12.485-37.79 13.302-59.535 0.1-2.674 0.119-5.551 0.063-8.591m-13.365 68.126c-2.337 1.807-4.615 3.527-6.823 5.15m6.823-5.15c7.854-6.071 16.377-13.126 25.193-20.817m-11.828-47.309c-0.033-1.781-0.091-3.618-0.174-5.503m0.174 5.503c0.485-0.357 0.971-0.712 1.459-1.063m-1.459 1.063c-6.449 4.748-12.639 10.022-18.501 15.591m18.327-21.094c-0.045-1.044-0.098-2.103-0.158-3.175m0.158 3.175c0.561 1.477 1.106 2.957 1.633 4.44m-1.633-4.44c-0.292-0.769-0.588-1.537-0.889-2.304m0.731-0.871c-0.693-12.421-2.333-26.68-4.501-40.811m4.501 40.811c5.172-6.137 10.625-12.06 16.318-17.767m-16.318 17.767c-0.244 0.29-0.488 0.58-0.731 0.871m-3.77-41.682c-1.568-10.219-3.413-20.37-5.376-29.711m5.376 29.711c7.38 7.671 14.205 15.203 20.819 23.044m-20.819-23.044c-7.841-8.15-16.307-16.456-25.811-25.456-1.595-1.51-3.204-3.024-4.827-4.539m25.262 0.284c2.27 0.532 4.539 1.087 6.806 1.667 9.878 2.527 20.314 5.436 30.533 9.167m-37.339-10.834c-8.894-2.084-17.805-3.8-26.724-5.17m9.919-49.722c-10.871-2.072-21.854-3.829-32.897-5.277m-0.551-50.464c-4.023-4.912-8.28-9.671-12.779-14.276m12.779 14.276c39.002 4.462 76.911 15.463 110.82 33.409m-110.82-33.409c-9.164-1.048-18.389-1.735-27.636-2.067m14.857-12.209c-6.14-6.284-12.731-12.28-19.796-17.984m19.796 17.984c12.087-8.724 25.234-15.139 38.831-16.318 18.473-1.603 34.111 6.941 49.929 14.884 10.049 5.046 19.737 10.539 29.084 16.477m-117.84-15.043c-5.161 3.725-10.13 7.87-14.857 12.209m-4.939-30.193c-0.326-0.264-0.653-0.526-0.981-0.788-25.103-20.05-44.881-32.592-77.681-35.909-2.313-0.234-4.639-0.441-6.974-0.612m85.636 37.309c29.191-5.439 58.962-8.544 88.325-5.91 11.903 1.067 26.7 3.809 42.073 8.448m-130.4-2.538c-8.839 1.647-17.626 3.507-26.331 5.488-0.445 0.101-0.89 0.203-1.334 0.305m-57.971-43.102c-0.983-0.072-1.968-0.138-2.954-0.196m2.954 0.196c10.074-6.603 20.314-12.922 30.714-18.916m-30.714 18.916c-0.388 0.255-0.777 0.51-1.165 0.766m-1.789-0.962c-13.502-0.805-27.211-0.296-40.157 3.21-9.6633 2.617-19.705 6.161-29.927 10.399m70.084-13.609c0.598 0.318 1.194 0.639 1.789 0.962m-1.789-0.962c-14.77-7.873-30.143-14.356-45.888-19.191m-24.196 32.8c-11.52 4.776-23.268 10.435-34.96 16.643m34.96-16.643c7.6776 2.119 15.309 4.699 22.87 7.762 4.213 1.707 8.39 3.489 12.527 5.345m-35.397-13.107c-13.39-3.696-26.92-5.99-40.458-6.998m5.4986 23.641c-12.072 6.41-24.086 13.407-35.726 20.626m35.726-20.626c-2.0236-7.915-3.8683-15.842-5.4986-23.641m5.4986 23.641c1.7553 6.865 3.6452 13.72 5.6465 20.472m-41.373 0.154c-22.641 14.039-43.874 28.915-61.393 41.938m61.393-41.938c13.765-0.793 27.622-0.841 41.373-0.154m-102.77 42.092c-1.8638 1.385-3.6854 2.749-5.4623 4.09-19.792 14.927-39.075 30.526-58.03 46.527m63.493-50.617c1.975 0.221 3.9345 0.502 5.8738 0.842 25.791 4.522 41.496 17.225 50.361 33.921m-56.235-34.763c-14.651-1.644-30.163-0.057-44.735 4.334m-18.758 46.283c-9.744 8.227-19.402 16.559-28.998 24.961m28.998-24.961c4.236-13.257 9.603-26.338 15.531-39.32 1.061-2.322 2.1361-4.643 3.2266-6.963m-92.44 111.09c-8.391 7.604-16.951 15.447-25.58 23.496m25.58-23.496c6.305-31.87 22.016-61.62 47.657-85.065m-73.237 108.56c-8.663 8.081-17.396 16.37-26.097 24.835m-6.17 6.037c-7.029 6.92-14.022 13.95-20.925 21.073m20.925-21.073c1.389-8.457 3.072-16.676 4.98-24.541 4.103-16.909 10.754-36.389 19.137-55.934m-45.042 101.55c-4.739 4.89-9.436 9.824-14.072 14.795m14.072-14.795c5.212-37.045 25.887-78.753 44.832-105.89m-44.832 105.89c-1.034 7.354-1.46 14.524-1.141 21.36 0.218 4.668 0.816 9.454 1.775 14.273m-14.706-20.838c-2.303 2.469-4.591 4.948-6.862 7.435m6.862-7.435c-2.646-4.304-5.082-8.66-7.286-13.063m7.286 13.063c4.362 7.096 9.296 14.05 14.706 20.838m-21.568-13.403c-0.575-6.824-0.716-13.656-0.424-20.498m418.75 364.69c0.569-0.332 1.136-0.664 1.702-0.997m-1.702 0.997c0.652-0.096 1.304-0.193 1.956-0.291m-0.254-0.706c-5.382-15.039-9.726-30.515-13.272-46.09m13.272 46.09c0.084 0.235 0.169 0.471 0.254 0.706m75.18-57.365c15.666-14.929 29.875-30.917 42.929-47.976m-42.929 47.976c-23.109 0.633-46.226-0.479-69.01-3.694m111.94-44.282c3.345-4.372 6.614-8.814 9.812-13.327m-9.812 13.327c-26.181 10.952-53.163 16.079-80.158 16.367m80.158-16.367c6.979-2.92 13.901-6.254 20.751-10.02 0.467-0.256 0.935-0.516 1.405-0.778m-12.344-2.529c4.833-6.819 9.504-13.8 14.031-20.943m-14.031 20.943c4.134 0.988 8.249 1.829 12.344 2.529m1.687-23.472c14.624-1.221 29.298-3.577 43.729-7.076m-27.116-20.974c0.328-0.593 0.656-1.187 0.983-1.782m-0.983 1.782c-11.809 8.614-24.394 15.976-37.477 21.753-5.754 2.541-11.523 4.833-17.301 6.886m54.778-28.639c0.544-0.397 1.086-0.797 1.627-1.199m-0.644-0.583c1.582-2.877 3.146-5.777 4.694-8.701m-4.694 8.701c-5.89-5.356-11.475-11.201-16.543-17.472m16.543 17.472c0.215 0.195 0.429 0.389 0.644 0.583m4.05-9.284c3.581-6.763 7.074-13.653 10.491-20.669m-10.491 20.669c-2.919-5.452-5.466-11.111-7.656-16.932m7.656 16.932c0.775 1.447 1.576 2.88 2.403 4.297m8.088-24.966c2.154-4.423 4.278-8.896 6.375-13.42m-6.375 13.42c-5.597 1.133-11.249 2.13-16.993 3.002m16.993-3.002c7.83-1.585 15.55-3.436 23.26-5.585m-16.885-7.835c10.311-22.247 19.964-45.714 29.309-70.417 1.464-3.868 2.895-7.729 4.296-11.582m-33.605 81.999c-7.541 5.803-15.343 11.286-23.368 16.422m23.368-16.422c10.693-8.229 20.861-17.101 30.391-26.538 8.022-7.944 15.542-16.405 22.654-25.211m-19.44-30.25c4.889-13.454 9.392-26.82 13.506-40.122m-13.506 40.122c-2.093-1.349-4.186-2.705-6.282-4.067m6.282 4.067c8.287 5.344 16.553 10.584 24.84 15.723m-11.334-55.845c3.24-10.474 6.238-20.909 8.993-31.316m-8.993 31.316c-5.418 5.983-10.95 11.908-16.573 17.765m16.573-17.765c9.119-10.07 17.912-20.305 26.266-30.659m-17.273-0.657c1.592-6.011 3.102-12.012 4.531-18.007m-4.531 18.007c-3.131 2.97-6.269 5.903-9.399 8.784m9.399-8.784c3.418-3.242 6.828-6.529 10.21-9.842m-5.679-8.165c2.233-9.365 4.267-18.714 6.102-28.056m-6.102 28.056c1.872 2.648 3.763 5.366 5.679 8.165m-5.679-8.165c-2.436-3.445-4.84-6.771-7.231-9.999m13.333-18.057c2.269-11.55 4.232-23.089 5.889-34.634m-5.889 34.634c4.008-0.62 8.046-0.918 12.105-0.857m-12.105 0.857c-4.374 0.677-8.71 1.735-12.995 3.126m18.884-37.76c0.128-0.892 0.255-1.785 0.379-2.677m-0.379 2.677c2.109 1.266 4.171 2.595 6.177 3.993m-6.177-3.993c-0.595-0.357-1.194-0.71-1.796-1.057m2.175-1.62c1.575-11.297 2.856-22.601 3.84-33.929m-3.84 33.929c1.818-1.344 3.648-2.67 5.489-3.979m-5.489 3.979c-0.727 0.537-1.452 1.077-2.175 1.62m6.015-35.549c0.727 9.851 1.286 19.857 1.649 29.95m-0.395-46.94c0.833-13.716 1.231-27.479 1.194-41.315m-1.194 41.315c15.216 5.966 29.802 12.732 43.559 20.325m-42.365-61.64c-0.026-9.32-0.249-18.673-0.672-28.069m0.672 28.069c1.761 1.026 3.511 2.072 5.248 3.137 19.841 12.168 39.978 28.808 57.454 48.368m-62.702-51.505c-3.178-1.85-6.395-3.635-9.649-5.357m8.977-22.712c-0.5-11.101-1.278-22.262-2.335-33.495m2.335 33.495c18.527 13.227 35.646 28.344 51.525 45.338 3.101 3.319 6.173 6.676 9.214 10.07m-60.739-55.408c-4.816-3.437-9.726-6.748-14.734-9.93m12.399-23.565c-0.303-3.221-0.63-6.449-0.979-9.683m0.979 9.683c3.583 1.459 7.145 3.024 10.655 4.7m-10.655-4.7c-6.533-2.659-13.138-4.961-19.641-6.924m18.662-2.759c-0.057-0.523-0.114-1.045-0.171-1.568m0.171 1.568c0.531 0.246 1.062 0.492 1.591 0.739m-1.591-0.739c-7.209-3.337-14.604-6.598-22.206-9.797m22.035 8.229c0.589 0.767 1.177 1.537 1.762 2.307m-1.762-2.307c-9.768-12.723-20.15-25.094-31.12-36.963m23.201-16.696c-0.31-1.685-0.626-3.374-0.949-5.064-3.732-19.58-9.228-38.943-16.258-57.744m17.207 62.808c30.852 14.659 55.255 36.501 77.643 70.673 6.784 10.355 12.424 21.87 15.985 33.875m-93.628-104.55c-10.435-4.957-21.607-9.093-33.688-12.606m16.481-50.202c37.657-3.9944 76.123-1.8799 112.4 8.2048 23.31 6.48 41.307 13.954 58.487 31.086 26.518 26.444 34.278 67.722 34.641 103.76 0.21 20.868-1.752 41.41-5.456 61.591m-200.07-204.65c-11.683 1.2398-23.289 3.0668-34.728 5.4268m-35.477-110.98c-19.692-16.983-42.411-32.353-62.284-40.503m62.284 40.503c-4.926 1.4601-9.869 3.0579-14.827 4.7832-1.803 0.62705-3.601 1.2634-5.397 1.9088m-42.06-47.195c-4.095-1.6794-8.069-3.0523-11.871-4.0696-38.373-10.267-88.956 6.3141-121.78 22.85-10.961 5.5226-21.57 11.712-31.95 18.293m165.6-37.074c12.61 10.37 24.02 22.271 33.646 35.284 2.806 3.7922 5.613 7.7691 8.414 11.911m-42.06-47.195c-7.836-6.4439-16.136-12.296-24.758-17.456-38.825-23.234-64.875-16.113-98.6 9.3312-17.938 13.534-31.642 28.365-42.238 45.198m0 0c-14.084 8.929-27.748 18.579-41.301 28.263-56.471 40.351-95.966 75.529-143.07 126.3-33.675 36.295-64.253 72.121-84.454 117.42m268.83-271.98c-11.361 18.047-19.149 38.397-24.754 61.918-3.4714 14.57-5.8936 29.488-7.1243 44.486m-236.95 165.58c-0.934 2.095-1.846 4.209-2.735 6.345-5.689 13.67-9.776 27.392-12.415 41.125m15.15-47.47c10.193-7.529 20.123-14.112 29.185-19.609 26.371-15.996 54.356-29.205 83.081-40.737m-112.27 60.346c-52.556 38.822-112.12 102.81-95.98 172.93 2.365 10.273 6.136 20.371 11.071 30.232m69.759-155.69c-3.08 16.033-4.188 32.079-3.569 48.074m3.569-48.074c8.408-11.404 16.592-21.413 23.727-28.697 28.274-28.87 60.16-51.845 94.553-69.661m-118.28 98.358c-21.627 29.336-44.732 67.909-55.251 93.11-8.758 20.983-13.622 41.827-14.508 62.583m66.19-107.62c0.056 1.446 0.126 2.893 0.21 4.339m-0.21-4.339c0.307-0.441 0.614-0.877 0.921-1.309 1.493-2.109 3.028-4.186 4.599-6.236m-5.31 11.884c0.106 1.817 0.234 3.633 0.383 5.449m-0.383-5.449c1.701-3.966 3.474-7.934 5.31-11.884m-4.927 17.333c3.823-6.712 8.012-13.24 12.172-19.674 6.931-10.722 14.161-20.502 21.727-29.688m14.455 184.4c1.423 2.248 2.873 4.496 4.346 6.74m-4.346-6.74c0.2-0.214 0.4-0.428 0.6-0.641m-0.6 0.641c-8.374 8.984-16.443 19.203-22.242 30.247m26.588-23.507c0.413 0.63 0.828 1.259 1.245 1.888m-1.245-1.888c-0.095-0.178-0.191-0.357-0.285-0.536-1.202-2.265-2.355-4.547-3.461-6.845m3.746 7.381c0.358 0.671 0.719 1.34 1.083 2.008m0.162-0.12-0.162 0.12m10.152 14.446c10.247 14.456 21.115 28.424 31.605 40.958m-31.605-40.958c8.276-13.407 16.853-26.54 25.436-39.37m-25.436 39.37c-0.271 0.44-0.543 0.88-0.814 1.32m32.419 39.638c1.926 2.3 3.839 4.552 5.732 6.75m-5.732-6.75c-0.473 0.208-0.948 0.415-1.423 0.62m1.423-0.62c0.748-0.329 1.492-0.662 2.234-0.998m3.498 7.748c-1.304-2.525-2.475-5.108-3.498-7.748m3.498 7.748c0.611 1.183 1.251 2.354 1.918 3.512m9.585 9.469c11.49 12.651 23.619 25.144 36.283 37.214m-36.283-37.214c15.83 15.095 32.939 28.869 50.528 41.298 1.7626 1.246 3.5345 2.482 5.3153 3.71m-19.56-7.794c1.2818 1.222 2.5692 2.439 3.8619 3.652m-3.8619-3.652c1.9919 1.454 3.9839 2.875 5.9652 4.265m-2.1033-0.613c6.0068 5.636 12.13 11.172 18.358 16.582m-18.358-16.582c0.7005 0.206 1.4015 0.41 2.1033 0.613m16.255 15.969c9.5003 8.252 19.246 16.209 29.199 23.774m-29.199-23.774c-0.5528-1.962-1.0472-3.942-1.4804-5.941m1.4804 5.941c2.5 8.871 6.1948 17.353 10.827 25.394m18.372-1.62c13.731 10.437 27.857 20.129 42.277 28.82 7.2287 4.356 14.59 8.449 22.063 12.251m-64.34-41.071c-6.1024 0.734-12.23 1.276-18.372 1.62m18.372-1.62c5.2808-0.635 10.543-1.414 15.78-2.333m48.56 43.404c5.1785 2.634 10.41 5.13 15.689 7.477m-15.689-7.477c-16.82 2.183-33.702 1.668-50.37-0.859m50.37 0.859c9.6485-1.252 19.277-3.393 28.832-6.55 4.6408-1.533 9.384-3.445 14.168-5.661m-27.311 19.688c3.0254 1.345 6.0662 2.641 9.1209 3.887m-9.1209-3.887c-18.124 1.941-36.382 2.223-54.588 1.018m54.588-1.018c9.4176-1.009 18.799-2.466 28.117-4.395m-18.996 8.282c6.4038-2.538 12.737-5.312 18.996-8.282m83.247 28.958c-9.991 9.915-20.618 19.239-31.781 27.915m134.1-55.08c14.435-8.065 30.05-18.752 45.416-30.548m-45.416 30.548c29.815 5.098 58.513 2.71 85.121-5.358m-39.705-25.19c0.425-0.327 0.85-0.654 1.274-0.982m-1.274 0.982c0.608-0.148 1.215-0.297 1.821-0.448m-0.547-0.534c0.24-0.185 0.48-0.371 0.721-0.557m-0.721 0.557c-0.901-0.884-1.786-1.78-2.656-2.687m2.656 2.687c0.182 0.179 0.364 0.356 0.547 0.534m0.174-1.091c23.575-18.272 46.415-39.011 63.325-56.732 10.574-11.082 20.842-22.554 30.782-34.365m-94.107 91.097c-1.132-0.697-2.257-1.407-3.377-2.13m3.377 2.13c0.403 0.249 0.808 0.495 1.213 0.741m92.894-91.838c2.671-3.174 5.318-6.371 7.941-9.593m-7.941 9.593c4.011-2.341 7.995-4.802 11.928-7.382m-3.987-2.211c5.55-6.816 10.992-13.738 16.321-20.755m-16.321 20.755c1.326 0.739 2.656 1.476 3.987 2.211m12.334-22.966c1.48 3.688 2.899 7.393 4.25 11.112m35.992-69.227c10.014-15.893 19.47-32.104 28.328-48.545m-28.328 48.545c1.888 10.506 2.297 21.304 1.12 32.004m27.208-80.549c0.387-0.719 0.773-1.438 1.158-2.158m-1.158 2.158c0.366 12.936-1.289 25.969-5.376 38.883-4.772 15.083-12.344 28.995-21.832 41.666m27.208-80.549c-0.087-3.063-0.287-6.121-0.595-9.171m1.753 7.013c1.21-2.262 2.409-4.529 3.597-6.799m-3.597 6.799c4.137 17.11 7.619 35.685 9.891 54.582m-9.891-54.582c-0.572-2.367-1.157-4.705-1.753-7.013m5.35 0.214c3.291-6.294 6.495-12.618 9.609-18.968m-9.609 18.968c-2.61-8.596-5.993-16.964-10.195-25.026m10.195 25.026c5.952 19.604 7.877 40.386 6.294 61.381m3.315-80.349c0.782-1.595 1.558-3.193 2.329-4.791 0.697-1.445 1.389-2.892 2.075-4.342m-4.404 9.133c-9.132-13.445-19.95-25.771-32.173-37.014m32.173 37.014c14.618 21.525 24.914 45.919 29.73 73.331m-25.326-82.464c11.838-25.026 22.035-50.824 29.552-77.311m-29.552 77.311c5.702 10.054 11.053 20.281 16.008 30.662 4.95 10.37 9.617 21.062 13.905 31.992m-0.361-139.96c3.295-11.608 6.074-23.348 8.252-35.213m-8.252 35.213c4.436 4.813 8.867 9.762 13.305 14.854 1.935 2.219 3.856 4.456 5.761 6.709m-19.066-21.563c-8.554-9.283-17.124-18.063-25.786-26.393m34.038-8.82c4.645-1.046 9.283-2.022 13.897-2.921m-13.897 2.921c-11.399 2.565-22.834 5.548-34.038 8.82m-200.76-208.04c-3.733 0.77-7.448 1.597-11.142 2.479-10.515 2.509-20.924 5.417-31.223 8.694m42.365-11.173c6.502 14.844 12.627 29.897 18.247 44.775m-106.27-16.429c-19.102 8.292-37.762 17.78-55.936 28.258m55.936-28.258c21.66 1.066 43.74 3.49 66.462 7.442 4.669 0.813 9.219 1.671 13.657 2.582m-80.119-10.024c-60.583-2.982-117.89 4.654-176.81 19.133m120.87 9.125c58.338 4.147 111.77 17.516 174.84 43.327 2.332 0.954 4.645 1.914 6.939 2.88m-181.78-46.207c-25.212-1.793-51.34-1.863-79.556-0.471m47.677 20.153c-12.418 8.177-24.582 16.786-36.476 25.754m36.476-25.754c21.216 11.507 41.158 25.878 59.136 42.336m-95.612-16.582c-11.456 8.637-22.662 17.607-33.605 26.843m33.605-26.843c18.175 8.152 35.584 17.735 51.92 28.683m-85.525-1.84c-7.989 6.744-15.838 13.63-23.54 20.632m23.54-20.632c15.107 2.016 29.891 4.944 44.072 8.772 4.262 1.151 8.464 2.39 12.609 3.716m-56.681-12.488c-10.249-1.367-20.646-2.313-31.105-2.835m7.5647 23.467c-18.939 17.217-36.996 35.139-54.096 53.388m54.096-53.388c-2.653-7.573-5.1875-15.447-7.5647-23.467m7.5647 23.467c3.5125 10.026 7.2326 19.524 11.07 28.131m-65.166 25.257c-1.8555 1.98-3.6998 3.965-5.5326 5.952-10.931 11.854-20.984 23.221-30.483 34.439m-86.684 116.75c1.769-2.597 3.531-5.181 5.283-7.75l1.196-1.753c1.037-1.522 2.07-3.032 3.097-4.532m-9.576 14.035c-4.861 7.138-9.774 14.38-14.686 21.721m14.686-21.721c-0.995-2.393-1.967-4.801-2.916-7.223m2.916 7.223c1.341 3.225 2.724 6.422 4.145 9.588m-18.831 12.133c6.021-3.982 12.319-8.04 18.831-12.133m-45.081 52.823c9.098 14.212 19.557 27.635 30.996 40.258m-56.491 4.543c-1.015 1.961-2.017 3.927-3.005 5.898m3.005-5.898c-6.687-4.422-13.311-9.043-19.806-13.845m19.806 13.845c3.195 2.113 6.404 4.181 9.622 6.202m-12.627-0.304c-2.217 4.418-4.368 8.86-6.443 13.325m6.443-13.325c-4.927-0.403-9.797-1.146-14.554-2.255-0.141-0.033-0.281-0.066-0.421-0.1m14.975 2.355c4.179 0.341 8.399 0.437 12.627 0.304m-19.07 13.021c-0.643 1.383-1.279 2.768-1.907 4.155m1.907-4.155c-2.971-5.307-5.825-10.554-8.532-15.68m8.532 15.68c5.71 10.199 11.849 20.615 18.197 30.795m-20.104-26.64c-1.264-2.244-2.44-4.52-3.522-6.828-2.096-4.472-3.525-8.921-4.376-13.326m7.898 20.154c5.326 9.458 12.204 18.345 20.104 26.64m-29.714-3.634c-1.515 3.971-2.958 7.959-4.324 11.961m4.324-11.961c-7.785-7.31-14.693-15.48-20.438-24.556-4.624-7.305-8.514-15.088-11.744-23.226m27.858 59.743c-15.2-13.883-28.851-29.373-40.559-46.337m382.14 245.87c89.391-13.399 176.15-40.983 261.45-73.451 20.682-7.872 41.223-15.736 61.623-23.976m0 0c5.444-2.199 10.879-4.424 16.302-6.684m-16.302 6.684c-15.62-0.21-31.334-2.197-46.677-5.754m46.677 5.754c4.477 0.06 8.945-0.025 13.395-0.262m2.907-6.422c-0.965 2.145-1.934 4.286-2.907 6.422m2.907-6.422c15.16-33.679 29.414-68.341 41.142-100.24m64.172 21.438c10.994 2.502 24.429 5.043 38.126 7.095m-59.515-174.91c-1.467 6.62-2.998 13.224-4.587 19.81m4.587-19.81c8.653-39.03 15.134-78.637 18.705-118.4m-105.65-26.376c-0.025-0.029-0.049-0.059-0.074-0.088m0.074 0.088c-0.873 2.225-1.789 4.44-2.742 6.639m2.742-6.639c0.019-0.048 0.037-0.095 0.056-0.143m-0.13 0.055c-2.511-3.029-5.049-6.031-7.611-9.006m7.611 9.006c0.044-0.019 0.087-0.037 0.13-0.055m-0.13 0.055c-1.689 0.713-3.353 1.428-4.99 2.143m-2.621-11.149c-2.706-3.141-5.439-6.252-8.198-9.332m8.198 9.332c-0.205 1.565-0.444 3.129-0.714 4.69m0.714-4.69c0.933-7.131 1.167-14.3 0.512-21.459-3.097-33.894-30.128-57.277-61.129-72.076m52.419 84.203c2.54 4.655 5.038 9.333 7.484 14.022m-7.484-14.022c-16.549-30.331-34.88-59.658-52.419-84.203m-23.054 18.865c2.059 10.244 3.998 21.176 5.757 32.642m-5.757-32.642c-0.108-0.537-0.217-1.072-0.325-1.605-1.84-9.034-4.166-18.72-6.917-28.884m-125.46 27.655c-1.633 1.499-3.236 3.02-4.809 4.555m4.809-4.555c-2.967-0.106-5.936-0.176-8.907-0.209m4.098 4.764c-1.349-1.601-2.715-3.189-4.098-4.764m-17.919 28.774c-0.172 0.204-0.344 0.407-0.514 0.61-1.477 1.755-2.938 3.522-4.383 5.3m4.897-5.91c6.359 6.478 12.41 13.238 18.122 20.275m-23.019-14.365c-3.287 4.044-6.491 8.144-9.613 12.298m9.613-12.298c6.425 4.439 12.66 9.137 18.71 14.08m-28.323-1.782c-0.161 0.215-0.323 0.43-0.484 0.645m0.484-0.645c0.557 0.225 1.114 0.454 1.669 0.685m-1.669-0.685c-5.39-2.179-10.874-4.088-16.452-5.687-31.496-9.027-66.732-7.43-94.066 11.903-1.6424 1.162-3.2577 2.363-4.8469 3.6m114.88-9.171c-39.869-0.654-79.014 2.513-114.88 9.171m114.88-9.171c0.718 0.012 1.435 0.025 2.153 0.04m-41.09 62.514c-4.302 8.376-8.35 16.883-12.154 25.504m12.154-25.504c35.392-6.121 71.244-8.376 107.07-5.381m-107.07 5.381c-12.509 2.163-24.959 4.809-37.331 7.876m25.177 17.628c-0.845 1.915-1.678 3.836-2.499 5.762m2.499-5.762c24.922 3.583 54.822 15.638 66.75 40.05 4.558 9.328 6.593 19.239 6.744 29.356m-73.494-69.406c-1.438-0.206-2.859-0.385-4.259-0.536-1.71-0.184-3.424-0.351-5.142-0.5m6.902 6.798c-5.614 13.172-10.666 26.596-15.183 40.212m15.183-40.212c-2.321-2.245-4.622-4.511-6.902-6.798m6.902 6.798c15.903 15.385 32.706 29.784 49.668 43.417 8.627 6.934 17.419 13.657 26.325 20.227m-91.176-23.432c-14.427 43.494-23.393 88.945-27.747 134.35m27.747-134.35c25.798-5.58 49.231-0.996 69.847 17.437m-69.847-17.437c-3.801 0.823-7.654 1.866-11.556 3.118-26.755 8.582-65.576 30.902-86.842 47.492-13.461 10.502-27.549 22.668-40.464 36.255m111.12 47.489c-0.14 1.464-0.276 2.927-0.407 4.39-0.734 8.213-1.347 16.117-1.839 23.795m2.246-28.185c9.027-30.734 30.601-60.64 50.349-83.952 8.114-9.578 25.756-27.824 39.918-31.891 2.603-0.747 5.042-1.089 7.327-1.074m-97.594 116.92c-1.149 3.911-2.094 7.835-2.807 11.761-1.0013 5.514-1.2815 10.994-0.9356 16.388m1.4966 0.036c-0.176 2.759-0.337 5.488-0.482 8.192m0.482-8.192c-0.498-0.01-0.997-0.023-1.4966-0.036m1.4966 0.036c16.604 0.361 32.115-0.867 47.48-3.672m-47.962 11.864c-0.452 8.427-0.7511 16.61-0.895 24.665m0.895-24.665c-0.495-2.715-0.8371-5.46-1.0146-8.228m1.0146 8.228c1.26 6.92 3.508 13.645 6.532 20.058m-7.427 4.607c-0.0203 1.14-0.0376 2.277-0.0517 3.411m0.0517-3.411c-0.5204 0.315-1.0433 0.629-1.5687 0.944-0.8681 0.519-1.7387 1.034-2.6116 1.546m4.1803-2.49c2.533-1.531 5.007-3.065 7.427-4.607m-7.4787 8.018c-0.0031 0.248-6e-3 0.495-0.0088 0.742m0.0088-0.742c-1.3748-0.301-2.7509-0.608-4.1286-0.921m4.1286 0.921c1.6067 0.352 3.2117 0.695 4.8147 1.029m-4.8235-0.287c-0.0654 5.794-0.0496 11.533 0.048 17.261m-0.048-17.261c-1.77-0.144-3.7467-0.34-5.961-0.594m5.961 0.594c1.8145 0.148 3.4115 0.241 4.8235 0.287m-4.7755 16.974c0.1041 6.102 0.3005 12.191 0.5915 18.32m-0.5915-18.32c-7.3982 0.797-14.833 1.346-22.29 1.663m22.29-1.663c5.0455-0.544 10.074-1.203 15.082-1.982 2.465-0.383 4.908-0.784 7.329-1.202m-21.82 21.504c0.35 7.387 0.836 14.833 1.46 22.431m-1.46-22.431c-7.9422-4.977-15.504-10.526-22.882-16.657m22.882 16.657c6.193 3.882 12.617 7.416 19.367 10.607m-17.907 11.824c0.014 0.169 0.028 0.337 0.041 0.506m-0.041-0.506c-0.283 0.171-0.566 0.34-0.85 0.509m0.85-0.509c6.069-3.649 12.08-7.639 17.907-11.824m-17.866 12.33c0.368 4.435 0.782 8.924 1.243 13.483m-1.243-13.483-0.891 3e-3m0.891-3e-3c9.587-0.046 19.212-0.502 28.804-1.341m-27.561 14.824c0.047 0.472 0.096 0.946 0.145 1.42m-0.145-1.42c-6.6183-1.152-13.206-2.528-19.756-4.114m19.756 4.114c0.693 0.121 1.387 0.239 2.081 0.355m-1.936 1.065c0.169 1.644 0.344 3.298 0.525 4.962m-0.525-4.962c-6.2863 3.434-12.652 6.701-19.095 9.759m19.095-9.759c0.646-0.354 1.291-0.709 1.936-1.065m-1.411 6.027c-6.5024 1.84-13.046 3.436-19.62 4.797m19.62-4.797c4.577-1.295 9.133-2.71 13.666-4.249m-5.34 61.811c7.791 1.631 15.636 2.996 23.52 4.108m374.34-143.3c5.094-13.859 9.712-27.197 13.721-39.708 9.119-28.463 17.384-57.477 24.475-86.862m-38.196 126.57c-1.223-0.506-2.445-1.016-3.664-1.529m41.86-125.04c4.271 24.308 4.232 50.99-0.923 80.15m24.215-218.36c1.785-19.877 2.844-39.793 3.083-59.697m-304.4-300.59c-41.929 15.074-81.974 35.103-120.7 57.411m0 0c-25.213 14.526-49.866 30.018-74.114 45.738-15.176 9.839-30.278 19.875-45.26 30.124m119.37-75.862c-13.016-1.3446-26.656-0.9949-41.949 1.4227-29.198 4.6156-54.582 18.927-76.888 37.449m-0.5365 36.99c-10.073 6.891-20.093 13.878-30.046 20.966m30.046-20.966c-0.0603-1.041-0.1123-2.068-0.1559-3.082-0.4855-11.271-0.2344-22.612 0.6924-33.908m-30.582 57.956c-11.96 8.518-23.823 17.183-35.566 26.002m35.566-26.002c-10.365 2.076-20.684 5.041-30.896 8.961m-4.6702 17.041c-2.3381 1.756-4.6715 3.518-6.9999 5.286m6.9999-5.286c-3.3354 1.112-6.6687 2.237-9.9988 3.375m2.9989 1.911c-2.9565 2.245-5.905 4.5-8.8452 6.766m8.8452-6.766c-1.8672 0.618-3.7296 1.248-5.5871 1.891m-3.2581 4.875c-3.8933 2.999-7.772 6.017-11.635 9.052m11.635-9.052c1.0788-1.631 2.1648-3.256 3.2581-4.875m-3.2581 4.875c-1.4043 2.123-2.7963 4.255-4.1756 6.397m-7.4597 2.655c-20.931 16.446-41.408 33.425-61.296 50.986-2.36 2.084-4.694 4.15-7.003 6.202m68.3-57.188c2.4745-0.923 4.9615-1.808 7.4597-2.655m-7.4597 2.655c-18.429 6.871-36.172 15.818-52.828 26.488m-15.472 30.7c-21.918 19.487-41.506 37.759-59.247 59.299m59.247-59.299c4.571-11.508 9.676-21.641 15.472-30.7m-74.719 89.999c-10.33 10.071-20.224 20.617-28.972 32.029m1.763 199.22 0.084 0.18m-0.084-0.18c6.365-5.689 12.856-11.221 19.422-16.595m-19.422 16.595-0.068 0.06m0.152 0.12c3.248 6.997 6.987 14.564 11.101 22.46m-11.101-22.46c-0.051-0.04-0.102-0.08-0.152-0.12m0.152 0.12c3.631 2.874 7.318 5.691 11.046 8.448m0.055 14.012c0.582 1.119 1.173 2.244 1.771 3.376m-1.771-3.376c-0.633-4.733-0.615-9.411-0.055-14.012m0.055 14.012c0.135 1.016 0.301 2.035 0.498 3.057m1.273 0.319c-0.426-0.102-0.85-0.209-1.273-0.319m28.002 46.794c5.858 9.394 11.894 18.588 17.934 27.228m-17.934-27.228c13.885 14.578 30.928 27.328 48.251 38.136m-30.317-10.908c8.429 12.056 16.867 23.033 24.844 31.97m-24.844-31.97c9.835 4.372 20.032 7.993 30.317 10.908m235.03 40.965c8.648-4.785 17.143-9.881 25.48-15.179m-25.48 15.179c4.074 0.679 8.16 1.273 12.255 1.778m13.225-16.957c2.04-1.297 4.071-2.606 6.092-3.925m-6.092 3.925c4.593-0.402 9.178-0.891 13.748-1.465m-7.656-2.46c6.182-4.036 12.274-8.171 18.274-12.359m-18.274 12.359c-5.921-2.134-11.582-4.487-17.03-7.064m17.03 7.064c0.28 0.1 0.56 0.2 0.84 0.3 2.281 0.81 4.553 1.529 6.816 2.16m10.618-14.819c14.443-10.082 28.35-20.473 41.684-30.539m-41.684 30.539c-5.316-3.046-10.458-6.469-15.39-10.301m57.074-20.238c2.386-1.801 4.754-3.592 7.103-5.368l1.731-1.31c11.639-8.802 23.688-18.222 35.931-28.173m-44.765 34.851c-11.662-0.219-22.947-0.77-34.009-1.676m78.774-33.175c2.581-2.098 5.17-4.22 7.767-6.364m-7.767 6.364c0.714-3.766 1.335-7.547 1.861-11.338m5.906 4.974c5.248-4.334 10.523-8.761 15.808-13.275m-15.808 13.275c-0.582-2.377-1.073-4.782-1.468-7.213m17.276-6.062c1.097-1.814 2.186-3.65 3.267-5.509m7.131-3.474c1.748-1.527 3.495-3.063 5.242-4.608m-5.242 4.608c-4e-3 -0.354-8e-3 -0.708-0.01-1.062m0.01 1.062c0.197 16.474 2.424 32.811 6.947 48.256m-1.705-52.864c16.3-14.414 32.539-29.585 48.229-45.314m-48.229 45.314c-1.742 1.206-3.494 2.388-5.252 3.546m5.252-3.546c17.838-12.349 34.743-27.264 48.625-45.054m-0.396-0.26c0.863-0.866 1.725-1.734 2.586-2.603m-2.586 2.603c0.132 0.086 0.264 0.173 0.396 0.26m2.19-2.863c3.221-3.255 6.418-6.533 9.586-9.833m-9.586 9.833c-0.721 0.963-1.451 1.917-2.19 2.863m2.19-2.863c3.588-4.79 6.957-9.783 10.067-14.984m-0.481 5.151c-0.674 6.061-1.735 12.158-3.215 18.29m3.215-18.29c0.191-1.72 0.351-3.437 0.481-5.151m42.358-43.273c1.028-1.274 2.049-2.55 3.064-3.827m-3.064 3.827c0.778 1.176 1.555 2.357 2.331 3.544m-2.331-3.544c-1.051-1.588-2.102-3.166-3.155-4.734-1.316-1.96-2.618-3.881-3.908-5.765m10.127 6.672c10.037-12.641 19.403-25.449 27.89-38.343m-27.89 38.343c-0.228 2.464-0.472 4.921-0.733 7.371m0.733-7.371c0.557-6.021 1.016-12.08 1.383-18.162m26.507-20.181c0.633-0.961 1.261-1.924 1.884-2.886m-1.884 2.886c1.235 0.522 2.469 1.083 3.703 1.686m-3.703-1.686c-1.835-0.774-3.67-1.46-5.505-2.06m7.389-0.826c4.499-6.951 8.74-13.924 12.688-20.906 1.232-2.179 2.462-4.383 3.681-6.61m-16.369 27.516c0.65 1.485 1.258 3.008 1.819 4.572m-1.819-4.572c-0.727-1.659-1.507-3.27-2.339-4.834m18.708-22.682c-5.369 7.076-11.707 14.731-18.708 22.682m34.224-55.006c2.291-5.78 4.307-11.64 5.936-17.554m-5.936 17.554c-5.333-3.382-10.818-6.625-16.442-9.729m16.442 9.729c1.282 0.813 2.554 1.634 3.818 2.462m2.118-20.016c0.338-1.227 0.659-2.457 0.963-3.689m-0.963 3.689c1.725 1.978 3.422 3.983 5.089 6.016m-5.089-6.016c-0.676-0.774-1.356-1.545-2.041-2.31m3.004-1.379c0.718-2.911 1.337-5.834 1.845-8.765m-1.845 8.765c1.695-0.768 3.422-1.537 5.18-2.306m-5.18 2.306c-1.013 0.46-2.014 0.919-3.004 1.379m4.849-10.144c1.123 2.151 2.235 4.305 3.335 6.459m-63.238-104.68c-2.093-2.929-4.175-5.79-6.241-8.577-1.257-1.694-2.524-3.384-3.802-5.067m-20.253 2.02c-1.113-4.111-2.296-8.3-3.544-12.556m-154.52 15.811c-15.431 3.549-29.911 7.566-43.692 12.101m43.692-12.101c8.346 7.64 16.268 15.729 23.697 24.191m-67.389-12.09c-9.947 3.273-19.53 6.816-28.844 10.648m28.844-10.648c6.91 4.631 13.629 9.507 20.132 14.622m-48.976-3.974c-24.317 10.005-46.803 21.982-69.151 36.275m69.151-36.275c7.6 2.431 15.003 5.153 22.215 8.154m-91.366 28.121c-12.336 7.889-24.631 16.485-37.168 25.844m37.168-25.844c0.4041 0.906 0.8094 1.802 1.216 2.688m-38.384 23.156c8.5247-5.973 17.641-11.724 27.786-17.45 3.4854-1.967 7.0195-3.869 10.599-5.706m-59.852 39.741c-0.93667 0.755-1.8707 1.513-2.802 2.275m2.802-2.275c0.08661 0.339 0.17136 0.679 0.25424 1.019m-0.25424-1.019c-0.00952-0.038-0.01907-0.075-0.02862-0.112m-2.7734 2.387c-0.53016 0.434-1.0595 0.869-1.5879 1.305m1.5879-1.305c-0.04062 0.017-0.08113 0.034-0.12172 0.051m0.12172-0.051c1.0122-0.422 2.0311-0.841 3.0563-1.256m-4.6441 2.561c-19.454 16.057-37.712 33.682-54.311 52.652-1.1594 1.325-2.4252 2.835-3.7771 4.507m58.088-57.159c0.48819-0.42 0.97687-0.838 1.4661-1.254m-1.4661 1.254c-10.831 9.312-21.418 19.462-32.949 30.983-8.4164 8.409-16.872 17.131-25.139 26.176m0 0c-9.4334 11.667-23.063 31.251-34.061 51.308m34.061-51.308c-16.186 17.709-31.647 36.652-44.664 56.897m10.604-5.589c-5.2023 9.487-9.8155 19.08-13.117 27.991m13.117-27.991c6.0744-3.094 12.422-6.153 19.11-9.241 23.323-10.767 48.608-20.701 74.784-28.591m-93.894 37.832c-3.6269 1.846-7.1566 3.705-10.604 5.589m-2.5133 22.402c-0.477 1.287-0.926 2.559-1.346 3.815m1.346-3.815c33.354-20.219 70.684-40.577 104.56-56.464m-104.56 56.464c-0.852 0.516-1.701 1.032-2.547 1.548m1.201 2.267c-2.172 6.496-3.554 12.548-3.844 17.828-0.171 3.101-0.099 6.165 0.193 9.185m3.651-27.013c-0.404-0.753-0.805-1.509-1.201-2.267m-2.45 29.28c-1.475-2.734-2.906-5.499-4.292-8.296-2.083-4.205-4.1-8.474-6.044-12.799m31.342 66.348c10.575 12.569 23.646 23.091 35.735 30.762 0.6835 0.434 1.3692 0.864 2.0569 1.292m-37.792-32.054c2.0299-1.532 4.0321-3.097 6.0063-4.694m31.785 36.748c6.3582 3.948 12.892 7.612 19.558 11.038m-19.558-11.038c0.4273-0.994 0.8665-1.984 1.3175-2.969m-1.3175 2.969c-4.9384 11.483-8.2709 23.491-9.4171 35.946-0.7141 7.76-0.47 15.315 0.6033 22.64m28.372-47.548c18.418 9.466 37.846 17.112 57.37 23.903 3.8924 1.354 7.7409 2.659 11.551 3.918m-68.921-27.821c-6.301-4.39-12.386-9.065-18.241-14.007m18.241 14.007c15.431 10.753 32.161 19.804 50.005 26.937 8.4679 3.385 17.129 6.401 25.929 8.884m-7.0132-8c18.76 6.197 36.59 11.25 54.16 15.251m-54.16-15.251c-9.6138-11.395-18.328-23.585-25.791-36.46m25.791 36.46c2.2884 2.712 4.6276 5.379 7.0132 8m47.147 7.251c-0.6126 0.358-1.2262 0.715-1.8412 1.069m10.784 0.881c2.88 0.599 5.755 1.171 8.629 1.715m-8.629-1.715c3.314 0.106 5.613-0.05 7.32-0.388m1.309 2.103c12.929 2.447 25.836 4.334 38.993 5.699m-38.993-5.699c-0.445-0.696-0.882-1.397-1.309-2.103m1.309 2.103c2.704 4.226 5.731 8.265 9.007 12.075m29.986-6.376c3.494 0.362 7.005 0.687 10.54 0.977m-10.54-0.977c-9.566 2.456-19.566 4.576-29.986 6.376m29.986-6.376c5.324-1.367 10.514-2.838 15.566-4.415m-5.026 5.392c-2.068 2.175-4.142 4.305-6.216 6.387-5.021 5.04-10.705 10.296-16.849 15.527m23.065-21.914c1.68-1.768 3.357-3.566 5.026-5.392m55.303 7.021c2.222-0.047 4.459-0.104 6.714-0.171 0.832-0.025 1.66-0.051 2.486-0.078m-9.2 0.249c-15.058 15.034-31.808 27.833-50.88 38.913m50.88-38.913c4.761-4.753 9.352-9.73 13.795-14.946m-4.595 14.697c12.393-0.415 24.088-1.154 35.321-2.29m-35.321 2.29c-3.28 9.461-7.125 18.74-11.483 27.77m11.483-27.77c1.682-4.855 3.216-9.757 4.595-14.697m30.726 12.407c1.024-0.103 2.044-0.21 3.061-0.32m-3.061 0.32c-6.864-9.57-12.469-20.008-16.148-31.118m16.148 31.118c0.378 0.528 0.76 1.052 1.146 1.575m1.915-1.895c5.16-0.56 10.225-1.205 15.22-1.944m-15.22 1.944c-0.64 0.637-1.278 1.269-1.915 1.895m1.915-1.895c3.917-3.908 7.869-8.034 11.783-12.311m3.437 10.367c0.452-0.067 0.903-0.135 1.353-0.203m-1.353 0.203c-1.266-3.404-2.411-6.863-3.437-10.367m3.437 10.367c0.066 0.177 0.132 0.355 0.199 0.532m1.154-0.735c-0.384 0.246-0.769 0.491-1.154 0.735m41.407-9.322c-9.434 11.13-19.975 21.422-31.348 30.551m31.348-30.551c10.154-11.978 19.026-24.927 26.275-38.44 3.606-6.722 6.894-13.787 9.885-21.144m59.558 17.277c5.654-3.709 11.205-7.662 16.584-11.854m37.112-37.223c-1.235 11.232-4.218 22.356-9.071 32.919-5.001 10.883-10.959 21.041-17.732 30.477m53.416-153.12c-0.843-8.353-2.496-16.643-4.845-24.812m4.845 24.812c-2.222-8.603-4.597-16.775-7.05-24.358-1.118-3.456-2.311-6.965-3.574-10.52m5.779 10.066c-3.038-10.564-7.242-20.926-12.369-30.956m12.369 30.956c-1.779-3.412-3.704-6.77-5.779-10.066m-6.59-20.89c-1.87-3.66-3.863-7.275-5.967-10.84m5.967 10.84c-0.743-0.684-1.492-1.364-2.245-2.04m-3.722-8.8c1.275 2.95 2.517 5.885 3.722 8.8m-24.328-38.137c-2.29 4.813-4.719 9.506-7.207 14m7.207-14c1.165-2.448 2.294-4.927 3.376-7.427m-10.506-0.899c-0.597 0.277-1.19 0.554-1.779 0.831-6.213 2.926-12.408 6.028-18.558 9.304m-199.38-102.68c-15.784-0.177-31.598 0.676-47.257 2.532m0 0c-8.983 1.065-17.915 2.46-26.761 4.18m0 0c-31.702 6.166-62.293 16.511-90.15 30.809m-59.881 39.629c-0.96793 0.806-1.9327 1.619-2.8951 2.438m-104.22 115.31c-3.2583 5.067-6.3633 10.215-9.2883 15.446m9.2883-15.446c-3.8283 2.092-7.5553 4.215-11.2 6.386m1.912 9.06c-2.991 5.348-5.793 10.783-8.379 16.305m8.379-16.305c-1.115-2.363-2.19-4.745-3.223-7.146m3.223 7.146c1.351 2.864 2.761 5.699 4.228 8.504m-12.607 7.801c-0.06 0.128-0.12 0.256-0.179 0.384m0.179-0.384c4.122-2.59 8.33-5.193 12.607-7.801m-12.607 7.801c-0.091 0.057-0.183 0.115-0.275 0.172m0.096 0.212c-2.67 5.729-5.107 11.551-7.277 17.469-6.79 18.513-11.066 47.856-5.263 67.829 0.586 2.016 1.26 4 2.016 5.953m10.524-91.251c-0.032-0.071-0.064-0.141-0.096-0.212m-5.012 102.72c-3.085-3.16-6.112-6.374-9.073-9.642m60.906 60.59c5.0484 3.541 10.029 6.879 14.774 10.028m-14.774-10.028c4.5171 1.306 9.0613 2.562 13.629 3.761m1.1454 6.267c0.2398 0.159 0.479 0.318 0.7176 0.476 16.41 10.879 30.475 19.731 45.742 26.906m-46.46-27.382c-0.4484-2.069-0.8312-4.158-1.1454-6.267m47.605 33.649c11.498 5.404 23.679 9.856 38.058 13.506m-38.058-13.506c2.1852-0.383 4.3662-0.791 6.5424-1.223m31.515 14.729c0.7168 0.182 1.4389 0.361 2.1668 0.539 22.007 5.381 45.357 7.831 68.958 7.782m-71.125-8.321c-10.678-4.457-21.194-9.392-31.515-14.729m31.515 14.729c17.451 7.283 35.333 13.289 53.503 17.687m17.622-9.366c-5.8614 3.49-11.773 6.656-17.622 9.366m83.573-15.701c2.835-0.533 5.657-1.097 8.466-1.691m-8.466 1.691c-3.694 2.041-7.473 4.023-11.342 5.947m11.342-5.947c1.764-0.975 3.509-1.963 5.234-2.966m3.232 1.275c15.023-3.18 29.658-7.238 43.599-12.051 0.589-0.204 1.178-0.409 1.766-0.616m-45.365 12.667c-1.082-0.413-2.159-0.838-3.232-1.275m3.232 1.275c5.971 2.276 12.086 4.183 18.303 5.757m27.062-18.424c10.287-3.622 20.413-7.803 30.317-12.499m-30.317 12.499c-1.728 3.58-3.536 7.12-5.423 10.616m35.74-23.115c7.256-3.439 14.392-7.156 21.386-11.132m-21.386 11.132c-0.971 0.801-1.93 1.576-2.877 2.327-10.494 8.313-21.467 15.428-32.863 20.788m35.74-23.115c5.589-4.605 11.556-10.018 17.633-15.986m3.753 4.854c4.591-2.61 9.12-5.332 13.581-8.161m-13.581 8.161c-1.285-1.591-2.538-3.21-3.753-4.854m94.901-72.213c3.2-3.962 6.316-7.993 9.359-12.079m-9.359 12.079c1.921-4.726 3.719-9.572 5.4-14.527m3.959 2.448c4.87-6.539 9.551-13.217 14.079-19.971 6.53-9.741 13.659-20.499 19.818-31.948m-33.897 51.919c-1.32-0.814-2.64-1.629-3.959-2.448m37.856-49.471c12.432-23.109 20.916-49.034 12.556-75.097-0.262-0.817-0.537-1.624-0.823-2.42m-11.733 77.517c-6.629-11.556-13.573-22.753-20.593-33.489m28.168-53.434c-6.065-11.408-14.833-20.333-25.073-27.471m25.073 27.471c-1.648 1.871-3.333 3.759-5.05 5.66m-20.023-33.131c0.217 9.891 0.238 19.841 0.039 29.784m-0.039-29.784c-0.078-3.558-0.181-7.109-0.309-10.649m-7.664 5.599c-7.702-4.44-15.986-8.076-24.416-11.153m24.416 11.153c-6.511 4.889-12.858 10.001-19.002 15.334m-5.414-26.487c2.419 9.125 4.207 17.952 5.414 26.487m-5.414-26.487c-1.493-5.635-3.228-11.383-5.215-17.247m-58.848 1.243c-1.516-0.233-3.033-0.456-4.55-0.669m4.55 0.669c0.5 1.622 0.987 3.251 1.462 4.886m-6.012-5.555c-1.556-0.219-3.112-0.427-4.668-0.625m4.668 0.625c2.025 1.85 4.029 3.703 6.012 5.555m-6.012-5.555c-4.497-4.11-9.095-8.203-13.794-12.231m9.126 11.606c-5.209-0.662-10.42-1.209-15.631-1.645m15.631 1.645c4.79 6.343 9.416 12.879 13.882 19.596 0.208 0.313 0.416 0.626 0.623 0.94m-14.505-20.536c-2.978-3.944-6.02-7.814-9.126-11.606m-6.505 9.961c11.014 23.601 18.697 49.287 22.334 76.91 2.128 16.162 2.974 31.302 2.588 45.463m-24.922-122.37c-4.331-9.279-9.177-18.236-14.494-26.861m-129.91 40.118c5.118 5.658 10.387 11.185 15.776 16.592m-85.489 5.109c-4.7555 1.765-9.4922 3.577-14.209 5.434-10.206 4.019-21.119 8.74-32.454 13.987m46.663-19.421c-13.981 2.606-27.895 5.963-41.589 9.899m-5.0733 9.522c-1.1811 0.547-2.3668 1.099-3.5567 1.657m3.5567-1.657c1.412-2.876 3.126-6.083 5.0733-9.522m-8.63 11.179c0.85631-3.034 1.6777-6.16 2.4487-9.359m-176.86 112.4c-9.279 6.863-18.547 14.029-27.671 21.499m0 0c-4.214 8.024-7.229 16.484-8.292 25.223m-11.198-8.568c-4.689 4.192-9.31 8.468-13.843 12.83m0 0c7.631 5.884 16.21 10.353 25.594 12.807m-33.894-4.622c-4.337 4.387-8.577 8.856-12.701 13.406m12.701-13.406c-3.044-7.669-5.502-15.653-7.435-23.847m449.13 152.97c1.732-2.568 3.421-5.169 5.066-7.8m-5.066 7.8c4.648-0.975 9.294-2.093 13.937-3.358m-8.871-4.442c0.768-1.229 1.526-2.465 2.274-3.707m-2.274 3.707c2.961 1.56 5.919 3.041 8.871 4.442m-8.871-4.442c-3.885-2.047-7.777-4.232-11.674-6.559m13.948 2.852c2.179-3.617 4.275-7.289 6.282-11.011m-6.282 11.011c-4.692-0.781-9.347-1.727-13.948-2.852m13.948 2.852c7.981 1.329 16.072 2.182 24.19 2.635m-17.908-13.646c-7.056 3.319-14.273 5.966-21.639 7.808m43.14-60.891c5.042-5.92 9.891-12.149 14.578-18.711m-8.067-12.485c0.073-0.528 0.144-1.055 0.213-1.583m-0.213 1.583c-1.231 0.609-2.459 1.207-3.684 1.794m3.684-1.794c1.476-0.731 2.956-1.477 4.438-2.239m-4.225 0.656c1.681-12.776 2.273-25.666 1.666-38.517m-1.666 38.517c-1.275 1.144-2.575 2.269-3.897 3.377m3.897-3.377c1.292-1.158 2.56-2.335 3.804-3.531m-2.138-34.986c-0.771-16.317-3.476-32.574-8.344-48.46-2.279-7.435-4.745-14.1-7.615-20.267m15.959 68.727c-7.356 3.795-14.811 7.387-22.355 10.756-3.075 1.373-6.107 2.696-9.102 3.969m31.457-14.725c1.685-0.869 3.365-1.749 5.04-2.639m-20.999-66.088c-2.426-5.214-5.14-10.071-8.271-14.737m8.271 14.737c2.927 15.535 2.707 31.761 0.922 39.683-3.356 14.896-9.092 29.602-16.42 43.769m15.498-83.452c-1.514-8.036-3.871-15.887-7.289-22.308m-0.982 7.571c-4.887-7.283-10.79-14.097-18.2-21.069-0.595-0.56-1.192-1.108-1.792-1.644m19.992 22.713c-4.903 29.193-22.309 58.367-37.363 78.701-11.404 15.405-22.671 28.392-34.989 40.016m72.352-118.72c0.424-2.525 0.755-5.051 0.982-7.571m-20.974-15.142c9.431 0.064 16.226 6.224 20.974 15.142m-229.68 54.286c-9.4022 9.89-18.183 20.534-25.648 31.835m25.648-31.835c4.5232 20.963 12.655 40.841 23.361 59.31m-49.008-27.475c-4.6999 7.116-8.8782 14.493-12.362 22.107m12.362-22.107c-10.542-7.746-20.448-16.384-29.592-25.779m29.592 25.779c15.148 11.132 31.608 20.424 49.008 27.475m-61.37-5.368c-12.042-10.166-23.113-21.469-33.103-33.779m22.972 95.334c0.0114 0.077 0.0229 0.155 0.0344 0.232m-0.0344-0.232c0.1748 0.12 0.3499 0.241 0.5249 0.361m-0.4905-0.129c0.1635 0.043 0.3269 0.086 0.4905 0.129m12.962 37.473c8.2775 14.37 19.548 27.332 32.342 38.592m0 0c3.7079 3.263 7.5438 6.384 11.472 9.354m404.39 9.338c24.004-11.896 46.145-27.402 65.666-48.802 14.344-15.725 26.906-34.023 34.791-53.901m0 0c1.466-3.698 2.771-7.449 3.895-11.249 9.175-31.015 9.399-69.522 4.92-106.77m-8.815 118.02c-6.833-2.879-13.613-5.882-20.336-8.99-2.549-1.179-5.083-2.364-7.602-3.555m36.753-105.48c-2.727 36.172-15.864 72.977-36.753 105.48m14.485-201.95c-2.652-7.463-5.613-15.13-8.835-22.93m-20.952-45.564c-0.768-1.528-1.542-3.056-2.322-4.584m-106.16-157.6c-11.571-12.521-23.795-24.482-36.636-35.707m36.636 35.707c3.315 9.816 6.357 19.434 9.085 28.734m-333.05-110.82c-16.589 13.774-31.475 29.877-44.961 46.052-5.6476 6.773-11.156 13.738-16.517 20.865m0 0c-5.0195 6.671-9.911 13.485-14.669 20.416m14.669-20.416c-5.5387 2.126-11.046 4.533-16.513 7.232-18.605 9.186-33.906 19.054-46.691 31.084m48.535-17.9c-0.8671 1.263-1.7299 2.531-2.5882 3.802m2.5882-3.802c-16.308 5.575-32.536 11.477-48.535 17.9m45.947-14.098c-18.927 6.546-37.339 14.365-55.083 23.556m18.806 37.152c-20.021 6.889-36.417 14.681-52.005 24.735m25.192 176.54c0.127 0.299 0.255 0.598 0.384 0.897m-0.384-0.897c0.563-0.34 1.128-0.679 1.695-1.017m-1.695 1.017c-4.128 2.494-8.154 5.055-12.108 7.709m12.492-6.812c0.438-0.64 0.875-1.278 1.311-1.914m46.575 73.296c-5.0674 4.938-10.36 9.648-15.872 14.107m94.473 39.147c16.284 6.599 33.391 11.235 51.015 13.582 11.599 1.545 22.519 2.459 32.997 2.746m48.977-3.636c21.159-3.862 42.042-10.715 65.125-20.528m-65.125 20.528c-12.354 11.658-25.764 21.944-41.43 31.922m106.56-52.45c-8.914 17.234-20.183 33.67-32.386 48.681m68.883-66.045c9.853-5.238 19.525-10.837 28.998-16.747m-28.998 16.747c4.947-18.585 14.332-36.675 24.422-51.468 1.42-2.081 2.908-4.202 4.462-6.351m-28.884 57.819c-2.151 8.079-3.463 16.252-3.63 24.288-0.094 4.519 0.16 8.968 0.728 13.337m31.9-54.372c1.426-0.89 2.848-1.787 4.265-2.691m-4.265 2.691c2.271-11.873 5.517-23.468 9.632-34.485m-9.632 34.485c-0.822 4.294-1.516 8.625-2.078 12.978m6.343-15.669c3.706-2.363 7.381-4.774 11.023-7.229m-11.023 7.229c-1.853 5.43-3.969 10.651-6.343 15.669m6.343-15.669c3.248-9.518 5.686-19.675 7.286-30.497m3.737 23.268c4.014-2.706 7.989-5.465 11.923-8.274 1.044-0.746 2.106-1.515 3.185-2.308m-15.108 10.582c-5.149 14.659-11.675 28.904-18.983 42.606m18.983-42.606c1.988-5.66 3.771-11.381 5.315-17.157m9.793 6.575c-3.252-2.175-6.516-4.367-9.793-6.575m41.809-19.392c5.123-4.469 10.346-9.154 15.593-13.984m-15.593 13.984c0.458 6.999 0.444 14.055-0.093 21.162m0.093-21.162c-1.077-16.452-4.759-32.594-10.369-48.372m25.962 34.388c-3.883 12.647-9.227 24.345-15.686 35.146m15.686-35.146c3.522-11.47 5.841-23.721 6.699-36.79m12.91 18.164c3.884-3.805 7.731-7.645 11.51-11.49m0 0c7.333-7.462 14.409-14.945 21.002-22.241m-21.002 22.241c0.513-8.497 0.847-17.04 1.018-25.588m19.984 3.347c-6.681-2.188-13.359-3.247-19.984-3.347m82.003-150.61c19.228 13.787 37.406 29.001 55.196 46.111m-465.59-160.56c13.95 1.554 27.772 4.494 41.319 8.654m-69.506-1.26c-0.4265-2.907-0.8123-5.766-1.155-8.568m-125.74 50.92c-3.1985 3.01-6.2398 6.155-9.1358 9.458m-148.79 307.5c0.937 9.44 2.434 18.766 4.574 27.835m192.1 85.182c35.277 9.233 71.955 15.161 108.45 15.983m-108.45-15.983c17.126 11.776 35.076 22.689 53.657 32.297m54.79-16.314c8.1344 0.183 16.26 0.112 24.358-0.233m-24.358 0.233c-17.724 7.106-36.082 12.601-54.79 16.314m54.79-16.314c5.5332-2.219 11.005-4.595 16.406-7.122m7.9519 6.889c-2.6716-2.22-5.3191-4.516-7.9519-6.889m52.654 2.042c3.12 3.629 6.466 7.051 9.975 10.231 2.436 2.207 4.933 4.3 7.486 6.284m28.091-27.306c28.532-8.907 52.676-21.204 71.925-37.327m-71.925 37.327c4.627-5.062 9.198-10.344 13.645-15.815m58.28-21.512c-21.525 10.317-42.133 17.314-58.28 21.512m65.981-28.42c12.372-11.89 22.369-25.64 29.822-41.394m-29.822 41.394c0.125 0.963 0.266 1.921 0.421 2.875m29.401-44.269c-0.843 6.536-1.388 13.121-1.617 19.708m15.246-65.874c0.433-2.932 0.805-5.912 1.115-8.942m-1.115 8.942c-0.64-0.432-1.28-0.864-1.919-1.297m1.919 1.297c0.997 0.674 1.995 1.348 2.992 2.022 2.025 1.369 4.045 2.732 6.06 4.089m-7.937-15.053c0.549-5.372 0.902-10.899 1.058-16.584m-1.058 16.584c0.909-2.161 1.853-4.295 2.83-6.401 3.579-7.713 7.599-15.193 12.01-22.437m-14.84 28.838c-1.059 2.514-2.07 5.064-3.034 7.645m4.092-24.229c4.358-5.126 9.017-10.228 13.933-15.155m-13.933 15.155c-5.038 5.925-9.673 11.883-13.838 17.642m-25.578-166.88c7.212 5.399 14.211 11.082 20.999 16.9m-33.532-35.46c-2.584-3.507-5.249-6.95-7.993-10.33m7.993 10.33c-4.013-3.653-8.113-7.193-12.302-10.615m4.309 0.285c-1.436-0.1-2.873-0.195-4.309-0.285m4.309 0.285c12.32 0.857 24.642 2.084 36.891 3.691m-232.26-113.62c-1.3566-6.489-2.5648-12.888-3.6041-19.116m-149.92 60.723c-20.997 13.451-40.265 29.641-56.998 47.86-17.197 18.724-33.587 45.981-46.693 74.168m103.69-122.03c3.886-6.072 8.082-11.662 12.638-16.859m172.74 429.37c8.2521-3.861 16.34-8.077 24.233-12.629m-24.233 12.629c-3.0475-2.747-6.0755-5.596-9.0984-8.55-4.0999-4.006-8.098-8.141-11.974-12.399m45.306 8.32c-5.7732-0.66-13.16-1.713-22.703-3.264-7.6128-1.237-15.158-2.955-22.603-5.056m58.754 0.154c1.394 2.957 2.953 5.847 4.656 8.659m110.11-166.87c0.276-3.06 0.4-6.113 0.355-9.147m0 0c18.589 13.715 37.678 26.772 56.817 39.724m-266.79-95.158c-2.0656 0.594-4.1262 1.2-6.1813 1.82m6.1813-1.82c12.799-22.606 35.674-55.27 49.091-70.363 5.9662-6.712 12.342-13.145 19.218-18.944m-74.49 91.127c5.5807-23.154 8.5166-50.093 2.898-73.196m110.66 349.12c6.971-5.005 13.679-10.288 19.914-15.596m41.736-43.121c-8.531 2.218-15.817 3.655-21.335 4.388-47.644-1.447-38.584 6.146-48.178 8.04m205.09 54.078c0.463-0.116 0.925-0.232 1.387-0.35m-1.387 0.35c6.278 6.079 13.329 11.585 21.195 16.4 5.386 3.297 10.96 6.381 16.689 9.238m93.711-108.82c0.507-0.686 1.009-1.375 1.507-2.069m-1.507 2.069c2.93 11.359 5.109 22.791 6.371 34.225 0.282 2.556 0.482 5.222 0.586 7.961m-6.957-42.186c-0.283-1.098-0.573-2.196-0.87-3.293m2.377 1.224c-0.794-0.407-1.586-0.815-2.377-1.224m2.377 1.224c9.253 4.75 18.673 9.401 28.307 13.957m-114.06-190.18c-3.057 0.993-6.088 2.155-9.088 3.467m9.088-3.467c0.099 5.092-0.018 10.068-0.338 14.931m0.338-14.931c-0.146-7.57-0.77-15.396-1.914-23.483m-7.174 26.95c-8.249 3.61-16.257 8.359-23.911 13.866m23.911-13.866c2.916 3.702 5.823 7.51 8.75 11.464m-8.75-11.464c-3.104-3.942-6.22-7.764-9.384-11.516m-34.487 42.036c-1.497 1.421-2.973 2.862-4.426 4.318m4.426-4.318c5.345-8.112 11.182-15.912 17.438-23.398m-17.438 23.398c-1.569 2.38-3.095 4.786-4.577 7.219m0.151-2.901c-0.044 0.969-0.095 1.936-0.151 2.901m0.151-2.901c1.289-27.824-1.933-57.057-8.719-85.037m-19.052 117.83c3.248 2.198 6.497 4.393 9.746 6.587m-41.111 91.732c6.837-3.515 13.722-7.367 20.543-11.571m21.32 81.897c2.179-1.621 4.331-3.284 6.453-4.987m70.836 48.242c22.704 7.222 50.448 11.18 68.942-4.658 15.924-13.637 20.395-37.733 19.631-57.868m-88.573 62.526c34.144-12.856 64.409-35.07 88.573-62.526m0 0c8.384-9.526 16.034-19.682 22.857-30.298m-92.095-143.04c-3.123 29.311-8.646 57.553-17.263 82.96m-23.175-138.15c5.321-5.334 10.851-10.479 16.558-15.434m-68.015-37.605c1.378 4.739 2.655 9.528 3.825 14.356m-96.119-79.314c8.861 0.175 17.755 0.54 26.654 1.097m-143.69 8.034c-1.4826 1.154-2.9425 2.339-4.3806 3.552m4.3806-3.552c-1.9433 0.36-3.8771 0.731-5.8008 1.113m1.4202 2.439c-0.4772-0.811-0.9506-1.624-1.4202-2.439m76.336 381.43c13.073 2.031 25.799 1.199 38.111-1.881m0 0c0.469 0.119 0.939 0.236 1.409 0.351m87.301-61.466c19.447-21.252 37.977-46.241 46.88-66.77 3.72-8.578 6.559-17.099 8.601-25.554m0 0c-2.849-1.853-5.702-3.717-8.561-5.594m-0.541-94.125c-7.741-19.734-18.385-38.878-30.583-57.321m-434.61-101.22c-3.081 9.819-5.411 19.816-7.053 29.926m152.54 22.598c21.004-8.494 44.709-15.325 70.172-20.37m136.4 390.9c5.872-1.599 11.738-3.434 17.593-5.514m-199.17-523.29c16.194-2.565 32.585-4.395 49.095-5.543 6.4998-0.451 12.883-0.834 19.163-1.143m197.53 345.49c1.477-5.527 2.735-11.105 3.744-16.726 1.583-8.821 2.624-17.909 3.159-27.165m-31.201 103.65c-2.037 3.82-4.135 7.598-6.281 11.33-0.32 0.556-0.639 1.109-0.96 1.66" opacity=".5" stroke="#DD3C3C" stroke-linecap="round" stroke-width="2"/>
</g>
<defs>
<clipPath id="a">
<rect transform="translate(.81641 .19775)" width="437" height="884" fill="#fff"/>
</clipPath>
</defs>
</svg>
