<svg fill="none" viewBox="0 0 351 251" xmlns="http://www.w3.org/2000/svg">
<path d="m142.88 185.92v0.049m117.85 33.517c1.017-0.011 2.09 1e-3 3.166 0.029 5.613 0.144 9.011-3.378 8.884-8.991-0.026-1.128-0.015-2.235 0.054-3.244 0.223-3.253 1.196-5.649 1.196-8.262 0-3.326-0.25-6.667-0.623-9.953-0.156-1.377-0.573-2.659-0.573-4.041 0-1.695 0.137-3.381 0.184-5.075 0.062-2.211-0.092-4.429-0.092-6.637 0-2.303-0.066-6.969-0.086-8.355-4e-3 -0.265 0-0.523 0.014-0.788 0.021-0.421 0.057-1.154 0.102-2.062 0.295-5.974-3.891-9.956-9.869-9.778-0.812 0.024-1.607 0.034-2.357 0.025-3.29-0.042-5.595-0.722-8.424-0.856-2.023-0.095-4.049-0.191-6.08-0.252-5.498-0.168-11.059-0.098-16.572-0.098-7.017 0-14.064 0.253-20.997 0.629-2.904 0.157-5.609 0.577-8.525 0.577-3.575 0-7.132-0.138-10.705-0.186-4.666-0.062-9.344 0.093-14.002 0.093-5.745 0-11.377-0.379-17.111-0.459-5.377-0.075-14.513-0.059-14.979-0.058h-0.042v0c-6.137-0.02-12.423 6.361-12.1 12.49 6e-3 0.118 0.012 0.227 0.018 0.326 0.167 2.606-0.014 5.649-0.014 8.262 0 3.326-0.251 6.667-0.623 9.954-0.157 1.376-0.573 2.658-0.573 4.04 0 1.695 0.137 3.381 0.184 5.075 0.061 2.212-0.092 4.429-0.092 6.637 0 2.723 0.921 5.312 1.118 8.752 0.016 0.265 0.028 0.536 0.037 0.811 0.208 6.299 5.678 11.653 11.975 11.399v0c0.439-0.018 0.31 0.016 0.748 0.051 1.559 0.126 5.53 0.416 7.769 0.31 2.023-0.095 4.049-0.191 6.08-0.252 5.498-0.168 11.058-0.098 16.572-0.098 7.016 0 14.063 0.252 20.997 0.628 2.904 0.158 5.609 0.578 8.524 0.578 3.576 0 7.133-0.138 10.706-0.186 4.666-0.062 9.344 0.093 14.002 0.093 5.745 0 11.376-0.379 17.111-0.459 5.518-0.077 9.482-0.607 14.998-0.669z" stroke="#111010" stroke-linecap="round" stroke-width="2"/>
<path d="m314.92 118.85h-0.049m-33.517 117.85c0.011 1.017-1e-3 2.091-0.029 3.167-0.143 5.613 3.378 9.011 8.991 8.884 1.128-0.026 2.235-0.015 3.244 0.054 3.253 0.223 5.649 1.196 8.262 1.196 3.326 0 6.667-0.251 9.953-0.624 1.377-0.156 2.659-0.572 4.041-0.572 1.695 0 3.381 0.137 5.075 0.184 2.212 0.061 4.429-0.092 6.637-0.092 2.303 0 6.969-0.066 8.355-0.086 0.265-4e-3 0.523 0 0.788 0.013 0.421 0.021 1.154 0.058 2.062 0.103 5.974 0.294 9.956-3.892 9.778-9.87-0.024-0.811-0.034-1.606-0.025-2.357 0.042-3.289 0.723-5.594 0.856-8.424 0.095-2.022 0.191-4.049 0.253-6.079 0.167-5.499 0.097-11.059 0.097-16.572 0-7.017-0.252-14.064-0.628-20.998-0.158-2.904-0.578-5.609-0.578-8.524 0-3.575 0.138-7.133 0.186-10.705 0.062-4.666-0.093-9.344-0.093-14.003 0-5.744 0.379-11.376 0.459-17.111 0.075-5.376 0.059-14.512 0.059-14.979v-0.041 0c0.019-6.137-6.362-12.424-12.491-12.101-0.118 7e-3 -0.227 0.013-0.326 0.019-2.606 0.166-5.649-0.014-8.262-0.014-3.326 0-6.667-0.251-9.953-0.624-1.377-0.156-2.659-0.572-4.041-0.572-1.695 0-3.381 0.137-5.075 0.184-2.211 0.061-4.429-0.092-6.637-0.092-2.723 0-5.312 0.921-8.752 1.118-0.265 0.015-0.536 0.027-0.811 0.036-6.299 0.209-11.653 5.678-11.399 11.976v0c0.018 0.439-0.016 0.31-0.051 0.747-0.126 1.56-0.416 5.53-0.31 7.77 0.095 2.023 0.191 4.049 0.253 6.079 0.167 5.499 0.098 11.059 0.098 16.573 0 7.016-0.253 14.063-0.629 20.997-0.158 2.904-0.578 5.609-0.578 8.524 0 3.575 0.138 7.133 0.186 10.705 0.062 4.666-0.093 9.344-0.093 14.003 0 5.745 0.379 11.376 0.459 17.111 0.077 5.518 0.608 9.482 0.669 14.997z" stroke="#111010" stroke-linecap="round" stroke-width="2"/>
<path d="m239.24 13.88h-0.049m-33.518 117.85c0.012 1.017-1e-3 2.09-0.028 3.166-0.144 5.613 3.378 9.011 8.991 8.884 1.128-0.026 2.235-0.015 3.243 0.054 3.254 0.223 5.649 1.196 8.263 1.196 3.326 0 6.666-0.25 9.953-0.623 1.377-0.156 2.659-0.573 4.041-0.573 1.695 0 3.381 0.137 5.074 0.184 2.212 0.062 4.43-0.092 6.638-0.092 2.302 0 6.969-0.066 8.355-0.086 0.265-4e-3 0.523 0 0.787 0.014 0.421 0.021 1.155 0.057 2.063 0.102 5.973 0.295 9.955-3.891 9.778-9.869-0.024-0.812-0.035-1.607-0.025-2.357 0.041-3.29 0.722-5.595 0.856-8.424 0.095-2.023 0.19-4.049 0.252-6.08 0.168-5.498 0.098-11.059 0.098-16.572 0-7.0167-0.253-14.064-0.629-20.997-0.157-2.904-0.577-5.6089-0.577-8.5242 0-3.5756 0.138-7.1327 0.185-10.706 0.062-4.6659-0.092-9.3439-0.092-14.002 0-5.7448 0.378-11.376 0.458-17.111 0.075-5.3764 0.06-14.512 0.059-14.979v-0.0411 0c0.019-6.1371-6.361-12.424-12.49-12.101-0.118 0.00624-0.227 0.01251-0.326 0.01879-2.606 0.16609-5.649-0.01419-8.263-0.01419-3.326 0-6.666-0.25082-9.953-0.62369-1.376-0.15618-2.659-0.57257-4.04-0.57257-1.695 0-3.381 0.13704-5.075 0.18404-2.212 0.06138-4.429-0.09202-6.638-0.09202-2.723 0-5.311 0.92094-8.752 1.1184-0.264 0.01519-0.535 0.02719-0.81 0.03629-6.299 0.20827-11.653 5.6779-11.399 11.975v0c0.017 0.4388-0.016 0.3096-0.051 0.7474-0.126 1.5593-0.416 5.5301-0.31 7.7693 0.095 2.0229 0.19 4.0489 0.252 6.0798 0.168 5.4982 0.098 11.059 0.098 16.572 0 7.0165-0.253 14.064-0.629 20.997-0.157 2.904-0.577 5.609-0.577 8.5242 0 3.5756 0.138 7.1327 0.185 10.706 0.062 4.666-0.092 9.3439-0.092 14.002 0 5.745 0.379 11.376 0.458 17.111 0.077 5.518 0.608 9.482 0.669 14.998z" stroke="#111010" stroke-linecap="round" stroke-width="2"/>
<path d="m264.99 138.02c-0.546 0-1.063-9e-3 -1.597 0.144-0.806 0.229-1.548 0.072-2.353 0.048-2.055-0.064-4.089-0.214-6.145-0.293-2.135-0.083-4.233-0.474-6.373-0.474-1.735 0-3.477 0.16-5.215 0.096-1.33-0.049-2.655-0.191-3.987-0.191-1.086 0-2.093 0.433-3.175 0.595-2.582 0.389-5.207 0.65-7.82 0.65-2.054 0-4.125 0.071-6.172-0.102-0.757-0.063-1.511-0.162-2.265-0.26-1.054-0.138-2.115-0.111-3.165-0.234-0.221-0.026-0.82 0.069-1.065 0.139-0.414 0.118-3.105 0.235-3.416 0.095" stroke="#CF1A1A" stroke-linecap="round" stroke-width="3"/>
<path d="m264.99 156.67c-0.546 0-1.063-8e-3 -1.597 0.144-0.806 0.229-1.548 0.073-2.353 0.048-2.055-0.063-4.089-0.213-6.145-0.293-2.135-0.082-4.233-0.473-6.373-0.473-1.735 0-3.477 0.159-5.215 0.096-1.33-0.049-2.655-0.192-3.987-0.192-1.086 0-2.093 0.433-3.175 0.596-2.582 0.388-5.207 0.649-7.82 0.649-2.054 0-4.125 0.072-6.172-0.101-0.757-0.064-1.511-0.162-2.265-0.261-1.054-0.138-2.115-0.11-3.165-0.234-0.221-0.026-0.82 0.069-1.065 0.139-0.414 0.118-3.105 0.236-3.416 0.095" stroke="#CF1A1A" stroke-linecap="round" stroke-width="3"/>
<path d="m267.38 160c0 0.559-7e-3 1.087 0.114 1.635 0.182 0.824 0.058 1.584 0.038 2.409-0.05 2.103-0.169 4.186-0.232 6.29-0.066 2.186-0.376 4.334-0.376 6.524 0 1.776 0.127 3.56 0.076 5.339-0.039 1.363-0.152 2.719-0.152 4.082 0 1.112 0.344 2.143 0.473 3.25 0.308 2.644 0.515 5.331 0.515 8.007 0 2.102 0.057 4.222-0.08 6.318-0.051 0.775-0.129 1.547-0.207 2.319-0.109 1.079-0.087 2.165-0.186 3.24-0.02 0.226 0.055 0.839 0.111 1.091 0.093 0.423 0.187 3.178 0.075 3.496" stroke="#CF1A1A" stroke-linecap="round" stroke-width="3"/>
<path d="m287.38 160c0 0.559-7e-3 1.087 0.114 1.635 0.182 0.824 0.058 1.584 0.038 2.409-0.05 2.103-0.169 4.186-0.232 6.29-0.066 2.186-0.376 4.334-0.376 6.524 0 1.776 0.127 3.56 0.076 5.339-0.039 1.363-0.152 2.719-0.152 4.082 0 1.112 0.344 2.143 0.473 3.25 0.308 2.644 0.515 5.331 0.515 8.007 0 2.102 0.057 4.222-0.08 6.318-0.051 0.775-0.129 1.547-0.207 2.319-0.109 1.079-0.087 2.165-0.186 3.24-0.02 0.226 0.055 0.839 0.111 1.091 0.093 0.423 0.187 3.178 0.075 3.496" stroke="#CF1A1A" stroke-linecap="round" stroke-width="3"/>
<path d="m287.38 116c0 0.559-7e-3 1.088 0.114 1.635 0.182 0.824 0.058 1.584 0.038 2.409-0.05 2.103-0.169 4.186-0.232 6.29-0.066 2.187-0.376 4.334-0.376 6.524" stroke="#CF1A1A" stroke-linecap="round" stroke-width="3"/>
<path d="m267.31 116c0 0.559-7e-3 1.088 0.114 1.635 0.182 0.824 0.058 1.584 0.038 2.409-0.05 2.103-0.169 4.186-0.232 6.29-0.066 2.187-0.376 4.334-0.376 6.524" stroke="#CF1A1A" stroke-linecap="round" stroke-width="3"/>
</svg>
