<svg width="438" height="885" viewBox="0 0 438 885" fill="none" xmlns="http://www.w3.org/2000/svg">
<g clip-path="url(#clip0_1421_2060)">
<path opacity="0.5" d="M291.399 443.399C305.985 443.209 312.871 432.699 327.599 432.699C342.46 432.699 349.337 443.401 364.199 443.401C379.06 443.401 385.937 432.699 400.799 432.699C415.66 432.699 422.537 443.401 437.399 443.401M291.399 443.399C291.266 443.401 291.133 443.401 290.999 443.401M291.399 443.399C291.531 443.401 291.664 443.401 291.798 443.401M291.399 443.399C276.812 443.209 269.926 432.699 255.198 432.699C240.337 432.699 233.46 443.401 218.598 443.401C203.737 443.401 196.86 432.699 181.998 432.699C167.204 432.699 160.322 443.305 145.598 443.401M291.399 486.209C305.985 486.019 312.871 475.509 327.599 475.509C342.46 475.509 349.337 486.211 364.199 486.211C379.06 486.211 385.937 475.509 400.799 475.509C415.66 475.509 422.537 486.211 437.399 486.211M291.399 486.209C291.266 486.21 291.133 486.211 290.999 486.211M291.399 486.209C291.531 486.21 291.664 486.211 291.798 486.211M291.399 486.209C276.812 486.019 269.926 475.509 255.198 475.509C240.337 475.509 233.46 486.211 218.598 486.211C203.737 486.211 196.86 475.509 181.998 475.509C167.204 475.509 160.322 486.115 145.598 486.211M291.399 454.101C305.985 453.912 312.871 443.401 327.599 443.401C342.46 443.401 349.337 454.104 364.199 454.104C379.06 454.104 385.937 443.401 400.799 443.401C415.66 443.401 422.537 454.104 437.399 454.104M291.399 454.101C291.266 454.103 291.133 454.104 290.999 454.104M291.399 454.101C291.531 454.103 291.664 454.104 291.798 454.104M291.399 454.101C276.812 453.912 269.926 443.401 255.198 443.401C240.337 443.401 233.46 454.104 218.598 454.104C203.737 454.104 196.86 443.401 181.998 443.401C167.204 443.401 160.322 454.008 145.598 454.103M291.399 496.911C305.985 496.722 312.871 486.211 327.599 486.211C342.46 486.211 349.337 496.914 364.199 496.914C379.06 496.914 385.937 486.211 400.799 486.211C415.66 486.211 422.537 496.914 437.399 496.914M291.399 496.911C291.266 496.913 291.133 496.914 290.999 496.914M291.399 496.911C291.531 496.913 291.664 496.914 291.798 496.914M291.399 496.911C276.812 496.722 269.926 486.211 255.198 486.211C240.337 486.211 233.46 496.914 218.598 496.914C203.737 496.914 196.86 486.211 181.998 486.211C167.204 486.211 160.322 496.818 145.598 496.913M291.399 464.804C305.985 464.614 312.871 454.104 327.599 454.104C342.46 454.104 349.337 464.806 364.199 464.806C379.06 464.806 385.937 454.104 400.799 454.104C415.66 454.104 422.537 464.806 437.399 464.806M291.399 464.804C291.266 464.805 291.133 464.806 290.999 464.806M291.399 464.804C291.531 464.805 291.664 464.806 291.798 464.806M291.399 464.804C276.812 464.614 269.926 454.104 255.198 454.104C240.337 454.104 233.46 464.806 218.598 464.806C203.737 464.806 196.86 454.104 181.998 454.104C167.204 454.104 160.322 464.71 145.598 464.806M291.399 475.506C305.985 475.317 312.871 464.806 327.599 464.806C342.46 464.806 349.337 475.509 364.199 475.509C379.06 475.509 385.937 464.806 400.799 464.806C415.66 464.806 422.537 475.509 437.399 475.509M291.399 475.506C291.266 475.508 291.133 475.509 290.999 475.509M291.399 475.506C291.531 475.508 291.664 475.509 291.798 475.509M291.399 475.506C276.812 475.317 269.926 464.806 255.198 464.806C240.337 464.806 233.46 475.509 218.598 475.509C203.737 475.509 196.86 464.806 181.998 464.806C167.204 464.806 160.322 475.413 145.598 475.508M291.399 700.257C305.985 700.068 312.871 689.557 327.599 689.557C342.46 689.557 349.337 700.26 364.199 700.26C379.06 700.26 385.937 689.557 400.799 689.557C415.66 689.557 422.537 700.26 437.399 700.26M291.399 700.257C291.266 700.259 291.133 700.26 290.999 700.26M291.399 700.257C291.531 700.259 291.664 700.26 291.798 700.26M291.399 700.257C276.812 700.068 269.926 689.557 255.198 689.557C240.337 689.557 233.46 700.26 218.598 700.26C203.737 700.26 196.86 689.557 181.998 689.557C167.204 689.557 160.322 700.164 145.599 700.259M291.399 743.067C305.985 742.878 312.871 732.367 327.599 732.367C342.46 732.367 349.337 743.07 364.199 743.07C379.06 743.07 385.937 732.367 400.799 732.367C415.66 732.367 422.537 743.07 437.399 743.07M291.399 743.067C291.266 743.069 291.133 743.07 290.999 743.07M291.399 743.067C291.531 743.069 291.664 743.07 291.798 743.07M291.399 743.067C276.812 742.878 269.926 732.367 255.198 732.367C240.337 732.367 233.46 743.07 218.598 743.07C203.737 743.07 196.86 732.367 181.998 732.367C167.204 732.367 160.322 742.974 145.599 743.069M291.399 710.96C305.985 710.77 312.871 700.26 327.599 700.26C342.46 700.26 349.337 710.962 364.199 710.962C379.06 710.962 385.937 700.26 400.799 700.26C415.66 700.26 422.537 710.962 437.399 710.962M291.399 710.96C291.266 710.962 291.133 710.962 290.999 710.962M291.399 710.96C291.531 710.962 291.664 710.962 291.798 710.962M291.399 710.96C276.812 710.77 269.926 700.26 255.198 700.26C240.337 700.26 233.46 710.962 218.598 710.962C203.737 710.962 196.86 700.26 181.998 700.26C167.204 700.26 160.322 710.866 145.599 710.962M291.399 753.77C305.985 753.58 312.871 743.07 327.599 743.07C342.46 743.07 349.337 753.772 364.199 753.772C379.06 753.772 385.937 743.07 400.799 743.07C415.66 743.07 422.537 753.772 437.399 753.772M291.399 753.77C291.266 753.771 291.133 753.772 290.999 753.772M291.399 753.77C291.531 753.771 291.664 753.772 291.798 753.772M291.399 753.77C276.812 753.58 269.926 743.07 255.198 743.07C240.337 743.07 233.46 753.772 218.598 753.772C203.737 753.772 196.86 743.07 181.998 743.07C167.204 743.07 160.322 753.676 145.599 753.771M291.399 721.662C305.985 721.473 312.871 710.962 327.599 710.962C342.46 710.962 349.337 721.665 364.199 721.665C379.06 721.665 385.937 710.962 400.799 710.962C415.66 710.962 422.537 721.665 437.399 721.665M291.399 721.662C291.266 721.664 291.133 721.665 290.999 721.665M291.399 721.662C291.531 721.664 291.664 721.665 291.798 721.665M291.399 721.662C276.812 721.473 269.926 710.962 255.198 710.962C240.337 710.962 233.46 721.665 218.598 721.665C203.737 721.665 196.86 710.962 181.998 710.962C167.204 710.962 160.322 721.569 145.599 721.664M291.399 732.365C305.985 732.175 312.871 721.665 327.599 721.665C342.46 721.665 349.337 732.367 364.199 732.367C379.06 732.367 385.937 721.665 400.799 721.665C415.66 721.665 422.537 732.367 437.399 732.367M291.399 732.365C291.266 732.366 291.133 732.367 290.999 732.367M291.399 732.365C291.531 732.366 291.664 732.367 291.798 732.367M291.399 732.365C276.812 732.175 269.926 721.665 255.198 721.665C240.337 721.665 233.46 732.367 218.598 732.367C203.737 732.367 196.86 721.665 181.998 721.665C167.204 721.665 160.322 732.271 145.599 732.367M291.399 571.828C305.985 571.639 312.871 561.128 327.599 561.128C342.46 561.128 349.337 571.831 364.199 571.831C379.06 571.831 385.937 561.128 400.799 561.128C415.66 561.128 422.537 571.831 437.399 571.831M291.399 571.828C291.266 571.83 291.133 571.831 290.999 571.831M291.399 571.828C291.531 571.83 291.664 571.831 291.798 571.831M291.399 571.828C276.812 571.639 269.926 561.128 255.198 561.128C240.337 561.128 233.46 571.831 218.598 571.831C203.737 571.831 196.86 561.128 181.998 561.128C167.204 561.128 160.322 571.735 145.598 571.83M291.399 614.638C305.985 614.448 312.871 603.938 327.599 603.938C342.46 603.938 349.337 614.64 364.199 614.64C379.06 614.64 385.937 603.938 400.799 603.938C415.66 603.938 422.537 614.64 437.399 614.64M291.399 614.638C291.266 614.64 291.133 614.64 290.999 614.64M291.399 614.638C291.531 614.64 291.664 614.64 291.798 614.64M291.399 614.638C276.812 614.448 269.926 603.938 255.198 603.938C240.337 603.938 233.46 614.64 218.598 614.64C203.737 614.64 196.86 603.938 181.998 603.938C167.204 603.938 160.322 614.544 145.598 614.64M291.399 582.531C305.985 582.341 312.871 571.831 327.599 571.831C342.46 571.831 349.337 582.533 364.199 582.533C379.06 582.533 385.937 571.831 400.799 571.831C415.66 571.831 422.537 582.533 437.399 582.533M291.399 582.531C291.266 582.532 291.133 582.533 290.999 582.533M291.399 582.531C291.531 582.532 291.664 582.533 291.798 582.533M291.399 582.531C276.812 582.341 269.926 571.831 255.198 571.831C240.337 571.831 233.46 582.533 218.598 582.533C203.737 582.533 196.86 571.831 181.998 571.831C167.204 571.831 160.322 582.437 145.598 582.532M291.399 625.34C305.985 625.151 312.871 614.64 327.599 614.64C342.46 614.64 349.337 625.343 364.199 625.343C379.06 625.343 385.937 614.64 400.799 614.64C415.66 614.64 422.537 625.343 437.399 625.343M291.399 625.34C291.266 625.342 291.133 625.343 290.999 625.343M291.399 625.34C291.531 625.342 291.664 625.343 291.798 625.343M291.399 625.34C276.812 625.151 269.926 614.64 255.198 614.64C240.337 614.64 233.46 625.343 218.598 625.343C203.737 625.343 196.86 614.64 181.998 614.64C167.204 614.64 160.322 625.247 145.598 625.342M291.399 593.233C305.985 593.043 312.871 582.533 327.599 582.533C342.46 582.533 349.337 593.236 364.199 593.236C379.06 593.236 385.937 582.533 400.799 582.533C415.66 582.533 422.537 593.236 437.399 593.236M291.399 593.233C291.266 593.235 291.133 593.236 290.999 593.236M291.399 593.233C291.531 593.235 291.664 593.236 291.798 593.236M291.399 593.233C276.812 593.043 269.926 582.533 255.198 582.533C240.337 582.533 233.46 593.236 218.598 593.236C203.737 593.236 196.86 582.533 181.998 582.533C167.204 582.533 160.322 593.14 145.598 593.235M291.399 603.935C305.985 603.746 312.871 593.236 327.599 593.236C342.46 593.236 349.337 603.938 364.199 603.938C379.06 603.938 385.937 593.236 400.799 593.236C415.66 593.236 422.537 603.938 437.399 603.938M291.399 603.935C291.266 603.937 291.133 603.938 290.999 603.938M291.399 603.935C291.531 603.937 291.664 603.938 291.798 603.938M291.399 603.935C276.812 603.746 269.926 593.236 255.198 593.236C240.337 593.236 233.46 603.938 218.598 603.938C203.737 603.938 196.86 593.236 181.998 593.236C167.204 593.236 160.322 603.842 145.598 603.937M291.399 379.184C305.985 378.995 312.871 368.484 327.599 368.484C342.46 368.484 349.337 379.187 364.199 379.187C379.06 379.187 385.937 368.484 400.799 368.484C415.66 368.484 422.537 379.187 437.399 379.187M291.399 379.184C291.266 379.186 291.133 379.187 290.999 379.187M291.399 379.184C291.531 379.186 291.664 379.187 291.798 379.187M291.399 379.184C276.812 378.995 269.926 368.484 255.198 368.484C240.337 368.484 233.46 379.187 218.598 379.187C203.737 379.187 196.86 368.484 181.998 368.484C167.204 368.484 160.322 379.091 145.598 379.186M291.399 421.994C305.985 421.804 312.871 411.294 327.599 411.294C342.46 411.294 349.337 421.997 364.199 421.997C379.06 421.997 385.937 411.294 400.799 411.294C415.66 411.294 422.537 421.997 437.399 421.997M291.399 421.994C291.266 421.996 291.133 421.997 290.999 421.997M291.399 421.994C291.531 421.996 291.664 421.997 291.798 421.997M291.399 421.994C276.812 421.804 269.926 411.294 255.198 411.294C240.337 411.294 233.46 421.997 218.598 421.997C203.737 421.997 196.86 411.294 181.998 411.294C167.204 411.294 160.322 421.901 145.598 421.996M291.399 389.887C305.985 389.697 312.871 379.187 327.599 379.187C342.46 379.187 349.337 389.889 364.199 389.889C379.06 389.889 385.937 379.187 400.799 379.187C415.66 379.187 422.537 389.889 437.399 389.889M291.399 389.887C291.266 389.888 291.133 389.889 290.999 389.889M291.399 389.887C291.531 389.888 291.664 389.889 291.798 389.889M291.399 389.887C276.812 389.697 269.926 379.187 255.198 379.187C240.337 379.187 233.46 389.889 218.598 389.889C203.737 389.889 196.86 379.187 181.998 379.187C167.204 379.187 160.322 389.793 145.598 389.889M291.399 432.696C305.985 432.507 312.871 421.997 327.599 421.997C342.46 421.997 349.337 432.699 364.199 432.699C379.06 432.699 385.937 421.997 400.799 421.997C415.66 421.997 422.537 432.699 437.399 432.699M291.399 432.696C291.266 432.698 291.133 432.699 290.999 432.699M291.399 432.696C291.531 432.698 291.664 432.699 291.798 432.699M291.399 432.696C276.812 432.507 269.926 421.997 255.198 421.997C240.337 421.997 233.46 432.699 218.598 432.699C203.737 432.699 196.86 421.997 181.998 421.997C167.204 421.997 160.322 432.603 145.598 432.698M291.399 400.589C305.985 400.4 312.871 389.889 327.599 389.889C342.46 389.889 349.337 400.592 364.199 400.592C379.06 400.592 385.937 389.889 400.799 389.889C415.66 389.889 422.537 400.592 437.399 400.592M291.399 400.589C291.266 400.591 291.133 400.592 290.999 400.592M291.399 400.589C291.531 400.591 291.664 400.592 291.798 400.592M291.399 400.589C276.812 400.4 269.926 389.889 255.198 389.889C240.337 389.889 233.46 400.592 218.598 400.592C203.737 400.592 196.86 389.889 181.998 389.889C167.204 389.889 160.322 400.496 145.598 400.591M291.399 411.292C305.985 411.102 312.871 400.592 327.599 400.592C342.46 400.592 349.337 411.294 364.199 411.294C379.06 411.294 385.937 400.592 400.799 400.592C415.66 400.592 422.537 411.294 437.399 411.294M291.399 411.292C291.266 411.293 291.133 411.294 290.999 411.294M291.399 411.292C291.531 411.293 291.664 411.294 291.798 411.294M291.399 411.292C276.812 411.102 269.926 400.592 255.198 400.592C240.337 400.592 233.46 411.294 218.598 411.294C203.737 411.294 196.86 400.592 181.998 400.592C167.204 400.592 160.322 411.198 145.598 411.294M291.399 636.043C305.985 635.853 312.871 625.343 327.599 625.343C342.46 625.343 349.337 636.045 364.199 636.045C379.06 636.045 385.937 625.343 400.799 625.343C415.66 625.343 422.537 636.045 437.399 636.045M291.399 636.043C291.266 636.044 291.133 636.045 290.999 636.045M291.399 636.043C291.531 636.044 291.664 636.045 291.798 636.045M291.399 636.043C276.812 635.853 269.926 625.343 255.198 625.343C240.337 625.343 233.46 636.045 218.598 636.045C203.737 636.045 196.86 625.343 181.998 625.343C167.204 625.343 160.322 635.949 145.599 636.045M291.399 678.852C305.985 678.663 312.871 668.153 327.599 668.153C342.46 668.153 349.337 678.855 364.199 678.855C379.06 678.855 385.937 668.153 400.799 668.153C415.66 668.153 422.537 678.855 437.399 678.855M291.399 678.852C291.266 678.854 291.133 678.855 290.999 678.855M291.399 678.852C291.531 678.854 291.664 678.855 291.798 678.855M291.399 678.852C276.812 678.663 269.926 668.153 255.198 668.153C240.337 668.153 233.46 678.855 218.598 678.855C203.737 678.855 196.86 668.153 181.998 668.153C167.204 668.153 160.322 678.759 145.599 678.854M291.399 646.745C305.985 646.556 312.871 636.045 327.599 636.045C342.46 636.045 349.337 646.748 364.199 646.748C379.06 646.748 385.937 636.045 400.799 636.045C415.66 636.045 422.537 646.748 437.399 646.748M291.399 646.745C291.266 646.747 291.133 646.748 290.999 646.748M291.399 646.745C291.531 646.747 291.664 646.748 291.798 646.748M291.399 646.745C276.812 646.556 269.926 636.045 255.198 636.045C240.337 636.045 233.46 646.748 218.598 646.748C203.737 646.748 196.86 636.045 181.998 636.045C167.204 636.045 160.322 646.652 145.599 646.747M291.399 689.555C305.985 689.365 312.871 678.855 327.599 678.855C342.46 678.855 349.337 689.557 364.199 689.557C379.06 689.557 385.937 678.855 400.799 678.855C415.66 678.855 422.537 689.557 437.399 689.557M291.399 689.555C291.266 689.557 291.133 689.557 290.999 689.557M291.399 689.555C291.531 689.557 291.664 689.557 291.798 689.557M291.399 689.555C276.812 689.365 269.926 678.855 255.198 678.855C240.337 678.855 233.46 689.557 218.598 689.557C203.737 689.557 196.86 678.855 181.998 678.855C167.204 678.855 160.322 689.461 145.599 689.557M291.399 657.448C305.985 657.258 312.871 646.748 327.599 646.748C342.46 646.748 349.337 657.45 364.199 657.45C379.06 657.45 385.937 646.748 400.799 646.748C415.66 646.748 422.537 657.45 437.399 657.45M291.399 657.448C291.266 657.449 291.133 657.45 290.999 657.45M291.399 657.448C291.531 657.449 291.664 657.45 291.798 657.45M291.399 657.448C276.812 657.258 269.926 646.748 255.198 646.748C240.337 646.748 233.46 657.45 218.598 657.45C203.737 657.45 196.86 646.748 181.998 646.748C167.204 646.748 160.322 657.354 145.599 657.45M291.399 668.15C305.985 667.96 312.871 657.45 327.599 657.45C342.46 657.45 349.337 668.153 364.199 668.153C379.06 668.153 385.937 657.45 400.799 657.45C415.66 657.45 422.537 668.153 437.399 668.153M291.399 668.15C291.266 668.152 291.133 668.153 290.999 668.153M291.399 668.15C291.531 668.152 291.664 668.153 291.798 668.153M291.399 668.15C276.812 667.96 269.926 657.45 255.198 657.45C240.337 657.45 233.46 668.153 218.598 668.153C203.737 668.153 196.86 657.45 181.998 657.45C167.204 657.45 160.322 668.057 145.599 668.152M291.399 507.613C305.985 507.424 312.871 496.914 327.599 496.914C342.46 496.914 349.337 507.616 364.199 507.616C379.06 507.616 385.937 496.914 400.799 496.914C415.66 496.914 422.537 507.616 437.399 507.616M291.399 507.613C291.266 507.615 291.133 507.616 290.999 507.616M291.399 507.613C291.531 507.615 291.664 507.616 291.798 507.616M291.399 507.613C276.812 507.424 269.926 496.914 255.198 496.914C240.337 496.914 233.46 507.616 218.598 507.616C203.737 507.616 196.86 496.914 181.998 496.914C167.204 496.914 160.322 507.52 145.598 507.615M291.399 550.423C305.985 550.234 312.871 539.723 327.599 539.723C342.46 539.723 349.337 550.426 364.199 550.426C379.06 550.426 385.937 539.723 400.799 539.723C415.66 539.723 422.537 550.426 437.399 550.426M291.399 550.423C291.266 550.425 291.133 550.426 290.999 550.426M291.399 550.423C291.531 550.425 291.664 550.426 291.798 550.426M291.399 550.423C276.812 550.234 269.926 539.723 255.198 539.723C240.337 539.723 233.46 550.426 218.598 550.426C203.737 550.426 196.86 539.723 181.998 539.723C167.204 539.723 160.322 550.33 145.598 550.425M291.399 518.316C305.985 518.126 312.871 507.616 327.599 507.616C342.46 507.616 349.337 518.319 364.199 518.319C379.06 518.319 385.937 507.616 400.799 507.616C415.66 507.616 422.537 518.319 437.399 518.319M291.399 518.316C291.266 518.318 291.133 518.319 290.999 518.319M291.399 518.316C291.531 518.318 291.664 518.319 291.798 518.319M291.399 518.316C276.812 518.126 269.926 507.616 255.198 507.616C240.337 507.616 233.46 518.319 218.598 518.319C203.737 518.319 196.86 507.616 181.998 507.616C167.204 507.616 160.322 518.222 145.598 518.318M291.399 561.126C305.985 560.936 312.871 550.426 327.599 550.426C342.46 550.426 349.337 561.128 364.199 561.128C379.06 561.128 385.937 550.426 400.799 550.426C415.66 550.426 422.537 561.128 437.399 561.128M291.399 561.126C291.266 561.127 291.133 561.128 290.999 561.128M291.399 561.126C291.531 561.127 291.664 561.128 291.798 561.128M291.399 561.126C276.812 560.936 269.926 550.426 255.198 550.426C240.337 550.426 233.46 561.128 218.598 561.128C203.737 561.128 196.86 550.426 181.998 550.426C167.204 550.426 160.322 561.032 145.598 561.128M291.399 529.018C305.985 528.829 312.871 518.319 327.599 518.319C342.46 518.319 349.337 529.021 364.199 529.021C379.06 529.021 385.937 518.319 400.799 518.319C415.66 518.319 422.537 529.021 437.399 529.021M291.399 529.018C291.266 529.02 291.133 529.021 290.999 529.021M291.399 529.018C291.531 529.02 291.664 529.021 291.798 529.021M291.399 529.018C276.812 528.829 269.926 518.319 255.198 518.319C240.337 518.319 233.46 529.021 218.598 529.021C203.737 529.021 196.86 518.319 181.998 518.319C167.204 518.319 160.322 528.925 145.598 529.02M291.399 539.721C305.985 539.531 312.871 529.021 327.599 529.021C342.46 529.021 349.337 539.723 364.199 539.723C379.06 539.723 385.937 529.021 400.799 529.021C415.66 529.021 422.537 539.723 437.399 539.723M291.399 539.721C291.266 539.722 291.133 539.723 290.999 539.723M291.399 539.721C291.531 539.722 291.664 539.723 291.798 539.723M291.399 539.721C276.812 539.531 269.926 529.021 255.198 529.021C240.337 529.021 233.46 539.723 218.598 539.723C203.737 539.723 196.86 529.021 181.998 529.021C167.204 529.021 160.322 539.627 145.598 539.723M145.598 443.401C145.532 443.401 145.465 443.401 145.398 443.401M145.598 443.401C145.64 443.401 145.681 443.401 145.723 443.401L145.798 443.401M145.598 443.401C130.875 443.305 123.993 432.699 109.198 432.699C94.3369 432.699 87.46 443.401 72.5984 443.401C57.7369 443.401 50.86 432.699 35.9984 432.699C21.1369 432.699 14.26 443.401 -0.601559 443.401M145.598 486.211C145.532 486.211 145.465 486.211 145.398 486.211M145.598 486.211C145.665 486.211 145.732 486.211 145.798 486.211M145.598 486.211C130.875 486.115 123.993 475.509 109.198 475.509C94.3369 475.509 87.46 486.211 72.5984 486.211C57.7369 486.211 50.86 475.509 35.9984 475.509C21.1369 475.509 14.26 486.211 -0.601559 486.211M145.598 454.103C145.532 454.104 145.465 454.104 145.398 454.104M145.598 454.103L145.701 454.104L145.798 454.104M145.598 454.103C130.875 454.008 123.993 443.401 109.198 443.401C94.3369 443.401 87.46 454.104 72.5984 454.104C57.7369 454.104 50.86 443.401 35.9984 443.401C21.1369 443.401 14.26 454.104 -0.601559 454.104M145.598 496.913C145.532 496.913 145.465 496.914 145.398 496.914M145.598 496.913C145.665 496.913 145.732 496.914 145.798 496.914M145.598 496.913C130.875 496.818 123.993 486.211 109.198 486.211C94.3369 486.211 87.46 496.914 72.5984 496.914C57.7369 496.914 50.86 486.211 35.9984 486.211C21.1369 486.211 14.26 496.914 -0.601559 496.914M145.598 464.806C145.532 464.806 145.465 464.806 145.398 464.806M145.598 464.806L145.703 464.806L145.798 464.806M145.598 464.806C130.875 464.71 123.993 454.104 109.198 454.104C94.3369 454.104 87.46 464.806 72.5984 464.806C57.7369 464.806 50.86 454.104 35.9984 454.104C21.1369 454.104 14.26 464.806 -0.601559 464.806M145.598 475.508C145.532 475.509 145.465 475.509 145.398 475.509M145.598 475.508C145.634 475.508 145.67 475.509 145.706 475.509L145.798 475.509M145.598 475.508C130.875 475.413 123.993 464.806 109.198 464.806C94.3369 464.806 87.46 475.509 72.5984 475.509C57.7369 475.509 50.86 464.806 35.9984 464.806C21.1369 464.806 14.26 475.509 -0.601559 475.509M145.599 700.259C145.532 700.26 145.465 700.26 145.398 700.26M145.599 700.259C145.665 700.26 145.732 700.26 145.798 700.26M145.599 700.259C130.875 700.164 123.993 689.557 109.198 689.557C94.3369 689.557 87.46 700.26 72.5984 700.26C57.7369 700.26 50.86 689.557 35.9984 689.557C21.1369 689.557 14.26 700.26 -0.601559 700.26M145.599 743.069C145.532 743.069 145.465 743.07 145.398 743.07M145.599 743.069C145.665 743.069 145.732 743.07 145.798 743.07M145.599 743.069C130.875 742.974 123.993 732.367 109.198 732.367C94.3369 732.367 87.46 743.07 72.5984 743.07C57.7369 743.07 50.86 732.367 35.9984 732.367C21.1369 732.367 14.26 743.07 -0.601559 743.07M145.599 710.962C145.532 710.962 145.465 710.962 145.398 710.962M145.599 710.962C145.665 710.962 145.732 710.962 145.798 710.962M145.599 710.962C130.875 710.866 123.993 700.26 109.198 700.26C94.3369 700.26 87.46 710.962 72.5984 710.962C57.7369 710.962 50.86 700.26 35.9984 700.26C21.1369 700.26 14.26 710.962 -0.601559 710.962M145.599 753.771C145.532 753.772 145.465 753.772 145.398 753.772M145.599 753.771C145.665 753.772 145.732 753.772 145.798 753.772M145.599 753.771C130.875 753.676 123.993 743.07 109.198 743.07C94.3369 743.07 87.46 753.772 72.5984 753.772C57.7369 753.772 50.86 743.07 35.9984 743.07C21.1369 743.07 14.26 753.772 -0.601559 753.772M145.599 721.664C145.532 721.665 145.465 721.665 145.398 721.665M145.599 721.664C145.665 721.665 145.732 721.665 145.798 721.665M145.599 721.664C130.875 721.569 123.993 710.962 109.198 710.962C94.3369 710.962 87.46 721.665 72.5984 721.665C57.7369 721.665 50.86 710.962 35.9984 710.962C21.1369 710.962 14.26 721.665 -0.601559 721.665M145.599 732.367C145.532 732.367 145.465 732.367 145.398 732.367M145.599 732.367C145.665 732.367 145.732 732.367 145.798 732.367M145.599 732.367C130.875 732.271 123.993 721.665 109.198 721.665C94.3369 721.665 87.46 732.367 72.5984 732.367C57.7369 732.367 50.86 721.665 35.9984 721.665C21.1369 721.665 14.26 732.367 -0.601559 732.367M145.598 571.83C145.532 571.83 145.465 571.831 145.398 571.831M145.598 571.83C145.665 571.83 145.732 571.831 145.798 571.831M145.598 571.83C130.875 571.735 123.993 561.128 109.198 561.128C94.3369 561.128 87.46 571.831 72.5984 571.831C57.7369 571.831 50.86 561.128 35.9984 561.128C21.1369 561.128 14.26 571.831 -0.601559 571.831M145.598 614.64C145.532 614.64 145.465 614.64 145.398 614.64M145.598 614.64C145.665 614.64 145.732 614.64 145.798 614.64M145.598 614.64C130.875 614.544 123.993 603.938 109.198 603.938C94.3369 603.938 87.46 614.64 72.5984 614.64C57.7369 614.64 50.86 603.938 35.9984 603.938C21.1369 603.938 14.26 614.64 -0.601559 614.64M145.598 582.532C145.532 582.533 145.465 582.533 145.398 582.533M145.598 582.532C145.665 582.533 145.732 582.533 145.798 582.533M145.598 582.532C130.875 582.437 123.993 571.831 109.198 571.831C94.3369 571.831 87.46 582.533 72.5984 582.533C57.7369 582.533 50.86 571.831 35.9984 571.831C21.1369 571.831 14.26 582.533 -0.601559 582.533M145.598 625.342C145.532 625.343 145.465 625.343 145.398 625.343M145.598 625.342C145.665 625.343 145.732 625.343 145.798 625.343M145.598 625.342C130.875 625.247 123.993 614.64 109.198 614.64C94.3369 614.64 87.46 625.343 72.5984 625.343C57.7369 625.343 50.86 614.64 35.9984 614.64C21.1369 614.64 14.26 625.343 -0.601559 625.343M145.598 593.235C145.532 593.235 145.465 593.236 145.398 593.236M145.598 593.235C145.665 593.235 145.732 593.236 145.798 593.236M145.598 593.235C130.875 593.14 123.993 582.533 109.198 582.533C94.3369 582.533 87.46 593.236 72.5984 593.236C57.7369 593.236 50.86 582.533 35.9984 582.533C21.1369 582.533 14.26 593.236 -0.601559 593.236M145.598 603.937L145.52 603.938C145.479 603.938 145.439 603.938 145.398 603.938M145.598 603.937C145.665 603.938 145.732 603.938 145.798 603.938M145.598 603.937C130.875 603.842 123.993 593.236 109.198 593.236C94.3369 593.236 87.46 603.938 72.5984 603.938C57.7369 603.938 50.86 593.236 35.9984 593.236C21.1369 593.236 14.26 603.938 -0.601559 603.938M145.598 379.186C145.532 379.187 145.465 379.187 145.398 379.187M145.598 379.186C145.665 379.187 145.732 379.187 145.798 379.187M145.598 379.186C130.875 379.091 123.993 368.484 109.198 368.484C94.3369 368.484 87.4599 379.187 72.5984 379.187C57.7369 379.187 50.86 368.484 35.9984 368.484C21.1369 368.484 14.26 379.187 -0.601562 379.187M145.598 421.996C145.532 421.996 145.465 421.997 145.398 421.997M145.598 421.996C145.665 421.996 145.732 421.997 145.798 421.997M145.598 421.996C130.875 421.901 123.993 411.294 109.198 411.294C94.3369 411.294 87.4599 421.997 72.5984 421.997C57.7369 421.997 50.86 411.294 35.9984 411.294C21.1369 411.294 14.26 421.997 -0.601562 421.997M145.598 389.889C145.532 389.889 145.465 389.889 145.398 389.889M145.598 389.889C145.665 389.889 145.732 389.889 145.798 389.889M145.598 389.889C130.875 389.793 123.993 379.187 109.198 379.187C94.3369 379.187 87.4599 389.889 72.5984 389.889C57.7369 389.889 50.86 379.187 35.9984 379.187C21.1369 379.187 14.26 389.889 -0.601562 389.889M145.598 432.698C145.549 432.699 145.499 432.699 145.45 432.699L145.398 432.699M145.598 432.698C145.635 432.699 145.672 432.699 145.709 432.699L145.798 432.699M145.598 432.698C130.875 432.603 123.993 421.997 109.198 421.997C94.3369 421.997 87.4599 432.699 72.5984 432.699C57.7369 432.699 50.86 421.997 35.9984 421.997C21.1369 421.997 14.26 432.699 -0.601562 432.699M145.598 400.591C145.532 400.592 145.465 400.592 145.398 400.592M145.598 400.591C145.665 400.592 145.732 400.592 145.798 400.592M145.598 400.591C130.875 400.496 123.993 389.889 109.198 389.889C94.3369 389.889 87.4599 400.592 72.5984 400.592C57.7369 400.592 50.86 389.889 35.9984 389.889C21.1369 389.889 14.26 400.592 -0.601562 400.592M145.598 411.294L145.51 411.294C145.473 411.294 145.436 411.294 145.398 411.294M145.598 411.294C145.65 411.294 145.702 411.294 145.754 411.294L145.798 411.294M145.598 411.294C130.875 411.198 123.993 400.592 109.198 400.592C94.3369 400.592 87.4599 411.294 72.5984 411.294C57.7369 411.294 50.86 400.592 35.9984 400.592C21.1369 400.592 14.26 411.294 -0.601562 411.294M145.599 636.045C145.532 636.045 145.465 636.045 145.398 636.045M145.599 636.045C145.665 636.045 145.732 636.045 145.798 636.045M145.599 636.045C130.875 635.949 123.993 625.343 109.198 625.343C94.3369 625.343 87.4599 636.045 72.5984 636.045C57.7369 636.045 50.86 625.343 35.9984 625.343C21.1369 625.343 14.26 636.045 -0.601562 636.045M145.599 678.854C145.532 678.855 145.465 678.855 145.398 678.855M145.599 678.854C145.665 678.855 145.732 678.855 145.798 678.855M145.599 678.854C130.875 678.759 123.993 668.153 109.198 668.153C94.3369 668.153 87.4599 678.855 72.5984 678.855C57.7369 678.855 50.86 668.153 35.9984 668.153C21.1369 668.153 14.26 678.855 -0.601562 678.855M145.599 646.747C145.532 646.748 145.465 646.748 145.398 646.748M145.599 646.747C145.665 646.748 145.732 646.748 145.798 646.748M145.599 646.747C130.875 646.652 123.993 636.045 109.198 636.045C94.3369 636.045 87.4599 646.748 72.5984 646.748C57.7369 646.748 50.86 636.045 35.9984 636.045C21.1369 636.045 14.26 646.748 -0.601562 646.748M145.599 689.557L145.507 689.557L145.398 689.557M145.599 689.557C145.665 689.557 145.732 689.557 145.798 689.557M145.599 689.557C130.875 689.461 123.993 678.855 109.198 678.855C94.3369 678.855 87.4599 689.557 72.5984 689.557C57.7369 689.557 50.86 678.855 35.9984 678.855C21.1369 678.855 14.26 689.557 -0.601562 689.557M145.599 657.45C145.532 657.45 145.465 657.45 145.398 657.45M145.599 657.45C145.665 657.45 145.732 657.45 145.798 657.45M145.599 657.45C130.875 657.354 123.993 646.748 109.198 646.748C94.3369 646.748 87.4599 657.45 72.5984 657.45C57.7369 657.45 50.86 646.748 35.9984 646.748C21.1369 646.748 14.26 657.45 -0.601562 657.45M145.599 668.152C145.532 668.152 145.465 668.153 145.398 668.153M145.599 668.152C145.665 668.152 145.732 668.153 145.798 668.153M145.599 668.152C130.875 668.057 123.993 657.45 109.198 657.45C94.3369 657.45 87.4599 668.153 72.5984 668.153C57.7369 668.153 50.86 657.45 35.9984 657.45C21.1369 657.45 14.26 668.153 -0.601562 668.153M145.598 507.615C145.532 507.616 145.465 507.616 145.398 507.616M145.598 507.615C145.665 507.616 145.732 507.616 145.798 507.616M145.598 507.615C130.875 507.52 123.993 496.914 109.198 496.914C94.3369 496.914 87.46 507.616 72.5984 507.616C57.7369 507.616 50.86 496.914 35.9984 496.914C21.1369 496.914 14.26 507.616 -0.601559 507.616M145.598 550.425L145.512 550.426L145.398 550.426M145.598 550.425C145.665 550.426 145.732 550.426 145.798 550.426M145.598 550.425C130.875 550.33 123.993 539.723 109.198 539.723C94.3369 539.723 87.46 550.426 72.5984 550.426C57.7369 550.426 50.86 539.723 35.9984 539.723C21.1369 539.723 14.26 550.426 -0.601559 550.426M145.598 518.318C145.532 518.318 145.465 518.319 145.398 518.319M145.598 518.318C145.665 518.318 145.732 518.319 145.798 518.319M145.598 518.318C130.875 518.222 123.993 507.616 109.198 507.616C94.3369 507.616 87.46 518.319 72.5984 518.319C57.7369 518.319 50.86 507.616 35.9984 507.616C21.1369 507.616 14.26 518.319 -0.601559 518.319M145.598 561.128L145.472 561.128L145.398 561.128M145.598 561.128L145.69 561.128L145.798 561.128M145.598 561.128C130.875 561.032 123.993 550.426 109.198 550.426C94.3369 550.426 87.46 561.128 72.5984 561.128C57.7369 561.128 50.86 550.426 35.9984 550.426C21.1369 550.426 14.26 561.128 -0.601559 561.128M145.598 529.02C145.532 529.021 145.465 529.021 145.398 529.021M145.598 529.02C145.665 529.021 145.732 529.021 145.798 529.021M145.598 529.02C130.875 528.925 123.993 518.319 109.198 518.319C94.3369 518.319 87.46 529.021 72.5984 529.021C57.7369 529.021 50.86 518.319 35.9984 518.319C21.1369 518.319 14.26 529.021 -0.601559 529.021M145.598 539.723C145.532 539.723 145.465 539.723 145.398 539.723M145.598 539.723L145.68 539.723C145.72 539.723 145.759 539.723 145.798 539.723M145.598 539.723C130.875 539.627 123.993 529.021 109.198 529.021C94.3369 529.021 87.46 539.723 72.5984 539.723C57.7369 539.723 50.86 529.021 35.9984 529.021C21.1369 529.021 14.26 539.723 -0.601559 539.723M291.399 58.1112C305.985 57.9217 312.871 47.4114 327.599 47.4114C342.46 47.4114 349.337 58.1138 364.199 58.1138C379.06 58.1138 385.937 47.4114 400.799 47.4114C415.66 47.4114 422.537 58.1138 437.399 58.1138M291.399 58.1112C291.266 58.113 291.133 58.1138 290.999 58.1138M291.399 58.1112C291.531 58.113 291.664 58.1138 291.798 58.1138M291.399 58.1112C276.812 57.9217 269.926 47.4114 255.198 47.4114C240.337 47.4114 233.46 58.1138 218.598 58.1138C203.737 58.1138 196.86 47.4114 181.998 47.4114C167.204 47.4114 160.322 58.0178 145.598 58.1132M291.399 100.921C305.985 100.731 312.871 90.2211 327.599 90.2211C342.46 90.2211 349.337 100.924 364.199 100.924C379.06 100.924 385.937 90.2211 400.799 90.2211C415.66 90.2211 422.537 100.924 437.399 100.924M291.399 100.921C291.266 100.923 291.133 100.924 290.999 100.924M291.399 100.921C291.531 100.923 291.664 100.924 291.798 100.924M291.399 100.921C276.812 100.731 269.926 90.2211 255.198 90.2211C240.337 90.2211 233.46 100.924 218.598 100.924C203.737 100.924 196.86 90.2211 181.998 90.2211C167.204 90.2211 160.322 100.828 145.598 100.923M291.399 68.8137C305.985 68.6242 312.871 58.1138 327.599 58.1138C342.46 58.1138 349.337 68.8163 364.199 68.8163C379.06 68.8163 385.937 58.1138 400.799 58.1138C415.66 58.1138 422.537 68.8163 437.399 68.8163M291.399 68.8137C291.266 68.8154 291.133 68.8163 290.999 68.8163M291.399 68.8137C291.531 68.8154 291.664 68.8163 291.798 68.8163M291.399 68.8137C276.812 68.6242 269.926 58.1138 255.198 58.1138C240.337 58.1138 233.46 68.8163 218.598 68.8163C203.737 68.8163 196.86 58.1138 181.998 58.1138C167.204 58.1138 160.322 68.7202 145.598 68.8156M291.399 111.623C305.985 111.434 312.871 100.924 327.599 100.924C342.46 100.924 349.337 111.626 364.199 111.626C379.06 111.626 385.937 100.924 400.799 100.924C415.66 100.924 422.537 111.626 437.399 111.626M291.399 111.623C291.266 111.625 291.133 111.626 290.999 111.626M291.399 111.623C291.531 111.625 291.664 111.626 291.798 111.626M291.399 111.623C276.812 111.434 269.926 100.924 255.198 100.924C240.337 100.924 233.46 111.626 218.598 111.626C203.737 111.626 196.86 100.924 181.998 100.924C167.204 100.924 160.322 111.53 145.598 111.625M291.399 79.5161C305.985 79.3266 312.871 68.8163 327.599 68.8163C342.46 68.8163 349.337 79.5187 364.199 79.5187C379.06 79.5187 385.937 68.8163 400.799 68.8163C415.66 68.8163 422.537 79.5187 437.399 79.5187M291.399 79.5161C291.266 79.5178 291.133 79.5187 290.999 79.5187M291.399 79.5161C291.531 79.5178 291.664 79.5187 291.798 79.5187M291.399 79.5161C276.812 79.3266 269.926 68.8163 255.198 68.8163C240.337 68.8163 233.46 79.5187 218.598 79.5187C203.737 79.5187 196.86 68.8163 181.998 68.8163C167.204 68.8163 160.322 79.4227 145.598 79.518M291.399 90.2185C305.985 90.029 312.871 79.5187 327.599 79.5187C342.46 79.5187 349.337 90.2211 364.199 90.2211C379.06 90.2211 385.937 79.5187 400.799 79.5187C415.66 79.5187 422.537 90.2211 437.399 90.2211M291.399 90.2185C291.266 90.2203 291.133 90.2211 290.999 90.2211M291.399 90.2185C291.531 90.2203 291.664 90.2211 291.798 90.2211M291.399 90.2185C276.812 90.029 269.926 79.5187 255.198 79.5187C240.337 79.5187 233.46 90.2211 218.598 90.2211C203.737 90.2211 196.86 79.5187 181.998 79.5187C167.204 79.5187 160.322 90.1251 145.598 90.2205M291.399 314.97C305.985 314.78 312.871 304.27 327.599 304.27C342.46 304.27 349.337 314.972 364.199 314.972C379.06 314.972 385.937 304.27 400.799 304.27C415.66 304.27 422.537 314.972 437.399 314.972M291.399 314.97C291.266 314.971 291.133 314.972 290.999 314.972M291.399 314.97C291.531 314.971 291.664 314.972 291.798 314.972M291.399 314.97C276.812 314.78 269.926 304.27 255.198 304.27C240.337 304.27 233.46 314.972 218.598 314.972C203.737 314.972 196.86 304.27 181.998 304.27C167.204 304.27 160.322 314.876 145.599 314.972M291.399 357.779C305.985 357.59 312.871 347.08 327.599 347.08C342.46 347.08 349.337 357.782 364.199 357.782C379.06 357.782 385.937 347.08 400.799 347.08C415.66 347.08 422.537 357.782 437.399 357.782M291.399 357.779C291.266 357.781 291.133 357.782 290.999 357.782M291.399 357.779C291.531 357.781 291.664 357.782 291.798 357.782M291.399 357.779C276.812 357.59 269.926 347.08 255.198 347.08C240.337 347.08 233.46 357.782 218.598 357.782C203.737 357.782 196.86 347.08 181.998 347.08C167.204 347.08 160.322 357.686 145.599 357.781M291.399 325.672C305.985 325.483 312.871 314.972 327.599 314.972C342.46 314.972 349.337 325.675 364.199 325.675C379.06 325.675 385.937 314.972 400.799 314.972C415.66 314.972 422.537 325.675 437.399 325.675M291.399 325.672C291.266 325.674 291.133 325.675 290.999 325.675M291.399 325.672C291.531 325.674 291.664 325.675 291.798 325.675M291.399 325.672C276.812 325.483 269.926 314.972 255.198 314.972C240.337 314.972 233.46 325.675 218.598 325.675C203.737 325.675 196.86 314.972 181.998 314.972C167.204 314.972 160.322 325.579 145.599 325.674M291.399 368.482C305.985 368.292 312.871 357.782 327.599 357.782C342.46 357.782 349.337 368.484 364.199 368.484C379.06 368.484 385.937 357.782 400.799 357.782C415.66 357.782 422.537 368.484 437.399 368.484M291.399 368.482C291.266 368.484 291.133 368.484 290.999 368.484M291.399 368.482C291.531 368.484 291.664 368.484 291.798 368.484M291.399 368.482C276.812 368.292 269.926 357.782 255.198 357.782C240.337 357.782 233.46 368.484 218.598 368.484C203.737 368.484 196.86 357.782 181.998 357.782C167.204 357.782 160.322 368.388 145.599 368.484M291.399 336.375C305.985 336.185 312.871 325.675 327.599 325.675C342.46 325.675 349.337 336.377 364.199 336.377C379.06 336.377 385.937 325.675 400.799 325.675C415.66 325.675 422.537 336.377 437.399 336.377M291.399 336.375C291.266 336.376 291.133 336.377 290.999 336.377M291.399 336.375C291.531 336.376 291.664 336.377 291.798 336.377M291.399 336.375C276.812 336.185 269.926 325.675 255.198 325.675C240.337 325.675 233.46 336.377 218.598 336.377C203.737 336.377 196.86 325.675 181.998 325.675C167.204 325.675 160.322 336.281 145.599 336.376M291.399 347.077C305.985 346.887 312.871 336.377 327.599 336.377C342.46 336.377 349.337 347.08 364.199 347.08C379.06 347.08 385.937 336.377 400.799 336.377C415.66 336.377 422.537 347.08 437.399 347.08M291.399 347.077C291.266 347.079 291.133 347.08 290.999 347.08M291.399 347.077C291.531 347.079 291.664 347.08 291.798 347.08M291.399 347.077C276.812 346.887 269.926 336.377 255.198 336.377C240.337 336.377 233.46 347.08 218.598 347.08C203.737 347.08 196.86 336.377 181.998 336.377C167.204 336.377 160.322 346.983 145.599 347.079M291.399 186.54C305.985 186.351 312.871 175.841 327.599 175.841C342.46 175.841 349.337 186.543 364.199 186.543C379.06 186.543 385.937 175.841 400.799 175.841C415.66 175.841 422.537 186.543 437.399 186.543M291.399 186.54C291.266 186.542 291.133 186.543 290.999 186.543M291.399 186.54C291.531 186.542 291.664 186.543 291.798 186.543M291.399 186.54C276.812 186.351 269.926 175.841 255.198 175.841C240.337 175.841 233.46 186.543 218.598 186.543C203.737 186.543 196.86 175.841 181.998 175.841C167.204 175.841 160.322 186.447 145.598 186.542M291.399 229.35C305.985 229.161 312.871 218.65 327.599 218.65C342.46 218.65 349.337 229.353 364.199 229.353C379.06 229.353 385.937 218.65 400.799 218.65C415.66 218.65 422.537 229.353 437.399 229.353M291.399 229.35C291.266 229.352 291.133 229.353 290.999 229.353M291.399 229.35C291.531 229.352 291.664 229.353 291.798 229.353M291.399 229.35C276.812 229.161 269.926 218.65 255.198 218.65C240.337 218.65 233.46 229.353 218.598 229.353C203.737 229.353 196.86 218.65 181.998 218.65C167.204 218.65 160.322 229.257 145.598 229.352M291.399 197.243C305.985 197.053 312.871 186.543 327.599 186.543C342.46 186.543 349.337 197.245 364.199 197.245C379.06 197.245 385.937 186.543 400.799 186.543C415.66 186.543 422.537 197.245 437.399 197.245M291.399 197.243C291.266 197.245 291.133 197.245 290.999 197.245M291.399 197.243C291.531 197.245 291.664 197.245 291.798 197.245M291.399 197.243C276.812 197.053 269.926 186.543 255.198 186.543C240.337 186.543 233.46 197.245 218.598 197.245C203.737 197.245 196.86 186.543 181.998 186.543C167.204 186.543 160.322 197.149 145.598 197.245M291.399 240.053C305.985 239.863 312.871 229.353 327.599 229.353C342.46 229.353 349.337 240.055 364.199 240.055C379.06 240.055 385.937 229.353 400.799 229.353C415.66 229.353 422.537 240.055 437.399 240.055M291.399 240.053C291.266 240.054 291.133 240.055 290.999 240.055M291.399 240.053C291.531 240.054 291.664 240.055 291.798 240.055M291.399 240.053C276.812 239.863 269.926 229.353 255.198 229.353C240.337 229.353 233.46 240.055 218.598 240.055C203.737 240.055 196.86 229.353 181.998 229.353C167.204 229.353 160.322 239.959 145.598 240.055M291.399 207.945C305.985 207.756 312.871 197.245 327.599 197.245C342.46 197.245 349.337 207.948 364.199 207.948C379.06 207.948 385.937 197.245 400.799 197.245C415.66 197.245 422.537 207.948 437.399 207.948M291.399 207.945C291.266 207.947 291.133 207.948 290.999 207.948M291.399 207.945C291.531 207.947 291.664 207.948 291.798 207.948M291.399 207.945C276.812 207.756 269.926 197.245 255.198 197.245C240.337 197.245 233.46 207.948 218.598 207.948C203.737 207.948 196.86 197.245 181.998 197.245C167.204 197.245 160.322 207.852 145.598 207.947M291.399 218.648C305.985 218.458 312.871 207.948 327.599 207.948C342.46 207.948 349.337 218.65 364.199 218.65C379.06 218.65 385.937 207.948 400.799 207.948C415.66 207.948 422.537 218.65 437.399 218.65M291.399 218.648C291.266 218.649 291.133 218.65 290.999 218.65M291.399 218.648C291.531 218.649 291.664 218.65 291.798 218.65M291.399 218.648C276.812 218.458 269.926 207.948 255.198 207.948C240.337 207.948 233.46 218.65 218.598 218.65C203.737 218.65 196.86 207.948 181.998 207.948C167.204 207.948 160.322 218.554 145.598 218.65M291.399 -6.10338C305.985 -6.29289 312.871 -16.8032 327.599 -16.8032C342.46 -16.8032 349.337 -6.10079 364.199 -6.10079C379.06 -6.10079 385.937 -16.8032 400.799 -16.8032C415.66 -16.8032 422.537 -6.10079 437.399 -6.10079M291.399 -6.10338C291.266 -6.10166 291.133 -6.10079 290.999 -6.10079M291.399 -6.10338C291.531 -6.10166 291.664 -6.10079 291.798 -6.10079M291.399 -6.10338C276.812 -6.29289 269.926 -16.8032 255.198 -16.8032C240.337 -16.8032 233.46 -6.10079 218.598 -6.10079C203.737 -6.10079 196.86 -16.8032 181.998 -16.8032C167.204 -16.8032 160.322 -6.19682 145.598 -6.10143M291.399 36.7064C305.985 36.5168 312.871 26.0065 327.599 26.0065C342.46 26.0065 349.337 36.709 364.199 36.709C379.06 36.709 385.937 26.0065 400.799 26.0065C415.66 26.0065 422.537 36.709 437.399 36.709M291.399 36.7064C291.266 36.7081 291.133 36.709 290.999 36.709M291.399 36.7064C291.531 36.7081 291.664 36.709 291.798 36.709M291.399 36.7064C276.812 36.5168 269.926 26.0065 255.198 26.0065C240.337 26.0065 233.46 36.709 218.598 36.709C203.737 36.709 196.86 26.0065 181.998 26.0065C167.204 26.0065 160.322 36.6129 145.598 36.7083M291.399 4.59905C305.985 4.40954 312.871 -6.10079 327.599 -6.10079C342.46 -6.10079 349.337 4.60165 364.199 4.60165C379.06 4.60165 385.937 -6.10079 400.799 -6.10079C415.66 -6.10079 422.537 4.60165 437.399 4.60165M291.399 4.59905C291.266 4.60078 291.133 4.60165 290.999 4.60165M291.399 4.59905C291.531 4.60078 291.664 4.60165 291.798 4.60165M291.399 4.59905C276.812 4.40954 269.926 -6.10079 255.198 -6.10079C240.337 -6.10079 233.46 4.60165 218.598 4.60165C203.737 4.60165 196.86 -6.10079 181.998 -6.10079C167.204 -6.10079 160.322 4.50561 145.598 4.601M291.399 47.4088C305.985 47.2193 312.871 36.709 327.599 36.709C342.46 36.709 349.337 47.4114 364.199 47.4114C379.06 47.4114 385.937 36.709 400.799 36.709C415.66 36.709 422.537 47.4114 437.399 47.4114M291.399 47.4088C291.266 47.4105 291.133 47.4114 290.999 47.4114M291.399 47.4088C291.531 47.4105 291.664 47.4114 291.798 47.4114M291.399 47.4088C276.812 47.2193 269.926 36.709 255.198 36.709C240.337 36.709 233.46 47.4114 218.598 47.4114C203.737 47.4114 196.86 36.709 181.998 36.709C167.204 36.709 160.322 47.3154 145.598 47.4107M291.399 15.3015C305.985 15.112 312.871 4.60165 327.599 4.60165C342.46 4.60165 349.337 15.3041 364.199 15.3041C379.06 15.3041 385.937 4.60165 400.799 4.60165C415.66 4.60165 422.537 15.3041 437.399 15.3041M291.399 15.3015C291.266 15.3032 291.133 15.3041 290.999 15.3041M291.399 15.3015C291.531 15.3032 291.664 15.3041 291.798 15.3041M291.399 15.3015C276.812 15.112 269.926 4.60165 255.198 4.60165C240.337 4.60165 233.46 15.3041 218.598 15.3041C203.737 15.3041 196.86 4.60165 181.998 4.60165C167.204 4.60165 160.322 15.208 145.598 15.3034M291.399 26.0039C305.985 25.8144 312.871 15.3041 327.599 15.3041C342.46 15.3041 349.337 26.0065 364.199 26.0065C379.06 26.0065 385.937 15.3041 400.799 15.3041C415.66 15.3041 422.537 26.0065 437.399 26.0065M291.399 26.0039C291.266 26.0056 291.133 26.0065 290.999 26.0065M291.399 26.0039C291.531 26.0056 291.664 26.0065 291.798 26.0065M291.399 26.0039C276.812 25.8144 269.926 15.3041 255.198 15.3041C240.337 15.3041 233.46 26.0065 218.598 26.0065C203.737 26.0065 196.86 15.3041 181.998 15.3041C167.204 15.3041 160.322 25.9105 145.598 26.0059M291.399 250.755C305.985 250.566 312.871 240.055 327.599 240.055C342.46 240.055 349.337 250.758 364.199 250.758C379.06 250.758 385.937 240.055 400.799 240.055C415.66 240.055 422.537 250.758 437.399 250.758M291.399 250.755C291.266 250.757 291.133 250.758 290.999 250.758M291.399 250.755C291.531 250.757 291.664 250.758 291.798 250.758M291.399 250.755C276.812 250.566 269.926 240.055 255.198 240.055C240.337 240.055 233.46 250.758 218.598 250.758C203.737 250.758 196.86 240.055 181.998 240.055C167.204 240.055 160.322 250.662 145.599 250.757M291.399 293.565C305.985 293.375 312.871 282.865 327.599 282.865C342.46 282.865 349.337 293.567 364.199 293.567C379.06 293.567 385.937 282.865 400.799 282.865C415.66 282.865 422.537 293.567 437.399 293.567M291.399 293.565C291.266 293.567 291.133 293.567 290.999 293.567M291.399 293.565C291.531 293.567 291.664 293.567 291.798 293.567M291.399 293.565C276.812 293.375 269.926 282.865 255.198 282.865C240.337 282.865 233.46 293.567 218.598 293.567C203.737 293.567 196.86 282.865 181.998 282.865C167.204 282.865 160.322 293.471 145.599 293.567M291.399 261.457C305.985 261.268 312.871 250.758 327.599 250.758C342.46 250.758 349.337 261.46 364.199 261.46C379.06 261.46 385.937 250.758 400.799 250.758C415.66 250.758 422.537 261.46 437.399 261.46M291.399 261.457C291.266 261.459 291.133 261.46 290.999 261.46M291.399 261.457C291.531 261.459 291.664 261.46 291.798 261.46M291.399 261.457C276.812 261.268 269.926 250.758 255.198 250.758C240.337 250.758 233.46 261.46 218.598 261.46C203.737 261.46 196.86 250.758 181.998 250.758C167.204 250.758 160.322 261.364 145.599 261.459M291.399 304.267C305.985 304.078 312.871 293.567 327.599 293.567C342.46 293.567 349.337 304.27 364.199 304.27C379.06 304.27 385.937 293.567 400.799 293.567C415.66 293.567 422.537 304.27 437.399 304.27M291.399 304.267C291.266 304.269 291.133 304.27 290.999 304.27M291.399 304.267C291.531 304.269 291.664 304.27 291.798 304.27M291.399 304.267C276.812 304.078 269.926 293.567 255.198 293.567C240.337 293.567 233.46 304.27 218.598 304.27C203.737 304.27 196.86 293.567 181.998 293.567C167.204 293.567 160.322 304.174 145.599 304.269M291.399 272.16C305.985 271.97 312.871 261.46 327.599 261.46C342.46 261.46 349.337 272.163 364.199 272.163C379.06 272.163 385.937 261.46 400.799 261.46C415.66 261.46 422.537 272.163 437.399 272.163M291.399 272.16C291.266 272.162 291.133 272.163 290.999 272.163M291.399 272.16C291.531 272.162 291.664 272.163 291.798 272.163M291.399 272.16C276.812 271.97 269.926 261.46 255.198 261.46C240.337 261.46 233.46 272.163 218.598 272.163C203.737 272.163 196.86 261.46 181.998 261.46C167.204 261.46 160.322 272.066 145.599 272.162M291.399 282.862C305.985 282.673 312.871 272.163 327.599 272.163C342.46 272.163 349.337 282.865 364.199 282.865C379.06 282.865 385.937 272.163 400.799 272.163C415.66 272.163 422.537 282.865 437.399 282.865M291.399 282.862C291.266 282.864 291.133 282.865 290.999 282.865M291.399 282.862C291.531 282.864 291.664 282.865 291.798 282.865M291.399 282.862C276.812 282.673 269.926 272.163 255.198 272.163C240.337 272.163 233.46 282.865 218.598 282.865C203.737 282.865 196.86 272.163 181.998 272.163C167.204 272.163 160.322 282.769 145.599 282.864M291.399 122.326C305.985 122.136 312.871 111.626 327.599 111.626C342.46 111.626 349.337 122.328 364.199 122.328C379.06 122.328 385.937 111.626 400.799 111.626C415.66 111.626 422.537 122.328 437.399 122.328M291.399 122.326C291.266 122.328 291.133 122.328 290.999 122.328M291.399 122.326C291.531 122.328 291.664 122.328 291.798 122.328M291.399 122.326C276.812 122.136 269.926 111.626 255.198 111.626C240.337 111.626 233.46 122.328 218.598 122.328C203.737 122.328 196.86 111.626 181.998 111.626C167.204 111.626 160.322 122.232 145.598 122.328M291.399 165.136C305.985 164.946 312.871 154.436 327.599 154.436C342.46 154.436 349.337 165.138 364.199 165.138C379.06 165.138 385.937 154.436 400.799 154.436C415.66 154.436 422.537 165.138 437.399 165.138M291.399 165.136C291.266 165.137 291.133 165.138 290.999 165.138M291.399 165.136C291.531 165.137 291.664 165.138 291.798 165.138M291.399 165.136C276.812 164.946 269.926 154.436 255.198 154.436C240.337 154.436 233.46 165.138 218.598 165.138C203.737 165.138 196.86 154.436 181.998 154.436C167.204 154.436 160.322 165.042 145.598 165.138M291.399 133.028C305.985 132.839 312.871 122.328 327.599 122.328C342.46 122.328 349.337 133.031 364.199 133.031C379.06 133.031 385.937 122.328 400.799 122.328C415.66 122.328 422.537 133.031 437.399 133.031M291.399 133.028C291.266 133.03 291.133 133.031 290.999 133.031M291.399 133.028C291.531 133.03 291.664 133.031 291.798 133.031M291.399 133.028C276.812 132.839 269.926 122.328 255.198 122.328C240.337 122.328 233.46 133.031 218.598 133.031C203.737 133.031 196.86 122.328 181.998 122.328C167.204 122.328 160.322 132.935 145.598 133.03M291.399 175.838C305.985 175.648 312.871 165.138 327.599 165.138C342.46 165.138 349.337 175.841 364.199 175.841C379.06 175.841 385.937 165.138 400.799 165.138C415.66 165.138 422.537 175.841 437.399 175.841M291.399 175.838C291.266 175.84 291.133 175.841 290.999 175.841M291.399 175.838C291.531 175.84 291.664 175.841 291.798 175.841M291.399 175.838C276.812 175.648 269.926 165.138 255.198 165.138C240.337 165.138 233.46 175.841 218.598 175.841C203.737 175.841 196.86 165.138 181.998 165.138C167.204 165.138 160.322 175.745 145.598 175.84M291.399 143.731C305.985 143.541 312.871 133.031 327.599 133.031C342.46 133.031 349.337 143.733 364.199 143.733C379.06 143.733 385.937 133.031 400.799 133.031C415.66 133.031 422.537 143.733 437.399 143.733M291.399 143.731C291.266 143.732 291.133 143.733 290.999 143.733M291.399 143.731C291.531 143.732 291.664 143.733 291.798 143.733M291.399 143.731C276.812 143.541 269.926 133.031 255.198 133.031C240.337 133.031 233.46 143.733 218.598 143.733C203.737 143.733 196.86 133.031 181.998 133.031C167.204 133.031 160.322 143.637 145.598 143.733M291.399 154.433C305.985 154.244 312.871 143.733 327.599 143.733C342.46 143.733 349.337 154.436 364.199 154.436C379.06 154.436 385.937 143.733 400.799 143.733C415.66 143.733 422.537 154.436 437.399 154.436M291.399 154.433C291.266 154.435 291.133 154.436 290.999 154.436M291.399 154.433C291.531 154.435 291.664 154.436 291.798 154.436M291.399 154.433C276.812 154.244 269.926 143.733 255.198 143.733C240.337 143.733 233.46 154.436 218.598 154.436C203.737 154.436 196.86 143.733 181.998 143.733C167.204 143.733 160.322 154.34 145.598 154.435M145.598 58.1132C145.532 58.1136 145.465 58.1138 145.398 58.1138M145.598 58.1132C145.665 58.1136 145.732 58.1138 145.798 58.1138M145.598 58.1132C130.875 58.0178 123.993 47.4114 109.198 47.4114C94.3369 47.4114 87.46 58.1138 72.5984 58.1138C57.7369 58.1138 50.86 47.4114 35.9984 47.4114C21.1369 47.4114 14.26 58.1138 -0.601559 58.1138M145.598 100.923C145.532 100.923 145.465 100.924 145.398 100.924M145.598 100.923C145.665 100.923 145.732 100.924 145.798 100.924M145.598 100.923C130.875 100.828 123.993 90.2211 109.198 90.2211C94.3369 90.2211 87.46 100.924 72.5984 100.924C57.7369 100.924 50.86 90.2211 35.9984 90.2211C21.1369 90.2211 14.26 100.924 -0.601559 100.924M145.598 68.8156C145.532 68.816 145.465 68.8163 145.398 68.8163M145.598 68.8156C145.665 68.816 145.732 68.8163 145.798 68.8163M145.598 68.8156C130.875 68.7202 123.993 58.1138 109.198 58.1138C94.3369 58.1138 87.46 68.8163 72.5984 68.8163C57.7369 68.8163 50.86 58.1138 35.9984 58.1138C21.1369 58.1138 14.26 68.8163 -0.601559 68.8163M145.598 111.625C145.532 111.626 145.465 111.626 145.398 111.626M145.598 111.625C145.665 111.626 145.732 111.626 145.798 111.626M145.598 111.625C130.875 111.53 123.993 100.924 109.198 100.924C94.3369 100.924 87.46 111.626 72.5984 111.626C57.7369 111.626 50.86 100.924 35.9984 100.924C21.1369 100.924 14.26 111.626 -0.601559 111.626M145.598 79.518C145.532 79.5185 145.465 79.5187 145.398 79.5187M145.598 79.518C145.665 79.5185 145.732 79.5187 145.798 79.5187M145.598 79.518C130.875 79.4227 123.993 68.8163 109.198 68.8163C94.3369 68.8163 87.46 79.5187 72.5984 79.5187C57.7369 79.5187 50.86 68.8163 35.9984 68.8163C21.1369 68.8163 14.26 79.5187 -0.601559 79.5187M145.598 90.2205C145.532 90.2209 145.465 90.2211 145.398 90.2211M145.598 90.2205C145.665 90.2209 145.732 90.2211 145.798 90.2211M145.598 90.2205C130.875 90.1251 123.993 79.5187 109.198 79.5187C94.3369 79.5187 87.46 90.2211 72.5984 90.2211C57.7369 90.2211 50.86 79.5187 35.9984 79.5187C21.1369 79.5187 14.26 90.2211 -0.601559 90.2211M145.599 314.972C145.532 314.972 145.465 314.972 145.398 314.972M145.599 314.972C145.665 314.972 145.732 314.972 145.798 314.972M145.599 314.972C130.875 314.876 123.993 304.27 109.198 304.27C94.3369 304.27 87.46 314.972 72.5984 314.972C57.7369 314.972 50.86 304.27 35.9984 304.27C21.1369 304.27 14.26 314.972 -0.601559 314.972M145.599 357.781C145.532 357.782 145.465 357.782 145.398 357.782M145.599 357.781C145.665 357.782 145.732 357.782 145.798 357.782M145.599 357.781C130.875 357.686 123.993 347.08 109.198 347.08C94.3369 347.08 87.46 357.782 72.5984 357.782C57.7369 357.782 50.86 347.08 35.9984 347.08C21.1369 347.08 14.26 357.782 -0.601559 357.782M145.599 325.674C145.532 325.674 145.465 325.675 145.398 325.675M145.599 325.674C145.665 325.674 145.732 325.675 145.798 325.675M145.599 325.674C130.875 325.579 123.993 314.972 109.198 314.972C94.3369 314.972 87.46 325.675 72.5984 325.675C57.7369 325.675 50.86 314.972 35.9984 314.972C21.1369 314.972 14.26 325.675 -0.601559 325.675M145.599 368.484C145.532 368.484 145.465 368.484 145.398 368.484M145.599 368.484C145.665 368.484 145.732 368.484 145.798 368.484M145.599 368.484C130.875 368.388 123.993 357.782 109.198 357.782C94.3369 357.782 87.46 368.484 72.5984 368.484C57.7369 368.484 50.86 357.782 35.9984 357.782C21.1369 357.782 14.26 368.484 -0.601559 368.484M145.599 336.376C145.532 336.377 145.465 336.377 145.398 336.377M145.599 336.376C145.665 336.377 145.732 336.377 145.798 336.377M145.599 336.376C130.875 336.281 123.993 325.675 109.198 325.675C94.3369 325.675 87.46 336.377 72.5984 336.377C57.7369 336.377 50.86 325.675 35.9984 325.675C21.1369 325.675 14.26 336.377 -0.601559 336.377M145.599 347.079C145.532 347.079 145.465 347.08 145.398 347.08M145.599 347.079C145.665 347.079 145.732 347.08 145.798 347.08M145.599 347.079C130.875 346.983 123.993 336.377 109.198 336.377C94.3369 336.377 87.46 347.08 72.5984 347.08C57.7369 347.08 50.86 336.377 35.9984 336.377C21.1369 336.377 14.26 347.08 -0.601559 347.08M145.598 186.542C145.532 186.543 145.465 186.543 145.398 186.543M145.598 186.542C145.665 186.543 145.732 186.543 145.798 186.543M145.598 186.542C130.875 186.447 123.993 175.841 109.198 175.841C94.3369 175.841 87.46 186.543 72.5984 186.543C57.7369 186.543 50.86 175.841 35.9984 175.841C21.1369 175.841 14.26 186.543 -0.601559 186.543M145.598 229.352C145.532 229.353 145.465 229.353 145.398 229.353M145.598 229.352C145.665 229.353 145.732 229.353 145.798 229.353M145.598 229.352C130.875 229.257 123.993 218.65 109.198 218.65C94.3369 218.65 87.46 229.353 72.5984 229.353C57.7369 229.353 50.86 218.65 35.9984 218.65C21.1369 218.65 14.26 229.353 -0.601559 229.353M145.598 197.245C145.532 197.245 145.465 197.245 145.398 197.245M145.598 197.245C145.665 197.245 145.732 197.245 145.798 197.245M145.598 197.245C130.875 197.149 123.993 186.543 109.198 186.543C94.3369 186.543 87.46 197.245 72.5984 197.245C57.7369 197.245 50.86 186.543 35.9984 186.543C21.1369 186.543 14.26 197.245 -0.601559 197.245M145.598 240.055C145.532 240.055 145.465 240.055 145.398 240.055M145.598 240.055C145.665 240.055 145.732 240.055 145.798 240.055M145.598 240.055C130.875 239.959 123.993 229.353 109.198 229.353C94.3369 229.353 87.46 240.055 72.5984 240.055C57.7369 240.055 50.86 229.353 35.9984 229.353C21.1369 229.353 14.26 240.055 -0.601559 240.055M145.598 207.947C145.532 207.948 145.465 207.948 145.398 207.948M145.598 207.947C145.665 207.948 145.732 207.948 145.798 207.948M145.598 207.947C130.875 207.852 123.993 197.245 109.198 197.245C94.3369 197.245 87.46 207.948 72.5984 207.948C57.7369 207.948 50.86 197.245 35.9984 197.245C21.1369 197.245 14.26 207.948 -0.601559 207.948M145.598 218.65C145.532 218.65 145.465 218.65 145.398 218.65M145.598 218.65C145.665 218.65 145.732 218.65 145.798 218.65M145.598 218.65C130.875 218.554 123.993 207.948 109.198 207.948C94.3369 207.948 87.46 218.65 72.5984 218.65C57.7369 218.65 50.86 207.948 35.9984 207.948C21.1369 207.948 14.26 218.65 -0.601559 218.65M145.598 -6.10143C145.532 -6.101 145.465 -6.10079 145.398 -6.10079M145.598 -6.10143C145.665 -6.101 145.732 -6.10079 145.798 -6.10079M145.598 -6.10143C130.875 -6.19682 123.993 -16.8032 109.198 -16.8032C94.3369 -16.8032 87.4599 -6.10079 72.5984 -6.10079C57.7369 -6.10079 50.86 -16.8032 35.9984 -16.8032C21.1369 -16.8032 14.26 -6.10079 -0.601562 -6.10079M145.598 36.7083C145.532 36.7087 145.465 36.709 145.398 36.709M145.598 36.7083C145.665 36.7087 145.732 36.709 145.798 36.709M145.598 36.7083C130.875 36.6129 123.993 26.0065 109.198 26.0065C94.3369 26.0065 87.4599 36.709 72.5984 36.709C57.7369 36.709 50.86 26.0065 35.9984 26.0065C21.1369 26.0065 14.26 36.709 -0.601562 36.709M145.598 4.601C145.532 4.60143 145.465 4.60165 145.398 4.60165M145.598 4.601C145.665 4.60143 145.732 4.60165 145.798 4.60165M145.598 4.601C130.875 4.50561 123.993 -6.10079 109.198 -6.10079C94.3369 -6.10079 87.4599 4.60165 72.5984 4.60165C57.7369 4.60165 50.86 -6.10079 35.9984 -6.10079C21.1369 -6.10079 14.26 4.60165 -0.601562 4.60165M145.598 47.4107C145.532 47.4112 145.465 47.4114 145.398 47.4114M145.598 47.4107C145.665 47.4112 145.732 47.4114 145.798 47.4114M145.598 47.4107C130.875 47.3154 123.993 36.709 109.198 36.709C94.3369 36.709 87.4599 47.4114 72.5984 47.4114C57.7369 47.4114 50.86 36.709 35.9984 36.709C21.1369 36.709 14.26 47.4114 -0.601562 47.4114M145.598 15.3034C145.532 15.3039 145.465 15.3041 145.398 15.3041M145.598 15.3034C145.665 15.3039 145.732 15.3041 145.798 15.3041M145.598 15.3034C130.875 15.208 123.993 4.60165 109.198 4.60165C94.3369 4.60165 87.4599 15.3041 72.5984 15.3041C57.7369 15.3041 50.86 4.60165 35.9984 4.60165C21.1369 4.60165 14.26 15.3041 -0.601562 15.3041M145.598 26.0059C145.532 26.0063 145.465 26.0065 145.398 26.0065M145.598 26.0059C145.665 26.0063 145.732 26.0065 145.798 26.0065M145.598 26.0059C130.875 25.9105 123.993 15.3041 109.198 15.3041C94.3369 15.3041 87.4599 26.0065 72.5984 26.0065C57.7369 26.0065 50.86 15.3041 35.9984 15.3041C21.1369 15.3041 14.26 26.0065 -0.601562 26.0065M145.599 250.757L145.532 250.757C145.487 250.758 145.443 250.758 145.398 250.758M145.599 250.757C145.665 250.757 145.732 250.758 145.798 250.758M145.599 250.757C130.875 250.662 123.993 240.055 109.198 240.055C94.3369 240.055 87.4599 250.758 72.5984 250.758C57.7369 250.758 50.86 240.055 35.9984 240.055C21.1369 240.055 14.26 250.758 -0.601562 250.758M145.599 293.567C145.532 293.567 145.465 293.567 145.398 293.567M145.599 293.567C145.64 293.567 145.681 293.567 145.722 293.567L145.798 293.567M145.599 293.567C130.875 293.471 123.993 282.865 109.198 282.865C94.3369 282.865 87.4599 293.567 72.5984 293.567C57.7369 293.567 50.86 282.865 35.9984 282.865C21.1369 282.865 14.26 293.567 -0.601562 293.567M145.599 261.459C145.532 261.46 145.465 261.46 145.398 261.46M145.599 261.459C145.665 261.46 145.732 261.46 145.798 261.46M145.599 261.459C130.875 261.364 123.993 250.758 109.198 250.758C94.3369 250.758 87.4599 261.46 72.5984 261.46C57.7369 261.46 50.86 250.758 35.9984 250.758C21.1369 250.758 14.26 261.46 -0.601562 261.46M145.599 304.269C145.532 304.27 145.465 304.27 145.398 304.27M145.599 304.269C145.665 304.27 145.732 304.27 145.798 304.27M145.599 304.269C130.875 304.174 123.993 293.567 109.198 293.567C94.3369 293.567 87.4599 304.27 72.5984 304.27C57.7369 304.27 50.86 293.567 35.9984 293.567C21.1369 293.567 14.26 304.27 -0.601562 304.27M145.599 272.162C145.532 272.162 145.465 272.163 145.398 272.163M145.599 272.162C145.665 272.162 145.732 272.163 145.798 272.163M145.599 272.162C130.875 272.066 123.993 261.46 109.198 261.46C94.3369 261.46 87.4599 272.163 72.5984 272.163C57.7369 272.163 50.86 261.46 35.9984 261.46C21.1369 261.46 14.26 272.163 -0.601562 272.163M145.599 282.864C145.532 282.865 145.465 282.865 145.398 282.865M145.599 282.864C145.665 282.865 145.732 282.865 145.798 282.865M145.599 282.864C130.875 282.769 123.993 272.163 109.198 272.163C94.3369 272.163 87.4599 282.865 72.5984 282.865C57.7369 282.865 50.86 272.163 35.9984 272.163C21.1369 272.163 14.26 282.865 -0.601562 282.865M145.598 122.328C145.532 122.328 145.465 122.328 145.398 122.328M145.598 122.328C145.665 122.328 145.732 122.328 145.798 122.328M145.598 122.328C130.875 122.232 123.993 111.626 109.198 111.626C94.3369 111.626 87.46 122.328 72.5984 122.328C57.7369 122.328 50.86 111.626 35.9984 111.626C21.1369 111.626 14.26 122.328 -0.601559 122.328M145.598 165.138C145.532 165.138 145.465 165.138 145.398 165.138M145.598 165.138C145.665 165.138 145.732 165.138 145.798 165.138M145.598 165.138C130.875 165.042 123.993 154.436 109.198 154.436C94.3369 154.436 87.46 165.138 72.5984 165.138C57.7369 165.138 50.86 154.436 35.9984 154.436C21.1369 154.436 14.26 165.138 -0.601559 165.138M145.598 133.03C145.532 133.031 145.465 133.031 145.398 133.031M145.598 133.03C145.665 133.031 145.732 133.031 145.798 133.031M145.598 133.03C130.875 132.935 123.993 122.328 109.198 122.328C94.3369 122.328 87.46 133.031 72.5984 133.031C57.7369 133.031 50.86 122.328 35.9984 122.328C21.1369 122.328 14.26 133.031 -0.601559 133.031M145.598 175.84C145.532 175.84 145.465 175.841 145.398 175.841M145.598 175.84C145.665 175.84 145.732 175.841 145.798 175.841M145.598 175.84C130.875 175.745 123.993 165.138 109.198 165.138C94.3369 165.138 87.46 175.841 72.5984 175.841C57.7369 175.841 50.86 165.138 35.9984 165.138C21.1369 165.138 14.26 175.841 -0.601559 175.841M145.598 143.733C145.532 143.733 145.465 143.733 145.398 143.733M145.598 143.733C145.665 143.733 145.732 143.733 145.798 143.733M145.598 143.733C130.875 143.637 123.993 133.031 109.198 133.031C94.3369 133.031 87.46 143.733 72.5984 143.733C57.7369 143.733 50.86 133.031 35.9984 133.031C21.1369 133.031 14.26 143.733 -0.601559 143.733M145.598 154.435C145.532 154.436 145.465 154.436 145.398 154.436M145.598 154.435C145.665 154.436 145.732 154.436 145.798 154.436M145.598 154.435C130.875 154.34 123.993 143.733 109.198 143.733C94.3369 143.733 87.46 154.436 72.5984 154.436C57.7369 154.436 50.86 143.733 35.9984 143.733C21.1369 143.733 14.26 154.436 -0.601559 154.436M291.399 828.687C305.985 828.497 312.871 817.987 327.599 817.987C342.46 817.987 349.337 828.689 364.199 828.689C379.06 828.689 385.937 817.987 400.799 817.987C415.66 817.987 422.537 828.689 437.399 828.689M291.399 828.687C291.266 828.688 291.133 828.689 290.999 828.689M291.399 828.687C291.531 828.688 291.664 828.689 291.798 828.689M291.399 828.687C276.812 828.497 269.926 817.987 255.198 817.987C240.337 817.987 233.46 828.689 218.598 828.689C203.737 828.689 196.86 817.987 181.998 817.987C167.204 817.987 160.322 828.593 145.598 828.688M291.399 871.496C305.985 871.307 312.871 860.796 327.599 860.796C342.46 860.796 349.337 871.499 364.199 871.499C379.06 871.499 385.937 860.796 400.799 860.796C415.66 860.796 422.537 871.499 437.399 871.499M291.399 871.496C291.266 871.498 291.133 871.499 290.999 871.499M291.399 871.496C291.531 871.498 291.664 871.499 291.798 871.499M291.399 871.496C276.812 871.307 269.926 860.796 255.198 860.796C240.337 860.796 233.46 871.499 218.598 871.499C203.737 871.499 196.86 860.796 181.998 860.796C167.204 860.796 160.322 871.403 145.598 871.498M291.399 839.389C305.985 839.199 312.871 828.689 327.599 828.689C342.46 828.689 349.337 839.392 364.199 839.392C379.06 839.392 385.937 828.689 400.799 828.689C415.66 828.689 422.537 839.392 437.399 839.392M291.399 839.389C291.266 839.391 291.133 839.392 290.999 839.392M291.399 839.389C291.531 839.391 291.664 839.392 291.798 839.392M291.399 839.389C276.812 839.199 269.926 828.689 255.198 828.689C240.337 828.689 233.46 839.392 218.598 839.392C203.737 839.392 196.86 828.689 181.998 828.689C167.204 828.689 160.322 839.296 145.598 839.391M291.399 882.199C305.985 882.009 312.871 871.499 327.599 871.499C342.46 871.499 349.337 882.201 364.199 882.201C379.06 882.201 385.937 871.499 400.799 871.499C415.66 871.499 422.537 882.201 437.399 882.201M291.399 882.199C291.266 882.2 291.133 882.201 290.999 882.201M291.399 882.199C291.531 882.2 291.664 882.201 291.798 882.201M291.399 882.199C276.812 882.009 269.926 871.499 255.198 871.499C240.337 871.499 233.46 882.201 218.598 882.201C203.737 882.201 196.86 871.499 181.998 871.499C167.204 871.499 160.322 882.105 145.598 882.201M291.399 850.091C305.985 849.902 312.871 839.392 327.599 839.392C342.46 839.392 349.337 850.094 364.199 850.094C379.06 850.094 385.937 839.392 400.799 839.392C415.66 839.392 422.537 850.094 437.399 850.094M291.399 850.091C291.266 850.093 291.133 850.094 290.999 850.094M291.399 850.091C291.531 850.093 291.664 850.094 291.798 850.094M291.399 850.091C276.812 849.902 269.926 839.392 255.198 839.392C240.337 839.392 233.46 850.094 218.598 850.094C203.737 850.094 196.86 839.392 181.998 839.392C167.204 839.392 160.322 849.998 145.598 850.093M291.399 860.794C305.985 860.604 312.871 850.094 327.599 850.094C342.46 850.094 349.337 860.796 364.199 860.796C379.06 860.796 385.937 850.094 400.799 850.094C415.66 850.094 422.537 860.796 437.399 860.796M291.399 860.794C291.266 860.796 291.133 860.796 290.999 860.796M291.399 860.794C291.531 860.796 291.664 860.796 291.798 860.796M291.399 860.794C276.812 860.604 269.926 850.094 255.198 850.094C240.337 850.094 233.46 860.796 218.598 860.796C203.737 860.796 196.86 850.094 181.998 850.094C167.204 850.094 160.322 860.7 145.598 860.796M291.399 764.472C305.985 764.282 312.871 753.772 327.599 753.772C342.46 753.772 349.337 764.475 364.199 764.475C379.06 764.475 385.937 753.772 400.799 753.772C415.66 753.772 422.537 764.475 437.399 764.475M291.399 764.472C291.266 764.474 291.133 764.475 290.999 764.475M291.399 764.472C291.531 764.474 291.664 764.475 291.798 764.475M291.399 764.472C276.812 764.282 269.926 753.772 255.198 753.772C240.337 753.772 233.46 764.475 218.598 764.475C203.737 764.475 196.86 753.772 181.998 753.772C167.204 753.772 160.322 764.378 145.598 764.474M291.399 807.282C305.985 807.092 312.871 796.582 327.599 796.582C342.46 796.582 349.337 807.284 364.199 807.284C379.06 807.284 385.937 796.582 400.799 796.582C415.66 796.582 422.537 807.284 437.399 807.284M291.399 807.282C291.266 807.283 291.133 807.284 290.999 807.284M291.399 807.282C291.531 807.283 291.664 807.284 291.798 807.284M291.399 807.282C276.812 807.092 269.926 796.582 255.198 796.582C240.337 796.582 233.46 807.284 218.598 807.284C203.737 807.284 196.86 796.582 181.998 796.582C167.204 796.582 160.322 807.188 145.598 807.284M291.399 775.174C305.985 774.985 312.871 764.475 327.599 764.475C342.46 764.475 349.337 775.177 364.199 775.177C379.06 775.177 385.937 764.475 400.799 764.475C415.66 764.475 422.537 775.177 437.399 775.177M291.399 775.174C291.266 775.176 291.133 775.177 290.999 775.177M291.399 775.174C291.531 775.176 291.664 775.177 291.798 775.177M291.399 775.174C276.812 774.985 269.926 764.475 255.198 764.475C240.337 764.475 233.46 775.177 218.598 775.177C203.737 775.177 196.86 764.475 181.998 764.475C167.204 764.475 160.322 775.081 145.598 775.176M291.399 817.984C305.985 817.795 312.871 807.284 327.599 807.284C342.46 807.284 349.337 817.987 364.199 817.987C379.06 817.987 385.937 807.284 400.799 807.284C415.66 807.284 422.537 817.987 437.399 817.987M291.399 817.984C291.266 817.986 291.133 817.987 290.999 817.987M291.399 817.984C291.531 817.986 291.664 817.987 291.798 817.987M291.399 817.984C276.812 817.795 269.926 807.284 255.198 807.284C240.337 807.284 233.46 817.987 218.598 817.987C203.737 817.987 196.86 807.284 181.998 807.284C167.204 807.284 160.322 817.891 145.598 817.986M291.399 785.877C305.985 785.687 312.871 775.177 327.599 775.177C342.46 775.177 349.337 785.879 364.199 785.879C379.06 785.879 385.937 775.177 400.799 775.177C415.66 775.177 422.537 785.879 437.399 785.879M291.399 785.877C291.266 785.879 291.133 785.879 290.999 785.879M291.399 785.877C291.531 785.879 291.664 785.879 291.798 785.879M291.399 785.877C276.812 785.687 269.926 775.177 255.198 775.177C240.337 775.177 233.46 785.879 218.598 785.879C203.737 785.879 196.86 775.177 181.998 775.177C167.204 775.177 160.322 785.783 145.598 785.879M291.399 796.579C305.985 796.39 312.871 785.879 327.599 785.879C342.46 785.879 349.337 796.582 364.199 796.582C379.06 796.582 385.937 785.879 400.799 785.879C415.66 785.879 422.537 796.582 437.399 796.582M291.399 796.579C291.266 796.581 291.133 796.582 290.999 796.582M291.399 796.579C291.531 796.581 291.664 796.582 291.798 796.582M291.399 796.579C276.812 796.39 269.926 785.879 255.198 785.879C240.337 785.879 233.46 796.582 218.598 796.582C203.737 796.582 196.86 785.879 181.998 785.879C167.204 785.879 160.322 796.486 145.598 796.581M291.399 892.901C305.985 892.712 312.871 882.201 327.599 882.201C342.46 882.201 349.337 892.904 364.199 892.904C379.06 892.904 385.937 882.201 400.799 882.201C415.66 882.201 422.537 892.904 437.399 892.904M291.399 892.901C291.266 892.903 291.133 892.904 290.999 892.904M291.399 892.901C291.531 892.903 291.664 892.904 291.798 892.904M291.399 892.901C276.812 892.712 269.926 882.201 255.198 882.201C240.337 882.201 233.46 892.904 218.598 892.904C203.737 892.904 196.86 882.201 181.998 882.201C167.204 882.201 160.322 892.808 145.598 892.903M145.598 828.688C145.532 828.689 145.465 828.689 145.398 828.689M145.598 828.688C145.665 828.689 145.732 828.689 145.798 828.689M145.598 828.688C130.875 828.593 123.993 817.987 109.198 817.987C94.3369 817.987 87.46 828.689 72.5984 828.689C57.7369 828.689 50.86 817.987 35.9984 817.987C21.1369 817.987 14.26 828.689 -0.601559 828.689M145.598 871.498C145.532 871.499 145.465 871.499 145.398 871.499M145.598 871.498C145.665 871.499 145.732 871.499 145.798 871.499M145.598 871.498C130.875 871.403 123.993 860.796 109.198 860.796C94.3369 860.796 87.46 871.499 72.5984 871.499C57.7369 871.499 50.86 860.796 35.9984 860.796C21.1369 860.796 14.26 871.499 -0.601559 871.499M145.598 839.391C145.532 839.391 145.465 839.392 145.398 839.392M145.598 839.391C145.665 839.391 145.732 839.392 145.798 839.392M145.598 839.391C130.875 839.296 123.993 828.689 109.198 828.689C94.3369 828.689 87.46 839.392 72.5984 839.392C57.7369 839.392 50.86 828.689 35.9984 828.689C21.1369 828.689 14.26 839.392 -0.601559 839.392M145.598 882.201C145.532 882.201 145.465 882.201 145.398 882.201M145.598 882.201C145.665 882.201 145.732 882.201 145.798 882.201M145.598 882.201C130.875 882.105 123.993 871.499 109.198 871.499C94.3369 871.499 87.46 882.201 72.5984 882.201C57.7369 882.201 50.86 871.499 35.9984 871.499C21.1369 871.499 14.26 882.201 -0.601559 882.201M145.598 850.093C145.532 850.094 145.465 850.094 145.398 850.094M145.598 850.093C145.665 850.094 145.732 850.094 145.798 850.094M145.598 850.093C130.875 849.998 123.993 839.392 109.198 839.392C94.3369 839.392 87.46 850.094 72.5984 850.094C57.7369 850.094 50.86 839.392 35.9984 839.392C21.1369 839.392 14.26 850.094 -0.601559 850.094M145.598 860.796C145.532 860.796 145.465 860.796 145.398 860.796M145.598 860.796C145.665 860.796 145.732 860.796 145.798 860.796M145.598 860.796C130.875 860.7 123.993 850.094 109.198 850.094C94.3369 850.094 87.46 860.796 72.5984 860.796C57.7369 860.796 50.86 850.094 35.9984 850.094C21.1369 850.094 14.26 860.796 -0.601559 860.796M145.598 764.474C145.532 764.474 145.465 764.475 145.398 764.475M145.598 764.474C145.665 764.474 145.732 764.475 145.798 764.475M145.598 764.474C130.875 764.378 123.993 753.772 109.198 753.772C94.3369 753.772 87.4599 764.475 72.5984 764.475C57.7369 764.475 50.86 753.772 35.9984 753.772C21.1369 753.772 14.26 764.475 -0.601562 764.475M145.598 807.284C145.532 807.284 145.465 807.284 145.398 807.284M145.598 807.284C145.665 807.284 145.732 807.284 145.798 807.284M145.598 807.284C130.875 807.188 123.993 796.582 109.198 796.582C94.3369 796.582 87.4599 807.284 72.5984 807.284C57.7369 807.284 50.86 796.582 35.9984 796.582C21.1369 796.582 14.26 807.284 -0.601562 807.284M145.598 775.176C145.532 775.177 145.465 775.177 145.398 775.177M145.598 775.176C145.665 775.177 145.732 775.177 145.798 775.177M145.598 775.176C130.875 775.081 123.993 764.475 109.198 764.475C94.3369 764.475 87.4599 775.177 72.5984 775.177C57.7369 775.177 50.86 764.475 35.9984 764.475C21.1369 764.475 14.26 775.177 -0.601562 775.177M145.598 817.986C145.532 817.987 145.465 817.987 145.398 817.987M145.598 817.986C145.665 817.987 145.732 817.987 145.798 817.987M145.598 817.986C130.875 817.891 123.993 807.284 109.198 807.284C94.3369 807.284 87.4599 817.987 72.5984 817.987C57.7369 817.987 50.86 807.284 35.9984 807.284C21.1369 807.284 14.26 817.987 -0.601562 817.987M145.598 785.879C145.532 785.879 145.465 785.879 145.398 785.879M145.598 785.879C145.665 785.879 145.732 785.879 145.798 785.879M145.598 785.879C130.875 785.783 123.993 775.177 109.198 775.177C94.3369 775.177 87.4599 785.879 72.5984 785.879C57.7369 785.879 50.86 775.177 35.9984 775.177C21.1369 775.177 14.26 785.879 -0.601562 785.879M145.598 796.581C145.532 796.582 145.465 796.582 145.398 796.582M145.598 796.581C145.665 796.582 145.732 796.582 145.798 796.582M145.598 796.581C130.875 796.486 123.993 785.879 109.198 785.879C94.3369 785.879 87.4599 796.582 72.5984 796.582C57.7369 796.582 50.86 785.879 35.9984 785.879C21.1369 785.879 14.26 796.582 -0.601562 796.582M145.598 892.903C145.532 892.904 145.465 892.904 145.398 892.904M145.598 892.903C145.665 892.904 145.732 892.904 145.798 892.904M145.598 892.903C130.875 892.808 123.993 882.201 109.198 882.201C94.3369 882.201 87.46 892.904 72.5984 892.904C57.7369 892.904 50.86 882.201 35.9984 882.201C21.1369 882.201 14.26 892.904 -0.601559 892.904" stroke="#76BA53" stroke-width="2" stroke-miterlimit="16"/>
</g>
<defs>
<clipPath id="clip0_1421_2060">
<rect width="437" height="884" fill="white" transform="translate(0.398438 0.196777)"/>
</clipPath>
</defs>
</svg>
