<svg width="438" height="885" viewBox="0 0 438 885" fill="none" xmlns="http://www.w3.org/2000/svg">
<g clip-path="url(#clip0_1485_4516)">
<g opacity="0.5">
<path d="M20.9568 107.195H-6.80742V109.441H20.9568V107.195Z" fill="#26B7A6"/>
<path d="M136.769 124.603H164.533V126.849H136.769V124.603Z" fill="#26B7A6"/>
<path d="M-14.7376 145.367H-42.5019V147.613H-14.7376V145.367Z" fill="#26B7A6"/>
<path d="M83.6215 107.195H74.1023V109.441H83.6215V107.195Z" fill="#26B7A6"/>
<path d="M74.111 124.603H83.6302V126.849H74.111V124.603Z" fill="#26B7A6"/>
<path d="M47.92 145.367H38.4009V147.613H47.92V145.367Z" fill="#26B7A6"/>
<path d="M123.288 111.124V104.947H191.508V111.124H123.288Z" fill="#26B7A6"/>
<path d="M34.445 128.526V122.35H-33.7757V128.526H34.445Z" fill="#26B7A6"/>
<path d="M87.5861 149.311V143.134H155.807V149.311H87.5861Z" fill="#26B7A6"/>
<path d="M43.9658 111.124V104.947H61.4176V111.124H43.9658Z" fill="#26B7A6"/>
<path d="M113.774 128.526V122.35H96.3219V128.526H113.774Z" fill="#26B7A6"/>
<path d="M8.27137 149.311V143.134H25.7232V149.311H8.27137Z" fill="#26B7A6"/>
<path d="M20.9568 183.501H-6.80742V185.747H20.9568V183.501Z" fill="#26B7A6"/>
<path d="M136.769 200.908H164.533V203.154H136.769V200.908Z" fill="#26B7A6"/>
<path d="M-14.7376 221.673H-42.5019V223.919H-14.7376V221.673Z" fill="#26B7A6"/>
<path d="M83.6215 183.501H74.1023V185.747H83.6215V183.501Z" fill="#26B7A6"/>
<path d="M74.111 200.908H83.6302V203.154H74.111V200.908Z" fill="#26B7A6"/>
<path d="M47.92 221.673H38.4009V223.919H47.92V221.673Z" fill="#26B7A6"/>
<path d="M34.445 204.832V198.655H-33.7757V204.832H34.445Z" fill="#26B7A6"/>
<path d="M87.5861 225.616V219.44H155.807V225.616H87.5861Z" fill="#26B7A6"/>
<path d="M43.9658 187.429V181.253H61.4176V187.429H43.9658Z" fill="#26B7A6"/>
<path d="M113.774 204.832V198.655H96.3219V204.832H113.774Z" fill="#26B7A6"/>
<path d="M8.27137 225.616V219.44H25.7232V225.616H8.27137Z" fill="#26B7A6"/>
<path d="M20.9568 336.112H-6.80742V338.358H20.9568V336.112Z" fill="#26B7A6"/>
<path d="M136.769 353.519H164.533V355.765H136.769V353.519Z" fill="#26B7A6"/>
<path d="M-14.7376 374.284H-42.5019V376.53H-14.7376V374.284Z" fill="#26B7A6"/>
<path d="M83.6215 336.112H74.1023V338.358H83.6215V336.112Z" fill="#26B7A6"/>
<path d="M74.111 353.519H83.6302V355.765H74.111V353.519Z" fill="#26B7A6"/>
<path d="M47.92 374.284H38.4009V376.53H47.92V374.284Z" fill="#26B7A6"/>
<path d="M123.288 340.04V333.864H191.508V340.04H123.288Z" fill="#26B7A6"/>
<path d="M34.445 357.443V351.266H-33.7757V357.443H34.445Z" fill="#26B7A6"/>
<path d="M43.9658 340.04V333.864H61.4176V340.04H43.9658Z" fill="#26B7A6"/>
<path d="M113.774 357.443V351.266H96.3219V357.443H113.774Z" fill="#26B7A6"/>
<path d="M8.27137 378.227V372.051H25.7232V378.227H8.27137Z" fill="#26B7A6"/>
<path d="M20.9568 412.417H-6.80742V414.663H20.9568V412.417Z" fill="#26B7A6"/>
<path d="M-14.7376 450.589H-42.5019V452.835H-14.7376V450.589Z" fill="#26B7A6"/>
<path d="M83.6215 412.417H74.1023V414.663H83.6215V412.417Z" fill="#26B7A6"/>
<path d="M74.111 429.825H83.6302V432.071H74.111V429.825Z" fill="#26B7A6"/>
<path d="M47.92 450.589H38.4009V452.835H47.92V450.589Z" fill="#26B7A6"/>
<path d="M34.445 433.748V427.572H-33.7757V433.748H34.445Z" fill="#26B7A6"/>
<path d="M43.9658 416.346V410.169H61.4176V416.346H43.9658Z" fill="#26B7A6"/>
<path d="M113.774 433.748V427.572H96.3219V433.748H113.774Z" fill="#26B7A6"/>
<path d="M8.27137 454.533V448.356H25.7232V454.533H8.27137Z" fill="#26B7A6"/>
<path d="M20.9568 565.028H-6.80742V567.274H20.9568V565.028Z" fill="#26B7A6"/>
<path d="M136.769 582.436H164.533V584.682H136.769V582.436Z" fill="#26B7A6"/>
<path d="M-14.7376 603.201H-42.5019V605.446H-14.7376V603.201Z" fill="#26B7A6"/>
<path d="M83.6215 565.028H74.1023V567.274H83.6215V565.028Z" fill="#26B7A6"/>
<path d="M74.111 582.436H83.6302V584.682H74.111V582.436Z" fill="#26B7A6"/>
<path d="M47.92 603.201H38.4009V605.446H47.92V603.201Z" fill="#26B7A6"/>
<path d="M123.288 568.957V562.78H191.508V568.957H123.288Z" fill="#26B7A6"/>
<path d="M34.445 586.359V580.183H-33.7757V586.359H34.445Z" fill="#26B7A6"/>
<path d="M87.5861 607.144V600.967H155.807V607.144H87.5861Z" fill="#26B7A6"/>
<path d="M43.9658 568.957V562.78H61.4176V568.957H43.9658Z" fill="#26B7A6"/>
<path d="M113.774 586.359V580.183H96.3219V586.359H113.774Z" fill="#26B7A6"/>
<path d="M8.27137 607.144V600.967H25.7232V607.144H8.27137Z" fill="#26B7A6"/>
<path d="M341.902 69.0424H369.666V71.2883H341.902V69.0424Z" fill="#26B7A6"/>
<path d="M226.09 86.4499H198.326V88.6959H226.09V86.4499Z" fill="#26B7A6"/>
<path d="M377.596 107.215H405.361V109.461H377.596V107.215Z" fill="#26B7A6"/>
<path d="M279.237 69.0424H288.756V71.2883H279.237V69.0424Z" fill="#26B7A6"/>
<path d="M288.748 86.4499H279.228V88.6959H288.748V86.4499Z" fill="#26B7A6"/>
<path d="M314.939 107.215H324.458V109.461H314.939V107.215Z" fill="#26B7A6"/>
<path d="M239.571 72.9708V66.7943H171.35V72.9708H239.571Z" fill="#26B7A6"/>
<path d="M328.414 90.3734V84.1969H396.634V90.3734H328.414Z" fill="#26B7A6"/>
<path d="M275.273 111.158V104.981H207.052V111.158H275.273Z" fill="#26B7A6"/>
<path d="M318.893 72.9708V66.7943H301.441V72.9708H318.893Z" fill="#26B7A6"/>
<path d="M249.085 90.3734V84.1969H266.537V90.3734H249.085Z" fill="#26B7A6"/>
<path d="M354.587 111.158V104.981H337.135V111.158H354.587Z" fill="#26B7A6"/>
<path d="M341.902 -7.26317H369.666V-5.01717H341.902V-7.26317Z" fill="#26B7A6"/>
<path d="M226.09 10.1444H198.326V12.3904H226.09V10.1444Z" fill="#26B7A6"/>
<path d="M377.596 30.9091H405.361V33.1551H377.596V30.9091Z" fill="#26B7A6"/>
<path d="M279.237 -7.26317H288.756V-5.01717H279.237V-7.26317Z" fill="#26B7A6"/>
<path d="M288.748 10.1444H279.228V12.3904H288.748V10.1444Z" fill="#26B7A6"/>
<path d="M314.939 30.9091H324.458V33.1551H314.939V30.9091Z" fill="#26B7A6"/>
<path d="M239.571 -3.33472V-9.51123H171.35V-3.33472H239.571Z" fill="#26B7A6"/>
<path d="M328.414 14.0678V7.89134H396.634V14.0678H328.414Z" fill="#26B7A6"/>
<path d="M275.273 34.8524V28.6759H207.052V34.8524H275.273Z" fill="#26B7A6"/>
<path d="M318.893 -3.33472V-9.51123H301.441V-3.33472H318.893Z" fill="#26B7A6"/>
<path d="M249.085 14.0678V7.89134H266.537V14.0678H249.085Z" fill="#26B7A6"/>
<path d="M354.587 34.8524V28.6759H337.135V34.8524H354.587Z" fill="#26B7A6"/>
<path d="M341.902 221.653H369.666V223.899H341.902V221.653Z" fill="#26B7A6"/>
<path d="M226.09 239.061H198.326V241.307H226.09V239.061Z" fill="#26B7A6"/>
<path d="M377.596 259.826H405.361V262.072H377.596V259.826Z" fill="#26B7A6"/>
<path d="M279.237 221.653H288.756V223.899H279.237V221.653Z" fill="#26B7A6"/>
<path d="M288.748 239.061H279.228V241.307H288.748V239.061Z" fill="#26B7A6"/>
<path d="M314.939 259.826H324.458V262.072H314.939V259.826Z" fill="#26B7A6"/>
<path d="M239.571 225.582V219.405H171.35V225.582H239.571Z" fill="#26B7A6"/>
<path d="M328.414 242.984V236.808H396.634V242.984H328.414Z" fill="#26B7A6"/>
<path d="M275.273 263.769V257.593H207.052V263.769H275.273Z" fill="#26B7A6"/>
<path d="M318.893 225.582V219.405H301.441V225.582H318.893Z" fill="#26B7A6"/>
<path d="M249.085 242.984V236.808H266.537V242.984H249.085Z" fill="#26B7A6"/>
<path d="M354.587 263.769V257.593H337.135V263.769H354.587Z" fill="#26B7A6"/>
<path d="M341.902 297.959H369.666V300.205H341.902V297.959Z" fill="#26B7A6"/>
<path d="M226.09 315.366H198.326V317.612H226.09V315.366Z" fill="#26B7A6"/>
<path d="M377.596 336.131H405.361V338.377H377.596V336.131Z" fill="#26B7A6"/>
<path d="M279.237 297.959H288.756V300.205H279.237V297.959Z" fill="#26B7A6"/>
<path d="M288.748 315.366H279.228V317.612H288.748V315.366Z" fill="#26B7A6"/>
<path d="M314.939 336.131H324.458V338.377H314.939V336.131Z" fill="#26B7A6"/>
<path d="M328.414 319.29V313.113H396.634V319.29H328.414Z" fill="#26B7A6"/>
<path d="M275.273 340.075V333.898H207.052V340.075H275.273Z" fill="#26B7A6"/>
<path d="M318.893 301.887V295.711H301.441V301.887H318.893Z" fill="#26B7A6"/>
<path d="M249.085 319.29V313.113H266.537V319.29H249.085Z" fill="#26B7A6"/>
<path d="M354.587 340.075V333.898H337.135V340.075H354.587Z" fill="#26B7A6"/>
<path d="M226.09 467.978H198.326V470.223H226.09V467.978Z" fill="#26B7A6"/>
<path d="M377.596 488.742H405.361V490.988H377.596V488.742Z" fill="#26B7A6"/>
<path d="M288.748 467.978H279.228V470.223H288.748V467.978Z" fill="#26B7A6"/>
<path d="M314.939 488.742H324.458V490.988H314.939V488.742Z" fill="#26B7A6"/>
<path d="M328.414 471.901V465.724H396.634V471.901H328.414Z" fill="#26B7A6"/>
<path d="M275.273 492.686V486.509H207.052V492.686H275.273Z" fill="#26B7A6"/>
<path d="M249.085 471.901V465.724H266.537V471.901H249.085Z" fill="#26B7A6"/>
<path d="M354.587 492.686V486.509H337.135V492.686H354.587Z" fill="#26B7A6"/>
<path d="M341.902 526.875H369.666V529.121H341.902V526.875Z" fill="#26B7A6"/>
<path d="M226.09 544.283H198.326V546.529H226.09V544.283Z" fill="#26B7A6"/>
<path d="M377.596 565.048H405.361V567.294H377.596V565.048Z" fill="#26B7A6"/>
<path d="M279.237 526.875H288.756V529.121H279.237V526.875Z" fill="#26B7A6"/>
<path d="M288.748 544.283H279.228V546.529H288.748V544.283Z" fill="#26B7A6"/>
<path d="M314.939 565.048H324.458V567.294H314.939V565.048Z" fill="#26B7A6"/>
<path d="M328.414 548.206V542.03H396.634V548.206H328.414Z" fill="#26B7A6"/>
<path d="M318.893 530.804V524.627H301.441V530.804H318.893Z" fill="#26B7A6"/>
<path d="M249.085 548.206V542.03H266.537V548.206H249.085Z" fill="#26B7A6"/>
<path d="M226.09 620.589H198.326V622.835H226.09V620.589Z" fill="#26B7A6"/>
<path d="M239.571 607.109V600.933H171.35V607.109H239.571Z" fill="#26B7A6"/>
<path d="M211.433 49.4162H177.228M-66.3516 108.32H-19.5018M211.433 125.722H177.228M-114.692 146.501H-55.197M105.033 108.319H113.759M52.6857 125.722H43.9597M69.3454 146.501H78.0713M-66.3516 184.625H-19.5018M-114.692 222.807H-55.197M105.033 184.625H113.759M52.6857 202.027H43.9597M69.3454 222.807H78.0713M-66.3516 337.236H-19.5018M211.433 354.638H177.228M-114.692 375.418H-55.197M105.033 337.236H113.759M52.6857 354.638H43.9597M69.3454 375.418H78.0713M87.5861 454.533H155.807M-66.3516 413.542H-19.5018M-114.692 451.723H-55.197M105.033 413.541H113.759M52.6857 430.944H43.9597M69.3454 451.723H78.0713M211.433 507.249H177.228M-66.3516 566.153H-19.5018M211.433 583.555H177.228M-114.692 604.334H-55.197M105.033 566.152H113.759M52.6857 583.555H43.9597M69.3454 604.334H78.0713M429.21 70.167H382.36M151.426 87.5689H185.631M477.55 108.349H418.056M257.826 70.1664H249.1M310.173 87.5689H318.899M293.513 108.349H284.787M429.21 -6.13854H382.36M477.55 32.0431H418.056M257.826 -6.13914H249.1M310.173 11.2634H318.899M293.513 32.0431H284.787M429.21 222.778H382.36M151.426 240.18H185.631M477.55 260.96H418.056M257.826 222.777H249.1M310.173 240.18H318.899M293.513 260.96H284.787M429.21 299.084H382.36M151.426 316.486H185.631M477.55 337.265H418.056M257.826 299.083H249.1M310.173 316.486H318.899M293.513 337.265H284.787M341.902 452.816H369.666M279.237 452.816H288.756M239.571 454.498H171.35M318.893 454.498H301.441M429.21 451.695H382.36M151.426 469.097H185.631M477.55 489.876H418.056M257.826 451.694H249.1M310.173 469.097H318.899M293.513 489.876H284.787M275.273 562.815H207.052M354.587 562.815H337.135M429.21 528H382.36M477.55 566.182H418.056M257.826 528H249.1M310.173 545.402H318.899M293.513 566.182H284.787M151.426 621.708H185.631M-6.80742 107.195H20.9568V109.441H-6.80742V107.195ZM164.533 124.603H136.769V126.849H164.533V124.603ZM-42.5019 145.367H-14.7376V147.613H-42.5019V145.367ZM74.1023 107.195H83.6215V109.441H74.1023V107.195ZM83.6302 124.603H74.111V126.849H83.6302V124.603ZM38.4009 145.367H47.92V147.613H38.4009V145.367ZM123.288 104.947V111.124H191.508V104.947H123.288ZM34.445 122.35V128.526H-33.7757V122.35H34.445ZM87.5861 143.134V149.311H155.807V143.134H87.5861ZM43.9658 104.947V111.124H61.4176V104.947H43.9658ZM113.774 122.35V128.526H96.3219V122.35H113.774ZM8.27137 143.134V149.311H25.7232V143.134H8.27137ZM-6.80742 183.501H20.9568V185.747H-6.80742V183.501ZM164.533 200.908H136.769V203.154H164.533V200.908ZM-42.5019 221.673H-14.7376V223.919H-42.5019V221.673ZM74.1023 183.501H83.6215V185.747H74.1023V183.501ZM83.6302 200.908H74.111V203.154H83.6302V200.908ZM38.4009 221.673H47.92V223.919H38.4009V221.673ZM34.445 198.655V204.832H-33.7757V198.655H34.445ZM87.5861 219.44V225.616H155.807V219.44H87.5861ZM43.9658 181.253V187.429H61.4176V181.253H43.9658ZM113.774 198.655V204.832H96.3219V198.655H113.774ZM8.27137 219.44V225.616H25.7232V219.44H8.27137ZM-6.80742 336.112H20.9568V338.358H-6.80742V336.112ZM164.533 353.519H136.769V355.765H164.533V353.519ZM-42.5019 374.284H-14.7376V376.53H-42.5019V374.284ZM74.1023 336.112H83.6215V338.358H74.1023V336.112ZM83.6302 353.519H74.111V355.765H83.6302V353.519ZM38.4009 374.284H47.92V376.53H38.4009V374.284ZM123.288 333.864V340.04H191.508V333.864H123.288ZM34.445 351.266V357.443H-33.7757V351.266H34.445ZM43.9658 333.864V340.04H61.4176V333.864H43.9658ZM113.774 351.266V357.443H96.3219V351.266H113.774ZM8.27137 372.051V378.227H25.7232V372.051H8.27137ZM-6.80742 412.417H20.9568V414.663H-6.80742V412.417ZM-42.5019 450.589H-14.7376V452.835H-42.5019V450.589ZM74.1023 412.417H83.6215V414.663H74.1023V412.417ZM83.6302 429.825H74.111V432.071H83.6302V429.825ZM38.4009 450.589H47.92V452.835H38.4009V450.589ZM34.445 427.572V433.748H-33.7757V427.572H34.445ZM43.9658 410.169V416.346H61.4176V410.169H43.9658ZM113.774 427.572V433.748H96.3219V427.572H113.774ZM8.27137 448.356V454.533H25.7232V448.356H8.27137ZM-6.80742 565.028H20.9568V567.274H-6.80742V565.028ZM164.533 582.436H136.769V584.682H164.533V582.436ZM-42.5019 603.201H-14.7376V605.446H-42.5019V603.201ZM74.1023 565.028H83.6215V567.274H74.1023V565.028ZM83.6302 582.436H74.111V584.682H83.6302V582.436ZM38.4009 603.201H47.92V605.446H38.4009V603.201ZM123.288 562.78V568.957H191.508V562.78H123.288ZM34.445 580.183V586.359H-33.7757V580.183H34.445ZM87.5861 600.967V607.144H155.807V600.967H87.5861ZM43.9658 562.78V568.957H61.4176V562.78H43.9658ZM113.774 580.183V586.359H96.3219V580.183H113.774ZM8.27137 600.967V607.144H25.7232V600.967H8.27137ZM369.666 69.0424H341.902V71.2883H369.666V69.0424ZM198.326 86.4499H226.09V88.6959H198.326V86.4499ZM405.361 107.215H377.596V109.461H405.361V107.215ZM288.756 69.0424H279.237V71.2883H288.756V69.0424ZM279.228 86.4499H288.748V88.6959H279.228V86.4499ZM324.458 107.215H314.939V109.461H324.458V107.215ZM239.571 66.7943V72.9708H171.35V66.7943H239.571ZM328.414 84.1969V90.3734H396.634V84.1969H328.414ZM275.273 104.981V111.158H207.052V104.981H275.273ZM318.893 66.7943V72.9708H301.441V66.7943H318.893ZM249.085 84.1969V90.3734H266.537V84.1969H249.085ZM354.587 104.981V111.158H337.135V104.981H354.587ZM369.666 -7.26317H341.902V-5.01717H369.666V-7.26317ZM198.326 10.1444H226.09V12.3904H198.326V10.1444ZM405.361 30.9091H377.596V33.1551H405.361V30.9091ZM288.756 -7.26317H279.237V-5.01717H288.756V-7.26317ZM279.228 10.1444H288.748V12.3904H279.228V10.1444ZM324.458 30.9091H314.939V33.1551H324.458V30.9091ZM239.571 -9.51123V-3.33472H171.35V-9.51123H239.571ZM328.414 7.89134V14.0678H396.634V7.89134H328.414ZM275.273 28.6759V34.8524H207.052V28.6759H275.273ZM318.893 -9.51123V-3.33472H301.441V-9.51123H318.893ZM249.085 7.89134V14.0678H266.537V7.89134H249.085ZM354.587 28.6759V34.8524H337.135V28.6759H354.587ZM369.666 221.653H341.902V223.899H369.666V221.653ZM198.326 239.061H226.09V241.307H198.326V239.061ZM405.361 259.826H377.596V262.072H405.361V259.826ZM288.756 221.653H279.237V223.899H288.756V221.653ZM279.228 239.061H288.748V241.307H279.228V239.061ZM324.458 259.826H314.939V262.072H324.458V259.826ZM239.571 219.405V225.582H171.35V219.405H239.571ZM328.414 236.808V242.984H396.634V236.808H328.414ZM275.273 257.593V263.769H207.052V257.593H275.273ZM318.893 219.405V225.582H301.441V219.405H318.893ZM249.085 236.808V242.984H266.537V236.808H249.085ZM354.587 257.593V263.769H337.135V257.593H354.587ZM369.666 297.959H341.902V300.205H369.666V297.959ZM198.326 315.366H226.09V317.612H198.326V315.366ZM405.361 336.131H377.596V338.377H405.361V336.131ZM288.756 297.959H279.237V300.205H288.756V297.959ZM279.228 315.366H288.748V317.612H279.228V315.366ZM324.458 336.131H314.939V338.377H324.458V336.131ZM328.414 313.113V319.29H396.634V313.113H328.414ZM275.273 333.898V340.075H207.052V333.898H275.273ZM318.893 295.711V301.887H301.441V295.711H318.893ZM249.085 313.113V319.29H266.537V313.113H249.085ZM354.587 333.898V340.075H337.135V333.898H354.587ZM198.326 467.978H226.09V470.223H198.326V467.978ZM405.361 488.742H377.596V490.988H405.361V488.742ZM279.228 467.978H288.748V470.223H279.228V467.978ZM324.458 488.742H314.939V490.988H324.458V488.742ZM328.414 465.724V471.901H396.634V465.724H328.414ZM275.273 486.509V492.686H207.052V486.509H275.273ZM249.085 465.724V471.901H266.537V465.724H249.085ZM354.587 486.509V492.686H337.135V486.509H354.587ZM369.666 526.875H341.902V529.121H369.666V526.875ZM198.326 544.283H226.09V546.529H198.326V544.283ZM405.361 565.048H377.596V567.294H405.361V565.048ZM288.756 526.875H279.237V529.121H288.756V526.875ZM279.228 544.283H288.748V546.529H279.228V544.283ZM324.458 565.048H314.939V567.294H324.458V565.048ZM328.414 542.03V548.206H396.634V542.03H328.414ZM318.893 524.627V530.804H301.441V524.627H318.893ZM249.085 542.03V548.206H266.537V542.03H249.085ZM198.326 620.589H226.09V622.835H198.326V620.589ZM239.571 600.933V607.109H171.35V600.933H239.571Z" stroke="#26B7A6" stroke-width="2" stroke-linecap="round" stroke-linejoin="round"/>
</g>
<g opacity="0.5">
<path d="M63.9568 755.258H36.1926V757.504H63.9568V755.258Z" fill="#26B7A6"/>
<path d="M179.769 772.665H207.533V774.911H179.769V772.665Z" fill="#26B7A6"/>
<path d="M28.2624 793.43H0.498131V795.676H28.2624V793.43Z" fill="#26B7A6"/>
<path d="M126.621 755.258H117.102V757.504H126.621V755.258Z" fill="#26B7A6"/>
<path d="M117.111 772.665H126.63V774.911H117.111V772.665Z" fill="#26B7A6"/>
<path d="M90.92 793.43H81.4009V795.676H90.92V793.43Z" fill="#26B7A6"/>
<path d="M166.288 759.186V753.01H234.508V759.186H166.288Z" fill="#26B7A6"/>
<path d="M77.445 776.589V770.412H9.22426V776.589H77.445Z" fill="#26B7A6"/>
<path d="M130.586 797.373V791.197H198.807V797.373H130.586Z" fill="#26B7A6"/>
<path d="M86.9658 759.186V753.01H104.418V759.186H86.9658Z" fill="#26B7A6"/>
<path d="M156.774 776.589V770.412H139.322V776.589H156.774Z" fill="#26B7A6"/>
<path d="M51.2714 797.373V791.197H68.7232V797.373H51.2714Z" fill="#26B7A6"/>
<path d="M63.9568 831.563H36.1926V833.809H63.9568V831.563Z" fill="#26B7A6"/>
<path d="M179.769 848.971H207.533V851.217H179.769V848.971Z" fill="#26B7A6"/>
<path d="M28.2624 869.735H0.498131V871.981H28.2624V869.735Z" fill="#26B7A6"/>
<path d="M126.621 831.563H117.102V833.809H126.621V831.563Z" fill="#26B7A6"/>
<path d="M117.111 848.971H126.63V851.217H117.111V848.971Z" fill="#26B7A6"/>
<path d="M90.92 869.735H81.4009V871.981H90.92V869.735Z" fill="#26B7A6"/>
<path d="M77.445 852.894V846.718H9.22426V852.894H77.445Z" fill="#26B7A6"/>
<path d="M130.586 873.679V867.502H198.807V873.679H130.586Z" fill="#26B7A6"/>
<path d="M86.9658 835.492V829.315H104.418V835.492H86.9658Z" fill="#26B7A6"/>
<path d="M156.774 852.894V846.718H139.322V852.894H156.774Z" fill="#26B7A6"/>
<path d="M51.2714 873.679V867.502H68.7232V873.679H51.2714Z" fill="#26B7A6"/>
<path d="M63.9568 984.174H36.1926V986.42H63.9568V984.174Z" fill="#26B7A6"/>
<path d="M179.769 1001.58H207.533V1003.83H179.769V1001.58Z" fill="#26B7A6"/>
<path d="M28.2624 1022.35H0.498131V1024.59H28.2624V1022.35Z" fill="#26B7A6"/>
<path d="M126.621 984.174H117.102V986.42H126.621V984.174Z" fill="#26B7A6"/>
<path d="M117.111 1001.58H126.63V1003.83H117.111V1001.58Z" fill="#26B7A6"/>
<path d="M90.92 1022.35H81.4009V1024.59H90.92V1022.35Z" fill="#26B7A6"/>
<path d="M166.288 988.103V981.926H234.508V988.103H166.288Z" fill="#26B7A6"/>
<path d="M77.445 1005.51V999.329H9.22426V1005.51H77.445Z" fill="#26B7A6"/>
<path d="M86.9658 988.103V981.926H104.418V988.103H86.9658Z" fill="#26B7A6"/>
<path d="M156.774 1005.51V999.329H139.322V1005.51H156.774Z" fill="#26B7A6"/>
<path d="M51.2714 1026.29V1020.11H68.7232V1026.29H51.2714Z" fill="#26B7A6"/>
<path d="M63.9568 1060.48H36.1926V1062.73H63.9568V1060.48Z" fill="#26B7A6"/>
<path d="M28.2624 1098.65H0.498131V1100.9H28.2624V1098.65Z" fill="#26B7A6"/>
<path d="M126.621 1060.48H117.102V1062.73H126.621V1060.48Z" fill="#26B7A6"/>
<path d="M117.111 1077.89H126.63V1080.13H117.111V1077.89Z" fill="#26B7A6"/>
<path d="M90.92 1098.65H81.4009V1100.9H90.92V1098.65Z" fill="#26B7A6"/>
<path d="M77.445 1081.81V1075.63H9.22426V1081.81H77.445Z" fill="#26B7A6"/>
<path d="M86.9658 1064.41V1058.23H104.418V1064.41H86.9658Z" fill="#26B7A6"/>
<path d="M156.774 1081.81V1075.63H139.322V1081.81H156.774Z" fill="#26B7A6"/>
<path d="M51.2714 1102.6V1096.42H68.7232V1102.6H51.2714Z" fill="#26B7A6"/>
<path d="M63.9568 1213.09H36.1926V1215.34H63.9568V1213.09Z" fill="#26B7A6"/>
<path d="M179.769 1230.5H207.533V1232.74H179.769V1230.5Z" fill="#26B7A6"/>
<path d="M28.2624 1251.26H0.498131V1253.51H28.2624V1251.26Z" fill="#26B7A6"/>
<path d="M126.621 1213.09H117.102V1215.34H126.621V1213.09Z" fill="#26B7A6"/>
<path d="M117.111 1230.5H126.63V1232.74H117.111V1230.5Z" fill="#26B7A6"/>
<path d="M90.92 1251.26H81.4009V1253.51H90.92V1251.26Z" fill="#26B7A6"/>
<path d="M166.288 1217.02V1210.84H234.508V1217.02H166.288Z" fill="#26B7A6"/>
<path d="M77.445 1234.42V1228.25H9.22426V1234.42H77.445Z" fill="#26B7A6"/>
<path d="M130.586 1255.21V1249.03H198.807V1255.21H130.586Z" fill="#26B7A6"/>
<path d="M86.9658 1217.02V1210.84H104.418V1217.02H86.9658Z" fill="#26B7A6"/>
<path d="M156.774 1234.42V1228.25H139.322V1234.42H156.774Z" fill="#26B7A6"/>
<path d="M51.2714 1255.21V1249.03H68.7232V1255.21H51.2714Z" fill="#26B7A6"/>
<path d="M384.902 717.105H412.666V719.351H384.902V717.105Z" fill="#26B7A6"/>
<path d="M269.09 734.512H241.326V736.758H269.09V734.512Z" fill="#26B7A6"/>
<path d="M420.596 755.277H448.361V757.523H420.596V755.277Z" fill="#26B7A6"/>
<path d="M322.237 717.105H331.756V719.351H322.237V717.105Z" fill="#26B7A6"/>
<path d="M331.748 734.512H322.228V736.758H331.748V734.512Z" fill="#26B7A6"/>
<path d="M357.939 755.277H367.458V757.523H357.939V755.277Z" fill="#26B7A6"/>
<path d="M282.571 721.033V714.857H214.35V721.033H282.571Z" fill="#26B7A6"/>
<path d="M371.414 738.436V732.259H439.634V738.436H371.414Z" fill="#26B7A6"/>
<path d="M318.273 759.22V753.044H250.052V759.22H318.273Z" fill="#26B7A6"/>
<path d="M361.893 721.033V714.857H344.441V721.033H361.893Z" fill="#26B7A6"/>
<path d="M292.085 738.436V732.259H309.537V738.436H292.085Z" fill="#26B7A6"/>
<path d="M397.587 759.22V753.044H380.135V759.22H397.587Z" fill="#26B7A6"/>
<path d="M384.902 640.799H412.666V643.045H384.902V640.799Z" fill="#26B7A6"/>
<path d="M269.09 658.207H241.326V660.453H269.09V658.207Z" fill="#26B7A6"/>
<path d="M420.596 678.972H448.361V681.218H420.596V678.972Z" fill="#26B7A6"/>
<path d="M322.237 640.799H331.756V643.045H322.237V640.799Z" fill="#26B7A6"/>
<path d="M331.748 658.207H322.228V660.453H331.748V658.207Z" fill="#26B7A6"/>
<path d="M357.939 678.972H367.458V681.218H357.939V678.972Z" fill="#26B7A6"/>
<path d="M282.571 644.728V638.551H214.35V644.728H282.571Z" fill="#26B7A6"/>
<path d="M371.414 662.13V655.954H439.634V662.13H371.414Z" fill="#26B7A6"/>
<path d="M318.273 682.915V676.738H250.052V682.915H318.273Z" fill="#26B7A6"/>
<path d="M361.893 644.728V638.551H344.441V644.728H361.893Z" fill="#26B7A6"/>
<path d="M292.085 662.13V655.954H309.537V662.13H292.085Z" fill="#26B7A6"/>
<path d="M397.587 682.915V676.738H380.135V682.915H397.587Z" fill="#26B7A6"/>
<path d="M384.902 869.716H412.666V871.962H384.902V869.716Z" fill="#26B7A6"/>
<path d="M269.09 887.123H241.326V889.369H269.09V887.123Z" fill="#26B7A6"/>
<path d="M420.596 907.888H448.361V910.134H420.596V907.888Z" fill="#26B7A6"/>
<path d="M322.237 869.716H331.756V871.962H322.237V869.716Z" fill="#26B7A6"/>
<path d="M331.748 887.123H322.228V889.369H331.748V887.123Z" fill="#26B7A6"/>
<path d="M357.939 907.888H367.458V910.134H357.939V907.888Z" fill="#26B7A6"/>
<path d="M282.571 873.644V867.468H214.35V873.644H282.571Z" fill="#26B7A6"/>
<path d="M371.414 891.047V884.87H439.634V891.047H371.414Z" fill="#26B7A6"/>
<path d="M318.273 911.832V905.655H250.052V911.832H318.273Z" fill="#26B7A6"/>
<path d="M361.893 873.644V867.468H344.441V873.644H361.893Z" fill="#26B7A6"/>
<path d="M292.085 891.047V884.87H309.537V891.047H292.085Z" fill="#26B7A6"/>
<path d="M397.587 911.832V905.655H380.135V911.832H397.587Z" fill="#26B7A6"/>
<path d="M384.902 946.021H412.666V948.267H384.902V946.021Z" fill="#26B7A6"/>
<path d="M269.09 963.429H241.326V965.675H269.09V963.429Z" fill="#26B7A6"/>
<path d="M420.596 984.194H448.361V986.44H420.596V984.194Z" fill="#26B7A6"/>
<path d="M322.237 946.021H331.756V948.267H322.237V946.021Z" fill="#26B7A6"/>
<path d="M331.748 963.429H322.228V965.675H331.748V963.429Z" fill="#26B7A6"/>
<path d="M357.939 984.194H367.458V986.44H357.939V984.194Z" fill="#26B7A6"/>
<path d="M371.414 967.352V961.176H439.634V967.352H371.414Z" fill="#26B7A6"/>
<path d="M318.273 988.137V981.961H250.052V988.137H318.273Z" fill="#26B7A6"/>
<path d="M361.893 949.95V943.773H344.441V949.95H361.893Z" fill="#26B7A6"/>
<path d="M292.085 967.352V961.176H309.537V967.352H292.085Z" fill="#26B7A6"/>
<path d="M397.587 988.137V981.961H380.135V988.137H397.587Z" fill="#26B7A6"/>
<path d="M269.09 1116.04H241.326V1118.29H269.09V1116.04Z" fill="#26B7A6"/>
<path d="M420.596 1136.8H448.361V1139.05H420.596V1136.8Z" fill="#26B7A6"/>
<path d="M331.748 1116.04H322.228V1118.29H331.748V1116.04Z" fill="#26B7A6"/>
<path d="M357.939 1136.8H367.458V1139.05H357.939V1136.8Z" fill="#26B7A6"/>
<path d="M371.414 1119.96V1113.79H439.634V1119.96H371.414Z" fill="#26B7A6"/>
<path d="M318.273 1140.75V1134.57H250.052V1140.75H318.273Z" fill="#26B7A6"/>
<path d="M292.085 1119.96V1113.79H309.537V1119.96H292.085Z" fill="#26B7A6"/>
<path d="M397.587 1140.75V1134.57H380.135V1140.75H397.587Z" fill="#26B7A6"/>
<path d="M384.902 1174.94H412.666V1177.18H384.902V1174.94Z" fill="#26B7A6"/>
<path d="M269.09 1192.35H241.326V1194.59H269.09V1192.35Z" fill="#26B7A6"/>
<path d="M420.596 1213.11H448.361V1215.36H420.596V1213.11Z" fill="#26B7A6"/>
<path d="M322.237 1174.94H331.756V1177.18H322.237V1174.94Z" fill="#26B7A6"/>
<path d="M331.748 1192.35H322.228V1194.59H331.748V1192.35Z" fill="#26B7A6"/>
<path d="M357.939 1213.11H367.458V1215.36H357.939V1213.11Z" fill="#26B7A6"/>
<path d="M371.414 1196.27V1190.09H439.634V1196.27H371.414Z" fill="#26B7A6"/>
<path d="M361.893 1178.87V1172.69H344.441V1178.87H361.893Z" fill="#26B7A6"/>
<path d="M292.085 1196.27V1190.09H309.537V1196.27H292.085Z" fill="#26B7A6"/>
<path d="M269.09 1268.65H241.326V1270.9H269.09V1268.65Z" fill="#26B7A6"/>
<path d="M282.571 1255.17V1249H214.35V1255.17H282.571Z" fill="#26B7A6"/>
<path d="M254.433 697.479H220.228M-23.3516 756.382H23.4982M254.433 773.784H220.228M-71.6918 794.564H-12.197M148.033 756.382H156.759M95.6857 773.784H86.9597M112.345 794.564H121.071M-23.3516 832.688H23.4982M-71.6918 870.869H-12.197M148.033 832.687H156.759M95.6857 850.09H86.9597M112.345 870.869H121.071M234.508 911.797V905.621M130.586 1020.11V1026.29M-23.3516 985.299H23.4982M254.433 1002.7H220.228M-71.6918 1023.48H-12.197M148.033 985.298H156.759M95.6857 1002.7H86.9597M112.345 1023.48H121.071M166.288 1058.23V1064.41M130.586 1096.42V1102.6H198.807M-23.3516 1061.6H23.4982M-71.6918 1099.79H-12.197M148.033 1061.6H156.759M95.6857 1079.01H86.9597M112.345 1099.79H121.071M234.508 1140.71V1134.54M254.433 1155.31H220.228M-23.3516 1214.22H23.4982M254.433 1231.62H220.228M-71.6918 1252.4H-12.197M148.033 1214.21H156.759M95.6857 1231.62H86.9597M112.345 1252.4H121.071M472.21 718.229H425.36M194.426 735.631H228.631M520.55 756.411H461.056M300.826 718.229H292.1M353.173 735.631H361.899M336.513 756.411H327.787M472.21 641.924H425.36M520.55 680.106H461.056M300.826 641.923H292.1M353.173 659.326H361.899M336.513 680.106H327.787M472.21 870.841H425.36M194.426 888.243H228.631M520.55 909.022H461.056M300.826 870.84H292.1M353.173 888.243H361.899M336.513 909.022H327.787M282.571 943.773V949.95M472.21 947.146H425.36M194.426 964.548H228.631M520.55 985.328H461.056M300.826 947.145H292.1M353.173 964.548H361.899M336.513 985.328H327.787M384.902 1100.88H412.666M322.237 1100.88H331.756M282.571 1102.56H214.35M361.893 1102.56H344.441M472.21 1099.76H425.36M194.426 1117.16H228.631M520.55 1137.94H461.056M300.826 1099.76H292.1M353.173 1117.16H361.899M336.513 1137.94H327.787M282.571 1172.69V1178.87M318.273 1210.88H250.052V1217.05M397.587 1210.88H380.135M472.21 1176.06H425.36M520.55 1214.24H461.056M300.826 1176.06H292.1M353.173 1193.46H361.899M336.513 1214.24H327.787M250.052 1293.36V1287.18M194.426 1269.77H228.631M36.1926 755.258H63.9568V757.504H36.1926V755.258ZM207.533 772.665H179.769V774.911H207.533V772.665ZM0.498131 793.43H28.2624V795.676H0.498131V793.43ZM117.102 755.258H126.621V757.504H117.102V755.258ZM126.63 772.665H117.111V774.911H126.63V772.665ZM81.4009 793.43H90.92V795.676H81.4009V793.43ZM166.288 753.01V759.186H234.508V753.01H166.288ZM77.445 770.412V776.589H9.22426V770.412H77.445ZM130.586 791.197V797.373H198.807V791.197H130.586ZM86.9658 753.01V759.186H104.418V753.01H86.9658ZM156.774 770.412V776.589H139.322V770.412H156.774ZM51.2714 791.197V797.373H68.7232V791.197H51.2714ZM36.1926 831.563H63.9568V833.809H36.1926V831.563ZM207.533 848.971H179.769V851.217H207.533V848.971ZM0.498131 869.735H28.2624V871.981H0.498131V869.735ZM117.102 831.563H126.621V833.809H117.102V831.563ZM126.63 848.971H117.111V851.217H126.63V848.971ZM81.4009 869.735H90.92V871.981H81.4009V869.735ZM77.445 846.718V852.894H9.22426V846.718H77.445ZM130.586 867.502V873.679H198.807V867.502H130.586ZM86.9658 829.315V835.492H104.418V829.315H86.9658ZM156.774 846.718V852.894H139.322V846.718H156.774ZM51.2714 867.502V873.679H68.7232V867.502H51.2714ZM36.1926 984.174H63.9568V986.42H36.1926V984.174ZM207.533 1001.58H179.769V1003.83H207.533V1001.58ZM0.498131 1022.35H28.2624V1024.59H0.498131V1022.35ZM117.102 984.174H126.621V986.42H117.102V984.174ZM126.63 1001.58H117.111V1003.83H126.63V1001.58ZM81.4009 1022.35H90.92V1024.59H81.4009V1022.35ZM166.288 981.926V988.103H234.508V981.926H166.288ZM77.445 999.329V1005.51H9.22426V999.329H77.445ZM86.9658 981.926V988.103H104.418V981.926H86.9658ZM156.774 999.329V1005.51H139.322V999.329H156.774ZM51.2714 1020.11V1026.29H68.7232V1020.11H51.2714ZM36.1926 1060.48H63.9568V1062.73H36.1926V1060.48ZM0.498131 1098.65H28.2624V1100.9H0.498131V1098.65ZM117.102 1060.48H126.621V1062.73H117.102V1060.48ZM126.63 1077.89H117.111V1080.13H126.63V1077.89ZM81.4009 1098.65H90.92V1100.9H81.4009V1098.65ZM77.445 1075.63V1081.81H9.22426V1075.63H77.445ZM86.9658 1058.23V1064.41H104.418V1058.23H86.9658ZM156.774 1075.63V1081.81H139.322V1075.63H156.774ZM51.2714 1096.42V1102.6H68.7232V1096.42H51.2714ZM36.1926 1213.09H63.9568V1215.34H36.1926V1213.09ZM207.533 1230.5H179.769V1232.74H207.533V1230.5ZM0.498131 1251.26H28.2624V1253.51H0.498131V1251.26ZM117.102 1213.09H126.621V1215.34H117.102V1213.09ZM126.63 1230.5H117.111V1232.74H126.63V1230.5ZM81.4009 1251.26H90.92V1253.51H81.4009V1251.26ZM166.288 1210.84V1217.02H234.508V1210.84H166.288ZM77.445 1228.25V1234.42H9.22426V1228.25H77.445ZM130.586 1249.03V1255.21H198.807V1249.03H130.586ZM86.9658 1210.84V1217.02H104.418V1210.84H86.9658ZM156.774 1228.25V1234.42H139.322V1228.25H156.774ZM51.2714 1249.03V1255.21H68.7232V1249.03H51.2714ZM412.666 717.105H384.902V719.351H412.666V717.105ZM241.326 734.512H269.09V736.758H241.326V734.512ZM448.361 755.277H420.596V757.523H448.361V755.277ZM331.756 717.105H322.237V719.351H331.756V717.105ZM322.228 734.512H331.748V736.758H322.228V734.512ZM367.458 755.277H357.939V757.523H367.458V755.277ZM282.571 714.857V721.033H214.35V714.857H282.571ZM371.414 732.259V738.436H439.634V732.259H371.414ZM318.273 753.044V759.22H250.052V753.044H318.273ZM361.893 714.857V721.033H344.441V714.857H361.893ZM292.085 732.259V738.436H309.537V732.259H292.085ZM397.587 753.044V759.22H380.135V753.044H397.587ZM412.666 640.799H384.902V643.045H412.666V640.799ZM241.326 658.207H269.09V660.453H241.326V658.207ZM448.361 678.972H420.596V681.218H448.361V678.972ZM331.756 640.799H322.237V643.045H331.756V640.799ZM322.228 658.207H331.748V660.453H322.228V658.207ZM367.458 678.972H357.939V681.218H367.458V678.972ZM282.571 638.551V644.728H214.35V638.551H282.571ZM371.414 655.954V662.13H439.634V655.954H371.414ZM318.273 676.738V682.915H250.052V676.738H318.273ZM361.893 638.551V644.728H344.441V638.551H361.893ZM292.085 655.954V662.13H309.537V655.954H292.085ZM397.587 676.738V682.915H380.135V676.738H397.587ZM412.666 869.716H384.902V871.962H412.666V869.716ZM241.326 887.123H269.09V889.369H241.326V887.123ZM448.361 907.888H420.596V910.134H448.361V907.888ZM331.756 869.716H322.237V871.962H331.756V869.716ZM322.228 887.123H331.748V889.369H322.228V887.123ZM367.458 907.888H357.939V910.134H367.458V907.888ZM282.571 867.468V873.644H214.35V867.468H282.571ZM371.414 884.87V891.047H439.634V884.87H371.414ZM318.273 905.655V911.832H250.052V905.655H318.273ZM361.893 867.468V873.644H344.441V867.468H361.893ZM292.085 884.87V891.047H309.537V884.87H292.085ZM397.587 905.655V911.832H380.135V905.655H397.587ZM412.666 946.021H384.902V948.267H412.666V946.021ZM241.326 963.429H269.09V965.675H241.326V963.429ZM448.361 984.194H420.596V986.44H448.361V984.194ZM331.756 946.021H322.237V948.267H331.756V946.021ZM322.228 963.429H331.748V965.675H322.228V963.429ZM367.458 984.194H357.939V986.44H367.458V984.194ZM371.414 961.176V967.352H439.634V961.176H371.414ZM318.273 981.961V988.137H250.052V981.961H318.273ZM361.893 943.773V949.95H344.441V943.773H361.893ZM292.085 961.176V967.352H309.537V961.176H292.085ZM397.587 981.961V988.137H380.135V981.961H397.587ZM241.326 1116.04H269.09V1118.29H241.326V1116.04ZM448.361 1136.8H420.596V1139.05H448.361V1136.8ZM322.228 1116.04H331.748V1118.29H322.228V1116.04ZM367.458 1136.8H357.939V1139.05H367.458V1136.8ZM371.414 1113.79V1119.96H439.634V1113.79H371.414ZM318.273 1134.57V1140.75H250.052V1134.57H318.273ZM292.085 1113.79V1119.96H309.537V1113.79H292.085ZM397.587 1134.57V1140.75H380.135V1134.57H397.587ZM412.666 1174.94H384.902V1177.18H412.666V1174.94ZM241.326 1192.35H269.09V1194.59H241.326V1192.35ZM448.361 1213.11H420.596V1215.36H448.361V1213.11ZM331.756 1174.94H322.237V1177.18H331.756V1174.94ZM322.228 1192.35H331.748V1194.59H322.228V1192.35ZM367.458 1213.11H357.939V1215.36H367.458V1213.11ZM371.414 1190.09V1196.27H439.634V1190.09H371.414ZM361.893 1172.69V1178.87H344.441V1172.69H361.893ZM292.085 1190.09V1196.27H309.537V1190.09H292.085ZM241.326 1268.65H269.09V1270.9H241.326V1268.65ZM282.571 1249V1255.17H214.35V1249H282.571Z" stroke="#26B7A6" stroke-width="2" stroke-linecap="round" stroke-linejoin="round"/>
</g>
</g>
<defs>
<clipPath id="clip0_1485_4516">
<rect width="437" height="884" fill="white" transform="translate(0.189453 0.196777)"/>
</clipPath>
</defs>
</svg>
