<svg width="103" height="66" viewBox="0 0 103 66" fill="none" xmlns="http://www.w3.org/2000/svg">
<path d="M53 8L52.813 8.34014C52.8703 8.37165 52.9346 8.38817 53 8.38817V8ZM40.2691 1L40.4562 0.659855C40.3066 0.577626 40.1209 0.602722 39.9985 0.721694L40.2691 1ZM35.7946 5.35063L35.524 5.07233C35.4255 5.16812 35.3849 5.30887 35.4174 5.44239C35.4499 5.57591 35.5506 5.68231 35.6821 5.72214L35.7946 5.35063ZM41.6716 7.13043L42.0577 7.1707C42.077 6.98561 41.9622 6.81286 41.7841 6.75893L41.6716 7.13043ZM41.2041 11.6129V12.0011C41.4029 12.0011 41.5696 11.8509 41.5902 11.6532L41.2041 11.6129ZM38.3324 11.6129L37.9548 11.7029C37.9965 11.8777 38.1527 12.0011 38.3324 12.0011V11.6129ZM37.2638 7.13043L37.6414 7.04042C37.6029 6.87872 37.4657 6.75951 37.3001 6.74396C37.1346 6.72842 36.9776 6.81999 36.9096 6.9717L37.2638 7.13043ZM32.6557 17.4137L32.3015 17.255C32.2586 17.3508 32.2563 17.4599 32.2951 17.5574C32.3339 17.6549 32.4106 17.7325 32.5076 17.7725L32.6557 17.4137ZM42.8737 21.6325L42.7256 21.9913C42.8634 22.0482 43.0216 22.0212 43.1327 21.9217L42.8737 21.6325ZM46.4801 18.4025H46.8682C46.8682 18.2494 46.7782 18.1106 46.6384 18.0481C46.4986 17.9857 46.3352 18.0112 46.2211 18.1134L46.4801 18.4025ZM46.4801 25.3899H46.0919C46.0919 25.5474 46.187 25.6893 46.3327 25.749C46.4784 25.8088 46.6458 25.7746 46.7564 25.6625L46.4801 25.3899ZM53.8931 17.8752L54.1695 18.1478C54.2908 18.0248 54.3162 17.8363 54.2318 17.6855L53.8931 17.8752ZM49.6857 10.3604L50.0244 10.1708C50.0156 10.1551 50.0057 10.14 49.9948 10.1256L49.6857 10.3604ZM46.4801 6.14165L46.7891 5.90681C46.7065 5.79809 46.5729 5.74077 46.4372 5.75586C46.3014 5.77096 46.1837 5.85625 46.1269 5.98047L46.4801 6.14165ZM43.7419 12.1403L43.3888 11.9791C43.332 12.1034 43.3449 12.2484 43.4225 12.3608C43.5002 12.4733 43.6313 12.5366 43.7676 12.5276L43.7419 12.1403ZM51.6892 11.6129H52.0774C52.0774 11.5055 52.0329 11.4029 51.9545 11.3295C51.8761 11.2561 51.7707 11.2185 51.6635 11.2256L51.6892 11.6129ZM51.6892 15.6339V16.0221C51.9036 16.0221 52.0774 15.8483 52.0774 15.6339H51.6892ZM39.0002 15.6339V15.2458C38.8824 15.2458 38.771 15.2993 38.6973 15.3912C38.6236 15.4832 38.5957 15.6036 38.6214 15.7186L39.0002 15.6339ZM42.1391 29.6746L41.7603 29.7593C41.7846 29.8679 41.8543 29.9609 41.9517 30.0146C42.0492 30.0683 42.1651 30.0776 42.2698 30.0401L42.1391 29.6746ZM52.09 26.115L52.4757 26.1584C52.4907 26.0253 52.4359 25.8938 52.3309 25.8107C52.2259 25.7275 52.0854 25.7044 51.9592 25.7495L52.09 26.115ZM51.6892 29.6746L51.9493 29.9628C52.0197 29.8993 52.0644 29.8122 52.075 29.718L51.6892 29.6746ZM40.8034 39.4965L40.4276 39.5935C40.4615 39.7249 40.5616 39.8291 40.6916 39.8682C40.8217 39.9073 40.9626 39.8756 41.0634 39.7847L40.8034 39.4965ZM39.0002 32.5091H38.6121C38.6121 32.5418 38.6162 32.5744 38.6244 32.6061L39.0002 32.5091ZM39.0002 17.8752H39.3884C39.3884 17.7348 39.3126 17.6053 39.1901 17.5366C39.0677 17.4679 38.9177 17.4707 38.7978 17.5439L39.0002 17.8752ZM31.9879 22.1599L31.7855 21.8287C31.6066 21.938 31.5468 22.1696 31.6505 22.3518L31.9879 22.1599ZM36.2621 29.6746V30.0628C36.4003 30.0628 36.5281 29.9893 36.5976 29.8698C36.6671 29.7503 36.6678 29.6029 36.5995 29.4827L36.2621 29.6746ZM28.1144 29.6746L27.7324 29.7437C27.7658 29.9284 27.9267 30.0628 28.1144 30.0628V29.6746ZM25.5766 15.6339L25.9586 15.5649C25.9316 15.4156 25.8201 15.2957 25.6731 15.2579C25.5261 15.2202 25.3706 15.2716 25.275 15.3895L25.5766 15.6339ZM21.8367 20.2482L21.5351 20.0038C21.4328 20.1301 21.4199 20.3067 21.5029 20.4465L21.8367 20.2482ZM22.972 22.1599L23.1111 22.5223C23.2179 22.4813 23.3012 22.3953 23.3387 22.2872C23.3762 22.1791 23.3642 22.06 23.3058 21.9617L22.972 22.1599ZM19.3657 23.5442L19.2266 23.1818C19.0487 23.2501 18.9467 23.4373 18.9857 23.6237L19.3657 23.5442ZM21.0353 31.5203L20.6553 31.5999C20.6836 31.7349 20.7815 31.8448 20.9124 31.8885C21.0433 31.9322 21.1875 31.9031 21.2913 31.8121L21.0353 31.5203ZM29.4501 24.1374L29.831 24.0628C29.8043 23.9265 29.7068 23.8148 29.5753 23.77C29.4439 23.7252 29.2985 23.7541 29.1941 23.8457L29.4501 24.1374ZM30.6522 30.2679L30.8493 30.6023C30.9911 30.5187 31.0648 30.3547 31.0331 30.1932L30.6522 30.2679ZM21.0353 35.9369L20.8382 35.6025C20.7049 35.681 20.631 35.8312 20.6501 35.9847L21.0353 35.9369ZM21.8367 42.3969L21.4515 42.4447C21.4666 42.5667 21.5387 42.6743 21.6457 42.7348C21.7527 42.7953 21.8821 42.8016 21.9944 42.7516L21.8367 42.3969ZM32.6557 37.5849L33.0409 37.5367C33.0257 37.4148 32.9536 37.3073 32.8466 37.2468C32.7396 37.1864 32.6103 37.1802 32.498 37.2302L32.6557 37.5849ZM33.2568 42.3969L32.8716 42.445C32.8861 42.5612 32.9523 42.6646 33.0516 42.7264C33.151 42.7883 33.2729 42.802 33.3835 42.7638L33.2568 42.3969ZM37.2638 41.0126L37.3906 41.3795C37.5471 41.3255 37.652 41.1782 37.652 41.0126H37.2638ZM37.2638 34.0912H37.652C37.652 33.8975 37.5093 33.7335 37.3175 33.7067L37.2638 34.0912ZM30.6522 33.1683L30.7059 32.7839C30.583 32.7667 30.4594 32.8093 30.3732 32.8984C30.287 32.9876 30.2485 33.1125 30.2698 33.2347L30.6522 33.1683ZM32.6557 44.7041L32.2733 44.7705C32.3056 44.9565 32.467 45.0922 32.6557 45.0922V44.7041ZM40.2691 44.7041L40.556 44.9656C40.6596 44.852 40.6863 44.6879 40.6242 44.5473C40.5621 44.4066 40.4229 44.3159 40.2691 44.3159V44.7041ZM37.2638 48L37.2158 48.3852C37.3409 48.4008 37.4658 48.3547 37.5507 48.2615L37.2638 48ZM25.1091 46.4839L24.7819 46.6926C24.844 46.7901 24.9464 46.8548 25.0611 46.8691L25.1091 46.4839ZM23.9738 44.7041L23.9577 44.3162C23.8189 44.322 23.6938 44.4014 23.6296 44.5246C23.5654 44.6477 23.5718 44.7957 23.6465 44.9128L23.9738 44.7041ZM30.3183 44.4404L30.3344 44.8282C30.5 44.8213 30.6429 44.7101 30.6903 44.5513C30.7376 44.3925 30.6789 44.2211 30.5441 44.1247L30.3183 44.4404ZM18.4307 35.9369L18.1795 35.641C18.0883 35.7184 18.0379 35.8335 18.0429 35.953C18.0478 36.0725 18.1076 36.183 18.2049 36.2526L18.4307 35.9369ZM24.6416 30.6634L24.8929 30.9593C25.0169 30.854 25.0621 30.6824 25.006 30.5296L24.6416 30.6634ZM22.972 26.115L23.3364 25.9812C23.2659 25.7893 23.0586 25.6849 22.8624 25.7426L22.972 26.115ZM15.3586 28.3562V28.7444C15.3957 28.7444 15.4326 28.7391 15.4682 28.7286L15.3586 28.3562ZM72.5 8.38817C72.7144 8.38817 72.8882 8.21438 72.8882 8C72.8882 7.78562 72.7144 7.61183 72.5 7.61183V8.38817ZM1 27.9681C0.785619 27.9681 0.611828 28.1419 0.611828 28.3562C0.611828 28.5706 0.785619 28.7444 1 28.7444V27.9681ZM72.5137 7.61207C72.2993 7.61278 72.1261 7.78715 72.1268 8.00153C72.1275 8.21591 72.3019 8.38912 72.5163 8.38841L72.5137 7.61207ZM84.325 14.4993L83.9568 14.3764L83.9568 14.3764L84.325 14.4993ZM81.8912 16.1671L81.7782 16.5384L81.7782 16.5384L81.8912 16.1671ZM81.6738 12.4518L81.3916 12.1853L81.3916 12.1853L81.6738 12.4518ZM89.8601 13.8144L89.5502 14.048L89.5502 14.048L89.8601 13.8144ZM89.5701 18.5536L89.852 18.8205L89.852 18.8205L89.5701 18.5536ZM85.8941 17.6626L86.2798 17.6185L86.2798 17.6185L85.8941 17.6626ZM90.2915 12.6785L90.3001 13.0666L90.3001 13.0666L90.2915 12.6785ZM94.0947 16.2434L94.4813 16.2091L94.4813 16.2091L94.0947 16.2434ZM92.9824 23.3078L92.6276 23.4652L92.6276 23.4652L92.9824 23.3078ZM95.2517 22.2759L95.6158 22.1414L95.6158 22.1414L95.2517 22.2759ZM88.7404 23.5447L89.1099 23.6636L89.1099 23.6636L88.7404 23.5447ZM91.5024 28.6889L91.562 28.3053L91.562 28.3053L91.5024 28.6889ZM92.8017 27.2812L92.4314 27.3975L92.4314 27.3975L92.8017 27.2812ZM90.1711 27.2644L89.8759 27.0124L89.8759 27.0124L90.1711 27.2644ZM92.3256 31.5458L92.3162 31.1577L92.3162 31.1577L92.3256 31.5458ZM94.1179 30.6782L93.7814 30.4847L93.7814 30.4847L94.1179 30.6782ZM92.8409 29.7243L93.1127 30.0014L93.1127 30.0014L92.8409 29.7243ZM93.747 33.2605L93.9363 32.9216L93.9363 32.9216L93.747 33.2605ZM97.6778 30.6751L97.7882 30.3029L97.7882 30.3029L97.6778 30.6751ZM99.2961 36.9209L99.6472 37.0864L99.6472 37.0864L99.2961 36.9209ZM96.1222 36.7528L95.734 36.7543L95.734 36.7543L96.1222 36.7528ZM101.426 34.4519L101.726 34.2058L101.726 34.2058L101.426 34.4519ZM100.765 41.7726L101.112 41.9462L101.112 41.9462L100.765 41.7726ZM97.1162 42.6461L97.4262 42.4125L97.4262 42.4125L97.1162 42.6461ZM93.7136 41.3006L93.8828 40.9512L93.8828 40.9512L93.7136 41.3006ZM89.1885 35.5901L89.3197 35.2248L89.3197 35.2248L89.1885 35.5901ZM85.7275 39.1898L86.1117 39.1342L86.1117 39.1342L85.7275 39.1898ZM87.8986 41.5574L87.8223 41.938L87.8223 41.938L87.8986 41.5574ZM87.9619 39.0795L88.0047 38.6937L88.0047 38.6937L87.9619 39.0795ZM84.4143 40.8638L84.7193 41.1039L84.7193 41.1039L84.4143 40.8638ZM82.5062 46.1845L82.1268 46.1029L82.1268 46.1029L82.5062 46.1845ZM79.8867 46.4152L79.5209 46.545L79.5209 46.545L79.8867 46.4152ZM77.0373 38.6501L76.676 38.5081L76.676 38.5081L77.0373 38.6501ZM82.4972 35.531L82.626 35.1648L82.4972 35.531ZM87.9685 30.3776L88.3413 30.4857L88.3413 30.4857L87.9685 30.3776ZM84.1187 25.2706L84.0688 24.8856L84.0688 24.8856L84.1187 25.2706ZM80.6778 30.3848L80.3679 30.6185L80.3679 30.6185L80.6778 30.3848ZM85.9816 28.4251L85.643 28.2354L85.643 28.2354L85.9816 28.4251ZM82.839 18.2783L82.7123 18.6452L82.7123 18.6452L82.839 18.2783ZM74.0225 21.5563L73.7064 21.3308L73.7064 21.3308L74.0225 21.5563ZM77.5334 23.0823L77.2465 22.8208L77.2465 22.8208L77.5334 23.0823ZM73.745 18.0569L73.7986 18.4413L73.7986 18.4413L73.745 18.0569ZM68.7701 21.0429L68.4314 20.8533L68.4314 20.8533L68.7701 21.0429ZM64.6709 27.0849L64.2957 26.9853L64.2957 26.9853L64.6709 27.0849ZM71.0039 28.4831L70.6725 28.2811L70.6725 28.2811L71.0039 28.4831ZM70.4418 21.8734L70.7396 21.6244L70.7396 21.6244L70.4418 21.8734ZM63.1677 27.0266L62.7921 27.1246L62.7921 27.1246L63.1677 27.0266ZM73.3809 29.5867L73.0959 29.3232L73.3809 29.5867ZM76.4382 25.6148L76.2469 25.2771L76.2469 25.2771L76.4382 25.6148ZM77.8932 26.1785L77.5127 26.2552L77.5127 26.2552L77.8932 26.1785ZM76.5577 30.2141L76.1724 30.2612L76.1724 30.2612L76.5577 30.2141ZM79.1526 32.3468L79.5026 32.179L79.5026 32.179L79.1526 32.3468ZM78.7952 35.1748L79.1577 35.0359L79.1577 35.0359L78.7952 35.1748ZM83.1289 42.0052L82.7407 42.0085L82.7407 42.0085L83.1289 42.0052ZM80.1334 45.5468L80.5133 45.6266L80.5133 45.6266L80.1334 45.5468ZM80.5004 39.0879L80.8497 38.9185L80.8497 38.9185L80.5004 39.0879ZM69.606 33.8023L69.7601 34.1585L69.7601 34.1585L69.606 33.8023ZM80.6494 51.5553L80.7034 51.1709L80.7034 51.1709L80.6494 51.5553ZM93.3037 47.1311L93.6712 47.2562L93.6712 47.2562L93.3037 47.1311ZM89.6583 45.0583L89.9922 45.2564L89.9922 45.2564L89.6583 45.0583ZM92.1075 52.1146L92.0425 52.4973L92.0425 52.4973L92.1075 52.1146ZM100.921 57.7794L100.534 57.8096L100.534 57.8096L100.921 57.7794ZM92.7076 64.6132C92.494 64.6312 92.3354 64.819 92.3535 65.0326C92.3715 65.2463 92.5593 65.4048 92.7729 65.3868L92.7076 64.6132ZM53.187 7.65986L40.4562 0.659855L40.0821 1.34014L52.813 8.34014L53.187 7.65986ZM39.9985 0.721694L35.524 5.07233L36.0652 5.62894L40.5397 1.27831L39.9985 0.721694ZM35.6821 5.72214L41.5591 7.50194L41.7841 6.75893L35.9071 4.97912L35.6821 5.72214ZM41.2855 7.09017L40.818 11.5726L41.5902 11.6532L42.0577 7.1707L41.2855 7.09017ZM41.2041 11.2247H38.3324V12.0011H41.2041V11.2247ZM38.71 11.5229L37.6414 7.04042L36.8863 7.22045L37.9548 11.7029L38.71 11.5229ZM36.9096 6.9717L32.3015 17.255L33.01 17.5725L37.6181 7.28917L36.9096 6.9717ZM32.5076 17.7725L36.7444 19.5218L37.0407 18.8042L32.8039 17.055L32.5076 17.7725ZM36.7444 19.5218L38.8521 20.392L39.1484 19.6745L37.0407 18.8042L36.7444 19.5218ZM38.8521 20.392L39.9356 20.8394L40.2319 20.1218L39.1484 19.6745L38.8521 20.392ZM39.9356 20.8394L42.7256 21.9913L43.0219 21.2737L40.2319 20.1218L39.9356 20.8394ZM43.1327 21.9217L46.739 18.6917L46.2211 18.1134L42.6147 21.3434L43.1327 21.9217ZM46.0919 18.4025V25.3899H46.8682V18.4025H46.0919ZM46.7564 25.6625L54.1695 18.1478L53.6168 17.6026L46.2037 25.1173L46.7564 25.6625ZM54.2318 17.6855L52.0279 13.7493L51.3505 14.1285L53.5544 18.0648L54.2318 17.6855ZM52.0279 13.7493L50.7723 11.5066L50.0949 11.8859L51.3505 14.1285L52.0279 13.7493ZM50.7723 11.5066L50.0244 10.1708L49.347 10.5501L50.0949 11.8859L50.7723 11.5066ZM49.9948 10.1256L46.7891 5.90681L46.171 6.3765L49.3766 10.5953L49.9948 10.1256ZM46.1269 5.98047L43.3888 11.9791L44.095 12.3014L46.8332 6.30284L46.1269 5.98047ZM43.7676 12.5276L50.4593 12.0835L50.4079 11.3089L43.7162 11.7529L43.7676 12.5276ZM50.4593 12.0835L51.7149 12.0002L51.6635 11.2256L50.4079 11.3089L50.4593 12.0835ZM51.3011 11.6129V13.9389H52.0774V11.6129H51.3011ZM51.3011 13.9389V15.6339H52.0774V13.9389H51.3011ZM51.6892 15.2458H39.0002V16.0221H51.6892V15.2458ZM38.6214 15.7186L39.7049 20.5653L40.4626 20.3959L39.3791 15.5493L38.6214 15.7186ZM39.7049 20.5653L41.7603 29.7593L42.5179 29.5899L40.4626 20.3959L39.7049 20.5653ZM42.2698 30.0401L52.2207 26.4805L51.9592 25.7495L42.0084 29.3091L42.2698 30.0401ZM51.7042 26.0716L51.3035 29.6312L52.075 29.718L52.4757 26.1584L51.7042 26.0716ZM51.4292 29.3864L40.5434 39.2083L41.0634 39.7847L51.9493 29.9628L51.4292 29.3864ZM41.1793 39.3995L39.3761 32.4121L38.6244 32.6061L40.4276 39.5935L41.1793 39.3995ZM39.3884 32.5091V20.0333H38.6121V32.5091H39.3884ZM39.3884 20.0333V17.8752H38.6121V20.0333H39.3884ZM38.7978 17.5439L36.6901 18.8318L37.0949 19.4943L39.2026 18.2064L38.7978 17.5439ZM36.6901 18.8318L31.7855 21.8287L32.1903 22.4911L37.0949 19.4943L36.6901 18.8318ZM31.6505 22.3518L35.9247 29.8665L36.5995 29.4827L32.3253 21.968L31.6505 22.3518ZM36.2621 29.2864H30.5359V30.0628H36.2621V29.2864ZM30.5359 29.2864H28.1144V30.0628H30.5359V29.2864ZM28.4964 29.6056L27.8154 25.8378L27.0514 25.9759L27.7324 29.7437L28.4964 29.6056ZM27.8154 25.8378L25.9586 15.5649L25.1946 15.703L27.0514 25.9759L27.8154 25.8378ZM25.275 15.3895L21.5351 20.0038L22.1382 20.4927L25.8782 15.8784L25.275 15.3895ZM21.5029 20.4465L22.6383 22.3581L23.3058 21.9617L22.1704 20.05L21.5029 20.4465ZM22.8329 21.7975L19.2266 23.1818L19.5048 23.9066L23.1111 22.5223L22.8329 21.7975ZM18.9857 23.6237L19.702 27.0453L20.4618 26.8863L19.7456 23.4646L18.9857 23.6237ZM19.702 27.0453L20.6553 31.5999L21.4152 31.4408L20.4618 26.8863L19.702 27.0453ZM21.2913 31.8121L24.257 29.2101L23.745 28.6265L20.7793 31.2285L21.2913 31.8121ZM24.257 29.2101L27.6894 26.1986L27.1774 25.615L23.745 28.6265L24.257 29.2101ZM27.6894 26.1986L29.7061 24.4292L29.1941 23.8457L27.1774 25.615L27.6894 26.1986ZM29.0692 24.2121L30.155 29.7493L30.9168 29.5999L29.831 24.0628L29.0692 24.2121ZM30.155 29.7493L30.2713 30.3426L31.0331 30.1932L30.9168 29.5999L30.155 29.7493ZM30.4551 29.9335L20.8382 35.6025L21.2324 36.2713L30.8493 30.6023L30.4551 29.9335ZM20.6501 35.9847L20.9037 38.0292L21.6741 37.9337L21.4205 35.8891L20.6501 35.9847ZM20.9037 38.0292L21.4515 42.4447L22.2219 42.3491L21.6741 37.9337L20.9037 38.0292ZM21.9944 42.7516L25.4628 41.209L25.1473 40.4996L21.6789 42.0422L21.9944 42.7516ZM25.4628 41.209L31.6657 38.45L31.3502 37.7407L25.1473 40.4996L25.4628 41.209ZM31.6657 38.45L32.8135 37.9395L32.498 37.2302L31.3502 37.7407L31.6657 38.45ZM32.2706 37.633L32.8716 42.445L33.642 42.3488L33.0409 37.5367L32.2706 37.633ZM33.3835 42.7638L37.3906 41.3795L37.1371 40.6457L33.13 42.03L33.3835 42.7638ZM37.652 41.0126V34.0912H36.8757V41.0126H37.652ZM37.3175 33.7067L30.7059 32.7839L30.5985 33.5527L37.2102 34.4756L37.3175 33.7067ZM30.2698 33.2347L31.1255 38.1618L31.8904 38.0289L31.0347 33.1019L30.2698 33.2347ZM31.1255 38.1618L32.2733 44.7705L33.0382 44.6376L31.8904 38.0289L31.1255 38.1618ZM32.6557 45.0922H40.2691V44.3159H32.6557V45.0922ZM39.9823 44.4425L36.977 47.7385L37.5507 48.2615L40.556 44.9656L39.9823 44.4425ZM37.3119 47.6148L25.1572 46.0987L25.0611 46.8691L37.2158 48.3852L37.3119 47.6148ZM25.4364 46.2751L24.301 44.4953L23.6465 44.9128L24.7819 46.6926L25.4364 46.2751ZM23.9899 45.0919L30.3344 44.8282L30.3022 44.0526L23.9577 44.3162L23.9899 45.0919ZM30.5441 44.1247L25.5309 40.5386L25.0792 41.17L30.0924 44.7561L30.5441 44.1247ZM25.5309 40.5386L21.5148 37.6657L21.0631 38.2972L25.0792 41.17L25.5309 40.5386ZM21.5148 37.6657L18.6565 35.6212L18.2049 36.2526L21.0631 38.2972L21.5148 37.6657ZM18.6819 36.2328L24.8929 30.9593L24.3904 30.3675L18.1795 35.641L18.6819 36.2328ZM25.006 30.5296L24.3654 28.7845L23.6366 29.052L24.2772 30.7972L25.006 30.5296ZM24.3654 28.7845L23.3364 25.9812L22.6076 26.2488L23.6366 29.052L24.3654 28.7845ZM22.8624 25.7426L19.9723 26.5934L20.1915 27.3382L23.0816 26.4874L22.8624 25.7426ZM19.9723 26.5934L15.249 27.9839L15.4682 28.7286L20.1915 27.3382L19.9723 26.5934ZM53 8.38817H72.5V7.61183H53V8.38817ZM15.3586 27.9681H1V28.7444H15.3586V27.9681ZM72.5163 8.38841C75.8405 8.37741 78.3151 8.7438 80.106 9.32946C81.8981 9.91551 82.9809 10.7125 83.5628 11.5459L84.1993 11.1014C83.4906 10.0865 82.2405 9.21069 80.3473 8.59157C78.4529 7.97205 75.8898 7.60089 72.5137 7.61207L72.5163 8.38841ZM83.5628 11.5459C84.1955 12.4519 84.2676 13.4451 83.9568 14.3764L84.6932 14.6222C85.0732 13.4835 84.9873 12.2298 84.1993 11.1014L83.5628 11.5459ZM83.9568 14.3764C83.8673 14.6444 83.5666 15.0813 83.1563 15.4147C82.7388 15.754 82.3261 15.8937 82.0043 15.7957L81.7782 16.5384C82.4748 16.7505 83.1605 16.4116 83.6459 16.0172C84.1386 15.6168 84.5455 15.0648 84.6932 14.6222L83.9568 14.3764ZM81.956 12.7183C82.4487 12.1966 83.1443 11.8499 83.9495 11.7057L83.8127 10.9415C82.8748 11.1094 82.0182 11.5217 81.3916 12.1853L81.956 12.7183ZM83.9495 11.7057C85.4789 11.4319 87.3505 11.9007 88.7766 13.1987L89.2991 12.6245C87.6984 11.1675 85.5843 10.6244 83.8127 10.9415L83.9495 11.7057ZM88.7766 13.1987C89.0532 13.4504 89.313 13.7333 89.5502 14.048L90.1701 13.5807C89.9034 13.227 89.611 12.9084 89.2991 12.6245L88.7766 13.1987ZM89.5502 14.048C90.5689 15.3994 90.348 17.1673 89.2882 18.2867L89.852 18.8205C91.1489 17.4506 91.437 15.2613 90.1701 13.5807L89.5502 14.048ZM89.2882 18.2867C88.7414 18.8644 88.0039 19.1923 87.425 19.1389C87.148 19.1134 86.905 19.0022 86.7122 18.783C86.5148 18.5586 86.3455 18.1924 86.2798 17.6185L85.5085 17.7067C85.5865 18.3881 85.7983 18.9195 86.1293 19.2958C86.4649 19.6774 86.8977 19.87 87.3537 19.912C88.2406 19.9938 89.1974 19.5119 89.852 18.8205L89.2882 18.2867ZM86.2798 17.6185C86.0631 15.7247 87.4188 13.8917 89.1665 13.2778L88.9092 12.5454C86.8752 13.2598 85.2442 15.3975 85.5085 17.7067L86.2798 17.6185ZM89.1665 13.2778C89.5348 13.1485 89.9166 13.0752 90.3001 13.0666L90.2829 12.2905C89.8117 12.301 89.3491 12.3908 88.9092 12.5454L89.1665 13.2778ZM90.3001 13.0666C91.0119 13.0508 91.811 13.2436 92.4529 13.735C93.0844 14.2186 93.5961 15.0152 93.708 16.2777L94.4813 16.2091C94.3518 14.7487 93.7436 13.7455 92.9248 13.1186C92.1163 12.4996 91.1346 12.2715 90.2829 12.2905L90.3001 13.0666ZM93.708 16.2777C93.7575 16.8353 93.6087 17.5001 93.3737 18.2564C93.1494 18.9784 92.8324 19.8206 92.6263 20.5924L93.3763 20.7928C93.5805 20.0284 93.8669 19.2856 94.1151 18.4868C94.3526 17.7223 94.5453 16.9306 94.4813 16.2091L93.708 16.2777ZM92.6263 20.5924C92.3701 21.5516 92.231 22.5713 92.6276 23.4652L93.3372 23.1504C93.0549 22.5141 93.1285 21.7206 93.3763 20.7928L92.6263 20.5924ZM92.6276 23.4652C92.8557 23.9794 93.2003 24.3197 93.6143 24.4676C94.0251 24.6143 94.4507 24.5521 94.8025 24.3654C95.4989 23.9957 95.9707 23.1025 95.6158 22.1414L94.8876 22.4104C95.096 22.9748 94.8227 23.4757 94.4385 23.6796C94.25 23.7797 94.0513 23.7993 93.8755 23.7365C93.703 23.6748 93.4987 23.5144 93.3372 23.1504L92.6276 23.4652ZM95.6158 22.1414C95.1904 20.9892 94.1547 20.403 93.0348 20.3059L92.9678 21.0793C93.8658 21.1572 94.5908 21.6066 94.8876 22.4104L95.6158 22.1414ZM93.0348 20.3059C91.2385 20.1501 89.0766 21.2317 88.3708 23.4259L89.1099 23.6636C89.6912 21.8563 91.4861 20.9509 92.9678 21.0793L93.0348 20.3059ZM88.3708 23.4259C87.8288 25.1109 88.6801 26.8643 89.6585 27.929L90.2302 27.4037C89.3409 26.436 88.6907 24.967 89.1099 23.6636L88.3708 23.4259ZM89.6585 27.929C90.2036 28.522 90.8594 28.9818 91.4428 29.0725L91.562 28.3053C91.2376 28.2549 90.7318 27.9495 90.2302 27.4037L89.6585 27.929ZM91.4428 29.0725C92.1054 29.1754 92.6028 28.8527 92.8907 28.451C93.0325 28.2532 93.1291 28.0308 93.1788 27.8156C93.2272 27.6056 93.2374 27.3729 93.1721 27.1648L92.4314 27.3975C92.4427 27.4334 92.4507 27.5177 92.4223 27.6411C92.395 27.7592 92.34 27.8866 92.2597 27.9987C92.1034 28.2167 91.8745 28.3539 91.562 28.3053L91.4428 29.0725ZM93.1721 27.1648C92.9545 26.4723 92.2755 26.2024 91.6587 26.2043C91.0327 26.2062 90.3355 26.4743 89.8759 27.0124L90.4663 27.5165C90.7617 27.1706 91.2336 26.9819 91.6611 26.9806C92.0978 26.9793 92.3567 27.1597 92.4314 27.3975L93.1721 27.1648ZM89.8759 27.0124C89.7424 27.1686 89.6453 27.3475 89.5783 27.5371L90.3104 27.7955C90.3498 27.6838 90.4025 27.5912 90.4663 27.5165L89.8759 27.0124ZM89.5783 27.5371C89.2867 28.363 89.5387 29.4648 90.0239 30.3198C90.5059 31.1693 91.3264 31.9583 92.335 31.9338L92.3162 31.1577C91.7402 31.1717 91.131 30.6979 90.6991 29.9366C90.2702 29.1808 90.1239 28.3236 90.3104 27.7955L89.5783 27.5371ZM92.335 31.9338C92.3814 31.9327 92.4276 31.9312 92.4735 31.9292L92.4395 31.1536C92.3992 31.1553 92.3582 31.1567 92.3162 31.1577L92.335 31.9338ZM92.4735 31.9292C92.8462 31.9128 93.2228 31.8634 93.5682 31.7054C93.9246 31.5425 94.2218 31.2761 94.4544 30.8716L93.7814 30.4847C93.624 30.7584 93.445 30.9081 93.2453 30.9994C93.0347 31.0958 92.7757 31.1388 92.4395 31.1536L92.4735 31.9292ZM94.4544 30.8716C94.6721 30.4931 94.7772 30.1328 94.7447 29.8091C94.7103 29.4673 94.524 29.202 94.2474 29.0579C93.7322 28.7895 93.0401 28.9853 92.5691 29.4471L93.1127 30.0014C93.4313 29.6889 93.7677 29.6834 93.8886 29.7464C93.93 29.7679 93.9637 29.8016 93.9722 29.8868C93.9826 29.9901 93.9537 30.185 93.7814 30.4847L94.4544 30.8716ZM92.5691 29.4471C91.9137 30.0898 91.8702 30.9314 92.0844 31.652L92.8286 31.4307C92.667 30.8874 92.7269 30.3797 93.1127 30.0014L92.5691 29.4471ZM92.0844 31.652C92.3318 32.4838 92.9468 33.258 93.5576 33.5993L93.9363 32.9216C93.5216 32.6899 93.0249 32.0911 92.8286 31.4307L92.0844 31.652ZM93.5576 33.5993C93.7903 33.7293 94.0368 33.745 94.2688 33.6534C94.4758 33.5717 94.6418 33.4161 94.7732 33.2649C94.9083 33.1095 95.0377 32.9217 95.1615 32.7343C95.2907 32.5385 95.4107 32.3479 95.5472 32.1483C95.8189 31.7511 96.1 31.405 96.4273 31.1932C96.7338 30.9947 97.0915 30.9061 97.5675 31.0473L97.7882 30.3029C97.0815 30.0934 96.4903 30.2275 96.0053 30.5415C95.5411 30.8421 95.188 31.2984 94.9065 31.71C94.7664 31.9147 94.63 32.1302 94.5136 32.3066C94.3916 32.4913 94.286 32.6419 94.1872 32.7556C94.0847 32.8735 94.0179 32.9178 93.9837 32.9313C93.9745 32.9349 93.9713 32.9412 93.9363 32.9216L93.5576 33.5993ZM97.5675 31.0473C98.4028 31.2949 99.1319 32.1585 99.3954 33.3943L100.155 33.2324C99.8518 31.8121 98.9771 30.6554 97.7882 30.3029L97.5675 31.0473ZM99.3954 33.3943C99.6044 34.3743 99.5094 35.5579 98.945 36.7554L99.6472 37.0864C100.282 35.7395 100.4 34.3831 100.155 33.2324L99.3954 33.3943ZM98.945 36.7554C98.5342 37.6269 97.8728 37.9491 97.3897 37.9186C97.1485 37.9033 96.938 37.8031 96.7847 37.626C96.6307 37.4481 96.5119 37.1656 96.5103 36.7513L95.734 36.7543C95.7362 37.3179 95.9004 37.7907 96.1978 38.1341C96.4958 38.4784 96.905 38.6658 97.3408 38.6934C98.2116 38.7484 99.1334 38.1766 99.6472 37.0864L98.945 36.7554ZM96.5103 36.7513C96.5023 34.6614 98.1728 33.2876 99.675 33.6884L99.8751 32.9383C97.734 32.367 95.7246 34.3139 95.734 36.7543L96.5103 36.7513ZM99.675 33.6884C100.157 33.8169 100.659 34.1287 101.126 34.6979L101.726 34.2058C101.173 33.5302 100.536 33.1147 99.8751 32.9383L99.675 33.6884ZM101.126 34.6979C101.397 35.0289 101.553 35.5309 101.598 36.1675C101.643 36.7981 101.576 37.5171 101.447 38.2365C101.189 39.6794 100.69 41.054 100.418 41.5991L101.112 41.9462C101.421 41.3272 101.941 39.8805 102.212 38.3736C102.347 37.6181 102.423 36.83 102.372 36.1125C102.322 35.4011 102.143 34.7139 101.726 34.2058L101.126 34.6979ZM100.418 41.5991C100.355 41.7251 100.197 41.9464 99.9619 42.1838C99.7302 42.4178 99.4448 42.6453 99.1414 42.7996C98.8371 42.9543 98.5394 43.0234 98.2665 42.9823C98.0043 42.9428 97.7139 42.7942 97.4262 42.4125L96.8062 42.8798C97.1958 43.3966 97.6565 43.6755 98.1508 43.75C98.6344 43.8228 99.0986 43.6924 99.4934 43.4916C99.8891 43.2903 100.24 43.0062 100.514 42.7301C100.784 42.4573 101 42.1699 101.112 41.9462L100.418 41.5991ZM97.4262 42.4125C97.1118 41.9954 96.7857 41.7162 96.4456 41.5314C96.1063 41.3471 95.7728 41.2675 95.4614 41.2243C95.3073 41.203 95.1557 41.1902 95.0141 41.1789C94.8693 41.1673 94.7367 41.1574 94.6045 41.1419C94.3437 41.1112 94.1096 41.061 93.8828 40.9512L93.5444 41.6499C93.8803 41.8126 94.2099 41.8772 94.5139 41.9129C94.6641 41.9306 94.8142 41.9417 94.9523 41.9527C95.0936 41.964 95.2252 41.9754 95.3547 41.9933C95.6104 42.0288 95.845 42.0886 96.075 42.2136C96.3043 42.3382 96.5488 42.5383 96.8062 42.8798L97.4262 42.4125ZM93.8828 40.9512C93.4913 40.7616 93.1972 40.4267 92.9309 39.9634C92.6591 39.4903 92.4462 38.9412 92.1776 38.3303C91.6554 37.1432 90.9586 35.8133 89.3197 35.2248L89.0573 35.9554C90.3687 36.4263 90.9541 37.477 91.4669 38.6429C91.7157 39.2085 91.9584 39.829 92.2578 40.3501C92.5628 40.881 92.9557 41.3648 93.5444 41.6499L93.8828 40.9512ZM89.3197 35.2248C88.3685 34.8832 87.2646 35.2174 86.4716 35.9413C85.6657 36.677 85.1405 37.8438 85.3433 39.2454L86.1117 39.1342C85.9475 37.9994 86.37 37.0852 86.995 36.5146C87.6329 35.9323 88.4431 35.7348 89.0573 35.9554L89.3197 35.2248ZM85.3433 39.2454C85.3603 39.3624 85.3873 39.4862 85.424 39.6135L86.17 39.3986C86.1421 39.3019 86.1231 39.2128 86.1117 39.1342L85.3433 39.2454ZM85.424 39.6135C85.6694 40.4654 86.4113 41.6553 87.8223 41.938L87.9748 41.1768C86.9534 40.9721 86.37 40.0927 86.17 39.3986L85.424 39.6135ZM87.8223 41.938C88.3211 42.038 88.7536 41.9 89.0625 41.6079C89.36 41.3268 89.5174 40.9285 89.5463 40.5338C89.5753 40.1371 89.4773 39.7105 89.2207 39.3616C88.9583 39.005 88.5474 38.7538 88.0047 38.6937L87.9192 39.4653C88.2566 39.5027 88.4675 39.6479 88.5953 39.8216C88.7288 40.0031 88.7893 40.2407 88.772 40.4772C88.7546 40.7156 88.6609 40.9193 88.5292 41.0438C88.409 41.1574 88.2344 41.2288 87.9748 41.1768L87.8223 41.938ZM88.0047 38.6937C86.9904 38.5814 86.216 38.7929 85.5937 39.1753L86.0002 39.8368C86.4697 39.5482 87.07 39.3713 87.9192 39.4653L88.0047 38.6937ZM85.5937 39.1753C84.9487 39.5717 84.4909 40.139 84.1093 40.6237L84.7193 41.1039C85.1051 40.6139 85.4872 40.152 86.0002 39.8368L85.5937 39.1753ZM84.1093 40.6237C83.5429 41.343 83.1311 42.3469 82.8216 43.3331C82.51 44.3264 82.2905 45.3418 82.1268 46.1029L82.8857 46.2662C83.0501 45.5023 83.2629 44.52 83.5624 43.5655C83.8641 42.6039 84.2422 41.7098 84.7193 41.1039L84.1093 40.6237ZM82.1268 46.1029C82.0952 46.2495 81.9978 46.5284 81.847 46.8166C81.6938 47.1094 81.512 47.36 81.3348 47.4939C81.2501 47.558 81.185 47.581 81.1395 47.5858C81.1015 47.5899 81.0499 47.5848 80.9747 47.535C80.7988 47.4186 80.5358 47.0837 80.2526 46.2854L79.5209 46.545C79.8152 47.3746 80.1482 47.9191 80.5464 48.1825C80.7582 48.3227 80.9883 48.3826 81.2214 48.3579C81.4469 48.3339 81.6425 48.2345 81.8028 48.1133C82.1159 47.8768 82.3622 47.5065 82.5349 47.1766C82.7099 46.8421 82.8362 46.4967 82.8857 46.2662L82.1268 46.1029ZM80.2526 46.2854C79.4048 43.8959 78.1262 43.0818 77.4202 42.3573C77.0819 42.0102 76.8817 41.6986 76.8408 41.2237C76.7972 40.7179 76.9304 39.9834 77.3986 38.792L76.676 38.5081C76.1956 39.7306 76.008 40.602 76.0673 41.2903C76.1293 42.0095 76.4558 42.4801 76.8642 42.8992C77.6516 43.7072 78.7464 44.3618 79.5209 46.545L80.2526 46.2854ZM77.3986 38.792C77.6141 38.2436 78.1706 37.3439 78.9801 36.6554L78.4771 36.064C77.5648 36.8399 76.9357 37.8475 76.676 38.5081L77.3986 38.792ZM78.9801 36.6554C79.1486 36.5121 79.3268 36.379 79.5138 36.2606L79.0985 35.6047C78.8779 35.7444 78.6705 35.8995 78.4771 36.064L78.9801 36.6554ZM79.5138 36.2606C80.3156 35.7531 81.2775 35.5134 82.3684 35.8972L82.626 35.1648C81.2653 34.6861 80.0563 34.9984 79.0985 35.6047L79.5138 36.2606ZM82.3684 35.8972C82.9822 36.1131 83.6332 35.9887 84.2355 35.6992C84.8392 35.409 85.4339 34.9353 85.9734 34.3786C87.0492 33.2683 87.9726 31.7568 88.3413 30.4857L87.5957 30.2694C87.2683 31.3982 86.4198 32.8023 85.4159 33.8384C84.9154 34.3548 84.3934 34.7619 83.8992 34.9995C83.4037 35.2376 82.976 35.2879 82.626 35.1648L82.3684 35.8972ZM88.3413 30.4857C88.6926 29.2747 88.706 28.2502 88.4575 27.4115C88.2079 26.5687 87.7014 25.9402 87.0635 25.5173L86.6345 26.1644C87.1287 26.492 87.518 26.9733 87.7132 27.632C87.9095 28.2948 87.9166 29.1634 87.5957 30.2694L88.3413 30.4857ZM87.0635 25.5173C86.1923 24.9398 85.0908 24.7533 84.0688 24.8856L84.1685 25.6555C85.0407 25.5426 85.9465 25.7082 86.6345 26.1644L87.0635 25.5173ZM84.0688 24.8856C81.9624 25.1584 80.6696 26.0942 80.0907 27.2529C79.5174 28.4005 79.6802 29.7062 80.3679 30.6185L80.9878 30.1511C80.4756 29.4717 80.345 28.4811 80.7852 27.5998C81.2199 26.7297 82.2474 25.9043 84.1685 25.6555L84.0688 24.8856ZM80.3679 30.6185C80.7974 31.1883 81.3611 31.454 81.9683 31.4866C82.558 31.5182 83.1649 31.3299 83.7189 31.0451C84.8213 30.4784 85.8466 29.4606 86.3203 28.6148L85.643 28.2354C85.2477 28.9412 84.3378 29.854 83.364 30.3546C82.8798 30.6035 82.4133 30.733 82.0099 30.7114C81.624 30.6907 81.275 30.5321 80.9878 30.1511L80.3679 30.6185ZM86.3203 28.6148C86.6376 28.0482 87.0163 27.0646 87.2306 25.9118L86.4674 25.7699C86.2663 26.8509 85.9135 27.7524 85.643 28.2354L86.3203 28.6148ZM87.2306 25.9118C87.4799 24.5713 87.5156 22.9559 86.9316 21.4761C86.3408 19.9788 85.1294 18.6582 82.9656 17.9114L82.7123 18.6452C84.6696 19.3208 85.7048 20.4823 86.2095 21.7611C86.7211 23.0575 86.7013 24.5121 86.4674 25.7699L87.2306 25.9118ZM82.9656 17.9114C80.836 17.1763 78.8536 17.6311 77.283 18.4191L77.6312 19.113C79.0775 18.3874 80.838 17.9983 82.7123 18.6452L82.9656 17.9114ZM77.283 18.4191C75.4503 19.3386 74.1334 20.7322 73.7064 21.3308L74.3385 21.7817C74.7006 21.274 75.924 19.9695 77.6312 19.113L77.283 18.4191ZM73.7064 21.3308C73.2552 21.9634 73.0059 22.6743 72.9567 23.3238C72.9083 23.9625 73.0519 24.601 73.4669 25.0162C73.908 25.4574 74.5561 25.5521 75.2906 25.2839C76.0102 25.0211 76.8558 24.4019 77.8203 23.3438L77.2465 22.8208C76.32 23.8373 75.5751 24.3535 75.0243 24.5546C74.4883 24.7504 74.186 24.6375 74.016 24.4674C73.82 24.2713 73.692 23.8948 73.7308 23.3824C73.7688 22.8809 73.9655 22.3046 74.3385 21.7817L73.7064 21.3308ZM77.8203 23.3438C79.0971 21.9432 79.2413 19.7223 77.7027 18.4654L77.2115 19.0667C78.3218 19.9736 78.3013 21.6637 77.2465 22.8208L77.8203 23.3438ZM77.7027 18.4654C76.8354 17.757 75.4971 17.4205 73.6913 17.6724L73.7986 18.4413C75.4681 18.2084 76.5642 18.5379 77.2115 19.0667L77.7027 18.4654ZM73.6913 17.6724C72.9261 17.7792 70.0811 18.2139 68.5746 20.612L69.232 21.025C70.5314 18.9566 73.0286 18.5487 73.7986 18.4413L73.6913 17.6724ZM68.5746 20.612C68.5254 20.6904 68.4776 20.7708 68.4314 20.8533L69.1089 21.2324C69.1486 21.1614 69.1897 21.0923 69.232 21.025L68.5746 20.612ZM68.4314 20.8533C67.7092 22.1438 66.8146 23.2234 66.0231 24.2078C65.2527 25.1659 64.5358 26.0813 64.2957 26.9853L65.046 27.1846C65.2353 26.4718 65.8268 25.6908 66.6281 24.6943C67.4082 23.7241 68.3486 22.591 69.1089 21.2324L68.4314 20.8533ZM64.2957 26.9853C63.8068 28.8262 64.9673 30.3242 66.5184 30.8065C68.0894 31.295 70.0662 30.767 71.3353 28.6852L70.6725 28.2811C69.5813 30.071 67.9667 30.4438 66.7489 30.0652C65.5111 29.6803 64.6852 28.5433 65.046 27.1846L64.2957 26.9853ZM71.3353 28.6852C72.4012 26.9368 72.5636 25.5053 72.2752 24.3176C71.9917 23.1506 71.2837 22.2753 70.7396 21.6244L70.144 22.1224C70.689 22.7743 71.2843 23.5271 71.5207 24.5008C71.7522 25.4538 71.6511 26.6757 70.6725 28.2811L71.3353 28.6852ZM70.7396 21.6244C70.2502 21.0391 69.6604 20.6537 69.0219 20.4489L68.7847 21.1881C69.281 21.3473 69.7473 21.6479 70.144 22.1224L70.7396 21.6244ZM69.0219 20.4489C67.4113 19.9321 65.5771 20.5797 64.3022 21.827C63.0157 23.0855 62.2396 25.0067 62.7921 27.1246L63.5433 26.9286C63.0716 25.1205 63.7262 23.4765 64.8451 22.3819C65.9755 21.2761 67.5211 20.7827 68.7847 21.1881L69.0219 20.4489ZM62.7921 27.1246C63.2425 28.8512 64.0163 30.0511 64.9828 30.8272C65.9489 31.6029 67.0769 31.9308 68.1933 31.9669C70.4002 32.0384 72.629 30.9719 73.6659 29.8502L73.0959 29.3232C72.2151 30.276 70.2049 31.2553 68.2184 31.191C67.2381 31.1592 66.2808 30.8738 65.4689 30.2218C64.6574 29.5702 63.9604 28.5278 63.5433 26.9286L62.7921 27.1246ZM73.6659 29.8502C73.8973 29.5999 74.14 29.2537 74.3819 28.8861C74.6116 28.5369 74.8978 28.0784 75.1419 27.705C75.4027 27.306 75.6639 26.9272 75.9223 26.6133C76.1849 26.2942 76.4225 26.0698 76.6295 25.9526L76.2469 25.2771C75.915 25.4651 75.6048 25.7774 75.3229 26.1199C75.0368 26.4675 74.7569 26.875 74.492 27.2803C74.2103 27.7112 73.9862 28.075 73.7333 28.4594C73.4925 28.8254 73.28 29.1241 73.0959 29.3232L73.6659 29.8502ZM76.6295 25.9526C76.9259 25.7848 77.1253 25.8044 77.2391 25.8564C77.3583 25.9111 77.4693 26.0401 77.5127 26.2552L78.2737 26.1018C78.1916 25.6943 77.9511 25.3286 77.5622 25.1506C77.1679 24.97 76.7025 25.0191 76.2469 25.2771L76.6295 25.9526ZM77.5127 26.2552C77.5233 26.308 77.5066 26.4351 77.3717 26.7057C77.2406 26.9685 77.0669 27.2425 76.8613 27.6104C76.474 28.3034 76.0443 29.2127 76.1724 30.2612L76.943 30.167C76.847 29.3811 77.1634 28.6611 77.539 27.9892C77.7148 27.6746 77.9268 27.3322 78.0664 27.0522C78.2022 26.7799 78.3414 26.4376 78.2737 26.1018L77.5127 26.2552ZM76.1724 30.2612C76.2187 30.6403 76.4587 30.9187 76.7079 31.122C76.958 31.326 77.2726 31.4985 77.5614 31.6513C77.864 31.8114 78.1414 31.9514 78.3751 32.1054C78.6125 32.2618 78.7459 32.3964 78.8026 32.5147L79.5026 32.179C79.3524 31.8657 79.0723 31.6351 78.8022 31.4571C78.5284 31.2767 78.2044 31.1132 77.9244 30.965C77.6305 30.8096 77.3811 30.6693 77.1986 30.5204C77.0153 30.3709 76.954 30.2564 76.943 30.167L76.1724 30.2612ZM78.8026 32.5147C78.8457 32.6045 78.8563 32.7174 78.8192 32.8904C78.7801 33.0726 78.701 33.269 78.6027 33.5214C78.4229 33.9833 78.1719 34.6327 78.4327 35.3136L79.1577 35.0359C79.0181 34.6716 79.1334 34.2982 79.3262 33.8031C79.4142 33.5769 79.523 33.3112 79.5783 33.0532C79.6356 32.7859 79.6472 32.4804 79.5026 32.179L78.8026 32.5147ZM78.4327 35.3136C78.4818 35.442 78.5656 35.58 78.657 35.7136C78.7517 35.8521 78.8697 36.0075 79.0024 36.1743L79.61 35.691C79.4823 35.5305 79.3773 35.3917 79.2978 35.2754C79.215 35.1544 79.1734 35.077 79.1577 35.0359L78.4327 35.3136ZM79.0024 36.1743C79.608 36.9358 80.5279 37.9549 81.334 39.0578C81.7317 39.6021 82.0861 40.1469 82.3407 40.6604C82.5978 41.179 82.7376 41.6349 82.7407 42.0085L83.517 42.002C83.5125 41.4585 83.3157 40.8793 83.0362 40.3155C82.7541 39.7466 82.3715 39.1618 81.9607 38.5997C81.1497 37.49 80.1659 36.39 79.61 35.691L79.0024 36.1743ZM82.7407 42.0085C82.7405 41.9856 82.7448 41.9938 82.7254 42.0503C82.7085 42.0997 82.6806 42.1659 82.6398 42.2492C82.5586 42.4153 82.4384 42.6248 82.2893 42.8612C81.9918 43.3329 81.5953 43.8871 81.208 44.3732C80.8135 44.8684 80.4535 45.261 80.2281 45.4352C80.1729 45.4777 80.1434 45.4932 80.1365 45.4961C80.1142 45.5057 80.2032 45.4573 80.3254 45.5111C80.477 45.5777 80.4978 45.713 80.4988 45.7212C80.5001 45.7317 80.4962 45.7076 80.5133 45.6266L79.7535 45.4669C79.73 45.579 79.714 45.7015 79.7284 45.817C79.7425 45.9302 79.8015 46.1287 80.0129 46.2217C80.195 46.3018 80.3655 46.2427 80.443 46.2094C80.536 46.1695 80.6246 46.1098 80.7026 46.0496C81.0093 45.8128 81.4195 45.3535 81.8152 44.8569C82.2181 44.3513 82.6316 43.7739 82.946 43.2753C83.1028 43.0265 83.239 42.7911 83.3372 42.5904C83.3862 42.4902 83.4288 42.3925 83.4598 42.3021C83.4883 42.2189 83.5179 42.1115 83.517 42.002L82.7407 42.0085ZM80.5133 45.6266C80.6244 45.0977 80.7887 44.6252 80.9588 44.1503C81.1265 43.682 81.3039 43.2013 81.4179 42.6928C81.6533 41.6429 81.6149 40.4962 80.8497 38.9185L80.1512 39.2573C80.8432 40.6841 80.8556 41.652 80.6603 42.5229C80.559 42.9748 80.4007 43.4061 80.2279 43.8885C80.0576 44.3642 79.8767 44.8809 79.7535 45.4669L80.5133 45.6266ZM80.8497 38.9185C80.5017 38.2011 79.8914 37.1463 79.0265 36.1109L78.4307 36.6085C79.2476 37.5866 79.8254 38.5855 80.1512 39.2573L80.8497 38.9185ZM79.0265 36.1109C78.0692 34.9648 76.7826 33.8215 75.1746 33.2033C73.5542 32.5804 71.6344 32.5016 69.4518 33.446L69.7601 34.1585C71.757 33.2945 73.4661 33.3782 74.896 33.928C76.3383 34.4825 77.5233 35.5222 78.4307 36.6085L79.0265 36.1109ZM82.0043 15.7957C81.3874 15.6079 81.0516 15.2269 80.9917 14.7642C80.9287 14.2773 81.1519 13.5698 81.956 12.7183L81.3916 12.1853C80.5086 13.1203 80.1164 14.0499 80.2218 14.8639C80.3303 15.7019 80.9468 16.2853 81.7782 16.5384L82.0043 15.7957ZM69.4518 33.446C67.7532 34.181 66.9032 35.6693 66.7619 37.4485C66.6218 39.2114 67.1704 41.2745 68.2569 43.2718C70.4309 47.2677 74.8299 51.1292 80.5954 51.9397L80.7034 51.1709C75.2217 50.4003 71.0162 46.7191 68.9389 42.9008C67.8998 40.9909 67.4111 39.0789 67.5358 37.51C67.6591 35.9575 68.376 34.7574 69.7601 34.1585L69.4518 33.446ZM80.5954 51.9397C85.1046 52.5736 88.0639 52.1931 90.0385 51.3032L89.7195 50.5954C87.9315 51.4012 85.1381 51.7943 80.7034 51.1709L80.5954 51.9397ZM90.0385 51.3032C92.2806 50.2928 93.1957 48.6524 93.6712 47.2562L92.9363 47.0059C92.5055 48.2709 91.7054 49.7004 89.7195 50.5954L90.0385 51.3032ZM93.6712 47.2562C94.1972 45.7115 93.6137 44.3546 92.5982 43.7624C92.093 43.4678 91.4865 43.3694 90.8902 43.5435C90.2928 43.7178 89.7433 44.1541 89.3245 44.8603L89.9922 45.2564C90.3296 44.6874 90.7321 44.3983 91.1078 44.2887C91.4845 44.1787 91.872 44.2376 92.2071 44.433C92.8724 44.821 93.3553 45.7756 92.9363 47.0059L93.6712 47.2562ZM89.3245 44.8603C88.9348 45.5172 88.6041 46.6276 88.5586 47.7906C88.5131 48.9542 88.751 50.2452 89.5863 51.2043L90.1717 50.6944C89.5164 49.942 89.293 48.8791 89.3344 47.8209C89.3757 46.7622 89.6799 45.7828 89.9922 45.2564L89.3245 44.8603ZM89.5863 51.2043C90.1446 51.8453 90.9479 52.3113 92.0425 52.4973L92.1725 51.7319C91.2365 51.5729 90.6008 51.187 90.1717 50.6944L89.5863 51.2043ZM92.0425 52.4973C94.6546 52.941 96.7498 53.6625 98.2073 54.588C99.6643 55.513 100.441 56.6106 100.534 57.8096L101.308 57.7493C101.189 56.2197 100.2 54.9335 98.6234 53.9326C97.0475 52.932 94.842 52.1853 92.1725 51.7319L92.0425 52.4973ZM100.534 57.8096C100.696 59.8879 100.073 61.4485 98.7851 62.5572C97.4783 63.6826 95.4416 64.3826 92.7076 64.6132L92.7729 65.3868C95.5855 65.1495 97.8095 64.422 99.2917 63.1455C100.793 61.8524 101.487 60.0366 101.308 57.7493L100.534 57.8096Z" fill="#111010"/>
</svg>
