<svg width="438" height="885" viewBox="0 0 438 885" fill="none" xmlns="http://www.w3.org/2000/svg">
<g clip-path="url(#clip0_1423_1915)">
<path opacity="0.5" d="M449.643 367.334L463.407 375.711C469.209 380.664 474.489 385.887 479.264 391.347M449.643 367.334L446.388 365.353M449.643 367.334C445.292 374.82 440.852 381.631 436.736 387.366M449.643 367.334C450.576 365.729 451.506 364.092 452.427 362.428M446.388 365.353L426.555 353.283M446.388 365.353C443.288 372.593 439.804 379.691 436.16 386.59M446.388 365.353C447.153 363.566 447.895 361.77 448.609 359.966M426.555 353.283L407.188 341.496C400.062 337.159 394.315 333.458 388.594 330.144M426.555 353.283C428.421 352.251 430.292 351.236 432.167 350.237M426.555 353.283C422.243 355.666 417.958 358.136 413.709 360.691M388.594 330.144C388.165 329.895 387.736 329.649 387.307 329.405M388.594 330.144C388.43 332.835 388.249 335.525 388.052 338.212M388.594 330.144C388.599 330.067 388.604 329.99 388.608 329.912M387.307 329.405C386.803 329.118 386.299 328.834 385.793 328.553M387.307 329.405C386.812 329.213 386.316 329.021 385.82 328.831M387.307 329.405C387.741 329.573 388.175 329.743 388.608 329.912M385.793 328.553C378.698 324.611 371.305 321.197 361.068 317.843C357.488 316.67 353.884 315.604 350.26 314.641M385.793 328.553C385.802 328.646 385.811 328.738 385.82 328.831M385.793 328.553C384.277 312.814 382.357 297.608 380.153 283.24M350.26 314.641C339.687 311.831 328.943 309.895 318.109 308.722M350.26 314.641C353.774 316.385 357.18 318.17 360.459 319.994M350.26 314.641C334.291 306.715 316.085 299.646 297.362 293.707M318.109 308.722C313.298 308.201 308.47 307.83 303.631 307.6M318.109 308.722C313.028 307.601 307.916 306.551 302.779 305.572M318.109 308.722C332.519 311.901 346.68 315.653 360.459 319.994M303.631 307.6C293.735 307.13 283.796 307.248 273.874 307.87M303.631 307.6C307.249 316.311 310.435 325.334 313.218 334.665C315.349 341.811 317.532 350.695 319.584 360.464M303.631 307.6C303.35 306.922 303.066 306.246 302.779 305.572M273.874 307.87C264.333 308.468 254.809 309.533 245.356 310.99M273.874 307.87C281.315 322.566 287.716 338.578 292.86 355.294M273.874 307.87C272.893 305.934 271.895 304.021 270.88 302.133C270.55 301.519 270.217 300.907 269.882 300.295M245.356 310.99C244.923 311.057 244.491 311.124 244.059 311.192M245.356 310.99C255.654 320.728 265.364 331.223 274.516 342.394M245.356 310.99C243.91 309.623 242.453 308.271 240.984 306.934M244.059 311.192C241.072 311.664 238.092 312.175 235.121 312.723M244.059 311.192C247.357 315.853 250.512 320.62 253.517 325.494M244.059 311.192C243.047 309.763 242.022 308.343 240.984 306.934M235.121 312.723C228.743 313.898 222.408 315.241 216.131 316.73C203.27 319.78 190.523 323.395 177.919 327.535M235.121 312.723C241.4 316.728 247.532 321.014 253.517 325.494M235.121 312.723C224.513 305.956 213.484 299.986 202.028 295.222M177.919 327.535C155.9 334.768 134.318 343.602 113.328 353.821M177.919 327.535C184.732 316.444 192.044 305.645 199.875 295.182M177.919 327.535C171.87 337.383 166.214 347.461 160.938 357.736M113.328 353.821C92.9984 363.72 73.2246 374.918 54.1486 387.218M113.328 353.821C101.224 339.391 90.1657 324.131 80.6138 307.905M113.328 353.821C116.678 357.814 120.107 361.744 123.607 365.612M54.1486 387.218C54.1144 387.24 54.0803 387.262 54.0462 387.284M54.1486 387.218C76.9203 378.777 100.122 371.435 123.607 365.612M54.1486 387.218C54.0638 387.25 53.979 387.281 53.8942 387.313M54.0462 387.284C34.7651 399.723 16.1974 413.288 -1.51043 427.778M54.0462 387.284C82.6402 381.965 111.516 379.785 139.383 382.204M54.0462 387.284C53.9955 387.294 53.9449 387.303 53.8942 387.313M-1.51043 427.778C-2.04378 428.214 -2.57635 428.651 -3.10813 429.089M-1.51043 427.778C0.854404 421.031 3.55411 414.488 6.49929 408.254C6.73337 407.758 6.97764 407.251 7.23166 406.734M-1.51043 427.778C-8.90206 448.864 -13.0214 471.93 -11.1345 493.733C-10.4793 501.305 -9.33987 508.758 -7.7603 516.079M-3.10813 429.089C-25.8457 447.82 -47.1499 468.073 -66.7079 489.413C-70.9198 494.009 -75.2128 498.659 -79.4145 503.424M-3.10813 429.089C-16.2613 464.354 -36.5568 496.364 -63.0002 522.135M-3.10813 429.089C-1.47443 424.709 0.0490746 420.279 1.46051 415.804C2.21701 413.406 2.9582 410.931 3.67496 408.391M-79.4145 503.424C-83.7567 508.349 -88.0013 513.396 -91.9578 518.632M-79.4145 503.424C-88.0103 492.537 -95.6663 480.899 -102.234 468.67M-79.4145 503.424C-74.2692 509.941 -68.7872 516.19 -63.0002 522.135M-91.9578 518.632C-93.4511 520.608 -94.9033 522.611 -96.3042 524.645M-91.9578 518.632C-96.9583 511.269 -101.607 503.612 -105.885 495.683M-91.9578 518.632C-87.8318 524.706 -83.4664 530.581 -78.8725 536.242M-96.3042 524.645C-103.463 535.037 -109.283 546.226 -112.397 558.689M-96.3042 524.645C-101.402 515.625 -104.899 505.901 -105.885 495.683M-96.3042 524.645C-93.0643 530.377 -89.1779 535.826 -84.8788 540.936M-112.397 558.689C-113.257 562.134 -113.911 565.676 -114.33 569.326C-114.864 573.985 -115.024 578.588 -114.845 583.133M-112.397 558.689C-117.068 561.234 -121.852 563.62 -126.745 565.839M-112.397 558.689C-102.734 553.425 -93.5533 547.482 -84.8788 540.936M-114.845 583.133C-114.838 583.287 -114.832 583.442 -114.825 583.597M-114.845 583.133C-115.905 581.951 -116.96 580.768 -118.009 579.584C-119.735 577.635 -121.483 575.635 -123.247 573.587M-114.845 583.133C-113.816 584.279 -112.782 585.424 -111.744 586.568M-114.825 583.597C-114.77 584.82 -114.691 586.038 -114.588 587.253M-114.825 583.597C-117.02 581.457 -119.189 579.291 -121.329 577.099M-114.825 583.597C-113.803 584.593 -112.776 585.583 -111.744 586.568M-114.588 587.253C-113.797 596.551 -111.601 605.59 -108.286 614.323M-114.588 587.253C-117.052 583.977 -119.315 580.594 -121.329 577.099M-114.588 587.253C-104.017 601.302 -89.7318 613.369 -75.4608 623.782M-108.286 614.323C-100.603 634.564 -86.9141 653.167 -70.7996 669.575M-108.286 614.323C-127.617 606.173 -148.825 595.48 -169.939 582.72M-108.286 614.323C-96.8029 619.164 -85.9819 623.108 -76.2357 626.053C-74.6935 626.52 -73.1478 626.98 -71.5989 627.434M-70.7996 669.575C-60.815 679.742 -49.8992 689.067 -38.9041 697.416M-70.7996 669.575C-75.0649 669.384 -79.3307 669.093 -83.5937 668.703M-70.7996 669.575C-61.3243 670.001 -51.8509 669.939 -42.4139 669.41M-38.9041 697.416C-35.8823 699.71 -32.8544 701.931 -29.8383 704.076M-38.9041 697.416C-53.9925 688.415 -68.9988 678.852 -83.5937 668.703M-38.9041 697.416C-35.0677 699.704 -31.2258 701.957 -27.3843 704.173C-26.9124 704.445 -26.4422 704.716 -25.9737 704.986M-29.8383 704.076C-23.6772 708.457 -17.5649 712.519 -11.6521 716.239M-29.8383 704.076C-50.5676 699.014 -70.7852 691.191 -89.9415 681.979C-102.502 675.939 -116.284 668.646 -129.893 660.154M-29.8383 704.076C-28.5521 704.39 -27.2638 704.694 -25.9737 704.986M-11.6521 716.239C-9.38628 717.664 -7.14976 719.04 -4.95097 720.363C2.5103 724.855 10.6176 729.317 19.2053 733.661M-11.6521 716.239C-53.7409 711.822 -95.3025 699.647 -133.997 681.85C-134.454 681.64 -134.91 681.429 -135.366 681.216M-11.6521 716.239C-9.31251 716.484 -6.97131 716.706 -4.62882 716.903M19.2053 733.661C26.6953 737.45 34.5506 741.148 42.6615 744.697M19.2053 733.661C0.890704 737.031 -17.9129 738 -37.1613 735.805C-67.9755 732.292 -97.144 715.24 -121.015 695.388C-125.54 691.625 -130.362 686.822 -135.366 681.216M19.2053 733.661C20.988 733.333 22.7661 732.983 24.5394 732.61M42.6615 744.697C64.9217 754.437 89.1064 763.049 112.943 769.305M42.6615 744.697C5.43594 758.733 -33.5553 767.898 -73.8391 770.703C-75.7706 770.837 -77.7135 770.955 -79.6665 771.055M42.6615 744.697C43.7698 744.279 44.8766 743.857 45.9818 743.431M112.943 769.305C118.546 770.776 124.129 772.116 129.663 773.31M112.943 769.305C112.639 767.773 112.342 766.24 112.051 764.708M112.943 769.305C113.856 773.899 114.831 778.493 115.875 783.079M129.663 773.31C146.169 776.871 162.241 779.133 177.098 779.672C183.82 779.916 190.453 779.871 196.996 779.551M129.663 773.31C125.147 776.672 120.549 779.929 115.875 783.079M129.663 773.31C131.648 771.832 133.618 770.334 135.571 768.816M196.996 779.551C218.492 778.501 239.013 774.485 258.526 768.007M196.996 779.551C176.906 797.719 154.483 814.249 129.147 829.169M196.996 779.551C199.562 777.231 202.09 774.884 204.581 772.51M258.526 768.007C294.88 755.937 327.734 735.319 356.869 709.403M258.526 768.007C240.657 770.458 222.622 772.015 204.581 772.51M258.526 768.007C277.748 765.37 296.776 761.701 315.411 757.21C347.274 749.53 377.801 740.566 405.793 726.694M356.869 709.403C357.841 708.538 358.808 707.668 359.772 706.792M356.869 709.403C356.173 709.065 355.479 708.723 354.787 708.378M356.869 709.403C372.304 716.902 388.822 722.759 405.793 726.694M359.772 706.792C361.073 705.609 362.367 704.415 363.653 703.211M359.772 706.792C362.16 705.997 364.53 705.156 366.882 704.27M359.772 706.792C358.119 707.343 356.457 707.872 354.787 708.378M363.653 703.211C375.086 692.508 385.92 680.996 396.141 668.884C411.525 650.654 424.883 633.137 435.913 614.856M363.653 703.211C358.711 701.541 354.052 699.748 349.835 698.016C338.32 693.284 328.043 688.294 318.29 682.39M363.653 703.211C364.717 703.57 365.794 703.924 366.882 704.27M435.913 614.856C439.707 608.567 443.226 602.188 446.457 595.659M435.913 614.856C405.138 648.566 362.992 670.995 318.29 682.39M435.913 614.856C440.354 609.992 444.558 604.893 448.498 599.558M446.457 595.659C446.673 595.222 446.888 594.785 447.101 594.348M446.457 595.659C438.568 591.569 430.796 587.407 423.112 583.17M446.457 595.659C446.847 595.861 447.237 596.063 447.628 596.265M447.101 594.348C453.888 580.422 459.37 565.798 463.429 549.898M447.101 594.348C447.279 594.986 447.454 595.625 447.628 596.265M447.101 594.348C444.951 586.624 442.465 578.939 439.696 571.316M463.429 549.898C465.79 540.647 467.669 530.964 469.043 520.735C469.492 517.398 469.884 514.038 470.211 510.663M463.429 549.898C456.111 557.609 448.113 564.756 439.696 571.316M463.429 549.898C468.202 544.868 472.686 539.598 476.808 534.093M470.211 510.663C471.026 502.24 471.436 493.722 471.3 485.23M470.211 510.663C459.242 527.602 447.637 544.154 435.446 560.204M470.211 510.663C472.054 507.816 473.88 504.957 475.688 502.089M471.3 485.23C471.11 473.387 469.858 461.595 467.164 450.185M471.3 485.23C473.19 490.721 474.659 496.361 475.688 502.089M471.3 485.23C468.843 478.095 465.672 471.212 461.827 464.723M467.164 450.185C466.792 448.609 466.392 447.041 465.964 445.481C460.33 424.944 449.956 405.254 436.736 387.366M467.164 450.185C465.522 455.076 463.739 459.921 461.827 464.723M467.164 450.185C473.501 431.304 477.744 411.738 479.264 391.347M436.736 387.366C436.544 387.107 436.352 386.848 436.16 386.59M436.736 387.366C436.238 388.059 435.745 388.736 435.258 389.397C434.555 390.35 433.833 391.315 433.093 392.29M436.16 386.59C429.333 377.436 421.764 368.76 413.709 360.691M436.16 386.59C435.148 388.506 434.124 390.406 433.093 392.29M413.709 360.691C405.565 352.533 396.924 344.996 388.052 338.212M413.709 360.691C405.307 365.744 397.047 371.133 389.003 376.852M388.052 338.212C387.559 337.836 387.065 337.461 386.571 337.089M388.052 338.212C387.838 341.111 387.606 344.007 387.354 346.902M386.571 337.089C380.849 332.781 375.037 328.787 369.205 325.144C366.408 323.396 363.487 321.679 360.459 319.994M386.571 337.089C386.85 340.341 387.112 343.613 387.354 346.902M386.571 337.089C386.333 334.321 386.083 331.568 385.82 328.831M360.459 319.994C369.072 322.708 377.536 325.652 385.82 328.831M297.362 293.707C284.925 289.762 272.261 286.316 259.873 283.449M297.362 293.707C299.263 297.594 301.068 301.549 302.779 305.572M297.362 293.707C289.659 277.953 280.376 263.317 269.331 249.831M259.873 283.449C244.32 279.85 229.205 277.165 215.524 275.553M259.873 283.449C263.42 288.975 266.761 294.596 269.882 300.295M259.873 283.449C252.957 272.674 245.259 262.258 236.886 252.319M215.524 275.553C214.988 275.49 214.453 275.428 213.921 275.368M215.524 275.553C221.683 268.277 228.888 260.121 236.886 252.319M215.524 275.553C215.305 275.813 215.086 276.071 214.869 276.329M213.921 275.368C213.296 275.298 212.675 275.23 212.056 275.164C207.126 274.64 202.21 274.246 197.309 273.98M213.921 275.368C214.238 275.688 214.554 276.008 214.869 276.329M213.921 275.368C205.024 266.387 195.532 257.954 185.531 250.087M197.309 273.98C154.383 271.647 112.613 279.062 72.8134 293.757M197.309 273.98C201.609 276.623 205.83 279.377 209.972 282.239M197.309 273.98C185.116 266.487 172.28 259.888 158.77 254.267M72.8134 293.757C60.7627 298.206 48.8927 303.323 37.2261 309.038C28.7083 313.211 20.2482 317.643 11.8795 322.33M72.8134 293.757C71.4044 290.994 70.0052 288.095 68.6199 285.076M72.8134 293.757C73.2438 294.601 73.6752 295.432 74.1073 296.251C75.7478 299.357 77.4442 302.428 79.1936 305.466M11.8795 322.33C11.6035 322.484 11.3276 322.639 11.0517 322.794M11.8795 322.33C12.6326 321.733 13.3872 321.138 14.1437 320.546C19.5658 316.301 24.9225 312.198 30.2357 308.232M11.8795 322.33C10.839 323.154 9.80152 323.983 8.76746 324.817M11.0517 322.794C10.2344 323.254 9.41796 323.716 8.60244 324.18M11.0517 322.794C17.2226 317.741 23.547 312.918 30.2357 308.232M11.0517 322.794C10.2785 323.427 9.50767 324.064 8.73884 324.705M8.60244 324.18C4.65077 326.431 0.720616 328.739 -3.18444 331.102M8.60244 324.18C8.6484 324.355 8.69389 324.53 8.73884 324.705M8.60244 324.18C7.0724 318.369 4.98295 312.815 2.23761 307.645M-3.18444 331.102C-15.9015 338.799 -28.3523 347.091 -40.4128 355.955M-3.18444 331.102C-14.3475 336.238 -24.601 341.89 -33.7782 348.036M-3.18444 331.102C-0.237436 329.746 2.77298 328.426 5.84371 327.143M-40.4128 355.955C-69.3751 377.241 -96.0865 401.829 -118.827 429.41M-40.4128 355.955C-38.2292 353.321 -36.0191 350.683 -33.7782 348.036M-40.4128 355.955C-64.789 385.359 -85.8619 414.276 -109.575 448.839M-118.827 429.41C-122.306 433.629 -125.692 437.918 -128.979 442.276M-118.827 429.41C-120.545 423.959 -122.054 418.436 -123.343 412.852C-130.531 381.711 -126.658 352.191 -117.49 323.499M-118.827 429.41C-116.64 436.35 -114.114 443.173 -111.27 449.856M-128.979 442.276C-138.594 455.025 -147.361 468.364 -155.126 482.265M-128.979 442.276C-139.263 412.137 -145.711 380.223 -146.488 348.46M-128.979 442.276C-127.221 447.427 -125.351 452.527 -123.378 457.565M-155.126 482.265C-155.405 482.764 -155.683 483.263 -155.959 483.764C-160.461 491.923 -164.473 500.443 -167.686 509.187M-155.126 482.265C-144.672 472.944 -134.3 464.898 -123.378 457.565M-155.126 482.265C-160.299 486.877 -165.492 491.801 -170.78 497.105C-172.376 498.705 -173.975 500.352 -175.565 502.044M-167.686 509.187C-168.202 510.593 -168.697 512.004 -169.171 513.421M-167.686 509.187C-161.686 504.793 -155.689 500.526 -149.731 496.386C-145.092 493.162 -140.218 489.862 -135.148 486.509M-167.686 509.187C-168.649 509.893 -169.612 510.601 -170.574 511.313M-169.171 513.421C-169.23 513.596 -169.288 513.772 -169.346 513.948M-169.171 513.421C-169.641 512.719 -170.109 512.016 -170.574 511.313M-169.171 513.421C-166.374 517.598 -163.504 521.758 -160.584 525.879M-169.346 513.948C-173.38 526.161 -175.773 538.758 -175.704 551.375M-169.346 513.948C-169.815 513.112 -170.278 512.274 -170.736 511.433M-169.346 513.948C-166.831 518.439 -164.178 522.856 -161.398 527.199M-175.704 551.375C-175.655 560.244 -174.39 569.123 -171.623 577.887M-175.704 551.375C-171.085 543.225 -166.296 535.164 -161.398 527.199M-175.704 551.375C-179.564 558.188 -183.306 565.064 -186.893 572M-171.623 577.887C-171.113 579.502 -170.552 581.113 -169.939 582.72M-171.623 577.887C-173.505 578.037 -175.389 578.142 -177.271 578.202M-171.623 577.887C-158.113 576.815 -144.69 573.464 -132.472 568.338C-131.78 568.048 -131.09 567.754 -130.402 567.457M-169.939 582.72C-168.951 585.306 -167.826 587.88 -166.557 590.438C-159.742 604.176 -146.371 618.392 -135.29 628.259C-119.107 642.669 -101.666 656.135 -83.5937 668.703M-169.939 582.72C-172.385 581.241 -174.83 579.735 -177.271 578.202M-83.5937 668.703C-85.8564 668.495 -88.1182 668.259 -90.3788 667.995C-103.309 666.482 -116.674 663.901 -129.893 660.154M-25.9737 704.986C-18.5484 709.263 -11.5355 713.242 -4.62882 716.903M-25.9737 704.986C-20.7009 706.182 -15.3975 707.195 -10.0722 708.002M-4.62882 716.903C1.3206 720.057 7.19117 722.976 13.1787 725.649M-4.62882 716.903C-2.62011 717.072 -0.61052 717.223 1.39974 717.356M13.1787 725.649C18.1293 727.859 23.16 729.9 28.3812 731.767M13.1787 725.649C9.1865 723.033 5.24861 720.267 1.39974 717.356M13.1787 725.649C16.9267 728.104 20.7226 730.426 24.5394 732.61M28.3812 731.767C35.8701 734.444 43.7511 736.762 52.3507 738.701C53.5386 738.969 54.7277 739.223 55.9181 739.464M28.3812 731.767C27.103 732.059 25.8225 732.34 24.5394 732.61M28.3812 731.767C40.8632 728.911 53.1105 724.98 65.1084 720.225M55.9181 739.464C73.2215 742.968 90.7777 743.66 108.26 742.371M55.9181 739.464C52.6205 740.825 49.3084 742.147 45.9818 743.431M55.9181 739.464C65.2356 735.621 74.4365 731.477 83.5127 727.056M108.26 742.371C117.163 741.715 126.046 740.545 134.867 738.97M108.26 742.371C107.828 739.515 107.416 736.665 107.023 733.824M108.26 742.371C109.381 749.785 110.636 757.243 112.051 764.708M134.867 738.97C150.141 736.244 165.228 732.306 179.903 727.724M134.867 738.97C125.538 737.776 116.246 736.047 107.023 733.824M134.867 738.97C145.664 740.352 156.509 741.017 167.352 740.901M179.903 727.724C180.275 727.608 180.647 727.492 181.018 727.375C200.538 721.229 219.162 713.802 236.941 705.188M179.903 727.724C178.247 729.581 176.566 731.41 174.862 733.211C172.401 735.812 169.897 738.376 167.352 740.901M179.903 727.724C187.732 718.95 195.012 709.578 201.658 699.725M236.941 705.188C246.197 700.703 255.224 695.896 264.03 690.781M236.941 705.188C243.777 707.596 250.574 709.596 257.322 711.207M236.941 705.188C229.863 702.694 222.744 699.761 215.595 696.367M264.03 690.781C267.809 688.585 271.548 686.332 275.246 684.024M264.03 690.781C259.979 691.014 255.937 691.161 251.909 691.22C245.677 691.312 239.424 691.2 233.188 690.853M264.03 690.781C266.469 690.64 268.91 690.468 271.353 690.264M275.246 684.024C283.146 679.093 290.862 673.908 298.4 668.478M275.246 684.024C273.96 686.117 272.663 688.197 271.353 690.264M275.246 684.024C279.615 676.911 283.849 669.641 287.966 662.214M298.4 668.478C299.692 667.547 300.979 666.609 302.26 665.664M298.4 668.478C296.095 666.634 293.792 664.707 291.48 662.688C290.848 662.136 290.219 661.578 289.593 661.015M298.4 668.478C303.455 672.523 308.518 676.169 313.7 679.519M302.26 665.664C322.984 650.383 342.346 633.236 360.465 614.442M302.26 665.664C300.043 662.542 297.973 659.327 296.046 656.028M302.26 665.664C305.712 670.523 309.521 675.155 313.7 679.519M360.465 614.442C374.031 600.371 386.902 585.376 399.125 569.548M360.465 614.442C349.275 618.777 338.345 622.426 327.394 625.477M360.465 614.442C369.538 610.928 378.781 606.964 388.346 602.504C395.953 598.957 403.617 594.968 411.184 590.552M399.125 569.548C401.64 566.292 404.127 563 406.587 559.675C412.668 551.456 418.553 543.14 424.169 534.711M399.125 569.548C390.327 564.41 381.605 559.167 372.913 553.814M399.125 569.548C405.741 573.411 412.401 577.214 419.125 580.959M424.169 534.711C439.106 512.291 452.133 489.067 461.827 464.723M424.169 534.711C428.209 543.093 431.994 551.602 435.446 560.204M424.169 534.711C418.775 523.519 412.926 512.554 406.81 501.895M461.827 464.723C451.864 447.907 437.369 433.729 419.006 424.606C418.852 424.529 418.698 424.453 418.543 424.378M479.264 391.347C479.474 388.535 479.632 385.708 479.736 382.864M479.264 391.347C484.336 397.145 488.839 403.209 492.797 409.495M479.736 382.864C479.806 380.966 479.852 379.06 479.873 377.147M479.736 382.864C471.215 375.571 462.083 368.763 452.427 362.428M479.736 382.864C481.162 384.084 482.57 385.318 483.962 386.565M479.873 377.147C479.874 377.073 479.875 376.999 479.876 376.925M479.873 377.147C479.996 377.353 480.118 377.559 480.24 377.765M479.873 377.147C473.914 367.127 467.08 357.508 459.634 348.428M479.876 376.925C479.933 371.375 479.785 365.764 479.421 360.09C479.214 356.847 478.949 353.628 478.627 350.432M479.876 376.925C479.997 377.205 480.119 377.485 480.24 377.765M479.876 376.925C474.745 365.109 469.07 353.057 463.01 341.001M478.627 350.432C477.935 343.562 476.979 336.801 475.759 330.151M478.627 350.432C494.852 371.399 509.74 393.49 522.784 416.486M478.627 350.432C474.422 344.999 470.127 339.641 465.752 334.362M475.759 330.151C474.77 324.761 473.607 319.444 472.27 314.203M475.759 330.151C491.368 323.968 508.663 318.006 526.55 312.782M475.759 330.151C472.358 331.498 469.037 332.856 465.808 334.219M472.27 314.203C466.24 290.573 456.663 268.485 443.487 248.135M472.27 314.203C470.631 320.831 468.413 327.565 465.808 334.219M472.27 314.203C474.771 304.09 475.924 294.225 475.049 285.269C474.436 279.002 473.164 272.773 471.354 266.671M443.487 248.135C434.631 234.456 424.147 221.563 412.022 209.515C401.953 199.512 391.672 190.148 381.043 181.52M443.487 248.135C453.054 254.031 462.32 260.194 471.354 266.671M443.487 248.135C425.946 237.324 407.394 227.409 387.407 218.089M381.043 181.52C370.091 172.629 358.77 164.519 346.934 157.293M381.043 181.52C382.861 193.029 384.395 204.445 385.645 215.782M381.043 181.52C380.027 175.085 378.921 168.62 377.726 162.123M346.934 157.293C339.098 152.508 331.036 148.112 322.706 144.133M346.934 157.293C349.597 164.541 352.132 171.732 354.525 178.819M346.934 157.293C345.985 154.707 345.019 152.115 344.038 149.517M322.706 144.133C320.16 142.917 317.59 141.74 314.992 140.603M322.706 144.133C330.126 145.753 337.226 147.536 344.038 149.517M322.706 144.133C321.115 143.785 319.509 143.445 317.889 143.112M314.992 140.603C301.818 134.834 287.968 130.092 273.284 126.487C269.13 125.467 264.983 124.556 260.844 123.748M314.992 140.603C315.961 141.435 316.927 142.272 317.889 143.112M314.992 140.603C304.843 131.883 294.316 123.625 283.426 115.915M260.844 123.748C191.255 110.172 123.752 126.011 58.6281 151.975M260.844 123.748C268.309 120.945 275.837 118.33 283.426 115.915M260.844 123.748C253.084 126.662 245.392 129.78 237.77 133.088M58.6281 151.975C56.8152 152.697 55.0042 153.428 53.1951 154.166M58.6281 151.975C59.4055 152.052 60.1825 152.135 60.9591 152.221M58.6281 151.975C49.6609 151.076 40.6444 150.752 31.6172 151.047M53.1951 154.166C46.5134 156.892 39.8569 159.719 33.226 162.626M53.1951 154.166C55.7864 153.505 58.3744 152.856 60.9591 152.221M53.1951 154.166C46.414 155.896 39.609 157.714 32.7722 159.615M33.226 162.626C32.7365 162.841 32.2471 163.056 31.7579 163.271C26.1009 165.763 20.4659 168.326 14.8582 170.962M33.226 162.626C33.07 161.617 32.9187 160.613 32.7722 159.615M33.226 162.626C33.4784 164.258 33.743 165.903 34.0196 167.561M14.8582 170.962C3.20781 176.438 -8.32442 182.228 -19.6894 188.348M14.8582 170.962C21.2109 169.71 27.5999 168.578 34.0196 167.561M14.8582 170.962C7.96612 172.319 1.11654 173.817 -5.68449 175.458M-19.6894 188.348C-21.081 189.097 -22.47 189.851 -23.8565 190.61M-19.6894 188.348C-15.0567 184.013 -10.3881 179.716 -5.68449 175.458M-19.6894 188.348C-20.3415 188.958 -20.993 189.569 -21.6437 190.181M-23.8565 190.61C-38.2154 198.473 -52.2956 206.868 -65.9972 215.826M-23.8565 190.61C-23.1195 190.464 -22.3819 190.32 -21.6437 190.181M-23.8565 190.61C-34.5931 192.748 -45.2024 195.612 -55.6138 199.141M-65.9972 215.826C-90.451 231.814 -113.699 249.594 -135.171 269.34M-65.9972 215.826C-62.6205 210.211 -59.1586 204.646 -55.6138 199.141M-65.9972 215.826C-72.4701 226.589 -78.6294 237.533 -84.4572 248.577M-135.171 269.34C-139.092 272.946 -142.953 276.617 -146.752 280.354M-135.171 269.34C-134.136 266.264 -133.026 263.206 -131.839 260.168C-131.684 259.772 -131.529 259.377 -131.373 258.984M-135.171 269.34C-135.615 270.661 -136.045 271.985 -136.462 273.312M-146.752 280.354C-157.558 290.986 -167.857 302.157 -177.569 313.891C-194.371 334.189 -210.37 356.673 -223.074 380.705M-146.752 280.354C-143.341 277.886 -139.921 275.543 -136.462 273.312M-146.752 280.354C-156.752 287.592 -166.674 295.915 -177.294 305.696C-181.779 309.826 -186.239 314.012 -190.62 318.283M-223.074 380.705C-231 395.699 -237.643 411.296 -242.397 427.34M-223.074 380.705C-223.677 376.357 -224.161 372.003 -224.519 367.645M-223.074 380.705C-221.63 391.112 -219.5 401.483 -216.752 411.799M-242.397 427.34C-243.568 431.292 -244.624 435.271 -245.557 439.274M-242.397 427.34C-241.619 416.762 -239.93 406.416 -237.171 396.566C-234.33 386.427 -229.77 376.863 -224.519 367.645M-242.397 427.34C-242.624 430.42 -242.773 433.521 -242.849 436.634M-245.557 439.274C-250.303 459.648 -251.848 480.666 -248.999 502.022C-248.912 502.673 -248.823 503.321 -248.732 503.967M-245.557 439.274C-244.655 438.392 -243.752 437.512 -242.849 436.634M-245.557 439.274C-246.712 440.404 -247.866 441.536 -249.019 442.671M-248.732 503.967C-247.623 511.822 -246.2 519.267 -244.47 526.462M-248.732 503.967C-245.678 496.745 -242.493 489.56 -239.185 482.415M-248.732 503.967C-250.028 507.032 -251.301 510.103 -252.549 513.181M-244.47 526.462C-241.576 538.498 -237.823 549.835 -233.244 561.229M-244.47 526.462C-247.052 523.978 -249.58 521.464 -252.049 518.92M-244.47 526.462C-236.104 534.511 -227.179 542.236 -217.897 549.587M-233.244 561.229C-232.99 561.861 -232.733 562.493 -232.474 563.125M-233.244 561.229C-238.468 557.004 -243.228 552.112 -247.475 546.755M-233.244 561.229C-232.747 561.631 -232.245 562.027 -231.74 562.417M-232.474 563.125C-228.649 572.463 -224.27 581.867 -219.356 591.752C-215.374 599.763 -211.187 607.737 -206.803 615.648M-232.474 563.125C-232.23 562.889 -231.985 562.653 -231.74 562.417M-232.474 563.125C-235.026 565.59 -237.549 568.083 -240.04 570.602M-206.803 615.648C-205.43 618.124 -204.039 620.594 -202.629 623.057M-206.803 615.648C-204.147 608.843 -201.285 602.086 -198.248 595.378M-206.803 615.648C-207.158 616.559 -207.51 617.471 -207.858 618.384M-202.629 623.057C-196.905 633.052 -190.87 642.933 -184.54 652.65M-202.629 623.057C-204.412 621.54 -206.156 619.983 -207.858 618.384M-202.629 623.057C-190.071 633.74 -175.583 642.411 -160.21 649.246M-184.54 652.65C-162.083 687.125 -135.925 719.53 -106.884 747.585C-98.5692 755.617 -89.3854 763.52 -79.6665 771.055M-184.54 652.65C-194.214 645.762 -203.454 638.318 -212.182 630.345M-184.54 652.65C-169.149 663.61 -152.657 673.165 -135.366 681.216M-79.6665 771.055C-58.5617 787.42 -34.9338 802.056 -12.2059 812.536C-0.406038 817.977 11.6186 823.013 23.8262 827.626M-79.6665 771.055C-124.553 773.365 -174.843 766.593 -216.135 745.999M23.8262 827.626C33.3506 831.224 42.9864 834.565 52.7139 837.639M23.8262 827.626C10.5342 831.836 -2.98423 835.238 -16.6309 837.775M23.8262 827.626C56.34 817.328 87.5 802.198 115.875 783.079M52.7139 837.639C65.8446 841.788 79.1423 845.451 92.5584 848.604M52.7139 837.639C32.2561 838.675 11.6489 838.861 -9.12126 838.09C-11.6061 837.998 -14.1101 837.894 -16.6309 837.775M52.7139 837.639C77.8417 836.366 102.744 833.81 127.445 830.166M92.5584 848.604C108.545 852.362 124.7 855.397 140.94 857.672M92.5584 848.604C88.2524 850.665 83.8718 852.688 79.4146 854.673C28.2563 877.464 -29.9608 885.369 -85.928 884.174C-158.446 882.627 -274.017 837.586 -330.759 787.407C-366.204 756.061 -398.583 692.59 -389.697 642.358C-384.758 614.44 -369.147 589.078 -353.67 565.348C-336.139 538.467 -314.417 511.754 -290.878 485.974M92.5584 848.604C104.771 842.76 116.384 836.615 127.445 830.166M140.94 857.672C166.512 861.254 192.296 862.95 217.971 862.613C269.779 861.934 306.541 854.971 353.728 834.931C386.351 821.075 416.363 801.447 443.84 778.548M140.94 857.672C136.639 848.638 132.813 839.345 129.401 829.875M140.94 857.672C147.637 871.738 155.485 885.174 164.711 897.66C192.012 934.606 234.605 968.528 283.461 961.852C297.914 959.878 312.592 955.18 324.585 946.855C358.729 923.153 399.095 861.124 416.836 829.744C425.638 814.175 434.745 796.866 443.84 778.548M443.84 778.548C462.541 762.963 480.068 745.862 496.446 728.035M443.84 778.548C451.247 763.631 458.646 748.045 465.865 732.186M496.446 728.035C503.556 720.296 510.449 712.42 517.128 704.471M496.446 728.035C486.445 730.273 476.205 731.637 465.865 732.186M496.446 728.035C497.852 727.72 499.253 727.388 500.648 727.039C542.924 716.459 584.162 689.855 612.212 654.053M517.128 704.471C517.913 703.537 518.695 702.602 519.474 701.665C534.664 683.412 549.332 664.24 563.234 644.287M517.128 704.471C511.097 707.347 505.158 709.962 499.651 712.432C489.395 717.034 479.102 721.461 468.772 725.764M517.128 704.471C536.007 695.47 555.784 683.918 566.004 666.281C569.374 660.465 572.038 653.884 574.086 646.958M563.234 644.287C568.61 636.571 573.871 628.739 579.003 620.798M563.234 644.287C561.561 643.836 560 643.394 558.567 642.963C542.076 638.008 525.849 632.11 509.914 625.52M563.234 644.287C566.465 645.156 570.116 646.054 574.086 646.958M579.003 620.798C604.287 581.679 626.448 539.92 643.802 496.478M579.003 620.798C578.171 629.521 576.588 638.496 574.086 646.958M579.003 620.798C579.649 614.029 579.841 607.412 579.66 601.306C578.43 560.038 567.973 518.076 552.697 479.14M643.802 496.478C668.791 433.921 683.81 367.873 683.826 301.191M643.802 496.478C650.87 530.66 651.173 567.357 641.629 598.619C635.518 618.638 625.301 637.347 612.212 654.053M643.802 496.478C639.731 476.795 633.418 457.946 625.449 441.447C611.369 412.297 592.338 385.495 571.402 360.738M683.826 301.191C683.829 286.54 683.108 271.859 681.61 257.177C676.128 203.468 665.974 173.728 631.85 133.499C619.696 119.171 604.737 107.377 589.812 95.9819C584.786 92.1446 513.372 47.273 505.597 42.8484C494.485 36.5248 483.434 30.7936 472.284 25.7519M683.826 301.191C713.642 310.128 738.789 328.215 756.189 357.344C767.706 376.624 772.576 399.443 776.854 421.504C786.58 471.655 784.466 510.901 770.08 559.632C755.522 608.944 727.236 651.63 672.292 657.871C658.046 659.489 634.774 657.433 612.212 654.053M683.826 301.191C670.765 297.276 656.808 295.117 642.213 294.554C622.032 293.776 598.591 296.347 574.485 301.041M472.284 25.7519C441.297 11.741 409.547 3.05589 373.597 1.78543C350.29 0.961758 326.761 2.37682 303.451 5.76454M472.284 25.7519C533.699 73.6914 563.498 147.004 571.345 226.336C573.8 251.15 574.786 276.086 574.485 301.041M472.284 25.7519C463.19 18.6539 453.404 12.1122 442.893 6.18948C393.351 -21.727 342.746 -21.7827 290.314 -6.24061M303.451 5.76454C294.492 7.0667 285.564 8.6603 276.694 10.5302M303.451 5.76454C316.203 18.1307 326.745 30.6542 332.98 41.3323C343.726 59.7348 353 79.2032 360.519 99.3152M303.451 5.76454C299.284 1.72272 294.88 -2.3023 290.314 -6.24061M276.694 10.5302C248.368 16.502 220.627 25.2919 194.285 36.4081C180.757 42.1167 165.998 49.6778 151.272 58.0689M276.694 10.5302C293.982 37.7328 310.875 70.6862 325.791 104.742M276.694 10.5302C274.498 7.07464 272.296 3.71187 270.09 0.451394M151.272 58.0689C128.657 70.9557 106.121 85.8005 88.2437 98.9002C68.6771 113.238 49.511 128.208 30.8128 143.774M151.272 58.0689C173.715 60.6792 194.439 68.3173 218.795 79.0429C241.527 89.053 263.107 101.53 283.426 115.915M151.272 58.0689C150.647 57.9962 150.021 57.9274 149.393 57.8625M30.8128 143.774C27.6821 146.38 24.5644 149.003 21.4602 151.643M30.8128 143.774C30.4723 140.311 30.2061 136.954 30.0191 133.724M30.8128 143.774C31.0464 146.15 31.3151 148.577 31.6172 151.047M21.4602 151.643C14.8733 157.244 8.34684 162.919 1.88392 168.667M21.4602 151.643C24.846 151.356 28.2324 151.158 31.6172 151.047M21.4602 151.643C14.2888 152.251 7.12005 153.259 -0.0266151 154.69M1.88392 168.667C-0.648709 170.92 -3.17156 173.184 -5.68449 175.458M1.88392 168.667C12.267 165.479 22.5549 162.455 32.7722 159.615M1.88392 168.667C-4.02485 170.482 -9.96443 172.35 -15.9394 174.268C-22.492 176.371 -29.0465 178.508 -35.5931 180.692M-5.68449 175.458C-18.1644 178.471 -30.4803 181.969 -42.593 185.978M-21.6437 190.181C-40.8177 208.205 -59.3689 226.885 -77.2121 246.174M-21.6437 190.181C-2.15057 186.487 17.7452 185.197 37.6237 186.677M-77.2121 246.174C-81.8815 251.221 -86.5024 256.31 -91.0732 261.44M-77.2121 246.174C-77.0031 246.107 -76.7937 246.04 -76.5838 245.973C-50.2408 237.592 -21.6273 232.614 7.39598 230.944M-77.2121 246.174C-79.6807 246.964 -82.0942 247.764 -84.4572 248.577M-91.0732 261.44C-95.402 266.299 -99.6858 271.194 -103.923 276.124C-105.09 277.481 -106.254 278.843 -107.416 280.209M-91.0732 261.44C-88.9182 257.141 -86.7125 252.851 -84.4572 248.577M-91.0732 261.44C-93.7023 266.686 -96.256 271.947 -98.7324 277.216M-107.416 280.209C-120.687 295.815 -133.674 312.026 -146.224 328.761M-107.416 280.209C-104.569 279.1 -101.67 278.101 -98.7324 277.216M-107.416 280.209C-116.949 283.925 -125.888 288.879 -133.678 294.94C-137.106 297.607 -140.384 300.376 -143.515 303.238M-146.224 328.761C-158.737 345.447 -170.815 362.653 -182.305 380.297M-146.224 328.761C-145.777 320.2 -144.886 311.68 -143.515 303.238M-146.224 328.761C-146.566 335.309 -146.648 341.882 -146.488 348.46M-182.305 380.297C-185.782 385.636 -189.205 391.014 -192.57 396.431M-182.305 380.297C-179.229 377.529 -176.181 374.796 -173.167 372.099C-164.315 364.179 -155.428 356.289 -146.488 348.46M-182.305 380.297C-185.237 382.934 -188.194 385.604 -191.172 388.303M-192.57 396.431C-199.174 407.06 -205.553 417.835 -211.678 428.738M-192.57 396.431C-192.171 393.708 -191.706 390.998 -191.172 388.303M-192.57 396.431C-197.685 431.34 -191.795 468.323 -175.565 502.044M-211.678 428.738C-221.555 446.32 -230.769 464.237 -239.185 482.415M-211.678 428.738C-213.548 423.11 -215.243 417.463 -216.752 411.799M-211.678 428.738C-207.854 440.248 -203.299 451.676 -198.109 462.996C-192.272 475.73 -184.701 489.202 -176.165 502.685M-239.185 482.415C-241.847 467.349 -243.221 451.835 -242.849 436.634M-239.185 482.415C-236.246 499.051 -231.739 515.141 -226.28 529.661C-224.099 535.465 -221.236 542.179 -217.829 549.527M-252.549 513.181C-253.046 514.406 -253.539 515.633 -254.028 516.86M-252.549 513.181C-254.334 489.472 -252.723 465.228 -249.019 442.671M-252.549 513.181C-252.404 515.098 -252.238 517.011 -252.049 518.92M-254.028 516.86C-255.661 520.956 -257.251 525.063 -258.795 529.179M-254.028 516.86C-259.445 511.171 -264.561 505.338 -269.31 499.377M-254.028 516.86C-253.373 517.549 -252.713 518.236 -252.049 518.92M-258.795 529.179C-262.339 538.62 -265.646 548.113 -268.702 557.649M-258.795 529.179C-263.744 519.622 -267.311 509.429 -269.31 499.377M-258.795 529.179C-255.586 535.377 -251.796 541.306 -247.475 546.755M-268.702 557.649C-269.319 559.574 -269.925 561.502 -270.522 563.431C-276.148 581.635 -280.594 601.437 -282.261 621.228M-268.702 557.649C-271.108 553.074 -273.382 548.413 -275.518 543.666C-284.155 524.469 -289.253 505.252 -290.878 485.974M-268.702 557.649C-263.894 566.788 -258.557 575.58 -252.741 584.008M-282.261 621.228C-285.844 663.751 -276.601 706.221 -238.687 732.668C-231.564 737.637 -224.013 742.069 -216.135 745.999M-282.261 621.228C-273.437 608.269 -263.484 595.862 -252.741 584.008M-282.261 621.228C-286.393 627.295 -290.277 633.482 -293.879 639.79C-308.845 665.999 -317.909 685.977 -307.33 715.883C-302.56 729.369 -294.388 741.776 -284.835 752.405C-265.273 774.174 -218.689 805.529 -193.043 817.479C-137.114 843.54 -75.6705 848.753 -16.6309 837.775M-216.135 745.999C-227.005 720.121 -227.638 690.395 -221.127 661.706C-218.733 651.157 -215.716 640.7 -212.182 630.345M-216.135 745.999C-210.553 759.287 -202.271 771.56 -190.871 782.158C-145.458 824.374 -76.3401 834.975 -16.6309 837.775M45.9818 743.431C43.2267 742.194 40.4848 740.915 37.7571 739.591C33.3523 737.453 28.9323 735.123 24.5394 732.61M45.9818 743.431C67.3225 753.007 89.4602 759.979 112.051 764.708M83.5127 727.056C90.6695 723.571 97.7489 719.913 104.747 716.095M83.5127 727.056C77.3293 724.988 71.191 722.706 65.1084 720.225M83.5127 727.056C91.2849 729.657 99.1283 731.921 107.023 733.824M104.747 716.095C111.938 712.171 119.043 708.079 126.059 703.83M104.747 716.095C104.387 713.076 104.047 710.095 103.725 707.146M104.747 716.095C105.271 720.489 105.835 724.961 106.44 729.528C106.63 730.958 106.824 732.39 107.023 733.824M126.059 703.83C132.36 700.014 138.588 696.072 144.741 692.014M126.059 703.83C123.165 703.564 120.276 703.253 117.391 702.897M126.059 703.83C151.059 706.128 176.377 705.03 201.658 699.725M144.741 692.014C147.508 690.188 150.26 688.339 152.996 686.468M144.741 692.014C141.162 693.632 137.509 695.209 133.78 696.746C128.355 698.982 122.89 701.03 117.391 702.897M144.741 692.014C148.414 690.353 152.009 688.648 155.53 686.896M152.996 686.468C153.871 685.87 154.744 685.269 155.615 684.667C156.734 683.892 157.843 683.121 158.941 682.351M152.996 686.468C150.135 685.944 147.257 685.282 144.364 684.475M152.996 686.468C153.842 686.623 154.687 686.766 155.53 686.896M158.941 682.351C161.936 680.254 164.854 678.175 167.705 676.107M158.941 682.351C154.107 683.153 149.244 683.862 144.364 684.475M158.941 682.351C161.594 681.911 164.238 681.444 166.872 680.949M167.705 676.107C184.698 663.78 199.274 651.873 213.046 639.209M167.705 676.107C163.369 674.175 159.123 672.03 154.982 669.656M167.705 676.107C169.162 676.756 170.629 677.381 172.106 677.983M213.046 639.209C222.1 630.884 230.807 622.232 239.623 612.918M213.046 639.209C207.496 639.248 202.041 639.218 196.666 639.117M213.046 639.209C216.325 639.187 219.637 639.14 222.986 639.07M239.623 612.918C243.109 609.235 246.613 605.448 250.163 601.537M239.623 612.918C238.765 616.672 237.817 620.409 236.781 624.124M239.623 612.918C240.279 610.044 240.882 607.159 241.431 604.266M250.163 601.537C254.874 596.346 259.666 590.936 264.605 585.259L264.664 585.191M250.163 601.537C249.818 600.333 249.496 599.121 249.198 597.902M250.163 601.537C250.535 602.838 250.934 604.13 251.359 605.413M264.664 585.191C264.969 584.84 265.273 584.489 265.577 584.138M264.664 585.191C260.367 592.264 255.941 598.998 251.359 605.413M264.664 585.191C264.778 585.003 264.892 584.815 265.006 584.627M265.577 584.138C267.639 581.758 269.675 579.374 271.682 576.984M265.577 584.138C265.387 584.301 265.196 584.464 265.006 584.627M265.577 584.138C268.851 581.339 272.127 578.508 275.404 575.644M271.682 576.984C272.93 575.497 274.166 574.008 275.391 572.516M271.682 576.984C270.548 577.705 269.411 578.416 268.273 579.118M271.682 576.984C272.922 576.195 274.16 575.394 275.394 574.582M275.391 572.516C290.34 554.297 303.467 535.603 313.086 515.266M275.391 572.516C275.398 570.388 275.44 568.258 275.514 566.128M275.391 572.516C275.388 573.205 275.39 573.893 275.394 574.582M313.086 515.266C314.252 512.799 315.368 510.308 316.428 507.79M313.086 515.266C311.927 514.492 310.766 513.717 309.605 512.94M313.086 515.266C318.374 518.793 323.634 522.278 328.875 525.722M316.428 507.79C324.099 489.582 328.913 470 329.73 448.255C329.83 445.581 329.849 442.704 329.793 439.664M316.428 507.79C314.091 509.597 311.813 511.317 309.605 512.94M316.428 507.79C324.282 501.719 332.805 494.664 341.621 486.973M329.793 439.664C329.76 437.883 329.702 436.046 329.619 434.161M329.793 439.664C330.278 439.307 330.764 438.952 331.252 438.601M329.793 439.664C323.344 444.412 317.154 449.686 311.292 455.255M329.619 434.161C329.574 433.117 329.521 432.058 329.461 430.986M329.619 434.161C330.18 435.638 330.725 437.118 331.252 438.601M329.619 434.161C329.327 433.392 329.031 432.624 328.73 431.857M329.461 430.986C328.768 418.565 327.128 404.306 324.96 390.175M329.461 430.986C334.633 424.849 340.086 418.926 345.779 413.219M329.461 430.986C329.217 431.276 328.973 431.566 328.73 431.857M324.96 390.175C323.392 379.956 321.547 369.805 319.584 360.464M324.96 390.175C332.34 397.846 339.165 405.378 345.779 413.219M324.96 390.175C317.119 382.025 308.653 373.719 299.149 364.719C297.554 363.209 295.945 361.695 294.322 360.18M319.584 360.464C321.854 360.996 324.123 361.551 326.39 362.131C336.268 364.658 346.704 367.567 356.923 371.298M319.584 360.464C310.69 358.38 301.779 356.664 292.86 355.294M302.779 305.572C291.908 303.5 280.925 301.743 269.882 300.295M269.331 249.831C265.308 244.919 261.051 240.16 256.552 235.555M269.331 249.831C308.333 254.293 346.242 265.294 380.153 283.24M269.331 249.831C260.167 248.783 250.942 248.096 241.695 247.764M256.552 235.555C250.412 229.271 243.821 223.275 236.756 217.571M256.552 235.555C268.639 226.831 281.786 220.416 295.383 219.237C313.856 217.634 329.494 226.178 345.312 234.121C355.361 239.167 365.049 244.66 374.396 250.598M256.552 235.555C251.391 239.28 246.422 243.425 241.695 247.764M236.756 217.571C236.43 217.307 236.103 217.045 235.775 216.783C210.672 196.733 190.894 184.191 158.094 180.874C155.781 180.64 153.455 180.433 151.12 180.262M236.756 217.571C265.947 212.132 295.718 209.027 325.081 211.661C336.984 212.728 351.781 215.47 367.154 220.109M236.756 217.571C227.917 219.218 219.13 221.078 210.425 223.059C209.98 223.16 209.535 223.262 209.091 223.364M151.12 180.262C150.137 180.19 149.152 180.124 148.166 180.066M151.12 180.262C161.194 173.659 171.434 167.34 181.834 161.346M151.12 180.262C150.732 180.517 150.343 180.772 149.955 181.028M148.166 180.066C134.664 179.261 120.955 179.77 108.009 183.276C98.3457 185.893 88.304 189.437 78.0822 193.675M148.166 180.066C148.764 180.384 149.36 180.705 149.955 181.028M148.166 180.066C133.396 172.193 118.023 165.71 102.278 160.875M78.0822 193.675C66.5627 198.451 54.8146 204.11 43.1223 210.318M78.0822 193.675C85.7598 195.794 93.3914 198.374 100.952 201.437C105.165 203.144 109.342 204.926 113.479 206.782M78.0822 193.675C64.6924 189.979 51.1621 187.685 37.6237 186.677M43.1223 210.318C31.0498 216.728 19.0366 223.725 7.39598 230.944M43.1223 210.318C41.0987 202.403 39.254 194.476 37.6237 186.677M43.1223 210.318C44.8776 217.183 46.7675 224.038 48.7688 230.79M7.39598 230.944C-15.2454 244.983 -36.4777 259.859 -53.9974 272.882M7.39598 230.944C21.1609 230.151 35.0181 230.103 48.7688 230.79M-53.9974 272.882C-55.8612 274.267 -57.6828 275.631 -59.4597 276.972C-79.2518 291.899 -98.5351 307.498 -117.49 323.499M-53.9974 272.882C-52.0224 273.103 -50.0629 273.384 -48.1236 273.724C-22.3325 278.246 -6.62776 290.949 2.23761 307.645M-53.9974 272.882C-68.6483 271.238 -84.1604 272.825 -98.7324 277.216M-117.49 323.499C-127.234 331.726 -136.892 340.058 -146.488 348.46M-117.49 323.499C-113.254 310.242 -107.887 297.161 -101.959 284.179C-100.898 281.857 -99.8229 279.536 -98.7324 277.216M-191.172 388.303C-199.563 395.907 -208.123 403.75 -216.752 411.799M-191.172 388.303C-184.867 356.433 -169.156 326.683 -143.515 303.238M-216.752 411.799C-225.415 419.88 -234.148 428.169 -242.849 436.634M-249.019 442.671C-256.048 449.591 -263.041 456.621 -269.944 463.744M-249.019 442.671C-247.63 434.214 -245.947 425.995 -244.039 418.13C-239.936 401.221 -233.285 381.741 -224.902 362.196M-269.944 463.744C-274.683 468.634 -279.38 473.568 -284.016 478.539M-269.944 463.744C-264.732 426.699 -244.057 384.991 -225.112 357.857M-269.944 463.744C-270.978 471.098 -271.404 478.268 -271.085 485.104C-270.867 489.772 -270.269 494.558 -269.31 499.377M-284.016 478.539C-286.319 481.008 -288.607 483.487 -290.878 485.974M-284.016 478.539C-286.662 474.235 -289.098 469.879 -291.302 465.476M-284.016 478.539C-279.654 485.635 -274.72 492.589 -269.31 499.377M-290.878 485.974C-291.453 479.15 -291.594 472.318 -291.302 465.476M127.445 830.166C128.014 829.834 128.581 829.502 129.147 829.169M127.445 830.166C128.097 830.07 128.749 829.973 129.401 829.875M129.147 829.169C123.765 814.13 119.421 798.654 115.875 783.079M129.147 829.169C129.231 829.404 129.316 829.64 129.401 829.875M204.581 772.51C220.247 757.581 234.456 741.593 247.51 724.534M204.581 772.51C181.472 773.143 158.355 772.031 135.571 768.816M247.51 724.534C250.855 720.162 254.124 715.72 257.322 711.207M247.51 724.534C221.329 735.486 194.347 740.613 167.352 740.901M247.51 724.534C254.489 721.614 261.411 718.28 268.261 714.514C268.728 714.258 269.196 713.998 269.666 713.736M257.322 711.207C262.155 704.388 266.826 697.407 271.353 690.264M257.322 711.207C261.456 712.195 265.571 713.036 269.666 713.736M271.353 690.264C285.977 689.043 300.651 686.687 315.082 683.188M287.966 662.214C288.294 661.621 288.622 661.027 288.949 660.432M287.966 662.214C276.157 670.828 263.572 678.19 250.489 683.967C244.735 686.508 238.966 688.8 233.188 690.853M287.966 662.214C288.51 661.817 289.052 661.417 289.593 661.015M288.949 660.432C290.531 657.555 292.095 654.655 293.643 651.731M288.949 660.432C283.059 655.076 277.474 649.231 272.406 642.96M288.949 660.432C289.164 660.627 289.378 660.821 289.593 661.015M293.643 651.731C297.224 644.968 300.717 638.078 304.134 631.062M293.643 651.731C290.724 646.279 288.177 640.62 285.987 634.799M293.643 651.731C294.418 653.178 295.219 654.611 296.046 656.028M304.134 631.062C306.288 626.639 308.412 622.166 310.509 617.642M304.134 631.062C298.537 632.195 292.885 633.192 287.141 634.064M304.134 631.062C311.964 629.477 319.684 627.626 327.394 625.477M310.509 617.642C320.82 595.395 330.473 571.928 339.818 547.225C341.282 543.357 342.713 539.496 344.114 535.643M310.509 617.642C302.968 623.445 295.166 628.928 287.141 634.064M310.509 617.642C321.202 609.413 331.37 600.541 340.9 591.104C348.922 583.16 356.442 574.699 363.554 565.893M344.114 535.643C349.003 522.189 353.506 508.823 357.62 495.521M344.114 535.643C342.021 534.294 339.928 532.938 337.832 531.576M344.114 535.643C352.401 540.987 360.667 546.227 368.954 551.366M357.62 495.521C360.86 485.047 363.858 474.612 366.613 464.205M357.62 495.521C352.202 501.504 346.67 507.429 341.047 513.286M357.62 495.521C366.739 485.451 375.532 475.216 383.886 464.862M366.613 464.205C368.205 458.194 369.715 452.193 371.144 446.198M366.613 464.205C363.482 467.175 360.344 470.108 357.214 472.989M366.613 464.205C370.031 460.963 373.441 457.676 376.823 454.363M371.144 446.198C373.377 436.833 375.411 427.484 377.246 418.142M371.144 446.198C373.016 448.846 374.907 451.564 376.823 454.363M371.144 446.198C368.708 442.753 366.304 439.427 363.913 436.199M377.246 418.142C379.515 406.592 381.478 395.053 383.135 383.508M377.246 418.142C381.254 417.522 385.292 417.224 389.351 417.285M377.246 418.142C372.872 418.819 368.536 419.877 364.251 421.268M383.135 383.508C383.263 382.616 383.39 381.723 383.514 380.831M383.135 383.508C385.244 384.774 387.306 386.103 389.312 387.501M383.135 383.508C382.54 383.151 381.941 382.798 381.339 382.451M383.514 380.831C385.089 369.534 386.37 358.23 387.354 346.902M383.514 380.831C385.332 379.487 387.162 378.161 389.003 376.852M383.514 380.831C382.787 381.368 382.062 381.908 381.339 382.451M387.354 346.902C388.081 356.753 388.64 366.759 389.003 376.852M388.608 329.912C389.441 316.196 389.839 302.433 389.802 288.597M388.608 329.912C403.824 335.878 418.41 342.644 432.167 350.237M389.802 288.597C389.776 279.277 389.553 269.924 389.13 260.528M389.802 288.597C391.563 289.623 393.313 290.669 395.05 291.734C414.891 303.902 435.028 320.542 452.504 340.102M389.802 288.597C386.624 286.747 383.407 284.962 380.153 283.24M389.13 260.528C388.63 249.427 387.852 238.266 386.795 227.033M389.13 260.528C407.657 273.755 424.776 288.872 440.655 305.866C443.756 309.185 446.828 312.542 449.869 315.936M389.13 260.528C384.314 257.091 379.404 253.78 374.396 250.598M386.795 227.033C386.492 223.812 386.165 220.584 385.816 217.35M386.795 227.033C390.378 228.492 393.94 230.057 397.45 231.733M386.795 227.033C380.262 224.374 373.657 222.072 367.154 220.109M385.816 217.35C385.759 216.827 385.702 216.305 385.645 215.782M385.816 217.35C386.347 217.596 386.878 217.842 387.407 218.089M385.816 217.35C378.607 214.013 371.212 210.752 363.61 207.553M385.645 215.782C386.234 216.549 386.822 217.319 387.407 218.089M385.645 215.782C375.877 203.059 365.495 190.688 354.525 178.819M377.726 162.123C377.416 160.438 377.1 158.749 376.777 157.059C373.045 137.479 367.549 118.116 360.519 99.3152M377.726 162.123C408.578 176.782 432.981 198.624 455.369 232.796C462.153 243.151 467.793 254.666 471.354 266.671M377.726 162.123C367.291 157.166 356.119 153.03 344.038 149.517M360.519 99.3152C398.176 95.3208 436.642 97.4353 472.916 107.52C496.226 114 514.223 121.474 531.403 138.606C557.921 165.05 565.681 206.328 566.044 242.371C566.254 263.239 564.292 283.781 560.588 303.962M360.519 99.3152C348.836 100.555 337.23 102.382 325.791 104.742M290.314 -6.24061C270.622 -23.2233 247.903 -38.5933 228.03 -46.7437M290.314 -6.24061C285.388 -4.78048 280.445 -3.18269 275.487 -1.4574C273.684 -0.83035 271.886 -0.194023 270.09 0.451394M228.03 -46.7437C223.935 -48.4231 219.961 -49.796 216.159 -50.8133C177.786 -61.0803 127.203 -44.4992 94.3837 -27.9633C83.423 -22.4407 72.8142 -16.2512 62.4335 -9.66993M228.03 -46.7437C240.64 -36.3742 252.05 -24.4726 261.676 -11.4597C264.482 -7.66753 267.289 -3.69063 270.09 0.451394M228.03 -46.7437C220.194 -53.1876 211.894 -59.0398 203.272 -64.1995C164.447 -87.4331 138.397 -80.3122 104.672 -54.8683C86.7345 -41.3346 73.0302 -26.5037 62.4335 -9.66993M62.4335 -9.66993C48.3498 -0.740932 34.6858 8.90926 21.1326 18.5935C-35.3386 58.9442 -74.8333 94.1229 -121.939 144.895C-155.614 181.19 -186.192 217.016 -206.393 262.313M62.4335 -9.66993C51.0728 8.3775 43.2841 28.727 37.6799 52.2477C34.2085 66.8175 31.7863 81.7359 30.5556 96.734M-206.393 262.313C-207.327 264.408 -208.239 266.522 -209.128 268.658C-214.817 282.328 -218.904 296.05 -221.543 309.783M-206.393 262.313C-196.2 254.784 -186.27 248.201 -177.208 242.704C-150.837 226.708 -122.852 213.499 -94.1272 201.967M-206.393 262.313C-258.949 301.135 -318.51 365.122 -302.373 435.244C-300.008 445.517 -296.237 455.615 -291.302 465.476M-221.543 309.783C-224.623 325.816 -225.731 341.862 -225.112 357.857M-221.543 309.783C-213.135 298.379 -204.951 288.37 -197.816 281.086C-169.542 252.216 -137.656 229.241 -103.263 211.425M-221.543 309.783C-243.17 339.119 -266.275 377.692 -276.794 402.893C-285.552 423.876 -290.416 444.72 -291.302 465.476M-225.112 357.857C-225.056 359.303 -224.986 360.75 -224.902 362.196M-225.112 357.857C-224.805 357.416 -224.498 356.98 -224.191 356.548C-222.698 354.439 -221.163 352.362 -219.592 350.312M-224.902 362.196C-224.796 364.013 -224.668 365.829 -224.519 367.645M-224.902 362.196C-223.201 358.23 -221.428 354.262 -219.592 350.312M-224.519 367.645C-220.696 360.933 -216.507 354.405 -212.347 347.971C-205.416 337.249 -198.186 327.469 -190.62 318.283M-176.165 502.685C-174.742 504.933 -173.292 507.181 -171.819 509.425M-176.165 502.685C-175.965 502.471 -175.765 502.257 -175.565 502.044M-176.165 502.685C-184.539 511.669 -192.608 521.888 -198.407 532.932M-171.819 509.425C-171.406 510.055 -170.991 510.684 -170.574 511.313M-171.819 509.425C-171.914 509.247 -172.01 509.068 -172.104 508.889C-173.306 506.624 -174.459 504.342 -175.565 502.044M-171.819 509.425C-171.461 510.096 -171.1 510.765 -170.736 511.433M-170.574 511.313C-170.628 511.353 -170.682 511.393 -170.736 511.433M-160.584 525.879C-150.337 540.335 -139.469 554.303 -128.979 566.837M-160.584 525.879C-152.308 512.472 -143.731 499.339 -135.148 486.509M-160.584 525.879C-160.855 526.319 -161.127 526.759 -161.398 527.199M-128.979 566.837C-127.053 569.137 -125.14 571.389 -123.247 573.587M-128.979 566.837C-129.452 567.045 -129.927 567.252 -130.402 567.457M-128.979 566.837C-128.231 566.508 -127.487 566.175 -126.745 565.839M-123.247 573.587C-124.551 571.062 -125.722 568.479 -126.745 565.839M-123.247 573.587C-122.636 574.77 -121.996 575.941 -121.329 577.099M-111.744 586.568C-100.254 599.219 -88.1252 611.712 -75.4608 623.782M-111.744 586.568C-95.9145 601.663 -78.8047 615.437 -61.2162 627.866C-59.4536 629.112 -57.6817 630.348 -55.9009 631.576M-75.4608 623.782C-74.179 625.004 -72.8916 626.221 -71.5989 627.434M-75.4608 623.782C-73.4689 625.236 -71.4769 626.657 -69.4956 628.047M-71.5989 627.434C-65.5921 633.07 -59.4691 638.606 -53.2407 644.016M-71.5989 627.434C-70.8984 627.64 -70.1974 627.844 -69.4956 628.047M-53.2407 644.016C-43.7404 652.268 -33.9946 660.225 -24.0418 667.79M-53.2407 644.016C-53.7935 642.054 -54.2879 640.074 -54.7211 638.075M-53.2407 644.016C-50.7407 652.887 -47.0459 661.369 -42.4139 669.41M-24.0418 667.79C-10.3105 678.227 3.81504 687.919 18.2349 696.61C25.4636 700.966 32.8251 705.059 40.2982 708.861M-24.0418 667.79C-30.1442 668.524 -36.2713 669.066 -42.4139 669.41M-24.0418 667.79C-18.761 667.155 -13.4988 666.376 -8.2613 665.457M40.2982 708.861C45.4767 711.495 50.7087 713.991 55.9875 716.338M40.2982 708.861C23.4786 711.044 6.59666 710.529 -10.0722 708.002M40.2982 708.861C49.9467 707.609 59.5749 705.468 69.1306 702.311C73.7714 700.778 78.5146 698.866 83.2989 696.65M55.9875 716.338C59.0129 717.683 62.0537 718.979 65.1084 720.225M55.9875 716.338C37.8639 718.279 19.6052 718.561 1.39974 717.356M55.9875 716.338C65.4051 715.329 74.7865 713.872 84.1047 711.943M65.1084 720.225C71.5122 717.687 77.8451 714.913 84.1047 711.943M167.352 740.901C157.361 750.816 146.734 760.14 135.571 768.816M269.666 713.736C284.101 705.671 299.716 694.984 315.082 683.188M269.666 713.736C299.481 718.834 328.179 716.446 354.787 708.378M315.082 683.188C315.507 682.861 315.932 682.534 316.356 682.206M315.082 683.188C315.69 683.04 316.297 682.891 316.903 682.74M316.356 682.206C316.596 682.021 316.836 681.835 317.077 681.649M316.356 682.206C315.455 681.322 314.57 680.426 313.7 679.519M316.356 682.206C316.538 682.385 316.72 682.562 316.903 682.74M317.077 681.649C340.652 663.377 363.492 642.638 380.402 624.917C390.976 613.835 401.244 602.363 411.184 590.552M317.077 681.649C315.945 680.952 314.82 680.242 313.7 679.519M317.077 681.649C317.48 681.898 317.885 682.144 318.29 682.39M411.184 590.552C413.855 587.378 416.502 584.181 419.125 580.959M411.184 590.552C415.195 588.211 419.179 585.75 423.112 583.17M419.125 580.959C424.675 574.143 430.117 567.221 435.446 560.204M419.125 580.959C420.451 581.698 421.781 582.435 423.112 583.17M435.446 560.204C436.926 563.892 438.345 567.597 439.696 571.316M475.688 502.089C485.702 486.196 495.158 469.985 504.016 453.544M475.688 502.089C477.576 512.595 477.985 523.393 476.808 534.093M504.016 453.544C504.403 452.825 504.789 452.106 505.174 451.386M504.016 453.544C504.382 466.48 502.727 479.513 498.64 492.427C493.868 507.51 486.296 521.422 476.808 534.093M504.016 453.544C503.929 450.481 503.729 447.423 503.421 444.373M505.174 451.386C506.384 449.124 507.583 446.857 508.771 444.587M505.174 451.386C509.311 468.496 512.793 487.071 515.065 505.968M505.174 451.386C504.602 449.019 504.017 446.681 503.421 444.373M508.771 444.587C512.062 438.293 515.266 431.969 518.38 425.619M508.771 444.587C506.161 435.991 502.778 427.623 498.576 419.561M508.771 444.587C514.723 464.191 516.648 484.973 515.065 505.968M518.38 425.619C519.162 424.024 519.938 422.426 520.709 420.828C521.406 419.383 522.098 417.936 522.784 416.486M518.38 425.619C509.248 412.174 498.43 399.848 486.207 388.605M518.38 425.619C532.998 447.144 543.294 471.538 548.11 498.95M522.784 416.486C534.622 391.46 544.819 365.662 552.336 339.175M522.784 416.486C528.486 426.54 533.837 436.767 538.792 447.148C543.742 457.518 548.409 468.21 552.697 479.14M552.336 339.175C555.631 327.567 558.41 315.827 560.588 303.962M552.336 339.175C556.772 343.988 561.203 348.937 565.641 354.029C567.576 356.248 569.497 358.485 571.402 360.738M552.336 339.175C543.782 329.892 535.212 321.112 526.55 312.782M560.588 303.962C565.233 302.916 569.871 301.94 574.485 301.041M560.588 303.962C549.189 306.527 537.754 309.51 526.55 312.782M325.791 104.742C322.058 105.512 318.343 106.339 314.649 107.221C304.134 109.73 293.725 112.638 283.426 115.915M325.791 104.742C332.293 119.586 338.418 134.639 344.038 149.517M237.77 133.088C218.668 141.38 200.008 150.868 181.834 161.346M237.77 133.088C259.43 134.154 281.51 136.578 304.232 140.53C308.901 141.343 313.451 142.201 317.889 143.112M237.77 133.088C177.187 130.106 119.882 137.742 60.9591 152.221M181.834 161.346C240.172 165.493 293.607 178.862 356.671 204.673C359.003 205.627 361.316 206.587 363.61 207.553M181.834 161.346C156.622 159.553 130.494 159.483 102.278 160.875M149.955 181.028C137.537 189.205 125.373 197.814 113.479 206.782M149.955 181.028C171.171 192.535 191.113 206.906 209.091 223.364M113.479 206.782C102.023 215.419 90.8167 224.389 79.874 233.625M113.479 206.782C131.654 214.934 149.063 224.517 165.399 235.465M79.874 233.625C71.885 240.369 64.0364 247.255 56.3335 254.257M79.874 233.625C94.9814 235.641 109.765 238.569 123.946 242.397C128.208 243.548 132.41 244.787 136.555 246.113M79.874 233.625C69.6254 232.258 59.2279 231.312 48.7688 230.79M56.3335 254.257C37.3948 271.474 19.337 289.396 2.23761 307.645M56.3335 254.257C53.6805 246.684 51.146 238.81 48.7688 230.79M56.3335 254.257C59.846 264.283 63.5661 273.781 67.4039 282.388M2.23761 307.645C0.382079 309.625 -1.46218 311.61 -3.29502 313.597C-14.2262 325.451 -24.2788 336.818 -33.7782 348.036M-120.462 464.788C-118.693 462.191 -116.931 459.607 -115.179 457.038L-113.983 455.285C-112.946 453.763 -111.913 452.253 -110.886 450.753M-120.462 464.788C-125.323 471.926 -130.236 479.168 -135.148 486.509M-120.462 464.788C-121.457 462.395 -122.429 459.987 -123.378 457.565M-120.462 464.788C-119.121 468.013 -117.738 471.21 -116.317 474.376M-135.148 486.509C-129.127 482.527 -122.829 478.469 -116.317 474.376M-161.398 527.199C-152.3 541.411 -141.841 554.834 -130.402 567.457M-186.893 572C-187.908 573.961 -188.91 575.927 -189.898 577.898M-186.893 572C-193.58 567.578 -200.204 562.957 -206.699 558.155M-186.893 572C-183.698 574.113 -180.489 576.181 -177.271 578.202M-189.898 577.898C-192.115 582.316 -194.266 586.758 -196.341 591.223M-189.898 577.898C-194.825 577.495 -199.695 576.752 -204.452 575.643C-204.593 575.61 -204.733 575.577 -204.873 575.543M-189.898 577.898C-185.719 578.239 -181.499 578.335 -177.271 578.202M-196.341 591.223C-196.984 592.606 -197.62 593.991 -198.248 595.378M-196.341 591.223C-199.312 585.916 -202.166 580.669 -204.873 575.543M-196.341 591.223C-190.631 601.422 -184.492 611.838 -178.144 622.018M-198.248 595.378C-199.512 593.134 -200.688 590.858 -201.77 588.55C-203.866 584.078 -205.295 579.629 -206.146 575.224M-198.248 595.378C-192.922 604.836 -186.044 613.723 -178.144 622.018M-207.858 618.384C-209.373 622.355 -210.816 626.343 -212.182 630.345M-207.858 618.384C-215.643 611.074 -222.551 602.904 -228.296 593.828C-232.92 586.523 -236.81 578.74 -240.04 570.602M-212.182 630.345C-227.382 616.462 -241.033 600.972 -252.741 584.008M129.401 829.875C218.792 816.476 305.554 788.892 390.847 756.424C411.529 748.552 432.07 740.688 452.47 732.448M452.47 732.448C457.914 730.249 463.349 728.024 468.772 725.764M452.47 732.448C436.85 732.238 421.136 730.251 405.793 726.694M452.47 732.448C456.947 732.508 461.415 732.423 465.865 732.186M468.772 725.764C467.807 727.909 466.838 730.05 465.865 732.186M468.772 725.764C483.932 692.085 498.186 657.423 509.914 625.52M574.086 646.958C585.08 649.46 598.515 652.001 612.212 654.053M552.697 479.14C551.23 485.76 549.699 492.364 548.11 498.95M552.697 479.14C561.35 440.11 567.831 400.503 571.402 360.738M465.752 334.362C465.727 334.333 465.703 334.303 465.678 334.274M465.752 334.362C464.879 336.587 463.963 338.802 463.01 341.001M465.752 334.362C465.771 334.314 465.789 334.267 465.808 334.219M465.678 334.274C463.167 331.245 460.629 328.243 458.067 325.268M465.678 334.274C465.722 334.255 465.765 334.237 465.808 334.219M465.678 334.274C463.989 334.987 462.325 335.702 460.688 336.417M458.067 325.268C455.361 322.127 452.628 319.016 449.869 315.936M458.067 325.268C457.862 326.833 457.623 328.397 457.353 329.958M458.067 325.268C459 318.137 459.234 310.968 458.579 303.809C455.482 269.915 428.451 246.532 397.45 231.733M449.869 315.936C452.409 320.591 454.907 325.269 457.353 329.958M449.869 315.936C433.32 285.605 414.989 256.278 397.45 231.733M374.396 250.598C376.455 260.842 378.394 271.774 380.153 283.24M374.396 250.598C374.288 250.061 374.179 249.526 374.071 248.993C372.231 239.959 369.905 230.273 367.154 220.109M241.695 247.764C240.062 249.263 238.459 250.784 236.886 252.319M241.695 247.764C238.728 247.658 235.759 247.588 232.788 247.555M236.886 252.319C235.537 250.718 234.171 249.13 232.788 247.555M214.869 276.329C214.697 276.533 214.525 276.736 214.355 276.939C212.878 278.694 211.417 280.461 209.972 282.239M214.869 276.329C221.228 282.807 227.279 289.567 232.991 296.604M209.972 282.239C206.685 286.283 203.481 290.383 200.359 294.537M209.972 282.239C216.397 286.678 222.632 291.376 228.682 296.319M200.359 294.537C200.198 294.752 200.036 294.967 199.875 295.182M200.359 294.537C200.916 294.762 201.473 294.991 202.028 295.222M200.359 294.537C194.969 292.358 189.485 290.449 183.907 288.85C152.411 279.823 117.175 281.42 89.8413 300.753C88.1989 301.915 86.5836 303.116 84.9944 304.353M199.875 295.182C160.006 294.528 120.861 297.695 84.9944 304.353M199.875 295.182C200.593 295.194 201.31 295.207 202.028 295.222M160.938 357.736C156.636 366.112 152.588 374.619 148.784 383.24M160.938 357.736C196.33 351.615 232.182 349.36 268.011 352.355M160.938 357.736C148.429 359.899 135.979 362.545 123.607 365.612M148.784 383.24C147.939 385.155 147.106 387.076 146.285 389.002M148.784 383.24C173.706 386.823 203.606 398.878 215.534 423.29C220.092 432.618 222.127 442.529 222.278 452.646M148.784 383.24C147.346 383.034 145.925 382.855 144.525 382.704C142.815 382.52 141.101 382.353 139.383 382.204M146.285 389.002C140.671 402.174 135.619 415.598 131.102 429.214M146.285 389.002C143.964 386.757 141.663 384.491 139.383 382.204M146.285 389.002C162.188 404.387 178.991 418.786 195.953 432.419C204.58 439.353 213.372 446.076 222.278 452.646M131.102 429.214C116.675 472.708 107.709 518.159 103.355 563.568M131.102 429.214C156.9 423.634 180.333 428.218 200.949 446.651M131.102 429.214C127.301 430.037 123.448 431.08 119.546 432.332C92.7913 440.914 53.9695 463.234 32.7036 479.824C19.2429 490.326 5.155 502.492 -7.7603 516.079M103.355 563.568C103.215 565.032 103.079 566.495 102.948 567.958C102.214 576.171 101.601 584.075 101.109 591.753M103.355 563.568C112.382 532.834 133.956 502.928 153.704 479.616C161.818 470.038 179.46 451.792 193.622 447.725C196.225 446.978 198.664 446.636 200.949 446.651M103.355 563.568C102.206 567.479 101.261 571.403 100.548 575.329C99.5467 580.843 99.2665 586.323 99.6124 591.717M101.109 591.753C100.933 594.512 100.772 597.241 100.627 599.945M101.109 591.753C100.611 591.743 100.112 591.73 99.6124 591.717M101.109 591.753C117.713 592.114 133.224 590.886 148.589 588.081M100.627 599.945C100.175 608.372 99.8759 616.555 99.732 624.61M100.627 599.945C100.132 597.23 99.7899 594.485 99.6124 591.717M100.627 599.945C101.887 606.865 104.135 613.59 107.159 620.003M99.732 624.61C99.7117 625.75 99.6944 626.887 99.6803 628.021M99.732 624.61C99.2116 624.925 98.6887 625.239 98.1633 625.554C97.2952 626.073 96.4246 626.588 95.5517 627.1M99.732 624.61C102.265 623.079 104.739 621.545 107.159 620.003M99.6803 628.021C99.6772 628.269 99.6743 628.516 99.6715 628.763M99.6803 628.021C98.3055 627.72 96.9294 627.413 95.5517 627.1M99.6803 628.021C101.287 628.373 102.892 628.716 104.495 629.05M99.6715 628.763C99.6061 634.557 99.6219 640.296 99.7195 646.024M99.6715 628.763C97.9015 628.619 95.9248 628.423 93.7105 628.169M99.6715 628.763C101.486 628.911 103.083 629.004 104.495 629.05M99.7195 646.024C99.8236 652.126 100.02 658.215 100.311 664.344M99.7195 646.024C92.3213 646.821 84.8866 647.37 77.4292 647.687M99.7195 646.024C104.765 645.48 109.794 644.821 114.802 644.042C117.267 643.659 119.71 643.258 122.131 642.84M100.311 664.344C100.661 671.731 101.147 679.177 101.771 686.775M100.311 664.344C92.3688 659.367 84.8074 653.818 77.4292 647.687M100.311 664.344C106.504 668.226 112.928 671.76 119.678 674.951M101.771 686.775C101.785 686.944 101.799 687.112 101.812 687.281M101.771 686.775C101.488 686.946 101.205 687.115 100.921 687.284M101.771 686.775C107.84 683.126 113.851 679.136 119.678 674.951M101.812 687.281C102.18 691.716 102.594 696.205 103.055 700.764M101.812 687.281C101.515 687.282 101.218 687.283 100.921 687.284M101.812 687.281C111.399 687.235 121.024 686.779 130.616 685.94M103.055 700.764C103.102 701.236 103.151 701.71 103.2 702.184M103.055 700.764C96.4367 699.612 89.8492 698.236 83.2989 696.65M103.055 700.764C103.748 700.885 104.442 701.003 105.136 701.119M103.2 702.184C103.369 703.828 103.544 705.482 103.725 707.146M103.2 702.184C96.9137 705.618 90.548 708.885 84.1047 711.943M103.2 702.184C103.846 701.83 104.491 701.475 105.136 701.119M103.725 707.146C97.2226 708.986 90.6794 710.582 84.1047 711.943M103.725 707.146C108.302 705.851 112.858 704.436 117.391 702.897M112.051 764.708C119.842 766.339 127.687 767.704 135.571 768.816M509.914 625.52C515.008 611.661 519.626 598.323 523.635 585.812C532.754 557.349 541.019 528.335 548.11 498.95M509.914 625.52C508.691 625.014 507.469 624.504 506.25 623.991M548.11 498.95C552.381 523.258 552.342 549.94 547.187 579.1M571.402 360.738C573.187 340.861 574.246 320.945 574.485 301.041M270.09 0.451394C228.161 15.5254 188.116 35.5543 149.393 57.8625M149.393 57.8625C124.18 72.3883 99.5265 87.8804 75.2792 103.6C60.103 113.439 45.0017 123.475 30.0191 133.724M149.393 57.8625C136.377 56.5179 122.737 56.8676 107.444 59.2852C78.2463 63.9008 52.8619 78.2123 30.5556 96.734M30.0191 133.724C19.9458 140.615 9.92613 147.602 -0.0266151 154.69M30.0191 133.724C29.9588 132.683 29.9068 131.656 29.8632 130.642C29.3777 119.371 29.6288 108.03 30.5556 96.734M-0.0266151 154.69C-11.9864 163.208 -23.8496 171.873 -35.5931 180.692M-0.0266151 154.69C-10.3918 156.766 -20.7104 159.731 -30.9229 163.651M-35.5931 180.692C-37.9312 182.448 -40.2646 184.21 -42.593 185.978M-35.5931 180.692C-38.9285 181.804 -42.2618 182.929 -45.5919 184.067M-42.593 185.978C-45.5495 188.223 -48.498 190.478 -51.4382 192.744M-42.593 185.978C-44.4602 186.596 -46.3226 187.226 -48.1801 187.869M-51.4382 192.744C-55.3315 195.743 -59.2102 198.761 -63.0735 201.796M-51.4382 192.744C-50.3594 191.113 -49.2734 189.488 -48.1801 187.869M-51.4382 192.744C-52.8425 194.867 -54.2345 196.999 -55.6138 199.141M-63.0735 201.796C-84.0045 218.242 -104.482 235.221 -124.37 252.782C-126.73 254.866 -129.064 256.932 -131.373 258.984M-63.0735 201.796C-60.599 200.873 -58.112 199.988 -55.6138 199.141M-63.0735 201.796C-81.5024 208.667 -99.2454 217.614 -115.901 228.284M-131.373 258.984C-153.291 278.471 -172.879 296.743 -190.62 318.283M-131.373 258.984C-126.802 247.476 -121.697 237.343 -115.901 228.284M-190.62 318.283C-200.95 328.354 -210.844 338.9 -219.592 350.312M-217.829 549.527C-217.801 549.587 -217.773 549.647 -217.745 549.707M-217.829 549.527C-211.464 543.838 -204.973 538.306 -198.407 532.932M-217.829 549.527L-217.897 549.587M-217.745 549.707C-214.497 556.704 -210.758 564.271 -206.644 572.167M-217.745 549.707C-217.796 549.667 -217.847 549.627 -217.897 549.587M-217.745 549.707C-214.114 552.581 -210.427 555.398 -206.699 558.155M-206.644 572.167C-206.062 573.286 -205.471 574.411 -204.873 575.543M-206.644 572.167C-207.277 567.434 -207.259 562.756 -206.699 558.155M-206.644 572.167C-206.509 573.183 -206.343 574.202 -206.146 575.224M-204.873 575.543C-205.299 575.441 -205.723 575.334 -206.146 575.224M-178.144 622.018C-172.286 631.412 -166.25 640.606 -160.21 649.246M-178.144 622.018C-164.259 636.596 -147.216 649.346 -129.893 660.154M-160.21 649.246C-151.781 661.302 -143.343 672.279 -135.366 681.216M-160.21 649.246C-150.375 653.618 -140.178 657.239 -129.893 660.154M105.136 701.119C113.784 696.334 122.279 691.238 130.616 685.94M105.136 701.119C109.21 701.798 113.296 702.392 117.391 702.897M130.616 685.94C132.656 684.643 134.687 683.334 136.708 682.015M130.616 685.94C135.209 685.538 139.794 685.049 144.364 684.475M136.708 682.015C142.89 677.979 148.982 673.844 154.982 669.656M136.708 682.015C130.787 679.881 125.126 677.528 119.678 674.951M136.708 682.015C136.988 682.115 137.268 682.215 137.548 682.315C139.829 683.125 142.101 683.844 144.364 684.475M154.982 669.656C169.425 659.574 183.332 649.183 196.666 639.117M154.982 669.656C149.666 666.61 144.524 663.187 139.592 659.355M196.666 639.117C199.052 637.316 201.42 635.525 203.769 633.749L205.5 632.439C217.139 623.637 229.188 614.217 241.431 604.266M196.666 639.117C185.004 638.898 173.719 638.347 162.657 637.441M241.431 604.266C244.012 602.168 246.601 600.046 249.198 597.902M241.431 604.266C242.145 600.5 242.766 596.719 243.292 592.928M249.198 597.902C254.446 593.568 259.721 589.141 265.006 584.627M249.198 597.902C248.616 595.525 248.125 593.12 247.73 590.689M265.006 584.627C266.103 582.813 267.192 580.977 268.273 579.118M275.404 575.644C277.152 574.117 278.899 572.581 280.646 571.036M275.404 575.644C275.4 575.29 275.396 574.936 275.394 574.582M275.404 575.644C275.601 592.118 277.828 608.455 282.351 623.9M280.646 571.036C296.946 556.622 313.185 541.451 328.875 525.722M280.646 571.036C278.904 572.242 277.152 573.424 275.394 574.582M280.646 571.036C298.484 558.687 315.389 543.772 329.271 525.982M328.875 525.722C329.738 524.856 330.6 523.988 331.461 523.119M328.875 525.722C329.007 525.808 329.139 525.895 329.271 525.982M331.461 523.119C334.682 519.864 337.879 516.586 341.047 513.286M331.461 523.119C330.74 524.082 330.01 525.036 329.271 525.982M331.461 523.119C335.049 518.329 338.418 513.336 341.528 508.135M341.047 513.286C340.373 519.347 339.312 525.444 337.832 531.576M341.047 513.286C341.238 511.566 341.398 509.849 341.528 508.135M383.886 464.862C384.914 463.588 385.935 462.312 386.95 461.035M383.886 464.862C384.664 466.038 385.441 467.219 386.217 468.406M383.886 464.862C382.835 463.274 381.784 461.696 380.731 460.128C379.415 458.168 378.113 456.247 376.823 454.363M386.95 461.035C396.987 448.394 406.353 435.586 414.84 422.692M386.95 461.035C386.722 463.499 386.478 465.956 386.217 468.406M386.95 461.035C387.507 455.014 387.966 448.955 388.333 442.873M414.84 422.692C415.473 421.731 416.101 420.768 416.724 419.806M414.84 422.692C416.075 423.214 417.309 423.775 418.543 424.378M414.84 422.692C413.005 421.918 411.17 421.232 409.335 420.632M416.724 419.806C421.223 412.855 425.464 405.882 429.412 398.9C430.644 396.721 431.874 394.517 433.093 392.29M416.724 419.806C417.374 421.291 417.982 422.814 418.543 424.378M416.724 419.806C415.997 418.147 415.217 416.536 414.385 414.972M433.093 392.29C427.724 399.366 421.386 407.021 414.385 414.972M448.609 359.966C450.9 354.186 452.916 348.326 454.545 342.412M448.609 359.966C443.276 356.584 437.791 353.341 432.167 350.237M448.609 359.966C449.891 360.779 451.163 361.6 452.427 362.428M454.545 342.412C454.883 341.185 455.204 339.955 455.508 338.723M454.545 342.412C456.27 344.39 457.967 346.395 459.634 348.428M454.545 342.412C453.869 341.638 453.189 340.867 452.504 340.102M455.508 338.723C456.226 335.812 456.845 332.889 457.353 329.958M455.508 338.723C457.203 337.955 458.93 337.186 460.688 336.417M455.508 338.723C454.495 339.183 453.494 339.642 452.504 340.102M457.353 329.958C458.476 332.109 459.588 334.263 460.688 336.417M397.45 231.733C395.357 228.804 393.275 225.943 391.209 223.156C389.952 221.462 388.685 219.772 387.407 218.089M367.154 220.109C366.041 215.998 364.858 211.809 363.61 207.553M209.091 223.364C193.66 226.913 179.18 230.93 165.399 235.465M209.091 223.364C217.437 231.004 225.359 239.093 232.788 247.555M165.399 235.465C155.452 238.738 145.869 242.281 136.555 246.113M165.399 235.465C172.309 240.096 179.028 244.972 185.531 250.087M136.555 246.113C112.238 256.118 89.7522 268.095 67.4039 282.388M136.555 246.113C144.155 248.544 151.558 251.266 158.77 254.267M67.4039 282.388C55.0675 290.277 42.773 298.873 30.2357 308.232M67.4039 282.388C67.808 283.294 68.2133 284.19 68.6199 285.076M30.2357 308.232C38.7604 302.259 47.8768 296.508 58.0212 290.782C61.5066 288.815 65.0407 286.913 68.6199 285.076M8.76746 324.817C7.83079 325.572 6.89677 326.33 5.96543 327.092M8.76746 324.817C8.85407 325.156 8.93882 325.496 9.0217 325.836M8.76746 324.817C8.75794 324.779 8.74839 324.742 8.73884 324.705M5.96543 327.092C5.43527 327.526 4.90597 327.961 4.37757 328.397M5.96543 327.092C5.92481 327.109 5.8843 327.126 5.84371 327.143M5.96543 327.092C6.97764 326.67 7.9965 326.251 9.0217 325.836M4.37757 328.397C-15.0765 344.454 -33.3341 362.079 -49.9331 381.049C-51.0925 382.374 -52.3583 383.884 -53.7102 385.556M4.37757 328.397C4.86576 327.977 5.35444 327.559 5.84371 327.143M4.37757 328.397C-6.45346 337.709 -17.0407 347.859 -28.5711 359.38C-36.9875 367.789 -45.4435 376.511 -53.7102 385.556M-53.7102 385.556C-63.1436 397.223 -76.7732 416.807 -87.7708 436.864M-53.7102 385.556C-69.8964 403.265 -85.3571 422.208 -98.3747 442.453M-87.7708 436.864C-92.9731 446.351 -97.5863 455.944 -100.888 464.855M-87.7708 436.864C-81.6964 433.77 -75.3492 430.711 -68.6604 427.623C-45.3377 416.856 -20.0529 406.922 6.12366 399.032M-87.7708 436.864C-91.3977 438.71 -94.9274 440.569 -98.3747 442.453M-100.888 464.855C-101.365 466.142 -101.814 467.414 -102.234 468.67M-100.888 464.855C-67.5336 444.636 -30.2036 424.278 3.67496 408.391M-100.888 464.855C-101.74 465.371 -102.589 465.887 -103.435 466.403M-102.234 468.67C-104.406 475.166 -105.788 481.218 -106.078 486.498C-106.249 489.599 -106.177 492.663 -105.885 495.683M-102.234 468.67C-102.638 467.917 -103.039 467.161 -103.435 466.403M-105.885 495.683C-107.36 492.949 -108.791 490.184 -110.177 487.387C-112.26 483.182 -114.277 478.913 -116.221 474.588M-84.8788 540.936C-74.3042 553.505 -61.2327 564.027 -49.144 571.698C-48.4605 572.132 -47.7748 572.562 -47.0871 572.99M-84.8788 540.936C-82.8489 539.404 -80.8467 537.839 -78.8725 536.242M-47.0871 572.99C-40.7289 576.938 -34.1951 580.602 -27.529 584.028M-47.0871 572.99C-46.6598 571.996 -46.2206 571.006 -45.7696 570.021M-47.0871 572.99C-52.0255 584.473 -55.358 596.481 -56.5042 608.936C-57.2183 616.696 -56.9742 624.251 -55.9009 631.576M-27.529 584.028C-9.11068 593.494 10.3172 601.14 29.8406 607.931C33.733 609.285 37.5815 610.59 41.3916 611.849M-27.529 584.028C-33.83 579.638 -39.9148 574.963 -45.7696 570.021M-27.529 584.028C-12.098 594.781 4.63227 603.832 22.4756 610.965C30.9435 614.35 39.6043 617.366 48.4048 619.849M41.3916 611.849C60.1511 618.046 77.9821 623.099 95.5517 627.1M41.3916 611.849C31.7778 600.454 23.0638 588.264 15.6005 575.389M41.3916 611.849C43.68 614.561 46.0192 617.228 48.4048 619.849M95.5517 627.1C94.9391 627.458 94.3255 627.815 93.7105 628.169M104.495 629.05C107.375 629.649 110.25 630.221 113.124 630.765M104.495 629.05C107.809 629.156 110.108 629 111.815 628.662M113.124 630.765C126.053 633.212 138.96 635.099 152.117 636.464M113.124 630.765C112.679 630.069 112.242 629.368 111.815 628.662M113.124 630.765C115.828 634.991 118.855 639.03 122.131 642.84M152.117 636.464C155.611 636.826 159.122 637.151 162.657 637.441M152.117 636.464C142.551 638.92 132.551 641.04 122.131 642.84M152.117 636.464C157.441 635.097 162.631 633.626 167.683 632.049M162.657 637.441C160.589 639.616 158.515 641.746 156.441 643.828C151.42 648.868 145.736 654.124 139.592 659.355M162.657 637.441C164.337 635.673 166.014 633.875 167.683 632.049M222.986 639.07C225.208 639.023 227.445 638.966 229.7 638.899C230.532 638.874 231.36 638.848 232.186 638.821M222.986 639.07C207.928 654.104 191.178 666.903 172.106 677.983M222.986 639.07C227.747 634.317 232.338 629.34 236.781 624.124M232.186 638.821C244.579 638.406 256.274 637.667 267.507 636.531M232.186 638.821C228.906 648.282 225.061 657.561 220.703 666.591M232.186 638.821C233.868 633.966 235.402 629.064 236.781 624.124M267.507 636.531C268.531 636.428 269.551 636.321 270.568 636.211M267.507 636.531C260.643 626.961 255.038 616.523 251.359 605.413M267.507 636.531C267.885 637.059 268.267 637.583 268.653 638.106M270.568 636.211C275.728 635.651 280.793 635.006 285.788 634.267M270.568 636.211C269.928 636.848 269.29 637.48 268.653 638.106M270.568 636.211C274.485 632.303 278.437 628.177 282.351 623.9M285.788 634.267C286.24 634.2 286.691 634.132 287.141 634.064M285.788 634.267C284.522 630.863 283.377 627.404 282.351 623.9M285.788 634.267C285.854 634.444 285.92 634.622 285.987 634.799M287.141 634.064C286.757 634.31 286.372 634.555 285.987 634.799M327.394 625.477C317.96 636.607 307.419 646.899 296.046 656.028M327.394 625.477C337.548 613.499 346.42 600.55 353.669 587.037C357.275 580.315 360.563 573.25 363.554 565.893M423.112 583.17C428.766 579.461 434.317 575.508 439.696 571.316M476.808 534.093C475.573 545.325 472.59 556.449 467.737 567.012C462.736 577.895 456.778 588.053 450.005 597.489M503.421 444.373C502.578 436.02 500.925 427.73 498.576 419.561M503.421 444.373C501.199 435.77 498.824 427.598 496.371 420.015C495.253 416.559 494.06 413.05 492.797 409.495M498.576 419.561C495.538 408.997 491.334 398.635 486.207 388.605M498.576 419.561C496.797 416.149 494.872 412.791 492.797 409.495M486.207 388.605C484.337 384.945 482.344 381.33 480.24 377.765M486.207 388.605C485.464 387.921 484.715 387.241 483.962 386.565M480.24 377.765C481.515 380.715 482.757 383.65 483.962 386.565M459.634 348.428C457.344 353.241 454.915 357.934 452.427 362.428M459.634 348.428C460.799 345.98 461.928 343.501 463.01 341.001M452.504 340.102C451.907 340.379 451.314 340.656 450.725 340.933C444.512 343.859 438.317 346.961 432.167 350.237M232.788 247.555C217.004 247.378 201.19 248.231 185.531 250.087M185.531 250.087C176.548 251.152 167.616 252.547 158.77 254.267M158.77 254.267C127.068 260.433 96.4772 270.778 68.6199 285.076M8.73884 324.705C7.77091 325.511 6.80615 326.324 5.84371 327.143M-98.3747 442.453C-101.633 447.52 -104.738 452.668 -107.663 457.899M-98.3747 442.453C-102.203 444.545 -105.93 446.668 -109.575 448.839M-107.663 457.899C-110.654 463.247 -113.456 468.682 -116.042 474.204M-107.663 457.899C-108.778 455.536 -109.853 453.154 -110.886 450.753M-107.663 457.899C-106.312 460.763 -104.902 463.598 -103.435 466.403M-116.042 474.204C-116.102 474.332 -116.162 474.46 -116.221 474.588M-116.042 474.204C-111.92 471.614 -107.712 469.011 -103.435 466.403M-116.042 474.204C-116.133 474.261 -116.225 474.319 -116.317 474.376M-116.221 474.588C-118.891 480.317 -121.328 486.139 -123.498 492.057C-130.288 510.57 -134.564 539.913 -128.761 559.886C-128.175 561.902 -127.501 563.886 -126.745 565.839M-116.221 474.588C-116.253 474.517 -116.285 474.447 -116.317 474.376M-121.329 577.099C-124.414 573.939 -127.441 570.725 -130.402 567.457M-69.4956 628.047C-64.4472 631.588 -59.4665 634.926 -54.7211 638.075M-69.4956 628.047C-64.9785 629.353 -60.4343 630.609 -55.8665 631.808M-54.7211 638.075C-54.4813 638.234 -54.2421 638.393 -54.0035 638.551C-37.5933 649.43 -23.5287 658.282 -8.2613 665.457M-54.7211 638.075C-55.1695 636.006 -55.5523 633.917 -55.8665 631.808M-8.2613 665.457C3.23707 670.861 15.4176 675.313 29.7963 678.963M-8.2613 665.457C-6.07607 665.074 -3.89505 664.666 -1.71887 664.234M29.7963 678.963C30.5131 679.145 31.2352 679.324 31.9631 679.502C53.9703 684.883 77.3199 687.333 100.921 687.284M29.7963 678.963C19.1187 674.506 8.60255 669.571 -1.71887 664.234M29.7963 678.963C47.2474 686.246 65.1297 692.252 83.2989 696.65M100.921 687.284C95.0596 690.774 89.1484 693.94 83.2989 696.65M166.872 680.949C169.707 680.416 172.529 679.852 175.338 679.258M166.872 680.949C163.178 682.99 159.399 684.972 155.53 686.896M166.872 680.949C168.636 679.974 170.381 678.986 172.106 677.983M175.338 679.258C190.361 676.078 204.996 672.02 218.937 667.207C219.526 667.003 220.115 666.798 220.703 666.591M175.338 679.258C174.256 678.845 173.179 678.42 172.106 677.983M175.338 679.258C181.309 681.534 187.424 683.441 193.641 685.015M220.703 666.591C230.99 662.969 241.116 658.788 251.02 654.092M220.703 666.591C218.975 670.171 217.167 673.711 215.28 677.207M251.02 654.092C258.276 650.653 265.412 646.936 272.406 642.96M251.02 654.092C250.049 654.893 249.09 655.668 248.143 656.419C237.649 664.732 226.676 671.847 215.28 677.207M251.02 654.092C256.609 649.487 262.576 644.074 268.653 638.106M272.406 642.96C276.997 640.35 281.526 637.628 285.987 634.799M272.406 642.96C271.121 641.369 269.868 639.75 268.653 638.106M363.554 565.893C366.754 561.931 369.87 557.9 372.913 553.814M363.554 565.893C365.475 561.167 367.273 556.321 368.954 551.366M372.913 553.814C377.783 547.275 382.464 540.597 386.992 533.843C393.522 524.102 400.651 513.344 406.81 501.895M372.913 553.814C371.593 553 370.273 552.185 368.954 551.366M406.81 501.895C419.242 478.786 427.726 452.861 419.366 426.798C419.104 425.981 418.829 425.174 418.543 424.378M406.81 501.895C400.181 490.339 393.237 479.142 386.217 468.406M414.385 414.972C408.32 403.564 399.552 394.639 389.312 387.501M414.385 414.972C412.737 416.843 411.052 418.731 409.335 420.632M389.312 387.501C389.529 397.392 389.55 407.342 389.351 417.285M389.312 387.501C389.234 383.943 389.131 380.392 389.003 376.852M381.339 382.451C373.637 378.011 365.353 374.375 356.923 371.298M381.339 382.451C374.828 387.34 368.481 392.452 362.337 397.785M356.923 371.298C359.342 380.423 361.13 389.25 362.337 397.785M356.923 371.298C355.43 365.663 353.695 359.915 351.708 354.051M292.86 355.294C291.344 355.061 289.827 354.838 288.31 354.625M292.86 355.294C293.36 356.916 293.847 358.545 294.322 360.18M288.31 354.625C286.754 354.406 285.198 354.198 283.642 354M288.31 354.625C290.335 356.475 292.339 358.328 294.322 360.18M288.31 354.625C283.813 350.515 279.215 346.422 274.516 342.394M283.642 354C278.433 353.338 273.222 352.791 268.011 352.355M283.642 354C288.432 360.343 293.058 366.879 297.524 373.596C297.732 373.909 297.94 374.222 298.147 374.536M283.642 354C280.664 350.056 277.622 346.186 274.516 342.394M268.011 352.355C279.025 375.956 286.708 401.642 290.345 429.265C292.473 445.427 293.319 460.567 292.933 474.728M268.011 352.355C263.68 343.076 258.834 334.119 253.517 325.494M123.607 365.612C128.725 371.27 133.994 376.797 139.383 382.204M53.8942 387.313C49.1387 389.078 44.402 390.89 39.6853 392.747C29.4788 396.766 18.5661 401.487 7.23166 406.734M53.8942 387.313C39.9129 389.919 25.9996 393.276 12.305 397.212M7.23166 406.734C6.05056 407.281 4.8649 407.833 3.67496 408.391M7.23166 406.734C8.64371 403.858 10.3577 400.651 12.305 397.212M3.67496 408.391C4.53127 405.357 5.3527 402.231 6.12366 399.032M-170.736 511.433C-180.015 518.296 -189.283 525.462 -198.407 532.932M-198.407 532.932C-202.621 540.956 -205.636 549.416 -206.699 558.155M-217.897 549.587C-222.586 553.779 -227.207 558.055 -231.74 562.417M-231.74 562.417C-224.109 568.301 -215.53 572.77 -206.146 575.224M-240.04 570.602C-244.377 574.989 -248.617 579.458 -252.741 584.008M-240.04 570.602C-243.084 562.933 -245.542 554.949 -247.475 546.755M201.658 699.725C203.39 697.157 205.079 694.556 206.724 691.925M201.658 699.725C206.306 698.75 210.952 697.632 215.595 696.367M206.724 691.925C207.492 690.696 208.25 689.46 208.998 688.218M206.724 691.925C209.685 693.485 212.643 694.966 215.595 696.367M206.724 691.925C202.839 689.878 198.947 687.693 195.05 685.366M208.998 688.218C211.177 684.601 213.273 680.929 215.28 677.207M208.998 688.218C204.306 687.437 199.651 686.491 195.05 685.366M208.998 688.218C216.979 689.547 225.07 690.4 233.188 690.853M215.28 677.207C208.224 680.526 201.007 683.173 193.641 685.015M236.781 624.124C241.823 618.204 246.672 611.975 251.359 605.413M243.292 592.928C243.365 592.4 243.436 591.873 243.505 591.345M243.292 592.928C242.061 593.537 240.833 594.135 239.608 594.722M243.292 592.928C244.768 592.197 246.248 591.451 247.73 590.689M243.505 591.345C245.186 578.569 245.778 565.679 245.171 552.828M243.505 591.345C242.23 592.489 240.93 593.614 239.608 594.722M243.505 591.345C244.797 590.187 246.065 589.01 247.309 587.814M245.171 552.828C244.4 536.511 241.695 520.254 236.827 504.368C234.548 496.933 232.082 490.268 229.212 484.101M245.171 552.828C237.815 556.623 230.36 560.215 222.816 563.584C219.741 564.957 216.709 566.28 213.714 567.553M245.171 552.828C246.856 551.959 248.536 551.079 250.211 550.189M229.212 484.101C226.786 478.887 224.072 474.03 220.941 469.364M229.212 484.101C232.139 499.636 231.919 515.862 230.134 523.784C226.778 538.68 221.042 553.386 213.714 567.553M229.212 484.101C227.698 476.065 225.341 468.214 221.923 461.793M220.941 469.364C216.054 462.081 210.151 455.267 202.741 448.295C202.146 447.735 201.549 447.187 200.949 446.651M220.941 469.364C216.038 498.557 198.632 527.731 183.578 548.065C172.174 563.47 160.907 576.457 148.589 588.081M220.941 469.364C221.365 466.839 221.696 464.313 221.923 461.793M200.949 446.651C210.38 446.715 217.175 452.875 221.923 461.793M-7.7603 516.079C-17.1625 525.969 -25.9432 536.613 -33.408 547.914M-7.7603 516.079C-3.23709 537.042 4.89508 556.92 15.6005 575.389M-33.408 547.914C-38.1079 555.03 -42.2862 562.407 -45.7696 570.021M-33.408 547.914C-43.9497 540.168 -53.8556 531.53 -63.0002 522.135M-33.408 547.914C-18.2601 559.046 -1.79968 568.338 15.6005 575.389M-45.7696 570.021C-57.8113 559.855 -68.8824 548.552 -78.8725 536.242M-55.9009 631.576C-55.8895 631.653 -55.878 631.731 -55.8665 631.808M-55.9009 631.576C-55.7261 631.696 -55.551 631.817 -55.376 631.937M-55.8665 631.808C-55.703 631.851 -55.5396 631.894 -55.376 631.937M-42.4139 669.41C-34.1364 683.78 -22.866 696.742 -10.0722 708.002M-10.0722 708.002C-6.36427 711.265 -2.52837 714.386 1.39974 717.356M405.793 726.694C429.797 714.798 451.938 699.292 471.459 677.892C485.803 662.167 498.365 643.869 506.25 623.991M506.25 623.991C507.716 620.293 509.021 616.542 510.145 612.742C519.32 581.727 519.544 543.22 515.065 505.968M506.25 623.991C499.417 621.112 492.637 618.109 485.914 615.001C483.365 613.822 480.831 612.637 478.312 611.446M515.065 505.968C512.338 542.14 499.201 578.945 478.312 611.446M492.797 409.495C490.145 402.032 487.184 394.365 483.962 386.565M463.01 341.001C462.242 339.473 461.468 337.945 460.688 336.417M354.525 178.819C342.954 166.298 330.73 154.337 317.889 143.112M354.525 178.819C357.84 188.635 360.882 198.253 363.61 207.553M30.5556 96.734C13.967 110.508 -0.919337 126.611 -14.4056 142.786C-20.0532 149.559 -25.5611 156.524 -30.9229 163.651M-30.9229 163.651C-35.9424 170.322 -40.8339 177.136 -45.5919 184.067M-30.9229 163.651C-36.4616 165.777 -41.9691 168.184 -47.4358 170.883C-66.0411 180.069 -81.3422 189.937 -94.1272 201.967M-45.5919 184.067C-46.459 185.33 -47.3218 186.598 -48.1801 187.869M-45.5919 184.067C-61.8998 189.642 -78.1284 195.544 -94.1272 201.967M-48.1801 187.869C-67.1075 194.415 -85.5188 202.234 -103.263 211.425M-84.4572 248.577C-104.478 255.466 -120.874 263.258 -136.462 273.312M-111.27 449.856C-111.143 450.155 -111.015 450.454 -110.886 450.753M-111.27 449.856C-110.707 449.516 -110.142 449.177 -109.575 448.839M-111.27 449.856C-115.398 452.35 -119.424 454.911 -123.378 457.565M-110.886 450.753C-110.448 450.113 -110.011 449.475 -109.575 448.839M-63.0002 522.135C-68.0676 527.073 -73.3607 531.783 -78.8725 536.242M15.6005 575.389C31.8845 581.988 48.9915 586.624 66.6158 588.971C78.2146 590.516 89.135 591.43 99.6124 591.717M148.589 588.081C169.748 584.219 190.631 577.366 213.714 567.553M148.589 588.081C136.235 599.739 122.825 610.025 107.159 620.003M213.714 567.553C204.8 584.787 193.531 601.223 181.328 616.234M250.211 550.189C260.064 544.951 269.736 539.352 279.209 533.442M250.211 550.189C255.158 531.604 264.543 513.514 274.633 498.721C276.053 496.64 277.541 494.519 279.095 492.37M250.211 550.189C248.06 558.268 246.748 566.441 246.581 574.477C246.487 578.996 246.741 583.445 247.309 587.814M279.209 533.442C280.635 532.552 282.057 531.655 283.474 530.751M279.209 533.442C281.48 521.569 284.726 509.974 288.841 498.957M279.209 533.442C278.387 537.736 277.693 542.067 277.131 546.42M283.474 530.751C287.18 528.388 290.855 525.977 294.497 523.522M283.474 530.751C281.621 536.181 279.505 541.402 277.131 546.42M283.474 530.751C286.722 521.233 289.16 511.076 290.76 500.254M294.497 523.522C298.511 520.816 302.486 518.057 306.42 515.248C307.464 514.502 308.526 513.733 309.605 512.94M294.497 523.522C289.348 538.181 282.822 552.426 275.514 566.128M294.497 523.522C296.485 517.862 298.268 512.141 299.812 506.365M309.605 512.94C306.353 510.765 303.089 508.573 299.812 506.365M341.621 486.973C346.744 482.504 351.967 477.819 357.214 472.989M341.621 486.973C342.079 493.972 342.065 501.028 341.528 508.135M341.621 486.973C340.544 470.521 336.862 454.379 331.252 438.601M357.214 472.989C353.331 485.636 347.987 497.334 341.528 508.135M357.214 472.989C360.736 461.519 363.055 449.268 363.913 436.199M376.823 454.363C380.707 450.558 384.554 446.718 388.333 442.873M388.333 442.873C395.666 435.411 402.742 427.928 409.335 420.632M388.333 442.873C388.846 434.376 389.18 425.833 389.351 417.285M409.335 420.632C402.654 418.444 395.976 417.385 389.351 417.285M471.354 266.671C490.582 280.458 508.76 295.672 526.55 312.782M60.9591 152.221C74.9093 153.775 88.7314 156.715 102.278 160.875M32.7722 159.615C32.3457 156.708 31.9599 153.849 31.6172 151.047M-94.1272 201.967C-97.3257 204.977 -100.367 208.122 -103.263 211.425M-252.049 518.92C-251.112 528.36 -249.615 537.686 -247.475 546.755M-55.376 631.937C-20.0991 641.17 16.5788 647.098 53.0711 647.92M-55.376 631.937C-38.2499 643.713 -20.2997 654.626 -1.71887 664.234M53.0711 647.92C61.2055 648.103 69.3307 648.032 77.4292 647.687M53.0711 647.92C35.3467 655.026 16.9893 660.521 -1.71887 664.234M53.0711 647.92C58.6043 645.701 64.076 643.325 69.4773 640.798M77.4292 647.687C74.7576 645.467 72.1101 643.171 69.4773 640.798M122.131 642.84C125.251 646.469 128.597 649.891 132.106 653.071C134.542 655.278 137.039 657.371 139.592 659.355M167.683 632.049C196.215 623.142 220.359 610.845 239.608 594.722M167.683 632.049C172.31 626.987 176.881 621.705 181.328 616.234M239.608 594.722C218.083 605.039 197.475 612.036 181.328 616.234M247.309 587.814C259.681 575.924 269.678 562.174 277.131 546.42M247.309 587.814C247.434 588.777 247.575 589.735 247.73 590.689M277.131 546.42C276.288 552.956 275.743 559.541 275.514 566.128M290.76 500.254C291.193 497.322 291.565 494.342 291.875 491.312M290.76 500.254C290.12 499.822 289.48 499.39 288.841 498.957M290.76 500.254C291.757 500.928 292.755 501.602 293.752 502.276C295.777 503.645 297.797 505.008 299.812 506.365M291.875 491.312C292.424 485.94 292.777 480.413 292.933 474.728M291.875 491.312C292.784 489.151 293.728 487.017 294.705 484.911C298.284 477.198 302.304 469.718 306.715 462.474M291.875 491.312C290.816 493.826 289.805 496.376 288.841 498.957M292.933 474.728C297.291 469.602 301.95 464.5 306.866 459.573M292.933 474.728C287.895 480.653 283.26 486.611 279.095 492.37M253.517 325.494C260.729 330.893 267.728 336.576 274.516 342.394M240.984 306.934C238.4 303.427 235.735 299.984 232.991 296.604M240.984 306.934C236.971 303.281 232.871 299.741 228.682 296.319M232.991 296.604C231.555 296.504 230.118 296.409 228.682 296.319M232.991 296.604C245.311 297.461 257.633 298.688 269.882 300.295M37.6237 186.677C36.2671 180.188 35.0589 173.789 34.0196 167.561M-115.901 228.284C-136.898 241.735 -156.166 257.925 -172.899 276.144C-190.096 294.868 -206.486 322.125 -219.592 350.312M-115.901 228.284C-112.015 222.212 -107.819 216.622 -103.263 211.425M69.4773 640.798C77.7294 636.937 85.8173 632.721 93.7105 628.169M69.4773 640.798C66.4298 638.051 63.4018 635.202 60.3789 632.248C56.279 628.242 52.2809 624.107 48.4048 619.849M93.7105 628.169C87.9373 627.509 80.55 626.456 71.0078 624.905C63.395 623.668 55.8499 621.95 48.4048 619.849M107.159 620.003C108.553 622.96 110.112 625.85 111.815 628.662M221.923 461.793C222.199 458.733 222.323 455.68 222.278 452.646M222.278 452.646C240.867 466.361 259.956 479.418 279.095 492.37M12.305 397.212C10.2394 397.806 8.17879 398.412 6.12366 399.032M12.305 397.212C25.1042 374.606 47.9793 341.942 61.3958 326.849C67.362 320.137 73.7376 313.704 80.6138 307.905M6.12366 399.032C11.7044 375.878 14.6403 348.939 9.0217 325.836M119.678 674.951C126.649 669.946 133.357 664.663 139.592 659.355M181.328 616.234C172.797 618.452 165.511 619.889 159.993 620.622C112.349 619.175 121.409 626.768 111.815 628.662M316.903 682.74C317.366 682.624 317.828 682.508 318.29 682.39M316.903 682.74C323.181 688.819 330.232 694.325 338.098 699.14C343.484 702.437 349.058 705.521 354.787 708.378M448.498 599.558C449.005 598.872 449.507 598.183 450.005 597.489M448.498 599.558C451.428 610.917 453.607 622.349 454.869 633.783C455.151 636.339 455.351 639.005 455.455 641.744M448.498 599.558C448.215 598.46 447.925 597.362 447.628 596.265M450.005 597.489C449.211 597.082 448.419 596.674 447.628 596.265M450.005 597.489C459.258 602.239 468.678 606.89 478.312 611.446M364.251 421.268C361.194 422.261 358.163 423.423 355.163 424.735M364.251 421.268C364.35 426.36 364.233 431.336 363.913 436.199M364.251 421.268C364.105 413.698 363.481 405.872 362.337 397.785M355.163 424.735C346.914 428.345 338.906 433.094 331.252 438.601M355.163 424.735C358.079 428.437 360.986 432.245 363.913 436.199M355.163 424.735C352.059 420.793 348.943 416.971 345.779 413.219M311.292 455.255C309.795 456.676 308.319 458.117 306.866 459.573M311.292 455.255C316.637 447.143 322.474 439.343 328.73 431.857M311.292 455.255C309.723 457.635 308.197 460.041 306.715 462.474M306.866 459.573C306.822 460.542 306.771 461.509 306.715 462.474M306.866 459.573C308.155 431.749 304.933 402.516 298.147 374.536M279.095 492.37C282.343 494.568 285.592 496.763 288.841 498.957M247.73 590.689C254.567 587.174 261.452 583.322 268.273 579.118M289.593 661.015C291.772 659.394 293.924 657.731 296.046 656.028M366.882 704.27C389.586 711.492 417.33 715.45 435.824 699.612C451.748 685.975 456.219 661.879 455.455 641.744M366.882 704.27C401.026 691.414 431.291 669.2 455.455 641.744M455.455 641.744C463.839 632.218 471.489 622.062 478.312 611.446M386.217 468.406C383.094 497.717 377.571 525.959 368.954 551.366M345.779 413.219C351.1 407.885 356.63 402.74 362.337 397.785M294.322 360.18C295.7 364.919 296.977 369.708 298.147 374.536M202.028 295.222C210.889 295.397 219.783 295.762 228.682 296.319M84.9944 304.353C83.5118 305.507 82.0519 306.692 80.6138 307.905M84.9944 304.353C83.0511 304.713 81.1173 305.084 79.1936 305.466M80.6138 307.905C80.1366 307.094 79.6632 306.281 79.1936 305.466M155.53 686.896C168.603 688.927 181.329 688.095 193.641 685.015M193.641 685.015C194.11 685.134 194.58 685.251 195.05 685.366M282.351 623.9C301.798 602.648 320.328 577.659 329.231 557.13C332.951 548.552 335.79 540.031 337.832 531.576M337.832 531.576C334.983 529.723 332.13 527.859 329.271 525.982M328.73 431.857C320.989 412.123 310.345 392.979 298.147 374.536M-136.462 273.312C-139.543 283.131 -141.873 293.128 -143.515 303.238M9.0217 325.836C30.0258 317.342 53.7307 310.511 79.1936 305.466M215.595 696.367C221.467 694.768 227.333 692.933 233.188 690.853M34.0196 167.561C50.2135 164.996 66.605 163.166 83.1147 162.018C89.6145 161.567 95.998 161.184 102.278 160.875M299.812 506.365C301.289 500.838 302.547 495.26 303.556 489.639C305.139 480.818 306.18 471.73 306.715 462.474M275.514 566.128C273.477 569.948 271.379 573.726 269.233 577.458C268.913 578.014 268.594 578.567 268.273 579.118" stroke="#DD3C3C" stroke-width="2" stroke-linecap="round"/>
</g>
<defs>
<clipPath id="clip0_1423_1915">
<rect width="437" height="884" fill="white" transform="translate(0.816406 0.197754)"/>
</clipPath>
</defs>
</svg>
