<svg width="438" height="885" viewBox="0 0 438 885" fill="none" xmlns="http://www.w3.org/2000/svg">
<g clip-path="url(#clip0_1423_1912)">
<path opacity="0.5" d="M435.856 11.8039C427.904 -3.17616 416.365 -15.0495 402.201 -21.5912C360.427 -40.8839 336.644 -23.9546 337.363 4.33762C337.869 24.2349 367.392 37.5898 381.44 37.5718C400.671 37.5472 420.563 29.4053 435.856 11.8039ZM435.856 11.8039C450.418 39.2339 452.956 77.0804 437.573 111.683M435.856 11.8039C444.216 2.18223 451.202 -10.2661 455.953 -25.7605M437.573 111.683C434.547 118.49 430.827 125.171 426.369 131.623C406.148 160.889 369.429 168.133 340.307 154.64C310.613 140.882 291.44 104.192 334.422 84.1828C370.402 67.4334 414.569 82.1099 437.573 111.683ZM437.573 111.683C442.489 118.002 446.439 125.002 449.136 132.521C459.003 160.031 455.217 200.662 408.184 221.12C386.089 230.731 352.3 226.319 322.531 228.173M322.531 228.173C304.249 229.312 287.484 232.813 275.875 243.376C249.227 267.623 283.845 296.521 307.663 277.472C322.933 265.26 326.942 246.578 322.531 228.173ZM322.531 228.173C315.366 198.275 285.984 169.106 246.569 169.586C217.132 169.944 192.897 192.824 180.335 215.417M180.335 215.417C173.296 228.077 169.921 240.647 171.351 249.112C174.421 267.296 196.312 269.398 204.09 263.781C218.918 253.072 209.027 225.179 188.828 217.048C186.19 215.986 183.332 215.465 180.335 215.417ZM180.335 215.417C153.409 214.987 115.318 252.817 125.374 280.679C125.654 281.455 125.938 282.221 126.226 282.973M126.226 282.973C130.972 295.354 137.039 304.413 151.416 307.296C180.172 313.063 179.292 288.388 160.84 278.991C148.676 272.796 136.362 275.888 126.226 282.973ZM126.226 282.973C114.26 291.339 105.33 305.271 103.263 316.063C98.9487 338.596 171.017 324.286 172.526 370.384C173.172 390.108 159.937 410.325 137.976 423.236M137.976 423.236C120.358 433.594 97.1254 439.25 70.9369 436.18C30.5537 431.446 20.3915 390.671 55.1559 378.918C95.4186 365.305 135.852 388.056 137.976 423.236ZM137.976 423.236C138.642 434.271 135.539 446.529 127.479 459.271C105.748 493.627 17.4326 494.436 -6.72606 491.041C-21.2419 489.001 -67.8222 466.245 -43.852 431.554C-23.6158 402.267 -43.073 386.429 -40.0291 363.241C-34.7272 322.85 33.4344 307.689 34.84 249.098C35.586 218.005 -6.72492 187.555 -49.6973 209.132C-51.354 209.964 -53.1128 211.005 -54.9147 212.242M-54.9147 212.242C-67.3545 220.783 -81.8496 238.677 -78.9937 261.685C-75.4323 290.377 -27.5744 280.45 -34.518 248.086C-38.1931 230.957 -45.7152 219.927 -54.9147 212.242ZM-54.9147 212.242C-64.6714 204.092 -76.315 199.706 -87.2574 195.799C-117.016 185.175 -164.16 190.344 -193.24 193.588C-207.622 195.193 -263.952 188.345 -212.838 148.523C-141.052 92.597 -188.632 46.9272 -91.4904 51.8757C-79.3265 52.4954 -58.8472 57.338 -40.724 68.2486M-40.724 68.2486C-36.9147 70.5418 -33.2095 73.1032 -29.7075 75.9497M-40.724 68.2486C-53.6677 89.1364 -68.4297 105.768 -78.7993 115.867C-123.655 159.55 -153.466 142.795 -195.923 147.736C-225.328 151.157 -127.479 184.016 -115.175 179.794C-82.621 168.624 -48.8294 105.218 -29.7075 75.9497M-40.724 68.2486C-12.0209 21.9292 7.74077 -45.3187 -49.1643 -108.662M-29.7075 75.9497C-14.5912 88.2367 -3.26066 105.838 -3.68524 130.131C-4.35284 168.327 73.5665 198.419 120.395 196.501C165.608 194.649 187.855 174.227 194.517 149.7M-29.7075 75.9497C-25.4223 69.3907 -21.8738 64.5461 -19.241 62.3882C-3.00534 49.0807 21.498 63.2227 33.2036 51.9227C46.1154 39.4583 39.8161 0.847263 55.8134 -6.74796C87.1368 -21.6198 122.633 0.340485 135.536 -7.05161C145.875 -12.9747 148.989 -25.3936 136.963 -36.193C119.722 -51.6745 69.1019 -57.401 48.1895 -66.7905C-0.0729942 -88.4598 -74.7745 -192.77 33.3462 -263.05C97.163 -304.532 177.174 -254.69 177.76 -198.261M194.517 149.7C199.104 132.81 196.301 113.972 188.517 97.9116C155.415 29.6146 98.3758 36.5753 77.1444 67.3027C51.78 104.011 110.638 143.494 143.393 149.679C154.472 151.771 173.41 152.654 194.517 149.7ZM194.517 149.7C243.617 142.827 304.453 115.187 305.394 33.6819C305.851 -5.9118 287.272 -36.5801 264.881 -58.8233M264.881 -58.8233C238.608 -84.9231 207.086 -99.4229 194.908 -103.131C144.028 -118.623 92.2992 -74.2188 188.513 -31.8257C218.169 -18.7587 253.46 -28.9165 264.881 -58.8233ZM264.881 -58.8233C271.412 -75.923 270.139 -99.479 255.547 -128.842C249.102 -141.812 225.804 -186.66 177.76 -198.261M177.76 -198.261C176.193 -198.639 174.6 -198.983 172.979 -199.288C117.063 -209.829 72.5121 -238.052 41.1992 -236.057C-20.7742 -232.108 -29.0964 -134.321 53.7717 -115.484C125.553 -99.1681 151.339 -137.673 168.085 -164.721C174.896 -175.723 177.876 -187.12 177.76 -198.261ZM-56.13 831.043C-48.1777 846.023 -36.6391 857.896 -22.4748 864.438C19.2983 883.731 43.0818 866.802 42.3629 838.51C41.8574 818.613 12.3347 805.258 -1.71342 805.276C-20.9441 805.3 -40.8368 813.442 -56.13 831.043ZM-56.13 831.043C-70.6916 803.613 -73.2289 765.766 -57.8456 731.164M-56.13 831.043C-64.49 840.664 -71.4756 853.113 -76.2273 868.607M-57.8456 731.164C-54.8194 724.357 -51.0997 717.676 -46.6416 711.224C-26.4196 681.958 10.2995 674.715 39.4211 688.208C69.115 701.966 88.2875 738.656 45.3047 758.665C9.32454 775.414 -34.8414 760.737 -57.8456 731.164ZM-57.8456 731.164C-62.7616 724.844 -66.7111 717.844 -69.4079 710.325C-79.2746 682.816 -75.4886 642.185 -28.455 621.727C-6.36026 612.117 27.4288 616.528 57.1974 614.675M57.1974 614.675C75.4793 613.537 92.2448 610.035 103.854 599.472C130.502 575.225 95.8846 546.327 72.0663 565.376C56.7959 577.588 52.787 596.27 57.1974 614.675ZM57.1974 614.675C64.3619 644.574 93.7443 673.742 133.159 673.263C162.596 672.905 186.831 650.025 199.393 627.433M199.393 627.433C206.433 614.773 209.807 602.203 208.378 593.737C205.308 575.553 183.417 573.451 175.639 579.068C160.811 589.777 170.702 617.67 190.9 625.801C193.538 626.863 196.397 627.385 199.393 627.433ZM199.393 627.433C226.319 627.863 264.411 590.033 254.355 562.171C254.075 561.395 253.791 560.63 253.503 559.877M253.503 559.877C248.758 547.496 242.69 538.437 228.313 535.554C199.557 529.787 200.437 554.462 218.889 563.859C231.054 570.054 243.367 566.962 253.503 559.877ZM253.503 559.877C265.469 551.512 274.4 537.579 276.466 526.787C280.781 504.255 208.712 518.563 207.204 472.466C206.558 452.742 219.793 432.525 241.755 419.614M241.755 419.614C259.372 409.256 282.606 403.6 308.794 406.67C349.177 411.405 359.339 452.18 324.574 463.933C284.312 477.545 243.878 454.794 241.755 419.614ZM241.755 419.614C241.089 408.579 244.192 396.321 252.252 383.579C273.984 349.223 362.299 348.415 386.458 351.811C400.974 353.851 447.554 376.608 423.583 411.298C403.346 440.585 422.803 456.423 419.759 479.611C414.457 520.002 346.295 535.162 344.889 593.753C344.143 624.846 386.453 655.297 429.426 633.72C431.083 632.888 432.841 631.847 434.643 630.61M434.643 630.61C447.083 622.069 461.578 604.175 458.723 581.167C455.162 552.476 407.304 562.402 414.247 594.766C417.922 611.895 425.444 622.925 434.643 630.61ZM434.643 630.61C444.4 638.76 456.043 643.146 466.986 647.053C496.744 657.678 543.888 652.51 572.968 649.265C587.35 647.661 643.68 654.51 592.566 694.331C520.779 750.256 568.358 795.926 471.217 790.977C459.053 790.357 438.574 785.514 420.451 774.603M420.451 774.603C416.642 772.31 412.937 769.749 409.435 766.902M420.451 774.603C433.395 753.716 448.157 737.084 458.527 726.986C503.383 683.303 533.194 700.058 575.651 695.118C605.055 691.697 507.207 658.837 494.904 663.058C462.349 674.228 428.557 737.634 409.435 766.902M420.451 774.603C391.747 820.922 371.985 888.17 428.889 951.514M409.435 766.902C394.318 754.615 382.988 737.014 383.413 712.721C384.081 674.524 306.162 644.432 259.333 646.349C214.121 648.201 191.873 668.622 185.211 693.149M409.435 766.902C405.149 773.461 401.601 778.306 398.968 780.464C382.732 793.771 358.229 779.629 346.523 790.928C333.611 803.393 339.91 842.004 323.913 849.599C292.589 864.47 257.093 842.51 244.19 849.902C233.851 855.825 230.737 868.243 242.763 879.043C260.004 894.525 310.624 900.252 331.536 909.641C379.798 931.311 454.499 1035.62 346.377 1105.9C282.56 1147.38 202.55 1097.54 201.964 1041.11M185.211 693.149C180.623 710.04 183.427 728.877 191.211 744.938C224.312 813.235 281.351 806.275 302.583 775.548C327.947 738.839 269.09 699.356 236.335 693.171C225.256 691.079 206.318 690.195 185.211 693.149ZM185.211 693.149C136.111 700.021 75.2744 727.661 74.3326 809.166C73.8751 848.76 92.4534 879.428 114.844 901.672M114.844 901.672C141.117 927.772 172.64 942.272 184.818 945.98C235.697 961.473 287.426 917.069 191.213 874.675C161.557 861.608 126.266 871.765 114.844 901.672ZM114.844 901.672C108.314 918.772 109.586 942.328 124.177 971.69C130.623 984.661 153.92 1029.51 201.964 1041.11M201.964 1041.11C203.531 1041.49 205.125 1041.83 206.745 1042.14C262.66 1052.68 307.212 1080.9 338.524 1078.91C400.498 1074.96 408.821 977.173 325.953 958.335C254.172 942.018 228.386 980.523 211.64 1007.57C204.828 1018.57 201.848 1029.97 201.964 1041.11Z" stroke="#ECAD0A" stroke-width="2" stroke-linecap="round"/>
</g>
<defs>
<clipPath id="clip0_1423_1912">
<rect width="437" height="884" fill="white" transform="translate(0.230469 0.196777)"/>
</clipPath>
</defs>
</svg>
