<svg width="118" height="844" viewBox="0 0 118 844" fill="none" xmlns="http://www.w3.org/2000/svg">
<g clip-path="url(#clip0_1539_4982)">
<g opacity="0.5">
<path d="M132.656 611.407C133.669 611.407 134.696 611.781 135.681 611.781C135.036 611.781 131.831 612.199 131.19 612.376C130.558 612.55 129.905 612.528 129.279 612.777C128.08 613.255 126.736 613.047 125.505 613.338C124.279 613.627 122.996 613.525 121.753 613.525H115.888C115.456 613.75 114.429 613.899 113.483 613.899C111.946 613.899 110.454 614.434 108.905 614.397C106.986 614.351 105.055 614.148 103.138 614.148C101.48 614.148 99.9434 613.4 98.2728 613.4C95.7867 613.4 93.3451 614.272 90.8607 614.272C89.1545 614.272 87.5176 615.114 85.827 615.144C84.6478 615.166 83.4852 615.123 82.3192 615.027C79.6372 614.806 76.969 614.771 74.2718 614.771C73.1579 614.771 72.0532 614.646 70.9323 614.646C70.2268 614.646 69.4983 614.541 68.82 614.335C66.7384 613.703 64.5665 613.649 62.4233 613.649H55.2122C54.2932 613.649 53.3649 613.525 52.4591 613.525C52.0194 613.525 51.2169 613.246 51.726 612.597C51.8262 612.47 52.431 612.286 52.5731 612.279C52.9745 612.261 53.3772 612.294 53.7786 612.279C54.5341 612.251 55.3006 611.83 56.0701 611.781C57.2652 611.705 58.6551 611.14 59.8386 611.414C60.7893 611.634 61.755 611.444 62.7166 611.538C63.3719 611.603 63.9983 611.656 64.6605 611.656C65.6093 611.656 66.7695 611.427 67.7014 611.684C68.8677 612.005 70.0869 612.165 71.2744 612.286C71.8646 612.346 72.4667 612.501 73.0554 612.528C73.437 612.546 73.7923 612.752 74.1523 612.777C75.1591 612.849 76.162 613.241 77.1823 613.276C77.8081 613.297 78.4055 613.525 79.0394 613.525H80.3155C81.793 613.525 83.3012 613.649 84.7953 613.649C85.4543 613.649 86.2517 613.776 86.8588 613.428C87.5453 613.034 88.6249 613.197 89.0825 613.073C89.6869 612.745 91.17 613.088 92.0662 613.027C92.3755 613.005 92.6716 612.902 92.9785 612.902C93.9977 612.902 95.0064 612.843 96.0165 612.785L96.1442 612.777C97.946 612.673 99.7595 612.653 101.563 612.653C101.733 612.653 101.859 612.516 102.009 612.431C102.222 612.31 102.588 612.404 102.812 612.404C103.503 612.404 104.18 612.528 104.865 612.528C105.943 612.528 107.028 612.653 108.118 612.653C109.067 612.653 109.9 612.916 110.822 613.151C111.709 613.377 112.517 613.151 113.39 613.151C114.515 613.151 115.815 613.281 116.811 612.473C117.18 612.174 118.025 612.404 118.429 612.404H127.378C128.398 612.404 129.348 611.94 130.354 611.905C131.133 611.878 131.874 611.407 132.656 611.407Z" fill="#3C8BD5"/>
<path d="M172.066 626.627C170.261 626.627 168.646 627.158 166.861 627.158C165.101 627.158 175.442 627.673 177.064 628.544C178.915 629.537 181.604 628.485 183.531 628.485C187.991 628.485 191.033 627.689 195.504 627.689C198.92 627.689 203.648 628.485 207.009 628.485C209.962 628.485 212.781 627.689 215.691 627.689C216.506 627.689 217.295 627.727 218.085 627.423C218.685 627.193 221.463 627.665 221.992 627.291C223.191 626.441 226.449 626.911 227.738 626.612C228.508 626.434 232.087 626.047 232.851 625.831C233.737 625.58 238.962 625.697 239.741 625.035C237.2 625.035 234.539 624.769 231.944 624.769C230.358 624.769 228.89 623.973 227.236 623.973C224.823 623.973 222.474 624.504 220.04 624.504C217.931 624.504 215.903 624.769 213.817 624.769C212.3 624.769 210.412 625.387 209.016 625.896C207.777 626.347 205.927 625.91 204.643 625.91C202.842 625.91 201.216 625.3 199.46 625.3H194.555C192.752 625.3 191.153 625.831 189.303 625.831C187.75 625.831 185.792 625.454 184.306 626.037C182.367 626.797 180.031 625.535 178.105 626.568C177.377 626.959 176.085 626.627 175.306 626.627H172.066Z" fill="#3C8BD5"/>
<path d="M194.736 612.656C193.723 612.656 192.696 612.282 191.711 612.282C192.356 612.282 195.561 611.864 196.202 611.687C196.835 611.513 197.487 611.535 198.114 611.286C199.313 610.808 200.656 611.016 201.887 610.725C203.113 610.436 204.396 610.538 205.64 610.538H211.504C211.937 610.313 212.963 610.164 213.91 610.164C215.446 610.164 216.939 609.629 218.487 609.666C220.406 609.712 222.337 609.915 224.254 609.915C225.913 609.915 227.449 610.663 229.119 610.663C231.606 610.663 234.047 609.791 236.531 609.791C238.238 609.791 239.875 608.949 241.565 608.919C242.744 608.897 243.907 608.94 245.073 609.036C247.755 609.257 250.423 609.292 253.12 609.292C254.234 609.292 255.339 609.417 256.46 609.417C257.165 609.417 257.894 609.523 258.572 609.728C260.654 610.36 262.826 610.414 264.969 610.414H272.18C273.099 610.414 274.027 610.538 274.933 610.538C275.373 610.538 276.175 610.817 275.666 611.466C275.566 611.593 274.961 611.778 274.819 611.784C274.418 611.802 274.015 611.769 273.614 611.784C272.858 611.812 272.092 612.233 271.322 612.282C270.127 612.359 268.737 612.923 267.554 612.649C266.603 612.429 265.637 612.619 264.676 612.525C264.02 612.46 263.394 612.407 262.732 612.407C261.783 612.407 260.623 612.636 259.691 612.379C258.524 612.058 257.305 611.898 256.118 611.777C255.528 611.717 254.926 611.562 254.337 611.535C253.955 611.518 253.6 611.311 253.24 611.286C252.233 611.214 251.23 610.823 250.21 610.787C249.584 610.766 248.987 610.538 248.353 610.538H247.077C245.599 610.538 244.091 610.414 242.597 610.414C241.938 610.414 241.14 610.287 240.533 610.635C239.847 611.029 238.767 610.867 238.31 610.99C237.705 611.318 236.222 610.975 235.326 611.037C235.017 611.058 234.721 611.161 234.414 611.161C233.395 611.161 232.386 611.22 231.376 611.278L231.248 611.286C229.446 611.39 227.633 611.41 225.829 611.41C225.66 611.41 225.533 611.547 225.383 611.632C225.17 611.753 224.805 611.659 224.58 611.659C223.889 611.659 223.212 611.535 222.527 611.535C221.449 611.535 220.364 611.41 219.275 611.41C218.325 611.41 217.492 611.147 216.57 610.912C215.683 610.686 214.876 610.912 214.002 610.912C212.877 610.912 211.578 610.782 210.581 611.59C210.213 611.889 209.367 611.659 208.963 611.659H200.014C198.995 611.659 198.044 612.123 197.038 612.158C196.259 612.185 195.518 612.656 194.736 612.656Z" fill="#3C8BD5"/>
<path d="M155.326 597.432C157.131 597.432 158.746 596.901 160.532 596.901C162.291 596.901 151.95 596.385 150.328 595.515C148.478 594.522 145.788 595.574 143.861 595.574C139.402 595.574 136.359 596.37 131.889 596.37C128.472 596.37 123.744 595.574 120.384 595.574C117.43 595.574 114.611 596.37 111.701 596.37C110.886 596.37 110.097 596.331 109.307 596.636C108.708 596.866 105.929 596.394 105.401 596.768C104.201 597.618 100.944 597.148 99.6546 597.447C98.8847 597.625 95.3057 598.012 94.5414 598.228C93.6552 598.479 88.4305 598.362 87.6509 599.024C90.1924 599.024 92.8528 599.29 95.448 599.29C97.0338 599.29 98.5018 600.086 100.156 600.086C102.569 600.086 104.918 599.555 107.352 599.555C109.461 599.555 111.49 599.29 113.576 599.29C115.092 599.29 116.98 598.672 118.376 598.163C119.616 597.712 121.465 598.148 122.749 598.148C124.55 598.148 126.176 598.759 127.932 598.759H132.837C134.64 598.759 136.239 598.228 138.089 598.228C139.642 598.228 141.6 598.605 143.086 598.022C145.025 597.261 147.361 598.524 149.287 597.491C150.015 597.1 151.307 597.432 152.087 597.432H155.326Z" fill="#3C8BD5"/>
<path d="M149.621 627.128C150.08 627.012 150.538 626.834 150.996 626.656C151.636 626.407 152.28 626.457 152.918 626.233C153.052 626.186 153.416 626.358 153.565 626.484C153.816 626.698 155.45 626.911 155.639 626.656M64.3075 627.879C64.8934 627.879 65.448 627.863 66.0221 628.136C66.8868 628.547 67.6836 628.266 68.5489 628.222C70.7548 628.109 72.9397 627.84 75.1467 627.698C77.4402 627.55 79.6925 626.85 81.9901 626.85C83.8531 626.85 85.724 627.136 87.5901 627.021C89.019 626.934 90.4416 626.678 91.8716 626.678C93.0375 626.678 94.1193 627.454 95.2808 627.745C98.0538 628.44 100.872 628.908 103.678 628.908C105.883 628.908 108.107 629.036 110.306 628.727C111.118 628.613 111.929 628.436 112.738 628.26C113.869 628.013 115.009 628.062 116.137 627.841C116.373 627.794 117.017 627.964 117.28 628.09C117.725 628.301 120.614 628.512 120.948 628.26M157.619 612.56C157.401 612.56 157.194 612.555 156.981 612.629C156.659 612.739 156.362 612.664 156.039 612.652C155.218 612.621 154.404 612.549 153.582 612.511C152.728 612.471 151.889 612.283 151.033 612.283C150.34 612.283 149.643 612.36 148.948 612.329C148.416 612.306 147.886 612.237 147.353 612.237M129.09 627.773C129.375 627.773 129.646 627.764 129.926 627.911C130.348 628.132 130.737 627.981 131.159 627.957C132.236 627.896 133.302 627.752 134.379 627.675C135.499 627.596 136.598 627.219 137.719 627.219C138.628 627.219 139.541 627.373 140.452 627.312C141.149 627.264 141.844 627.127 142.542 627.127M141.692 611.781C141.383 611.781 141.071 611.675 140.812 611.656C140.425 611.627 140.069 611.781 139.694 611.781H135.681M135.681 611.781C134.696 611.781 133.669 611.407 132.656 611.407C131.874 611.407 131.133 611.878 130.354 611.905C129.348 611.94 128.398 612.404 127.378 612.404H118.429C118.025 612.404 117.18 612.174 116.811 612.473C115.815 613.281 114.515 613.151 113.39 613.151C112.517 613.151 111.709 613.377 110.822 613.151C109.9 612.916 109.067 612.653 108.118 612.653C107.028 612.653 105.943 612.528 104.865 612.528C104.18 612.528 103.503 612.404 102.812 612.404C102.588 612.404 102.222 612.31 102.009 612.431C101.859 612.516 101.733 612.653 101.563 612.653C99.7595 612.653 97.946 612.673 96.1442 612.777L96.0165 612.785C95.0064 612.843 93.9977 612.902 92.9785 612.902C92.6716 612.902 92.3755 613.005 92.0662 613.027C91.17 613.088 89.6869 612.745 89.0825 613.073C88.6249 613.197 87.5453 613.034 86.8588 613.428C86.2517 613.776 85.4543 613.649 84.7953 613.649C83.3012 613.649 81.793 613.525 80.3155 613.525H79.0394C78.4055 613.525 77.8081 613.297 77.1823 613.276C76.162 613.241 75.1591 612.849 74.1523 612.777C73.7923 612.752 73.437 612.546 73.0554 612.528C72.4667 612.501 71.8646 612.346 71.2744 612.286C70.0869 612.165 68.8677 612.005 67.7014 611.684C66.7695 611.427 65.6093 611.656 64.6605 611.656C63.9983 611.656 63.3719 611.603 62.7166 611.538C61.755 611.444 60.7893 611.634 59.8386 611.414C58.6551 611.14 57.2652 611.705 56.0701 611.781C55.3006 611.83 54.5341 612.251 53.7786 612.279C53.3772 612.294 52.9745 612.261 52.5731 612.279C52.431 612.286 51.8262 612.47 51.726 612.597C51.2169 613.246 52.0194 613.525 52.4591 613.525C53.3649 613.525 54.2932 613.649 55.2122 613.649H62.4233C64.5665 613.649 66.7384 613.703 68.82 614.335C69.4983 614.541 70.2268 614.646 70.9323 614.646C72.0532 614.646 73.1579 614.771 74.2718 614.771C76.969 614.771 79.6372 614.806 82.3192 615.027C83.4852 615.123 84.6478 615.166 85.827 615.144C87.5176 615.114 89.1545 614.272 90.8607 614.272C93.3451 614.272 95.7867 613.4 98.2728 613.4C99.9434 613.4 101.48 614.148 103.138 614.148C105.055 614.148 106.986 614.351 108.905 614.397C110.454 614.434 111.946 613.899 113.483 613.899C114.429 613.899 115.456 613.75 115.888 613.525H121.753C122.996 613.525 124.279 613.627 125.505 613.338C126.736 613.047 128.08 613.255 129.279 612.777C129.905 612.528 130.558 612.55 131.19 612.376C131.831 612.199 135.036 611.781 135.681 611.781ZM161.655 626.627C163.454 626.627 165.084 627.158 166.861 627.158M166.861 627.158C168.646 627.158 170.261 626.627 172.066 626.627H175.306C176.085 626.627 177.377 626.959 178.105 626.568C180.031 625.535 182.367 626.797 184.306 626.037C185.792 625.454 187.75 625.831 189.303 625.831C191.153 625.831 192.752 625.3 194.555 625.3H199.46C201.216 625.3 202.842 625.91 204.643 625.91C205.927 625.91 207.777 626.347 209.016 625.896C210.412 625.387 212.3 624.769 213.817 624.769C215.903 624.769 217.931 624.504 220.04 624.504C222.474 624.504 224.823 623.973 227.236 623.973C228.89 623.973 230.358 624.769 231.944 624.769C234.539 624.769 237.2 625.035 239.741 625.035M166.861 627.158C165.101 627.158 175.442 627.673 177.064 628.544C178.915 629.537 181.604 628.485 183.531 628.485C187.991 628.485 191.033 627.689 195.504 627.689C198.92 627.689 203.648 628.485 207.009 628.485C209.962 628.485 212.781 627.689 215.691 627.689C216.506 627.689 217.295 627.727 218.085 627.423C218.685 627.193 221.463 627.665 221.992 627.291C223.191 626.441 226.449 626.911 227.738 626.612C228.508 626.434 232.087 626.047 232.851 625.831C233.737 625.58 238.962 625.697 239.741 625.035M239.741 625.035C241.821 625.035 243.869 625.565 246 625.565C247.815 625.565 249.643 625.831 251.402 625.831M177.775 596.935C177.316 597.051 176.857 597.229 176.4 597.407C175.76 597.656 175.115 597.606 174.478 597.83C174.344 597.877 173.98 597.705 173.831 597.579C173.579 597.366 171.945 597.152 171.757 597.407M263.085 596.188C262.499 596.188 261.944 596.204 261.37 595.931C260.505 595.52 259.709 595.801 258.843 595.845C256.637 595.959 254.453 596.227 252.246 596.37C249.952 596.517 247.7 597.218 245.402 597.218C243.539 597.218 241.668 596.932 239.802 597.046C238.373 597.134 236.951 597.389 235.521 597.389C234.355 597.389 233.273 596.613 232.111 596.322C229.338 595.627 226.52 595.159 223.714 595.159C221.509 595.159 219.285 595.031 217.086 595.34C216.274 595.455 215.464 595.631 214.655 595.807C213.523 596.054 212.383 596.005 211.255 596.227C211.019 596.273 210.375 596.103 210.112 595.978C209.667 595.767 206.778 595.555 206.444 595.807M169.773 611.499C169.991 611.499 170.198 611.503 170.412 611.43C170.734 611.32 171.03 611.395 171.353 611.407C172.174 611.437 172.988 611.51 173.81 611.548C174.664 611.588 175.503 611.776 176.359 611.776C177.053 611.776 177.749 611.699 178.444 611.73C178.977 611.753 179.507 611.822 180.039 611.822M198.306 596.291C198.02 596.291 197.749 596.299 197.469 596.152C197.047 595.931 196.658 596.082 196.236 596.106C195.16 596.167 194.093 596.311 193.016 596.388C191.897 596.467 190.798 596.844 189.676 596.844C188.767 596.844 187.854 596.69 186.943 596.752C186.246 596.799 185.552 596.936 184.854 596.936M185.7 612.282C186.01 612.282 186.322 612.388 186.58 612.407C186.967 612.436 187.323 612.282 187.699 612.282H191.711M191.711 612.282C192.696 612.282 193.723 612.656 194.736 612.656C195.518 612.656 196.259 612.185 197.038 612.158C198.044 612.123 198.995 611.659 200.014 611.659H208.963C209.367 611.659 210.213 611.889 210.581 611.59C211.578 610.782 212.877 610.912 214.002 610.912C214.876 610.912 215.683 610.686 216.57 610.912C217.492 611.147 218.325 611.41 219.275 611.41C220.364 611.41 221.449 611.535 222.527 611.535C223.212 611.535 223.889 611.659 224.58 611.659C224.805 611.659 225.17 611.753 225.383 611.632C225.533 611.547 225.66 611.41 225.829 611.41C227.633 611.41 229.446 611.39 231.248 611.286L231.376 611.278C232.386 611.22 233.395 611.161 234.414 611.161C234.721 611.161 235.017 611.058 235.326 611.037C236.222 610.975 237.705 611.318 238.31 610.99C238.767 610.867 239.847 611.029 240.533 610.635C241.14 610.287 241.938 610.414 242.597 610.414C244.091 610.414 245.599 610.538 247.077 610.538H248.353C248.987 610.538 249.584 610.766 250.21 610.787C251.23 610.823 252.233 611.214 253.24 611.286C253.6 611.311 253.955 611.518 254.337 611.535C254.926 611.562 255.528 611.717 256.118 611.777C257.305 611.898 258.524 612.058 259.691 612.379C260.623 612.636 261.783 612.407 262.732 612.407C263.394 612.407 264.02 612.46 264.676 612.525C265.637 612.619 266.603 612.429 267.554 612.649C268.737 612.923 270.127 612.359 271.322 612.282C272.092 612.233 272.858 611.812 273.614 611.784C274.015 611.769 274.418 611.802 274.819 611.784C274.961 611.778 275.566 611.593 275.666 611.466C276.175 610.817 275.373 610.538 274.933 610.538C274.027 610.538 273.099 610.414 272.18 610.414H264.969C262.826 610.414 260.654 610.36 258.572 609.728C257.894 609.523 257.165 609.417 256.46 609.417C255.339 609.417 254.234 609.292 253.12 609.292C250.423 609.292 247.755 609.257 245.073 609.036C243.907 608.94 242.744 608.897 241.565 608.919C239.875 608.949 238.238 609.791 236.531 609.791C234.047 609.791 231.606 610.663 229.119 610.663C227.449 610.663 225.913 609.915 224.254 609.915C222.337 609.915 220.406 609.712 218.487 609.666C216.939 609.629 215.446 610.164 213.91 610.164C212.963 610.164 211.937 610.313 211.504 610.538H205.64C204.396 610.538 203.113 610.436 201.887 610.725C200.656 611.016 199.313 610.808 198.114 611.286C197.487 611.535 196.835 611.513 196.202 611.687C195.561 611.864 192.356 612.282 191.711 612.282ZM165.737 597.432C163.938 597.432 162.308 596.901 160.532 596.901M160.532 596.901C158.746 596.901 157.131 597.432 155.326 597.432H152.087C151.307 597.432 150.015 597.1 149.287 597.491C147.361 598.524 145.025 597.261 143.086 598.022C141.6 598.605 139.642 598.228 138.089 598.228C136.239 598.228 134.64 598.759 132.837 598.759H127.932C126.176 598.759 124.55 598.148 122.749 598.148C121.465 598.148 119.616 597.712 118.376 598.163C116.98 598.672 115.092 599.29 113.576 599.29C111.49 599.29 109.461 599.555 107.352 599.555C104.918 599.555 102.569 600.086 100.156 600.086C98.5018 600.086 97.0338 599.29 95.448 599.29C92.8528 599.29 90.1924 599.024 87.6509 599.024M160.532 596.901C162.291 596.901 151.95 596.385 150.328 595.515C148.478 594.522 145.788 595.574 143.861 595.574C139.402 595.574 136.359 596.37 131.889 596.37C128.472 596.37 123.744 595.574 120.384 595.574C117.43 595.574 114.611 596.37 111.701 596.37C110.886 596.37 110.097 596.331 109.307 596.636C108.708 596.866 105.929 596.394 105.401 596.768C104.201 597.618 100.944 597.148 99.6546 597.447C98.8847 597.625 95.3057 598.012 94.5414 598.228C93.6552 598.479 88.4305 598.362 87.6509 599.024M87.6509 599.024C85.5714 599.024 83.5237 598.493 81.3924 598.493C79.5776 598.493 77.749 598.228 75.99 598.228" stroke="#3C8BD5" stroke-linecap="round"/>
</g>
<g opacity="0.5">
<path d="M123.421 153.478H105.708V155.152H123.421V153.478Z" fill="#26B7A6"/>
<path d="M197.305 166.45H215.018V168.124H197.305V166.45Z" fill="#26B7A6"/>
<path d="M100.649 181.923H82.9357V183.597H100.649V181.923Z" fill="#26B7A6"/>
<path d="M163.399 153.478H157.326V155.152H163.399V153.478Z" fill="#26B7A6"/>
<path d="M157.331 166.45H163.404V168.124H157.331V166.45Z" fill="#26B7A6"/>
<path d="M140.622 181.923H134.549V183.597H140.622V181.923Z" fill="#26B7A6"/>
<path d="M188.705 156.406V151.803H232.228V156.406H188.705Z" fill="#26B7A6"/>
<path d="M132.026 169.374V164.771H88.5028V169.374H132.026Z" fill="#26B7A6"/>
<path d="M165.928 184.862V180.259H209.451V184.862H165.928Z" fill="#26B7A6"/>
<path d="M138.1 156.406V151.803H149.233V156.406H138.1Z" fill="#26B7A6"/>
<path d="M182.635 169.374V164.771H171.501V169.374H182.635Z" fill="#26B7A6"/>
<path d="M115.328 184.862V180.259H126.461V184.862H115.328Z" fill="#26B7A6"/>
<path d="M59.6531 154.316H97.6091M261.073 167.284H223.117M36.8806 182.768H74.8366M177.059 154.316H182.626M143.663 167.284H138.096M154.291 182.768H159.858M105.708 153.478H123.421V155.152H105.708V153.478ZM215.018 166.45H197.305V168.124H215.018V166.45ZM82.9357 181.923H100.649V183.597H82.9357V181.923ZM157.326 153.478H163.399V155.152H157.326V153.478ZM163.404 166.45H157.331V168.124H163.404V166.45ZM134.549 181.923H140.622V183.597H134.549V181.923ZM188.705 151.803V156.406H232.228V151.803H188.705ZM132.026 164.771V169.374H88.5028V164.771H132.026ZM165.928 180.259V184.862H209.451V180.259H165.928ZM138.1 151.803V156.406H149.233V151.803H138.1ZM182.635 164.771V169.374H171.501V164.771H182.635ZM115.328 180.259V184.862H126.461V180.259H115.328Z" stroke="#26B7A6"/>
</g>
<path opacity="0.5" d="M112.374 278.624C109.909 280.806 108.195 283.522 107.609 286.489C105.879 295.238 110.167 298.944 115.478 297.515C119.213 296.511 120.382 290.34 119.735 287.695C118.849 284.074 116.399 280.7 112.374 278.624ZM112.374 278.624C116.888 274.628 123.92 272.42 131.161 273.736M112.374 278.624C110.173 277.489 107.502 276.742 104.358 276.556M131.161 273.736C132.585 273.995 134.018 274.39 135.441 274.935C141.895 277.406 144.946 283.99 143.733 290.092C142.495 296.313 136.443 301.601 130.694 294.42C125.881 288.409 126.629 279.42 131.161 273.736ZM131.161 273.736C132.129 272.521 133.27 271.457 134.567 270.606C139.311 267.49 147.159 266.346 153.179 274.27C156.006 277.992 156.722 284.557 158.436 290.079M158.436 290.079C159.489 293.47 160.919 296.468 163.446 298.172C169.248 302.082 173.119 294.242 168.43 290.626C165.423 288.309 161.711 288.407 158.436 290.079ZM158.436 290.079C153.117 292.795 148.955 299.662 150.852 307.064C152.269 312.591 157.701 316.11 162.544 317.443M162.544 317.443C165.258 318.191 167.787 318.252 169.321 317.596C172.614 316.186 172.008 311.967 170.591 310.759C167.888 308.456 163.073 311.593 162.463 315.769C162.383 316.315 162.416 316.877 162.544 317.443ZM162.544 317.443C163.697 322.534 172.588 327.98 177.39 324.812C177.524 324.724 177.656 324.636 177.785 324.547M177.785 324.547C179.906 323.087 181.338 321.531 181.224 318.691C180.995 313.012 176.375 314.305 175.446 318.21C174.833 320.784 175.982 322.962 177.785 324.547ZM177.785 324.547C179.913 326.418 182.954 327.464 185.087 327.36C189.541 327.142 183.535 314.223 192.173 311.832C195.869 310.809 200.294 312.378 203.739 315.924M203.739 315.924C206.503 318.768 208.636 322.886 209.257 327.958C210.214 335.78 202.978 339.558 199.164 333.548C194.748 326.587 197.192 317.932 203.739 315.924ZM203.739 315.924C205.793 315.294 208.251 315.318 211.027 316.254C218.512 318.777 222.713 335.373 223.179 340.078C223.459 342.905 221.295 352.718 213.644 349.789C207.185 347.316 205.085 351.705 200.566 352.191C192.693 353.039 186.706 340.894 175.574 343.307C169.667 344.587 165.855 353.948 171.9 361.055C172.133 361.329 172.411 361.613 172.727 361.896M172.727 361.896C174.91 363.848 178.954 365.76 183.169 364.171C188.426 362.189 184.357 353.629 178.562 356.416C175.495 357.891 173.757 359.812 172.727 361.896ZM172.727 361.896C171.635 364.106 171.34 366.499 171.103 368.738C170.461 374.829 173.598 383.472 175.543 388.8C176.506 391.436 177.794 402.358 167.929 394.551C154.076 383.587 147.63 394.635 144.113 376.113C143.672 373.794 143.648 369.716 144.878 365.804M144.878 365.804C145.137 364.981 145.451 364.166 145.828 363.377M144.878 365.804C149.417 367.287 153.235 369.307 155.618 370.798C165.925 377.25 164.126 383.631 167.005 391.401C168.999 396.783 170.721 376.852 169.36 374.728C165.758 369.107 152.233 365.641 145.828 363.377M144.878 365.804C134.814 362.514 121.206 361.866 111.85 375.478M145.828 363.377C147.456 359.968 150.261 357.03 154.869 356C162.115 354.38 164.227 338.329 161.719 329.597C159.297 321.166 154.42 317.91 149.481 317.776M145.828 363.377C144.393 362.869 143.315 362.423 142.787 362.025C139.529 359.576 141.077 354.314 138.406 352.626C135.46 350.764 128.456 353.715 126.288 351.049C122.044 345.829 124.565 338.14 122.577 336.048C120.984 334.371 118.496 334.352 117.007 337.111C114.873 341.066 116.112 350.861 115.297 355.229C113.416 365.309 97.137 384.146 78.9069 366.994C68.1468 356.87 73.8939 339.523 84.5255 336.834M149.481 317.776C146.081 317.684 142.651 319.073 139.975 321.273C128.592 330.628 132.521 341.053 139.298 343.647C147.394 346.747 152.154 333.857 151.821 327.405C151.708 325.223 151.007 321.616 149.481 317.776ZM149.481 317.776C145.933 308.842 137.924 298.648 122.486 302.195C114.986 303.919 110.045 308.819 106.87 314.053M106.87 314.053C103.144 320.194 101.85 326.794 101.708 329.257C101.114 339.548 111.872 347.261 115.469 327.203C116.578 321.02 113.042 314.837 106.87 314.053ZM106.87 314.053C103.341 313.605 98.9498 314.921 94.0724 319.011C91.9179 320.818 84.5148 327.255 84.5255 336.834M84.5255 336.834C84.5258 337.146 84.5341 337.462 84.5507 337.781C85.1224 348.794 81.8336 358.475 83.6456 364.281C87.2318 375.773 106.084 372.871 105.843 356.403C105.635 342.138 97.1805 339.041 91.3042 337.123C88.9138 336.343 86.6245 336.303 84.5255 336.834Z" stroke="#ECAD0A" stroke-linecap="round"/>
</g>
<defs>
<clipPath id="clip0_1539_4982">
<rect width="118" height="844" fill="white"/>
</clipPath>
</defs>
</svg>
