<svg width="438" height="885" viewBox="0 0 438 885" fill="none" xmlns="http://www.w3.org/2000/svg">
<g clip-path="url(#clip0_1423_1917)">
<path opacity="0.5" d="M260.697 897.904L527.898 815.415L525.273 695.041L425.65 753.353L369.976 687.141L406.695 647.067L482.008 691.844L399.494 490.606L321.262 526.436M321.262 526.436L282.344 544.261M321.262 526.436L312.026 572.998L282.344 544.261M321.262 526.436L342.756 418.087L184.75 377.666L257.966 297.758M282.344 544.261L262.338 553.424M282.344 544.261L110.754 378.132L-8.40395 310.251L-12.5044 592.949L31.33 645.94L109.605 459.679L262.338 553.424M262.338 553.424L210.821 577.019L209.134 670.355L113.032 577.311L121.603 780.825L203.921 802.486M262.338 553.424L342.851 602.842L180.607 779.914L203.921 802.486M203.921 802.486L250.821 814.827M203.921 802.486L235.912 833.459L250.821 814.827M250.821 814.827L278.755 822.177L377.767 833.621L330.275 715.533L250.821 814.827ZM257.966 297.758L288.928 263.967L349.456 304.636M257.966 297.758L348.006 356.339L349.456 304.636M257.966 297.758L248.319 291.482L293.313 81.7914L261.949 58.1055M349.456 304.636L514.488 415.519L498.843 301.885L458.035 292.273L485.107 223.514L428.889 187.946M349.456 304.636L351.924 216.638M428.889 187.946L354.057 140.602L351.924 216.638M428.889 187.946L403.637 239.606L351.924 216.638M428.889 187.946L470.158 103.519M351.924 216.638L319.732 202.339L326.615 45.445L261.949 58.1055M261.949 58.1055L194.216 6.95316L171.086 75.8948M261.949 58.1055L171.086 75.8948M171.086 75.8948L129.72 199.193M171.086 75.8948L57.6635 98.101L135.159 6.05383L96.1634 -1.80275L-80.1015 147.625L-73.1963 233.452L24.15 127.208L129.72 199.193M129.72 199.193L122.066 222.008L48.1968 166.318L16.0011 240.669L111.197 332.835L208.427 252.86L129.72 199.193Z" stroke="#8C55B2" stroke-width="2"/>
</g>
<defs>
<clipPath id="clip0_1423_1917">
<rect width="437" height="884" fill="white" transform="translate(0.898438 0.197754)"/>
</clipPath>
</defs>
</svg>
