<svg width="248" height="110" viewBox="0 0 248 110" fill="none" xmlns="http://www.w3.org/2000/svg">
<path d="M26.1095 10.2847L25.6133 9.41646L25.6133 9.41646L26.1095 10.2847ZM5.31884 36.0803L4.38239 35.7295L4.38239 35.7295L5.31884 36.0803ZM4.24873 69.9562L3.27552 70.1861L3.27552 70.1861L4.24873 69.9562ZM7.72761 80.5766L6.8571 81.0688L6.8571 81.0688L7.72761 80.5766ZM13.2682 87.5401L13.9763 86.834L13.9763 86.834L13.2682 87.5401ZM26.852 99.0584L26.423 99.9617L26.423 99.9617L26.852 99.0584ZM36.2864 103.482L35.848 104.381L35.848 104.381L36.2864 103.482ZM41.0473 105.08L41.158 104.086L41.158 104.086L41.0473 105.08ZM45.6335 106.328L45.0443 107.136L45.0443 107.136L45.6335 106.328ZM50.0231 107.051L49.9233 108.046L49.9233 108.046L50.0231 107.051ZM57.0334 107.818L57.0116 108.817L57.0116 108.817L57.0334 107.818ZM98.702 104.095L99.0875 105.018L99.0875 105.018L98.702 104.095ZM106.477 98.5329L107.069 99.3389L107.069 99.3389L106.477 98.5329ZM121.786 83.5766L122.609 84.1448L122.609 84.1448L121.786 83.5766ZM122.463 34.3723L121.593 34.8653L121.593 34.8653L122.463 34.3723ZM117.964 23.1606L117.223 23.8323L117.223 23.8323L117.964 23.1606ZM110.495 17.1606L111.072 16.3435L111.072 16.3435L110.495 17.1606ZM102.633 11.1606L102.278 12.0953L102.278 12.0953L102.633 11.1606ZM96.9331 8.46715L96.526 9.38056L96.526 9.38056L96.9331 8.46715ZM88.6125 5.94891L88.2492 6.88058L88.2492 6.88058L88.6125 5.94891ZM81.1217 3.38686L81.2461 2.39462L81.2461 2.39462L81.1217 3.38686ZM75.7712 3.05839L75.5478 4.03312L75.5478 4.03312L75.7712 3.05839ZM79.3651 82.325L79.6653 83.2789L79.6653 83.2789L79.3651 82.325ZM87.172 79.5276L87.6659 80.3972L87.6659 80.3972L87.172 79.5276ZM98.2227 65.9019L97.2869 65.5492L98.2227 65.9019ZM98.7914 48.0081L99.7643 47.7768L99.7643 47.7768L98.7914 48.0081ZM96.9423 42.3982L97.8115 41.9037L97.8115 41.9037L96.9423 42.3982ZM93.9974 38.7199L94.7033 38.0116L94.7033 38.0116L93.9974 38.7199ZM86.7773 32.6358L87.2042 31.7315L87.2042 31.7315L86.7773 32.6358ZM81.7627 30.2993L82.199 29.3994L82.1989 29.3994L81.7627 30.2993ZM79.2322 29.4549L79.3423 28.461L79.3423 28.461L79.2322 29.4549ZM76.7946 28.7956L77.3814 27.9859L77.3814 27.9859L76.7946 28.7956ZM74.4614 28.4139L74.3622 29.409L74.3622 29.409L74.4614 28.4139ZM70.7353 28.0091L70.7569 27.0093L70.7569 27.0093L70.7353 28.0091ZM48.5875 29.9754L48.2041 29.0519L48.2041 29.0519L48.5875 29.9754ZM44.4551 32.9134L45.0446 33.7212L45.0446 33.7212L44.4551 32.9134ZM40.5897 35.5159L39.8838 34.8076L39.8838 34.8076L40.5897 35.5159ZM36.318 40.8135L37.1393 41.3841L37.1393 41.3841L36.318 40.8135ZM35.9582 66.8041L36.8269 66.3088L36.8269 66.3088L35.9582 66.8041ZM38.3494 72.7263L37.6106 73.4003L37.6106 73.4003L38.3494 72.7263ZM42.3193 75.8956L41.7451 76.7144L41.7451 76.7144L42.3193 75.8956ZM46.4981 79.0649L46.1445 80.0004L46.1445 80.0004L46.4981 79.0649ZM49.5277 80.4877L49.9327 79.5733L49.9327 79.5733L49.5277 80.4877ZM53.9503 81.8178L53.589 82.7503L53.589 82.7503L53.9503 81.8178ZM57.9318 83.1712L57.8082 84.1635L57.8082 84.1635L57.9318 83.1712ZM60.7758 83.3447L60.9978 82.3696L60.9978 82.3696L60.7758 83.3447ZM139.203 24.6671L138.566 23.8955C138.241 24.1639 138.119 24.6078 138.261 25.005C138.404 25.4022 138.781 25.6671 139.203 25.6671V24.6671ZM145.423 28.7905L144.915 29.6518L144.915 29.6518L145.423 28.7905ZM151.799 33.0871L152.206 32.1737L152.206 32.1737L151.799 33.0871ZM155.686 36.0497L155.145 36.8902L155.145 36.8902L155.686 36.0497ZM157.483 37.7649L158.346 37.2589L158.346 37.2589L157.483 37.7649ZM158.174 37.1412L158.902 37.8269L158.902 37.8269L158.174 37.1412ZM161.354 33.9333L161.924 34.7548L161.924 34.7548L161.354 33.9333ZM164.239 31.7503L164.646 32.6637L164.646 32.6637L164.239 31.7503ZM170.926 28.0774L171.395 28.9606L171.395 28.9606L170.926 28.0774ZM178.235 25.3746L177.76 24.4947L177.76 24.4947L178.235 25.3746ZM181.656 24.7336L181.169 23.86L181.169 23.86L181.656 24.7336ZM185.164 24.2658L185.201 25.2651L185.201 25.2651L185.164 24.2658ZM199.605 24.1755L199.883 23.2148L199.883 23.2148L199.605 24.1755ZM209.206 27.3845L208.498 28.0906L208.498 28.0906L209.206 27.3845ZM212.406 30.2368L213.197 29.6239L213.197 29.6239L212.406 30.2368ZM208.01 40.6807L207.398 39.8892L208.01 40.6807ZM201.855 43.309L202.133 44.2695L201.855 43.309ZM186.805 43.6181L186.811 44.6181L186.805 43.6181ZM176.848 43.7856L176.563 42.827L176.848 43.7856ZM174.359 45.5683L173.382 45.7847L173.382 45.7847L174.359 45.5683ZM174.952 52.8725L173.968 52.6941L173.968 52.6941L174.952 52.8725ZM175.747 63.4755L176.222 64.3555L176.222 64.3555L175.747 63.4755ZM181.47 63.3957L181.415 62.3972L181.415 62.3972L181.47 63.3957ZM188.938 63.0251L188.961 64.0248L188.938 63.0251ZM202.961 63.9607L202.735 64.9348L202.735 64.9348L202.961 63.9607ZM213.708 68.3266L214.507 67.7253L213.708 68.3266ZM215.962 75.8748L215.048 75.4696C215.027 75.5175 215.009 75.5671 214.996 75.6178L215.962 75.8748ZM204.228 85.145L204.597 86.0744L204.228 85.145ZM181.826 85.8581L181.799 86.8578L181.799 86.8578L181.826 85.8581ZM172.936 83.7188L173.22 82.76L172.936 83.7188ZM166.18 80.1534L165.837 81.0929L165.837 81.0929L166.18 80.1534ZM158.713 74.4486L157.929 75.0701L157.929 75.0701L158.713 74.4486ZM156.224 72.6659L156.732 73.5272L156.732 73.5272L156.224 72.6659ZM154.09 74.0921L154.767 74.8279L154.09 74.0921ZM148.401 77.6576L148.054 76.7195L148.054 76.7195L148.401 77.6576ZM142.711 81.223L143.288 82.0401L143.288 82.0401L142.711 81.223ZM139.155 83.7188L139.823 84.4632L139.823 84.4632L139.155 83.7188ZM138.736 87.1764L139.351 86.3879L139.351 86.3879L138.736 87.1764ZM144.489 92.6325L143.768 93.3254C143.776 93.3334 143.784 93.3412 143.791 93.3489L144.489 92.6325ZM150.179 96.9111L150.516 95.9696L150.516 95.9696L150.179 96.9111ZM158.001 100.833L157.682 101.781L158.001 100.833ZM172.936 105.825L172.573 106.756L172.573 106.756L172.936 105.825ZM183.248 107.607L183.147 108.602L183.248 107.607ZM224.421 102.943L224.878 103.832L224.878 103.832L224.421 102.943ZM235.52 97.2676L236.154 98.0407L236.154 98.0407L235.52 97.2676ZM226.63 54.8386L227.068 53.9398L227.068 53.9398L226.63 54.8386ZM219.755 53.6697L219.581 52.6849C219.071 52.7752 218.714 53.2406 218.759 53.757C218.805 54.2735 219.237 54.6697 219.755 54.6697V53.6697ZM236.586 46.2814L236.107 45.4041L236.107 45.4041L236.586 46.2814ZM242.529 38.3195L241.58 38.0041L241.58 38.0041L242.529 38.3195ZM243.099 23.8876L242.123 24.104L242.123 24.104L243.099 23.8876ZM239.505 17.9624L240.213 17.2563L240.213 17.2563L239.505 17.9624ZM226.892 9.21318L226.49 10.1289L226.49 10.1289L226.892 9.21318ZM220.941 6.3482L221.289 5.41092L220.941 6.3482ZM214.184 4.56547L214.548 3.63391L214.548 3.63391L214.184 4.56547ZM175.92 2.99343L175.774 2.00412L175.92 2.99343ZM169.06 4.08491L168.651 3.17251L168.651 3.17251L169.06 4.08491ZM165.017 6.02534L164.53 5.15174L164.53 5.15174L165.017 6.02534ZM160.974 7.89646L161.267 8.85259L161.267 8.85259L160.974 7.89646ZM155.928 10.322L156.318 11.2429L156.318 11.2429L155.928 10.322ZM151.712 12.8861L152.231 13.7412L152.231 13.7412L151.712 12.8861ZM147.911 15.6235L147.203 14.9174L147.203 14.9174L147.911 15.6235ZM40.4954 4.03534C37.1633 5.0904 31.0325 6.31936 25.6133 9.41646L26.6057 11.1529C31.7779 8.19689 37.4825 7.08721 41.0991 5.94204L40.4954 4.03534ZM4.38239 35.7295C2.02779 42.0149 0.971493 47.3786 0.90211 52.8222C0.832892 58.2529 1.74698 63.7165 3.27552 70.1861L5.22194 69.7263C3.70752 63.3164 2.8358 58.0374 2.90195 52.8477C2.96793 47.6709 3.96817 42.5364 6.25528 36.4311L4.38239 35.7295ZM3.27552 70.1861C4.26781 74.3861 4.62234 77.1159 6.8571 81.0688L8.59812 80.0845C6.53874 76.4418 6.24648 74.0627 5.22194 69.7263L3.27552 70.1861ZM6.8571 81.0688C8.63518 84.2138 10.3597 86.0399 12.5601 88.2463L13.9763 86.834C11.8144 84.6663 10.242 82.9922 8.59812 80.0845L6.8571 81.0688ZM12.5601 88.2463C16.5499 92.2468 20.9252 97.3504 26.423 99.9617L27.281 98.1551C22.1887 95.7365 18.1466 91.0155 13.9763 86.834L12.5601 88.2463ZM26.423 99.9617C29.6037 101.472 32.7272 102.858 35.848 104.381L36.7248 102.583C33.615 101.066 30.3771 99.6256 27.281 98.1551L26.423 99.9617ZM35.848 104.381C37.3762 105.126 39.1161 105.871 40.9366 106.074L41.158 104.086C39.7001 103.924 38.2211 103.313 36.7248 102.583L35.848 104.381ZM40.9366 106.074C41.3328 106.118 42.2434 106.281 43.1556 106.504C43.6079 106.615 44.0411 106.736 44.3979 106.859C44.7839 106.991 44.9843 107.093 45.0443 107.136L46.2227 105.52C45.9004 105.285 45.4498 105.105 45.0458 104.966C44.6126 104.818 44.117 104.681 43.6316 104.562C42.6685 104.326 41.6681 104.143 41.158 104.086L40.9366 106.074ZM45.0443 107.136C45.4309 107.418 45.8887 107.584 46.3118 107.69C46.7437 107.799 47.2054 107.862 47.6433 107.903C48.0828 107.945 48.5255 107.966 48.9166 107.985C49.3205 108.004 49.6543 108.019 49.9233 108.046L50.1229 106.056C49.789 106.023 49.393 106.005 49.0111 105.987C48.6165 105.968 48.2176 105.948 47.8308 105.912C47.4423 105.875 47.0928 105.824 46.7998 105.751C46.4981 105.675 46.3173 105.589 46.2227 105.52L45.0443 107.136ZM49.9233 108.046C51.0558 108.16 52.188 108.333 53.3863 108.493C54.567 108.651 55.7873 108.791 57.0116 108.817L57.0552 106.818C55.9455 106.794 54.8146 106.666 53.6507 106.511C52.5044 106.358 51.2984 106.174 50.1229 106.056L49.9233 108.046ZM57.0116 108.817C59.1106 108.863 61.1991 109.15 63.3533 109.435C65.4868 109.718 67.6826 110 69.8965 110V108C67.8334 108 65.7626 107.738 63.6162 107.453C61.4905 107.171 59.2859 106.866 57.0552 106.818L57.0116 108.817ZM69.8965 110H84.0263V108H69.8965V110ZM84.0263 110C87.1317 110 89.6493 109.267 92.0211 108.276C93.1977 107.784 94.3473 107.226 95.5 106.668C96.6602 106.107 97.8306 105.543 99.0875 105.018L98.3165 103.172C97.0023 103.721 95.7858 104.308 94.6289 104.868C93.4644 105.431 92.3665 105.964 91.2503 106.43C89.0365 107.355 86.7875 108 84.0263 108V110ZM99.0875 105.018C100.602 104.385 102.034 103.363 103.348 102.325C104.715 101.245 105.878 100.213 107.069 99.3389L105.885 97.7268C104.679 98.6127 103.337 99.7845 102.107 100.756C100.824 101.77 99.5674 102.65 98.3165 103.172L99.0875 105.018ZM107.069 99.3389C108.257 98.4663 109.449 97.8296 110.725 97.0764C111.978 96.3367 113.263 95.5096 114.457 94.312L113.041 92.8997C112.029 93.9149 110.919 94.6394 109.708 95.3541C108.521 96.0552 107.18 96.7757 105.885 97.7268L107.069 99.3389ZM114.457 94.312C117.63 91.131 120.126 87.7402 122.609 84.1448L120.963 83.0085C118.499 86.5776 116.084 89.849 113.041 92.8997L114.457 94.312ZM122.609 84.1448C123.44 82.9405 124.507 81.3909 125.363 79.7464C126.211 78.1178 126.913 76.2834 126.913 74.5109H124.913C124.913 75.7999 124.387 77.2889 123.589 78.823C122.799 80.3413 121.801 81.7939 120.963 83.0085L122.609 84.1448ZM126.913 74.5109C126.913 72.1764 127.011 69.8394 127.109 67.4757C127.207 65.1189 127.306 62.7356 127.306 60.3431H125.306C125.306 62.6871 125.209 65.0289 125.111 67.3925C125.013 69.7491 124.913 72.1278 124.913 74.5109H126.913ZM127.306 60.3431C127.306 51.7418 127.929 41.9897 123.333 33.8793L121.593 34.8653C125.864 42.4036 125.306 51.4875 125.306 60.3431H127.306ZM123.333 33.8793C122.445 32.3126 122.036 30.4298 121.47 28.3455C120.925 26.3407 120.237 24.1786 118.705 22.4889L117.223 23.8323C118.403 25.134 118.997 26.8703 119.54 28.8697C120.061 30.7896 120.545 33.017 121.593 34.8653L123.333 33.8793ZM118.705 22.4889C116.465 20.0185 113.619 18.1411 111.072 16.3435L109.919 17.9777C112.553 19.8365 115.169 21.5664 117.223 23.8323L118.705 22.4889ZM111.072 16.3435C109.825 15.4643 108.686 14.3253 107.358 13.1436C106.078 12.0049 104.651 10.8581 102.989 10.2259L102.278 12.0953C103.575 12.5886 104.771 13.5192 106.028 14.6379C107.238 15.7135 108.55 17.0118 109.919 17.9777L111.072 16.3435ZM102.989 10.2259C102.059 9.87238 101.153 9.43272 100.217 8.96156C99.2939 8.49698 98.3276 7.99382 97.3401 7.55375L96.526 9.38056C97.4573 9.79556 98.3602 10.2661 99.3173 10.7479C100.261 11.2232 101.245 11.7027 102.278 12.0953L102.989 10.2259ZM97.3401 7.55375C95.9198 6.92079 94.4336 6.53593 93.0256 6.18657C91.5917 5.83077 90.2486 5.51355 88.9758 5.01723L88.2492 6.88058C89.6689 7.43418 91.1558 7.78326 92.544 8.1277C93.9581 8.47858 95.2859 8.82789 96.526 9.38056L97.3401 7.55375ZM88.9758 5.01723C86.5279 4.0627 84.2948 2.77674 81.2461 2.39462L80.9973 4.3791C83.7176 4.72005 85.4719 5.79762 88.2492 6.88058L88.9758 5.01723ZM81.2461 2.39462C80.2647 2.27162 79.2963 2.29465 78.4469 2.29259C77.5699 2.29047 76.7796 2.26359 75.9946 2.08367L75.5478 4.03312C76.5654 4.26636 77.5465 4.29042 78.4421 4.29259C79.3653 4.29482 80.1708 4.2755 80.9973 4.3791L81.2461 2.39462ZM75.9946 2.08367C75.4949 1.96916 74.9811 1.77947 74.3089 1.57112C73.6972 1.38153 72.9662 1.18248 72.2551 1.18248V3.18248C72.6387 3.18248 73.118 3.29587 73.7168 3.48147C74.2552 3.64832 74.952 3.89659 75.5478 4.03312L75.9946 2.08367ZM72.2551 1.18248C71.0528 1.18248 69.8948 0.916936 68.5946 0.616857C67.3274 0.324373 65.9275 0 64.4149 0V2C65.6655 2 66.8504 2.26687 68.1448 2.56562C69.4064 2.85679 70.7868 3.18248 72.2551 3.18248V1.18248ZM25.6133 9.41646C19.9107 12.6755 15.7419 16.1735 12.421 20.4252C9.10645 24.6687 6.67158 29.6187 4.38239 35.7295L6.25528 36.4311C8.50829 30.4169 10.8575 25.6759 13.9971 21.6563C17.1304 17.6449 21.0858 14.3075 26.6057 11.1529L25.6133 9.41646ZM41.0991 5.94204C42.7541 5.41801 47.8877 4.432 53.0382 3.56802C55.5941 3.13929 58.1246 2.74538 60.1852 2.45901C62.2785 2.1681 63.8077 2 64.4149 2V0C63.6406 0 61.9611 0.192976 59.9099 0.478049C57.826 0.767661 55.2763 1.16466 52.7073 1.59558C47.6083 2.45092 42.3147 3.45926 40.4954 4.03534L41.0991 5.94204ZM79.6653 83.2789C81.3702 82.7424 84.728 82.0658 87.6659 80.3972L86.6781 78.6581C83.9865 80.1868 81.0534 80.7454 79.065 81.3712L79.6653 83.2789ZM99.1584 66.2546C100.426 62.8917 101.001 60.0038 101.039 57.0646C101.076 54.1385 100.58 51.2084 99.7643 47.7768L97.8186 48.2394C98.6201 51.6109 99.0733 54.3553 99.0388 57.039C99.0046 59.7097 98.4864 62.3671 97.2869 65.5492L99.1584 66.2546ZM99.7643 47.7768C99.2446 45.5907 99.0412 44.0653 97.8115 41.9037L96.0732 42.8927C97.1259 44.7432 97.2663 45.9164 97.8186 48.2394L99.7643 47.7768ZM97.8115 41.9037C96.8345 40.1864 95.8819 39.186 94.7033 38.0116L93.2916 39.4283C94.4316 40.5643 95.2313 41.4128 96.0732 42.8927L97.8115 41.9037ZM94.7033 38.0116C92.6249 35.9405 90.2212 33.1555 87.2042 31.7315L86.3505 33.5401C88.9624 34.7729 91.0327 37.1774 93.2916 39.4283L94.7033 38.0116ZM87.2042 31.7315C85.4938 30.9242 83.8602 30.2048 82.199 29.3994L81.3265 31.1991C82.9769 31.9992 84.7245 32.7726 86.3505 33.5401L87.2042 31.7315ZM82.1989 29.3994C81.3791 29.002 80.3938 28.5774 79.3423 28.461L79.1222 30.4488C79.8132 30.5253 80.5388 30.8173 81.3265 31.1991L82.1989 29.3994ZM79.3423 28.461C79.158 28.4406 78.6948 28.3593 78.2217 28.2441C77.989 28.1874 77.7731 28.1271 77.6013 28.0687C77.4001 28.0002 77.3519 27.9645 77.3814 27.9859L76.2078 29.6053C76.4404 29.7739 76.7382 29.8876 76.957 29.962C77.205 30.0464 77.4829 30.1226 77.7485 30.1873C78.2722 30.3148 78.8247 30.4159 79.1222 30.4488L79.3423 28.461ZM77.3814 27.9859C77.1076 27.7875 76.7998 27.6816 76.5469 27.6184C76.2852 27.553 76.0139 27.5169 75.7697 27.494C75.5239 27.471 75.2784 27.4592 75.0714 27.4495C74.8516 27.4391 74.6885 27.4316 74.5606 27.4188L74.3622 29.409C74.5547 29.4281 74.7796 29.4379 74.9774 29.4472C75.188 29.4571 75.3899 29.4672 75.5833 29.4853C75.7784 29.5036 75.9382 29.5278 76.0617 29.5587C76.1942 29.5918 76.2258 29.6184 76.2078 29.6053L77.3814 27.9859ZM74.5606 27.4188C73.9686 27.3598 73.3839 27.2704 72.7349 27.1844C72.1034 27.1007 71.4342 27.024 70.7569 27.0093L70.7136 29.0088C71.2769 29.021 71.8574 29.0856 72.4722 29.1671C73.0694 29.2462 73.7275 29.3457 74.3622 29.409L74.5606 27.4188ZM70.7569 27.0093C69.6717 26.9858 68.5884 26.8384 67.4369 26.6866C66.3059 26.5376 65.1099 26.3845 63.8983 26.3845V28.3845C64.96 28.3845 66.0318 28.5187 67.1756 28.6695C68.2989 28.8175 69.4975 28.9825 70.7136 29.0088L70.7569 27.0093ZM63.8983 26.3845H56.388V28.3845H63.8983V26.3845ZM56.388 26.3845C54.6578 26.3845 53.2575 26.7922 51.96 27.3308C51.3206 27.5962 50.6976 27.8973 50.0876 28.1906C49.4702 28.4875 48.8588 28.78 48.2041 29.0519L48.971 30.899C49.6829 30.6034 50.3402 30.2883 50.9543 29.993C51.576 29.6941 52.1475 29.4184 52.7268 29.1779C53.8667 28.7048 54.9999 28.3845 56.388 28.3845V26.3845ZM48.2041 29.0519C47.338 29.4114 46.5354 29.9844 45.8303 30.5381C45.071 31.1344 44.4945 31.6466 43.8656 32.1056L45.0446 33.7212C45.6895 33.2505 46.4444 32.5988 47.0655 32.1111C47.7407 31.5808 48.3674 31.1496 48.971 30.899L48.2041 29.0519ZM43.8656 32.1056C43.2591 32.5483 42.6601 32.8651 41.9613 33.2751C41.2856 33.6715 40.5615 34.1323 39.8838 34.8076L41.2956 36.2243C41.7909 35.7307 42.3395 35.3719 42.9733 35.0001C43.5839 34.6419 44.3312 34.2418 45.0446 33.7212L43.8656 32.1056ZM39.8838 34.8076C38.1669 36.5184 36.8205 38.3376 35.4968 40.243L37.1393 41.3841C38.4448 39.505 39.7091 37.8051 41.2956 36.2243L39.8838 34.8076ZM35.4968 40.2429C35.0565 40.8766 34.473 41.7181 34.0023 42.6166C33.5401 43.4991 33.1241 44.5504 33.1241 45.6022H35.1241C35.1241 45.0368 35.3613 44.3327 35.774 43.5446C36.1784 42.7725 36.6918 42.0281 37.1393 41.3841L35.4968 40.2429ZM33.1241 45.6022C33.1241 46.8237 33.0729 48.0482 33.0205 49.2984C32.9685 50.5417 32.9152 51.8105 32.9152 53.0859H34.9152C34.9152 51.8593 34.9664 50.6323 35.0188 49.3822C35.0709 48.139 35.1241 46.8726 35.1241 45.6022H33.1241ZM32.9152 53.0859C32.9152 57.5687 32.5691 62.8794 35.0895 67.2995L36.8269 66.3088C34.634 62.463 34.9152 57.8241 34.9152 53.0859H32.9152ZM35.0895 67.2995C35.5232 68.0602 35.7227 68.9728 36.0343 70.1128C36.3242 71.1734 36.713 72.4164 37.6106 73.4003L39.0881 72.0524C38.5443 71.4562 38.2517 70.64 37.9635 69.5855C37.697 68.6104 37.4217 67.3519 36.8269 66.3088L35.0895 67.2995ZM37.6106 73.4003C38.8448 74.7531 40.4115 75.7793 41.7451 76.7144L42.8934 75.0769C41.4727 74.0807 40.1364 73.2013 39.0881 72.0524L37.6106 73.4003ZM41.7451 76.7144C42.3787 77.1587 42.9436 77.723 43.6777 78.372C44.3635 78.9784 45.176 79.6343 46.1445 80.0004L46.8517 78.1295C46.2473 77.9011 45.6653 77.4597 45.0024 76.8736C44.3878 76.3303 43.6497 75.6072 42.8934 75.0769L41.7451 76.7144ZM46.1445 80.0004C46.6147 80.1781 47.0785 80.4011 47.574 80.649C48.0565 80.8904 48.5848 81.1637 49.1228 81.402L49.9327 79.5733C49.4508 79.3599 48.9856 79.1189 48.4689 78.8604C47.9652 78.6084 47.4241 78.3459 46.8517 78.1295L46.1445 80.0004ZM49.1228 81.402C49.9196 81.7549 50.7463 81.9664 51.4932 82.1506C52.266 82.3411 52.9466 82.5013 53.589 82.7503L54.3117 80.8854C53.523 80.5798 52.6993 80.388 51.9721 80.2087C51.219 80.023 50.55 79.8467 49.9327 79.5733L49.1228 81.402ZM53.589 82.7503C54.8137 83.2249 56.1117 83.9522 57.8082 84.1635L58.0554 82.1788C56.6856 82.0082 55.8642 81.487 54.3117 80.8854L53.589 82.7503ZM57.8082 84.1635C58.3657 84.2329 58.918 84.2199 59.3524 84.221C59.8143 84.2221 60.1902 84.2369 60.5537 84.3197L60.9978 82.3696C60.4031 82.2342 59.8375 82.2221 59.3572 82.221C58.8494 82.2197 58.4589 82.2291 58.0554 82.1788L57.8082 84.1635ZM60.5537 84.3197C60.797 84.3751 61.0276 84.4618 61.4159 84.5814C61.7441 84.6825 62.1909 84.8073 62.6446 84.8073V82.8073C62.5165 82.8073 62.3199 82.7671 62.0047 82.67C61.7496 82.5915 61.3367 82.4468 60.9978 82.3696L60.5537 84.3197ZM62.6446 84.8073C63.2222 84.8073 63.7862 84.9338 64.4862 85.0943C65.1535 85.2474 65.9473 85.4319 66.8118 85.4319V83.4319C66.2077 83.4319 65.6276 83.3042 64.9333 83.1449C64.2717 82.9932 63.4865 82.8073 62.6446 82.8073V84.8073ZM87.6659 80.3972C90.7395 78.6515 93.0055 76.7664 94.8151 74.464C96.6183 72.1697 97.9329 69.5056 99.1584 66.2546L97.2869 65.5492C96.0981 68.7029 94.8699 71.1577 93.2426 73.2281C91.6217 75.2905 89.5695 77.0159 86.6781 78.6581L87.6659 80.3972ZM79.065 81.3712C78.2234 81.636 75.5318 82.1517 72.7823 82.61C71.4268 82.836 70.0862 83.0433 68.9964 83.1939C67.874 83.3489 67.0959 83.4319 66.8118 83.4319V85.4319C67.2621 85.4319 68.1894 85.3243 69.27 85.1751C70.383 85.0213 71.7427 84.8109 73.1112 84.5828C75.8095 84.133 78.6602 83.5952 79.6653 83.2789L79.065 81.3712ZM139.203 25.6671C140.009 25.6671 140.823 26.1655 141.821 27.0441C142.334 27.4954 142.747 27.9059 143.289 28.3972C143.787 28.8483 144.332 29.3078 144.915 29.6518L145.931 27.9291C145.53 27.6926 145.108 27.3465 144.633 26.9156C144.202 26.5249 143.636 25.9771 143.143 25.5427C142.128 24.6498 140.816 23.6671 139.203 23.6671V25.6671ZM144.915 29.6518C145.954 30.2648 146.889 31.0219 147.942 31.8257C148.97 32.6097 150.089 33.4202 151.392 34.0005L152.206 32.1737C151.132 31.6952 150.169 31.0093 149.155 30.2357C148.168 29.4819 147.102 28.6201 145.931 27.9291L144.915 29.6518ZM151.392 34.0005C152.008 34.2751 152.536 34.7016 153.133 35.2362C153.699 35.7428 154.368 36.3897 155.145 36.8902L156.228 35.2092C155.623 34.8192 155.116 34.3271 154.468 33.7463C153.85 33.1934 153.126 32.5838 152.206 32.1737L151.392 34.0005ZM155.145 36.8902C155.728 37.2663 156.352 37.8124 156.621 38.2709L158.346 37.2589C157.842 36.3997 156.908 35.6476 156.228 35.2092L155.145 36.8902ZM156.621 38.2709C156.689 38.3874 156.789 38.5389 156.931 38.6702C157.07 38.7986 157.366 39.0118 157.788 38.9792C158.206 38.947 158.459 38.6956 158.565 38.5672C158.675 38.4341 158.741 38.2963 158.776 38.2202C158.829 38.1028 158.92 37.85 158.93 37.8235C158.978 37.7011 158.976 37.7487 158.902 37.8269L157.447 36.4556C157.231 36.6845 157.118 36.9661 157.07 37.0897C157.04 37.1647 157.011 37.2461 156.993 37.2947C156.971 37.3543 156.96 37.3818 156.953 37.3962C156.943 37.4195 156.963 37.3664 157.022 37.2943C157.078 37.2269 157.277 37.0127 157.634 36.9851C157.996 36.9572 158.225 37.1425 158.289 37.2014C158.356 37.2633 158.372 37.3038 158.346 37.2589L156.621 38.2709ZM158.902 37.8269C159.154 37.5595 159.41 37.271 159.66 36.9872C159.914 36.6995 160.165 36.4153 160.42 36.1382C160.936 35.5789 161.432 35.0961 161.924 34.7548L160.783 33.1118C160.108 33.5809 159.493 34.194 158.95 34.7821C158.677 35.0786 158.411 35.381 158.161 35.6634C157.908 35.9497 157.673 36.215 157.447 36.4556L158.902 37.8269ZM161.924 34.7548C162.493 34.3601 163.006 33.8739 163.414 33.5187C163.852 33.1375 164.227 32.8505 164.646 32.6637L163.832 30.8369C163.13 31.1498 162.571 31.601 162.101 32.0098C161.602 32.4444 161.233 32.7999 160.783 33.1118L161.924 34.7548ZM164.646 32.6637C165.84 32.132 166.989 31.4889 168.1 30.8437C169.225 30.1903 170.295 29.5444 171.395 28.9606L170.457 27.1941C169.313 27.8016 168.182 28.4833 167.095 29.1142C165.995 29.7532 164.923 30.351 163.832 30.8369L164.646 32.6637ZM171.395 28.9606C172.415 28.419 173.584 28.0707 174.871 27.6889C176.12 27.3186 177.487 26.9149 178.71 26.2546L177.76 24.4947C176.751 25.0395 175.588 25.3901 174.303 25.7714C173.056 26.1411 171.686 26.5416 170.457 27.1941L171.395 28.9606ZM178.71 26.2546C178.979 26.1093 179.351 26.0738 180.011 26.0464C180.553 26.024 181.418 26.0111 182.143 25.6072L181.169 23.86C180.942 23.987 180.604 24.0201 179.928 24.0482C179.37 24.0713 178.508 24.0909 177.76 24.4947L178.71 26.2546ZM182.143 25.6072C182.141 25.6084 182.149 25.6038 182.171 25.5949C182.192 25.5862 182.222 25.5755 182.262 25.5633C182.342 25.5386 182.447 25.513 182.574 25.4879C182.831 25.4375 183.142 25.3972 183.475 25.3654C184.14 25.3019 184.82 25.2793 185.201 25.2651L185.127 23.2665C184.757 23.2802 184.018 23.3045 183.285 23.3745C182.919 23.4094 182.536 23.4574 182.189 23.5254C181.867 23.5886 181.481 23.6862 181.169 23.86L182.143 25.6072ZM185.201 25.2651C186.368 25.2218 187.486 25.0573 188.53 24.9139C189.592 24.768 190.589 24.6421 191.609 24.6421V22.6421C190.437 22.6421 189.318 22.787 188.258 22.9324C187.181 23.0803 186.173 23.2277 185.127 23.2665L185.201 25.2651ZM191.609 24.6421C194.7 24.6421 196.66 24.3655 199.328 25.1362L199.883 23.2148C196.858 22.3409 194.445 22.6421 191.609 22.6421V24.6421ZM199.328 25.1362C200.176 25.3813 201.062 25.5474 201.919 25.6963C202.792 25.848 203.624 25.9802 204.441 26.1613C206.069 26.5223 207.453 27.0424 208.498 28.0906L209.914 26.6783C208.465 25.2252 206.631 24.5982 204.874 24.2087C203.998 24.0146 203.095 23.8707 202.261 23.7258C201.411 23.5781 200.618 23.4271 199.883 23.2148L199.328 25.1362ZM208.498 28.0906C208.987 28.5807 209.661 29.0965 210.218 29.545C210.818 30.0292 211.311 30.4557 211.616 30.8497L213.197 29.6239C212.729 29.0206 212.059 28.4605 211.472 27.9877C210.842 27.4792 210.302 27.0675 209.914 26.6783L208.498 28.0906ZM211.616 30.8497C211.615 30.8486 211.622 30.8576 211.635 30.8812C211.648 30.9044 211.664 30.9373 211.683 30.9813C211.72 31.0709 211.759 31.1892 211.798 31.3374C211.877 31.6352 211.941 32.0029 211.99 32.4024C212.088 33.2003 212.118 34.0384 212.118 34.5154H214.118C214.118 33.9793 214.085 33.0569 213.975 32.1582C213.92 31.7094 213.842 31.2448 213.732 30.8277C213.63 30.4373 213.471 29.9774 213.197 29.6239L211.616 30.8497ZM212.118 34.5154C212.118 35.6195 211.595 36.4911 210.7 37.3475C210.248 37.7798 209.722 38.1883 209.148 38.6081C208.595 39.0129 207.962 39.454 207.398 39.8892L208.621 41.4721C209.161 41.0551 209.718 40.6698 210.33 40.2217C210.921 39.7887 211.534 39.318 212.083 38.7925C213.19 37.7333 214.118 36.3745 214.118 34.5154H212.118ZM207.398 39.8892C205.515 41.3435 202.953 41.9497 201.577 42.3485L202.133 44.2695C203.349 43.9174 206.364 43.2145 208.621 41.4721L207.398 39.8892ZM201.577 42.3485C200.193 42.7491 199.059 42.6901 197.743 42.6901V44.6901C198.958 44.6901 200.417 44.7664 202.133 44.2695L201.577 42.3485ZM197.743 42.6901C194.064 42.6901 191.04 42.5941 186.799 42.6181L186.811 44.6181C191.113 44.5937 193.922 44.6901 197.743 44.6901V42.6901ZM186.799 42.6181C184.883 42.629 183.266 42.4485 181.562 42.3702C179.904 42.2939 178.254 42.3246 176.563 42.827L177.132 44.7442C178.502 44.3373 179.886 44.2952 181.47 44.3681C183.007 44.4388 184.838 44.6292 186.811 44.6181L186.799 42.6181ZM176.563 42.827C176.284 42.9098 175.993 42.9566 175.655 43.0094C175.354 43.0564 174.947 43.1161 174.593 43.2429C174.213 43.3789 173.751 43.6401 173.488 44.1798C173.24 44.6879 173.264 45.2531 173.382 45.7847L175.335 45.352C175.261 45.0172 175.323 44.9788 175.286 45.0557C175.233 45.1642 175.153 45.1667 175.266 45.1261C175.406 45.0763 175.605 45.0414 175.963 44.9855C176.284 44.9355 176.705 44.8712 177.132 44.7442L176.563 42.827ZM173.382 45.7847C173.579 46.6705 173.805 47.9936 173.94 49.3178C174.078 50.6684 174.11 51.9129 173.968 52.6941L175.936 53.0509C176.131 51.9737 176.071 50.4896 175.93 49.1144C175.787 47.7127 175.548 46.3129 175.335 45.352L173.382 45.7847ZM173.968 52.6941C173.46 55.4956 173.658 58.5038 173.658 61.1713H175.658C175.658 58.3109 175.471 55.6177 175.936 53.0509L173.968 52.6941ZM173.658 61.1713C173.658 61.4047 173.628 61.6829 173.596 62.0618C173.568 62.3937 173.537 62.825 173.581 63.2103C173.619 63.5341 173.755 64.2458 174.451 64.5672C175.1 64.8669 175.771 64.5989 176.222 64.3555L175.272 62.5956C175.113 62.6813 175.038 62.7 175.028 62.702C175.023 62.7029 175.136 62.6803 175.29 62.7515C175.624 62.9061 175.594 63.2019 175.568 62.981C175.55 62.8216 175.56 62.5796 175.589 62.2299C175.615 61.9271 175.658 61.5155 175.658 61.1713H173.658ZM176.222 64.3555C176.282 64.3232 176.506 64.2561 176.982 64.2279C177.418 64.202 177.944 64.2139 178.507 64.2435C179.071 64.2731 179.627 64.3176 180.153 64.3531C180.651 64.3867 181.154 64.4148 181.526 64.3941L181.415 62.3972C181.187 62.4099 180.809 62.3928 180.288 62.3576C179.796 62.3245 179.195 62.2769 178.612 62.2462C178.026 62.2155 177.412 62.1989 176.863 62.2315C176.352 62.2618 175.745 62.3402 175.272 62.5956L176.222 64.3555ZM181.526 64.3941C184.635 64.2209 186.064 64.0936 188.961 64.0248L188.914 62.0254C185.974 62.0952 184.48 62.2265 181.415 62.3972L181.526 64.3941ZM188.961 64.0248C191.631 63.9614 193.487 64.0251 195.807 64.0251V62.0251C193.563 62.0251 191.609 61.9614 188.914 62.0254L188.961 64.0248ZM195.807 64.0251C198.122 64.0251 200.035 64.3084 202.735 64.9348L203.187 62.9865C200.397 62.339 198.324 62.0251 195.807 62.0251V64.0251ZM202.735 64.9348C203.871 65.1985 204.956 65.3781 205.946 65.5503C206.95 65.7248 207.852 65.8911 208.692 66.1302C210.332 66.5966 211.707 67.3305 212.909 68.9279L214.507 67.7253C212.981 65.6983 211.189 64.7611 209.239 64.2066C208.286 63.9352 207.288 63.7537 206.289 63.5799C205.276 63.4038 204.256 63.2347 203.187 62.9865L202.735 64.9348ZM212.909 68.9279C213.785 70.0925 214.51 71.3853 214.911 72.5892C215.321 73.8188 215.344 74.8026 215.048 75.4696L216.877 76.28C217.466 74.9508 217.286 73.3886 216.809 71.9572C216.324 70.5001 215.479 69.0169 214.507 67.7253L212.909 68.9279ZM214.996 75.6178C214.294 78.2566 212.888 79.8417 211.004 81.0473C209.046 82.2998 206.642 83.1099 203.859 84.2157L204.597 86.0744C207.224 85.0305 209.912 84.1199 212.081 82.7319C214.324 81.297 216.08 79.3218 216.929 76.1319L214.996 75.6178ZM203.859 84.2157C199.514 85.942 195.598 85.726 191.453 85.726V87.726C195.47 87.726 199.821 87.9722 204.597 86.0744L203.859 84.2157ZM191.453 85.726C189.787 85.726 188.305 85.5411 186.768 85.3361C185.241 85.1324 183.649 84.9072 181.853 84.8585L181.799 86.8578C183.47 86.903 184.953 87.1117 186.503 87.3185C188.044 87.5239 189.642 87.726 191.453 87.726V85.726ZM181.853 84.8585C178.72 84.7736 176.484 83.727 173.22 82.76L172.652 84.6777C175.621 85.5572 178.316 86.7634 181.799 86.8578L181.853 84.8585ZM173.22 82.76C172.402 82.5176 171.276 81.8676 170.017 81.1083C168.843 80.4006 167.529 79.5808 166.523 79.2139L165.837 81.0929C166.611 81.3751 167.708 82.0515 168.984 82.821C170.175 83.539 171.537 84.3472 172.652 84.6777L173.22 82.76ZM166.523 79.2139C163.289 78.0349 161.623 76.508 159.496 73.8271L157.929 75.0701C160.198 77.9297 162.145 79.7465 165.837 81.0929L166.523 79.2139ZM159.496 73.8271C159.334 73.6226 159.182 73.3925 158.985 73.1066C158.804 72.8441 158.582 72.5302 158.329 72.263C158.079 71.9995 157.721 71.697 157.24 71.5664C156.713 71.4236 156.19 71.525 155.716 71.8046L156.732 73.5272C156.817 73.4768 156.789 73.5165 156.716 73.4966C156.688 73.489 156.74 73.4941 156.878 73.6393C157.012 73.7807 157.155 73.9765 157.337 74.241C157.504 74.4822 157.712 74.7965 157.929 75.0701L159.496 73.8271ZM155.716 71.8046C155.088 72.1748 154.167 72.6626 153.413 73.3562L154.767 74.8279C155.321 74.3179 155.988 73.966 156.732 73.5272L155.716 71.8046ZM153.413 73.3562C151.678 74.9529 149.007 76.3676 148.054 76.7195L148.747 78.5956C149.913 78.1651 152.817 76.6229 154.767 74.8279L153.413 73.3562ZM148.054 76.7195C145.878 77.5235 143.791 79.2371 142.135 80.4059L143.288 82.0401C145.147 80.728 146.895 79.2799 148.747 78.5956L148.054 76.7195ZM142.135 80.4059C141.532 80.8314 140.967 81.1753 140.339 81.5864C139.73 81.9855 139.103 82.4227 138.488 82.9745L139.823 84.4632C140.327 84.0111 140.857 83.6383 141.435 83.2595C141.995 82.8926 142.649 82.4906 143.288 82.0401L142.135 80.4059ZM138.488 82.9745C138.128 83.2968 137.82 83.5194 137.475 83.7977C137.193 84.025 136.778 84.3686 136.559 84.8343C136.434 85.1004 136.371 85.405 136.41 85.735C136.447 86.0523 136.571 86.3323 136.724 86.5731C137.015 87.03 137.502 87.482 138.121 87.965L139.351 86.3879C138.764 85.9301 138.508 85.6518 138.411 85.4994C138.371 85.4355 138.389 85.4412 138.396 85.5031C138.405 85.5778 138.388 85.6461 138.37 85.6838C138.366 85.6927 138.412 85.6108 138.73 85.3546C138.985 85.1493 139.414 84.8302 139.823 84.4632L138.488 82.9745ZM138.121 87.965C139.087 88.7183 140.488 90.0442 141.674 91.212C142.261 91.7899 142.785 92.319 143.163 92.7036C143.351 92.8959 143.503 93.0518 143.608 93.1595C143.66 93.2133 143.7 93.2551 143.727 93.2832C143.741 93.2973 143.751 93.308 143.758 93.3151C143.762 93.3186 143.764 93.3213 143.766 93.323C143.767 93.3239 143.767 93.3245 143.768 93.3249C143.768 93.3251 143.768 93.3253 143.768 93.3254C143.768 93.3254 143.768 93.3254 143.768 93.3254C143.768 93.3255 143.768 93.3254 144.489 92.6325C145.21 91.9396 145.21 91.9396 145.21 91.9395C145.21 91.9395 145.21 91.9394 145.21 91.9393C145.21 91.9392 145.21 91.939 145.209 91.9387C145.209 91.9382 145.208 91.9374 145.207 91.9364C145.205 91.9344 145.202 91.9315 145.199 91.9277C145.191 91.92 145.18 91.9088 145.166 91.8941C145.138 91.8648 145.097 91.8219 145.043 91.7668C144.936 91.6567 144.782 91.4979 144.59 91.3026C144.207 90.9121 143.674 90.3747 143.077 89.7868C141.895 88.6232 140.419 87.221 139.351 86.3879L138.121 87.965ZM144.489 92.6325C143.791 93.3489 143.791 93.349 143.792 93.349C143.792 93.3491 143.792 93.3492 143.792 93.3493C143.792 93.3495 143.792 93.3497 143.793 93.35C143.793 93.3506 143.794 93.3514 143.795 93.3524C143.797 93.3545 143.8 93.3574 143.804 93.3611C143.812 93.3685 143.823 93.3792 143.837 93.3929C143.866 93.4205 143.907 93.4604 143.961 93.5112C144.067 93.6127 144.221 93.7575 144.412 93.9333C144.793 94.2843 145.324 94.7611 145.922 95.2627C146.519 95.7628 147.192 96.2958 147.856 96.7551C148.506 97.2051 149.204 97.6242 149.841 97.8525L150.516 95.9696C150.128 95.8308 149.602 95.5315 148.994 95.1104C148.398 94.6987 147.777 94.2079 147.207 93.7302C146.64 93.2539 146.133 92.7987 145.767 92.4623C145.585 92.2943 145.439 92.1565 145.338 92.0613C145.288 92.0137 145.25 91.9768 145.224 91.9521C145.211 91.9397 145.202 91.9304 145.195 91.9244C145.192 91.9213 145.19 91.9191 145.189 91.9177C145.188 91.9171 145.187 91.9166 145.187 91.9163C145.187 91.9162 145.187 91.9161 145.187 91.9161C145.187 91.9161 145.187 91.9161 145.187 91.9161C145.187 91.9161 145.187 91.9162 144.489 92.6325ZM149.841 97.8525C150.572 98.1143 151.639 98.7614 153.068 99.5758C154.432 100.353 156.041 101.226 157.682 101.781L158.321 99.8857C156.879 99.3986 155.415 98.6115 154.058 97.8381C152.766 97.102 151.463 96.3087 150.516 95.9696L149.841 97.8525ZM157.682 101.781C165.413 104.391 166.281 104.303 172.573 106.756L173.299 104.893C166.982 102.43 165.837 102.424 158.321 99.8857L157.682 101.781ZM172.573 106.756C173.623 107.166 175.277 107.521 177.113 107.823C178.973 108.129 181.101 108.394 183.147 108.602L183.35 106.613C181.33 106.407 179.245 106.147 177.438 105.85C175.606 105.548 174.136 105.219 173.299 104.893L172.573 106.756ZM183.147 108.602C187.394 109.036 190.576 108.932 194.01 108.932V106.932C190.519 106.932 187.469 107.033 183.35 106.613L183.147 108.602ZM194.01 108.932H204.136V106.932H194.01V108.932ZM204.136 108.932C211.652 108.932 218.29 107.224 224.878 103.832L223.963 102.054C217.643 105.308 211.317 106.932 204.136 106.932V108.932ZM224.878 103.832C226.6 102.945 228.528 102.19 230.549 101.28C232.52 100.392 234.522 99.3799 236.154 98.0407L234.885 96.4945C233.468 97.6575 231.669 98.5821 229.728 99.4562C227.836 100.308 225.74 101.139 223.963 102.054L224.878 103.832ZM236.154 98.0407C236.532 97.7306 237.06 97.342 237.706 96.8563C238.34 96.3801 239.063 95.8288 239.784 95.2247C241.201 94.0372 242.718 92.5612 243.526 90.9395L241.736 90.047C241.123 91.2776 239.883 92.5329 238.5 93.6916C237.821 94.2605 237.132 94.7859 236.505 95.2573C235.89 95.7191 235.307 96.1487 234.885 96.4945L236.154 98.0407ZM235.423 57.6155C233.705 56.275 232.293 55.7011 230.941 55.2789C229.583 54.8548 228.476 54.6263 227.068 53.9398L226.192 55.7373C227.78 56.5122 229.162 56.8186 230.344 57.1879C231.533 57.5591 232.712 58.0372 234.193 59.1926L235.423 57.6155ZM227.068 53.9398C226.028 53.4321 224.701 53.1213 223.423 52.9336C222.131 52.7437 220.816 52.6697 219.755 52.6697V54.6697C220.733 54.6697 221.95 54.7386 223.133 54.9123C224.33 55.0883 225.422 55.3619 226.192 55.7373L227.068 53.9398ZM228.685 52.4024C230.453 51.7209 231.904 50.743 233.225 49.7839C234.574 48.8048 235.74 47.884 237.066 47.1588L236.107 45.4041C234.634 46.2094 233.312 47.2496 232.05 48.1654C230.761 49.1012 229.481 49.9519 227.966 50.5364L228.685 52.4024ZM237.066 47.1588C240.531 45.264 242.368 41.9737 243.478 38.635L241.58 38.0041C240.543 41.1221 238.935 43.857 236.107 45.4041L237.066 47.1588ZM243.478 38.635C244.325 36.0874 244.393 33.0816 244.393 30.5925H242.393C242.393 33.1047 242.311 35.8033 241.58 38.0041L243.478 38.635ZM244.393 30.5925C244.393 28.4679 244.582 25.956 244.075 23.6713L242.123 24.104C242.566 26.1055 242.393 28.2406 242.393 30.5925H244.393ZM244.075 23.6713C243.544 21.2751 241.811 18.8585 240.213 17.2563L238.797 18.6686C240.265 20.1406 241.708 22.2322 242.123 24.104L244.075 23.6713ZM240.213 17.2563C236.517 13.5505 232.163 10.4335 227.293 8.29742L226.49 10.1289C231.106 12.1541 235.258 15.1198 238.797 18.6686L240.213 17.2563ZM227.293 8.29742C226.219 7.82612 225.377 7.35765 224.453 6.86692C223.533 6.37809 222.559 5.88314 221.289 5.41092L220.592 7.28548C221.739 7.7122 222.623 8.15946 223.515 8.63324C224.404 9.10512 225.329 9.61966 226.49 10.1289L227.293 8.29742ZM221.289 5.41092C219.925 4.90346 218.77 4.68245 217.708 4.47489C216.643 4.26697 215.673 4.07295 214.548 3.63391L213.821 5.49703C215.13 6.00802 216.259 6.2297 217.324 6.4378C218.392 6.64627 219.398 6.8416 220.592 7.28548L221.289 5.41092ZM214.548 3.63391C210.176 1.92739 205.96 1.78273 202.806 1.78273V3.78273C205.906 3.78273 209.811 3.93184 213.821 5.49703L214.548 3.63391ZM202.806 1.78273C200.514 1.78273 198.193 1.64264 195.829 1.50008C193.476 1.35814 191.08 1.21379 188.689 1.21379V3.21379C191.01 3.21379 193.346 3.35391 195.709 3.49645C198.062 3.63835 200.444 3.78273 202.806 3.78273V1.78273ZM188.689 1.21379C184.284 1.21379 180.162 1.35702 175.774 2.00412L176.065 3.98273C180.315 3.35617 184.326 3.21379 188.689 3.21379V1.21379ZM175.774 2.00412C174.752 2.15476 173.634 2.20156 172.32 2.33974C171.09 2.46924 169.756 2.67683 168.651 3.17251L169.469 4.99732C170.263 4.64109 171.323 4.45567 172.53 4.32877C173.653 4.21055 175.015 4.13756 176.065 3.98273L175.774 2.00412ZM168.651 3.17251C167.195 3.8253 165.951 4.36045 164.53 5.15174L165.503 6.89894C166.83 6.15979 167.981 5.66485 169.469 4.99732L168.651 3.17251ZM164.53 5.15174C163.247 5.86645 161.993 6.53825 160.681 6.94033L161.267 8.85259C162.806 8.3809 164.229 7.60866 165.503 6.89894L164.53 5.15174ZM160.681 6.94033C159.642 7.25848 158.752 7.71797 157.935 8.16482C157.099 8.62257 156.368 9.0499 155.538 9.40112L156.318 11.2429C157.267 10.8411 158.122 10.3425 158.896 9.91924C159.689 9.48504 160.432 9.10827 161.267 8.85259L160.681 6.94033ZM155.538 9.40112C154.672 9.76801 153.919 10.2298 153.222 10.6908C152.501 11.168 151.894 11.6063 151.194 12.031L152.231 13.7412C152.972 13.2915 153.691 12.7791 154.326 12.3584C154.986 11.9216 155.62 11.5385 156.318 11.2429L155.538 9.40112ZM151.194 12.031C149.838 12.8529 148.43 13.6871 147.203 14.9174L148.619 16.3297C149.644 15.3023 150.831 14.5897 152.231 13.7412L151.194 12.031ZM147.203 14.9174C145.971 16.1526 144.427 17.9002 142.906 19.5603C141.36 21.2482 139.833 22.8515 138.566 23.8955L139.839 25.4386C141.228 24.2934 142.843 22.5902 144.381 20.9112C145.944 19.2045 147.427 17.5249 148.619 16.3297L147.203 14.9174ZM227.966 50.5364C226.395 51.142 224.311 51.6793 222.589 52.0689C221.734 52.2623 220.98 52.4167 220.44 52.5226C220.17 52.5756 219.955 52.6164 219.807 52.6439C219.733 52.6576 219.676 52.668 219.638 52.6749C219.618 52.6783 219.604 52.6809 219.595 52.6826C219.59 52.6834 219.587 52.684 219.584 52.6844C219.583 52.6846 219.582 52.6848 219.582 52.6849C219.582 52.6849 219.581 52.6849 219.581 52.6849C219.581 52.6849 219.581 52.6849 219.581 52.685C219.581 52.6849 219.581 52.6849 219.755 53.6697C219.929 54.6544 219.93 54.6544 219.93 54.6544C219.93 54.6544 219.93 54.6544 219.93 54.6543C219.93 54.6543 219.93 54.6542 219.931 54.6542C219.932 54.654 219.933 54.6538 219.934 54.6536C219.937 54.6531 219.941 54.6523 219.947 54.6514C219.957 54.6494 219.973 54.6466 219.994 54.6429C220.035 54.6355 220.094 54.6246 220.171 54.6103C220.326 54.5817 220.548 54.5396 220.826 54.4852C221.38 54.3764 222.153 54.2181 223.03 54.0196C224.772 53.6256 226.973 53.0627 228.685 52.4024L227.966 50.5364ZM246.04 67.6378C245.702 66.8462 245.022 65.9834 244.242 65.1437C243.441 64.2832 242.457 63.3662 241.422 62.4637C239.352 60.6589 237.016 58.8573 235.423 57.6155L234.193 59.1926C235.801 60.4466 238.088 62.2104 240.107 63.9711C241.117 64.8513 242.044 65.7171 242.777 66.5056C243.529 67.3149 244.006 67.9674 244.201 68.4238L246.04 67.6378ZM247.898 76.9445C247.898 74.5759 247.717 72.8912 247.383 71.4587C247.051 70.0279 246.574 68.8871 246.04 67.6378L244.201 68.4238C244.734 69.6703 245.146 70.6688 245.436 71.912C245.724 73.1537 245.898 74.678 245.898 76.9445H247.898ZM245.898 76.9445C245.898 79.0871 245.234 81.6308 244.358 84.0464C243.489 86.4445 242.441 88.6333 241.736 90.047L243.526 90.9395C244.244 89.5008 245.33 87.2327 246.238 84.7283C247.14 82.2415 247.898 79.4369 247.898 76.9445H245.898Z" fill="#111010"/>
</svg>
