<svg width="196" height="110" viewBox="0 0 196 110" fill="none" xmlns="http://www.w3.org/2000/svg">
<path d="M136.548 22.9703L135.746 22.3727C135.617 22.5454 135.548 22.7549 135.548 22.9703H136.548ZM136.199 34.9675L137.169 35.209L137.169 35.209L136.199 34.9675ZM136.548 45.9249L136.607 44.9266L136.548 45.9249ZM146.842 42.7676L146.435 41.8545L146.435 41.8545L146.842 42.7676ZM165.939 35.0843V34.0843C165.808 34.0843 165.679 34.1098 165.558 34.1594L165.939 35.0843ZM165.861 39.6028L166.854 39.7177L166.854 39.7177L165.861 39.6028ZM165.175 57.3259H164.175C164.175 57.351 164.176 57.3762 164.178 57.4013L165.175 57.3259ZM165.885 66.7133H166.885C166.885 66.6881 166.884 66.663 166.882 66.6379L165.885 66.7133ZM167.267 104.555L168.228 104.281L168.228 104.281L167.267 104.555ZM168.604 104.662L168.56 105.661L168.56 105.661L168.604 104.662ZM174.159 104.738L174.035 105.73L174.035 105.73L174.159 104.738ZM194.826 104.091L195.143 105.039C195.551 104.902 195.826 104.521 195.826 104.091H194.826ZM194.438 78.1845L193.442 78.2731L193.442 78.2731L194.438 78.1845ZM194.651 59.176L193.651 59.1693L193.651 59.1693L194.651 59.176ZM195 31.7149L196 31.7171L196 31.7171L195 31.7149ZM194.477 26.4759L193.48 26.5637L193.48 26.5637L194.477 26.4759ZM193.604 5.26656L193.531 6.26389C193.555 6.26567 193.58 6.26656 193.604 6.26656V5.26656ZM139.611 22.347L139.882 23.3097L139.882 23.3097L139.611 22.347ZM145.543 19.5035L145.099 18.6079L145.099 18.6079L145.543 19.5035ZM154.529 15.5207L154.067 14.6341L154.067 14.6341L154.529 15.5207ZM159.405 13.2907L158.963 12.3937L158.963 12.3937L159.405 13.2907ZM173.189 4.56548V3.56548C172.975 3.56548 172.767 3.6342 172.595 3.76153L173.189 4.56548ZM188.815 4.91604L188.888 3.91871C188.864 3.91693 188.84 3.91604 188.815 3.91604V4.91604ZM159.502 37.7331L159.121 36.8086L159.121 36.8086L159.502 37.7331ZM25.1657 10.2847L24.6688 9.41686L24.6688 9.41686L25.1657 10.2847ZM4.41398 36.0803L3.47732 35.7301L3.47732 35.7301L4.41398 36.0803ZM3.34588 69.9562L2.37258 70.1857L3.34588 69.9562ZM6.81825 80.5766L5.94734 81.0681L5.94734 81.0681L6.81825 80.5766ZM12.3484 87.5401L13.0572 86.8347L13.0572 86.8347L12.3484 87.5401ZM25.9068 99.0584L25.4771 99.9614L25.4771 99.9614L25.9068 99.0584ZM35.3235 103.482L34.8844 104.38L34.8844 104.38L35.3235 103.482ZM40.0755 105.08L40.1864 104.086L40.1864 104.086L40.0755 105.08ZM44.653 106.328L44.0631 107.136L44.0631 107.136L44.653 106.328ZM49.0344 107.051L48.9345 108.046L48.9345 108.046L49.0344 107.051ZM56.0316 107.818L56.0097 108.817L56.0097 108.817L56.0316 107.818ZM97.6221 104.095L98.0082 105.017L98.0082 105.017L97.6221 104.095ZM105.382 98.5329L105.975 99.3383L105.975 99.3383L105.382 98.5329ZM120.663 83.5766L121.486 84.1441L121.486 84.1441L120.663 83.5766ZM121.338 34.3723L120.468 34.8646L120.468 34.8646L121.338 34.3723ZM116.848 23.1606L116.106 23.8316L116.106 23.8316L116.848 23.1606ZM109.393 17.1606L109.97 16.344L109.97 16.344L109.393 17.1606ZM101.546 11.1606L101.19 12.095L101.19 12.095L101.546 11.1606ZM95.8565 8.46715L95.4488 9.38027L95.4488 9.38027L95.8565 8.46715ZM87.5514 5.94891L87.1875 6.88035L87.1875 6.88035L87.5514 5.94891ZM80.0747 3.38686L80.1993 2.39465L80.1993 2.39465L80.0747 3.38686ZM74.7342 3.05839L74.5104 4.03303L74.5104 4.03303L74.7342 3.05839ZM78.3215 82.325L78.6221 83.2788L78.6221 83.2788L78.3215 82.325ZM86.1137 79.5276L86.6082 80.3968L86.6082 80.3968L86.1137 79.5276ZM97.1436 65.9019L96.2077 65.5498L97.1436 65.9019ZM97.7113 48.0081L98.6843 47.7772L98.6843 47.7772L97.7113 48.0081ZM95.8657 42.3982L96.7353 41.9044L96.7353 41.9044L95.8657 42.3982ZM92.9263 38.7199L93.6328 38.0122L93.6328 38.0122L92.9263 38.7199ZM85.7197 32.6358L86.1472 31.7318L86.1472 31.7318L85.7197 32.6358ZM80.7146 30.2993L81.1514 29.3998L81.1514 29.3998L80.7146 30.2993ZM78.1888 29.4549L78.299 28.461L78.299 28.461L78.1888 29.4549ZM75.7557 28.7956L76.3432 27.9864L76.3432 27.9864L75.7557 28.7956ZM73.4269 28.4139L73.3276 29.409L73.3276 29.409L73.4269 28.4139ZM69.7078 28.0091L69.7295 27.0093L69.7295 27.0093L69.7078 28.0091ZM47.6015 29.9754L47.2175 29.0521L47.2175 29.0521L47.6015 29.9754ZM43.4769 32.9134L44.0671 33.7206L44.0671 33.7206L43.4769 32.9134ZM39.6187 35.5159L38.9122 34.8082L38.9122 34.8082L39.6187 35.5159ZM35.355 40.8135L36.1768 41.3834L36.1768 41.3834L35.355 40.8135ZM34.9959 66.8041L35.865 66.3095L35.865 66.3095L34.9959 66.8041ZM37.3826 72.7263L36.6432 73.3996L36.6432 73.3996L37.3826 72.7263ZM41.3451 75.8956L40.7702 76.7139L40.7702 76.7139L41.3451 75.8956ZM45.516 79.0649L45.1619 80.0001L45.1619 80.0001L45.516 79.0649ZM48.54 80.4877L48.9456 79.5736L48.9456 79.5736L48.54 80.4877ZM52.9543 81.8178L52.5924 82.7501L52.5924 82.7501L52.9543 81.8178ZM56.9283 83.1712L56.8045 84.1635L56.8045 84.1635L56.9283 83.1712ZM59.7669 83.3447L59.9894 82.3697L59.9894 82.3697L59.7669 83.3447ZM135.548 22.9703V30.897H137.548V22.9703H135.548ZM135.548 30.897C135.548 32.3307 135.538 33.4814 135.228 34.726L137.169 35.209C137.546 33.6943 137.548 32.3103 137.548 30.897H135.548ZM135.228 34.726C134.887 36.0964 134.845 37.437 134.88 38.7139C134.917 40.0648 135.024 41.16 135.024 42.4268H137.024C137.024 41.1808 136.91 39.7889 136.879 38.6596C136.847 37.4563 136.892 36.3235 137.169 35.209L135.228 34.726ZM135.024 42.4268C135.024 42.5688 134.989 43.5166 135.039 44.3726C135.064 44.7994 135.113 45.2798 135.22 45.6791C135.273 45.8733 135.357 46.1201 135.507 46.3416C135.659 46.566 135.975 46.8928 136.489 46.9232L136.607 44.9266C136.955 44.9472 137.129 45.1701 137.162 45.2186C137.193 45.2641 137.179 45.2629 137.151 45.1592C137.099 44.9627 137.058 44.6476 137.035 44.2558C136.99 43.4746 137.024 42.6929 137.024 42.4268H135.024ZM147.25 43.6807C147.664 43.496 148.09 43.2835 148.5 43.0799C148.918 42.8726 149.325 42.6714 149.734 42.4903C150.563 42.1239 151.315 41.879 152.005 41.8482L151.916 39.8502C150.851 39.8978 149.826 40.2628 148.925 40.6613C148.47 40.8627 148.025 41.0827 147.611 41.2884C147.189 41.4977 146.803 41.6899 146.435 41.8545L147.25 43.6807ZM165.939 36.0843C165.358 36.0843 165.123 35.6257 165.101 35.5841C165.053 35.488 165.045 35.4229 165.05 35.4498C165.057 35.4848 165.068 35.5853 165.073 35.7712C165.083 36.1266 165.069 36.6269 165.041 37.1642C164.986 38.2351 164.884 39.343 164.868 39.4878L166.854 39.7177C166.877 39.5218 166.981 38.3705 167.038 37.2673C167.067 36.7176 167.085 36.1521 167.072 35.7136C167.066 35.5025 167.052 35.274 167.015 35.0792C166.999 34.9912 166.965 34.836 166.885 34.6786C166.832 34.5756 166.561 34.0843 165.939 34.0843V36.0843ZM164.868 39.4878C164.179 45.4403 164.175 51.4044 164.175 57.3259H166.175C166.175 51.3868 166.181 45.5372 166.854 39.7177L164.868 39.4878ZM164.178 57.4013L164.888 66.7887L166.882 66.6379L166.172 57.2505L164.178 57.4013ZM164.885 66.7133C164.885 69.951 164.737 73.331 164.864 76.6551L166.863 76.5785C166.737 73.294 166.885 70.0821 166.885 66.7133H164.885ZM164.868 101.13C165.03 101.768 165.349 102.499 165.626 103.128C165.923 103.804 166.176 104.377 166.305 104.829L168.228 104.281C168.053 103.666 167.73 102.944 167.457 102.323C167.163 101.654 166.92 101.084 166.807 100.638L164.868 101.13ZM166.305 104.829C166.423 105.244 166.735 105.443 166.886 105.52C167.049 105.602 167.208 105.638 167.31 105.655C167.521 105.693 167.748 105.697 167.918 105.695C168.099 105.693 168.277 105.682 168.407 105.674C168.593 105.662 168.595 105.663 168.56 105.661L168.649 103.663C168.598 103.661 168.552 103.662 168.53 103.663C168.503 103.664 168.474 103.666 168.449 103.667C168.401 103.67 168.336 103.674 168.279 103.678C168.155 103.686 168.021 103.693 167.894 103.695C167.756 103.697 167.68 103.69 167.657 103.686C167.641 103.683 167.701 103.69 167.788 103.735C167.865 103.774 168.127 103.925 168.228 104.281L166.305 104.829ZM168.56 105.661C169.529 105.704 170.508 105.664 171.407 105.645C172.327 105.625 173.191 105.625 174.035 105.73L174.282 103.745C173.284 103.621 172.297 103.625 171.364 103.645C170.41 103.666 169.532 103.703 168.649 103.663L168.56 105.661ZM174.035 105.73C176.544 106.042 179.032 106.054 181.485 105.991C183.966 105.928 186.35 105.792 188.796 105.792V103.792C186.324 103.792 183.825 103.931 181.434 103.992C179.015 104.053 176.643 104.039 174.282 103.745L174.035 105.73ZM188.796 105.792C191.265 105.792 192.572 105.9 195.143 105.039L194.508 103.142C192.293 103.884 191.31 103.792 188.796 103.792V105.792ZM195.826 104.091C195.826 94.8554 196.261 87.4067 195.434 78.096L193.442 78.2731C194.259 87.466 193.826 94.7296 193.826 104.091H195.826ZM195.434 78.096C195.159 75.0012 195.199 71.8792 195.317 68.7183C195.434 65.5783 195.63 62.362 195.651 59.1827L193.651 59.1693C193.63 62.3095 193.438 65.4387 193.319 68.6439C193.2 71.8281 193.155 75.0506 193.442 78.2731L195.434 78.096ZM195.651 59.1827C195.676 55.5113 195.651 51.8301 195.651 48.1721H193.651C193.651 51.8492 193.676 55.5057 193.651 59.1693L195.651 59.1827ZM195.651 48.1721C195.651 45.4462 195.735 42.7193 195.82 39.975C195.906 37.2357 195.994 34.4784 196 31.7171L194 31.7127C193.994 34.4398 193.907 37.1672 193.821 39.9125C193.736 42.6527 193.651 45.4101 193.651 48.1721H195.651ZM196 31.7171C196.001 31.29 195.905 30.4162 195.8 29.4862C195.691 28.5147 195.562 27.3971 195.473 26.388L193.48 26.5637C193.572 27.6029 193.705 28.7507 193.813 29.7096C193.925 30.71 194.001 31.4316 194 31.7127L196 31.7171ZM195.473 26.388C195.114 22.3224 195.242 17.0871 195.29 12.7857C195.313 10.6572 195.317 8.74105 195.223 7.35232C195.177 6.66728 195.104 6.04729 194.977 5.57707C194.915 5.34857 194.82 5.07716 194.656 4.84209C194.486 4.59804 194.142 4.26656 193.604 4.26656V6.26656C193.24 6.26656 193.05 6.03626 193.015 5.98596C192.986 5.94465 193.008 5.95957 193.047 6.10135C193.12 6.37169 193.184 6.82807 193.228 7.48629C193.315 8.78407 193.313 10.622 193.29 12.7636C193.243 17.0025 193.111 22.3718 193.48 26.5637L195.473 26.388ZM137.35 23.5679C137.292 23.6451 137.234 23.6922 137.2 23.7164C137.166 23.7409 137.143 23.7518 137.14 23.7533C137.137 23.7546 137.166 23.7418 137.245 23.7224C137.405 23.6834 137.633 23.6491 137.936 23.6125C138.473 23.5475 139.29 23.4759 139.882 23.3097L139.34 21.3844C138.944 21.4958 138.372 21.5451 137.696 21.627C137.391 21.6638 137.057 21.7094 136.77 21.7796C136.626 21.8149 136.46 21.864 136.301 21.9375C136.155 22.0049 135.924 22.1331 135.746 22.3727L137.35 23.5679ZM139.882 23.3097C141.007 22.993 142.09 22.4783 143.098 21.9477C144.155 21.3914 145.039 20.8702 145.988 20.3992L145.099 18.6079C144.149 19.0791 143.09 19.6919 142.167 20.1779C141.195 20.6896 140.26 21.1255 139.34 21.3844L139.882 23.3097ZM145.988 20.3992C147.438 19.679 148.911 19.0825 150.426 18.46C151.93 17.8423 153.471 17.2007 154.992 16.4073L154.067 14.6341C152.636 15.3803 151.173 15.9909 149.666 16.6101C148.17 17.2245 146.626 17.8496 145.099 18.6079L145.988 20.3992ZM154.992 16.4073C155.756 16.0086 156.546 15.6603 157.366 15.3053C158.176 14.9545 159.022 14.5943 159.847 14.1877L158.963 12.3937C158.193 12.7734 157.4 13.111 156.571 13.47C155.752 13.8249 154.902 14.1985 154.067 14.6341L154.992 16.4073ZM159.847 14.1877C160.683 13.7757 161.487 13.3138 162.26 12.8677C163.042 12.4166 163.793 11.982 164.565 11.594L163.667 9.80679C162.834 10.2256 162.031 10.6908 161.26 11.1353C160.481 11.585 159.732 12.0149 158.963 12.3937L159.847 14.1877ZM173.189 5.56548H185.306V3.56548H173.189V5.56548ZM185.306 5.56548C185.823 5.56548 186.324 5.6401 186.91 5.72936C187.475 5.81538 188.124 5.91604 188.815 5.91604V3.91604C188.299 3.91604 187.798 3.84142 187.212 3.75216C186.647 3.66613 185.998 3.56548 185.306 3.56548V5.56548ZM188.742 5.91338L193.531 6.26389L193.677 4.26923L188.888 3.91871L188.742 5.91338ZM164.752 90.1932C164.637 92.29 164.59 94.699 164.606 96.7226C164.614 97.7342 164.637 98.6573 164.677 99.4014C164.715 100.111 164.771 100.749 164.868 101.13L166.807 100.638C166.766 100.477 166.714 100.033 166.674 99.2945C166.637 98.5909 166.613 97.7003 166.606 96.7068C166.59 94.7201 166.637 92.353 166.749 90.3023L164.752 90.1932ZM164.864 76.6551C164.989 79.9308 164.976 86.0789 164.752 90.1932L166.749 90.3023C166.977 86.1216 166.99 79.9114 166.863 76.5785L164.864 76.6551ZM165.939 35.0843C165.558 34.1594 165.558 34.1594 165.558 34.1594C165.558 34.1594 165.558 34.1595 165.558 34.1595C165.558 34.1595 165.558 34.1596 165.558 34.1597C165.557 34.1599 165.557 34.1602 165.556 34.1606C165.554 34.1614 165.551 34.1625 165.547 34.1641C165.54 34.1672 165.528 34.1717 165.514 34.1778C165.484 34.1898 165.441 34.2077 165.385 34.2307C165.273 34.2769 165.11 34.3439 164.906 34.4276C164.499 34.595 163.93 34.829 163.282 35.0954C161.987 35.628 160.378 36.2904 159.121 36.8086L159.883 38.6576C161.139 38.1397 162.748 37.4777 164.043 36.945C164.691 36.6787 165.26 36.4447 165.667 36.2774C165.87 36.1937 166.033 36.1267 166.145 36.0806C166.201 36.0575 166.245 36.0397 166.274 36.0276C166.289 36.0216 166.3 36.017 166.307 36.0139C166.311 36.0124 166.314 36.0112 166.316 36.0104C166.317 36.01 166.318 36.0097 166.318 36.0095C166.318 36.0094 166.319 36.0094 166.319 36.0093C166.319 36.0093 166.319 36.0093 166.319 36.0093C166.319 36.0093 166.319 36.0093 165.939 35.0843ZM159.121 36.8086C157.616 37.4289 156.103 38.2206 154.855 38.8142C153.524 39.4475 152.558 39.8216 151.916 39.8502L152.005 41.8482C153.119 41.7985 154.45 41.2217 155.714 40.6202C157.062 39.9791 158.442 39.2519 159.883 38.6576L159.121 36.8086ZM146.435 41.8545C145.719 42.1738 143.377 42.9546 141.063 43.6673C139.921 44.019 138.812 44.3461 137.952 44.5819C137.521 44.7002 137.16 44.7931 136.893 44.8545C136.758 44.8854 136.657 44.9059 136.588 44.9177C136.489 44.9345 136.521 44.9216 136.607 44.9266L136.489 46.9232C136.657 46.9331 136.83 46.9053 136.923 46.8894C137.046 46.8686 137.188 46.8388 137.34 46.8038C137.647 46.7334 138.038 46.6321 138.481 46.5108C139.368 46.2675 140.498 45.9338 141.652 45.5786C143.928 44.8775 146.4 44.06 147.25 43.6807L146.435 41.8545ZM172.595 3.76153C171.158 4.82396 169.302 6.14873 167.606 7.30692C165.889 8.48018 164.4 9.43888 163.667 9.80679L164.565 11.594C165.439 11.1552 167.04 10.116 168.735 8.95834C170.451 7.78558 172.328 6.44626 173.784 5.36943L172.595 3.76153ZM39.5235 4.03551C36.1981 5.09043 30.0781 6.31957 24.6688 9.41686L25.6625 11.1525C30.8248 8.19668 36.518 7.08718 40.1282 5.94188L39.5235 4.03551ZM3.47732 35.7301C1.12718 42.0154 0.0729151 47.3789 0.00366562 52.8222C-0.06542 58.2527 0.846915 63.7161 2.37258 70.1857L4.31919 69.7267C2.8076 63.3168 1.93748 58.0376 2.0035 52.8477C2.06937 47.6706 3.06778 42.5359 5.35065 36.4305L3.47732 35.7301ZM2.37258 70.1857C3.36303 74.3857 3.71685 77.1153 5.94734 81.0681L7.68915 80.0852C5.63355 76.4424 5.3418 74.0631 4.31919 69.7267L2.37258 70.1857ZM5.94734 81.0681C7.72206 84.2131 9.44332 86.0392 11.6397 88.2456L13.0572 86.8347C10.8994 84.667 9.32998 82.9929 7.68915 80.0852L5.94734 81.0681ZM11.6397 88.2456C15.6218 92.246 19.9891 97.3499 25.4771 99.9614L26.3365 98.1554C21.2541 95.737 17.2198 91.0164 13.0572 86.8347L11.6397 88.2456ZM25.4771 99.9614C28.652 101.472 31.7695 102.858 34.8844 104.38L35.7626 102.583C32.6586 101.066 29.4267 99.6259 26.3365 98.1554L25.4771 99.9614ZM34.8844 104.38C36.4098 105.126 38.1468 105.871 39.9645 106.074L40.1864 104.086C38.7318 103.924 37.256 103.313 35.7626 102.583L34.8844 104.38ZM39.9645 106.074C40.3598 106.118 41.2685 106.281 42.179 106.504C42.6303 106.615 43.0627 106.736 43.4186 106.858C43.8038 106.991 44.0036 107.092 44.0631 107.136L45.243 105.521C44.921 105.286 44.4709 105.105 44.0676 104.967C43.6351 104.818 43.1403 104.681 42.6558 104.562C41.6944 104.326 40.6957 104.143 40.1864 104.086L39.9645 106.074ZM44.0631 107.136C44.4493 107.418 44.9066 107.584 45.3292 107.69C45.7605 107.799 46.2215 107.862 46.6587 107.903C47.0975 107.945 47.5395 107.966 47.9299 107.985C48.333 108.004 48.6661 108.019 48.9345 108.046L49.1344 106.056C48.801 106.023 48.4056 106.005 48.0245 105.987C47.6307 105.968 47.2326 105.948 46.8466 105.912C46.4589 105.875 46.1103 105.824 45.8181 105.751C45.5171 105.675 45.3371 105.59 45.243 105.521L44.0631 107.136ZM48.9345 108.046C50.0647 108.16 51.1946 108.333 52.3909 108.493C53.5694 108.651 54.7875 108.791 56.0097 108.817L56.0534 106.818C54.9461 106.794 53.8174 106.666 52.6557 106.511C51.5116 106.358 50.3078 106.174 49.1344 106.056L48.9345 108.046ZM56.0097 108.817C58.1046 108.863 60.189 109.15 62.3391 109.435C64.4686 109.718 66.6605 110 68.8706 110V108C66.8117 108 64.7449 107.738 62.6026 107.453C60.4809 107.171 58.2802 106.866 56.0534 106.818L56.0097 108.817ZM68.8706 110H82.9739V108H68.8706V110ZM82.9739 110C86.0742 110 88.5875 109.266 90.9551 108.276C92.1295 107.784 93.277 107.225 94.4275 106.668C95.5856 106.106 96.7537 105.542 98.0082 105.017L97.236 103.172C95.9241 103.722 94.7099 104.308 93.5551 104.868C92.3928 105.431 91.297 105.964 90.183 106.431C87.9736 107.355 85.7292 108 82.9739 108V110ZM98.0082 105.017C99.5198 104.385 100.95 103.363 102.261 102.325C103.626 101.244 104.787 100.212 105.975 99.3383L104.79 97.7274C103.586 98.6132 102.246 99.7851 101.019 100.757C99.738 101.771 98.4841 102.65 97.236 103.172L98.0082 105.017ZM105.975 99.3383C107.161 98.4658 108.35 97.8293 109.624 97.076C110.875 96.3363 112.157 95.509 113.35 94.3113L111.932 92.9004C110.922 93.9154 109.814 94.6398 108.606 95.3545C107.421 96.0556 106.082 96.7762 104.79 97.7274L105.975 99.3383ZM113.35 94.3113C116.516 91.1303 119.008 87.7394 121.486 84.1441L119.839 83.0092C117.379 86.5784 114.969 89.8497 111.932 92.9004L113.35 94.3113ZM121.486 84.1441C122.316 82.9398 123.381 81.3902 124.235 79.7458C125.081 78.1171 125.782 76.2829 125.782 74.5109H123.782C123.782 75.8004 123.257 77.2896 122.46 78.8237C121.671 80.342 120.676 81.7946 119.839 83.0092L121.486 84.1441ZM125.782 74.5109C125.782 72.1764 125.879 69.8393 125.978 67.4756C126.076 65.1188 126.175 62.7355 126.175 60.3431H124.175C124.175 62.6871 124.078 65.029 123.979 67.3925C123.881 69.7492 123.782 72.1278 123.782 74.5109H125.782ZM126.175 60.3431C126.175 51.7416 126.796 41.9901 122.209 33.88L120.468 34.8646C124.732 42.4032 124.175 51.4877 124.175 60.3431H126.175ZM122.209 33.88C121.323 32.3132 120.914 30.4302 120.349 28.3459C119.806 26.3412 119.118 24.1793 117.589 22.4896L116.106 23.8316C117.284 25.1333 117.877 26.8697 118.419 28.8692C118.939 30.7893 119.423 33.0164 120.468 34.8646L122.209 33.88ZM117.589 22.4896C115.354 20.0191 112.513 18.1415 109.97 16.344L108.816 17.9771C111.445 19.836 114.056 21.5658 116.106 23.8316L117.589 22.4896ZM109.97 16.344C108.727 15.4648 107.59 14.326 106.264 13.1442C104.986 12.0056 103.561 10.8585 101.902 10.2261L101.19 12.095C102.484 12.5881 103.678 13.5185 104.933 14.6373C106.14 15.7128 107.449 17.0112 108.816 17.9772L109.97 16.344ZM101.902 10.2261C100.974 9.87266 100.07 9.43306 99.1354 8.96189C98.2144 8.49734 97.2499 7.99414 96.2642 7.55403L95.4488 9.38027C96.3782 9.79524 97.2793 10.2657 98.2347 10.7476C99.1769 11.2229 100.159 11.7024 101.19 12.095L101.902 10.2261ZM96.2642 7.55403C94.8462 6.92095 93.3625 6.53603 91.9572 6.18667C90.5259 5.83086 89.1855 5.51369 87.9153 5.01746L87.1875 6.88035C88.6048 7.43403 90.0892 7.78317 91.4747 8.1276C92.8861 8.47848 94.2112 8.82773 95.4488 9.38027L96.2642 7.55403ZM87.9153 5.01746C85.4726 4.06315 83.2429 2.77684 80.1993 2.39465L79.9501 4.37907C82.6647 4.71995 84.415 5.79718 87.1875 6.88035L87.9153 5.01746ZM80.1993 2.39465C79.2195 2.27161 78.2526 2.29465 77.405 2.29259C76.5296 2.29047 75.7412 2.26359 74.958 2.08376L74.5104 4.03303C75.5266 4.26636 76.5062 4.29042 77.4001 4.29259C78.3218 4.29482 79.1254 4.27551 79.9501 4.37907L80.1993 2.39465ZM74.958 2.08376C74.4595 1.96929 73.947 1.77969 73.2758 1.57128C72.6652 1.38169 71.9352 1.18248 71.2248 1.18248V3.18248C71.607 3.18248 72.085 3.29571 72.6827 3.48131C73.2198 3.64809 73.9157 3.89646 74.5104 4.03303L74.958 2.08376ZM71.2248 1.18248C70.0252 1.18248 68.8698 0.917048 67.572 0.61695C66.3072 0.32448 64.9095 0 63.3993 0V2C64.647 2 65.8293 2.26676 67.1214 2.56553C68.3804 2.85668 69.7588 3.18248 71.2248 3.18248V1.18248ZM24.6688 9.41686C18.9766 12.6761 14.8155 16.1741 11.5008 20.4259C8.19246 24.6694 5.76219 29.6193 3.47732 35.7301L5.35065 36.4305C7.59946 30.4162 9.94431 25.6752 13.0781 21.6556C16.2054 17.6442 20.1533 14.307 25.6625 11.1525L24.6688 9.41686ZM40.1282 5.94188C41.7798 5.41793 46.9036 4.43196 52.0445 3.56797C54.5955 3.13924 57.1213 2.74534 59.178 2.45897C61.2674 2.16805 62.7935 2 63.3993 2V0C62.6261 0 60.9495 0.193022 58.9022 0.478084C56.8222 0.767702 54.2772 1.1647 51.713 1.59563C46.6237 2.45096 41.3397 3.45934 39.5235 4.03551L40.1282 5.94188ZM78.6221 83.2788C80.3234 82.7424 83.6755 82.0656 86.6082 80.3968L85.6191 78.6585C82.9328 80.187 80.0059 80.7455 78.0208 81.3713L78.6221 83.2788ZM98.0796 66.2541C99.3448 62.8913 99.9186 60.0035 99.9562 57.0646C99.9937 54.1387 99.4986 51.2088 98.6843 47.7772L96.7384 48.239C97.5384 51.6106 97.9908 54.3551 97.9564 57.039C97.9222 59.71 97.405 62.3676 96.2077 65.5498L98.0796 66.2541ZM98.6843 47.7772C98.1656 45.591 97.9626 44.0659 96.7353 41.9044L94.9961 42.892C96.0469 44.7426 96.1871 45.916 96.7384 48.239L98.6843 47.7772ZM96.7353 41.9044C95.7602 40.1871 94.8093 39.1867 93.6328 38.0122L92.2198 39.4276C93.3577 40.5636 94.1558 41.4121 94.9961 42.892L96.7353 41.9044ZM93.6328 38.0122C91.5585 35.9414 89.159 33.156 86.1472 31.7318L85.2922 33.5398C87.8988 34.7724 89.965 37.1766 92.2198 39.4276L93.6328 38.0122ZM86.1472 31.7318C84.44 30.9244 82.8096 30.2051 81.1514 29.3998L80.2777 31.1988C81.925 31.9989 83.6695 32.7724 85.2922 33.5398L86.1472 31.7318ZM81.1514 29.3998C80.3331 29.0023 79.3493 28.5775 78.299 28.461L78.0785 30.4488C78.7676 30.5253 79.4915 30.817 80.2777 31.1988L81.1514 29.3998ZM78.299 28.461C78.1153 28.4406 77.6532 28.3593 77.181 28.2442C76.9488 28.1875 76.7335 28.1273 76.5621 28.0688C76.3613 28.0004 76.3136 27.9648 76.3432 27.9864L75.1682 29.6048C75.4006 29.7736 75.6983 29.8874 75.9166 29.9618C76.1643 30.0463 76.4418 30.1225 76.707 30.1872C77.2298 30.3147 77.7814 30.4159 78.0786 30.4488L78.299 28.461ZM76.3432 27.9864C76.0697 27.7878 75.762 27.6818 75.5094 27.6185C75.2479 27.553 74.9769 27.5169 74.7331 27.494C74.4877 27.471 74.2426 27.4592 74.0359 27.4495C73.8165 27.4391 73.6539 27.4316 73.5262 27.4188L73.3276 29.409C73.5198 29.4281 73.7443 29.4379 73.9418 29.4472C74.152 29.4571 74.3534 29.4672 74.5464 29.4853C74.741 29.5036 74.9003 29.5277 75.0234 29.5586C75.1553 29.5916 75.1864 29.6181 75.1682 29.6048L76.3432 27.9864ZM73.5263 27.4188C72.9355 27.3599 72.352 27.2704 71.7041 27.1844C71.0738 27.1007 70.4057 27.024 69.7295 27.0093L69.6861 29.0088C70.2481 29.021 70.8273 29.0856 71.4409 29.167C72.0369 29.2461 72.6939 29.3457 73.3276 29.409L73.5263 27.4188ZM69.7295 27.0093C68.6465 26.9858 67.5655 26.8385 66.4161 26.6867C65.2872 26.5376 64.0932 26.3845 62.8836 26.3845V28.3845C63.943 28.3845 65.0126 28.5187 66.1542 28.6695C67.2754 28.8175 68.472 28.9825 69.6861 29.0088L69.7295 27.0093ZM62.8836 26.3845H55.3874V28.3845H62.8836V26.3845ZM55.3874 26.3845C53.6598 26.3845 52.2616 26.7923 50.9664 27.331C50.3281 27.5965 49.7061 27.8976 49.0974 28.1909C48.4811 28.4878 47.8709 28.7803 47.2175 29.0521L47.9856 30.8987C48.6962 30.6031 49.3524 30.288 49.9654 29.9927C50.5859 29.6938 51.1563 29.4181 51.7344 29.1777C52.8719 28.7046 54.0026 28.3845 55.3874 28.3845V26.3845ZM47.2175 29.0521C46.3527 29.4119 45.5514 29.9849 44.8476 30.5387C44.0896 31.1351 43.5144 31.6472 42.8867 32.1062L44.0671 33.7206C44.7108 33.25 45.4645 32.5982 46.0843 32.1105C46.7582 31.5802 47.3836 31.1492 47.9856 30.8987L47.2175 29.0521ZM42.8867 32.1062C42.2814 32.5487 41.6837 32.8654 40.9861 33.2755C40.3115 33.6719 39.5887 34.1329 38.9122 34.8082L40.3252 36.2236C40.8195 35.7301 41.367 35.3715 41.9995 34.9997C42.6089 34.6415 43.3549 34.2414 44.0671 33.7206L42.8867 32.1062ZM38.9122 34.8082C37.1985 36.5191 35.8546 38.3383 34.5333 40.2437L36.1768 41.3834C37.4799 39.5043 38.7418 37.8044 40.3252 36.2236L38.9122 34.8082ZM34.5333 40.2437C34.0939 40.8774 33.5114 41.7188 33.0417 42.6173C32.5803 43.4998 32.1653 44.5509 32.1653 45.6022H34.1653C34.1653 45.0364 34.4021 44.332 34.8141 43.5439C35.2177 42.7718 35.7302 42.0274 36.1768 41.3834L34.5333 40.2437ZM32.1653 45.6022C32.1653 46.8238 32.1142 48.0483 32.0619 49.2985C32.0099 50.5418 31.9567 51.8106 31.9567 53.0859H33.9567C33.9567 51.8593 34.0079 50.6322 34.0601 49.3821C34.1121 48.1389 34.1653 46.8726 34.1653 45.6022H32.1653ZM31.9567 53.0859C31.9567 57.5689 31.6113 62.879 34.1268 67.2988L35.865 66.3095C33.676 62.4633 33.9567 57.8239 33.9567 53.0859H31.9567ZM34.1268 67.2988C34.5598 68.0596 34.7589 68.9724 35.0699 70.1123C35.3592 71.1728 35.7472 72.4156 36.6432 73.3996L38.122 72.0531C37.5792 71.4569 37.2871 70.6405 36.9994 69.586C36.7334 68.6108 36.4586 67.3525 35.865 66.3095L34.1268 67.2988ZM36.6432 73.3996C37.8752 74.7525 39.4391 75.7788 40.7702 76.7139L41.9199 75.0774C40.5018 74.0812 39.1682 73.2019 38.122 72.053L36.6432 73.3996ZM40.7702 76.7139C41.4025 77.1581 41.9662 77.7223 42.699 78.3714C43.3835 78.9777 44.1947 79.6339 45.1619 80.0001L45.8702 78.1298C45.2675 77.9015 44.6868 77.4603 44.0251 76.8743C43.4117 76.331 42.6749 75.6078 41.9199 75.0774L40.7702 76.7139ZM45.1619 80.0001C45.6311 80.1778 46.0938 80.4008 46.5884 80.6487C47.07 80.8901 47.5974 81.1634 48.1344 81.4017L48.9456 79.5736C48.4647 79.3602 48.0005 79.1193 47.4847 78.8607C46.9819 78.6087 46.4417 78.3462 45.8702 78.1298L45.1619 80.0001ZM48.1344 81.4017C48.93 81.7547 49.7554 81.9663 50.5009 82.1504C51.2724 82.341 51.9514 82.5012 52.5924 82.7501L53.3162 80.8856C52.5288 80.5799 51.7064 80.3881 50.9806 80.2088C50.229 80.0231 49.5615 79.8469 48.9456 79.5736L48.1344 81.4017ZM52.5924 82.7501C53.8143 83.2244 55.1106 83.9521 56.8045 84.1635L57.0522 82.1789C55.6855 82.0083 54.8664 81.4875 53.3162 80.8856L52.5924 82.7501ZM56.8045 84.1635C57.3612 84.2329 57.9128 84.2199 58.3463 84.221C58.8073 84.2221 59.1821 84.2369 59.5444 84.3196L59.9894 82.3697C59.3954 82.2342 58.8305 82.2221 58.3511 82.221C57.8441 82.2197 57.4546 82.2291 57.0522 82.1789L56.8045 84.1635ZM59.5444 84.3196C59.7871 84.375 60.017 84.4616 60.4049 84.5813C60.7324 84.6824 61.1788 84.8073 61.6323 84.8073V82.8073C61.505 82.8073 61.3092 82.7673 60.9946 82.6702C60.7402 82.5917 60.3278 82.447 59.9894 82.3697L59.5444 84.3196ZM61.6323 84.8073C62.2083 84.8073 62.7709 84.9337 63.4696 85.0942C64.1356 85.2473 64.9283 85.4319 65.7917 85.4319V83.4319C65.1891 83.4319 64.6106 83.3043 63.9175 83.145C63.2572 82.9933 62.4731 82.8073 61.6323 82.8073V84.8073ZM86.6082 80.3968C89.6763 78.6509 91.9382 76.7657 93.7444 74.4633C95.5443 72.169 96.8564 69.5049 98.0796 66.2541L96.2077 65.5498C95.021 68.7036 93.7951 71.1584 92.1709 73.2288C90.553 75.2912 88.5048 77.0164 85.6191 78.6585L86.6082 80.3968ZM78.0208 81.3713C77.1811 81.636 74.4948 82.1517 71.7503 82.6101C70.3975 82.836 69.0594 83.0434 67.9716 83.1939C66.8513 83.3489 66.0749 83.4319 65.7917 83.4319V85.4319C66.2414 85.4319 67.1673 85.3242 68.2458 85.175C69.3567 85.0213 70.7139 84.8109 72.0798 84.5827C74.773 84.1329 77.6186 83.5951 78.6221 83.2788L78.0208 81.3713Z" fill="#111010"/>
</svg>
